<?xml version="1.0" encoding="utf-8"?>
<!-- Generator: Adobe Illustrator 20.1.0, SVG Export Plug-In . SVG Version: 6.00 Build 0)  -->
<svg version="1.1" id="Capa_1" xmlns="http://www.w3.org/2000/svg" xmlns:xlink="http://www.w3.org/1999/xlink" x="0px" y="0px"
	 viewBox="0 0 151.6 49.6" style="enable-background:new 0 0 151.6 49.6;" xml:space="preserve">
<style type="text/css">
	.st0{fill:#AAAAAA;}
	.st1{fill:#FFFFFF;}
</style>
<g id="base">
	<path class="st0" d="M141.6,49.5H9.9c-5.5,0-10-4.5-10-10V10c0-5.5,4.5-10,10-10h131.7c5.5,0,10,4.5,10,10v29.5
		C151.6,45,147.1,49.5,141.6,49.5z"/>
</g>
<g id="apple">
	<g>
		<path class="st1" d="M48.7,14.2l-0.5-1.7c-0.1-0.4-0.2-0.7-0.3-1.1l0,0c-0.1,0.4-0.2,0.7-0.3,1.1l-0.6,1.7H48.7z M46.9,14.8
			l-0.6,1.8h-0.8l2-5.6h0.9l1.9,5.6h-0.8l-0.6-1.8H46.9z M51,12.5l0.8,2.3c0.2,0.4,0.3,0.7,0.4,1.1l0,0c0.1-0.4,0.2-0.7,0.4-1.1
			l0.8-2.3h0.8l-1.6,4h-0.7l-1.6-4C50.2,12.5,51,12.5,51,12.5z M56.8,14.5c-0.8,0-1.8,0.1-1.8,0.9c0,0.5,0.4,0.7,0.7,0.7
			c0.5,0,0.9-0.4,1-0.7c0-0.1,0-0.2,0-0.3L56.8,14.5L56.8,14.5z M57.5,15.6c0,0.4,0,0.7,0.1,1h-0.7L56.8,16l0,0
			c-0.2,0.4-0.7,0.6-1.2,0.6c-0.8,0-1.2-0.6-1.2-1.1c0-1,0.9-1.5,2.5-1.5v-0.1c0-0.4-0.1-1-1-1c-0.4,0-0.8,0.1-1.1,0.3l-0.2-0.5
			c0.4-0.2,0.8-0.4,1.3-0.4c1.2,0,1.6,0.9,1.6,1.7C57.5,14,57.5,15.6,57.5,15.6z M58.7,16.6h0.7v-4h-0.7V16.6z M59,11.7
			c-0.3,0-0.4-0.2-0.4-0.4s0.2-0.4,0.4-0.4c0.3,0,0.4,0.2,0.4,0.4S59.3,11.7,59,11.7L59,11.7z"/>
		<polygon class="st1" points="60.6,16.6 61.3,16.6 61.3,10.6 60.6,10.6 		"/>
		<path class="st1" d="M64.6,14.5c-0.8,0-1.8,0.1-1.8,0.9c0,0.5,0.4,0.7,0.7,0.7c0.5,0,0.9-0.4,1-0.7c0-0.1,0-0.2,0-0.3L64.6,14.5
			L64.6,14.5z M65.3,15.6c0,0.4,0,0.7,0.1,1h-0.7L64.6,16l0,0c-0.2,0.4-0.7,0.6-1.2,0.6c-0.8,0-1.2-0.6-1.2-1.1c0-1,0.9-1.5,2.5-1.5
			v-0.1c0-0.4-0.1-1-1-1c-0.4,0-0.8,0.1-1.1,0.3l-0.2-0.5c0.4-0.2,0.8-0.4,1.3-0.4c1.2,0,1.6,0.9,1.6,1.7
			C65.3,14,65.3,15.6,65.3,15.6z M67.3,14.9c0,0.1,0,0.2,0,0.3c0.2,0.5,0.6,0.9,1.1,0.9c0.8,0,1.2-0.6,1.2-1.6
			c0-0.8-0.4-1.5-1.2-1.5c-0.5,0-1,0.4-1.1,0.9c0,0.1,0,0.2,0,0.4V14.9z M66.5,10.6h0.8v2.5l0,0c0.3-0.4,0.7-0.7,1.4-0.7
			c1,0,1.8,0.9,1.8,2.1c0,1.5-1,2.2-1.8,2.2c-0.6,0-1.1-0.3-1.3-0.8l0,0v0.7h-0.6c0-0.3,0-0.7,0-1.1v-5H66.5z"/>
		<polygon class="st1" points="71.2,16.6 72,16.6 72,10.6 71.2,10.6 		"/>
		<path class="st1" d="M75.8,14.1c0-0.4-0.2-1.2-1.1-1.2c-0.8,0-1.1,0.7-1.1,1.2H75.8z M73.6,14.6c0,1,0.6,1.4,1.4,1.4
			c0.5,0,0.9-0.1,1.1-0.2l0.2,0.5c-0.3,0.1-0.7,0.3-1.4,0.3c-1.2,0-2-0.8-2-2s0.7-2.2,1.9-2.2c1.3,0,1.7,1.1,1.7,1.9
			c0,0.2,0,0.3,0,0.4L73.6,14.6z M80.8,16.1c0.7,0,1.2-0.7,1.2-1.6c0-0.7-0.4-1.6-1.2-1.6c-0.9,0-1.2,0.8-1.2,1.6
			C79.5,15.4,80,16.1,80.8,16.1L80.8,16.1z M80.7,16.7c-1.1,0-1.9-0.8-1.9-2.1s0.9-2.2,2-2.2s1.9,0.9,1.9,2.1
			C82.7,16,81.6,16.7,80.7,16.7L80.7,16.7z M83.7,13.6c0-0.4,0-0.8,0-1.1h0.6v0.7l0,0c0.2-0.4,0.7-0.8,1.3-0.8
			c0.5,0,1.4,0.4,1.4,1.8v2.5h-0.7v-2.4c0-0.6-0.3-1.2-1-1.2c-0.4,0-0.9,0.4-1,0.8c0,0.1-0.1,0.3-0.1,0.4v2.5h-0.7L83.7,13.6
			L83.7,13.6z M90.9,11.6v1h1.1v0.5h-1.1v2.2c0,0.5,0.2,0.8,0.5,0.8c0.2,0,0.4,0,0.4-0.1v0.5c-0.2,0.1-0.4,0.1-0.6,0.1
			c-0.4,0-0.6-0.1-0.8-0.4c-0.2-0.3-0.3-0.6-0.3-1.1V13h-0.6v-0.5h0.6v-0.7L90.9,11.6z M92.7,10.6h0.7v2.5l0,0
			c0.1-0.2,0.3-0.4,0.5-0.5c0.2-0.2,0.4-0.2,0.8-0.2c0.5,0,1.4,0.4,1.4,1.8v2.5h-0.7v-2.4c0-0.7-0.3-1.2-1-1.2c-0.4,0-0.9,0.4-1,0.7
			c0,0.1-0.1,0.2-0.1,0.4v2.5h-0.7V10.6z M99.9,14.1c0-0.4-0.2-1.2-1.1-1.2c-0.8,0-1.1,0.7-1.1,1.2H99.9z M97.8,14.6
			c0,1,0.6,1.4,1.4,1.4c0.5,0,0.9-0.1,1.1-0.2l0.2,0.5c-0.3,0.1-0.7,0.3-1.4,0.3c-1.2,0-2-0.8-2-2s0.7-2.2,1.9-2.2
			c1.3,0,1.7,1.1,1.7,1.9c0,0.2,0,0.3,0,0.4L97.8,14.6z M103.2,16.6h0.7v-4h-0.7V16.6z M103.6,11.7c-0.3,0-0.4-0.2-0.4-0.4
			s0.2-0.4,0.4-0.4c0.3,0,0.4,0.2,0.4,0.4C104.1,11.6,103.9,11.7,103.6,11.7L103.6,11.7z M105.9,13.7c0.2,0,0.4,0.1,0.6,0.1
			c0.9,0,1.4-0.4,1.4-1.2c0-0.8-0.5-1.1-1.3-1.1c-0.4,0-0.5,0-0.7,0.1C105.9,11.5,105.9,13.7,105.9,13.7z M105.2,11
			c0.4-0.1,0.8-0.1,1.4-0.1c0.7,0,1.2,0.2,1.6,0.4s0.5,0.7,0.5,1.1c0,0.5-0.2,0.9-0.4,1.2c-0.4,0.4-1.1,0.6-1.8,0.6
			c-0.2,0-0.4,0-0.6-0.1v2.3h-0.7V11z M109.5,10.6h0.7v2.5l0,0c0.1-0.2,0.3-0.4,0.5-0.5c0.2-0.2,0.4-0.2,0.8-0.2
			c0.5,0,1.4,0.4,1.4,1.8v2.5h-0.7v-2.4c0-0.7-0.3-1.2-1-1.2c-0.4,0-0.9,0.4-1,0.7c0,0.1-0.1,0.2-0.1,0.4v2.5h-0.7V10.6z
			 M115.9,16.1c0.7,0,1.2-0.7,1.2-1.6c0-0.7-0.4-1.6-1.2-1.6c-0.9,0-1.2,0.8-1.2,1.6C114.6,15.4,115.1,16.1,115.9,16.1L115.9,16.1z
			 M115.8,16.7c-1.1,0-1.9-0.8-1.9-2.1s0.9-2.2,2-2.2s1.9,0.9,1.9,2.1C117.9,16,116.8,16.7,115.8,16.7L115.8,16.7z M118.7,13.6
			c0-0.4,0-0.8,0-1.1h0.6v0.7l0,0c0.2-0.4,0.7-0.8,1.3-0.8c0.5,0,1.4,0.4,1.4,1.8v2.5h-0.7v-2.4c0-0.6-0.3-1.2-1-1.2
			c-0.4,0-0.9,0.4-1,0.8c0,0.1-0.1,0.3-0.1,0.4v2.5h-0.7L118.7,13.6L118.7,13.6z M125.9,14.1c0-0.4-0.2-1.2-1.1-1.2
			c-0.8,0-1.1,0.7-1.1,1.2H125.9z M123.7,14.6c0,1,0.6,1.4,1.4,1.4c0.5,0,0.9-0.1,1.1-0.2l0.2,0.5c-0.3,0.1-0.7,0.3-1.4,0.3
			c-1.2,0-2-0.8-2-2s0.7-2.2,1.9-2.2c1.3,0,1.7,1.1,1.7,1.9c0,0.2,0,0.3,0,0.4L123.7,14.6z M51.5,22.8c0.2,0.6,0.4,1.3,0.6,2.1
			l1.3,3.9h-3.9l1.3-3.9C51.2,24.2,51.4,23.5,51.5,22.8L51.5,22.8z M50.4,20.4l-5,14.7h2.3l1.5-4.5H54l1.5,4.5h2.4l-5-14.7H50.4z
			 M63.7,26c2,0,2.9,1.8,2.9,3.7c0,2.4-1.1,3.8-3,3.8c-1.2,0-2.3-0.9-2.6-2c-0.1-0.2-0.1-0.4-0.1-0.7V29c0-0.2,0-0.4,0.1-0.5
			c0-0.1,0-0.1,0-0.2C61.4,26.9,62.5,26,63.7,26 M64.3,24.2c-1.5,0-2.7,0.6-3.5,1.7l-0.1-1.5h-2v0.2c0.1,0.9,0.1,1.9,0.1,3.3v11.3
			h2.2v-5.3c0.7,0.8,1.8,1.3,3.1,1.3c1.3,0,2.5-0.5,3.3-1.4c1-1.1,1.5-2.5,1.5-4.3c0-1.6-0.4-2.9-1.3-3.9
			C66.7,24.7,65.6,24.2,64.3,24.2 M75.1,26c2,0,2.9,1.8,2.9,3.7c0,2.4-1.1,3.8-3,3.8c-1.2,0-2.3-0.9-2.6-2c-0.1-0.2-0.1-0.4-0.1-0.7
			V29c0-0.2,0-0.4,0.1-0.5c0-0.1,0-0.1,0-0.2C72.8,26.9,73.9,26,75.1,26 M75.7,24.2c-1.5,0-2.7,0.6-3.5,1.7l-0.1-1.5h-2v0.2
			c0.1,0.9,0.1,1.9,0.1,3.3v11.3h2.2v-5.3c0.7,0.8,1.8,1.3,3.1,1.3c1.3,0,2.5-0.5,3.3-1.4c1-1.1,1.5-2.5,1.5-4.3
			c0-1.6-0.4-2.9-1.3-3.9C78.1,24.7,77,24.2,75.7,24.2 M90,26.6c-2.1-0.8-2.7-1.4-2.7-2.6c0-1,0.8-1.9,2.5-1.9
			c1.4,0,2.4,0.5,2.6,0.6l0.2,0.1l0.6-1.8l-0.1-0.1c-0.4-0.2-1.4-0.7-3.2-0.7c-2.8,0-4.8,1.7-4.8,4c0,1.9,1.2,3.2,3.9,4.2
			c1.8,0.7,2.5,1.4,2.5,2.6c0,1.4-1.1,2.3-2.8,2.3c-1.1,0-2.3-0.4-3.2-0.9l-0.2-0.1l-0.6,1.9l0.1,0.1c0.9,0.5,2.5,1,3.8,1
			c3.8,0,5.2-2.3,5.2-4.3C93.7,28.9,92.7,27.6,90,26.6 M97.8,21.9l-2.2,0.7v1.8H94v1.8h1.6v5.4c0,1.3,0.3,2.2,0.8,2.8
			c0.5,0.5,1.2,0.9,2.1,0.9c0.9,0,1.4-0.2,1.8-0.3h0.1l-0.1-1.8l-0.2,0.1c-0.3,0.1-0.5,0.1-1.1,0.1c-0.9,0-1.2-0.5-1.2-1.8v-5.4h2.6
			v-1.8h-2.6C97.8,24.5,97.8,21.9,97.8,21.9z M105.9,26c2,0,2.9,1.9,2.9,3.8c0,2.2-1.2,3.9-3,3.9l0,0c-1.7,0-2.9-1.6-2.9-3.8
			C102.9,27.9,103.8,26,105.9,26 M105.9,24.2c-3.1,0-5.3,2.3-5.3,5.6c0,3.2,2.1,5.4,5.1,5.4l0,0c2.5,0,5.3-1.8,5.3-5.6
			c0-1.6-0.5-2.9-1.4-3.9C108.7,24.7,107.4,24.2,105.9,24.2 M117.8,24.3h-0.2c-0.2-0.1-0.4-0.1-0.5-0.1c-1.1,0-2.2,0.7-2.8,1.8
			l-0.1-1.6h-2v0.2c0.1,0.9,0.1,1.8,0.1,3.2V35h2.2v-5.6c0-0.4,0-0.6,0.1-0.9c0.3-1.3,1.1-2.2,2.4-2.2c0.3,0,0.4,0,0.6,0h0.3V24.3z
			 M122.7,25.9c0.7,0,1.2,0.2,1.7,0.6c0.6,0.6,0.8,1.6,0.8,2.1h-5.1C120.2,27.3,121,25.9,122.7,25.9 M122.8,24.2c-3,0-5,2.4-5,5.7
			c0,3.2,2,5.4,5.3,5.4c1.7,0,2.8-0.4,3.5-0.7l0.2-0.1l-0.4-1.7l-0.2,0.1c-0.6,0.3-1.4,0.5-2.8,0.5c-1,0-3.2-0.4-3.3-3.2h7.2V30
			c0.1-0.3,0.1-0.5,0.1-1C127.2,26.9,126,24.2,122.8,24.2"/>
	</g>
	<g id="Capa_4">
		<g>
			<path class="st1" d="M36.9,11h-9.7c-1.2,0-2.1,1-2.1,2.1v21.4c0,1.1,1,2.1,2.1,2.1h9.7c1.1,0,2.1-1,2.1-2.1V13.1
				C39,11.9,38,11,36.9,11z M32.1,35.1c-0.8,0-1.4-0.6-1.4-1.4c0-0.8,0.6-1.4,1.4-1.4c0.8,0,1.4,0.6,1.4,1.4
				C33.5,34.4,32.8,35.1,32.1,35.1z M37.3,31.6H26.8V15.8h10.5V31.6z"/>
		</g>
	</g>
</g>
</svg>
