<?xml version="1.0" encoding="UTF-8"?>
<svg width="512px" height="494px" viewBox="0 0 512 494" version="1.1" xmlns="http://www.w3.org/2000/svg" xmlns:xlink="http://www.w3.org/1999/xlink">
    <!-- Generator: Sketch 51.3 (57544) - http://www.bohemiancoding.com/sketch -->
    <title>box copy</title>
    <desc>Created with Sketch.</desc>
    <defs></defs>
    <g id="Page-1" stroke="none" stroke-width="1" fill="none" fill-rule="evenodd">
        <g id="box-copy" fill="#000000" fill-rule="nonzero">
            <path d="M470.573,360.837 C468.622,355.552 462.758,352.849 457.473,354.799 L351.401,393.938 C346.116,395.888 343.413,401.753 345.363,407.038 C346.884,411.158 350.783,413.709 354.933,413.709 C356.105,413.709 357.298,413.505 358.463,413.076 L464.535,373.937 C469.82,371.987 472.523,366.122 470.573,360.837 Z" id="Shape"></path>
            <path d="M335.337,410.738 C333.388,405.452 327.522,402.749 322.237,404.699 L317.745,406.356 C312.461,408.306 309.757,414.171 311.707,419.455 C313.227,423.575 317.127,426.127 321.277,426.127 C322.449,426.127 323.642,425.923 324.807,425.494 L329.299,423.837 C334.583,421.887 337.287,416.023 335.337,410.738 Z" id="Shape"></path>
            <path d="M470.573,319.276 C468.622,313.991 462.758,311.29 457.473,313.238 L373.648,344.168 C368.363,346.118 365.66,351.983 367.61,357.268 C369.131,361.388 373.03,363.939 377.18,363.939 C378.352,363.939 379.545,363.735 380.71,363.306 L464.535,332.376 C469.82,330.426 472.523,324.561 470.573,319.276 Z" id="Shape"></path>
            <path d="M470.573,278.147 C468.622,272.862 462.758,270.161 457.473,272.109 L373.648,303.039 C368.363,304.989 365.66,310.854 367.61,316.139 C369.131,320.259 373.03,322.81 377.18,322.81 C378.352,322.81 379.545,322.606 380.71,322.177 L464.535,291.247 C469.82,289.297 472.523,283.432 470.573,278.147 Z" id="Shape"></path>
            <path d="M505.332,91.528 L259.531,0.832 C257.252,-0.008 254.748,-0.008 252.47,0.832 L6.669,91.528 C5.862,91.834 5.088,92.228 4.368,92.729 C1.631,94.637 0,97.762 0,101.097 L0,392.903 C0,397.174 2.661,400.993 6.668,402.472 L252.469,493.168 C253.615,493.591 254.81,493.798 255.999,493.798 C257.2,493.798 258.395,493.58 259.527,493.162 L505.332,402.472 C509.339,400.993 512,397.175 512,392.903 L512,101.097 C512,96.825 509.339,93.007 505.332,91.528 Z M245.801,480.965 L9.398,394.795 L9.398,110.732 L66.294,132.668 L66.294,256.246 C66.294,260.517 68.955,264.336 72.962,265.815 L183.113,306.46 C184.259,306.883 185.454,307.09 186.643,307.09 C188.701,307.09 190.741,306.467 192.476,305.258 C195.212,303.351 196.843,300.226 196.843,296.891 L196.843,180.838 L251.799,198.902 L251.799,482.965 L245.801,480.965 Z M185.446,177.311 L185.446,294.254 L77.693,255.136 L77.693,138.193 L185.446,177.311 Z M81.957,126.477 L185.645,85.704 L293.333,123.477 L189.645,164.25 L81.957,126.477 Z M259,189.922 L203.999,170.162 L300.328,135.045 C304.335,133.566 306.996,129.748 306.996,125.476 C306.996,121.204 304.335,117.386 300.328,115.907 L190.176,75.263 C187.897,74.423 185.394,74.423 183.114,75.263 L72,121 L14.5,99.461 L259,9 L496.5,99.461 L259,189.922 Z M502.602,394.795 L263.2,482.964 L263.2,199.902 L502.602,111.732 L502.602,394.795 Z" id="Shape"></path>
        </g>
    </g>
</svg>