<?xml version="1.0" encoding="UTF-8"?>
<svg width="17px" height="20px" viewBox="0 0 17 20" version="1.1" xmlns="http://www.w3.org/2000/svg" xmlns:xlink="http://www.w3.org/1999/xlink">
    <!-- Generator: Sketch 52.2 (67145) - http://www.bohemiancoding.com/sketch -->
    <title>icon/compra_segura</title>
    <desc>Created with Sketch.</desc>
    <defs>
        <polygon id="path-1" points="0 0.045 16.529 0.045 16.529 20 0 20"></polygon>
    </defs>
    <g id="Simbolos" stroke="none" stroke-width="1" fill="none" fill-rule="evenodd">
        <g id="Material/Row/Catacteristicas" transform="translate(-207.000000, -12.000000)">
            <g id="icon/compra_segura">
                <g transform="translate(203.000000, 10.000000)">
                    <g>
                        <rect id="bounds" x="0" y="0" width="24" height="24"></rect>
                        <g id="Group-3" transform="translate(4.000000, 1.955200)">
                            <mask id="mask-2" fill="white">
                                <use xlink:href="#path-1"></use>
                            </mask>
                            <g id="Clip-2"></g>
                            <path d="M8.264,18.938 C0.807,16.182 0.922,10.168 1.024,4.853 C1.028,4.611 1.033,4.372 1.036,4.135 C3.916,3.974 6.251,3.088 8.264,1.394 C10.277,3.088 12.612,3.974 15.493,4.135 C15.496,4.371 15.501,4.61 15.505,4.852 C15.607,10.167 15.722,16.182 8.264,18.938 M16.484,3.163 C13.078,3.163 10.47,2.19 8.264,0.045 C6.058,2.19 3.45,3.163 0.045,3.163 C0.045,8.749 -1.111,16.75 8.264,20 C17.639,16.75 16.484,8.749 16.484,3.163" id="Fill-1" fill="#333333" mask="url(#mask-2)"></path>
                        </g>
                        <path d="M11.0736,15.3771 C10.4146,14.7181 8.7156,13.0181 8.0276,12.3311 C7.8446,12.1471 7.8456,11.9231 8.0096,11.7591 C8.3376,11.4321 8.5276,11.2321 8.7556,11.0061 C8.8986,10.8621 9.0606,10.7881 9.2616,10.9881 C9.6426,11.3701 11.3826,13.1091 11.3826,13.1091 C11.3826,13.1091 14.3476,10.1521 15.2236,9.2761 C15.3926,9.1071 15.5806,9.0361 15.7866,9.2421 C16.0156,9.4721 16.1906,9.6471 16.5166,9.9721 C16.6726,10.1281 16.7686,10.2451 16.6016,10.4121 C15.4896,11.5241 12.4696,14.5431 11.6576,15.3561 C11.5286,15.4851 11.2676,15.5711 11.0736,15.3771" id="Fill-4" fill="#009966"></path>
                    </g>
                </g>
            </g>
        </g>
    </g>
</svg>