<?xml version="1.0" encoding="utf-8"?>
<!-- Generator: Adobe Illustrator 20.1.0, SVG Export Plug-In . SVG Version: 6.00 Build 0)  -->
<svg version="1.1" id="Capa_1" xmlns="http://www.w3.org/2000/svg" xmlns:xlink="http://www.w3.org/1999/xlink" x="0px" y="0px"
	 viewBox="0 0 151.6 49.6" style="enable-background:new 0 0 151.6 49.6;" xml:space="preserve">
<style type="text/css">
	.st0{fill:#AAAAAA;}
	.st1{fill:#FFFFFF;}
	.st2{fill:none;stroke:#AAAAAA;stroke-width:0.5;stroke-miterlimit:10;}
</style>
<g id="base">
	<path class="st0" d="M141.6,49.5H9.9c-5.5,0-10-4.5-10-10V10c0-5.5,4.5-10,10-10h131.7c5.5,0,10,4.5,10,10v29.5
		C151.6,45,147.1,49.5,141.6,49.5z"/>
</g>
<g id="google_copia">
	<g>
		<g>
			<g>
				<polygon class="st1" points="31.7,20.4 25.1,16.6 10.8,8.4 10.8,8.5 27.2,24.8 				"/>
				<polygon class="st1" points="10.8,41 10.8,41.1 25.1,32.9 31.7,29.1 27.2,24.8 				"/>
				<polygon class="st1" points="31.7,20.4 27.2,24.8 31.7,29.1 39.2,24.8 				"/>
				<polygon class="st1" points="10.8,8.5 10.8,24.8 10.8,41 27.2,24.8 				"/>
			</g>
			<g>
				<line class="st2" x1="10.4" y1="41.3" x2="32" y2="20.1"/>
				<line class="st2" x1="10.4" y1="8.2" x2="32" y2="29.5"/>
			</g>
		</g>
		<path class="st1" d="M114.4,31.1c-0.6,0-1.1-0.1-1.7-0.4c-0.5-0.2-0.9-0.6-1.3-1h-0.1c0.1,0.6,0.1,1,0.1,1.6v3.9h-1.4V21.5h1.1
			l0.2,1.3h0.1c0.3-0.5,0.8-0.8,1.3-1.1c0.6-0.3,1.1-0.4,1.7-0.4c1.2,0,2.3,0.5,2.9,1.3c0.7,0.8,1,2.1,1,3.6c0,1.5-0.4,2.7-1,3.6
			C116.6,30.7,115.5,31.2,114.4,31.1z M114.2,22.5c-0.9,0-1.7,0.3-2.1,0.8c-0.5,0.6-0.7,1.4-0.7,2.5v0.3c0,1.3,0.2,2.3,0.7,2.8
			c0.5,0.6,1.1,0.8,2.2,0.8c0.8,0,1.5-0.4,1.9-1c0.5-0.7,0.7-1.6,0.7-2.7c0-1.1-0.2-2.1-0.7-2.7C115.7,22.9,114.9,22.5,114.2,22.5
			L114.2,22.5z"/>
		<polygon class="st1" points="121.6,30.9 120.2,30.9 120.2,17.5 121.6,17.5 		"/>
		<path class="st1" d="M129.9,30.9l-0.3-1.3h-0.1c-0.4,0.5-0.8,0.9-1.4,1.2c-0.6,0.2-1.1,0.4-1.8,0.3c-0.9,0-1.7-0.3-2.2-0.8
			c-0.6-0.6-0.8-1.3-0.8-2.1c0-1.9,1.5-2.9,4.6-3l1.6-0.1v-0.6c0-0.8-0.2-1.3-0.5-1.6c-0.3-0.4-0.8-0.6-1.5-0.6
			c-0.9,0-1.9,0.3-2.6,0.8l-0.5-1.1c0.5-0.3,1-0.5,1.5-0.6c0.6-0.2,1.1-0.2,1.7-0.2c1.1,0,2,0.3,2.5,0.8c0.6,0.5,0.8,1.3,0.8,2.5
			v6.4L129.9,30.9L129.9,30.9z M126.7,30c0.8,0,1.5-0.2,2.1-0.8c0.6-0.6,0.8-1.3,0.8-2.1v-0.8l-1.4,0.1c-1.1,0-2,0.2-2.5,0.6
			c-0.5,0.3-0.8,0.8-0.8,1.5c0,0.5,0.2,0.8,0.5,1.2C125.8,29.8,126.2,30,126.7,30z M131.8,21.5h1.5l2.1,5.4c0.4,0.8,0.7,1.8,0.8,2.6
			h0.1c0.1-0.3,0.2-0.8,0.5-1.5c0.3-0.8,1-2.9,2.4-6.5h1.5l-4.1,10.8c-0.4,1-0.8,1.8-1.4,2.3c-0.6,0.5-1.2,0.7-2,0.7
			c-0.5,0-0.8-0.1-1.3-0.2v-1.1c0.4,0.1,0.8,0.1,1,0.1c0.9,0,1.7-0.6,2.1-1.7l0.6-1.3L131.8,21.5z M87.8,22.3
			c0.8,0.7,1.4,1.6,1.4,2.6c0,1.5-0.8,2.2-1.7,2.8c-0.3,0.3-0.6,0.6-0.6,0.9c0,0.4,0.2,0.7,0.5,0.8l0.8,0.6c0.8,0.8,1.7,1.4,1.7,2.7
			c0,1.9-1.8,3.8-5.2,3.8c-2.9,0-4.2-1.3-4.2-2.8c0-0.8,0.4-1.7,1.5-2.5c1.2-0.8,2.9-0.8,3.8-0.9c-0.3-0.4-0.6-0.8-0.6-1.3
			c0-0.3,0.1-0.6,0.2-0.8c-0.2,0-0.5,0-0.7,0c-2.1,0-3.3-1.6-3.3-3.1c0-1,0.5-2,1.2-2.6c1.1-0.9,2.5-1.1,3.6-1.1h4.1L89,22.3
			L87.8,22.3L87.8,22.3z M86.3,31.1c-0.2,0-0.3,0-0.5,0c-0.7,0-1.4,0.1-2.1,0.3c-0.5,0.2-1.7,0.7-1.7,2.1c0,1.4,1.4,2.5,3.5,2.5
			c1.9,0,2.9-0.9,2.9-2.2C88.5,32.7,87.9,32.2,86.3,31.1z M86.9,27.4c0.4-0.4,0.6-0.9,0.5-1.4c0-1.4-0.8-3.7-2.5-3.7
			c-0.6,0-1,0.3-1.4,0.7c-0.3,0.4-0.5,0.9-0.5,1.5c0,1.3,0.8,3.5,2.5,3.5C86.1,27.9,86.5,27.7,86.9,27.4L86.9,27.4z M75.2,30.8
			c-1.2,0-2.5-0.5-3.4-1.3c-0.9-0.8-1.4-2.1-1.4-3.4c0-2.5,2.1-4.8,5.1-4.8c1.2,0,2.5,0.5,3.4,1.3c0.9,0.8,1.4,2.1,1.4,3.3
			C80.3,28.4,78.5,30.8,75.2,30.8z M77.8,29.2c0.5-0.7,0.7-1.4,0.6-2.2c0-1.7-0.8-5.1-3.3-5.1c-0.7,0-1.3,0.3-1.8,0.7
			c-0.8,0.7-0.9,1.6-0.9,2.5c0,2,0.9,5.2,3.4,5.2C76.5,30.3,77.3,29.9,77.8,29.2L77.8,29.2z M64.5,30.8c-1.2,0-2.5-0.5-3.4-1.3
			c-0.9-0.8-1.4-2.1-1.4-3.4c0-2.5,2.1-4.8,5.1-4.8c1.2,0,2.5,0.5,3.4,1.3c0.9,0.8,1.4,2.1,1.4,3.3C69.6,28.4,67.8,30.8,64.5,30.8z
			 M67,29.2c0.5-0.7,0.7-1.4,0.6-2.2c0-1.7-0.8-5.1-3.3-5.1c-0.7,0-1.3,0.3-1.8,0.7c-0.8,0.7-0.9,1.6-0.9,2.5c0,2,0.9,5.2,3.4,5.2
			C65.8,30.3,66.5,29.9,67,29.2z M58.2,30.5l-2.8,0.7c-1.1,0.2-2.2,0.3-3.3,0.4c-5.5,0-7.6-4.1-7.6-7.2c0-3.9,2.9-7.4,8-7.4
			c1,0,2.1,0.1,3,0.4c0.9,0.3,1.9,0.7,2.6,1.2l-1.7,1.6l-0.6,0.1l0.5-0.8c-0.7-0.7-1.9-1.9-4.2-1.9c-3.1,0-5.6,2.4-5.6,5.8
			c0,3.8,2.7,7.3,7.1,7.3c0.8,0,1.7-0.1,2.5-0.5v-3.2l-3,0.2l1.6-0.8h4.2l-0.5,0.5c-0.1,0.1-0.2,0.2-0.2,0.3c0,0.2,0,0.8,0,0.9
			L58.2,30.5L58.2,30.5z"/>
		<path class="st1" d="M94.1,30c-0.7-0.1-0.8-0.2-0.8-0.9V17.8v-0.1c0.1-0.7,0.3-0.8,0.9-1.1h-2.8l-1.5,0.8h1.5v12.3
			c0,0.4-0.1,0.5-0.6,1h3.5l0.8-0.5C94.7,30,94.4,30,94.1,30z M102.2,30.2c-0.2,0.1-0.5,0.3-0.7,0.4c-0.6,0.3-1.2,0.4-1.9,0.4
			c-0.9,0-1.9-0.2-2.6-0.8c-1.4-0.9-2-2.6-2-4.1c0-3,2.5-4.5,4.5-4.5c0.8,0,1.4,0.2,2.1,0.6c0.7,0.5,1.2,1.1,1.4,2l-4.6,1.9
			l-1.7-0.1c0.5,2.5,2.2,4,4.1,4c0.8,0,1.7-0.3,2.5-0.7L102.2,30.2z M100.3,24.2c0.4-0.1,0.6-0.3,0.6-0.6c0-0.8-0.8-1.7-2-1.7
			c-0.8,0-2.3,0.6-2.3,2.7c0,0.4,0,0.7,0.1,1L100.3,24.2z"/>
		<polygon class="st1" points="104.1,21.5 104.1,22.8 103.9,22.8 103.9,21.5 103.5,21.5 103.5,21.4 104.5,21.4 104.5,21.5 		"/>
		<polygon class="st1" points="105.9,22.8 105.9,21.5 105.9,21.5 105.5,22.8 105.3,22.8 104.9,21.5 104.9,21.5 104.9,22.8 
			104.7,22.8 104.7,21.4 105,21.4 105.4,22.5 105.4,22.5 105.8,21.4 106,21.4 106,22.8 		"/>
		<path class="st1" d="M48.3,13.1h-1c-0.1-0.4-0.2-0.8-0.3-1.1h-1.4c-0.1,0.4-0.2,0.8-0.3,1.1h-0.9c0-0.1,0.3-0.8,0.8-2
			c0.3-0.7,0.6-1.3,0.8-2.1H47c0.2,0.7,0.4,1.3,0.7,2C48,11.7,48.2,12.3,48.3,13.1L48.3,13.1z M46.9,11.3c-0.2-0.6-0.4-1.1-0.6-1.7
			h-0.1c0,0.1-0.2,0.7-0.6,1.7H46.9z M52.4,13.1h-0.8c0-0.1-0.3-0.6-0.8-1.3c-0.6-0.8-0.9-1.4-1-1.7h-0.1c0.1,0.4,0.1,0.8,0.1,1.2
			c0,0.5,0,1.1,0,1.9H49c0-0.7,0-1.3,0-2.1c0-0.8,0-1.4,0-1.9h0.9c0,0.1,0.3,0.6,0.8,1.3c0.4,0.5,0.7,1,0.9,1.6l0,0
			c0-0.4-0.1-0.8-0.1-1.2c0-0.6,0-1.1,0-1.7h0.8c0,0.5,0,1.1,0,1.9C52.3,11.7,52.3,12.4,52.4,13.1z M56.8,10.9
			c0,0.6-0.2,1.1-0.6,1.5c-0.4,0.5-0.9,0.7-1.6,0.7c-0.3,0-0.8,0-1.2,0c0-0.7,0-1.3,0-2.1c0-0.8,0-1.4,0-1.9H54h0.4h0.4
			c0.8,0,1.3,0.2,1.6,0.6C56.6,10,56.8,10.5,56.8,10.9L56.8,10.9z M56,11c0-0.4-0.1-0.8-0.4-1c-0.3-0.3-0.7-0.5-1-0.4
			c-0.1,0-0.3,0-0.4,0c0,0.4,0,0.8,0,1.3s0,0.9,0,1.4c0.1,0,0.3,0,0.4,0c0.4,0,0.8-0.1,0.9-0.4C55.9,11.8,56.1,11.4,56,11L56,11z
			 M61,13.1H60c-0.1-0.5-0.3-0.9-0.6-1.3c-0.2-0.2-0.4-0.3-0.7-0.3h-0.4c0,0.6,0,1,0,1.6h-0.8c0-0.7,0-1.3,0-2.1c0-0.8,0-1.4,0-1.9
			h0.6h0.4h0.6c0.9,0,1.4,0.3,1.4,0.9c0,0.5-0.3,0.9-0.8,1l0,0c0.3,0.1,0.5,0.3,0.6,0.5C60.6,12.1,60.8,12.5,61,13.1z M59.8,10.2
			c0-0.4-0.3-0.7-0.8-0.7c-0.2,0-0.4,0-0.5,0c0,0.3,0,0.8,0,1.2h0.3C59.6,10.9,59.8,10.7,59.8,10.2z M65.4,10.9
			c0,0.6-0.2,1.1-0.6,1.6c-0.4,0.4-0.8,0.7-1.4,0.7c-0.5,0-1-0.2-1.4-0.6c-0.4-0.4-0.6-0.9-0.6-1.4c0-0.6,0.2-1.1,0.6-1.6
			C62.5,9.1,63,9,63.5,9c0.5,0,1,0.2,1.4,0.6C65.2,9.9,65.4,10.5,65.4,10.9L65.4,10.9z M64.6,11c0-0.4-0.1-0.8-0.4-1
			c-0.2-0.3-0.5-0.4-0.8-0.4c-0.3,0-0.6,0.2-0.8,0.4c-0.2,0.3-0.4,0.7-0.3,1c0,0.4,0.1,0.8,0.4,1c0.2,0.3,0.5,0.4,0.8,0.4
			c0.3,0,0.6-0.2,0.8-0.4C64.5,11.8,64.6,11.4,64.6,11L64.6,11z M67.2,13.1h-0.8c0-0.7,0-1.3,0-2.1c0-0.8,0-1.4,0-1.9h0.8
			c0,0.5,0,1.1,0,1.9C67.2,11.8,67.2,12.4,67.2,13.1z M71.6,10.9c0,0.6-0.2,1.1-0.6,1.5c-0.4,0.5-0.9,0.7-1.6,0.7
			c-0.3,0-0.8,0-1.2,0c0-0.7,0-1.3,0-2.1c0-0.8,0-1.4,0-1.9h0.6h0.4h0.4c0.8,0,1.3,0.2,1.6,0.6C71.4,10,71.6,10.5,71.6,10.9
			L71.6,10.9z M70.8,11c0-0.4-0.1-0.8-0.4-1c-0.3-0.3-0.7-0.5-1-0.4c-0.1,0-0.3,0-0.4,0c0,0.4,0,0.8,0,1.3s0,0.9,0,1.4
			c0.1,0,0.3,0,0.4,0c0.4,0,0.8-0.1,0.9-0.4C70.7,11.8,70.9,11.4,70.8,11L70.8,11z M77.6,13.1h-1c-0.1-0.4-0.2-0.8-0.3-1.1h-1.4
			c-0.1,0.4-0.2,0.8-0.3,1.1h-0.9c0-0.1,0.3-0.8,0.8-2c0.3-0.7,0.6-1.3,0.8-2.1h1.1c0.2,0.7,0.4,1.3,0.7,2
			C77.2,11.7,77.5,12.3,77.6,13.1L77.6,13.1z M76.2,11.3c-0.2-0.6-0.4-1.1-0.6-1.7h-0.1c0,0.1-0.2,0.7-0.6,1.7H76.2L76.2,11.3z
			 M81.3,10.1c0,0.5-0.2,0.8-0.6,1.1c-0.4,0.3-0.8,0.4-1.3,0.4h-0.2c0,0.4,0,0.8,0,1.5h-0.8c0-0.6,0-1.3,0-2.1c0-0.8,0-1.4,0-1.9
			h0.5h0.5h0.6c0.4,0,0.7,0.1,1,0.3C81.1,9.5,81.3,9.8,81.3,10.1L81.3,10.1z M80.4,10.3c0-0.5-0.3-0.7-0.8-0.7c-0.2,0-0.3,0-0.5,0
			c0,0.4,0,0.8,0,1.3h0.2C80,10.9,80.4,10.7,80.4,10.3L80.4,10.3z M84.9,10.1c0,0.5-0.2,0.8-0.6,1.1c-0.4,0.3-0.8,0.4-1.3,0.4h-0.2
			c0,0.4,0,0.8,0,1.5H82c0-0.6,0-1.3,0-2.1c0-0.8,0-1.4,0-1.9h0.6H83h0.5c0.4,0,0.7,0.1,1,0.3C84.8,9.5,84.9,9.8,84.9,10.1
			L84.9,10.1z M84.2,10.3c0-0.5-0.3-0.7-0.8-0.7c-0.2,0-0.3,0-0.5,0c0,0.4,0,0.8,0,1.3H83C83.8,10.9,84.2,10.7,84.2,10.3L84.2,10.3z
			 M91,10.9c0,0.6-0.2,1.1-0.6,1.6c-0.4,0.4-0.8,0.7-1.4,0.7c-0.5,0-1-0.2-1.4-0.6c-0.4-0.4-0.6-0.9-0.6-1.4c0-0.6,0.2-1.1,0.6-1.6
			C88,9.1,88.5,9,89.1,9c0.5,0,1,0.2,1.4,0.6C90.9,9.9,91.1,10.5,91,10.9L91,10.9z M90.1,11c0-0.4-0.1-0.8-0.4-1
			c-0.2-0.3-0.5-0.4-0.8-0.4c-0.3,0-0.6,0.2-0.8,0.4c-0.2,0.3-0.4,0.7-0.3,1c0,0.4,0.1,0.8,0.4,1c0.2,0.3,0.5,0.4,0.8,0.4
			c0.3,0,0.6-0.2,0.8-0.4C90,11.8,90.2,11.4,90.1,11L90.1,11z M95.2,13.1h-0.8c0-0.1-0.3-0.6-0.8-1.3c-0.6-0.8-0.9-1.4-1-1.7h-0.1
			c0.1,0.4,0.1,0.8,0.1,1.2c0,0.5,0,1.1,0,1.9h-0.8c0-0.7,0-1.3,0-2.1c0-0.8,0-1.4,0-1.9h0.9c0,0.1,0.3,0.6,0.8,1.3
			c0.4,0.5,0.7,1,0.9,1.6l0,0c0-0.4-0.1-0.8-0.1-1.2c0-0.6,0-1.1,0-1.7h0.8c0,0.5,0,1.1,0,1.9C95.1,11.7,95.2,12.4,95.2,13.1z"/>
	</g>
</g>
</svg>
