<?xml version="1.0" encoding="utf-8"?>
<!-- Generator: Adobe Illustrator 21.0.0, SVG Export Plug-In . SVG Version: 6.00 Build 0)  -->
<svg version="1.1" xmlns="http://www.w3.org/2000/svg" xmlns:xlink="http://www.w3.org/1999/xlink" x="0px" y="0px"
	 viewBox="0 0 200 54" style="enable-background:new 0 0 200 54;" xml:space="preserve">
<style type="text/css">
	.st0{display:none;}
	.st1{display:inline;}
	.st2{fill-rule:evenodd;clip-rule:evenodd;fill:#808080;}
	.st3{fill:#808080;}
</style>
<g id="Capa_1" class="st0">
	<g class="st1">
		<polygon class="st2" points="10.9,21.8 19.7,21.8 19.7,32.3 33.6,32.3 33.6,21.8 42.4,21.8 52.8,41 44.1,41 39.1,31.9 26.7,41 
			14.2,31.9 9.2,41 0.5,41 		"/>
		<polygon class="st2" points="52.9,21.8 52.9,13.1 0.5,13.1 0.5,21.8 9.2,21.8 10.1,20.1 21.4,20.1 21.4,30.6 31.9,30.6 31.9,20.1 
			43.2,20.1 44.1,21.8 		"/>
		<polygon class="st3" points="190.6,18.3 183.3,26.5 191.3,35.8 184.8,35.8 180.1,30.1 175,35.8 169.2,35.8 177.3,26.7 170.5,18.3 
			176.2,18.3 180.5,23.2 184.8,18.3 		"/>
		<polygon class="st3" points="155,24.6 165.9,24.6 165.9,28.1 155,28.1 155,32.3 167.9,32.3 167.9,35.8 150.3,35.8 150.3,18.3 
			167.9,18.3 167.9,21.8 155,21.8 		"/>
		<polygon class="st3" points="87,24.6 98,24.6 98,28.1 87,28.1 87,32.3 99.9,32.3 99.9,35.8 82.4,35.8 82.4,18.3 99.9,18.3 
			99.9,21.8 87,21.8 		"/>
		<polygon class="st3" points="122.8,18.3 130.9,18.3 134.9,28.4 138.9,18.3 147.2,18.3 147.2,35.8 142.4,35.8 142.4,21.9 
			136.5,35.8 133.1,35.8 127.4,21.8 127.4,35.8 122.8,35.8 		"/>
		<polygon class="st3" points="61.6,18.3 80.1,18.3 80.1,21.8 73.1,21.8 73.1,35.8 68.5,35.8 68.5,21.8 61.6,21.8 		"/>
		<polygon class="st3" points="103.1,18.3 107.9,18.3 107.9,32.3 120.7,32.3 120.7,35.8 103.1,35.8 		"/>
		<path class="st2" d="M194.7,32h1.8c0.3,0,0.5,0,0.7,0.1c0.4,0.2,0.5,0.5,0.5,0.9c0,0.2,0,0.4-0.1,0.6c-0.1,0.1-0.2,0.3-0.4,0.4
			c0.1,0.1,0.3,0.1,0.3,0.2c0.1,0.1,0.1,0.3,0.1,0.5l0,0.5c0,0.1,0,0.3,0,0.3c0,0.1,0.1,0.2,0.2,0.2v0.1h-0.6c0,0,0-0.1,0-0.1
			c0-0.1,0-0.2,0-0.3l0-0.6c0-0.3-0.1-0.4-0.3-0.5c-0.1,0-0.3-0.1-0.5-0.1h-1.2v1.7h-0.5V32 M196.4,33.8c0.2,0,0.4-0.1,0.6-0.1
			c0.1-0.1,0.2-0.3,0.2-0.5c0-0.3-0.1-0.5-0.3-0.6c-0.1-0.1-0.2-0.1-0.4-0.1h-1.3v1.3H196.4 M196,31c-1.7,0-3.1,1.4-3.1,3.1
			c0,1.7,1.4,3.1,3.1,3.1s3.1-1.4,3.1-3.1C199.1,32.4,197.7,31,196,31 M196,30.6c1.9,0,3.5,1.6,3.5,3.5c0,1.9-1.6,3.5-3.5,3.5
			c-1.9,0-3.5-1.6-3.5-3.5C192.6,32.1,194.1,30.6,196,30.6z"/>
	</g>
</g>
<g id="Capa_2">
	<g>
		<g>
			<path class="st2" d="M150.9,37.6C150.9,37.5,150.9,37.5,150.9,37.6L150.9,37.6L150.9,37.6L150.9,37.6z M150.9,37.6L150.9,37.6
				C150.9,37.6,150.9,37.6,150.9,37.6L150.9,37.6L150.9,37.6L150.9,37.6z M144.4,30.2L144.4,30.2c0.1,0,0.1,0,0.1,0
				C144.5,30.2,144.5,30.2,144.4,30.2L144.4,30.2L144.4,30.2L144.4,30.2z M136.3,15.8h7.4c3.5,0,4.6,1.9,4.6,3.5
				c0,2.4-2.1,4.5-6.6,4.5h-7L136.3,15.8L136.3,15.8L136.3,15.8z M149.6,38.1l0.1-0.7c0.4-2.6-0.5-4.2-1.2-5.2c-1-1.2-2.5-2-4-2
				c0,0-0.1,0-0.1,0h-11.2l0.3-1.3c0,0,10.9,0,11,0c0,0,0,0,0,0c3.9-0.1,6.4-1.9,7.8-3.5c1.8-2,2.9-4.7,2.9-7.3c0-2-0.7-3.8-1.9-5.1
				c-1.3-1.4-3.3-2.2-5.8-2.2h-16L123.2,49h5.7l3.1-13.8h7.4c1.1,0,4.9-0.5,3.8,4.1c-0.3,1.6-1,5.7,0,9.7c0.8,0,3.7,0,6.6,0
				C148.6,45.6,149,41.6,149.6,38.1L149.6,38.1L149.6,38.1z M162,16.9c0-8.3-5.3-12.1-14.5-12.1c-10.5,0-21.7,0-21.7,0L116.1,49h5.9
				l8.5-39.4h17c2.8,0,5.1,0.9,6.7,2.6c1.4,1.5,2.2,3.6,2.2,6c0,2.9-1.2,5.9-3.2,8.1c-1.2,1.3-3,2.7-5.7,3.4c0.7,0.4,1.4,1,1.9,1.6
				c0.9,1.2,2,3.2,1.5,6.2l0-0.1c0,0,0,0,0,0.1v0c0,0,0,0,0,0c0,0.1,0,0.3-0.1,0.7c-0.5,3.5-1,7.5,0.3,10.7c2.9,0,5.5,0,5.5,0
				c-0.3-1-1-2.3-0.2-5.6c0.9-3.7,2.2-10.9-2.5-13.4C155.2,29.5,162,26.5,162,16.9L162,16.9L162,16.9z M17.1,45
				c8.1,0,13.6-3.6,14.6-9.6c0.7-4.5-3.3-6-7.9-7.2c-0.9-0.2-1.6-0.5-2.6-0.7c-4-1-11.6-3-11.1-9.8c0.6-8.8,10.7-9.5,13.8-9.5
				c4.5,0,7.7,1.5,9.5,4.4c1.4,2.3,1.5,4.9,1.6,6.1v0.1l5.9,0c0-9-3.9-15.1-15.7-15.1C14.5,3.6,6,8,4.4,17.5
				C1.6,34.5,25.3,29.2,24.2,36c-0.3,2.1-2.2,4-5.7,4c-1.4,0-2.8-0.4-3.8-1.1c-1.1-0.7-2.1-1.9-2-6.6H6.9c-0.1,4.4,0.3,7,1.5,8.7
				C11,44.8,16.1,45,17.1,45L17.1,45L17.1,45z M16.7,50.4c11.7,0.1,20.5-4.6,22.1-14.9c2.5-16.8-22.1-11.9-21.2-19.1
				c0.2-1.6,1.7-2.8,4.8-2.8c1.3,0,2.5,0.3,3.4,0.8c0.9,0.6,1.5,1.5,1.8,4.2l6.1,0v-0.1c-0.1-1-0.2-3.4-1.4-5.4
				c-1.5-2.5-4.4-3.8-8.4-3.8c-2.8,0-12.1,0.6-12.6,8.3c-0.4,5.7,5.9,7.4,10.2,8.5c1,0.3,1.8,0.5,2.7,0.7c3.7,1,9.8,2.6,8.7,8.7
				c-1.1,6.7-7,10.7-15.8,10.7c-1.1,0-6.7-0.2-9.6-4.5c-1.4-1.8-1.9-4.8-1.8-9.4H0.2c-0.1,1-0.2,2.1-0.2,3
				C0,44.7,5.3,50.4,16.7,50.4L16.7,50.4L16.7,50.4z M95,4.8L69.9,49h5.7l24.9-44.2H95L95,4.8L95,4.8z M93.4,30.1l5.5-9.8l1.6,9.8
				H93.4L93.4,30.1L93.4,30.1z M107.9,4.8H102L77,49h5.7l4.2-7.2h15.2l1.3,7.2h5.3l-2.2-12.5H89.8l0.7-1.3h15.9l-3.8-21.6l1-1.8
				L110,49h5.4L107.9,4.8L107.9,4.8L107.9,4.8z M46.3,42.7h24.2l1-4.5H52.7l1.4-5.9h17.7l1-4.9H55.2l0.3-1.3H73l1-4.8H56.5l1.4-5.6
				h18.5l1-4.6h-24L46.3,42.7L46.3,42.7L46.3,42.7z M47.2,4.8L37.3,49H69l1.1-5H44.7l7.8-34.1h25.2l1.2-5.2H47.2L47.2,4.8L47.2,4.8z
				 M191.5,13.2c-1.6-2.5-4.4-3.8-8.5-3.8c-2.8,0-12.1,0.6-12.6,8.3c-0.4,5.7,6,7.4,10.2,8.5c1,0.3,1.8,0.5,2.7,0.7
				c3.7,1,9.8,2.6,8.8,8.7c-1.1,6.7-7,10.7-15.8,10.7c-1.1,0-6.7-0.2-9.6-4.5c-1.4-1.8-1.9-4.8-1.8-9.4h-5.5
				c-1.2,11.2,4,18.1,16.5,18.2c11.7,0.1,20.6-4.6,22.1-14.9c2.5-16.8-22.1-11.9-21.2-19.1c0.2-1.6,1.7-2.8,4.7-2.8
				c1.4,0,2.6,0.3,3.5,0.8c0.9,0.6,1.5,1.5,1.8,4.2l6.1,0v-0.1C192.8,17.6,192.7,15.2,191.5,13.2L191.5,13.2L191.5,13.2z M184.3,3.6
				c-10.6,0-19.1,4.5-20.7,14c-2.9,17,20.8,11.7,19.7,18.5c-0.4,2.1-2.2,4-5.7,4c-1.3,0-2.7-0.4-3.8-1.1c-1-0.7-2.1-1.9-2-6.6h-5.8
				c-0.1,4.3,0.4,7.1,1.6,8.7c2.5,3.8,7.6,4,8.6,4c8.1,0,13.6-3.6,14.6-9.6c0.8-4.5-3.3-6-7.9-7.2c-0.9-0.2-1.6-0.5-2.6-0.7
				c-4-1-11.5-3-11.1-9.8c0.6-8.8,10.7-9.5,13.8-9.5c4.5,0,7.7,1.5,9.5,4.4c1.4,2.3,1.5,4.9,1.5,6.1v0.1l5.9,0
				C199.9,9.7,196.1,3.6,184.3,3.6L184.3,3.6z"/>
		</g>
	</g>
</g>
</svg>
