<?xml version="1.0" encoding="utf-8"?>
<!-- Generator: Adobe Illustrator 21.0.0, SVG Export Plug-In . SVG Version: 6.00 Build 0)  -->
<svg version="1.1" xmlns="http://www.w3.org/2000/svg" xmlns:xlink="http://www.w3.org/1999/xlink" x="0px" y="0px"
	 viewBox="0 0 200 54.1" style="enable-background:new 0 0 200 54.1;" xml:space="preserve">
<style type="text/css">
	.st0{display:none;}
	.st1{display:inline;fill:#FCEE21;}
	.st2{display:inline;}
	.st3{fill-rule:evenodd;clip-rule:evenodd;fill:#808080;}
	.st4{fill:#808080;}
	.st5{display:inline;fill-rule:evenodd;clip-rule:evenodd;fill:#808080;}
	.st6{fill-rule:evenodd;clip-rule:evenodd;fill:#666666;}
	.st7{fill-rule:evenodd;clip-rule:evenodd;fill:#FFFFFF;}
	.st8{fill:none;stroke:#FFFFFF;stroke-width:0.216;stroke-miterlimit:2.6131;}
	.st9{fill:#FFFFFF;}
	.st10{fill:#303D7D;}
	.st11{fill:#666666;}
</style>
<g id="Capa_7" class="st0">
	<rect x="0" y="-73" class="st1" width="200" height="200"/>
</g>
<g id="Capa_1" class="st0">
	<g class="st2">
		<polygon class="st3" points="10.9,21.9 19.7,21.9 19.7,32.3 33.6,32.3 33.6,21.9 42.4,21.9 52.8,41.1 44.1,41.1 39.1,31.9 
			26.7,41.1 14.2,31.9 9.2,41.1 0.5,41.1 		"/>
		<polygon class="st3" points="52.9,21.9 52.9,13.1 0.5,13.1 0.5,21.9 9.2,21.9 10.1,20.1 21.4,20.1 21.4,30.6 31.9,30.6 31.9,20.1 
			43.2,20.1 44.1,21.9 		"/>
		<polygon class="st4" points="190.6,18.4 183.3,26.5 191.3,35.8 184.8,35.8 180.1,30.1 175,35.8 169.2,35.8 177.3,26.7 170.5,18.4 
			176.2,18.4 180.5,23.3 184.8,18.4 		"/>
		<polygon class="st4" points="155,24.6 165.9,24.6 165.9,28.2 155,28.1 155,32.3 167.9,32.3 167.9,35.8 150.3,35.8 150.3,18.4 
			167.9,18.4 167.9,21.9 155,21.9 		"/>
		<polygon class="st4" points="87,24.6 98,24.6 98,28.2 87,28.1 87,32.3 99.9,32.3 99.9,35.8 82.4,35.8 82.4,18.4 99.9,18.4 
			99.9,21.9 87,21.9 		"/>
		<polygon class="st4" points="122.8,18.4 130.9,18.4 134.9,28.4 138.9,18.4 147.2,18.4 147.2,35.8 142.4,35.8 142.4,21.9 
			136.5,35.8 133.1,35.8 127.4,21.9 127.4,35.8 122.8,35.8 		"/>
		<polygon class="st4" points="61.6,18.4 80.1,18.4 80.1,21.9 73.1,21.9 73.1,35.8 68.5,35.8 68.5,21.9 61.6,21.9 		"/>
		<polygon class="st4" points="103.1,18.4 107.9,18.4 107.9,32.3 120.7,32.3 120.7,35.8 103.1,35.8 		"/>
		<path class="st3" d="M194.7,32h1.8c0.3,0,0.5,0,0.7,0.1c0.4,0.2,0.5,0.5,0.5,0.9c0,0.2,0,0.4-0.1,0.6c-0.1,0.1-0.2,0.3-0.4,0.4
			c0.1,0.1,0.3,0.1,0.3,0.2c0.1,0.1,0.1,0.3,0.1,0.5l0,0.5c0,0.1,0,0.3,0,0.3c0,0.1,0.1,0.2,0.2,0.2v0.1h-0.6c0,0,0-0.1,0-0.1
			c0-0.1,0-0.2,0-0.3l0-0.6c0-0.3-0.1-0.4-0.3-0.5c-0.1,0-0.3-0.1-0.5-0.1h-1.2v1.7h-0.5V32 M196.4,33.8c0.2,0,0.4-0.1,0.6-0.1
			c0.1-0.1,0.2-0.3,0.2-0.5c0-0.3-0.1-0.5-0.3-0.6c-0.1-0.1-0.2-0.1-0.4-0.1h-1.3v1.3H196.4 M196,31c-1.7,0-3.1,1.4-3.1,3.1
			c0,1.7,1.4,3.1,3.1,3.1s3.1-1.4,3.1-3.1C199.1,32.4,197.7,31,196,31 M196,30.6c1.9,0,3.5,1.6,3.5,3.5c0,1.9-1.6,3.5-3.5,3.5
			c-1.9,0-3.5-1.6-3.5-3.5C192.6,32.2,194.1,30.6,196,30.6z"/>
	</g>
</g>
<g id="Capa_2" class="st0">
	<g class="st2">
		<g>
			<path class="st3" d="M150.9,37.6C150.9,37.6,150.9,37.5,150.9,37.6L150.9,37.6L150.9,37.6L150.9,37.6z M150.9,37.6L150.9,37.6
				C150.9,37.6,150.9,37.6,150.9,37.6L150.9,37.6L150.9,37.6L150.9,37.6z M144.4,30.2L144.4,30.2c0.1,0,0.1,0,0.1,0
				C144.5,30.2,144.5,30.2,144.4,30.2L144.4,30.2L144.4,30.2L144.4,30.2z M136.3,15.8h7.4c3.5,0,4.6,1.9,4.6,3.5
				c0,2.4-2.1,4.5-6.6,4.5h-7L136.3,15.8L136.3,15.8L136.3,15.8z M149.6,38.1l0.1-0.7c0.4-2.6-0.5-4.2-1.2-5.2c-1-1.2-2.5-2-4-2
				c0,0-0.1,0-0.1,0h-11.2l0.3-1.3c0,0,10.9,0,11,0c0,0,0,0,0,0c3.9-0.1,6.4-1.9,7.8-3.5c1.8-2,2.9-4.7,2.9-7.3c0-2-0.7-3.8-1.9-5.1
				c-1.3-1.4-3.3-2.2-5.8-2.2h-16l-8.2,38.2h5.7l3.1-13.8h7.4c1.1,0,4.9-0.5,3.8,4.1c-0.3,1.6-1,5.7,0,9.7c0.8,0,3.7,0,6.6,0
				C148.6,45.6,149,41.7,149.6,38.1L149.6,38.1L149.6,38.1z M162,16.9c0-8.3-5.3-12.1-14.5-12.1c-10.5,0-21.7,0-21.7,0l-9.7,44.2
				h5.9l8.5-39.4h17c2.8,0,5.1,0.9,6.7,2.6c1.4,1.5,2.2,3.6,2.2,6c0,2.9-1.2,5.9-3.2,8.1c-1.2,1.3-3,2.7-5.7,3.4
				c0.7,0.4,1.4,1,1.9,1.6c0.9,1.2,2,3.2,1.5,6.2l0-0.1c0,0,0,0,0,0.1v0c0,0,0,0,0,0c0,0.1,0,0.3-0.1,0.7c-0.5,3.5-1,7.5,0.3,10.7
				c2.9,0,5.5,0,5.5,0c-0.3-1-1-2.3-0.2-5.6c0.9-3.7,2.2-10.9-2.5-13.4C155.2,29.5,162,26.6,162,16.9L162,16.9L162,16.9z M17.1,45
				c8.1,0,13.6-3.6,14.6-9.6c0.7-4.5-3.3-6-7.9-7.2c-0.9-0.2-1.6-0.5-2.6-0.7c-4-1-11.6-3-11.1-9.8c0.6-8.8,10.7-9.5,13.8-9.5
				c4.5,0,7.7,1.5,9.5,4.4c1.4,2.3,1.5,4.9,1.6,6.1v0.1l5.9,0c0-9-3.9-15.1-15.7-15.1C14.5,3.6,6,8.1,4.4,17.5
				C1.6,34.6,25.3,29.3,24.2,36c-0.3,2.1-2.2,4-5.7,4c-1.4,0-2.8-0.4-3.8-1.1c-1.1-0.7-2.1-1.9-2-6.6H6.9c-0.1,4.4,0.3,7,1.5,8.7
				C11,44.8,16.1,45,17.1,45L17.1,45L17.1,45z M16.7,50.5c11.7,0.1,20.5-4.6,22.1-14.9c2.5-16.8-22.1-11.9-21.2-19.1
				c0.2-1.6,1.7-2.8,4.8-2.8c1.3,0,2.5,0.3,3.4,0.8c0.9,0.6,1.5,1.5,1.8,4.2l6.1,0v-0.1c-0.1-1-0.2-3.4-1.4-5.4
				c-1.5-2.5-4.4-3.8-8.4-3.8c-2.8,0-12.1,0.6-12.6,8.3c-0.4,5.7,5.9,7.4,10.2,8.5c1,0.3,1.8,0.5,2.7,0.7c3.7,1,9.8,2.6,8.7,8.7
				c-1.1,6.7-7,10.7-15.8,10.7c-1.1,0-6.7-0.2-9.6-4.5c-1.4-1.8-1.9-4.8-1.8-9.4H0.2c-0.1,1-0.2,2.1-0.2,3
				C0,44.7,5.3,50.4,16.7,50.5L16.7,50.5L16.7,50.5z M95,4.9L69.9,49.1h5.7l24.9-44.2H95L95,4.9L95,4.9z M93.4,30.1l5.5-9.8l1.6,9.8
				H93.4L93.4,30.1L93.4,30.1z M107.9,4.9H102L77,49.1h5.7l4.2-7.2h15.2l1.3,7.2h5.3l-2.2-12.5H89.8l0.7-1.3h15.9l-3.8-21.6l1-1.8
				l6.4,37.3h5.4L107.9,4.9L107.9,4.9L107.9,4.9z M46.3,42.8h24.2l1-4.5H52.7l1.4-5.9h17.7l1-4.9H55.2l0.3-1.3H73l1-4.8H56.5
				l1.4-5.6h18.5l1-4.6h-24L46.3,42.8L46.3,42.8L46.3,42.8z M47.2,4.8l-9.8,44.3H69l1.1-5H44.7l7.8-34.1h25.2l1.2-5.2H47.2L47.2,4.8
				L47.2,4.8z M191.5,13.3c-1.6-2.5-4.4-3.8-8.5-3.8c-2.8,0-12.1,0.6-12.6,8.3c-0.4,5.7,6,7.4,10.2,8.5c1,0.3,1.8,0.5,2.7,0.7
				c3.7,1,9.8,2.6,8.8,8.7c-1.1,6.7-7,10.7-15.8,10.7c-1.1,0-6.7-0.2-9.6-4.5c-1.4-1.8-1.9-4.8-1.8-9.4h-5.5
				c-1.2,11.2,4,18.1,16.5,18.2c11.7,0.1,20.6-4.6,22.1-14.9c2.5-16.8-22.1-11.9-21.2-19.1c0.2-1.6,1.7-2.8,4.7-2.8
				c1.4,0,2.6,0.3,3.5,0.8c0.9,0.6,1.5,1.5,1.8,4.2l6.1,0v-0.1C192.8,17.6,192.7,15.2,191.5,13.3L191.5,13.3L191.5,13.3z M184.3,3.6
				c-10.6,0-19.1,4.5-20.7,14c-2.9,17,20.8,11.7,19.7,18.5c-0.4,2.1-2.2,4-5.7,4c-1.3,0-2.7-0.4-3.8-1.1c-1-0.7-2.1-1.9-2-6.6h-5.8
				c-0.1,4.3,0.4,7.1,1.6,8.7c2.5,3.8,7.6,4,8.6,4c8.1,0,13.6-3.6,14.6-9.6c0.8-4.5-3.3-6-7.9-7.2c-0.9-0.2-1.6-0.5-2.6-0.7
				c-4-1-11.5-3-11.1-9.8c0.6-8.8,10.7-9.5,13.8-9.5c4.5,0,7.7,1.5,9.5,4.4c1.4,2.3,1.5,4.9,1.5,6.1v0.1l5.9,0
				C199.9,9.7,196.1,3.6,184.3,3.6L184.3,3.6z"/>
		</g>
	</g>
</g>
<g id="Capa_3" class="st0">
	<path class="st5" d="M16.1,18.5c0,0-7.7,3.1-8,4.9c0,0-1.5,2.2,4.3,1.7c0,0,17.3-1.7,17.9,6.1c0,0,0.2,3.1-3.1,5.8
		c0,0-7.6,7.1-21,4.8c0,0-6.1-0.4-5.9-4c0,0,0.9-1.7,3.3,0c0,0,12.3,3.1,18.2-1.8c0,0,2.6-2.5,0.7-3.7c0,0-3.5-1.8-8.1-1.9
		c0,0-13.7,1.6-14.4-4c0,0-1.2-4.8,7.2-9.4c0,0,12.4-6,23.1-5.6c0,0,5.9-1.6,6.3,3.4c0,0-2.1,4.7-9.9,5.1c0,0-7.7,0.3-8.4-1.6
		C18.4,18.4,18.1,17.9,16.1,18.5L16.1,18.5z M25.6,17.7c0,0,2.2-0.3,1.7-1.9c0,0-2.7-1.3-5.1,0.8C22.1,16.6,21.1,18.3,25.6,17.7
		L25.6,17.7z M51.6,28.7c0,0,0.7-3-7.7-2c0,0-12.5,2.2-12.3,10.8c0,0,1.3,6.8,8.5,3.6c0,0,4.7-2.5,5.9-3.3c0,0,0.4,5.5,6,4.9
		c0,0,3.7,0.3,7-4.2c0,0,3.4-4.3,4.1-4.1c0,0,1.8-0.2,0.6,1.7c0,0-2.6,4.2,1.1,5c0,0,4,1.4,6.3-2.2c0,0,3.6-5.5,5.7-5.5
		c0,0,0.8,0.3-0.5,2.2c0,0-2,5.5,3.6,5.9c0,0,5.5,0.5,6.4-1.9c0,0,1.1-2.3-1.8-0.8c0,0-3.9,2.3-2.4-1.2c0,0,5.9-7.7,0.2-9.8
		c0,0-3-1.4-5.2,0.2c0,0-3.3,3.5-4.7,3.7c0,0-1.2,0.2-1.4-2.3c0,0-1.2-3.8-5.9-1.5c0,0-3,2.6-8.6,9.3c0,0-5.1,5.2-3.8,0.1
		c0,0,3.7-5.8-0.2-7.1c0,0-2.2-1-5.6,2.4c0,0-6.8,6-8.5,6c0,0-2.1-0.3,0.9-4.2c0,0,3.3-4.4,8.9-4.8C48.2,29.8,51.6,29.8,51.6,28.7
		L51.6,28.7z M98,26.8c-1.3,3.6,1.4,0.8,1.4,0.8c6.5-3.4,6.5,3.5,6.5,3.5c1.3,1.7,3.8-0.4,3.8-0.4c1.3-0.8,2.8-2.4,2.8-2.4
		c4.2-3.8,6.9-0.9,6.9-0.9c0.6,1.7,2.2,0.4,2.2,0.4c5.4-1.6,4.3,2.5,4.3,2.5c-1.6,0.4-0.7,2.2-0.7,2.2c0.6,2.2,3.9-1.3,3.9-1.3
		c1.9-0.5,0.9-3.1,0.9-3.1c0.1-2.1,2.7-1.3,2.7-1.3c1.8,1.4,4.3,0.3,4.3,0.3c4.2-0.2,3.8,2,3.8,2c1.6,1.6,0,3.4,0,3.4
		c-2.9,2.7-3,5.8-3,5.8c0.2,3.5,7.2-4.7,7.2-4.7c5.4-7.6,10.1-6.4,10.1-6.4c4.3-0.1,3.1,6.4,3.1,6.4l5.3-4.9
		c1.9-2.6,4.6-1.8,4.6-1.8c5.9,1.5,1.5,8.7,1.5,8.7c-1.2,2.9,1.7,1.8,1.7,1.8c2-2.8,6.7-7.2,6.7-7.2c7.6-6.9,11.3-5.2,11.3-5.2
		c2.9,0.6,0.4,2.9,0.4,2.9c-1.5,2.1-0.4,5.9-0.4,5.9l10.6,0.1l-3.1,3.7l-8.9-0.1c-1.5,3.1-5.7,3.1-5.7,3.1c-5.1-0.5-5.6-4.7-5.6-4.7
		c-0.8-0.1-3.8,3.1-3.8,3.1c-2,2.6-7.9,0.6-7.9,0.6c-3.1-0.9-1.1-6-1.1-6c-0.9-0.8-5.7,4.6-5.7,4.6c-2.6,3.9-6,2.3-6,2.3
		c-4-1.2-1.6-6-1.6-6c1.5-2.4,1.1-3,1.1-3c-2.2,1.3-6.1,6.1-6.1,6.1c-8,7.8-13.2,1.8-13.2,1.8c-2.5-3.8,3.3-8.7,3.3-8.7
		c-1.3-0.9-2.4,0.1-2.4,0.1c-3.6,6.5-10.1,5.9-10.1,5.9c-1.8,3.2-6.1,4.5-6.1,4.5C106,44,108.6,35,108.6,35
		c-2.8,0.8-3.3-0.1-3.3-0.1c-0.2,0.7-2.2,1-2.2,1s-4.2,5.7-9,5.8c-4.8,0.1-6.2-2.7-5.5-7.5c0.7-4.7,7-14,7-14c-0.9,0.5-2-0.2-2-0.2
		c-0.8-1.8,4.8-4.1,4.8-4.1c4.5-2,3,0.9,3,0.9L98,26.8L98,26.8z M94.7,33.5c-1.9,5.8,0.3,6.3,0.3,6.3c2.1-0.1,3.8-4,3.8-4
		c0.5-2.1-1.8-4.7-1.8-4.7C95.7,30.8,94.7,33.5,94.7,33.5L94.7,33.5z M115.3,32.7c-3.1,8.3,0.9,6.4,0.9,6.4c3.2-1.9,3.2-4.3,3.2-4.3
		c0.1-1.5-1.6-4-1.6-4C116.7,30.1,115.3,32.7,115.3,32.7L115.3,32.7z M183.5,29.3c0,0-3.7,1-3.8,4.2c0,0,1.8,0.9,3.3-0.3
		C183,33.2,183.6,30.3,183.5,29.3L183.5,29.3z"/>
</g>
<g id="Capa_4" class="st0">
	<g class="st2">
		<path class="st3" d="M26.5,15.8c-3.1,0-5.8,1.1-8,3.3c-2.2,2.2-3.3,4.9-3.3,8c0,3.2,1.1,5.8,3.3,8c2.2,2.3,4.9,3.4,8,3.4
			c3.1,0,5.8-1.1,8-3.4c2.2-2.2,3.3-4.8,3.3-8c0-3.1-1.1-5.8-3.3-8C32.3,16.9,29.6,15.8,26.5,15.8L26.5,15.8z"/>
		<path class="st3" d="M26.5,13.8V1C22,1,17.7,2.2,13.7,4.4v19.5c0.7-2.9,2.3-5.3,4.6-7.1C20.8,14.8,23.5,13.8,26.5,13.8L26.5,13.8z
			"/>
		<path class="st3" d="M23.8,40.2c-3-0.7-5.4-2.3-7.2-4.7c-2-2.4-2.9-5.1-2.9-8.2H0.5c0,4.6,1.2,8.9,3.5,12.8H23.8L23.8,40.2z"/>
		<path class="st3" d="M39.5,30.4c-0.7,2.9-2.2,5.3-4.6,7.2c-2.4,1.9-5.2,2.9-8.3,2.9v12.6c4.6,0,8.9-1.1,12.8-3.4V30.4L39.5,30.4z"
			/>
		<path class="st3" d="M52.6,26.9c0-4.6-1.2-8.9-3.5-12.8H29.8c3,0.7,5.4,2.3,7.2,4.6c2,2.5,2.9,5.2,2.9,8.3H52.6L52.6,26.9z"/>
		<polygon class="st3" points="58.6,14.8 58.6,29.9 63.1,29.9 63.1,14.8 58.6,14.8 		"/>
		<polygon class="st3" points="87.1,14.8 82.4,14.8 82.4,25.7 82.4,25.7 73.6,14.8 66.4,14.8 66.4,29.9 71.1,29.9 71.1,18.9 
			71.1,18.9 79.8,29.9 87.1,29.9 87.1,14.8 		"/>
		<path class="st3" d="M94.8,20.8v-2.4h8.3c0.9,0,1.4,0.4,1.4,1.2c0,0.8-0.5,1.2-1.4,1.2H94.8L94.8,20.8z M94.8,23.9h8.4
			c1.1,0,1.7,0.5,1.7,1.3c0,0.8-0.6,1.1-1.7,1.1h-8.4V23.9L94.8,23.9z M106.8,22.3L106.8,22.3c0.8-0.3,1.3-0.6,1.6-1
			c0.5-0.5,0.7-1.4,0.7-2.6c0-1.4-0.5-2.4-1.4-3.1c-0.9-0.6-2.3-0.8-4.2-0.8H90.1v15.1H105c1.5,0,2.6-0.2,3.3-0.7
			c0.8-0.7,1.3-1.8,1.3-3.3c0-1.2-0.2-2.1-0.6-2.6C108.5,22.8,107.8,22.4,106.8,22.3L106.8,22.3z"/>
		<path class="st3" d="M131.4,14.8h-4.6v8.8c0,0.9-0.3,1.6-0.6,2c-0.4,0.5-1.2,0.7-2.1,0.7h-4.6c-1,0-1.6-0.2-2.1-0.7
			c-0.4-0.4-0.5-1.1-0.5-2v-8.8h-4.7v9.7c0,1.9,0.5,3.3,1.5,4.2c1,1,2.6,1.4,4.7,1.4h6.8c2.1,0,3.7-0.4,4.7-1.4
			c1-0.9,1.5-2.3,1.5-4.2V14.8L131.4,14.8z"/>
		<path class="st3" d="M139,22.2v-3.7c2.5,0,4.9,0,7.4,0c1.2,0,2.1,0.2,2.1,1.6c0,0.2,0,0.3,0,0.5c0,1.1-0.6,1.6-1.7,1.6H139
			L139,22.2z M139,26h7.4c0.7,0,1.2,0.1,1.5,0.4c0.3,0.3,0.4,0.9,0.4,1.7v1.8h4.7v-2.6c0-1.1-0.2-2-0.7-2.5c-0.4-0.4-1-0.7-1.8-0.9
			c1-0.2,1.7-0.7,2.1-1.3c0.3-0.6,0.5-1.4,0.5-2.5v-0.9c0-1.5-0.3-2.6-0.9-3.3c-0.8-0.9-2-1.2-3.7-1.2h-14.1v15.1h4.7V26L139,26z"/>
		<path class="st3" d="M166,20.5l-4.7-0.2c-0.3,0-0.6-0.2-0.7-0.4c-0.1-0.1-0.2-0.4-0.2-0.7c0-0.8,0.6-1.2,1.8-1.2h5.2
			c1,0,1.7,0.1,2,0.3c0.2,0.2,0.3,0.6,0.3,1.3h4.7v-0.5c0-1.6-0.3-2.7-1-3.3c-0.8-0.9-2.5-1.3-4.9-1.3h-6.6c-2.7,0-4.5,0.5-5.3,1.4
			c-0.6,0.7-0.9,1.9-0.9,3.5c0,1.1,0.1,1.8,0.3,2.4c0.1,0.6,0.5,1,1,1.4c1,0.6,3.1,0.9,6.6,0.9l5.6,0.2c0.4,0,0.7,0.2,0.8,0.4
			l0.2,0.8c0,0.5-0.2,0.9-0.6,1.1l-1.4,0.2h-5.8l-1.5-0.3c-0.3-0.2-0.5-0.7-0.5-1.5h-4.7V26c0,1.6,0.5,2.7,1.4,3.3
			c0.8,0.5,2.4,0.8,4.6,0.8h5.7c3.1,0,5.2-0.3,6.1-0.9c0.6-0.3,1-0.8,1.2-1.4c0.2-0.6,0.3-1.5,0.3-2.5c0-1.2-0.1-2-0.4-2.6
			c-0.2-0.7-0.7-1.2-1.3-1.5C172.1,20.7,169.7,20.5,166,20.5L166,20.5z"/>
		<polygon class="st3" points="190.4,14.8 184.4,14.8 176.1,29.9 181.4,29.9 182.7,27.2 184.5,24 187.4,18.3 190.4,24 184.5,24 
			182.7,27.2 192.2,27.2 193.6,29.9 198.8,29.9 190.4,14.8 		"/>
		<path class="st3" d="M96.7,41.8v-1.2l4.3,0v3.8c-0.7,0.5-1.3,0.9-2,1.2c-0.7,0.3-1.4,0.4-2.2,0.4c-1,0-1.9-0.2-2.7-0.6
			c-0.8-0.4-1.4-1-1.8-1.8c-0.4-0.8-0.6-1.7-0.6-2.7c0-1,0.2-1.9,0.6-2.8c0.4-0.9,1-1.5,1.8-1.9c0.8-0.4,1.7-0.6,2.7-0.6
			c0.7,0,1.4,0.1,2,0.4c0.6,0.2,1.1,0.6,1.4,1c0.3,0.4,0.6,1,0.8,1.7l-1.2,0.3c-0.2-0.5-0.3-0.9-0.6-1.2c-0.2-0.3-0.5-0.5-1-0.7
			c-0.4-0.2-0.9-0.3-1.4-0.3c-0.6,0-1.1,0.1-1.6,0.3c-0.4,0.2-0.8,0.4-1.1,0.7c-0.3,0.3-0.5,0.6-0.6,1c-0.3,0.6-0.4,1.3-0.4,2
			c0,0.9,0.2,1.7,0.5,2.3c0.3,0.6,0.8,1.1,1.4,1.4c0.6,0.3,1.2,0.4,1.9,0.4c0.6,0,1.1-0.1,1.7-0.3c0.6-0.2,1-0.5,1.3-0.7v-1.9H96.7
			L96.7,41.8z"/>
		<path class="st3" d="M102.8,45.8v-7.3h1.1v1.1c0.3-0.5,0.5-0.9,0.8-1c0.2-0.2,0.5-0.2,0.8-0.2c0.4,0,0.8,0.1,1.3,0.4l-0.4,1.2
			c-0.3-0.2-0.6-0.3-0.9-0.3c-0.3,0-0.5,0.1-0.7,0.2c-0.2,0.2-0.4,0.4-0.5,0.7c-0.1,0.4-0.2,0.9-0.2,1.4v3.8H102.8L102.8,45.8z"/>
		<path class="st3" d="M112.3,45.8v-1.1c-0.6,0.8-1.3,1.2-2.3,1.2c-0.4,0-0.8-0.1-1.2-0.2c-0.4-0.2-0.7-0.4-0.8-0.6
			c-0.2-0.3-0.3-0.6-0.4-0.9c0-0.2-0.1-0.6-0.1-1.2v-4.5h1.2v4.1c0,0.7,0,1.1,0.1,1.3c0.1,0.3,0.2,0.6,0.5,0.8
			c0.3,0.2,0.6,0.3,0.9,0.3c0.4,0,0.7-0.1,1-0.3c0.3-0.2,0.6-0.5,0.7-0.8c0.1-0.3,0.2-0.8,0.2-1.4v-3.9h1.2v7.3H112.3L112.3,45.8z"
			/>
		<path class="st3" d="M115.4,48.6V38.5h1.1v1c0.3-0.4,0.6-0.7,0.9-0.8c0.3-0.2,0.7-0.3,1.2-0.3c0.6,0,1.2,0.2,1.7,0.5
			c0.5,0.3,0.8,0.8,1.1,1.4c0.2,0.6,0.4,1.2,0.4,1.9c0,0.7-0.1,1.4-0.4,2c-0.3,0.6-0.7,1.1-1.2,1.4c-0.5,0.3-1.1,0.5-1.6,0.5
			c-0.4,0-0.8-0.1-1.1-0.3c-0.3-0.2-0.6-0.4-0.8-0.7v3.6H115.4L115.4,48.6z M116.5,42.2c0,0.9,0.2,1.6,0.6,2.1
			c0.4,0.5,0.8,0.7,1.4,0.7c0.6,0,1-0.2,1.4-0.7c0.4-0.5,0.6-1.2,0.6-2.2c0-0.9-0.2-1.6-0.6-2.1c-0.4-0.5-0.8-0.7-1.4-0.7
			c-0.5,0-1,0.2-1.4,0.7C116.7,40.5,116.5,41.3,116.5,42.2L116.5,42.2z"/>
		<path class="st3" d="M122.8,42.2c0-1.4,0.4-2.4,1.1-3c0.6-0.5,1.4-0.8,2.3-0.8c1,0,1.8,0.3,2.5,1c0.6,0.7,1,1.6,1,2.7
			c0,0.9-0.1,1.7-0.4,2.2c-0.3,0.5-0.7,1-1.2,1.3c-0.5,0.3-1.1,0.4-1.8,0.4c-1,0-1.9-0.3-2.5-1C123.1,44.3,122.8,43.4,122.8,42.2
			L122.8,42.2z M124,42.2c0,0.9,0.2,1.6,0.6,2.1c0.4,0.5,0.9,0.7,1.5,0.7c0.6,0,1.1-0.2,1.5-0.7c0.4-0.5,0.6-1.2,0.6-2.1
			c0-0.9-0.2-1.6-0.6-2.1c-0.4-0.5-0.9-0.7-1.5-0.7c-0.6,0-1.1,0.2-1.5,0.7C124.2,40.5,124,41.2,124,42.2L124,42.2z"/>
		<polygon class="st3" points="135.2,45.8 135.2,35.7 142.1,35.7 142.1,36.9 136.6,36.9 136.6,40 141.3,40 141.3,41.2 136.6,41.2 
			136.6,45.8 135.2,45.8 		"/>
		<path class="st3" d="M143.6,37.1v-1.4h1.2v1.4H143.6L143.6,37.1z M143.6,45.8v-7.3h1.2v7.3H143.6L143.6,45.8z"/>
		<path class="st3" d="M146.8,45.8v-7.3h1.1v1c0.5-0.8,1.3-1.2,2.3-1.2c0.4,0,0.8,0.1,1.2,0.2c0.4,0.2,0.6,0.4,0.8,0.6
			c0.2,0.3,0.3,0.6,0.4,0.9c0,0.2,0.1,0.6,0.1,1.2v4.5h-1.2v-4.5c0-0.5,0-0.9-0.1-1.1c-0.1-0.2-0.3-0.4-0.5-0.6
			c-0.2-0.2-0.5-0.2-0.9-0.2c-0.5,0-1,0.2-1.4,0.5c-0.4,0.3-0.6,1-0.6,1.9v4H146.8L146.8,45.8z"/>
		<path class="st3" d="M159.4,44.9c-0.5,0.4-0.9,0.7-1.3,0.8c-0.4,0.2-0.9,0.2-1.4,0.2c-0.8,0-1.4-0.2-1.9-0.6
			c-0.4-0.4-0.6-0.9-0.6-1.5c0-0.4,0.1-0.7,0.2-1c0.2-0.3,0.4-0.5,0.6-0.7c0.3-0.2,0.6-0.3,0.9-0.4c0.2-0.1,0.6-0.1,1.1-0.2
			c1-0.1,1.7-0.3,2.2-0.4c0-0.2,0-0.3,0-0.3c0-0.5-0.1-0.9-0.4-1.1c-0.3-0.3-0.8-0.4-1.4-0.4c-0.6,0-1,0.1-1.3,0.3
			c-0.3,0.2-0.5,0.6-0.6,1.1l-1.2-0.2c0.1-0.5,0.3-0.9,0.5-1.3c0.3-0.3,0.6-0.6,1.1-0.7c0.5-0.2,1-0.3,1.7-0.3
			c0.6,0,1.1,0.1,1.5,0.2c0.4,0.1,0.7,0.3,0.9,0.6c0.2,0.2,0.3,0.5,0.4,0.8c0,0.2,0.1,0.6,0.1,1.1v1.7c0,1.2,0,1.9,0.1,2.2
			c0.1,0.3,0.2,0.6,0.3,0.9h-1.3C159.5,45.6,159.4,45.3,159.4,44.9L159.4,44.9z M159.3,42.1c-0.5,0.2-1.1,0.3-2,0.5
			c-0.5,0.1-0.9,0.2-1.1,0.2c-0.2,0.1-0.4,0.2-0.5,0.4c-0.1,0.2-0.2,0.4-0.2,0.6c0,0.3,0.1,0.6,0.4,0.8c0.2,0.2,0.6,0.3,1.1,0.3
			c0.5,0,0.9-0.1,1.3-0.3c0.4-0.2,0.6-0.5,0.8-0.9c0.1-0.3,0.2-0.7,0.2-1.2V42.1L159.3,42.1z"/>
		<path class="st3" d="M162.5,45.8v-7.3h1.1v1c0.5-0.8,1.3-1.2,2.3-1.2c0.4,0,0.8,0.1,1.2,0.2c0.4,0.2,0.6,0.4,0.8,0.6
			c0.2,0.3,0.3,0.6,0.4,0.9c0,0.2,0.1,0.6,0.1,1.2v4.5h-1.2v-4.5c0-0.5,0-0.9-0.1-1.1c-0.1-0.2-0.3-0.4-0.5-0.6
			c-0.2-0.2-0.5-0.2-0.9-0.2c-0.5,0-1,0.2-1.4,0.5c-0.4,0.3-0.6,1-0.6,1.9v4H162.5L162.5,45.8z"/>
		<path class="st3" d="M175.1,43.1l1.2,0.2c-0.1,0.8-0.5,1.5-1,2c-0.5,0.5-1.2,0.7-2,0.7c-1,0-1.8-0.3-2.4-1
			c-0.6-0.7-0.9-1.6-0.9-2.8c0-0.8,0.1-1.5,0.4-2.1c0.3-0.6,0.7-1,1.2-1.3c0.5-0.3,1.1-0.4,1.7-0.4c0.8,0,1.4,0.2,2,0.6
			c0.5,0.4,0.8,1,1,1.7l-1.2,0.2c-0.1-0.5-0.3-0.9-0.6-1.1c-0.3-0.2-0.6-0.4-1.1-0.4c-0.6,0-1.1,0.2-1.5,0.7
			c-0.4,0.4-0.6,1.2-0.6,2.1c0,1,0.2,1.7,0.6,2.1c0.4,0.4,0.9,0.7,1.5,0.7c0.5,0,0.9-0.2,1.2-0.4C174.8,44.2,175,43.8,175.1,43.1
			L175.1,43.1z"/>
		<path class="st3" d="M177.4,37.1v-1.4h1.2v1.4H177.4L177.4,37.1z M177.4,45.8v-7.3h1.2v7.3H177.4L177.4,45.8z"/>
		<path class="st3" d="M185.6,43.5l1.3,0.2c-0.2,0.8-0.6,1.3-1.1,1.7c-0.5,0.4-1.2,0.6-2.1,0.6c-1.1,0-1.9-0.3-2.5-1
			c-0.6-0.7-0.9-1.6-0.9-2.8c0-1.2,0.3-2.2,1-2.9c0.6-0.7,1.5-1,2.5-1c1,0,1.8,0.3,2.4,1c0.6,0.7,0.9,1.6,0.9,2.8c0,0.1,0,0.2,0,0.3
			h-5.5c0,0.8,0.3,1.4,0.7,1.8c0.4,0.4,0.9,0.6,1.5,0.6c0.5,0,0.8-0.1,1.2-0.4C185.1,44.4,185.4,44,185.6,43.5L185.6,43.5z
			 M181.5,41.4h4.1c-0.1-0.6-0.2-1.1-0.5-1.4c-0.4-0.5-0.9-0.7-1.5-0.7c-0.6,0-1.1,0.2-1.4,0.6C181.7,40.3,181.5,40.8,181.5,41.4
			L181.5,41.4z"/>
		<path class="st3" d="M188.4,45.8v-7.3h1.1v1.1c0.3-0.5,0.5-0.9,0.8-1c0.2-0.2,0.5-0.2,0.8-0.2c0.4,0,0.8,0.1,1.3,0.4l-0.4,1.2
			c-0.3-0.2-0.6-0.3-0.9-0.3c-0.3,0-0.5,0.1-0.7,0.2c-0.2,0.2-0.4,0.4-0.5,0.7c-0.1,0.4-0.2,0.9-0.2,1.4v3.8H188.4L188.4,45.8z"/>
		<path class="st3" d="M192.7,42.2c0-1.4,0.4-2.4,1.1-3c0.6-0.5,1.4-0.8,2.3-0.8c1,0,1.8,0.3,2.5,1c0.6,0.7,1,1.6,1,2.7
			c0,0.9-0.1,1.7-0.4,2.2c-0.3,0.5-0.7,1-1.2,1.3c-0.5,0.3-1.1,0.4-1.8,0.4c-1,0-1.9-0.3-2.5-1C193,44.3,192.7,43.4,192.7,42.2
			L192.7,42.2z M193.9,42.2c0,0.9,0.2,1.6,0.6,2.1c0.4,0.5,0.9,0.7,1.5,0.7c0.6,0,1.1-0.2,1.5-0.7c0.4-0.5,0.6-1.2,0.6-2.1
			c0-0.9-0.2-1.6-0.6-2.1c-0.4-0.5-0.9-0.7-1.5-0.7c-0.6,0-1.1,0.2-1.5,0.7C194.1,40.5,193.9,41.2,193.9,42.2L193.9,42.2z"/>
	</g>
</g>
<g id="Capa_5" class="st0">
	<g class="st2">
		<path class="st4" d="M130.8-5.3c-16,0-27.3,8.5-27.4,20.7c-0.1,9,8,14.1,14.2,17.1c6.3,3.1,8.4,5,8.4,7.8
			c-0.1,4.2-5.1,6.1-9.7,6.1c-6.5,0-9.9-0.9-15.2-3.3L99,42l-2.3,14c3.8,1.7,10.8,3.3,18.1,3.3c17,0,28.1-8.4,28.2-21.4
			c0.1-7.2-4.3-12.6-13.6-17c-5.6-2.9-9.1-4.8-9.1-7.8c0-2.6,2.9-5.4,9.3-5.4c5.3-0.1,9.1,1.1,12.1,2.4l1.4,0.7l2.2-13.6
			C142.1-4,137.1-5.3,130.8-5.3L130.8-5.3z M80.5-4.2L70.4,58.5h16.2L96.7-4.2L80.5-4.2L80.5-4.2z M56.8-4.2L41,38.6l-1.7-8.7
			C35.3,19.2,26.8,8.1,16.8,3.5l14.5,54.9l17.1,0L74-4.2L56.8-4.2L56.8-4.2z M174.4-4.2c-3.9,0-6.8,1.1-8.5,5.2l-24,57.5h17
			c0,0,2.8-7.7,3.4-9.4c1.9,0,18.4,0,20.7,0c0.5,2.2,2,9.4,2,9.4h15L186.9-4.2L174.4-4.2L174.4-4.2z M175.5,12.7l1.1,5.4
			c0,0,3.1,15,3.8,18.1h-13.4c1.3-3.6,6.5-17.5,6.5-17.5C173.3,18.9,174.7,15.1,175.5,12.7L175.5,12.7z"/>
		<path class="st4" d="M26.3-4.2H0.2L0-3.1c20.3,5.2,33.7,17.9,39.3,33L33.6,1.1C32.6-2.9,29.8-4.1,26.3-4.2"/>
	</g>
</g>
<g id="Capa_6" class="st0">
	<g class="st2">
		<polygon class="st3" points="139.4,85.9 142.4,85.8 145.4,85.6 148.3,85.2 151.3,84.7 154.1,84 156.9,83.3 159.6,82.3 162.3,81.3 
			164.9,80.1 167.5,78.8 169.9,77.4 172.3,75.8 174.6,74.2 176.9,72.4 179,70.6 181.1,68.6 183,66.6 184.9,64.4 186.6,62.2 
			188.3,59.9 189.8,57.5 191.2,55 192.5,52.5 193.7,49.9 194.8,47.2 195.7,44.5 196.5,41.7 197.1,38.8 197.7,35.9 198,33 198.3,30 
			198.3,26.9 198.3,23.9 198,20.9 197.7,18 197.1,15.1 196.5,12.3 195.7,9.5 194.8,6.8 193.7,4.1 192.5,1.5 191.2,-1 189.8,-3.5 
			188.3,-5.9 186.6,-8.2 184.9,-10.4 183,-12.5 181.1,-14.6 179,-16.5 176.9,-18.4 174.6,-20.1 172.3,-21.8 169.9,-23.3 
			167.5,-24.7 164.9,-26 162.3,-27.2 159.6,-28.2 156.9,-29.2 154.1,-30 151.3,-30.6 148.3,-31.1 145.4,-31.5 142.4,-31.7 
			139.4,-31.8 136.4,-31.7 133.4,-31.5 130.4,-31.1 127.5,-30.6 124.7,-30 121.9,-29.2 119.2,-28.2 116.5,-27.2 113.9,-26 
			111.4,-24.7 108.9,-23.3 106.5,-21.8 104.2,-20.1 102,-18.4 99.9,-16.5 97.8,-14.6 95.9,-12.5 94,-10.4 92.3,-8.2 90.6,-5.9 
			89.1,-3.5 87.7,-1 86.4,1.5 85.2,4.1 84.2,6.8 83.3,9.5 82.5,12.3 81.8,15.1 81.3,18 80.9,20.9 80.7,23.9 80.6,26.9 80.7,30 
			80.9,33 81.3,35.9 81.8,38.8 82.5,41.7 83.3,44.5 84.2,47.2 85.2,49.9 86.4,52.5 87.7,55 89.1,57.5 90.6,59.9 92.3,62.2 94,64.4 
			95.9,66.6 97.8,68.6 99.9,70.6 102,72.4 104.2,74.2 106.5,75.8 108.9,77.4 111.4,78.8 113.9,80.1 116.5,81.3 119.2,82.3 
			121.9,83.3 124.7,84 127.5,84.7 130.4,85.2 133.4,85.6 136.4,85.8 139.4,85.9 139.4,85.9 		"/>
		<polygon class="st6" points="60.6,85.9 63.6,85.8 66.6,85.6 69.6,85.2 72.5,84.7 75.3,84 78.1,83.3 80.8,82.3 83.5,81.3 
			86.1,80.1 88.6,78.8 91.1,77.4 93.5,75.8 95.8,74.2 98,72.4 100.1,70.6 102.2,68.6 104.1,66.6 106,64.4 107.7,62.2 109.4,59.9 
			110.9,57.5 112.3,55 113.6,52.5 114.8,49.9 115.8,47.2 116.7,44.5 117.5,41.7 118.2,38.8 118.7,35.9 119.1,33 119.3,30 
			119.4,26.9 119.3,23.9 119.1,20.9 118.7,18 118.2,15.1 117.5,12.3 116.7,9.5 115.8,6.8 114.8,4.1 113.6,1.5 112.3,-1 110.9,-3.5 
			109.4,-5.9 107.7,-8.2 106,-10.4 104.1,-12.5 102.2,-14.6 100.1,-16.5 98,-18.4 95.8,-20.1 93.5,-21.8 91.1,-23.3 88.6,-24.7 
			86.1,-26 83.5,-27.2 80.8,-28.2 78.1,-29.2 75.3,-30 72.5,-30.6 69.6,-31.1 66.6,-31.5 63.6,-31.7 60.6,-31.8 57.6,-31.7 
			54.6,-31.5 51.7,-31.1 48.7,-30.6 45.9,-30 43.1,-29.2 40.4,-28.2 37.7,-27.2 35.1,-26 32.5,-24.7 30.1,-23.3 27.7,-21.8 
			25.4,-20.1 23.1,-18.4 21,-16.5 18.9,-14.6 17,-12.5 15.1,-10.4 13.4,-8.2 11.7,-5.9 10.2,-3.5 8.8,-1 7.5,1.5 6.3,4.1 5.2,6.8 
			4.3,9.5 3.5,12.3 2.9,15.1 2.3,18 2,20.9 1.7,23.9 1.7,26.9 1.7,30 2,33 2.3,35.9 2.9,38.8 3.5,41.7 4.3,44.5 5.2,47.2 6.3,49.9 
			7.5,52.5 8.8,55 10.2,57.5 11.7,59.9 13.4,62.2 15.1,64.4 17,66.6 18.9,68.6 21,70.6 23.1,72.4 25.4,74.2 27.7,75.8 30.1,77.4 
			32.5,78.8 35.1,80.1 37.7,81.3 40.4,82.3 43.1,83.3 45.9,84 48.7,84.7 51.7,85.2 54.6,85.6 57.6,85.8 60.6,85.9 60.6,85.9 		"/>
		<polygon class="st3" points="93.1,-9.2 124.4,-9.2 124.4,-12.4 95.8,-12.4 93.1,-9.2 93.1,-9.2 		"/>
		<polygon class="st3" points="88.4,-2.1 124.4,-2.1 124.4,-5.3 90.3,-5.3 88.4,-2.1 88.4,-2.1 		"/>
		<polygon class="st3" points="84.9,5 124.4,5 124.4,1.8 86.3,1.8 84.9,5 84.9,5 		"/>
		<polygon class="st3" points="82.5,12.1 124.4,12.1 124.4,8.9 83.5,8.9 82.5,12.1 82.5,12.1 		"/>
		<polygon class="st3" points="83.9,46.4 124.5,46.4 124.5,43.2 82.9,43.2 83.9,46.4 83.9,46.4 		"/>
		<polygon class="st3" points="86.9,53.5 124.5,53.5 124.5,50.3 85.4,50.3 86.9,53.5 86.9,53.5 		"/>
		<polygon class="st3" points="91.1,60.6 124.5,60.6 124.5,57.4 89.1,57.4 91.1,60.6 91.1,60.6 		"/>
		<polygon class="st3" points="96.9,67.7 124.5,67.7 124.5,64.5 94.1,64.5 96.9,67.7 96.9,67.7 		"/>
		<polygon class="st3" points="81.1,19.1 124.4,19.1 124.4,16 81.7,16 81.1,19.1 81.1,19.1 		"/>
		<polygon class="st3" points="107.5,39.3 124,39.3 124,36.1 108.1,36.1 107.5,39.3 107.5,39.3 		"/>
		<polygon class="st3" points="108.8,32.2 124,32.2 124,29 109.4,29 108.8,32.2 108.8,32.2 		"/>
		<polygon class="st3" points="80,29 84.3,29 84.3,32.2 80.2,32.2 80,29 80,29 		"/>
		<polygon class="st7" points="72,25.1 71.7,25.1 71.5,25.1 71.2,25 71,25 70.7,25 70.5,24.9 70.2,24.9 69.9,24.8 69.6,24.8 
			69.3,24.8 69,24.8 68.6,24.7 68.2,24.7 67.7,24.8 67.2,24.8 66.6,24.8 66.2,24.9 65.9,25 65.5,25.1 65.2,25.2 64.9,25.3 
			64.7,25.5 64.5,25.7 64.3,25.9 64.2,26.1 64.1,26.3 64,26.6 64,26.8 64.1,27 64.2,27.3 64.3,27.6 64.5,27.8 64.9,28.2 65.4,28.5 
			66,28.8 66.6,29 67.2,29.2 67.9,29.4 68.5,29.6 69.1,29.9 69.7,30.2 70.3,30.6 70.8,31.1 71.2,31.8 71.5,32.5 71.7,33.4 
			71.8,34.5 71.7,35.7 71.6,36.7 71.4,37.5 71,38.2 70.6,38.9 70.2,39.5 69.7,40 69.1,40.4 68.5,40.8 67.9,41.1 67.2,41.3 
			66.5,41.5 65.8,41.7 65.2,41.8 64.5,41.9 63.8,41.9 63.2,41.9 62.4,41.9 61.6,41.9 60.9,41.9 60.2,41.9 59.6,41.9 59.1,41.8 
			58.6,41.8 58.2,41.7 57.8,41.7 57.4,41.6 57,41.5 56.7,41.4 56.3,41.4 56,41.2 55.7,41.1 55.3,41 56.2,36.6 56.4,36.7 56.6,36.7 
			56.9,36.8 57.3,36.9 57.6,37 58,37 58.4,37.1 58.9,37.2 59.4,37.3 59.9,37.4 60.5,37.4 61,37.5 61.6,37.5 62.2,37.5 62.8,37.5 
			63.3,37.5 63.9,37.4 64.4,37.2 64.7,37 65,36.7 65.2,36.5 65.4,36.1 65.5,35.8 65.5,35.5 65.6,35 65.4,34.5 65.1,34.1 64.6,33.7 
			64,33.4 63.3,33.1 62.5,32.8 61.7,32.5 60.9,32.2 60.2,31.8 59.5,31.2 58.8,30.6 58.3,29.9 58,29 57.8,27.9 57.8,26.6 57.9,25.9 
			58.1,25.1 58.3,24.4 58.5,23.8 58.8,23.2 59.2,22.7 59.6,22.2 60.1,21.8 60.7,21.4 61.3,21.1 62,20.8 62.8,20.6 63.7,20.4 
			64.7,20.2 65.8,20.2 66.9,20.1 67.7,20.1 68.3,20.2 68.9,20.2 69.5,20.2 70,20.2 70.5,20.3 70.9,20.3 71.2,20.4 71.6,20.4 
			71.8,20.5 72.1,20.5 72.3,20.5 72.5,20.6 72.7,20.6 72.9,20.6 73,20.7 72,25.1 72,25.1 		"/>
		<polyline class="st8" points="72,25.1 72,25.1 71.7,25.1 71.5,25.1 71.2,25 71,25 70.7,25 70.5,24.9 70.2,24.9 69.9,24.8 
			69.6,24.8 69.3,24.8 69,24.8 68.6,24.7 68.2,24.7 67.7,24.8 67.2,24.8 66.6,24.8 66.6,24.8 66.2,24.9 65.9,25 65.5,25.1 
			65.2,25.2 64.9,25.3 64.7,25.5 64.5,25.7 64.3,25.9 64.2,26.1 64.1,26.3 64,26.6 64,26.8 64.1,27 64.2,27.3 64.3,27.6 64.5,27.8 
			64.5,27.8 64.9,28.2 65.4,28.5 66,28.8 66.6,29 67.2,29.2 67.9,29.4 68.5,29.6 69.1,29.9 69.7,30.2 70.3,30.6 70.8,31.1 
			71.2,31.8 71.5,32.5 71.7,33.4 71.8,34.5 71.7,35.7 71.7,35.7 71.6,36.7 71.4,37.5 71,38.2 70.6,38.9 70.2,39.5 69.7,40 
			69.1,40.4 68.5,40.8 67.9,41.1 67.2,41.3 66.5,41.5 65.8,41.7 65.2,41.8 64.5,41.9 63.8,41.9 63.2,41.9 63.2,41.9 62.4,41.9 
			61.6,41.9 60.9,41.9 60.2,41.9 59.6,41.9 59.1,41.8 58.6,41.8 58.2,41.7 57.8,41.7 57.4,41.6 57,41.5 56.7,41.4 56.3,41.4 
			56,41.2 55.7,41.1 55.3,41 56.2,36.6 56.2,36.6 56.4,36.7 56.6,36.7 56.9,36.8 57.3,36.9 57.6,37 58,37 58.4,37.1 58.9,37.2 
			59.4,37.3 59.9,37.4 60.5,37.4 61,37.5 61.6,37.5 62.2,37.5 62.8,37.5 63.3,37.5 63.3,37.5 63.9,37.4 64.4,37.2 64.7,37 65,36.7 
			65.2,36.5 65.4,36.1 65.5,35.8 65.5,35.5 65.5,35.5 65.6,35 65.4,34.5 65.1,34.1 64.6,33.7 64,33.4 63.3,33.1 62.5,32.8 
			61.7,32.5 60.9,32.2 60.2,31.8 59.5,31.2 58.8,30.6 58.3,29.9 58,29 57.8,27.9 57.8,26.6 57.8,26.6 57.9,25.9 58.1,25.1 
			58.3,24.4 58.5,23.8 58.8,23.2 59.2,22.7 59.6,22.2 60.1,21.8 60.7,21.4 61.3,21.1 62,20.8 62.8,20.6 63.7,20.4 64.7,20.2 
			65.8,20.2 66.9,20.1 66.9,20.1 67.7,20.1 68.3,20.2 68.9,20.2 69.5,20.2 70,20.2 70.5,20.3 70.9,20.3 71.2,20.4 71.6,20.4 
			71.8,20.5 72.1,20.5 72.3,20.5 72.5,20.6 72.7,20.6 72.9,20.6 73,20.7 72,25.1 		"/>
		<polygon class="st7" points="76.7,15.8 82.2,15.8 81.4,20.6 84.7,20.6 84,25 80.5,24.9 78.6,36 78.6,36.4 78.7,36.8 78.9,37 
			79.2,37.2 79.5,37.4 79.9,37.5 80.3,37.6 80.8,37.6 81.3,37.6 81.7,37.6 82,37.5 82.3,37.4 82.6,37.3 82.8,37.3 82.9,37.2 
			82.9,37.2 82.2,40.9 82.1,41 82,41.1 81.8,41.2 81.7,41.2 81.5,41.3 81.4,41.4 81.2,41.4 81,41.5 80.8,41.5 80.6,41.6 80.4,41.6 
			80.1,41.7 79.9,41.7 79.6,41.7 79.3,41.8 78.9,41.8 77.4,41.8 76.6,41.8 75.9,41.7 75.3,41.6 74.8,41.4 74.3,41.2 73.9,41 
			73.6,40.8 73.3,40.5 73.1,40.3 73,39.9 72.9,39.6 72.8,39.2 72.8,38.8 72.8,38.4 72.9,37.9 72.9,37.4 76.7,15.8 76.7,15.8 		"/>
		<polyline class="st8" points="76.7,15.8 82.2,15.8 81.4,20.6 84.7,20.6 84,25 80.5,24.9 78.6,36 78.6,36 78.6,36.4 78.7,36.8 
			78.9,37 79.2,37.2 79.5,37.4 79.9,37.5 80.3,37.6 80.8,37.6 80.8,37.6 81.3,37.6 81.7,37.6 82,37.5 82.3,37.4 82.6,37.3 
			82.8,37.3 82.9,37.2 82.9,37.2 82.2,40.9 82.2,40.9 82.1,41 82,41.1 81.8,41.2 81.7,41.2 81.5,41.3 81.4,41.4 81.2,41.4 81,41.5 
			80.8,41.5 80.6,41.6 80.4,41.6 80.1,41.7 79.9,41.7 79.6,41.7 79.3,41.8 78.9,41.8 77.4,41.8 77.4,41.8 76.6,41.8 75.9,41.7 
			75.3,41.6 74.8,41.4 74.3,41.2 73.9,41 73.6,40.8 73.3,40.5 73.1,40.3 73,39.9 72.9,39.6 72.8,39.2 72.8,38.8 72.8,38.4 
			72.9,37.9 72.9,37.4 76.7,15.8 		"/>
		<polygon class="st7" points="89.1,32.5 89.1,32.9 89,33.2 89.1,33.6 89.2,34 89.3,34.4 89.5,34.7 89.7,35.1 89.9,35.4 90.2,35.8 
			90.5,36.1 90.8,36.4 91.2,36.6 91.5,36.8 91.9,37 92.3,37.1 92.7,37.2 93.2,37.3 93.7,37.4 94.2,37.4 94.8,37.5 95.3,37.5 
			95.8,37.5 96.3,37.5 96.9,37.4 97.4,37.3 97.9,37.2 98.5,37.1 99,36.9 99.6,36.7 100.2,36.5 100.7,36.2 101.3,35.8 100.5,40.7 
			100.2,40.9 99.9,41 99.5,41.1 99.2,41.3 98.9,41.4 98.6,41.5 98.3,41.5 98,41.6 97.6,41.7 97.2,41.7 96.8,41.7 96.3,41.8 
			95.8,41.8 95.3,41.8 94.7,41.8 94,41.8 93.1,41.8 92.1,41.7 91.1,41.6 90.1,41.3 89.1,41 88.2,40.6 87.3,40.2 86.4,39.6 
			85.7,38.9 85,38.1 84.4,37.2 83.9,36.1 83.6,35 83.4,33.6 83.3,32.2 83.4,30.5 83.5,29.9 83.6,29.2 83.8,28.4 84,27.5 84.3,26.7 
			84.7,25.8 85.1,25 85.7,24.1 86.3,23.3 87.1,22.6 87.9,21.9 88.9,21.3 90.1,20.8 91.4,20.5 92.8,20.2 94.4,20.1 95.2,20.2 
			96,20.2 96.8,20.4 97.6,20.6 98.4,20.9 99.2,21.2 99.9,21.7 100.6,22.3 101.2,22.9 101.7,23.7 102.1,24.6 102.3,25.7 102.5,26.9 
			102.5,28.2 102.4,29.7 102.1,31.4 102,32.6 87.5,32.6 88.4,28.7 97.1,28.7 97.2,28.2 97.1,27.7 97.1,27.3 97,26.9 96.9,26.5 
			96.7,26.2 96.5,25.9 96.3,25.6 96.1,25.4 95.9,25.2 95.6,25 95.3,24.8 94.9,24.7 94.6,24.6 94.3,24.6 93.9,24.5 93.5,24.6 
			93.2,24.6 92.9,24.7 92.5,24.8 92.2,25 91.9,25.2 91.6,25.4 91.3,25.6 91.1,25.9 90.8,26.2 90.6,26.5 90.4,26.9 90.3,27.2 
			90.1,27.6 90,28 89.9,28.4 89.1,32.5 89.1,32.5 		"/>
		<polyline class="st8" points="89.1,32.5 89.1,32.5 89.1,32.9 89,33.2 89.1,33.6 89.2,34 89.3,34.4 89.5,34.7 89.7,35.1 89.9,35.4 
			90.2,35.8 90.5,36.1 90.8,36.4 91.2,36.6 91.5,36.8 91.9,37 92.3,37.1 92.7,37.2 92.7,37.2 93.2,37.3 93.7,37.4 94.2,37.4 
			94.8,37.5 95.3,37.5 95.8,37.5 96.3,37.5 96.9,37.4 97.4,37.3 97.9,37.2 98.5,37.1 99,36.9 99.6,36.7 100.2,36.5 100.7,36.2 
			101.3,35.8 100.5,40.7 100.5,40.7 100.2,40.9 99.9,41 99.5,41.1 99.2,41.3 98.9,41.4 98.6,41.5 98.3,41.5 98,41.6 97.6,41.7 
			97.2,41.7 96.8,41.7 96.3,41.8 95.8,41.8 95.3,41.8 94.7,41.8 94,41.8 94,41.8 93.1,41.8 92.1,41.7 91.1,41.6 90.1,41.3 89.1,41 
			88.2,40.6 87.3,40.2 86.4,39.6 85.7,38.9 85,38.1 84.4,37.2 83.9,36.1 83.6,35 83.4,33.6 83.3,32.2 83.4,30.5 83.4,30.5 
			83.5,29.9 83.6,29.2 83.8,28.4 84,27.5 84.3,26.7 84.7,25.8 85.1,25 85.7,24.1 86.3,23.3 87.1,22.6 87.9,21.9 88.9,21.3 
			90.1,20.8 91.4,20.5 92.8,20.2 94.4,20.1 94.4,20.1 95.2,20.2 96,20.2 96.8,20.4 97.6,20.6 98.4,20.9 99.2,21.2 99.9,21.7 
			100.6,22.3 101.2,22.9 101.7,23.7 102.1,24.6 102.3,25.7 102.5,26.9 102.5,28.2 102.4,29.7 102.1,31.4 102,32.6 87.5,32.6 
			88.4,28.7 97.1,28.7 97.1,28.7 97.2,28.2 97.1,27.7 97.1,27.3 97,26.9 96.9,26.5 96.7,26.2 96.5,25.9 96.3,25.6 96.1,25.4 
			95.9,25.2 95.6,25 95.3,24.8 94.9,24.7 94.6,24.6 94.3,24.6 93.9,24.5 93.9,24.5 93.5,24.6 93.2,24.6 92.9,24.7 92.5,24.8 
			92.2,25 91.9,25.2 91.6,25.4 91.3,25.6 91.1,25.9 90.8,26.2 90.6,26.5 90.4,26.9 90.3,27.2 90.1,27.6 90,28 89.9,28.4 89.1,32.5 
					"/>
		<polygon class="st7" points="136.5,21.7 136.2,21.6 136,21.5 135.7,21.4 135.4,21.2 135.1,21.1 134.7,21 134.4,20.9 134,20.7 
			133.7,20.6 133.3,20.6 132.9,20.5 132.5,20.4 132,20.4 131.5,20.3 131.1,20.3 130.6,20.3 130.1,20.3 129.6,20.4 129,20.4 
			128.5,20.5 127.9,20.7 127.4,20.9 126.8,21.2 126.2,21.6 125.7,22 125.2,22.5 124.7,23.1 124.2,23.9 123.8,24.7 123.4,25.7 
			123,26.9 122.7,28.1 122.6,28.8 122.5,29.5 122.4,30.2 122.5,30.9 122.5,31.6 122.7,32.2 122.8,32.8 123,33.4 123.3,33.9 
			123.7,34.5 124.1,34.9 124.6,35.3 125.1,35.7 125.7,36 126.4,36.2 127.2,36.4 127.4,36.5 127.7,36.5 128.1,36.6 128.5,36.6 
			128.9,36.7 129.4,36.7 129.9,36.7 130.4,36.6 130.9,36.6 131.4,36.5 131.9,36.3 132.4,36.2 132.9,35.9 133.4,35.7 133.8,35.4 
			134.2,35 133.3,40.3 133.2,40.4 133,40.5 132.9,40.7 132.7,40.8 132.5,40.9 132.2,41.1 131.9,41.2 131.5,41.3 131.1,41.5 
			130.6,41.6 130,41.7 129.3,41.7 128.5,41.8 127.6,41.8 126.6,41.8 125.5,41.7 124.6,41.6 123.6,41.4 122.7,41.1 121.8,40.7 
			120.9,40.3 120.1,39.7 119.3,39 118.6,38.2 117.9,37.3 117.4,36.3 116.9,35.2 116.5,34 116.3,32.6 116.2,31.2 116.3,29.7 
			116.5,28 116.6,27.2 116.8,26.4 117,25.6 117.2,24.9 117.4,24.2 117.7,23.5 117.9,22.9 118.2,22.2 118.5,21.6 118.8,21.1 
			119.2,20.5 119.5,20 119.9,19.5 120.3,19 120.7,18.6 121.1,18.2 121.5,17.8 122,17.4 122.5,17 123,16.7 123.5,16.4 124,16.2 
			124.6,15.9 125.2,15.7 125.8,15.5 126.4,15.4 127,15.2 127.7,15.1 128.4,15 129.1,14.9 129.8,14.9 130.6,14.9 131.2,14.9 
			131.8,14.9 132.4,15 133,15.1 133.6,15.1 134.1,15.3 134.6,15.4 135.1,15.5 135.6,15.6 136,15.7 136.3,15.8 136.6,16 136.9,16.1 
			137.2,16.1 137.3,16.2 137.5,16.2 136.5,21.7 136.5,21.7 		"/>
		<polyline class="st8" points="136.5,21.7 136.5,21.7 136.2,21.6 136,21.5 135.7,21.4 135.4,21.2 135.1,21.1 134.7,21 134.4,20.9 
			134,20.7 133.7,20.6 133.3,20.6 132.9,20.5 132.5,20.4 132,20.4 131.5,20.3 131.1,20.3 130.6,20.3 130.6,20.3 130.1,20.3 
			129.6,20.4 129,20.4 128.5,20.5 127.9,20.7 127.4,20.9 126.8,21.2 126.2,21.6 125.7,22 125.2,22.5 124.7,23.1 124.2,23.9 
			123.8,24.7 123.4,25.7 123,26.9 122.7,28.1 122.7,28.1 122.6,28.8 122.5,29.5 122.4,30.2 122.5,30.9 122.5,31.6 122.7,32.2 
			122.8,32.8 123,33.4 123.3,33.9 123.7,34.5 124.1,34.9 124.6,35.3 125.1,35.7 125.7,36 126.4,36.2 127.2,36.4 127.2,36.4 
			127.4,36.5 127.7,36.5 128.1,36.6 128.5,36.6 128.9,36.7 129.4,36.7 129.9,36.7 130.4,36.6 130.9,36.6 131.4,36.5 131.9,36.3 
			132.4,36.2 132.9,35.9 133.4,35.7 133.8,35.4 134.2,35 133.3,40.3 133.3,40.3 133.2,40.4 133,40.5 132.9,40.7 132.7,40.8 
			132.5,40.9 132.2,41.1 131.9,41.2 131.5,41.3 131.1,41.5 130.6,41.6 130,41.7 129.3,41.7 128.5,41.8 127.6,41.8 126.6,41.8 
			125.5,41.7 125.5,41.7 124.6,41.6 123.6,41.4 122.7,41.1 121.8,40.7 120.9,40.3 120.1,39.7 119.3,39 118.6,38.2 117.9,37.3 
			117.4,36.3 116.9,35.2 116.5,34 116.3,32.6 116.2,31.2 116.3,29.7 116.5,28 116.5,28 116.6,27.2 116.8,26.4 117,25.6 117.2,24.9 
			117.4,24.2 117.7,23.5 117.9,22.9 118.2,22.2 118.5,21.6 118.8,21.1 119.2,20.5 119.5,20 119.9,19.5 120.3,19 120.7,18.6 
			121.1,18.2 121.5,17.8 122,17.4 122.5,17 123,16.7 123.5,16.4 124,16.2 124.6,15.9 125.2,15.7 125.8,15.5 126.4,15.4 127,15.2 
			127.7,15.1 128.4,15 129.1,14.9 129.8,14.9 130.6,14.9 130.6,14.9 131.2,14.9 131.8,14.9 132.4,15 133,15.1 133.6,15.1 
			134.1,15.3 134.6,15.4 135.1,15.5 135.6,15.6 136,15.7 136.3,15.8 136.6,16 136.9,16.1 137.2,16.1 137.3,16.2 137.5,16.2 
			136.5,21.7 		"/>
		<polygon class="st7" points="185.3,41.8 179.8,41.8 180.2,39.6 180.2,39.4 179.9,39.8 179.6,40.2 179.3,40.5 178.9,40.8 178.5,41 
			178.2,41.2 177.8,41.4 177.4,41.6 177.1,41.7 176.7,41.8 176.3,41.9 175.9,42 175.5,42.1 175.1,42.1 174.7,42.1 174.4,42.1 
			173.3,42 172.4,41.8 171.5,41.5 170.7,41 170,40.5 169.3,39.8 168.8,39 168.3,38.2 167.9,37.3 167.6,36.4 167.4,35.4 167.2,34.4 
			167.2,33.4 167.2,32.4 167.3,31.3 167.5,30.3 167.8,29.2 168.1,28 168.5,27 169,26.1 169.5,25.2 170.1,24.4 170.8,23.7 171.4,23 
			172.1,22.4 172.8,21.9 173.6,21.5 174.4,21.2 175.1,20.9 175.9,20.7 176.7,20.6 177.5,20.6 178.1,20.6 178.7,20.6 179.2,20.7 
			179.7,20.9 180.1,21 180.5,21.2 180.9,21.4 181.3,21.6 181.6,21.9 181.9,22.1 182.2,22.4 182.4,22.7 182.6,22.9 182.8,23.2 
			182.9,23.4 183,23.7 183,23.7 184.4,15.9 189.8,15.9 185.3,41.8 185.3,41.8 		"/>
		<polyline class="st8" points="185.3,41.8 179.8,41.8 180.2,39.6 180.2,39.4 180.2,39.4 179.9,39.8 179.6,40.2 179.3,40.5 
			178.9,40.8 178.5,41 178.2,41.2 177.8,41.4 177.4,41.6 177.1,41.7 176.7,41.8 176.3,41.9 175.9,42 175.5,42.1 175.1,42.1 
			174.7,42.1 174.4,42.1 174.4,42.1 173.3,42 172.4,41.8 171.5,41.5 170.7,41 170,40.5 169.3,39.8 168.8,39 168.3,38.2 167.9,37.3 
			167.6,36.4 167.4,35.4 167.2,34.4 167.2,33.4 167.2,32.4 167.3,31.3 167.5,30.3 167.5,30.3 167.8,29.2 168.1,28 168.5,27 
			169,26.1 169.5,25.2 170.1,24.4 170.8,23.7 171.4,23 172.1,22.4 172.8,21.9 173.6,21.5 174.4,21.2 175.1,20.9 175.9,20.7 
			176.7,20.6 177.5,20.6 177.5,20.6 178.1,20.6 178.7,20.6 179.2,20.7 179.7,20.9 180.1,21 180.5,21.2 180.9,21.4 181.3,21.6 
			181.6,21.9 181.9,22.1 182.2,22.4 182.4,22.7 182.6,22.9 182.8,23.2 182.9,23.4 183,23.7 183,23.7 184.4,15.9 189.8,15.9 
			185.3,41.8 		"/>
		<polygon class="st3" points="176.4,37 176.9,37 177.4,36.9 177.9,36.7 178.4,36.5 178.8,36.3 179.2,36 179.6,35.6 179.9,35.3 
			180.2,34.9 180.5,34.4 180.7,34 180.9,33.5 181.1,33 181.3,32.5 181.4,32 181.5,31.4 181.6,30.9 181.7,30.3 181.7,29.7 
			181.7,29.2 181.6,28.7 181.5,28.2 181.4,27.7 181.2,27.2 181,26.9 180.8,26.5 180.5,26.2 180.2,25.9 179.9,25.6 179.6,25.5 
			179.2,25.4 178.8,25.3 178.2,25.4 177.7,25.5 177.3,25.6 176.8,25.8 176.4,26.1 176,26.4 175.7,26.7 175.3,27.1 175,27.5 
			174.8,28 174.5,28.5 174.3,29 174.1,29.5 173.9,30.1 173.8,30.6 173.7,31.2 173.6,32.1 173.6,33 173.7,34 174,35 174.4,35.8 
			174.9,36.4 175.6,36.9 176.4,37 176.4,37 		"/>
		<polygon class="st7" points="54.4,37.4 53.6,41.8 48.6,41.8 48.8,41 48.9,40.3 49,39.7 49,39.4 48.8,39.7 48.4,40.1 48.1,40.4 
			47.6,40.6 47.2,40.9 46.7,41.1 46.2,41.4 45.6,41.6 45,41.8 44.5,41.9 43.9,42 43.3,42.1 42.7,42.1 42.1,42.2 41.6,42.1 41.1,42 
			40.4,41.8 39.7,41.6 39.2,41.4 38.7,41.1 38.2,40.8 37.8,40.4 37.5,40 37.2,39.6 37,39.2 36.8,38.8 36.6,38.3 36.5,37.9 
			36.4,37.5 36.4,37 36.4,36.6 36.4,36.1 36.4,35.3 36.5,34.6 36.7,33.9 37,33.2 37.3,32.6 37.7,32 38.1,31.5 38.6,31 39.1,30.5 
			39.6,30.1 40.2,29.7 40.8,29.4 41.4,29.1 42.1,28.9 42.7,28.7 43.4,28.6 43.5,28.6 43.6,28.6 43.7,28.6 43.9,28.6 44.2,28.5 
			44.5,28.5 44.7,28.5 45.1,28.4 45.4,28.4 45.8,28.3 46.1,28.3 46.4,28.3 46.8,28.3 47.1,28.2 47.3,28.2 47.5,28.2 48,28.2 
			48.5,28.2 48.9,28.3 49.4,28.3 49.7,28.3 50,28.3 50.2,28.3 50.2,28.3 50.3,28.2 50.4,27.8 50.5,27.4 50.5,27 50.5,26.6 
			50.3,26.2 50,25.8 49.7,25.5 49.4,25.3 48.9,25.1 48.5,25 47.9,24.9 47.4,24.9 46.8,24.9 46.2,24.9 45.5,24.9 44.9,25 44.3,25 
			43.6,25.1 43,25.2 42.4,25.2 41.8,25.3 41.3,25.4 40.8,25.5 40.4,25.7 40,25.8 39.8,25.9 39.5,26 41,21.3 41.4,21.1 41.8,20.9 
			42.3,20.8 42.8,20.7 43.3,20.6 43.8,20.5 44.3,20.4 44.8,20.4 45.4,20.3 46,20.3 46.6,20.3 47.2,20.3 47.8,20.3 48.5,20.3 
			49.2,20.3 49.9,20.3 50.4,20.4 51,20.5 51.6,20.6 52.3,20.8 52.9,21 53.5,21.3 54.1,21.6 54.6,22 55.1,22.5 55.5,22.9 55.9,23.5 
			56.2,24.1 56.4,24.7 56.6,25.4 56.6,26.1 56.4,26.9 54.4,37.4 54.4,37.4 		"/>
		<polyline class="st8" points="54.4,37.4 53.6,41.8 48.6,41.8 48.6,41.8 48.8,41 48.9,40.3 49,39.7 49,39.4 49,39.4 48.8,39.7 
			48.4,40.1 48.1,40.4 47.6,40.6 47.2,40.9 46.7,41.1 46.2,41.4 45.6,41.6 45,41.8 44.5,41.9 43.9,42 43.3,42.1 42.7,42.1 
			42.1,42.2 41.6,42.1 41.1,42 41.1,42 40.4,41.8 39.7,41.6 39.2,41.4 38.7,41.1 38.2,40.8 37.8,40.4 37.5,40 37.2,39.6 37,39.2 
			36.8,38.8 36.6,38.3 36.5,37.9 36.4,37.5 36.4,37 36.4,36.6 36.4,36.1 36.4,36.1 36.4,35.3 36.5,34.6 36.7,33.9 37,33.2 
			37.3,32.6 37.7,32 38.1,31.5 38.6,31 39.1,30.5 39.6,30.1 40.2,29.7 40.8,29.4 41.4,29.1 42.1,28.9 42.7,28.7 43.4,28.6 
			43.4,28.6 43.5,28.6 43.6,28.6 43.7,28.6 43.9,28.6 44.2,28.5 44.5,28.5 44.7,28.5 45.1,28.4 45.4,28.4 45.8,28.3 46.1,28.3 
			46.4,28.3 46.8,28.3 47.1,28.2 47.3,28.2 47.5,28.2 47.5,28.2 48,28.2 48.5,28.2 48.9,28.3 49.4,28.3 49.7,28.3 50,28.3 
			50.2,28.3 50.2,28.3 50.2,28.3 50.3,28.2 50.4,27.8 50.5,27.4 50.5,27 50.5,27 50.5,26.6 50.3,26.2 50,25.8 49.7,25.5 49.4,25.3 
			48.9,25.1 48.5,25 47.9,24.9 47.9,24.9 47.4,24.9 46.8,24.9 46.2,24.9 45.5,24.9 44.9,25 44.3,25 43.6,25.1 43,25.2 42.4,25.2 
			41.8,25.3 41.3,25.4 40.8,25.5 40.4,25.7 40,25.8 39.8,25.9 39.5,26 41,21.3 41,21.3 41.4,21.1 41.8,20.9 42.3,20.8 42.8,20.7 
			43.3,20.6 43.8,20.5 44.3,20.4 44.8,20.4 45.4,20.3 46,20.3 46.6,20.3 47.2,20.3 47.8,20.3 48.5,20.3 49.2,20.3 49.9,20.3 
			49.9,20.3 50.4,20.4 51,20.5 51.6,20.6 52.3,20.8 52.9,21 53.5,21.3 54.1,21.6 54.6,22 55.1,22.5 55.5,22.9 55.9,23.5 56.2,24.1 
			56.4,24.7 56.6,25.4 56.6,26.1 56.4,26.9 54.4,37.4 		"/>
		<polygon class="st6" points="49.7,32.2 49.6,32.1 49.6,32 49.4,32 49.2,31.9 49,31.9 48.8,31.9 48.5,31.9 48.2,31.9 47.8,31.9 
			47.5,31.9 47.2,32 46.9,32 46.6,32.1 46.3,32.1 46.1,32.2 45.8,32.2 45.7,32.3 45.5,32.3 45.3,32.4 45.1,32.5 44.8,32.6 
			44.6,32.8 44.3,32.9 44.1,33.1 43.8,33.3 43.5,33.5 43.3,33.7 43.1,33.9 42.9,34.2 42.7,34.5 42.6,34.8 42.5,35.1 42.5,35.8 
			42.6,36.3 42.8,36.7 43.1,37 43.4,37.2 43.7,37.3 44,37.4 44.4,37.4 44.9,37.4 45.5,37.3 46,37.3 46.5,37.1 46.9,37 47.2,36.8 
			47.6,36.6 47.9,36.4 48.1,36.2 48.4,36 48.6,35.8 48.7,35.5 48.9,35.3 49,35.1 49.1,34.8 49.1,34.6 49.3,34 49.4,33.4 49.6,32.7 
			49.7,32.2 49.7,32.2 		"/>
		<polygon class="st7" points="12.7,41.8 7.3,41.8 11.8,15.8 21.2,15.8 22.1,31.2 28.5,15.8 38.4,15.8 33.7,41.8 28.3,41.8 
			31.8,22.3 31.5,22.3 23.5,41.8 17.4,41.8 17.3,41 17.2,38.8 17,35.8 16.8,32.2 16.6,28.7 16.4,25.6 16.3,23.3 16.3,22.3 
			16.2,22.3 16.1,22.3 16,22.3 16,22.3 12.7,41.8 12.7,41.8 		"/>
		<polyline class="st8" points="12.7,41.8 7.3,41.8 11.8,15.8 21.2,15.8 22.1,31.2 28.5,15.8 38.4,15.8 33.7,41.8 28.3,41.8 
			31.8,22.3 31.5,22.3 23.5,41.8 17.4,41.8 17.4,41.8 17.3,41 17.2,38.8 17,35.8 16.8,32.2 16.6,28.7 16.4,25.6 16.3,23.3 
			16.3,22.3 16.3,22.3 16.2,22.3 16.1,22.3 16,22.3 16,22.3 12.7,41.8 		"/>
		<polygon class="st7" points="153,37.4 152.2,41.8 147.2,41.8 147.2,41 147.2,40.3 147.2,39.8 147.3,39.5 147,39.8 146.7,40.1 
			146.4,40.4 146,40.7 145.5,40.9 145.1,41.2 144.6,41.4 144.1,41.6 143.5,41.8 143,41.9 142.4,42 141.9,42.1 141.3,42.1 
			140.7,42.2 140.2,42.1 139.7,42 139,41.8 138.3,41.6 137.8,41.4 137.2,41.1 136.8,40.8 136.4,40.4 136.1,40 135.8,39.6 
			135.6,39.2 135.4,38.8 135.3,38.3 135.2,37.9 135.1,37.5 135,37 135,36.6 135,36.1 135,35.3 135.1,34.6 135.3,33.9 135.6,33.2 
			135.9,32.6 136.3,32 136.7,31.5 137.1,31 137.6,30.5 138.2,30.1 138.8,29.7 139.4,29.4 140,29.1 140.6,28.9 141.3,28.7 142,28.6 
			142,28.6 142.1,28.6 142.2,28.6 142.4,28.6 142.7,28.5 143,28.5 143.3,28.5 143.6,28.4 143.9,28.4 144.3,28.3 144.6,28.3 
			145,28.3 145.3,28.3 145.6,28.2 145.8,28.2 146.1,28.2 146.5,28.2 147,28.2 147.5,28.3 147.9,28.3 148.3,28.3 148.6,28.3 
			148.8,28.3 148.9,28.3 148.9,28.2 149,27.8 149,27.4 149.1,27 149,26.6 148.8,26.2 148.6,25.8 148.3,25.5 147.9,25.3 147.5,25.1 
			147.1,25 146.6,24.9 146,24.9 145.4,24.9 144.8,24.9 144.2,24.9 143.5,25 142.9,25 142.2,25.1 141.6,25.2 141,25.2 140.5,25.3 
			139.9,25.4 139.5,25.5 139,25.7 138.7,25.8 138.4,25.9 138.2,26 139.6,21.3 140,21.1 140.5,20.9 140.9,20.8 141.4,20.7 
			141.9,20.6 142.4,20.5 142.9,20.4 143.4,20.4 144,20.3 144.6,20.3 145.1,20.3 145.8,20.3 146.4,20.3 147,20.3 147.7,20.3 
			148.4,20.3 148.9,20.4 149.5,20.5 150.1,20.6 150.8,20.8 151.4,21 152,21.3 152.6,21.6 153.1,22 153.6,22.5 154.1,22.9 
			154.5,23.5 154.8,24.1 155,24.7 155.2,25.4 155.2,26.1 155.1,26.9 153,37.4 153,37.4 		"/>
		<polygon class="st7" points="152.2,42 152.3,41.8 153.1,37.4 152.8,37.4 152,41.8 152.2,41.7 152.2,42 152.3,41.9 152.3,41.8 
			152.2,42 152.2,42 		"/>
		<polygon class="st7" points="147.1,41.8 147.2,42 152.2,42 152.2,41.7 147.2,41.7 147.3,41.8 147.1,41.8 147,42 147.2,42 
			147.1,41.8 147.1,41.8 		"/>
		<polygon class="st7" points="147.4,39.6 147.2,39.4 147.1,39.8 147.1,40.3 147.1,41 147.1,41.8 147.3,41.8 147.3,41 147.4,40.3 
			147.3,39.8 147.3,39.6 147.2,39.4 147.4,39.6 147.4,39.6 		"/>
		<polygon class="st7" points="139.6,42.1 139.6,42.1 140.2,42.2 140.7,42.3 141.3,42.3 141.9,42.2 142.4,42.1 143,42 143.6,41.9 
			144.1,41.7 144.6,41.5 145.1,41.3 145.6,41 146,40.8 146.4,40.5 146.8,40.2 147.1,39.9 147.4,39.6 147.2,39.4 146.9,39.7 
			146.6,40 146.3,40.3 145.9,40.6 145.5,40.8 145,41 144.5,41.3 144,41.5 143.5,41.6 143,41.8 142.4,41.9 141.9,42 141.3,42 
			140.7,42 140.2,42 139.7,41.9 139.7,41.9 139.6,42.1 139.6,42.1 		"/>
		<polygon class="st7" points="134.8,36.1 134.8,36.1 134.9,36.6 134.9,37 135,37.5 135,37.9 135.1,38.4 135.3,38.8 135.5,39.3 
			135.7,39.7 136,40.1 136.3,40.5 136.7,40.9 137.2,41.2 137.7,41.5 138.3,41.8 138.9,42 139.6,42.1 139.7,41.9 139,41.7 
			138.4,41.5 137.8,41.3 137.3,41 136.9,40.7 136.5,40.3 136.2,40 135.9,39.6 135.7,39.2 135.5,38.7 135.4,38.3 135.3,37.9 
			135.2,37.4 135.1,37 135.1,36.6 135.1,36.1 135.1,36.1 134.8,36.1 134.8,36.1 		"/>
		<polygon class="st7" points="142,28.5 142,28.5 141.3,28.6 140.6,28.8 139.9,29 139.3,29.3 138.7,29.6 138.1,30 137.6,30.4 
			137,30.9 136.6,31.4 136.2,32 135.8,32.5 135.5,33.2 135.2,33.9 135,34.6 134.9,35.3 134.8,36.1 135.1,36.1 135.1,35.3 
			135.3,34.6 135.4,34 135.7,33.3 136,32.7 136.4,32.1 136.8,31.6 137.2,31.1 137.7,30.6 138.3,30.2 138.8,29.8 139.4,29.5 
			140,29.3 140.7,29 141.3,28.9 142,28.7 142,28.7 142,28.5 142,28.5 		"/>
		<polygon class="st7" points="146.1,28.1 146.1,28.1 145.8,28.1 145.6,28.1 145.3,28.1 145,28.2 144.6,28.2 144.3,28.2 143.9,28.3 
			143.6,28.3 143.3,28.3 143,28.4 142.7,28.4 142.4,28.4 142.2,28.5 142.1,28.5 142,28.5 142,28.5 142,28.7 142,28.7 142.1,28.7 
			142.2,28.7 142.4,28.7 142.7,28.6 143,28.6 143.3,28.6 143.6,28.5 143.9,28.5 144.3,28.5 144.6,28.4 145,28.4 145.3,28.4 
			145.6,28.4 145.8,28.4 146.1,28.4 146.1,28.4 146.1,28.1 146.1,28.1 		"/>
		<polygon class="st7" points="148.7,28.3 148.9,28.2 148.8,28.2 148.6,28.2 148.3,28.2 147.9,28.1 147.5,28.1 147,28.1 146.5,28.1 
			146.1,28.1 146.1,28.4 146.5,28.4 147,28.4 147.5,28.4 147.9,28.4 148.3,28.4 148.6,28.4 148.8,28.4 148.9,28.4 149,28.3 
			148.9,28.4 149,28.5 149,28.3 148.7,28.3 148.7,28.3 		"/>
		<polygon class="st7" points="148.9,27 148.9,27 148.9,27.4 148.8,27.8 148.8,28.2 148.7,28.3 149,28.3 149,28.2 149.1,27.8 
			149.1,27.4 149.2,27 149.2,27 148.9,27 148.9,27 		"/>
		<polygon class="st7" points="146.6,25.1 146.6,25.1 147,25.1 147.4,25.2 147.8,25.4 148.2,25.6 148.5,25.9 148.7,26.3 148.9,26.6 
			148.9,27 149.2,27 149.1,26.6 148.9,26.1 148.7,25.8 148.3,25.4 148,25.2 147.5,25 147.1,24.9 146.6,24.8 146.6,24.8 146.6,25.1 
			146.6,25.1 		"/>
		<polygon class="st7" points="138.1,26 138.3,26.1 138.5,26 138.7,25.9 139.1,25.8 139.5,25.7 140,25.6 140.5,25.5 141.1,25.4 
			141.6,25.3 142.2,25.2 142.9,25.1 143.5,25.1 144.2,25 144.8,25 145.4,25 146,25 146.6,25.1 146.6,24.8 146,24.8 145.4,24.8 
			144.8,24.8 144.2,24.8 143.5,24.8 142.9,24.9 142.2,25 141.6,25 141,25.1 140.4,25.2 139.9,25.3 139.4,25.4 139,25.5 138.6,25.7 
			138.3,25.8 138.1,25.9 138.3,26.1 138.1,26 138.1,26 		"/>
		<polygon class="st7" points="139.5,21.1 139.4,21.2 138.1,26 138.3,26.1 139.7,21.3 139.6,21.4 139.5,21.1 139.5,21.2 139.4,21.2 
			139.5,21.1 139.5,21.1 		"/>
		<polygon class="st7" points="148.4,20.2 148.4,20.2 147.7,20.2 147,20.2 146.4,20.2 145.8,20.2 145.1,20.2 144.6,20.2 144,20.2 
			143.4,20.3 142.9,20.3 142.4,20.4 141.9,20.5 141.4,20.6 140.9,20.7 140.4,20.8 140,21 139.5,21.1 139.6,21.4 140,21.2 140.5,21 
			140.9,20.9 141.4,20.8 141.9,20.7 142.4,20.6 142.9,20.5 143.4,20.5 144,20.5 144.6,20.4 145.1,20.4 145.8,20.4 146.4,20.4 
			147,20.4 147.7,20.5 148.4,20.5 148.4,20.5 148.4,20.2 148.4,20.2 		"/>
		<polygon class="st7" points="155.2,27 155.2,27 155.3,26.1 155.3,25.4 155.1,24.7 154.9,24 154.6,23.4 154.2,22.9 153.7,22.4 
			153.2,21.9 152.7,21.6 152.1,21.2 151.4,20.9 150.8,20.7 150.1,20.5 149.5,20.4 148.9,20.3 148.4,20.2 148.4,20.5 148.9,20.5 
			149.5,20.6 150.1,20.7 150.7,20.9 151.3,21.2 151.9,21.4 152.5,21.7 153.1,22.1 153.6,22.6 154,23 154.4,23.5 154.7,24.1 
			154.9,24.7 155,25.4 155,26.1 154.9,26.9 154.9,26.9 155.2,27 155.2,27 		"/>
		<polygon class="st7" points="153.1,37.4 153.1,37.4 155.2,27 154.9,26.9 152.8,37.4 152.8,37.4 153.1,37.4 153.1,37.4 		"/>
		<polygon class="st3" points="148.2,32.2 148.1,32.1 148,32 147.9,32 147.7,31.9 147.5,31.9 147.2,31.9 146.9,31.9 146.6,31.9 
			146.3,31.9 146,32 145.7,32 145.4,32 145.1,32.1 144.8,32.1 144.6,32.2 144.4,32.2 144.2,32.3 144.1,32.3 143.9,32.4 143.7,32.4 
			143.4,32.6 143.2,32.7 142.9,32.8 142.6,33 142.4,33.2 142.1,33.4 141.9,33.6 141.7,33.9 141.5,34.2 141.4,34.5 141.2,34.8 
			141.2,35.1 141.2,35.8 141.3,36.3 141.4,36.7 141.7,37 141.9,37.2 142.3,37.3 142.6,37.4 143,37.4 143.6,37.4 144.1,37.3 
			144.6,37.2 145.1,37.1 145.5,36.9 145.9,36.8 146.3,36.6 146.6,36.3 146.9,36.1 147.1,35.8 147.3,35.6 147.5,35.3 147.6,35.1 
			147.7,34.9 147.8,34.6 147.9,34.4 147.9,33.9 148,33.3 148.1,32.7 148.2,32.2 148.2,32.2 		"/>
		<polygon class="st7" points="189.1,39.1 189.1,38.6 189.3,38.1 189.5,37.6 189.9,37.2 190.3,36.9 190.8,36.6 191.3,36.5 
			191.8,36.4 192.4,36.5 192.9,36.6 193.4,36.9 193.8,37.2 194.1,37.6 194.4,38.1 194.6,38.6 194.6,39.1 194,39.1 194,38.7 
			193.9,38.3 193.7,37.9 193.4,37.6 193.1,37.3 192.7,37.1 192.3,37 191.8,36.9 191.4,37 190.9,37.1 190.6,37.3 190.3,37.6 
			190,37.9 189.8,38.3 189.7,38.7 189.6,39.1 189.1,39.1 189.1,39.1 		"/>
		<polygon class="st7" points="190.8,39.1 190.8,37.9 191.9,37.9 192.2,37.9 192.4,38 192.6,38 192.7,38.1 192.8,38.2 192.9,38.3 
			192.9,38.5 192.9,38.6 192.9,38.8 192.9,38.9 192.8,39.1 192.8,39.1 191.9,39.1 192,39.1 192.2,39.1 192.3,39 192.4,39 
			192.5,38.9 192.5,38.9 192.5,38.8 192.5,38.6 192.5,38.5 192.5,38.4 192.4,38.4 192.4,38.4 192.3,38.3 192.2,38.3 192.1,38.3 
			191.9,38.3 191.3,38.3 191.3,39.1 190.8,39.1 190.8,39.1 		"/>
		<polygon class="st7" points="189.1,39.1 189,39.2 189.1,39.8 189.3,40.3 189.5,40.8 189.9,41.2 190.3,41.5 190.8,41.8 191.3,42 
			191.8,42 192.4,42 192.9,41.8 193.4,41.5 193.8,41.2 194.1,40.8 194.4,40.3 194.6,39.8 194.6,39.2 194.6,39.1 194,39.1 194,39.2 
			194,39.7 193.9,40.1 193.7,40.5 193.4,40.8 193.1,41.1 192.7,41.3 192.3,41.5 191.8,41.5 191.4,41.5 190.9,41.3 190.6,41.1 
			190.3,40.8 190,40.5 189.8,40.1 189.7,39.7 189.6,39.2 189.6,39.1 189.1,39.1 189.1,39.1 		"/>
		<polygon class="st7" points="190.8,39.1 190.8,40.3 191.3,40.3 191.3,39.3 191.8,39.3 192.4,40.3 192.8,40.3 192.2,39.3 
			192.4,39.3 192.5,39.3 192.6,39.2 192.7,39.2 192.8,39.1 191.9,39.1 191.8,39.1 191.3,39.1 191.3,39.1 190.8,39.1 190.8,39.1 		
			"/>
		<path class="st8" d="M189,39.2L189,39.2l0.1-0.6l0.2-0.5l0.3-0.5l0.3-0.4l0.4-0.3l0.5-0.2l0.5-0.2l0.6-0.1l0,0l0.6,0.1l0.5,0.2
			l0.5,0.2l0.4,0.3l0.3,0.4l0.3,0.5l0.2,0.5l0.1,0.6l0,0l-0.1,0.6l-0.2,0.5l-0.3,0.5l-0.3,0.4l-0.4,0.3l-0.5,0.3l-0.5,0.2l-0.6,0.1
			l0,0l-0.6-0.1l-0.5-0.2l-0.5-0.3l-0.4-0.3l-0.3-0.4l-0.3-0.5l-0.2-0.5L189,39.2 M191.3,40.3h-0.5v-2.4h1.1l0,0l0.2,0l0.2,0
			l0.2,0.1l0.1,0.1l0.1,0.1l0.1,0.1l0,0.1l0,0.1l0,0l0,0.2l0,0.1l-0.1,0.1l-0.1,0.1l-0.1,0.1l-0.1,0l-0.1,0h-0.1l0.6,1h-0.4l-0.6-1
			h-0.5V40.3 M191.8,39.1L191.8,39.1l0.2,0l0.1,0l0.1,0l0.1,0l0.1-0.1l0-0.1l0-0.1v-0.1l0,0l0-0.1l0-0.1l-0.1,0l-0.1,0l-0.1,0
			l-0.1,0h-0.1h-0.1h-0.6v0.8H191.8 M191.8,41.5L191.8,41.5l0.5,0l0.4-0.1l0.4-0.2l0.3-0.3l0.3-0.3l0.2-0.4l0.1-0.4l0-0.5l0,0l0-0.5
			l-0.1-0.4l-0.2-0.4l-0.3-0.3l-0.3-0.3l-0.4-0.2l-0.4-0.1l-0.5,0l0,0l-0.5,0l-0.4,0.1l-0.4,0.2l-0.3,0.3l-0.3,0.3l-0.2,0.4
			l-0.1,0.4l0,0.5l0,0l0,0.5l0.1,0.4l0.2,0.4l0.3,0.3l0.3,0.3l0.4,0.2l0.4,0.1L191.8,41.5"/>
		<polygon class="st7" points="154.5,41.8 160.1,41.8 160.1,41.8 162.1,30.5 162.1,30.1 162.3,29.7 162.4,29.2 162.5,28.8 
			162.7,28.3 163,27.9 163.2,27.5 163.6,27.1 163.9,26.8 164.3,26.5 164.8,26.2 165.3,26 165.9,25.8 166.5,25.6 167.2,25.5 
			168,25.4 168.2,25.4 168.4,25.4 168.5,25.4 168.5,25.4 169.3,20.3 168.8,20.4 168.3,20.4 167.8,20.5 167.3,20.7 166.8,20.8 
			166.4,21 166,21.3 165.7,21.5 165.3,21.8 165,22 164.6,22.4 164.3,22.7 164,23 163.7,23.4 163.4,23.8 163.2,24.2 163.7,20.6 
			158.2,20.6 154.5,41.8 154.5,41.8 154.5,41.8 		"/>
		<polyline class="st8" points="154.5,41.8 160.1,41.8 160.1,41.8 162.1,30.5 162.1,30.5 162.1,30.1 162.3,29.7 162.4,29.2 
			162.5,28.8 162.7,28.3 163,27.9 163.2,27.5 163.6,27.1 163.9,26.8 164.3,26.5 164.8,26.2 165.3,26 165.9,25.8 166.5,25.6 
			167.2,25.5 168,25.4 168,25.4 168.2,25.4 168.4,25.4 168.5,25.4 168.5,25.4 169.3,20.3 169.3,20.3 168.8,20.4 168.3,20.4 
			167.8,20.5 167.3,20.7 166.8,20.8 166.4,21 166,21.3 165.7,21.5 165.3,21.8 165,22 164.6,22.4 164.3,22.7 164,23 163.7,23.4 
			163.4,23.8 163.2,24.2 163.7,20.6 158.2,20.6 154.5,41.8 154.5,41.8 		"/>
		<polygon class="st7" points="101.9,41.8 107.5,41.8 107.6,41.8 109.5,30.5 109.6,30.1 109.7,29.7 109.8,29.3 109.9,28.9 
			110.1,28.5 110.3,28.1 110.5,27.7 110.8,27.4 111.1,27.1 111.5,26.8 111.9,26.6 112.4,26.3 112.9,26.2 113.5,26 114.2,25.9 
			115,25.8 115,25.8 115.1,25.9 115.2,25.9 115.3,25.9 115.4,25.9 115.5,25.9 115.6,25.9 115.6,25.9 115.6,25.9 115.7,25.6 
			115.7,25.3 115.8,24.8 116,24.3 116.1,23.8 116.3,23.2 116.5,22.6 116.6,22.3 116.8,21.9 117,21.5 117.2,21.2 117.4,20.9 
			117.6,20.6 117.6,20.5 117.7,20.4 117.7,20.4 117.6,20.4 117.5,20.4 117.4,20.4 117.2,20.4 117.1,20.4 116.9,20.3 116.8,20.3 
			116.2,20.4 115.6,20.4 115.1,20.5 114.6,20.7 114.2,20.8 113.7,21 113.4,21.2 113,21.5 112.7,21.7 112.3,22 112.1,22.3 
			111.8,22.6 111.5,23 111.2,23.4 110.9,23.8 110.6,24.2 111.3,20.6 105.6,20.6 101.9,41.8 101.9,41.8 101.9,41.8 		"/>
		<polyline class="st8" points="101.9,41.8 107.5,41.8 107.6,41.8 109.5,30.5 109.5,30.5 109.6,30.1 109.7,29.7 109.8,29.3 
			109.9,28.9 110.1,28.5 110.3,28.1 110.5,27.7 110.8,27.4 111.1,27.1 111.5,26.8 111.9,26.6 112.4,26.3 112.9,26.2 113.5,26 
			114.2,25.9 115,25.8 115,25.8 115,25.8 115.1,25.9 115.2,25.9 115.3,25.9 115.4,25.9 115.5,25.9 115.6,25.9 115.6,25.9 
			115.6,25.9 115.6,25.9 115.7,25.6 115.7,25.3 115.8,24.8 116,24.3 116.1,23.8 116.3,23.2 116.5,22.6 116.5,22.6 116.6,22.3 
			116.8,21.9 117,21.5 117.2,21.2 117.4,20.9 117.6,20.6 117.6,20.5 117.7,20.4 117.7,20.4 117.7,20.4 117.6,20.4 117.5,20.4 
			117.4,20.4 117.2,20.4 117.1,20.4 116.9,20.3 116.8,20.3 116.8,20.3 116.2,20.4 115.6,20.4 115.1,20.5 114.6,20.7 114.2,20.8 
			113.7,21 113.4,21.2 113,21.5 112.7,21.7 112.3,22 112.1,22.3 111.8,22.6 111.5,23 111.2,23.4 110.9,23.8 110.6,24.2 111.3,20.6 
			105.6,20.6 101.9,41.8 101.9,41.8 		"/>
		<polygon class="st3" points="189.1,62.7 189.1,62.6 189.3,62.1 189.5,61.7 189.9,61.3 190.3,60.9 190.8,60.7 191.3,60.6 
			191.8,60.5 192.4,60.6 192.9,60.7 193.4,60.9 193.8,61.3 194.1,61.7 194.4,62.1 194.6,62.6 194.6,62.7 194,62.7 193.9,62.3 
			193.7,61.9 193.4,61.6 193.1,61.3 192.7,61.1 192.3,60.9 191.8,60.9 191.4,60.9 190.9,61.1 190.6,61.3 190.3,61.6 190,61.9 
			189.8,62.3 189.7,62.7 189.1,62.7 189.1,62.7 		"/>
		<polygon class="st3" points="190.8,62.7 190.8,62 191.9,62 192.2,62 192.4,62.1 192.6,62.1 192.7,62.2 192.8,62.3 192.9,62.4 
			192.9,62.5 192.9,62.7 192.5,62.7 192.5,62.6 192.5,62.5 192.5,62.4 192.4,62.4 192.4,62.3 192.3,62.3 192.2,62.3 192.1,62.3 
			191.9,62.3 191.3,62.3 191.3,62.7 190.8,62.7 190.8,62.7 		"/>
		<polygon class="st3" points="189,63.1 189.1,62.7 189.7,62.7 189.7,62.7 189.6,63.1 189,63.1 189,63.1 		"/>
		<polygon class="st3" points="190.8,63.1 190.8,62.7 191.3,62.7 191.3,63.1 191.8,63.1 192,63.1 192.2,63 192.3,63 192.4,63 
			192.5,62.9 192.5,62.8 192.5,62.7 192.5,62.7 192.9,62.7 192.9,62.7 192.9,62.8 192.9,63 192.8,63.1 192.7,63.1 190.8,63.1 
			190.8,63.1 		"/>
		<polygon class="st3" points="194,63.1 194,62.7 194,62.7 194.6,62.7 194.6,63.1 194,63.1 194,63.1 		"/>
		<polygon class="st3" points="189,63.1 189,63.2 189.1,63.8 189.3,64.3 189.5,64.8 189.9,65.2 190.3,65.5 190.8,65.8 191.3,65.9 
			191.8,66 192.4,65.9 192.9,65.8 193.4,65.5 193.8,65.2 194.1,64.8 194.4,64.3 194.6,63.8 194.6,63.2 194.6,63.1 194,63.1 
			194,63.2 194,63.7 193.9,64.1 193.7,64.5 193.4,64.8 193.1,65.1 192.7,65.3 192.3,65.5 191.8,65.5 191.4,65.5 190.9,65.3 
			190.6,65.1 190.3,64.8 190,64.5 189.8,64.1 189.7,63.7 189.6,63.2 189.6,63.1 189,63.1 189,63.1 		"/>
		<polygon class="st3" points="190.8,63.1 190.8,64.3 191.3,64.3 191.3,63.3 191.8,63.3 192.4,64.3 192.8,64.3 192.2,63.3 
			192.4,63.3 192.5,63.3 192.6,63.2 192.7,63.1 192.7,63.1 190.8,63.1 190.8,63.1 		"/>
		<rect x="86.7" y="28.8" class="st7" width="3.6" height="3.8"/>
	</g>
</g>
<g id="Capa_8" class="st0">
	<g class="st2">
		<path class="st4" d="M200.8-73H0v200h200.8V61c0.8-1.1,1.2-2.6,1.2-4.4c0-2-0.4-3.3-1.2-4.4"/>
		<path class="st9" d="M18,13.6l-3.8-9.3l-3.8,9.3 M102.4,9.9c-0.8,0.5-1.7,0.5-2.8,0.5h-6.8V5.1h6.9c1,0,2,0,2.7,0.4
			c0.7,0.3,1.2,1.1,1.2,2.1C103.6,8.7,103.1,9.5,102.4,9.9z M151,13.6l-3.9-9.3l-3.9,9.3H151z M60.5,23.7h-5.7l0-18.4l-8.1,18.4
			h-4.9L33.5,5.3v18.4H22.1L20,18.5H8.3l-2.2,5.2H0.1l10-23.4h8.3l9.5,22.2V0.3h9.1l7.3,15.9l6.7-15.9h9.3L60.5,23.7L60.5,23.7z
			 M83.4,23.7H64.7V0.3h18.7v4.9H70.3v4.2H83v4.8H70.3v4.7h13.1V23.7z M109.7,6.6c0,3.7-2.5,5.7-3.9,6.2c1.2,0.5,2.3,1.3,2.8,2
			c0.8,1.2,0.9,2.2,0.9,4.3v4.6h-5.6l0-3c0-1.4,0.1-3.4-0.9-4.6c-0.8-0.8-2.1-1-4.1-1h-6v8.5h-5.6V0.3h12.9c2.9,0,5,0.1,6.8,1.1
			C108.7,2.4,109.7,4,109.7,6.6z M118.7,23.7H113V0.3h5.7V23.7z M185,23.7h-7.9L166.5,6.1v17.6H155l-2.2-5.2h-11.6l-2.1,5.2h-6.6
			c-2.7,0-6.2-0.6-8.1-2.6c-2-2-3-4.7-3-8.9c0-3.5,0.6-6.7,3-9.2c1.8-1.9,4.6-2.7,8.5-2.7h5.4v5h-5.3c-2,0-3.2,0.3-4.3,1.4
			c-1,1-1.6,2.9-1.6,5.3c0,2.5,0.5,4.3,1.5,5.5c0.9,0.9,2.4,1.2,3.9,1.2h2.5L143,0.3h8.4l9.5,22.2V0.3h8.5l9.8,16.3V0.3h5.7V23.7
			L185,23.7z M0,28.3h9.6l2.2-5.2h4.8l2.2,5.2h18.8v-4l1.7,4H49l1.7-4.1v4h46.8l0-8.5h0.9c0.6,0,0.8,0.1,0.8,1.1v7.4h24.2v-2
			c2,1,5,2,9,2h10.2l2.2-5.2h4.8l2.1,5.2h19.6v-4.9l3,4.9H190V-4.4h-15.6v3.9l-2.2-3.9h-16v3.9l-2-3.9h-21.6c-3.6,0-6.8,0.5-9.3,1.9
			v-1.9h-14.9v1.9c-1.6-1.4-3.9-1.9-6.3-1.9H47.8l-3.6,8.4l-3.7-8.4H23.3v3.9l-1.9-3.9H6.8L0,11.2L0,28.3L0,28.3z"/>
		<path class="st9" d="M200,45.6h-10.2c-1,0-1.7,0-2.3,0.4c-0.6,0.4-0.8,0.9-0.8,1.7c0,0.9,0.5,1.5,1.2,1.7c0.6,0.2,1.2,0.3,2.2,0.3
			l3,0.1c3.1,0.1,5.1,0.6,6.4,1.9c0.2,0.2,0.4,0.4,0.5,0.6 M200,61c-1.4,2-4,3-7.6,3h-10.8v-5h10.8c1.1,0,1.8-0.1,2.3-0.6
			c0.4-0.4,0.7-0.9,0.7-1.5c0-0.7-0.3-1.2-0.7-1.6c-0.4-0.4-1-0.5-2-0.5c-5.3-0.2-11.8,0.2-11.8-7.3c0-3.4,2.2-7,8-7H200v-4.7h-10.4
			c-3.1,0-5.4,0.7-7,1.9v-1.9h-15.3c-2.5,0-5.3,0.6-6.7,1.9v-1.9h-27.4v1.9c-2.2-1.6-5.9-1.9-7.6-1.9h-18.1v1.9
			c-1.7-1.7-5.6-1.9-7.9-1.9H79.5l-4.6,5l-4.3-5H40.3v32.7H70l4.8-5.1l4.5,5.1l18.3,0V61h1.8c2.4,0,5.3-0.1,7.8-1.1v8.8h15.1v-8.5
			h0.7c0.9,0,1,0,1,1v7.6h45.8c2.9,0,5.9-0.7,7.6-2.1v2.1h14.5c3,0,6-0.4,8.2-1.5V61L200,61z M177.7,51.7c1.1,1.1,1.7,2.6,1.7,5
			c0,5-3.2,7.4-8.8,7.4h-10.9v-5h10.9c1.1,0,1.8-0.1,2.3-0.6c0.4-0.4,0.7-0.9,0.7-1.5c0-0.7-0.3-1.2-0.7-1.6c-0.4-0.4-1-0.5-2-0.5
			c-5.2-0.2-11.8,0.2-11.8-7.3c0-3.4,2.1-7,8-7h11.2v5h-10.3c-1,0-1.7,0-2.2,0.4c-0.6,0.4-0.8,0.9-0.8,1.7c0,0.9,0.5,1.5,1.2,1.7
			c0.6,0.2,1.2,0.3,2.2,0.3l3,0.1C174.3,49.9,176.4,50.4,177.7,51.7z M127.1,50.2c-0.7,0.4-1.7,0.5-2.8,0.5h-6.8v-5.3h6.9
			c1,0,2,0,2.7,0.4c0.7,0.4,1.2,1.1,1.2,2.1C128.3,49,127.8,49.8,127.1,50.2z M130.5,53.1c1.2,0.5,2.3,1.3,2.7,2
			c0.8,1.1,0.9,2.2,0.9,4.3V64h-5.6v-2.9c0-1.4,0.1-3.5-0.9-4.6c-0.8-0.8-2.1-1-4.1-1h-6V64h-5.6V40.6h12.9c2.8,0,4.9,0.1,6.7,1.1
			c1.8,1.1,2.9,2.5,2.9,5.2C134.5,50.6,132,52.6,130.5,53.1z M137.6,40.6h18.7v4.8h-13.1v4.3h12.8v4.8h-12.8v4.7l13.1,0V64h-18.7
			V40.6z M99.8,51.4h-7.2v-6h7.3c2,0,3.4,0.8,3.4,2.9C103.3,50.3,101.9,51.4,99.8,51.4z M87,61.9l-8.6-9.5l8.6-9.2V61.9z M64.8,59.1
			H51v-4.7h12.3v-4.8H51v-4.3h14l6.1,6.8L64.8,59.1z M109.3,48.3c0,6.5-4.9,7.9-9.8,7.9h-7V64H81.7l-6.9-7.8L67.6,64H45.4V40.6h22.5
			l6.9,7.7l7.1-7.7h17.9C104.3,40.6,109.3,41.8,109.3,48.3z"/>
	</g>
</g>
<g id="Capa_9" class="st0">
	<g id="XMLID_4_" class="st2">
		<g id="XMLID_12_">
			<g id="XMLID_13_">
				<g id="XMLID_14_">
					<g id="XMLID_15_">
						<path id="XMLID_57_" class="st4" d="M76.1,23.9c-0.6,4-3.6,4-6.6,4h-1.7l1.2-7.4c0.1-0.4,0.5-0.8,0.9-0.8h0.8
							c2,0,3.9,0,4.9,1.1C76.1,21.5,76.3,22.5,76.1,23.9z M74.8,13.5H63.7c-0.8,0-1.4,0.6-1.5,1.3l-4.5,28.4
							c-0.1,0.6,0.3,1.1,0.9,1.1h5.3c0.8,0,1.4-0.6,1.5-1.3l1.2-7.7c0.1-0.7,0.8-1.3,1.5-1.3h3.5c7.3,0,11.5-3.5,12.6-10.5
							c0.5-3.1,0-5.5-1.4-7.1C81.3,14.5,78.5,13.5,74.8,13.5z"/>
						<path id="XMLID_54_" class="st4" d="M100.5,34.1c-0.5,3-2.9,5.1-6,5.1c-1.5,0-2.8-0.5-3.6-1.4c-0.8-0.9-1.1-2.3-0.8-3.7
							c0.5-3,2.9-5.1,5.9-5.1c1.5,0,2.7,0.5,3.5,1.4C100.4,31.3,100.7,32.6,100.5,34.1z M107.9,23.8h-5.3c-0.5,0-0.8,0.3-0.9,0.8
							l-0.2,1.5l-0.4-0.5c-1.1-1.7-3.7-2.2-6.3-2.2c-5.9,0-10.9,4.4-11.8,10.7c-0.5,3.1,0.2,6.1,2,8.1c1.6,1.9,3.9,2.7,6.7,2.7
							c4.7,0,7.3-3,7.3-3l-0.2,1.5c-0.1,0.6,0.3,1.1,0.9,1.1h4.8c0.8,0,1.4-0.6,1.5-1.3l2.9-18.1C108.9,24.3,108.4,23.8,107.9,23.8z
							"/>
						<path id="XMLID_33_" class="st4" d="M136.1,23.8h-5.3c-0.5,0-1,0.3-1.3,0.7l-7.3,10.8L119,24.9c-0.2-0.7-0.8-1.1-1.5-1.1h-5.2
							c-0.6,0-1.1,0.6-0.9,1.2l5.9,17.2l-5.5,7.8c-0.4,0.6,0,1.5,0.8,1.5h5.3c0.5,0,1-0.2,1.3-0.7l17.7-25.6
							C137.3,24.6,136.8,23.8,136.1,23.8z"/>
						<path id="XMLID_38_" class="st4" d="M155,23.9c-0.6,4-3.6,4-6.6,4h-1.7l1.2-7.4c0.1-0.4,0.5-0.8,0.9-0.8h0.8
							c2,0,3.9,0,4.9,1.1C155,21.5,155.2,22.5,155,23.9z M153.7,13.5h-11.1c-0.8,0-1.4,0.6-1.5,1.3l-4.5,28.4
							c-0.1,0.6,0.3,1.1,0.9,1.1h5.7c0.5,0,1-0.4,1.1-0.9l1.3-8c0.1-0.7,0.8-1.3,1.5-1.3h3.5c7.3,0,11.5-3.5,12.6-10.5
							c0.5-3.1,0-5.5-1.4-7.1C160.2,14.5,157.4,13.5,153.7,13.5z"/>
						<path id="XMLID_21_" class="st4" d="M179.4,34.1c-0.5,3-2.9,5.1-6,5.1c-1.5,0-2.8-0.5-3.6-1.4c-0.8-0.9-1.1-2.3-0.8-3.7
							c0.5-3,2.9-5.1,5.9-5.1c1.5,0,2.7,0.5,3.5,1.4C179.3,31.3,179.7,32.6,179.4,34.1z M186.8,23.8h-5.3c-0.5,0-0.8,0.3-0.9,0.8
							l-0.2,1.5l-0.4-0.5c-1.1-1.7-3.7-2.2-6.3-2.2c-5.9,0-10.9,4.4-11.8,10.7c-0.5,3.1,0.2,6.1,2,8.1c1.6,1.9,3.9,2.7,6.7,2.7
							c4.7,0,7.3-3,7.3-3l-0.2,1.5c-0.1,0.6,0.3,1.1,0.9,1.1h4.8c0.8,0,1.4-0.6,1.5-1.3l2.9-18.1C187.8,24.3,187.4,23.8,186.8,23.8z
							"/>
						<path id="XMLID_28_" class="st4" d="M193.1,14.3l-4.5,28.9c-0.1,0.6,0.3,1.1,0.9,1.1h4.6c0.8,0,1.4-0.6,1.5-1.3l4.5-28.4
							c0.1-0.6-0.3-1.1-0.9-1.1H194C193.5,13.5,193.1,13.9,193.1,14.3z"/>
						<path id="XMLID_27_" class="st10" d="M11.8,49.8l0.8-5.4l-1.9,0h-9L8,4.7c0-0.1,0.1-0.2,0.2-0.3c0.1-0.1,0.2-0.1,0.3-0.1h15.2
							c5,0,8.5,1,10.3,3.1c0.9,1,1.4,2,1.7,3.1c0.3,1.2,0.3,2.6,0,4.3l0,0.1V16l0.9,0.5c0.7,0.4,1.3,0.8,1.7,1.3
							c0.7,0.8,1.2,1.9,1.4,3.1c0.2,1.3,0.1,2.8-0.2,4.6c-0.4,2-1,3.7-1.9,5.2c-0.8,1.3-1.8,2.4-3,3.2c-1.1,0.8-2.5,1.4-4,1.8
							c-1.5,0.4-3.1,0.6-5,0.6h-1.2c-0.8,0-1.7,0.3-2.3,0.8c-0.6,0.6-1.1,1.3-1.2,2.1l-0.1,0.5l-1.5,9.5l-0.1,0.3
							c0,0.1,0,0.2-0.1,0.2c0,0-0.1,0.1-0.2,0.1H11.8z"/>
						<path id="XMLID_26_" class="st4" d="M37.3,15c0,0.3-0.1,0.6-0.2,0.9c-2,10.3-8.9,13.8-17.6,13.8h-4.5c-1.1,0-2,0.8-2.1,1.8
							L10.7,46L10,50.1c-0.1,0.7,0.4,1.3,1.1,1.3h7.9c0.9,0,1.7-0.7,1.9-1.6l0.1-0.4l1.5-9.4l0.1-0.5c0.1-0.9,0.9-1.6,1.9-1.6h1.2
							c7.7,0,13.6-3.1,15.4-12.1c0.7-3.8,0.4-6.9-1.6-9.1C38.9,16,38.1,15.5,37.3,15z"/>
						<path id="XMLID_25_" class="st11" d="M35.2,14.2c-0.3-0.1-0.6-0.2-0.9-0.2c-0.3-0.1-0.7-0.1-1-0.2c-1.2-0.2-2.5-0.3-3.9-0.3
							H17.4c-0.3,0-0.6,0.1-0.8,0.2c-0.5,0.3-1,0.8-1.1,1.4l-2.5,16L13,31.6c0.2-1.1,1.1-1.8,2.1-1.8h4.5c8.7,0,15.6-3.6,17.6-13.8
							c0.1-0.3,0.1-0.6,0.2-0.9c-0.5-0.3-1.1-0.5-1.6-0.7C35.5,14.3,35.4,14.2,35.2,14.2z"/>
						<path id="XMLID_24_" class="st4" d="M15.6,15.1c0.1-0.6,0.5-1.2,1.1-1.4c0.3-0.1,0.5-0.2,0.8-0.2h11.9c1.4,0,2.7,0.1,3.9,0.3
							c0.3,0.1,0.7,0.1,1,0.2c0.3,0.1,0.6,0.2,0.9,0.2c0.2,0,0.3,0.1,0.4,0.1c0.6,0.2,1.1,0.4,1.6,0.7c0.6-3.8,0-6.4-2.1-8.7
							C33,3.7,28.9,2.6,23.7,2.6H8.5c-1.1,0-2,0.8-2.1,1.8L0,44.5C-0.1,45.3,0.5,46,1.3,46h9.4L13,31.1L15.6,15.1z"/>
					</g>
				</g>
			</g>
		</g>
	</g>
</g>
<g id="Capa_10" class="st0">
	<g class="st2">
		<g>
			<g>
				<g>
					<g>
						<g>
							<rect x="3.7" y="-73" class="st4" width="192.7" height="200"/>
							<path class="st9" d="M124,107.4v7.5H77.7v-7.5h-35c-3.4,0-6.2-3.6-6.2-8l-14.6-148c0-4.4,3.4-8,7.6-8h141.3
								c4.2,0,7.6,3.6,7.6,8L164,99.4c0,4.4-2.8,8-6.2,8L124,107.4z"/>
							<path class="st4" d="M47.7-34.9h94.6c-9.3,3.5-37.7,22.7-44.8,35.6H47.8L47.7-34.9z"/>
							<path class="st4" d="M123.1,67.1c-1.3,12.9-1.4,28.6-1.4,45.1h-41c0-16.5,0.7-32.2,2-45.1H123.1z"/>
							<polygon class="st4" points="44.6,37.5 59.6,37.5 59.6,43.4 53.1,43.4 53.1,48.4 59.6,48.4 59.6,53.4 53.1,53.4 53.1,58.4 
								59.6,58.4 59.6,64.2 44.6,64.2 							"/>
							<polygon class="st4" points="79.5,37.5 94.5,37.5 94.5,43.4 87.9,43.4 87.9,48.4 94.5,48.4 94.5,53.4 87.9,53.4 87.9,58.4 
								94.5,58.4 94.5,64.2 79.5,64.2 							"/>
							<polygon class="st4" points="117.9,37.5 132.9,37.5 132.9,43.4 126.4,43.4 126.4,48.4 132.9,48.4 132.9,53.4 126.4,53.4 
								126.4,58.4 132.9,58.4 132.9,64.2 117.9,64.2 							"/>
							<polygon class="st4" points="70.9,58.4 77.4,58.4 77.4,64.2 62.4,64.2 62.4,37.5 70.9,37.5 							"/>
							<polygon class="st4" points="96,37.5 100.2,64.2 111,64.2 116.1,37.5 109.9,37.5 106.6,55.5 103.4,37.5 							"/>
							<rect x="136.5" y="37.5" class="st4" width="8.1" height="26.6"/>
							<path class="st4" d="M144.6,45.4c0.4-2.9,4.6-2.1,4.6-0.5v19.2h8.1V41.6c0-4.8-6.8-6.7-12.6-2.5"/>
							<path class="st4" d="M126.9,33.8c0.8-10.2,14.8-26.9,28.3-31.2v-39.4C118-20.2,93.8,5,88.5,33.7L126.9,33.8z"/>
							<path class="st4" d="M137.7,78.4c-1,1.1-2.3,1.6-3.8,1.6c-1.5,0-2.8-0.5-3.8-1.6c-1-1-1.6-2.3-1.6-3.8c0-1.5,0.5-2.7,1.6-3.8
								c1-1,2.3-1.6,3.8-1.6c1.5,0,2.8,0.5,3.8,1.6c1.1,1,1.6,2.3,1.6,3.8C139.2,76.1,138.7,77.3,137.7,78.4 M130.6,71.3
								c-0.9,0.9-1.3,2-1.3,3.3c0,1.3,0.4,2.4,1.3,3.3c0.9,0.9,2,1.4,3.3,1.4c1.3,0,2.4-0.5,3.3-1.4c0.9-0.9,1.3-2,1.3-3.3
								c0-1.3-0.4-2.4-1.3-3.3c-0.9-0.9-2-1.4-3.3-1.4C132.6,70,131.5,70.4,130.6,71.3 M133.8,71.6c0.7,0,1.3,0.1,1.6,0.2
								c0.6,0.3,0.9,0.8,0.9,1.5c0,0.5-0.2,0.9-0.6,1.2c-0.2,0.1-0.5,0.2-0.8,0.3c0.5,0.1,0.8,0.3,1,0.6c0.2,0.3,0.3,0.6,0.3,0.9
								v0.4c0,0.1,0,0.3,0,0.4c0,0.2,0,0.3,0.1,0.3l0,0.1h-1c0,0,0,0,0-0.1c0,0,0,0,0-0.1l0-0.2v-0.5c0-0.7-0.2-1.1-0.6-1.4
								c-0.2-0.1-0.6-0.2-1.2-0.2h-0.8v2.3h-1v-5.9H133.8z M134.9,72.6c-0.3-0.1-0.7-0.2-1.3-0.2h-0.9v2.1h0.9c0.4,0,0.8,0,1-0.1
								c0.4-0.2,0.6-0.5,0.6-0.9C135.3,73,135.2,72.7,134.9,72.6"/>
						</g>
					</g>
				</g>
			</g>
		</g>
	</g>
</g>
<g id="Capa_11" class="st0">
	<g class="st2">
		<path class="st3" d="M0.1-12.8c0-3.4,2.8-6.2,6.2-6.2h187.4c3.4,0,6.2,2.8,6.2,6.2v79.7c0,3.4-2.8,6.2-6.2,6.2H6.3
			c-3.4,0-6.2-2.8-6.2-6.2V-12.8L0.1-12.8z"/>
		<polygon class="st7" points="0.1,-10 200,-10 200,64.1 0.1,64.1 0.1,-10 		"/>
		<path class="st3" d="M169.5,9.2c-9.1,0-16.6,7.5-16.6,16.6c0,9.1,7.5,16.6,16.6,16.6c9.1,0,16.6-7.5,16.6-16.6
			C186.1,16.7,178.6,9.2,169.5,9.2L169.5,9.2z"/>
		<path class="st3" d="M32.7,9.2c-9.1,0-16.6,7.5-16.6,16.6c0,9.1,7.5,16.6,16.6,16.6c9.1,0,16.6-7.5,16.6-16.6
			C49.3,16.7,41.8,9.2,32.7,9.2L32.7,9.2z"/>
		<path class="st3" d="M168.2-5.4c-15.4-0.4-22.6,9.5-33.1,21.7l-9.9,11.5l15.7,18.8c3.7,5.8-3.4,11.5-7.8,6.2l-14.5-17.3
			l-14.1,16.4c-4.5,5.2-11.5-0.6-7.7-6.3l15.3-17.8l-10-12l6.5-8L118.7,20l8.8-10.2c4.3-5,8.7-11.7,14.4-15.1H0.1v64.8h33.2
			c15.4,0,22.3-9.2,32.5-21.6l9.6-11.7L59.3,7.8C55.5,2.1,62.5-3.8,67,1.4l14.9,16.9L95.6,1.7c4.4-5.3,11.5,0.3,7.9,6.1L88.6,26
			l10.3,11.7l-6.5,7.7L82.1,33.8l-8.6,10.4c-4.2,5.1-8.5,11.6-14.1,15.2H200V-5.4H168.2L168.2-5.4z M58.9,25.9
			c0,14.4-11.8,26.2-26.2,26.2c-14.4,0-26.2-11.8-26.2-26.2c0-14.4,11.8-26.2,26.2-26.2C47.1-0.4,58.9,11.4,58.9,25.9L58.9,25.9z
			 M169.5,52.1c-14.4,0-26.2-11.8-26.2-26.2c0-14.4,11.8-26.2,26.2-26.2c14.4,0,26.2,11.8,26.2,26.2
			C195.7,40.3,183.9,52.1,169.5,52.1L169.5,52.1z"/>
	</g>
</g>
<g id="Capa_12">
	<g>
		<g>
			<path class="st4" d="M88,40.6V22h5.4c0.9,0,1.8,0.1,2.6,0.3c0.8,0.2,1.5,0.5,2,1c0.4,0.3,0.7,0.7,0.9,1.2
				c0.3,0.6,0.5,1.4,0.5,2.3c0,1-0.2,1.7-0.6,2.4c-0.4,0.6-0.9,1.1-1.5,1.4c-0.1,0.1-0.3,0.1-0.4,0.2c0.3,0.1,0.6,0.2,0.9,0.4
				c0.6,0.3,1.1,0.6,1.5,1.1c0.3,0.3,0.5,0.7,0.7,1.1c0.2,0.6,0.3,1.2,0.3,2c0,1-0.2,1.9-0.6,2.6c-0.4,0.7-1,1.3-1.7,1.7
				c-0.5,0.3-1,0.5-1.6,0.6c-0.8,0.2-1.6,0.3-2.6,0.3H88 M93.7,38.8c0.8,0,1.4-0.1,2-0.3c0.6-0.2,1.1-0.4,1.5-0.8
				c0.2-0.2,0.5-0.5,0.6-0.8c0.2-0.4,0.3-1,0.3-1.6c0-0.7-0.1-1.3-0.4-1.8c-0.3-0.5-0.6-0.8-1.1-1.1c-0.3-0.2-0.7-0.3-1.2-0.4
				c-0.6-0.1-1.3-0.2-2-0.2H90v7.1H93.7z M93.3,30c0.7,0,1.3-0.1,1.8-0.2c0.5-0.1,1-0.4,1.4-0.7c0.2-0.2,0.4-0.4,0.6-0.8
				c0.2-0.4,0.3-0.9,0.3-1.5c0-0.7-0.1-1.2-0.4-1.6c-0.2-0.4-0.6-0.7-1-0.9c-0.3-0.2-0.6-0.3-1-0.4c-0.5-0.1-1-0.2-1.6-0.2H90V30
				H93.3z"/>
			<path class="st4" d="M112.5,28.7c-0.2-0.4-0.4-0.7-0.7-1c-0.4-0.4-1-0.7-1.6-0.9c-0.6-0.2-1.4-0.3-2.1-0.3
				c-2.7,0-4.2,0.8-5.1,1.3c0.7,1.5,1.5,1.2,2.5,0.7c0.8-0.3,1.6-0.5,2.5-0.5c0.4,0,0.9,0.1,1.3,0.2c0.3,0.1,0.5,0.2,0.7,0.3
				c0.3,0.2,0.5,0.4,0.7,0.8c0.2,0.3,0.3,0.8,0.3,1.3v2c-1-0.2-2-0.3-3.2-0.3c-0.8,0-1.5,0.1-2.2,0.2c-0.5,0.1-1,0.3-1.4,0.5
				c-0.6,0.3-1.1,0.8-1.5,1.4c-0.4,0.6-0.5,1.3-0.5,2.1c0,0.7,0.1,1.3,0.3,1.8c0.3,0.8,0.9,1.4,1.7,1.8c0.7,0.4,1.6,0.6,2.6,0.6
				c0,0,0,0,0,0c1.1,0,2-0.2,2.8-0.6c0.5-0.3,1-0.6,1.4-0.9c0,0.2,0,0.3,0,0.5c0,0.2,0.1,0.3,0.1,0.4c0,0.1,0.1,0.2,0.2,0.3
				c0.1,0.1,0.3,0.2,0.4,0.2c0.1,0,0.3,0,0.5,0h0.7v-10C112.9,29.8,112.8,29.2,112.5,28.7 M111,37.1c-0.5,0.6-1,1-1.6,1.4
				c-0.6,0.4-1.4,0.6-2.4,0.6c-0.4,0-0.8,0-1.2-0.1c-0.3-0.1-0.5-0.2-0.7-0.3c-0.3-0.2-0.5-0.5-0.7-0.8c-0.2-0.4-0.3-0.8-0.3-1.4
				c0-0.5,0.1-0.8,0.3-1.2c0.1-0.2,0.3-0.4,0.5-0.6c0.3-0.3,0.7-0.5,1.3-0.6c0.5-0.1,1.1-0.2,1.7-0.2c1.1,0,2.2,0.1,3.1,0.4V37.1z"
				/>
			<path class="st4" d="M125.4,40.6V30.5c0-0.6-0.1-1-0.2-1.3c-0.1-0.3-0.3-0.5-0.6-0.7c-0.2-0.1-0.4-0.2-0.6-0.2
				c-0.3-0.1-0.6-0.1-1-0.1c-0.9,0-1.8,0.3-2.7,0.7c-0.8,0.4-1.6,0.9-2.3,1.4v10.3h-1.9v-14h0.9c0.1,0,0.2,0,0.3,0
				c0.1,0,0.2,0,0.3,0.1c0.1,0,0.1,0.1,0.2,0.1c0.1,0.1,0.1,0.2,0.2,0.3c0,0.1,0.1,0.3,0.1,0.4c0,0.2,0,0.4,0,0.7v0.2
				c0.6-0.5,1.4-0.9,2.2-1.2c1-0.4,2.1-0.7,3.4-0.7c0.6,0,1.1,0.1,1.6,0.2c0.5,0.2,0.9,0.4,1.3,0.8c0.2,0.3,0.4,0.6,0.6,1
				c0.2,0.5,0.3,1.1,0.3,1.9v10.2H125.4"/>
			<path class="st4" d="M144.7,39.6c-1-0.7-1.8-1.8-2.3-3.1c-0.3-0.9-0.5-1.9-0.5-2.9c0-1.6,0.4-3,1-4.2c0.7-1.1,1.6-2,2.8-2.5
				c0.8-0.3,1.7-0.5,2.7-0.5c1.4,0,2.7,0.4,3.8,1.1c1,0.7,1.8,1.8,2.3,3.1c0.3,0.9,0.5,1.9,0.5,2.9c0,1.6-0.4,3-1,4.2
				c-0.7,1.1-1.6,2-2.8,2.5c-0.8,0.3-1.7,0.5-2.7,0.5C147.1,40.7,145.8,40.3,144.7,39.6 M145.8,29c-0.7,0.5-1.2,1.3-1.6,2.3
				c-0.2,0.7-0.3,1.5-0.3,2.3c0,1.3,0.3,2.4,0.7,3.3c0.5,0.8,1.1,1.5,2,1.8c0.6,0.2,1.2,0.4,1.9,0.4c1.1,0,2-0.3,2.7-0.8
				c0.7-0.5,1.2-1.3,1.6-2.3c0.2-0.7,0.3-1.5,0.3-2.4c0-1.3-0.3-2.4-0.7-3.3c-0.5-0.9-1.1-1.5-1.9-1.8c-0.6-0.2-1.2-0.4-1.9-0.4
				C147.4,28.1,146.5,28.4,145.8,29z"/>
			<path class="st4" d="M174.5,40.6V30.4c0-0.5-0.1-0.9-0.2-1.2c-0.1-0.3-0.3-0.5-0.5-0.7c-0.2-0.1-0.3-0.2-0.5-0.2
				c-0.3-0.1-0.6-0.1-0.9-0.1c-0.9,0-1.7,0.2-2.4,0.6c-0.7,0.4-1.4,0.8-2,1.3v10.4h-1.9V30.4c0-0.5-0.1-0.9-0.2-1.2
				c-0.1-0.3-0.3-0.5-0.5-0.7c-0.1-0.1-0.3-0.2-0.5-0.2c-0.3-0.1-0.6-0.1-0.9-0.1c-0.9,0-1.7,0.2-2.5,0.6c-0.7,0.4-1.4,0.8-2,1.4
				v10.4h-1.9v-14h0.9c0.1,0,0.2,0,0.3,0c0.1,0,0.2,0,0.3,0.1c0.1,0,0.1,0.1,0.2,0.1c0.1,0.1,0.1,0.2,0.2,0.3c0,0.1,0.1,0.3,0.1,0.4
				c0,0.2,0,0.4,0,0.7v0c0.5-0.4,1.2-0.8,1.8-1.1c0.9-0.4,2-0.7,3.1-0.7c0.6,0,1.1,0.1,1.7,0.3c0.5,0.2,1,0.6,1.3,1
				c0.1,0.2,0.3,0.4,0.4,0.7c0.6-0.5,1.3-0.9,2.1-1.3c0.9-0.4,2-0.7,3.1-0.7c0.5,0,1.1,0.1,1.5,0.2c0.5,0.2,0.9,0.4,1.2,0.8
				c0.2,0.2,0.4,0.5,0.6,0.9c0.2,0.5,0.3,1,0.3,1.6v10.5H174.5"/>
			<path class="st4" d="M69.6,33.9l2.5-8.5l2.6,8.5H69.6 M76.1,23.9c-0.5-1.5-0.8-1.9-2.3-1.9h-3.5l-5.7,18.6h2.9l1.2-4h6.8l1.2,4h5
				L76.1,23.9z"/>
			<path class="st4" d="M42,38.1V24.4h2.4c1.1,0,2.1,0.9,2.1,2.1c0,0.4-0.1,0.8-0.5,1.3l-1.5,2.3c1.6,0.4,2.7,1.6,2.7,3.9
				c0,2.8-1.7,4-3.9,4H42 M48,29.3l0.9-1.3c1.9-2.8,0.6-5.9-3.2-5.9h-8.1v18.6h7.8C52.3,40.6,54.3,32.6,48,29.3"/>
			<path class="st4" d="M27.6,38.1h-1.3V24.4h2.4c1.2,0,2.2,0.9,2.2,2.1c0,0.4-0.1,0.8-0.5,1.3l-1.6,2.3c1.6,0.4,2.7,1.6,2.7,3.9
				C31.5,36.9,29.8,38.1,27.6,38.1 M32.3,29.3l0.9-1.3c1.9-2.8,0.6-5.9-3.2-5.9h-8.1v18.6h7.8C36.6,40.6,38.6,32.6,32.3,29.3"/>
			<path class="st4" d="M56.2,24.4c-0.7-2.1-1-2.4-2.3-2.4h-3.3l6.1,18.6h4.5L66.8,22h-2.9l-4.2,14.1L56.2,24.4"/>
			<line class="st4" x1="21.9" y1="22" x2="29.7" y2="22"/>
			<path class="st4" d="M140.6,27.9c-0.7,1.5-1.4,1-2.4,0.6c-0.5-0.2-1.2-0.4-2.1-0.4c-1.1,0-2,0.3-2.7,0.8
				c-0.7,0.5-1.3,1.3-1.6,2.3c-0.2,0.7-0.4,1.4-0.4,2.3c0,1,0.1,1.9,0.4,2.6c0.3,0.7,0.7,1.3,1.1,1.8c0.3,0.3,0.7,0.5,1.1,0.7
				c0.6,0.2,1.2,0.4,2,0.4c1,0,1.7-0.2,2.3-0.5c1-0.5,1.6-1.1,2.4,0.4c-0.3,0.3-0.9,0.8-1.6,1.1c-0.1,0-0.2,0.1-0.3,0.1
				c-0.8,0.3-1.8,0.6-3,0.6h0c-1.5,0-2.8-0.4-3.9-1.1c-1-0.7-1.8-1.8-2.2-3.1c-0.3-0.9-0.4-1.9-0.4-2.9c0-1.6,0.4-3,1.1-4.2
				c0.7-1.1,1.7-2,2.9-2.4c0.8-0.3,1.7-0.5,2.7-0.5C136.6,26.5,138.6,26.3,140.6,27.9"/>
			<path class="st4" d="M190.2,30.1c-0.2-0.6-0.5-1.2-0.8-1.6c-0.5-0.7-1.2-1.2-1.9-1.5c-0.8-0.3-1.7-0.5-2.6-0.5
				c-0.9,0-1.7,0.2-2.5,0.5c-1.1,0.5-2.1,1.4-2.7,2.5c-0.6,1.1-1,2.5-1,4.2c0,1,0.1,2,0.4,2.9c0.4,1.3,1.2,2.3,2.2,3.1
				c1,0.7,2.4,1.1,3.9,1.1h0c1.2,0,2.3-0.2,3.1-0.5c1.3-0.5,2-1.1,2.3-1.5c-0.9-1.3-1.4-0.8-2.5-0.3c-0.6,0.3-1.8,0.6-2.8,0.6
				c-0.8,0-1.5-0.1-2.1-0.3c-0.4-0.2-0.8-0.4-1.2-0.7c-0.5-0.4-0.9-1-1.1-1.7c-0.2-0.6-0.4-1.4-0.4-2.3h10v-0.3c0,0,0,0,0-0.1
				c0-0.1,0-0.3,0-0.5C190.6,31.9,190.4,31,190.2,30.1 M180.6,32.4c0.1-0.6,0.2-1.2,0.4-1.7c0.4-0.9,0.9-1.5,1.5-1.9
				c0.6-0.4,1.4-0.6,2.3-0.6c0.6,0,1.1,0.1,1.6,0.2c0.3,0.1,0.7,0.3,0.9,0.5c0.4,0.3,0.7,0.8,1,1.4c0.2,0.6,0.3,1.2,0.4,2H180.6z"/>
			<path class="st4" d="M198.8,26.6c-1,0-1.9,0.3-2.7,0.8c-0.5,0.3-1,0.7-1.4,1.1c0-0.3,0-0.6,0-0.8c0-0.2,0-0.3-0.1-0.4
				c0-0.1-0.1-0.2-0.1-0.3c-0.1-0.1-0.1-0.1-0.2-0.1c-0.1-0.1-0.2-0.1-0.3-0.1c-0.1,0-0.2,0-0.3,0h-0.9v14h1.9v-10
				c0.7-0.8,1.3-1.3,1.7-1.6c0,0,0,0,0,0c0.8-0.5,1.4-0.6,1.9-0.7c0.9-0.1,1.5-0.2,1.6-1.6C199.6,26.6,199.2,26.6,198.8,26.6"/>
		</g>
		<g>
			<rect x="0" class="st4" width="9" height="9"/>
			<rect x="0" y="9" class="st4" width="9" height="9"/>
			<rect x="0" y="18" class="st4" width="9" height="9"/>
			<rect x="0" y="27" class="st4" width="9" height="9"/>
			<rect x="0" y="36.1" class="st4" width="9" height="9"/>
			<rect x="0" y="45.1" class="st4" width="9" height="9"/>
		</g>
	</g>
</g>
</svg>
