<?xml version="1.0" encoding="utf-8"?>
<!-- Generator: Adobe Illustrator 21.0.0, SVG Export Plug-In . SVG Version: 6.00 Build 0)  -->
<svg version="1.1" xmlns="http://www.w3.org/2000/svg" xmlns:xlink="http://www.w3.org/1999/xlink" x="0px" y="0px"
	 viewBox="0 0 200 32.8" style="enable-background:new 0 0 200 32.8;" xml:space="preserve">
<style type="text/css">
	.st0{display:none;}
	.st1{display:inline;}
	.st2{fill-rule:evenodd;clip-rule:evenodd;fill:#808080;}
	.st3{fill:#808080;}
</style>
<g id="Capa_1" class="st0">
	<g class="st1">
		<polygon class="st2" points="10.9,11.8 19.7,11.8 19.7,22.3 33.6,22.3 33.6,11.8 42.4,11.8 52.8,31 44.1,31 39.1,21.9 26.7,31 
			14.2,21.9 9.2,31 0.5,31 		"/>
		<polygon class="st2" points="52.9,11.8 52.9,3.1 0.5,3.1 0.5,11.8 9.2,11.8 10.1,10.1 21.4,10.1 21.4,20.6 31.9,20.6 31.9,10.1 
			43.2,10.1 44.1,11.8 		"/>
		<polygon class="st3" points="190.6,8.3 183.3,16.5 191.3,25.8 184.8,25.8 180.1,20.1 175,25.8 169.2,25.8 177.3,16.7 170.5,8.3 
			176.2,8.3 180.5,13.2 184.8,8.3 		"/>
		<polygon class="st3" points="155,14.6 165.9,14.6 165.9,18.1 155,18.1 155,22.3 167.9,22.3 167.9,25.8 150.3,25.8 150.3,8.3 
			167.9,8.3 167.9,11.8 155,11.8 		"/>
		<polygon class="st3" points="87,14.6 98,14.6 98,18.1 87,18.1 87,22.3 99.9,22.3 99.9,25.8 82.4,25.8 82.4,8.3 99.9,8.3 
			99.9,11.8 87,11.8 		"/>
		<polygon class="st3" points="122.8,8.3 130.9,8.3 134.9,18.4 138.9,8.3 147.2,8.3 147.2,25.8 142.4,25.8 142.4,11.9 136.5,25.8 
			133.1,25.8 127.4,11.8 127.4,25.8 122.8,25.8 		"/>
		<polygon class="st3" points="61.6,8.3 80.1,8.3 80.1,11.8 73.1,11.8 73.1,25.8 68.5,25.8 68.5,11.8 61.6,11.8 		"/>
		<polygon class="st3" points="103.1,8.3 107.9,8.3 107.9,22.3 120.7,22.3 120.7,25.8 103.1,25.8 		"/>
		<path class="st2" d="M194.7,22h1.8c0.3,0,0.5,0,0.7,0.1c0.4,0.2,0.5,0.5,0.5,0.9c0,0.2,0,0.4-0.1,0.6c-0.1,0.1-0.2,0.3-0.4,0.4
			c0.1,0.1,0.3,0.1,0.3,0.2c0.1,0.1,0.1,0.3,0.1,0.5l0,0.5c0,0.1,0,0.3,0,0.3c0,0.1,0.1,0.2,0.2,0.2v0.1h-0.6c0,0,0-0.1,0-0.1
			c0-0.1,0-0.2,0-0.3l0-0.6c0-0.3-0.1-0.4-0.3-0.5c-0.1,0-0.3-0.1-0.5-0.1h-1.2v1.7h-0.5V22 M196.4,23.8c0.2,0,0.4-0.1,0.6-0.1
			c0.1-0.1,0.2-0.3,0.2-0.5c0-0.3-0.1-0.5-0.3-0.6c-0.1-0.1-0.2-0.1-0.4-0.1h-1.3v1.3H196.4 M196,21c-1.7,0-3.1,1.4-3.1,3.1
			c0,1.7,1.4,3.1,3.1,3.1s3.1-1.4,3.1-3.1C199.1,22.4,197.7,21,196,21 M196,20.6c1.9,0,3.5,1.6,3.5,3.5c0,1.9-1.6,3.5-3.5,3.5
			c-1.9,0-3.5-1.6-3.5-3.5C192.6,22.1,194.1,20.6,196,20.6z"/>
	</g>
</g>
<g id="Capa_2" class="st0">
	<g class="st1">
		<g>
			<path class="st2" d="M150.9,27.6C150.9,27.5,150.9,27.5,150.9,27.6L150.9,27.6L150.9,27.6L150.9,27.6z M150.9,27.6L150.9,27.6
				C150.9,27.6,150.9,27.6,150.9,27.6L150.9,27.6L150.9,27.6L150.9,27.6z M144.4,20.2L144.4,20.2c0.1,0,0.1,0,0.1,0
				C144.5,20.2,144.5,20.2,144.4,20.2L144.4,20.2L144.4,20.2L144.4,20.2z M136.3,5.8h7.4c3.5,0,4.6,1.9,4.6,3.5
				c0,2.4-2.1,4.5-6.6,4.5h-7L136.3,5.8L136.3,5.8L136.3,5.8z M149.6,28.1l0.1-0.7c0.4-2.6-0.5-4.2-1.2-5.2c-1-1.2-2.5-2-4-2
				c0,0-0.1,0-0.1,0h-11.2l0.3-1.3c0,0,10.9,0,11,0c0,0,0,0,0,0c3.9-0.1,6.4-1.9,7.8-3.5c1.8-2,2.9-4.7,2.9-7.3c0-2-0.7-3.8-1.9-5.1
				c-1.3-1.4-3.3-2.2-5.8-2.2h-16L123.2,39h5.7l3.1-13.8h7.4c1.1,0,4.9-0.5,3.8,4.1c-0.3,1.6-1,5.7,0,9.7c0.8,0,3.7,0,6.6,0
				C148.6,35.6,149,31.6,149.6,28.1L149.6,28.1L149.6,28.1z M162,6.9c0-8.3-5.3-12.1-14.5-12.1c-10.5,0-21.7,0-21.7,0L116.1,39h5.9
				l8.5-39.4h17c2.8,0,5.1,0.9,6.7,2.6c1.4,1.5,2.2,3.6,2.2,6c0,2.9-1.2,5.9-3.2,8.1c-1.2,1.3-3,2.7-5.7,3.4c0.7,0.4,1.4,1,1.9,1.6
				c0.9,1.2,2,3.2,1.5,6.2l0-0.1c0,0,0,0,0,0.1v0c0,0,0,0,0,0c0,0.1,0,0.3-0.1,0.7c-0.5,3.5-1,7.5,0.3,10.7c2.9,0,5.5,0,5.5,0
				c-0.3-1-1-2.3-0.2-5.6c0.9-3.7,2.2-10.9-2.5-13.4C155.2,19.5,162,16.5,162,6.9L162,6.9L162,6.9z M17.1,35
				c8.1,0,13.6-3.6,14.6-9.6c0.7-4.5-3.3-6-7.9-7.2c-0.9-0.2-1.6-0.5-2.6-0.7c-4-1-11.6-3-11.1-9.8c0.6-8.8,10.7-9.5,13.8-9.5
				c4.5,0,7.7,1.5,9.5,4.4c1.4,2.3,1.5,4.9,1.6,6.1v0.1l5.9,0c0-9-3.9-15.1-15.7-15.1C14.5-6.4,6-2,4.4,7.5
				C1.6,24.5,25.3,19.2,24.2,26c-0.3,2.1-2.2,4-5.7,4c-1.4,0-2.8-0.4-3.8-1.1c-1.1-0.7-2.1-1.9-2-6.6H6.9c-0.1,4.4,0.3,7,1.5,8.7
				C11,34.8,16.1,35,17.1,35L17.1,35L17.1,35z M16.7,40.4c11.7,0.1,20.5-4.6,22.1-14.9C41.2,8.7,16.6,13.7,17.6,6.5
				c0.2-1.6,1.7-2.8,4.8-2.8c1.3,0,2.5,0.3,3.4,0.8c0.9,0.6,1.5,1.5,1.8,4.2l6.1,0V8.6c-0.1-1-0.2-3.4-1.4-5.4
				c-1.5-2.5-4.4-3.8-8.4-3.8c-2.8,0-12.1,0.6-12.6,8.3c-0.4,5.7,5.9,7.4,10.2,8.5c1,0.3,1.8,0.5,2.7,0.7c3.7,1,9.8,2.6,8.7,8.7
				c-1.1,6.7-7,10.7-15.8,10.7c-1.1,0-6.7-0.2-9.6-4.5c-1.4-1.8-1.9-4.8-1.8-9.4H0.2c-0.1,1-0.2,2.1-0.2,3
				C0,34.7,5.3,40.4,16.7,40.4L16.7,40.4L16.7,40.4z M95-5.2L69.9,39h5.7l24.9-44.2H95L95-5.2L95-5.2z M93.4,20.1l5.5-9.8l1.6,9.8
				H93.4L93.4,20.1L93.4,20.1z M107.9-5.2H102L77,39h5.7l4.2-7.2h15.2l1.3,7.2h5.3l-2.2-12.5H89.8l0.7-1.3h15.9l-3.8-21.6l1-1.8
				L110,39h5.4L107.9-5.2L107.9-5.2L107.9-5.2z M46.3,32.7h24.2l1-4.5H52.7l1.4-5.9h17.7l1-4.9H55.2l0.3-1.3H73l1-4.8H56.5l1.4-5.6
				h18.5l1-4.6h-24L46.3,32.7L46.3,32.7L46.3,32.7z M47.2-5.2L37.3,39H69l1.1-5H44.7l7.8-34.1h25.2l1.2-5.2H47.2L47.2-5.2L47.2-5.2z
				 M191.5,3.2c-1.6-2.5-4.4-3.8-8.5-3.8c-2.8,0-12.1,0.6-12.6,8.3c-0.4,5.7,6,7.4,10.2,8.5c1,0.3,1.8,0.5,2.7,0.7
				c3.7,1,9.8,2.6,8.8,8.7c-1.1,6.7-7,10.7-15.8,10.7c-1.1,0-6.7-0.2-9.6-4.5c-1.4-1.8-1.9-4.8-1.8-9.4h-5.5
				c-1.2,11.2,4,18.1,16.5,18.2c11.7,0.1,20.6-4.6,22.1-14.9c2.5-16.8-22.1-11.9-21.2-19.1c0.2-1.6,1.7-2.8,4.7-2.8
				c1.4,0,2.6,0.3,3.5,0.8c0.9,0.6,1.5,1.5,1.8,4.2l6.1,0V8.6C192.8,7.6,192.7,5.2,191.5,3.2L191.5,3.2L191.5,3.2z M184.3-6.4
				c-10.6,0-19.1,4.5-20.7,14c-2.9,17,20.8,11.7,19.7,18.5c-0.4,2.1-2.2,4-5.7,4c-1.3,0-2.7-0.4-3.8-1.1c-1-0.7-2.1-1.9-2-6.6h-5.8
				c-0.1,4.3,0.4,7.1,1.6,8.7c2.5,3.8,7.6,4,8.6,4c8.1,0,13.6-3.6,14.6-9.6c0.8-4.5-3.3-6-7.9-7.2c-0.9-0.2-1.6-0.5-2.6-0.7
				c-4-1-11.5-3-11.1-9.8c0.6-8.8,10.7-9.5,13.8-9.5c4.5,0,7.7,1.5,9.5,4.4c1.4,2.3,1.5,4.9,1.5,6.1v0.1l5.9,0
				C199.9-0.3,196.1-6.4,184.3-6.4L184.3-6.4z"/>
		</g>
	</g>
</g>
<g id="Capa_3">
	<path class="st2" d="M16.1,8.5c0,0-7.7,3.1-8,4.9c0,0-1.5,2.2,4.3,1.7c0,0,17.3-1.7,17.9,6.1c0,0,0.2,3.1-3.1,5.8
		c0,0-7.6,7.1-21,4.8c0,0-6.1-0.4-5.9-4c0,0,0.9-1.7,3.3,0c0,0,12.3,3.1,18.2-1.8c0,0,2.6-2.5,0.7-3.7c0,0-3.5-1.8-8.1-1.9
		c0,0-13.7,1.6-14.4-4c0,0-1.2-4.8,7.2-9.4c0,0,12.4-6,23.1-5.6c0,0,5.9-1.6,6.3,3.4c0,0-2.1,4.7-9.9,5.1c0,0-7.7,0.3-8.4-1.6
		C18.4,8.4,18.1,7.9,16.1,8.5L16.1,8.5z M25.6,7.7c0,0,2.2-0.3,1.7-1.9c0,0-2.7-1.3-5.1,0.8C22.1,6.6,21.1,8.3,25.6,7.7L25.6,7.7z
		 M51.6,18.7c0,0,0.7-3-7.7-2c0,0-12.5,2.2-12.3,10.8c0,0,1.3,6.8,8.5,3.6c0,0,4.7-2.5,5.9-3.3c0,0,0.4,5.5,6,4.9c0,0,3.7,0.3,7-4.2
		c0,0,3.4-4.3,4.1-4.1c0,0,1.8-0.2,0.6,1.7c0,0-2.6,4.2,1.1,5c0,0,4,1.4,6.3-2.2c0,0,3.6-5.5,5.7-5.5c0,0,0.8,0.3-0.5,2.2
		c0,0-2,5.5,3.6,5.9c0,0,5.5,0.5,6.4-1.9c0,0,1.1-2.3-1.8-0.8c0,0-3.9,2.3-2.4-1.2c0,0,5.9-7.7,0.2-9.8c0,0-3-1.4-5.2,0.2
		c0,0-3.3,3.5-4.7,3.7c0,0-1.2,0.2-1.4-2.3c0,0-1.2-3.8-5.9-1.5c0,0-3,2.6-8.6,9.3c0,0-5.1,5.2-3.8,0.1c0,0,3.7-5.8-0.2-7.1
		c0,0-2.2-1-5.6,2.4c0,0-6.8,6-8.5,6c0,0-2.1-0.3,0.9-4.2c0,0,3.3-4.4,8.9-4.8C48.2,19.7,51.6,19.7,51.6,18.7L51.6,18.7z M98,16.8
		c-1.3,3.6,1.4,0.8,1.4,0.8c6.5-3.4,6.5,3.5,6.5,3.5c1.3,1.7,3.8-0.4,3.8-0.4c1.3-0.8,2.8-2.4,2.8-2.4c4.2-3.8,6.9-0.9,6.9-0.9
		c0.6,1.7,2.2,0.4,2.2,0.4c5.4-1.6,4.3,2.5,4.3,2.5c-1.6,0.4-0.7,2.2-0.7,2.2c0.6,2.2,3.9-1.3,3.9-1.3c1.9-0.5,0.9-3.1,0.9-3.1
		c0.1-2.1,2.7-1.3,2.7-1.3c1.8,1.4,4.3,0.3,4.3,0.3c4.2-0.2,3.8,2,3.8,2c1.6,1.6,0,3.4,0,3.4c-2.9,2.7-3,5.8-3,5.8
		c0.2,3.5,7.2-4.7,7.2-4.7c5.4-7.6,10.1-6.4,10.1-6.4c4.3-0.1,3.1,6.4,3.1,6.4l5.3-4.9c1.9-2.6,4.6-1.8,4.6-1.8
		c5.9,1.5,1.5,8.7,1.5,8.7c-1.2,2.9,1.7,1.8,1.7,1.8c2-2.8,6.7-7.2,6.7-7.2c7.6-6.9,11.3-5.2,11.3-5.2c2.9,0.6,0.4,2.9,0.4,2.9
		c-1.5,2.1-0.4,5.9-0.4,5.9l10.6,0.1l-3.1,3.7l-8.9-0.1c-1.5,3.1-5.7,3.1-5.7,3.1c-5.1-0.5-5.6-4.7-5.6-4.7
		c-0.8-0.1-3.8,3.1-3.8,3.1c-2,2.6-7.9,0.6-7.9,0.6c-3.1-0.9-1.1-6-1.1-6c-0.9-0.8-5.7,4.6-5.7,4.6c-2.6,3.9-6,2.3-6,2.3
		c-4-1.2-1.6-6-1.6-6c1.5-2.4,1.1-3,1.1-3c-2.2,1.3-6.1,6.1-6.1,6.1c-8,7.8-13.2,1.8-13.2,1.8c-2.5-3.8,3.3-8.7,3.3-8.7
		c-1.3-0.9-2.4,0.1-2.4,0.1c-3.6,6.5-10.1,5.9-10.1,5.9c-1.8,3.2-6.1,4.5-6.1,4.5C106,34,108.6,25,108.6,25
		c-2.8,0.8-3.3-0.1-3.3-0.1c-0.2,0.7-2.2,1-2.2,1s-4.2,5.7-9,5.8c-4.8,0.1-6.2-2.7-5.5-7.5c0.7-4.7,7-14,7-14c-0.9,0.5-2-0.2-2-0.2
		C92.8,8.3,98.5,6,98.5,6c4.5-2,3,0.9,3,0.9L98,16.8L98,16.8z M94.7,23.5c-1.9,5.8,0.3,6.3,0.3,6.3c2.1-0.1,3.8-4,3.8-4
		c0.5-2.1-1.8-4.7-1.8-4.7C95.7,20.8,94.7,23.5,94.7,23.5L94.7,23.5z M115.3,22.7c-3.1,8.3,0.9,6.4,0.9,6.4c3.2-1.9,3.2-4.3,3.2-4.3
		c0.1-1.5-1.6-4-1.6-4C116.7,20,115.3,22.7,115.3,22.7L115.3,22.7z M183.5,19.3c0,0-3.7,1-3.8,4.2c0,0,1.8,0.9,3.3-0.3
		C183,23.2,183.6,20.2,183.5,19.3L183.5,19.3z"/>
</g>
</svg>
