<?xml version="1.0" encoding="utf-8"?>
<!-- Generator: Adobe Illustrator 21.0.0, SVG Export Plug-In . SVG Version: 6.00 Build 0)  -->
<svg version="1.1" xmlns="http://www.w3.org/2000/svg" xmlns:xlink="http://www.w3.org/1999/xlink" x="0px" y="0px"
	 viewBox="0 0 200 52" style="enable-background:new 0 0 200 52;" xml:space="preserve">
<style type="text/css">
	.st0{display:none;}
	.st1{display:inline;fill:#FCEE21;}
	.st2{display:inline;}
	.st3{fill-rule:evenodd;clip-rule:evenodd;fill:#808080;}
	.st4{fill:#808080;}
	.st5{display:inline;fill-rule:evenodd;clip-rule:evenodd;fill:#808080;}
	.st6{fill-rule:evenodd;clip-rule:evenodd;fill:#666666;}
	.st7{fill-rule:evenodd;clip-rule:evenodd;fill:#FFFFFF;}
	.st8{fill:none;stroke:#FFFFFF;stroke-width:0.216;stroke-miterlimit:2.6131;}
	.st9{fill:#FFFFFF;}
	.st10{fill:#303D7D;}
	.st11{fill:#666666;}
</style>
<g id="Capa_7" class="st0">
	<rect x="0" y="-74" class="st1" width="200" height="200"/>
</g>
<g id="Capa_1" class="st0">
	<g class="st2">
		<polygon class="st3" points="10.9,20.8 19.7,20.8 19.7,31.3 33.6,31.3 33.6,20.8 42.4,20.8 52.8,40 44.1,40 39.1,30.9 26.7,40 
			14.2,30.9 9.2,40 0.5,40 		"/>
		<polygon class="st3" points="52.9,20.8 52.9,12.1 0.5,12.1 0.5,20.8 9.2,20.8 10.1,19.1 21.4,19.1 21.4,29.6 31.9,29.6 31.9,19.1 
			43.2,19.1 44.1,20.8 		"/>
		<polygon class="st4" points="190.6,17.3 183.3,25.5 191.3,34.8 184.8,34.8 180.1,29.1 175,34.8 169.2,34.8 177.3,25.7 170.5,17.3 
			176.2,17.3 180.5,22.2 184.8,17.3 		"/>
		<polygon class="st4" points="155,23.6 165.9,23.6 165.9,27.1 155,27.1 155,31.3 167.9,31.3 167.9,34.8 150.3,34.8 150.3,17.3 
			167.9,17.3 167.9,20.8 155,20.8 		"/>
		<polygon class="st4" points="87,23.6 98,23.6 98,27.1 87,27.1 87,31.3 99.9,31.3 99.9,34.8 82.4,34.8 82.4,17.3 99.9,17.3 
			99.9,20.8 87,20.8 		"/>
		<polygon class="st4" points="122.8,17.3 130.9,17.3 134.9,27.4 138.9,17.3 147.2,17.3 147.2,34.8 142.4,34.8 142.4,20.9 
			136.5,34.8 133.1,34.8 127.4,20.8 127.4,34.8 122.8,34.8 		"/>
		<polygon class="st4" points="61.6,17.3 80.1,17.3 80.1,20.8 73.1,20.8 73.1,34.8 68.5,34.8 68.5,20.8 61.6,20.8 		"/>
		<polygon class="st4" points="103.1,17.3 107.9,17.3 107.9,31.3 120.7,31.3 120.7,34.8 103.1,34.8 		"/>
		<path class="st3" d="M194.7,31h1.8c0.3,0,0.5,0,0.7,0.1c0.4,0.2,0.5,0.5,0.5,0.9c0,0.2,0,0.4-0.1,0.6c-0.1,0.1-0.2,0.3-0.4,0.4
			c0.1,0.1,0.3,0.1,0.3,0.2c0.1,0.1,0.1,0.3,0.1,0.5l0,0.5c0,0.1,0,0.3,0,0.3c0,0.1,0.1,0.2,0.2,0.2v0.1h-0.6c0,0,0-0.1,0-0.1
			c0-0.1,0-0.2,0-0.3l0-0.6c0-0.3-0.1-0.4-0.3-0.5c-0.1,0-0.3-0.1-0.5-0.1h-1.2v1.7h-0.5V31 M196.4,32.8c0.2,0,0.4-0.1,0.6-0.1
			c0.1-0.1,0.2-0.3,0.2-0.5c0-0.3-0.1-0.5-0.3-0.6c-0.1-0.1-0.2-0.1-0.4-0.1h-1.3v1.3H196.4 M196,30c-1.7,0-3.1,1.4-3.1,3.1
			c0,1.7,1.4,3.1,3.1,3.1s3.1-1.4,3.1-3.1C199.1,31.4,197.7,30,196,30 M196,29.6c1.9,0,3.5,1.6,3.5,3.5c0,1.9-1.6,3.5-3.5,3.5
			c-1.9,0-3.5-1.6-3.5-3.5C192.6,31.1,194.1,29.6,196,29.6z"/>
	</g>
</g>
<g id="Capa_2" class="st0">
	<g class="st2">
		<g>
			<path class="st3" d="M150.9,36.6C150.9,36.5,150.9,36.5,150.9,36.6L150.9,36.6L150.9,36.6L150.9,36.6z M150.9,36.6L150.9,36.6
				C150.9,36.6,150.9,36.6,150.9,36.6L150.9,36.6L150.9,36.6L150.9,36.6z M144.4,29.2L144.4,29.2c0.1,0,0.1,0,0.1,0
				C144.5,29.2,144.5,29.2,144.4,29.2L144.4,29.2L144.4,29.2L144.4,29.2z M136.3,14.8h7.4c3.5,0,4.6,1.9,4.6,3.5
				c0,2.4-2.1,4.5-6.6,4.5h-7L136.3,14.8L136.3,14.8L136.3,14.8z M149.6,37.1l0.1-0.7c0.4-2.6-0.5-4.2-1.2-5.2c-1-1.2-2.5-2-4-2
				c0,0-0.1,0-0.1,0h-11.2l0.3-1.3c0,0,10.9,0,11,0c0,0,0,0,0,0c3.9-0.1,6.4-1.9,7.8-3.5c1.8-2,2.9-4.7,2.9-7.3c0-2-0.7-3.8-1.9-5.1
				c-1.3-1.4-3.3-2.2-5.8-2.2h-16L123.2,48h5.7l3.1-13.8h7.4c1.1,0,4.9-0.5,3.8,4.1c-0.3,1.6-1,5.7,0,9.7c0.8,0,3.7,0,6.6,0
				C148.6,44.6,149,40.6,149.6,37.1L149.6,37.1L149.6,37.1z M162,15.9c0-8.3-5.3-12.1-14.5-12.1c-10.5,0-21.7,0-21.7,0L116.1,48h5.9
				l8.5-39.4h17c2.8,0,5.1,0.9,6.7,2.6c1.4,1.5,2.2,3.6,2.2,6c0,2.9-1.2,5.9-3.2,8.1c-1.2,1.3-3,2.7-5.7,3.4c0.7,0.4,1.4,1,1.9,1.6
				c0.9,1.2,2,3.2,1.5,6.2l0-0.1c0,0,0,0,0,0.1v0c0,0,0,0,0,0c0,0.1,0,0.3-0.1,0.7c-0.5,3.5-1,7.5,0.3,10.7c2.9,0,5.5,0,5.5,0
				c-0.3-1-1-2.3-0.2-5.6c0.9-3.7,2.2-10.9-2.5-13.4C155.2,28.5,162,25.5,162,15.9L162,15.9L162,15.9z M17.1,44
				c8.1,0,13.6-3.6,14.6-9.6c0.7-4.5-3.3-6-7.9-7.2c-0.9-0.2-1.6-0.5-2.6-0.7c-4-1-11.6-3-11.1-9.8c0.6-8.8,10.7-9.5,13.8-9.5
				c4.5,0,7.7,1.5,9.5,4.4c1.4,2.3,1.5,4.9,1.6,6.1v0.1l5.9,0c0-9-3.9-15.1-15.7-15.1C14.5,2.6,6,7,4.4,16.5
				C1.6,33.5,25.3,28.2,24.2,35c-0.3,2.1-2.2,4-5.7,4c-1.4,0-2.8-0.4-3.8-1.1c-1.1-0.7-2.1-1.9-2-6.6H6.9c-0.1,4.4,0.3,7,1.5,8.7
				C11,43.8,16.1,44,17.1,44L17.1,44L17.1,44z M16.7,49.4c11.7,0.1,20.5-4.6,22.1-14.9c2.5-16.8-22.1-11.9-21.2-19.1
				c0.2-1.6,1.7-2.8,4.8-2.8c1.3,0,2.5,0.3,3.4,0.8c0.9,0.6,1.5,1.5,1.8,4.2l6.1,0v-0.1c-0.1-1-0.2-3.4-1.4-5.4
				c-1.5-2.5-4.4-3.8-8.4-3.8c-2.8,0-12.1,0.6-12.6,8.3c-0.4,5.7,5.9,7.4,10.2,8.5c1,0.3,1.8,0.5,2.7,0.7c3.7,1,9.8,2.6,8.7,8.7
				c-1.1,6.7-7,10.7-15.8,10.7c-1.1,0-6.7-0.2-9.6-4.5c-1.4-1.8-1.9-4.8-1.8-9.4H0.2c-0.1,1-0.2,2.1-0.2,3
				C0,43.7,5.3,49.4,16.7,49.4L16.7,49.4L16.7,49.4z M95,3.8L69.9,48h5.7l24.9-44.2H95L95,3.8L95,3.8z M93.4,29.1l5.5-9.8l1.6,9.8
				H93.4L93.4,29.1L93.4,29.1z M107.9,3.8H102L77,48h5.7l4.2-7.2h15.2l1.3,7.2h5.3l-2.2-12.5H89.8l0.7-1.3h15.9l-3.8-21.6l1-1.8
				L110,48h5.4L107.9,3.8L107.9,3.8L107.9,3.8z M46.3,41.7h24.2l1-4.5H52.7l1.4-5.9h17.7l1-4.9H55.2l0.3-1.3H73l1-4.8H56.5l1.4-5.6
				h18.5l1-4.6h-24L46.3,41.7L46.3,41.7L46.3,41.7z M47.2,3.8L37.3,48H69l1.1-5H44.7l7.8-34.1h25.2l1.2-5.2H47.2L47.2,3.8L47.2,3.8z
				 M191.5,12.2c-1.6-2.5-4.4-3.8-8.5-3.8c-2.8,0-12.1,0.6-12.6,8.3c-0.4,5.7,6,7.4,10.2,8.5c1,0.3,1.8,0.5,2.7,0.7
				c3.7,1,9.8,2.6,8.8,8.7c-1.1,6.7-7,10.7-15.8,10.7c-1.1,0-6.7-0.2-9.6-4.5c-1.4-1.8-1.9-4.8-1.8-9.4h-5.5
				c-1.2,11.2,4,18.1,16.5,18.2c11.7,0.1,20.6-4.6,22.1-14.9c2.5-16.8-22.1-11.9-21.2-19.1c0.2-1.6,1.7-2.8,4.7-2.8
				c1.4,0,2.6,0.3,3.5,0.8c0.9,0.6,1.5,1.5,1.8,4.2l6.1,0v-0.1C192.8,16.6,192.7,14.2,191.5,12.2L191.5,12.2L191.5,12.2z M184.3,2.6
				c-10.6,0-19.1,4.5-20.7,14c-2.9,17,20.8,11.7,19.7,18.5c-0.4,2.1-2.2,4-5.7,4c-1.3,0-2.7-0.4-3.8-1.1c-1-0.7-2.1-1.9-2-6.6h-5.8
				c-0.1,4.3,0.4,7.1,1.6,8.7c2.5,3.8,7.6,4,8.6,4c8.1,0,13.6-3.6,14.6-9.6c0.8-4.5-3.3-6-7.9-7.2c-0.9-0.2-1.6-0.5-2.6-0.7
				c-4-1-11.5-3-11.1-9.8c0.6-8.8,10.7-9.5,13.8-9.5c4.5,0,7.7,1.5,9.5,4.4c1.4,2.3,1.5,4.9,1.5,6.1v0.1l5.9,0
				C199.9,8.7,196.1,2.6,184.3,2.6L184.3,2.6z"/>
		</g>
	</g>
</g>
<g id="Capa_3" class="st0">
	<path class="st5" d="M16.1,17.5c0,0-7.7,3.1-8,4.9c0,0-1.5,2.2,4.3,1.7c0,0,17.3-1.7,17.9,6.1c0,0,0.2,3.1-3.1,5.8
		c0,0-7.6,7.1-21,4.8c0,0-6.1-0.4-5.9-4c0,0,0.9-1.7,3.3,0c0,0,12.3,3.1,18.2-1.8c0,0,2.6-2.5,0.7-3.7c0,0-3.5-1.8-8.1-1.9
		c0,0-13.7,1.6-14.4-4c0,0-1.2-4.8,7.2-9.4c0,0,12.4-6,23.1-5.6c0,0,5.9-1.6,6.3,3.4c0,0-2.1,4.7-9.9,5.1c0,0-7.7,0.3-8.4-1.6
		C18.4,17.4,18.1,16.9,16.1,17.5L16.1,17.5z M25.6,16.7c0,0,2.2-0.3,1.7-1.9c0,0-2.7-1.3-5.1,0.8C22.1,15.6,21.1,17.3,25.6,16.7
		L25.6,16.7z M51.6,27.7c0,0,0.7-3-7.7-2c0,0-12.5,2.2-12.3,10.8c0,0,1.3,6.8,8.5,3.6c0,0,4.7-2.5,5.9-3.3c0,0,0.4,5.5,6,4.9
		c0,0,3.7,0.3,7-4.2c0,0,3.4-4.3,4.1-4.1c0,0,1.8-0.2,0.6,1.7c0,0-2.6,4.2,1.1,5c0,0,4,1.4,6.3-2.2c0,0,3.6-5.5,5.7-5.5
		c0,0,0.8,0.3-0.5,2.2c0,0-2,5.5,3.6,5.9c0,0,5.5,0.5,6.4-1.9c0,0,1.1-2.3-1.8-0.8c0,0-3.9,2.3-2.4-1.2c0,0,5.9-7.7,0.2-9.8
		c0,0-3-1.4-5.2,0.2c0,0-3.3,3.5-4.7,3.7c0,0-1.2,0.2-1.4-2.3c0,0-1.2-3.8-5.9-1.5c0,0-3,2.6-8.6,9.3c0,0-5.1,5.2-3.8,0.1
		c0,0,3.7-5.8-0.2-7.1c0,0-2.2-1-5.6,2.4c0,0-6.8,6-8.5,6c0,0-2.1-0.3,0.9-4.2c0,0,3.3-4.4,8.9-4.8C48.2,28.7,51.6,28.7,51.6,27.7
		L51.6,27.7z M98,25.8c-1.3,3.6,1.4,0.8,1.4,0.8c6.5-3.4,6.5,3.5,6.5,3.5c1.3,1.7,3.8-0.4,3.8-0.4c1.3-0.8,2.8-2.4,2.8-2.4
		c4.2-3.8,6.9-0.9,6.9-0.9c0.6,1.7,2.2,0.4,2.2,0.4c5.4-1.6,4.3,2.5,4.3,2.5c-1.6,0.4-0.7,2.2-0.7,2.2c0.6,2.2,3.9-1.3,3.9-1.3
		c1.9-0.5,0.9-3.1,0.9-3.1c0.1-2.1,2.7-1.3,2.7-1.3c1.8,1.4,4.3,0.3,4.3,0.3c4.2-0.2,3.8,2,3.8,2c1.6,1.6,0,3.4,0,3.4
		c-2.9,2.7-3,5.8-3,5.8c0.2,3.5,7.2-4.7,7.2-4.7c5.4-7.6,10.1-6.4,10.1-6.4c4.3-0.1,3.1,6.4,3.1,6.4l5.3-4.9
		c1.9-2.6,4.6-1.8,4.6-1.8c5.9,1.5,1.5,8.7,1.5,8.7c-1.2,2.9,1.7,1.8,1.7,1.8c2-2.8,6.7-7.2,6.7-7.2c7.6-6.9,11.3-5.2,11.3-5.2
		c2.9,0.6,0.4,2.9,0.4,2.9c-1.5,2.1-0.4,5.9-0.4,5.9l10.6,0.1l-3.1,3.7l-8.9-0.1c-1.5,3.1-5.7,3.1-5.7,3.1c-5.1-0.5-5.6-4.7-5.6-4.7
		c-0.8-0.1-3.8,3.1-3.8,3.1c-2,2.6-7.9,0.6-7.9,0.6c-3.1-0.9-1.1-6-1.1-6c-0.9-0.8-5.7,4.6-5.7,4.6c-2.6,3.9-6,2.3-6,2.3
		c-4-1.2-1.6-6-1.6-6c1.5-2.4,1.1-3,1.1-3c-2.2,1.3-6.1,6.1-6.1,6.1c-8,7.8-13.2,1.8-13.2,1.8c-2.5-3.8,3.3-8.7,3.3-8.7
		c-1.3-0.9-2.4,0.1-2.4,0.1c-3.6,6.5-10.1,5.9-10.1,5.9c-1.8,3.2-6.1,4.5-6.1,4.5C106,43,108.6,34,108.6,34
		c-2.8,0.8-3.3-0.1-3.3-0.1c-0.2,0.7-2.2,1-2.2,1s-4.2,5.7-9,5.8c-4.8,0.1-6.2-2.7-5.5-7.5c0.7-4.7,7-14,7-14c-0.9,0.5-2-0.2-2-0.2
		c-0.8-1.8,4.8-4.1,4.8-4.1c4.5-2,3,0.9,3,0.9L98,25.8L98,25.8z M94.7,32.5c-1.9,5.8,0.3,6.3,0.3,6.3c2.1-0.1,3.8-4,3.8-4
		c0.5-2.1-1.8-4.7-1.8-4.7C95.7,29.8,94.7,32.5,94.7,32.5L94.7,32.5z M115.3,31.7c-3.1,8.3,0.9,6.4,0.9,6.4c3.2-1.9,3.2-4.3,3.2-4.3
		c0.1-1.5-1.6-4-1.6-4C116.7,29,115.3,31.7,115.3,31.7L115.3,31.7z M183.5,28.3c0,0-3.7,1-3.8,4.2c0,0,1.8,0.9,3.3-0.3
		C183,32.2,183.6,29.2,183.5,28.3L183.5,28.3z"/>
</g>
<g id="Capa_4" class="st0">
	<g class="st2">
		<path class="st3" d="M26.5,14.8c-3.1,0-5.8,1.1-8,3.3c-2.2,2.2-3.3,4.9-3.3,8c0,3.2,1.1,5.8,3.3,8c2.2,2.3,4.9,3.4,8,3.4
			c3.1,0,5.8-1.1,8-3.4c2.2-2.2,3.3-4.8,3.3-8c0-3.1-1.1-5.8-3.3-8C32.3,15.9,29.6,14.8,26.5,14.8L26.5,14.8z"/>
		<path class="st3" d="M26.5,12.8V-0.1c-4.6,0-8.9,1.2-12.8,3.4v19.5c0.7-2.9,2.3-5.3,4.6-7.1C20.8,13.8,23.5,12.8,26.5,12.8
			L26.5,12.8z"/>
		<path class="st3" d="M23.8,39.1c-3-0.7-5.4-2.3-7.2-4.7c-2-2.4-2.9-5.1-2.9-8.2H0.5c0,4.6,1.2,8.9,3.5,12.8H23.8L23.8,39.1z"/>
		<path class="st3" d="M39.5,29.4c-0.7,2.9-2.2,5.3-4.6,7.2c-2.4,1.9-5.2,2.9-8.3,2.9v12.6c4.6,0,8.9-1.1,12.8-3.4V29.4L39.5,29.4z"
			/>
		<path class="st3" d="M52.6,25.9c0-4.6-1.2-8.9-3.5-12.8H29.8c3,0.7,5.4,2.3,7.2,4.6c2,2.5,2.9,5.2,2.9,8.3H52.6L52.6,25.9z"/>
		<polygon class="st3" points="58.6,13.8 58.6,28.9 63.1,28.9 63.1,13.8 58.6,13.8 		"/>
		<polygon class="st3" points="87.1,13.8 82.4,13.8 82.4,24.7 82.4,24.7 73.6,13.8 66.4,13.8 66.4,28.9 71.1,28.9 71.1,17.8 
			71.1,17.8 79.8,28.9 87.1,28.9 87.1,13.8 		"/>
		<path class="st3" d="M94.8,19.7v-2.4h8.3c0.9,0,1.4,0.4,1.4,1.2c0,0.8-0.5,1.2-1.4,1.2H94.8L94.8,19.7z M94.8,22.8h8.4
			c1.1,0,1.7,0.5,1.7,1.3c0,0.8-0.6,1.1-1.7,1.1h-8.4V22.8L94.8,22.8z M106.8,21.2L106.8,21.2c0.8-0.3,1.3-0.6,1.6-1
			c0.5-0.5,0.7-1.4,0.7-2.6c0-1.4-0.5-2.4-1.4-3.1c-0.9-0.6-2.3-0.8-4.2-0.8H90.1v15.1H105c1.5,0,2.6-0.2,3.3-0.7
			c0.8-0.7,1.3-1.8,1.3-3.3c0-1.2-0.2-2.1-0.6-2.6C108.5,21.7,107.8,21.3,106.8,21.2L106.8,21.2z"/>
		<path class="st3" d="M131.4,13.8h-4.6v8.8c0,0.9-0.3,1.6-0.6,2c-0.4,0.5-1.2,0.7-2.1,0.7h-4.6c-1,0-1.6-0.2-2.1-0.7
			c-0.4-0.4-0.5-1.1-0.5-2v-8.8h-4.7v9.7c0,1.9,0.5,3.3,1.5,4.2c1,1,2.6,1.4,4.7,1.4h6.8c2.1,0,3.7-0.4,4.7-1.4
			c1-0.9,1.5-2.3,1.5-4.2V13.8L131.4,13.8z"/>
		<path class="st3" d="M139,21.1v-3.7c2.5,0,4.9,0,7.4,0c1.2,0,2.1,0.2,2.1,1.6c0,0.2,0,0.3,0,0.5c0,1.1-0.6,1.6-1.7,1.6H139
			L139,21.1z M139,25h7.4c0.7,0,1.2,0.1,1.5,0.4c0.3,0.3,0.4,0.9,0.4,1.7v1.8h4.7v-2.6c0-1.1-0.2-2-0.7-2.5c-0.4-0.4-1-0.7-1.8-0.9
			c1-0.2,1.7-0.7,2.1-1.3c0.3-0.6,0.5-1.4,0.5-2.5v-0.9c0-1.5-0.3-2.6-0.9-3.3c-0.8-0.9-2-1.2-3.7-1.2h-14.1v15.1h4.7V25L139,25z"/>
		<path class="st3" d="M166,19.4l-4.7-0.2c-0.3,0-0.6-0.2-0.7-0.4c-0.1-0.1-0.2-0.4-0.2-0.7c0-0.8,0.6-1.2,1.8-1.2h5.2
			c1,0,1.7,0.1,2,0.3c0.2,0.2,0.3,0.6,0.3,1.3h4.7V18c0-1.6-0.3-2.7-1-3.3c-0.8-0.9-2.5-1.3-4.9-1.3h-6.6c-2.7,0-4.5,0.5-5.3,1.4
			c-0.6,0.7-0.9,1.9-0.9,3.5c0,1.1,0.1,1.8,0.3,2.4c0.1,0.6,0.5,1,1,1.4c1,0.6,3.1,0.9,6.6,0.9l5.6,0.2c0.4,0,0.7,0.2,0.8,0.4
			l0.2,0.8c0,0.5-0.2,0.9-0.6,1.1l-1.4,0.2h-5.8l-1.5-0.3c-0.3-0.2-0.5-0.7-0.5-1.5h-4.7V25c0,1.6,0.5,2.7,1.4,3.3
			c0.8,0.5,2.4,0.8,4.6,0.8h5.7c3.1,0,5.2-0.3,6.1-0.9c0.6-0.3,1-0.8,1.2-1.4c0.2-0.6,0.3-1.5,0.3-2.5c0-1.2-0.1-2-0.4-2.6
			c-0.2-0.7-0.7-1.2-1.3-1.5C172.1,19.6,169.7,19.4,166,19.4L166,19.4z"/>
		<polygon class="st3" points="190.4,13.8 184.4,13.8 176.1,28.9 181.4,28.9 182.7,26.2 184.5,22.9 187.4,17.2 190.4,22.9 
			184.5,22.9 182.7,26.2 192.2,26.2 193.6,28.9 198.8,28.9 190.4,13.8 		"/>
		<path class="st3" d="M96.7,40.8v-1.2l4.3,0v3.8c-0.7,0.5-1.3,0.9-2,1.2c-0.7,0.3-1.4,0.4-2.2,0.4c-1,0-1.9-0.2-2.7-0.6
			c-0.8-0.4-1.4-1-1.8-1.8c-0.4-0.8-0.6-1.7-0.6-2.7c0-1,0.2-1.9,0.6-2.8c0.4-0.9,1-1.5,1.8-1.9c0.8-0.4,1.7-0.6,2.7-0.6
			c0.7,0,1.4,0.1,2,0.4c0.6,0.2,1.1,0.6,1.4,1c0.3,0.4,0.6,1,0.8,1.7l-1.2,0.3c-0.2-0.5-0.3-0.9-0.6-1.2c-0.2-0.3-0.5-0.5-1-0.7
			c-0.4-0.2-0.9-0.3-1.4-0.3c-0.6,0-1.1,0.1-1.6,0.3c-0.4,0.2-0.8,0.4-1.1,0.7c-0.3,0.3-0.5,0.6-0.6,1c-0.3,0.6-0.4,1.3-0.4,2
			c0,0.9,0.2,1.7,0.5,2.3c0.3,0.6,0.8,1.1,1.4,1.4c0.6,0.3,1.2,0.4,1.9,0.4c0.6,0,1.1-0.1,1.7-0.3c0.6-0.2,1-0.5,1.3-0.7v-1.9H96.7
			L96.7,40.8z"/>
		<path class="st3" d="M102.8,44.8v-7.3h1.1v1.1c0.3-0.5,0.5-0.9,0.8-1c0.2-0.2,0.5-0.2,0.8-0.2c0.4,0,0.8,0.1,1.3,0.4l-0.4,1.2
			c-0.3-0.2-0.6-0.3-0.9-0.3c-0.3,0-0.5,0.1-0.7,0.2c-0.2,0.2-0.4,0.4-0.5,0.7c-0.1,0.4-0.2,0.9-0.2,1.4v3.8H102.8L102.8,44.8z"/>
		<path class="st3" d="M112.3,44.8v-1.1c-0.6,0.8-1.3,1.2-2.3,1.2c-0.4,0-0.8-0.1-1.2-0.2c-0.4-0.2-0.7-0.4-0.8-0.6
			c-0.2-0.3-0.3-0.6-0.4-0.9c0-0.2-0.1-0.6-0.1-1.2v-4.5h1.2v4.1c0,0.7,0,1.1,0.1,1.3c0.1,0.3,0.2,0.6,0.5,0.8
			c0.3,0.2,0.6,0.3,0.9,0.3c0.4,0,0.7-0.1,1-0.3c0.3-0.2,0.6-0.5,0.7-0.8c0.1-0.3,0.2-0.8,0.2-1.4v-3.9h1.2v7.3H112.3L112.3,44.8z"
			/>
		<path class="st3" d="M115.4,47.6V37.4h1.1v1c0.3-0.4,0.6-0.7,0.9-0.8c0.3-0.2,0.7-0.3,1.2-0.3c0.6,0,1.2,0.2,1.7,0.5
			c0.5,0.3,0.8,0.8,1.1,1.4c0.2,0.6,0.4,1.2,0.4,1.9c0,0.7-0.1,1.4-0.4,2c-0.3,0.6-0.7,1.1-1.2,1.4c-0.5,0.3-1.1,0.5-1.6,0.5
			c-0.4,0-0.8-0.1-1.1-0.3c-0.3-0.2-0.6-0.4-0.8-0.7v3.6H115.4L115.4,47.6z M116.5,41.2c0,0.9,0.2,1.6,0.6,2.1
			c0.4,0.5,0.8,0.7,1.4,0.7c0.6,0,1-0.2,1.4-0.7c0.4-0.5,0.6-1.2,0.6-2.2c0-0.9-0.2-1.6-0.6-2.1c-0.4-0.5-0.8-0.7-1.4-0.7
			c-0.5,0-1,0.2-1.4,0.7C116.7,39.5,116.5,40.2,116.5,41.2L116.5,41.2z"/>
		<path class="st3" d="M122.8,41.1c0-1.4,0.4-2.4,1.1-3c0.6-0.5,1.4-0.8,2.3-0.8c1,0,1.8,0.3,2.5,1c0.6,0.7,1,1.6,1,2.7
			c0,0.9-0.1,1.7-0.4,2.2c-0.3,0.5-0.7,1-1.2,1.3c-0.5,0.3-1.1,0.4-1.8,0.4c-1,0-1.9-0.3-2.5-1C123.1,43.3,122.8,42.3,122.8,41.1
			L122.8,41.1z M124,41.1c0,0.9,0.2,1.6,0.6,2.1c0.4,0.5,0.9,0.7,1.5,0.7c0.6,0,1.1-0.2,1.5-0.7c0.4-0.5,0.6-1.2,0.6-2.1
			c0-0.9-0.2-1.6-0.6-2.1c-0.4-0.5-0.9-0.7-1.5-0.7c-0.6,0-1.1,0.2-1.5,0.7C124.2,39.5,124,40.2,124,41.1L124,41.1z"/>
		<polygon class="st3" points="135.2,44.8 135.2,34.7 142.1,34.7 142.1,35.9 136.6,35.9 136.6,39 141.3,39 141.3,40.2 136.6,40.2 
			136.6,44.8 135.2,44.8 		"/>
		<path class="st3" d="M143.6,36.1v-1.4h1.2v1.4H143.6L143.6,36.1z M143.6,44.8v-7.3h1.2v7.3H143.6L143.6,44.8z"/>
		<path class="st3" d="M146.8,44.8v-7.3h1.1v1c0.5-0.8,1.3-1.2,2.3-1.2c0.4,0,0.8,0.1,1.2,0.2c0.4,0.2,0.6,0.4,0.8,0.6
			c0.2,0.3,0.3,0.6,0.4,0.9c0,0.2,0.1,0.6,0.1,1.2v4.5h-1.2v-4.5c0-0.5,0-0.9-0.1-1.1c-0.1-0.2-0.3-0.4-0.5-0.6
			c-0.2-0.2-0.5-0.2-0.9-0.2c-0.5,0-1,0.2-1.4,0.5c-0.4,0.3-0.6,1-0.6,1.9v4H146.8L146.8,44.8z"/>
		<path class="st3" d="M159.4,43.9c-0.5,0.4-0.9,0.7-1.3,0.8c-0.4,0.2-0.9,0.2-1.4,0.2c-0.8,0-1.4-0.2-1.9-0.6
			c-0.4-0.4-0.6-0.9-0.6-1.5c0-0.4,0.1-0.7,0.2-1c0.2-0.3,0.4-0.5,0.6-0.7c0.3-0.2,0.6-0.3,0.9-0.4c0.2-0.1,0.6-0.1,1.1-0.2
			c1-0.1,1.7-0.3,2.2-0.4c0-0.2,0-0.3,0-0.3c0-0.5-0.1-0.9-0.4-1.1c-0.3-0.3-0.8-0.4-1.4-0.4c-0.6,0-1,0.1-1.3,0.3
			c-0.3,0.2-0.5,0.6-0.6,1.1l-1.2-0.2c0.1-0.5,0.3-0.9,0.5-1.3c0.3-0.3,0.6-0.6,1.1-0.7c0.5-0.2,1-0.3,1.7-0.3
			c0.6,0,1.1,0.1,1.5,0.2c0.4,0.1,0.7,0.3,0.9,0.6c0.2,0.2,0.3,0.5,0.4,0.8c0,0.2,0.1,0.6,0.1,1.1v1.7c0,1.2,0,1.9,0.1,2.2
			c0.1,0.3,0.2,0.6,0.3,0.9h-1.3C159.5,44.5,159.4,44.2,159.4,43.9L159.4,43.9z M159.3,41.1c-0.5,0.2-1.1,0.3-2,0.5
			c-0.5,0.1-0.9,0.2-1.1,0.2c-0.2,0.1-0.4,0.2-0.5,0.4c-0.1,0.2-0.2,0.4-0.2,0.6c0,0.3,0.1,0.6,0.4,0.8c0.2,0.2,0.6,0.3,1.1,0.3
			c0.5,0,0.9-0.1,1.3-0.3c0.4-0.2,0.6-0.5,0.8-0.9c0.1-0.3,0.2-0.7,0.2-1.2V41.1L159.3,41.1z"/>
		<path class="st3" d="M162.5,44.8v-7.3h1.1v1c0.5-0.8,1.3-1.2,2.3-1.2c0.4,0,0.8,0.1,1.2,0.2c0.4,0.2,0.6,0.4,0.8,0.6
			c0.2,0.3,0.3,0.6,0.4,0.9c0,0.2,0.1,0.6,0.1,1.2v4.5h-1.2v-4.5c0-0.5,0-0.9-0.1-1.1c-0.1-0.2-0.3-0.4-0.5-0.6
			c-0.2-0.2-0.5-0.2-0.9-0.2c-0.5,0-1,0.2-1.4,0.5c-0.4,0.3-0.6,1-0.6,1.9v4H162.5L162.5,44.8z"/>
		<path class="st3" d="M175.1,42.1l1.2,0.2c-0.1,0.8-0.5,1.5-1,2c-0.5,0.5-1.2,0.7-2,0.7c-1,0-1.8-0.3-2.4-1
			c-0.6-0.7-0.9-1.6-0.9-2.8c0-0.8,0.1-1.5,0.4-2.1c0.3-0.6,0.7-1,1.2-1.3c0.5-0.3,1.1-0.4,1.7-0.4c0.8,0,1.4,0.2,2,0.6
			c0.5,0.4,0.8,1,1,1.7l-1.2,0.2c-0.1-0.5-0.3-0.9-0.6-1.1c-0.3-0.2-0.6-0.4-1.1-0.4c-0.6,0-1.1,0.2-1.5,0.7
			c-0.4,0.4-0.6,1.2-0.6,2.1c0,1,0.2,1.7,0.6,2.1c0.4,0.4,0.9,0.7,1.5,0.7c0.5,0,0.9-0.2,1.2-0.4C174.8,43.2,175,42.7,175.1,42.1
			L175.1,42.1z"/>
		<path class="st3" d="M177.4,36.1v-1.4h1.2v1.4H177.4L177.4,36.1z M177.4,44.8v-7.3h1.2v7.3H177.4L177.4,44.8z"/>
		<path class="st3" d="M185.6,42.4l1.3,0.2c-0.2,0.8-0.6,1.3-1.1,1.7c-0.5,0.4-1.2,0.6-2.1,0.6c-1.1,0-1.9-0.3-2.5-1
			c-0.6-0.7-0.9-1.6-0.9-2.8c0-1.2,0.3-2.2,1-2.9c0.6-0.7,1.5-1,2.5-1c1,0,1.8,0.3,2.4,1c0.6,0.7,0.9,1.6,0.9,2.8c0,0.1,0,0.2,0,0.3
			h-5.5c0,0.8,0.3,1.4,0.7,1.8c0.4,0.4,0.9,0.6,1.5,0.6c0.5,0,0.8-0.1,1.2-0.4C185.1,43.3,185.4,42.9,185.6,42.4L185.6,42.4z
			 M181.5,40.4h4.1c-0.1-0.6-0.2-1.1-0.5-1.4c-0.4-0.5-0.9-0.7-1.5-0.7c-0.6,0-1.1,0.2-1.4,0.6C181.7,39.3,181.5,39.8,181.5,40.4
			L181.5,40.4z"/>
		<path class="st3" d="M188.4,44.8v-7.3h1.1v1.1c0.3-0.5,0.5-0.9,0.8-1c0.2-0.2,0.5-0.2,0.8-0.2c0.4,0,0.8,0.1,1.3,0.4l-0.4,1.2
			c-0.3-0.2-0.6-0.3-0.9-0.3c-0.3,0-0.5,0.1-0.7,0.2c-0.2,0.2-0.4,0.4-0.5,0.7c-0.1,0.4-0.2,0.9-0.2,1.4v3.8H188.4L188.4,44.8z"/>
		<path class="st3" d="M192.7,41.1c0-1.4,0.4-2.4,1.1-3c0.6-0.5,1.4-0.8,2.3-0.8c1,0,1.8,0.3,2.5,1c0.6,0.7,1,1.6,1,2.7
			c0,0.9-0.1,1.7-0.4,2.2c-0.3,0.5-0.7,1-1.2,1.3c-0.5,0.3-1.1,0.4-1.8,0.4c-1,0-1.9-0.3-2.5-1C193,43.3,192.7,42.3,192.7,41.1
			L192.7,41.1z M193.9,41.1c0,0.9,0.2,1.6,0.6,2.1c0.4,0.5,0.9,0.7,1.5,0.7c0.6,0,1.1-0.2,1.5-0.7c0.4-0.5,0.6-1.2,0.6-2.1
			c0-0.9-0.2-1.6-0.6-2.1c-0.4-0.5-0.9-0.7-1.5-0.7c-0.6,0-1.1,0.2-1.5,0.7C194.1,39.5,193.9,40.2,193.9,41.1L193.9,41.1z"/>
	</g>
</g>
<g id="Capa_5" class="st0">
	<g class="st2">
		<path class="st4" d="M130.8-6.4c-16,0-27.3,8.5-27.4,20.7c-0.1,9,8,14.1,14.2,17.1c6.3,3.1,8.4,5,8.4,7.8
			c-0.1,4.2-5.1,6.1-9.7,6.1c-6.5,0-9.9-0.9-15.2-3.3L99,41l-2.3,14c3.8,1.7,10.8,3.3,18.1,3.3c17,0,28.1-8.4,28.2-21.4
			c0.1-7.2-4.3-12.6-13.6-17c-5.6-2.9-9.1-4.8-9.1-7.8c0-2.6,2.9-5.4,9.3-5.4c5.3-0.1,9.1,1.1,12.1,2.4l1.4,0.7l2.2-13.6
			C142.1-5,137.1-6.4,130.8-6.4L130.8-6.4z M80.5-5.3L70.4,57.4h16.2L96.7-5.3L80.5-5.3L80.5-5.3z M56.8-5.2L41,37.5l-1.7-8.7
			C35.3,18.2,26.8,7,16.8,2.5l14.5,54.9l17.1,0L74-5.2L56.8-5.2L56.8-5.2z M174.4-5.2c-3.9,0-6.8,1.1-8.5,5.2l-24,57.5h17
			c0,0,2.8-7.7,3.4-9.4c1.9,0,18.4,0,20.7,0c0.5,2.2,2,9.4,2,9.4h15L186.9-5.2L174.4-5.2L174.4-5.2z M175.5,11.7l1.1,5.4
			c0,0,3.1,15,3.8,18.1h-13.4c1.3-3.6,6.5-17.5,6.5-17.5C173.3,17.8,174.7,14,175.5,11.7L175.5,11.7z"/>
		<path class="st4" d="M26.3-5.2H0.2L0-4.2c20.3,5.2,33.7,17.9,39.3,33L33.6,0C32.6-3.9,29.8-5.1,26.3-5.2"/>
	</g>
</g>
<g id="Capa_6" class="st0">
	<g class="st2">
		<polygon class="st3" points="139.4,84.9 142.4,84.8 145.4,84.6 148.3,84.2 151.3,83.7 154.1,83 156.9,82.2 159.6,81.3 162.3,80.2 
			164.9,79 167.5,77.7 169.9,76.3 172.3,74.8 174.6,73.1 176.9,71.4 179,69.5 181.1,67.6 183,65.5 184.9,63.4 186.6,61.2 
			188.3,58.9 189.8,56.5 191.2,54 192.5,51.5 193.7,48.8 194.8,46.2 195.7,43.4 196.5,40.6 197.1,37.8 197.7,34.9 198,31.9 
			198.3,28.9 198.3,25.9 198.3,22.9 198,19.9 197.7,17 197.1,14.1 196.5,11.2 195.7,8.5 194.8,5.7 193.7,3.1 192.5,0.5 191.2,-2.1 
			189.8,-4.5 188.3,-6.9 186.6,-9.2 184.9,-11.4 183,-13.6 181.1,-15.6 179,-17.6 176.9,-19.4 174.6,-21.2 172.3,-22.8 169.9,-24.3 
			167.5,-25.7 164.9,-27 162.3,-28.2 159.6,-29.3 156.9,-30.2 154.1,-31 151.3,-31.7 148.3,-32.2 145.4,-32.6 142.4,-32.8 
			139.4,-32.9 136.4,-32.8 133.4,-32.6 130.4,-32.2 127.5,-31.7 124.7,-31 121.9,-30.2 119.2,-29.3 116.5,-28.2 113.9,-27 
			111.4,-25.7 108.9,-24.3 106.5,-22.8 104.2,-21.2 102,-19.4 99.9,-17.6 97.8,-15.6 95.9,-13.6 94,-11.4 92.3,-9.2 90.6,-6.9 
			89.1,-4.5 87.7,-2.1 86.4,0.5 85.2,3.1 84.2,5.7 83.3,8.5 82.5,11.2 81.8,14.1 81.3,17 80.9,19.9 80.7,22.9 80.6,25.9 80.7,28.9 
			80.9,31.9 81.3,34.9 81.8,37.8 82.5,40.6 83.3,43.4 84.2,46.2 85.2,48.8 86.4,51.5 87.7,54 89.1,56.5 90.6,58.9 92.3,61.2 
			94,63.4 95.9,65.5 97.8,67.6 99.9,69.5 102,71.4 104.2,73.1 106.5,74.8 108.9,76.3 111.4,77.7 113.9,79 116.5,80.2 119.2,81.3 
			121.9,82.2 124.7,83 127.5,83.7 130.4,84.2 133.4,84.6 136.4,84.8 139.4,84.9 139.4,84.9 		"/>
		<polygon class="st6" points="60.6,84.9 63.6,84.8 66.6,84.6 69.6,84.2 72.5,83.7 75.3,83 78.1,82.2 80.8,81.3 83.5,80.2 86.1,79 
			88.6,77.7 91.1,76.3 93.5,74.8 95.8,73.1 98,71.4 100.1,69.5 102.2,67.6 104.1,65.5 106,63.4 107.7,61.2 109.4,58.9 110.9,56.5 
			112.3,54 113.6,51.5 114.8,48.8 115.8,46.2 116.7,43.4 117.5,40.6 118.2,37.8 118.7,34.9 119.1,31.9 119.3,28.9 119.4,25.9 
			119.3,22.9 119.1,19.9 118.7,17 118.2,14.1 117.5,11.2 116.7,8.5 115.8,5.7 114.8,3.1 113.6,0.5 112.3,-2.1 110.9,-4.5 
			109.4,-6.9 107.7,-9.2 106,-11.4 104.1,-13.6 102.2,-15.6 100.1,-17.6 98,-19.4 95.8,-21.2 93.5,-22.8 91.1,-24.3 88.6,-25.7 
			86.1,-27 83.5,-28.2 80.8,-29.3 78.1,-30.2 75.3,-31 72.5,-31.7 69.6,-32.2 66.6,-32.6 63.6,-32.8 60.6,-32.9 57.6,-32.8 
			54.6,-32.6 51.7,-32.2 48.7,-31.7 45.9,-31 43.1,-30.2 40.4,-29.3 37.7,-28.2 35.1,-27 32.5,-25.7 30.1,-24.3 27.7,-22.8 
			25.4,-21.2 23.1,-19.4 21,-17.6 18.9,-15.6 17,-13.6 15.1,-11.4 13.4,-9.2 11.7,-6.9 10.2,-4.5 8.8,-2.1 7.5,0.5 6.3,3.1 5.2,5.7 
			4.3,8.5 3.5,11.2 2.9,14.1 2.3,17 2,19.9 1.7,22.9 1.7,25.9 1.7,28.9 2,31.9 2.3,34.9 2.9,37.8 3.5,40.6 4.3,43.4 5.2,46.2 
			6.3,48.8 7.5,51.5 8.8,54 10.2,56.5 11.7,58.9 13.4,61.2 15.1,63.4 17,65.5 18.9,67.6 21,69.5 23.1,71.4 25.4,73.1 27.7,74.8 
			30.1,76.3 32.5,77.7 35.1,79 37.7,80.2 40.4,81.3 43.1,82.2 45.9,83 48.7,83.7 51.7,84.2 54.6,84.6 57.6,84.8 60.6,84.9 
			60.6,84.9 		"/>
		<polygon class="st3" points="93.1,-10.3 124.4,-10.3 124.4,-13.5 95.8,-13.5 93.1,-10.3 93.1,-10.3 		"/>
		<polygon class="st3" points="88.4,-3.2 124.4,-3.2 124.4,-6.4 90.3,-6.4 88.4,-3.2 88.4,-3.2 		"/>
		<polygon class="st3" points="84.9,3.9 124.4,3.9 124.4,0.7 86.3,0.7 84.9,3.9 84.9,3.9 		"/>
		<polygon class="st3" points="82.5,11 124.4,11 124.4,7.8 83.5,7.8 82.5,11 82.5,11 		"/>
		<polygon class="st3" points="83.9,45.4 124.5,45.4 124.5,42.2 82.9,42.2 83.9,45.4 83.9,45.4 		"/>
		<polygon class="st3" points="86.9,52.5 124.5,52.5 124.5,49.3 85.4,49.3 86.9,52.5 86.9,52.5 		"/>
		<polygon class="st3" points="91.1,59.6 124.5,59.6 124.5,56.4 89.1,56.4 91.1,59.6 91.1,59.6 		"/>
		<polygon class="st3" points="96.9,66.7 124.5,66.7 124.5,63.5 94.1,63.5 96.9,66.7 96.9,66.7 		"/>
		<polygon class="st3" points="81.1,18.1 124.4,18.1 124.4,14.9 81.7,14.9 81.1,18.1 81.1,18.1 		"/>
		<polygon class="st3" points="107.5,38.3 124,38.3 124,35.1 108.1,35.1 107.5,38.3 107.5,38.3 		"/>
		<polygon class="st3" points="108.8,31.2 124,31.2 124,28 109.4,28 108.8,31.2 108.8,31.2 		"/>
		<polygon class="st3" points="80,28 84.3,28 84.3,31.2 80.2,31.2 80,28 80,28 		"/>
		<polygon class="st7" points="72,24.1 71.7,24.1 71.5,24 71.2,24 71,24 70.7,23.9 70.5,23.9 70.2,23.8 69.9,23.8 69.6,23.8 
			69.3,23.7 69,23.7 68.6,23.7 68.2,23.7 67.7,23.7 67.2,23.8 66.6,23.8 66.2,23.9 65.9,23.9 65.5,24 65.2,24.2 64.9,24.3 
			64.7,24.5 64.5,24.7 64.3,24.8 64.2,25.1 64.1,25.3 64,25.5 64,25.8 64.1,26 64.2,26.3 64.3,26.5 64.5,26.8 64.9,27.2 65.4,27.5 
			66,27.7 66.6,27.9 67.2,28.1 67.9,28.4 68.5,28.6 69.1,28.8 69.7,29.2 70.3,29.6 70.8,30.1 71.2,30.7 71.5,31.5 71.7,32.4 
			71.8,33.4 71.7,34.7 71.6,35.6 71.4,36.4 71,37.2 70.6,37.8 70.2,38.4 69.7,38.9 69.1,39.4 68.5,39.7 67.9,40 67.2,40.3 
			66.5,40.5 65.8,40.6 65.2,40.8 64.5,40.8 63.8,40.9 63.2,40.9 62.4,40.9 61.6,40.9 60.9,40.9 60.2,40.8 59.6,40.8 59.1,40.8 
			58.6,40.7 58.2,40.7 57.8,40.6 57.4,40.6 57,40.5 56.7,40.4 56.3,40.3 56,40.2 55.7,40.1 55.3,40 56.2,35.6 56.4,35.6 56.6,35.7 
			56.9,35.8 57.3,35.8 57.6,35.9 58,36 58.4,36.1 58.9,36.2 59.4,36.3 59.9,36.3 60.5,36.4 61,36.5 61.6,36.5 62.2,36.5 62.8,36.5 
			63.3,36.5 63.9,36.4 64.4,36.2 64.7,36 65,35.7 65.2,35.4 65.4,35.1 65.5,34.8 65.5,34.5 65.6,33.9 65.4,33.4 65.1,33 64.6,32.7 
			64,32.4 63.3,32.1 62.5,31.8 61.7,31.5 60.9,31.1 60.2,30.7 59.5,30.2 58.8,29.6 58.3,28.8 58,27.9 57.8,26.9 57.8,25.6 
			57.9,24.8 58.1,24.1 58.3,23.4 58.5,22.8 58.8,22.2 59.2,21.7 59.6,21.2 60.1,20.7 60.7,20.4 61.3,20 62,19.7 62.8,19.5 
			63.7,19.3 64.7,19.2 65.8,19.1 66.9,19.1 67.7,19.1 68.3,19.1 68.9,19.1 69.5,19.2 70,19.2 70.5,19.2 70.9,19.3 71.2,19.3 
			71.6,19.4 71.8,19.4 72.1,19.5 72.3,19.5 72.5,19.5 72.7,19.6 72.9,19.6 73,19.6 72,24.1 72,24.1 		"/>
		<polyline class="st8" points="72,24.1 72,24.1 71.7,24.1 71.5,24 71.2,24 71,24 70.7,23.9 70.5,23.9 70.2,23.8 69.9,23.8 
			69.6,23.8 69.3,23.7 69,23.7 68.6,23.7 68.2,23.7 67.7,23.7 67.2,23.8 66.6,23.8 66.6,23.8 66.2,23.9 65.9,23.9 65.5,24 
			65.2,24.2 64.9,24.3 64.7,24.5 64.5,24.7 64.3,24.8 64.2,25.1 64.1,25.3 64,25.5 64,25.8 64.1,26 64.2,26.3 64.3,26.5 64.5,26.8 
			64.5,26.8 64.9,27.2 65.4,27.5 66,27.7 66.6,27.9 67.2,28.1 67.9,28.4 68.5,28.6 69.1,28.8 69.7,29.2 70.3,29.6 70.8,30.1 
			71.2,30.7 71.5,31.5 71.7,32.4 71.8,33.4 71.7,34.7 71.7,34.7 71.6,35.6 71.4,36.4 71,37.2 70.6,37.8 70.2,38.4 69.7,38.9 
			69.1,39.4 68.5,39.7 67.9,40 67.2,40.3 66.5,40.5 65.8,40.6 65.2,40.8 64.5,40.8 63.8,40.9 63.2,40.9 63.2,40.9 62.4,40.9 
			61.6,40.9 60.9,40.9 60.2,40.8 59.6,40.8 59.1,40.8 58.6,40.7 58.2,40.7 57.8,40.6 57.4,40.6 57,40.5 56.7,40.4 56.3,40.3 
			56,40.2 55.7,40.1 55.3,40 56.2,35.6 56.2,35.6 56.4,35.6 56.6,35.7 56.9,35.8 57.3,35.8 57.6,35.9 58,36 58.4,36.1 58.9,36.2 
			59.4,36.3 59.9,36.3 60.5,36.4 61,36.5 61.6,36.5 62.2,36.5 62.8,36.5 63.3,36.5 63.3,36.5 63.9,36.4 64.4,36.2 64.7,36 65,35.7 
			65.2,35.4 65.4,35.1 65.5,34.8 65.5,34.5 65.5,34.5 65.6,33.9 65.4,33.4 65.1,33 64.6,32.7 64,32.4 63.3,32.1 62.5,31.8 
			61.7,31.5 60.9,31.1 60.2,30.7 59.5,30.2 58.8,29.6 58.3,28.8 58,27.9 57.8,26.9 57.8,25.6 57.8,25.6 57.9,24.8 58.1,24.1 
			58.3,23.4 58.5,22.8 58.8,22.2 59.2,21.7 59.6,21.2 60.1,20.7 60.7,20.4 61.3,20 62,19.7 62.8,19.5 63.7,19.3 64.7,19.2 
			65.8,19.1 66.9,19.1 66.9,19.1 67.7,19.1 68.3,19.1 68.9,19.1 69.5,19.2 70,19.2 70.5,19.2 70.9,19.3 71.2,19.3 71.6,19.4 
			71.8,19.4 72.1,19.5 72.3,19.5 72.5,19.5 72.7,19.6 72.9,19.6 73,19.6 72,24.1 		"/>
		<polygon class="st7" points="76.7,14.7 82.2,14.7 81.4,19.5 84.7,19.5 84,24 80.5,23.9 78.6,35 78.6,35.4 78.7,35.7 78.9,36 
			79.2,36.2 79.5,36.3 79.9,36.5 80.3,36.5 80.8,36.6 81.3,36.6 81.7,36.5 82,36.5 82.3,36.4 82.6,36.3 82.8,36.2 82.9,36.2 
			82.9,36.2 82.2,39.9 82.1,40 82,40 81.8,40.1 81.7,40.2 81.5,40.3 81.4,40.3 81.2,40.4 81,40.4 80.8,40.5 80.6,40.5 80.4,40.6 
			80.1,40.6 79.9,40.7 79.6,40.7 79.3,40.7 78.9,40.8 77.4,40.8 76.6,40.7 75.9,40.6 75.3,40.5 74.8,40.4 74.3,40.2 73.9,40 
			73.6,39.8 73.3,39.5 73.1,39.2 73,38.9 72.9,38.6 72.8,38.2 72.8,37.8 72.8,37.3 72.9,36.9 72.9,36.4 76.7,14.7 76.7,14.7 		"/>
		<polyline class="st8" points="76.7,14.7 82.2,14.7 81.4,19.5 84.7,19.5 84,24 80.5,23.9 78.6,35 78.6,35 78.6,35.4 78.7,35.7 
			78.9,36 79.2,36.2 79.5,36.3 79.9,36.5 80.3,36.5 80.8,36.6 80.8,36.6 81.3,36.6 81.7,36.5 82,36.5 82.3,36.4 82.6,36.3 
			82.8,36.2 82.9,36.2 82.9,36.2 82.2,39.9 82.2,39.9 82.1,40 82,40 81.8,40.1 81.7,40.2 81.5,40.3 81.4,40.3 81.2,40.4 81,40.4 
			80.8,40.5 80.6,40.5 80.4,40.6 80.1,40.6 79.9,40.7 79.6,40.7 79.3,40.7 78.9,40.8 77.4,40.8 77.4,40.8 76.6,40.7 75.9,40.6 
			75.3,40.5 74.8,40.4 74.3,40.2 73.9,40 73.6,39.8 73.3,39.5 73.1,39.2 73,38.9 72.9,38.6 72.8,38.2 72.8,37.8 72.8,37.3 
			72.9,36.9 72.9,36.4 76.7,14.7 		"/>
		<polygon class="st7" points="89.1,31.5 89.1,31.8 89,32.2 89.1,32.6 89.2,32.9 89.3,33.3 89.5,33.7 89.7,34.1 89.9,34.4 
			90.2,34.7 90.5,35 90.8,35.3 91.2,35.6 91.5,35.8 91.9,36 92.3,36.1 92.7,36.2 93.2,36.3 93.7,36.3 94.2,36.4 94.8,36.4 
			95.3,36.4 95.8,36.4 96.3,36.4 96.9,36.4 97.4,36.3 97.9,36.2 98.5,36.1 99,35.9 99.6,35.7 100.2,35.4 100.7,35.1 101.3,34.8 
			100.5,39.7 100.2,39.8 99.9,40 99.5,40.1 99.2,40.2 98.9,40.3 98.6,40.4 98.3,40.5 98,40.6 97.6,40.6 97.2,40.7 96.8,40.7 
			96.3,40.7 95.8,40.8 95.3,40.8 94.7,40.8 94,40.8 93.1,40.8 92.1,40.7 91.1,40.5 90.1,40.3 89.1,40 88.2,39.6 87.3,39.1 
			86.4,38.5 85.7,37.9 85,37 84.4,36.1 83.9,35.1 83.6,33.9 83.4,32.6 83.3,31.1 83.4,29.5 83.5,28.8 83.6,28.1 83.8,27.3 84,26.5 
			84.3,25.7 84.7,24.8 85.1,23.9 85.7,23.1 86.3,22.3 87.1,21.5 87.9,20.9 88.9,20.3 90.1,19.8 91.4,19.4 92.8,19.2 94.4,19.1 
			95.2,19.1 96,19.2 96.8,19.3 97.6,19.5 98.4,19.8 99.2,20.2 99.9,20.7 100.6,21.2 101.2,21.9 101.7,22.7 102.1,23.6 102.3,24.7 
			102.5,25.9 102.5,27.2 102.4,28.7 102.1,30.4 102,31.6 87.5,31.6 88.4,27.7 97.1,27.7 97.2,27.2 97.1,26.7 97.1,26.3 97,25.9 
			96.9,25.5 96.7,25.2 96.5,24.9 96.3,24.6 96.1,24.3 95.9,24.1 95.6,24 95.3,23.8 94.9,23.7 94.6,23.6 94.3,23.5 93.9,23.5 
			93.5,23.5 93.2,23.6 92.9,23.7 92.5,23.8 92.2,23.9 91.9,24.1 91.6,24.3 91.3,24.6 91.1,24.9 90.8,25.2 90.6,25.5 90.4,25.8 
			90.3,26.2 90.1,26.6 90,27 89.9,27.4 89.1,31.5 89.1,31.5 		"/>
		<polyline class="st8" points="89.1,31.5 89.1,31.5 89.1,31.8 89,32.2 89.1,32.6 89.2,32.9 89.3,33.3 89.5,33.7 89.7,34.1 
			89.9,34.4 90.2,34.7 90.5,35 90.8,35.3 91.2,35.6 91.5,35.8 91.9,36 92.3,36.1 92.7,36.2 92.7,36.2 93.2,36.3 93.7,36.3 
			94.2,36.4 94.8,36.4 95.3,36.4 95.8,36.4 96.3,36.4 96.9,36.4 97.4,36.3 97.9,36.2 98.5,36.1 99,35.9 99.6,35.7 100.2,35.4 
			100.7,35.1 101.3,34.8 100.5,39.7 100.5,39.7 100.2,39.8 99.9,40 99.5,40.1 99.2,40.2 98.9,40.3 98.6,40.4 98.3,40.5 98,40.6 
			97.6,40.6 97.2,40.7 96.8,40.7 96.3,40.7 95.8,40.8 95.3,40.8 94.7,40.8 94,40.8 94,40.8 93.1,40.8 92.1,40.7 91.1,40.5 
			90.1,40.3 89.1,40 88.2,39.6 87.3,39.1 86.4,38.5 85.7,37.9 85,37 84.4,36.1 83.9,35.1 83.6,33.9 83.4,32.6 83.3,31.1 83.4,29.5 
			83.4,29.5 83.5,28.8 83.6,28.1 83.8,27.3 84,26.5 84.3,25.7 84.7,24.8 85.1,23.9 85.7,23.1 86.3,22.3 87.1,21.5 87.9,20.9 
			88.9,20.3 90.1,19.8 91.4,19.4 92.8,19.2 94.4,19.1 94.4,19.1 95.2,19.1 96,19.2 96.8,19.3 97.6,19.5 98.4,19.8 99.2,20.2 
			99.9,20.7 100.6,21.2 101.2,21.9 101.7,22.7 102.1,23.6 102.3,24.7 102.5,25.9 102.5,27.2 102.4,28.7 102.1,30.4 102,31.6 
			87.5,31.6 88.4,27.7 97.1,27.7 97.1,27.7 97.2,27.2 97.1,26.7 97.1,26.3 97,25.9 96.9,25.5 96.7,25.2 96.5,24.9 96.3,24.6 
			96.1,24.3 95.9,24.1 95.6,24 95.3,23.8 94.9,23.7 94.6,23.6 94.3,23.5 93.9,23.5 93.9,23.5 93.5,23.5 93.2,23.6 92.9,23.7 
			92.5,23.8 92.2,23.9 91.9,24.1 91.6,24.3 91.3,24.6 91.1,24.9 90.8,25.2 90.6,25.5 90.4,25.8 90.3,26.2 90.1,26.6 90,27 
			89.9,27.4 89.1,31.5 		"/>
		<polygon class="st7" points="136.5,20.7 136.2,20.6 136,20.5 135.7,20.3 135.4,20.2 135.1,20.1 134.7,19.9 134.4,19.8 134,19.7 
			133.7,19.6 133.3,19.5 132.9,19.4 132.5,19.4 132,19.3 131.5,19.3 131.1,19.3 130.6,19.3 130.1,19.3 129.6,19.3 129,19.4 
			128.5,19.5 127.9,19.7 127.4,19.9 126.8,20.2 126.2,20.5 125.7,20.9 125.2,21.5 124.7,22.1 124.2,22.8 123.8,23.7 123.4,24.7 
			123,25.8 122.7,27.1 122.6,27.8 122.5,28.5 122.4,29.2 122.5,29.9 122.5,30.5 122.7,31.2 122.8,31.8 123,32.4 123.3,32.9 
			123.7,33.4 124.1,33.9 124.6,34.3 125.1,34.6 125.7,34.9 126.4,35.2 127.2,35.4 127.4,35.4 127.7,35.5 128.1,35.5 128.5,35.6 
			128.9,35.6 129.4,35.6 129.9,35.6 130.4,35.6 130.9,35.5 131.4,35.4 131.9,35.3 132.4,35.1 132.9,34.9 133.4,34.6 133.8,34.3 
			134.2,34 133.3,39.3 133.2,39.4 133,39.5 132.9,39.6 132.7,39.7 132.5,39.9 132.2,40 131.9,40.2 131.5,40.3 131.1,40.4 
			130.6,40.5 130,40.6 129.3,40.7 128.5,40.7 127.6,40.8 126.6,40.7 125.5,40.7 124.6,40.6 123.6,40.4 122.7,40.1 121.8,39.7 
			120.9,39.2 120.1,38.6 119.3,37.9 118.6,37.1 117.9,36.2 117.4,35.2 116.9,34.1 116.5,32.9 116.3,31.6 116.2,30.2 116.3,28.6 
			116.5,27 116.6,26.2 116.8,25.4 117,24.6 117.2,23.9 117.4,23.2 117.7,22.5 117.9,21.8 118.2,21.2 118.5,20.6 118.8,20 
			119.2,19.5 119.5,18.9 119.9,18.4 120.3,18 120.7,17.5 121.1,17.1 121.5,16.7 122,16.3 122.5,16 123,15.7 123.5,15.4 124,15.1 
			124.6,14.9 125.2,14.7 125.8,14.5 126.4,14.3 127,14.2 127.7,14.1 128.4,14 129.1,13.9 129.8,13.8 130.6,13.8 131.2,13.8 
			131.8,13.9 132.4,13.9 133,14 133.6,14.1 134.1,14.2 134.6,14.3 135.1,14.4 135.6,14.6 136,14.7 136.3,14.8 136.6,14.9 136.9,15 
			137.2,15.1 137.3,15.2 137.5,15.2 136.5,20.7 136.5,20.7 		"/>
		<polyline class="st8" points="136.5,20.7 136.5,20.7 136.2,20.6 136,20.5 135.7,20.3 135.4,20.2 135.1,20.1 134.7,19.9 
			134.4,19.8 134,19.7 133.7,19.6 133.3,19.5 132.9,19.4 132.5,19.4 132,19.3 131.5,19.3 131.1,19.3 130.6,19.3 130.6,19.3 
			130.1,19.3 129.6,19.3 129,19.4 128.5,19.5 127.9,19.7 127.4,19.9 126.8,20.2 126.2,20.5 125.7,20.9 125.2,21.5 124.7,22.1 
			124.2,22.8 123.8,23.7 123.4,24.7 123,25.8 122.7,27.1 122.7,27.1 122.6,27.8 122.5,28.5 122.4,29.2 122.5,29.9 122.5,30.5 
			122.7,31.2 122.8,31.8 123,32.4 123.3,32.9 123.7,33.4 124.1,33.9 124.6,34.3 125.1,34.6 125.7,34.9 126.4,35.2 127.2,35.4 
			127.2,35.4 127.4,35.4 127.7,35.5 128.1,35.5 128.5,35.6 128.9,35.6 129.4,35.6 129.9,35.6 130.4,35.6 130.9,35.5 131.4,35.4 
			131.9,35.3 132.4,35.1 132.9,34.9 133.4,34.6 133.8,34.3 134.2,34 133.3,39.3 133.3,39.3 133.2,39.4 133,39.5 132.9,39.6 
			132.7,39.7 132.5,39.9 132.2,40 131.9,40.2 131.5,40.3 131.1,40.4 130.6,40.5 130,40.6 129.3,40.7 128.5,40.7 127.6,40.8 
			126.6,40.7 125.5,40.7 125.5,40.7 124.6,40.6 123.6,40.4 122.7,40.1 121.8,39.7 120.9,39.2 120.1,38.6 119.3,37.9 118.6,37.1 
			117.9,36.2 117.4,35.2 116.9,34.1 116.5,32.9 116.3,31.6 116.2,30.2 116.3,28.6 116.5,27 116.5,27 116.6,26.2 116.8,25.4 
			117,24.6 117.2,23.9 117.4,23.2 117.7,22.5 117.9,21.8 118.2,21.2 118.5,20.6 118.8,20 119.2,19.5 119.5,18.9 119.9,18.4 
			120.3,18 120.7,17.5 121.1,17.1 121.5,16.7 122,16.3 122.5,16 123,15.7 123.5,15.4 124,15.1 124.6,14.9 125.2,14.7 125.8,14.5 
			126.4,14.3 127,14.2 127.7,14.1 128.4,14 129.1,13.9 129.8,13.8 130.6,13.8 130.6,13.8 131.2,13.8 131.8,13.9 132.4,13.9 133,14 
			133.6,14.1 134.1,14.2 134.6,14.3 135.1,14.4 135.6,14.6 136,14.7 136.3,14.8 136.6,14.9 136.9,15 137.2,15.1 137.3,15.2 
			137.5,15.2 136.5,20.7 		"/>
		<polygon class="st7" points="185.3,40.8 179.8,40.8 180.2,38.6 180.2,38.4 179.9,38.8 179.6,39.1 179.3,39.5 178.9,39.7 178.5,40 
			178.2,40.2 177.8,40.4 177.4,40.6 177.1,40.7 176.7,40.8 176.3,40.9 175.9,41 175.5,41 175.1,41.1 174.7,41.1 174.4,41.1 
			173.3,41 172.4,40.8 171.5,40.4 170.7,40 170,39.4 169.3,38.7 168.8,38 168.3,37.2 167.9,36.3 167.6,35.3 167.4,34.4 167.2,33.4 
			167.2,32.3 167.2,31.3 167.3,30.3 167.5,29.3 167.8,28.1 168.1,27 168.5,26 169,25 169.5,24.1 170.1,23.3 170.8,22.6 171.4,22 
			172.1,21.4 172.8,20.9 173.6,20.5 174.4,20.1 175.1,19.9 175.9,19.7 176.7,19.6 177.5,19.5 178.1,19.5 178.7,19.6 179.2,19.7 
			179.7,19.8 180.1,20 180.5,20.2 180.9,20.4 181.3,20.6 181.6,20.8 181.9,21.1 182.2,21.4 182.4,21.6 182.6,21.9 182.8,22.1 
			182.9,22.4 183,22.6 183,22.6 184.4,14.8 189.8,14.8 185.3,40.8 185.3,40.8 		"/>
		<polyline class="st8" points="185.3,40.8 179.8,40.8 180.2,38.6 180.2,38.4 180.2,38.4 179.9,38.8 179.6,39.1 179.3,39.5 
			178.9,39.7 178.5,40 178.2,40.2 177.8,40.4 177.4,40.6 177.1,40.7 176.7,40.8 176.3,40.9 175.9,41 175.5,41 175.1,41.1 
			174.7,41.1 174.4,41.1 174.4,41.1 173.3,41 172.4,40.8 171.5,40.4 170.7,40 170,39.4 169.3,38.7 168.8,38 168.3,37.2 167.9,36.3 
			167.6,35.3 167.4,34.4 167.2,33.4 167.2,32.3 167.2,31.3 167.3,30.3 167.5,29.3 167.5,29.3 167.8,28.1 168.1,27 168.5,26 169,25 
			169.5,24.1 170.1,23.3 170.8,22.6 171.4,22 172.1,21.4 172.8,20.9 173.6,20.5 174.4,20.1 175.1,19.9 175.9,19.7 176.7,19.6 
			177.5,19.5 177.5,19.5 178.1,19.5 178.7,19.6 179.2,19.7 179.7,19.8 180.1,20 180.5,20.2 180.9,20.4 181.3,20.6 181.6,20.8 
			181.9,21.1 182.2,21.4 182.4,21.6 182.6,21.9 182.8,22.1 182.9,22.4 183,22.6 183,22.6 184.4,14.8 189.8,14.8 185.3,40.8 		"/>
		<polygon class="st3" points="176.4,36 176.9,35.9 177.4,35.8 177.9,35.7 178.4,35.5 178.8,35.2 179.2,34.9 179.6,34.6 179.9,34.2 
			180.2,33.8 180.5,33.4 180.7,32.9 180.9,32.5 181.1,32 181.3,31.5 181.4,30.9 181.5,30.4 181.6,29.8 181.7,29.2 181.7,28.7 
			181.7,28.2 181.6,27.6 181.5,27.1 181.4,26.7 181.2,26.2 181,25.8 180.8,25.4 180.5,25.1 180.2,24.8 179.9,24.6 179.6,24.4 
			179.2,24.3 178.8,24.3 178.2,24.3 177.7,24.4 177.3,24.6 176.8,24.8 176.4,25 176,25.4 175.7,25.7 175.3,26.1 175,26.5 174.8,27 
			174.5,27.4 174.3,28 174.1,28.5 173.9,29 173.8,29.6 173.7,30.2 173.6,31.1 173.6,32 173.7,33 174,33.9 174.4,34.7 174.9,35.4 
			175.6,35.8 176.4,36 176.4,36 		"/>
		<polygon class="st7" points="54.4,36.4 53.6,40.8 48.6,40.8 48.8,40 48.9,39.2 49,38.7 49,38.4 48.8,38.7 48.4,39 48.1,39.3 
			47.6,39.6 47.2,39.9 46.7,40.1 46.2,40.3 45.6,40.5 45,40.7 44.5,40.9 43.9,41 43.3,41.1 42.7,41.1 42.1,41.1 41.6,41.1 41.1,41 
			40.4,40.8 39.7,40.6 39.2,40.3 38.7,40 38.2,39.7 37.8,39.4 37.5,39 37.2,38.6 37,38.2 36.8,37.7 36.6,37.3 36.5,36.9 36.4,36.4 
			36.4,36 36.4,35.5 36.4,35.1 36.4,34.3 36.5,33.6 36.7,32.9 37,32.2 37.3,31.6 37.7,31 38.1,30.4 38.6,29.9 39.1,29.5 39.6,29.1 
			40.2,28.7 40.8,28.4 41.4,28.1 42.1,27.9 42.7,27.7 43.4,27.6 43.5,27.6 43.6,27.6 43.7,27.5 43.9,27.5 44.2,27.5 44.5,27.5 
			44.7,27.4 45.1,27.4 45.4,27.3 45.8,27.3 46.1,27.3 46.4,27.2 46.8,27.2 47.1,27.2 47.3,27.2 47.5,27.2 48,27.2 48.5,27.2 
			48.9,27.2 49.4,27.2 49.7,27.2 50,27.3 50.2,27.3 50.2,27.3 50.3,27.1 50.4,26.8 50.5,26.4 50.5,26 50.5,25.6 50.3,25.2 50,24.8 
			49.7,24.5 49.4,24.2 48.9,24.1 48.5,23.9 47.9,23.9 47.4,23.9 46.8,23.9 46.2,23.9 45.5,23.9 44.9,23.9 44.3,24 43.6,24 43,24.1 
			42.4,24.2 41.8,24.3 41.3,24.4 40.8,24.5 40.4,24.6 40,24.7 39.8,24.9 39.5,25 41,20.2 41.4,20 41.8,19.9 42.3,19.7 42.8,19.6 
			43.3,19.5 43.8,19.5 44.3,19.4 44.8,19.3 45.4,19.3 46,19.3 46.6,19.3 47.2,19.3 47.8,19.3 48.5,19.3 49.2,19.3 49.9,19.3 
			50.4,19.3 51,19.4 51.6,19.6 52.3,19.8 52.9,20 53.5,20.3 54.1,20.6 54.6,21 55.1,21.4 55.5,21.9 55.9,22.4 56.2,23 56.4,23.7 
			56.6,24.3 56.6,25.1 56.4,25.9 54.4,36.4 54.4,36.4 		"/>
		<polyline class="st8" points="54.4,36.4 53.6,40.8 48.6,40.8 48.6,40.8 48.8,40 48.9,39.2 49,38.7 49,38.4 49,38.4 48.8,38.7 
			48.4,39 48.1,39.3 47.6,39.6 47.2,39.9 46.7,40.1 46.2,40.3 45.6,40.5 45,40.7 44.5,40.9 43.9,41 43.3,41.1 42.7,41.1 42.1,41.1 
			41.6,41.1 41.1,41 41.1,41 40.4,40.8 39.7,40.6 39.2,40.3 38.7,40 38.2,39.7 37.8,39.4 37.5,39 37.2,38.6 37,38.2 36.8,37.7 
			36.6,37.3 36.5,36.9 36.4,36.4 36.4,36 36.4,35.5 36.4,35.1 36.4,35.1 36.4,34.3 36.5,33.6 36.7,32.9 37,32.2 37.3,31.6 37.7,31 
			38.1,30.4 38.6,29.9 39.1,29.5 39.6,29.1 40.2,28.7 40.8,28.4 41.4,28.1 42.1,27.9 42.7,27.7 43.4,27.6 43.4,27.6 43.5,27.6 
			43.6,27.6 43.7,27.5 43.9,27.5 44.2,27.5 44.5,27.5 44.7,27.4 45.1,27.4 45.4,27.3 45.8,27.3 46.1,27.3 46.4,27.2 46.8,27.2 
			47.1,27.2 47.3,27.2 47.5,27.2 47.5,27.2 48,27.2 48.5,27.2 48.9,27.2 49.4,27.2 49.7,27.2 50,27.3 50.2,27.3 50.2,27.3 
			50.2,27.3 50.3,27.1 50.4,26.8 50.5,26.4 50.5,26 50.5,26 50.5,25.6 50.3,25.2 50,24.8 49.7,24.5 49.4,24.2 48.9,24.1 48.5,23.9 
			47.9,23.9 47.9,23.9 47.4,23.9 46.8,23.9 46.2,23.9 45.5,23.9 44.9,23.9 44.3,24 43.6,24 43,24.1 42.4,24.2 41.8,24.3 41.3,24.4 
			40.8,24.5 40.4,24.6 40,24.7 39.8,24.9 39.5,25 41,20.2 41,20.2 41.4,20 41.8,19.9 42.3,19.7 42.8,19.6 43.3,19.5 43.8,19.5 
			44.3,19.4 44.8,19.3 45.4,19.3 46,19.3 46.6,19.3 47.2,19.3 47.8,19.3 48.5,19.3 49.2,19.3 49.9,19.3 49.9,19.3 50.4,19.3 
			51,19.4 51.6,19.6 52.3,19.8 52.9,20 53.5,20.3 54.1,20.6 54.6,21 55.1,21.4 55.5,21.9 55.9,22.4 56.2,23 56.4,23.7 56.6,24.3 
			56.6,25.1 56.4,25.9 54.4,36.4 		"/>
		<polygon class="st6" points="49.7,31.2 49.6,31.1 49.6,31 49.4,30.9 49.2,30.9 49,30.9 48.8,30.8 48.5,30.8 48.2,30.8 47.8,30.9 
			47.5,30.9 47.2,30.9 46.9,31 46.6,31 46.3,31.1 46.1,31.1 45.8,31.2 45.7,31.2 45.5,31.3 45.3,31.4 45.1,31.5 44.8,31.6 
			44.6,31.7 44.3,31.9 44.1,32 43.8,32.2 43.5,32.4 43.3,32.7 43.1,32.9 42.9,33.2 42.7,33.4 42.6,33.8 42.5,34.1 42.5,34.7 
			42.6,35.3 42.8,35.7 43.1,36 43.4,36.2 43.7,36.3 44,36.4 44.4,36.4 44.9,36.4 45.5,36.3 46,36.2 46.5,36.1 46.9,36 47.2,35.8 
			47.6,35.6 47.9,35.4 48.1,35.2 48.4,34.9 48.6,34.7 48.7,34.5 48.9,34.2 49,34 49.1,33.8 49.1,33.6 49.3,33 49.4,32.3 49.6,31.7 
			49.7,31.2 49.7,31.2 		"/>
		<polygon class="st7" points="12.7,40.8 7.3,40.8 11.8,14.7 21.2,14.7 22.1,30.2 28.5,14.7 38.4,14.7 33.7,40.8 28.3,40.8 
			31.8,21.3 31.5,21.3 23.5,40.8 17.4,40.8 17.3,40 17.2,37.8 17,34.7 16.8,31.2 16.6,27.6 16.4,24.5 16.3,22.3 16.3,21.3 
			16.2,21.3 16.1,21.3 16,21.3 16,21.3 12.7,40.8 12.7,40.8 		"/>
		<polyline class="st8" points="12.7,40.8 7.3,40.8 11.8,14.7 21.2,14.7 22.1,30.2 28.5,14.7 38.4,14.7 33.7,40.8 28.3,40.8 
			31.8,21.3 31.5,21.3 23.5,40.8 17.4,40.8 17.4,40.8 17.3,40 17.2,37.8 17,34.7 16.8,31.2 16.6,27.6 16.4,24.5 16.3,22.3 
			16.3,21.3 16.3,21.3 16.2,21.3 16.1,21.3 16,21.3 16,21.3 12.7,40.8 		"/>
		<polygon class="st7" points="153,36.4 152.2,40.8 147.2,40.8 147.2,40 147.2,39.3 147.2,38.7 147.3,38.5 147,38.8 146.7,39.1 
			146.4,39.4 146,39.6 145.5,39.9 145.1,40.1 144.6,40.4 144.1,40.6 143.5,40.7 143,40.9 142.4,41 141.9,41.1 141.3,41.1 
			140.7,41.1 140.2,41.1 139.7,41 139,40.8 138.3,40.6 137.8,40.3 137.2,40 136.8,39.7 136.4,39.4 136.1,39 135.8,38.6 135.6,38.2 
			135.4,37.7 135.3,37.3 135.2,36.9 135.1,36.4 135,36 135,35.5 135,35.1 135,34.3 135.1,33.6 135.3,32.9 135.6,32.2 135.9,31.6 
			136.3,31 136.7,30.4 137.1,29.9 137.6,29.5 138.2,29.1 138.8,28.7 139.4,28.4 140,28.1 140.6,27.9 141.3,27.7 142,27.6 142,27.6 
			142.1,27.6 142.2,27.5 142.4,27.5 142.7,27.5 143,27.5 143.3,27.4 143.6,27.4 143.9,27.3 144.3,27.3 144.6,27.3 145,27.2 
			145.3,27.2 145.6,27.2 145.8,27.2 146.1,27.2 146.5,27.2 147,27.2 147.5,27.2 147.9,27.2 148.3,27.2 148.6,27.3 148.8,27.3 
			148.9,27.3 148.9,27.1 149,26.8 149,26.4 149.1,26 149,25.6 148.8,25.2 148.6,24.8 148.3,24.5 147.9,24.2 147.5,24.1 147.1,23.9 
			146.6,23.9 146,23.9 145.4,23.9 144.8,23.9 144.2,23.9 143.5,23.9 142.9,24 142.2,24 141.6,24.1 141,24.2 140.5,24.3 139.9,24.4 
			139.5,24.5 139,24.6 138.7,24.7 138.4,24.9 138.2,25 139.6,20.2 140,20 140.5,19.9 140.9,19.7 141.4,19.6 141.9,19.5 142.4,19.5 
			142.9,19.4 143.4,19.3 144,19.3 144.6,19.3 145.1,19.3 145.8,19.3 146.4,19.3 147,19.3 147.7,19.3 148.4,19.3 148.9,19.3 
			149.5,19.4 150.1,19.6 150.8,19.8 151.4,20 152,20.3 152.6,20.6 153.1,21 153.6,21.4 154.1,21.9 154.5,22.4 154.8,23 155,23.7 
			155.2,24.3 155.2,25.1 155.1,25.9 153,36.4 153,36.4 		"/>
		<polygon class="st7" points="152.2,40.9 152.3,40.8 153.1,36.4 152.8,36.4 152,40.8 152.2,40.6 152.2,40.9 152.3,40.9 152.3,40.8 
			152.2,40.9 152.2,40.9 		"/>
		<polygon class="st7" points="147.1,40.8 147.2,40.9 152.2,40.9 152.2,40.6 147.2,40.6 147.3,40.8 147.1,40.8 147,40.9 147.2,40.9 
			147.1,40.8 147.1,40.8 		"/>
		<polygon class="st7" points="147.4,38.6 147.2,38.4 147.1,38.7 147.1,39.3 147.1,40 147.1,40.8 147.3,40.8 147.3,40 147.4,39.3 
			147.3,38.7 147.3,38.6 147.2,38.4 147.4,38.6 147.4,38.6 		"/>
		<polygon class="st7" points="139.6,41.1 139.6,41.1 140.2,41.2 140.7,41.2 141.3,41.2 141.9,41.2 142.4,41.1 143,41 143.6,40.8 
			144.1,40.7 144.6,40.5 145.1,40.2 145.6,40 146,39.7 146.4,39.5 146.8,39.2 147.1,38.9 147.4,38.6 147.2,38.4 146.9,38.7 
			146.6,39 146.3,39.3 145.9,39.5 145.5,39.8 145,40 144.5,40.2 144,40.4 143.5,40.6 143,40.8 142.4,40.9 141.9,40.9 141.3,41 
			140.7,41 140.2,40.9 139.7,40.9 139.7,40.9 139.6,41.1 139.6,41.1 		"/>
		<polygon class="st7" points="134.8,35.1 134.8,35.1 134.9,35.5 134.9,36 135,36.4 135,36.9 135.1,37.3 135.3,37.8 135.5,38.2 
			135.7,38.7 136,39.1 136.3,39.5 136.7,39.8 137.2,40.1 137.7,40.5 138.3,40.7 138.9,40.9 139.6,41.1 139.7,40.9 139,40.7 
			138.4,40.5 137.8,40.2 137.3,39.9 136.9,39.6 136.5,39.3 136.2,38.9 135.9,38.5 135.7,38.1 135.5,37.7 135.4,37.3 135.3,36.9 
			135.2,36.4 135.1,36 135.1,35.5 135.1,35.1 135.1,35.1 134.8,35.1 134.8,35.1 		"/>
		<polygon class="st7" points="142,27.5 142,27.5 141.3,27.6 140.6,27.8 139.9,28 139.3,28.3 138.7,28.6 138.1,29 137.6,29.4 
			137,29.9 136.6,30.4 136.2,30.9 135.8,31.5 135.5,32.2 135.2,32.8 135,33.6 134.9,34.3 134.8,35.1 135.1,35.1 135.1,34.3 
			135.3,33.6 135.4,32.9 135.7,32.2 136,31.6 136.4,31.1 136.8,30.5 137.2,30 137.7,29.6 138.3,29.2 138.8,28.8 139.4,28.5 
			140,28.2 140.7,28 141.3,27.8 142,27.7 142,27.7 142,27.5 142,27.5 		"/>
		<polygon class="st7" points="146.1,27 146.1,27 145.8,27 145.6,27.1 145.3,27.1 145,27.1 144.6,27.2 144.3,27.2 143.9,27.2 
			143.6,27.3 143.3,27.3 143,27.3 142.7,27.4 142.4,27.4 142.2,27.4 142.1,27.4 142,27.5 142,27.5 142,27.7 142,27.7 142.1,27.7 
			142.2,27.7 142.4,27.6 142.7,27.6 143,27.6 143.3,27.5 143.6,27.5 143.9,27.5 144.3,27.4 144.6,27.4 145,27.4 145.3,27.3 
			145.6,27.3 145.8,27.3 146.1,27.3 146.1,27.3 146.1,27 146.1,27 		"/>
		<polygon class="st7" points="148.7,27.3 148.9,27.2 148.8,27.2 148.6,27.1 148.3,27.1 147.9,27.1 147.5,27.1 147,27.1 146.5,27 
			146.1,27 146.1,27.3 146.5,27.3 147,27.3 147.5,27.4 147.9,27.4 148.3,27.4 148.6,27.4 148.8,27.4 148.9,27.4 149,27.3 
			148.9,27.4 149,27.4 149,27.3 148.7,27.3 148.7,27.3 		"/>
		<polygon class="st7" points="148.9,26 148.9,26 148.9,26.4 148.8,26.8 148.8,27.1 148.7,27.3 149,27.3 149,27.2 149.1,26.8 
			149.1,26.4 149.2,26 149.2,26 148.9,26 148.9,26 		"/>
		<polygon class="st7" points="146.6,24 146.6,24 147,24.1 147.4,24.2 147.8,24.4 148.2,24.6 148.5,24.9 148.7,25.2 148.9,25.6 
			148.9,26 149.2,26 149.1,25.5 148.9,25.1 148.7,24.7 148.3,24.4 148,24.1 147.5,23.9 147.1,23.8 146.6,23.8 146.6,23.8 146.6,24 
			146.6,24 		"/>
		<polygon class="st7" points="138.1,25 138.3,25.1 138.5,25 138.7,24.9 139.1,24.7 139.5,24.6 140,24.5 140.5,24.4 141.1,24.3 
			141.6,24.2 142.2,24.2 142.9,24.1 143.5,24 144.2,24 144.8,24 145.4,24 146,24 146.6,24 146.6,23.8 146,23.8 145.4,23.7 
			144.8,23.7 144.2,23.8 143.5,23.8 142.9,23.9 142.2,23.9 141.6,24 141,24.1 140.4,24.2 139.9,24.3 139.4,24.4 139,24.5 
			138.6,24.6 138.3,24.8 138.1,24.9 138.3,25 138.1,25 138.1,25 		"/>
		<polygon class="st7" points="139.5,20.1 139.4,20.2 138.1,25 138.3,25 139.7,20.2 139.6,20.3 139.5,20.1 139.5,20.1 139.4,20.2 
			139.5,20.1 139.5,20.1 		"/>
		<polygon class="st7" points="148.4,19.2 148.4,19.2 147.7,19.1 147,19.1 146.4,19.1 145.8,19.1 145.1,19.1 144.6,19.2 144,19.2 
			143.4,19.2 142.9,19.3 142.4,19.3 141.9,19.4 141.4,19.5 140.9,19.6 140.4,19.8 140,19.9 139.5,20.1 139.6,20.3 140,20.2 
			140.5,20 140.9,19.9 141.4,19.8 141.9,19.7 142.4,19.6 142.9,19.5 143.4,19.5 144,19.4 144.6,19.4 145.1,19.4 145.8,19.4 
			146.4,19.4 147,19.4 147.7,19.4 148.4,19.4 148.4,19.4 148.4,19.2 148.4,19.2 		"/>
		<polygon class="st7" points="155.2,25.9 155.2,25.9 155.3,25.1 155.3,24.3 155.1,23.6 154.9,23 154.6,22.4 154.2,21.8 153.7,21.3 
			153.2,20.9 152.7,20.5 152.1,20.2 151.4,19.9 150.8,19.6 150.1,19.5 149.5,19.3 148.9,19.2 148.4,19.2 148.4,19.4 148.9,19.5 
			149.5,19.6 150.1,19.7 150.7,19.9 151.3,20.1 151.9,20.4 152.5,20.7 153.1,21.1 153.6,21.5 154,22 154.4,22.5 154.7,23.1 
			154.9,23.7 155,24.3 155,25.1 154.9,25.9 154.9,25.9 155.2,25.9 155.2,25.9 		"/>
		<polygon class="st7" points="153.1,36.4 153.1,36.4 155.2,25.9 154.9,25.9 152.8,36.4 152.8,36.4 153.1,36.4 153.1,36.4 		"/>
		<polygon class="st3" points="148.2,31.2 148.1,31.1 148,31 147.9,30.9 147.7,30.9 147.5,30.8 147.2,30.8 146.9,30.8 146.6,30.8 
			146.3,30.9 146,30.9 145.7,31 145.4,31 145.1,31.1 144.8,31.1 144.6,31.2 144.4,31.2 144.2,31.2 144.1,31.3 143.9,31.3 
			143.7,31.4 143.4,31.5 143.2,31.6 142.9,31.8 142.6,32 142.4,32.1 142.1,32.4 141.9,32.6 141.7,32.8 141.5,33.1 141.4,33.4 
			141.2,33.7 141.2,34.1 141.2,34.7 141.3,35.3 141.4,35.7 141.7,36 141.9,36.2 142.3,36.3 142.6,36.4 143,36.4 143.6,36.4 
			144.1,36.3 144.6,36.2 145.1,36.1 145.5,35.9 145.9,35.7 146.3,35.5 146.6,35.3 146.9,35.1 147.1,34.8 147.3,34.6 147.5,34.3 
			147.6,34.1 147.7,33.8 147.8,33.6 147.9,33.4 147.9,32.8 148,32.2 148.1,31.7 148.2,31.2 148.2,31.2 		"/>
		<polygon class="st7" points="189.1,38.1 189.1,37.6 189.3,37.1 189.5,36.6 189.9,36.2 190.3,35.8 190.8,35.6 191.3,35.4 
			191.8,35.4 192.4,35.4 192.9,35.6 193.4,35.8 193.8,36.2 194.1,36.6 194.4,37.1 194.6,37.6 194.6,38.1 194,38.1 194,37.7 
			193.9,37.3 193.7,36.9 193.4,36.5 193.1,36.3 192.7,36.1 192.3,35.9 191.8,35.9 191.4,35.9 190.9,36.1 190.6,36.3 190.3,36.5 
			190,36.9 189.8,37.3 189.7,37.7 189.6,38.1 189.1,38.1 189.1,38.1 		"/>
		<polygon class="st7" points="190.8,38.1 190.8,36.9 191.9,36.9 192.2,36.9 192.4,36.9 192.6,37 192.7,37.1 192.8,37.2 192.9,37.3 
			192.9,37.4 192.9,37.6 192.9,37.8 192.9,37.9 192.8,38 192.8,38.1 191.9,38.1 192,38 192.2,38 192.3,38 192.4,37.9 192.5,37.9 
			192.5,37.8 192.5,37.7 192.5,37.6 192.5,37.5 192.5,37.4 192.4,37.4 192.4,37.3 192.3,37.3 192.2,37.3 192.1,37.3 191.9,37.3 
			191.3,37.3 191.3,38.1 190.8,38.1 190.8,38.1 		"/>
		<polygon class="st7" points="189.1,38.1 189,38.2 189.1,38.8 189.3,39.3 189.5,39.8 189.9,40.2 190.3,40.5 190.8,40.8 191.3,40.9 
			191.8,41 192.4,40.9 192.9,40.8 193.4,40.5 193.8,40.2 194.1,39.8 194.4,39.3 194.6,38.8 194.6,38.2 194.6,38.1 194,38.1 
			194,38.2 194,38.7 193.9,39.1 193.7,39.5 193.4,39.8 193.1,40.1 192.7,40.3 192.3,40.4 191.8,40.5 191.4,40.4 190.9,40.3 
			190.6,40.1 190.3,39.8 190,39.5 189.8,39.1 189.7,38.7 189.6,38.2 189.6,38.1 189.1,38.1 189.1,38.1 		"/>
		<polygon class="st7" points="190.8,38.1 190.8,39.3 191.3,39.3 191.3,38.3 191.8,38.3 192.4,39.3 192.8,39.3 192.2,38.3 
			192.4,38.3 192.5,38.2 192.6,38.2 192.7,38.1 192.8,38.1 191.9,38.1 191.8,38.1 191.3,38.1 191.3,38.1 190.8,38.1 190.8,38.1 		
			"/>
		<path class="st8" d="M189,38.2L189,38.2l0.1-0.6l0.2-0.5l0.3-0.5l0.3-0.4l0.4-0.3l0.5-0.2l0.5-0.2l0.6-0.1l0,0l0.6,0.1l0.5,0.2
			l0.5,0.2l0.4,0.3l0.3,0.4l0.3,0.5l0.2,0.5l0.1,0.6l0,0l-0.1,0.6l-0.2,0.5l-0.3,0.5l-0.3,0.4l-0.4,0.3l-0.5,0.3l-0.5,0.2l-0.6,0.1
			l0,0l-0.6-0.1l-0.5-0.2l-0.5-0.3l-0.4-0.3l-0.3-0.4l-0.3-0.5l-0.2-0.5L189,38.2 M191.3,39.3h-0.5v-2.4h1.1l0,0l0.2,0l0.2,0
			l0.2,0.1l0.1,0.1l0.1,0.1l0.1,0.1l0,0.1l0,0.1l0,0l0,0.2l0,0.1l-0.1,0.1l-0.1,0.1l-0.1,0.1l-0.1,0l-0.1,0h-0.1l0.6,1h-0.4l-0.6-1
			h-0.5V39.3 M191.8,38.1L191.8,38.1l0.2,0l0.1,0l0.1,0l0.1,0l0.1-0.1l0-0.1l0-0.1v-0.1l0,0l0-0.1l0-0.1l-0.1,0l-0.1,0l-0.1,0
			l-0.1,0h-0.1h-0.1h-0.6v0.8H191.8 M191.8,40.5L191.8,40.5l0.5,0l0.4-0.1l0.4-0.2l0.3-0.3l0.3-0.3l0.2-0.4l0.1-0.4l0-0.5l0,0l0-0.5
			l-0.1-0.4l-0.2-0.4l-0.3-0.3l-0.3-0.3l-0.4-0.2l-0.4-0.1l-0.5,0l0,0l-0.5,0l-0.4,0.1l-0.4,0.2l-0.3,0.3l-0.3,0.3l-0.2,0.4
			l-0.1,0.4l0,0.5l0,0l0,0.5l0.1,0.4l0.2,0.4l0.3,0.3l0.3,0.3l0.4,0.2l0.4,0.1L191.8,40.5"/>
		<polygon class="st7" points="154.5,40.8 160.1,40.8 160.1,40.8 162.1,29.5 162.1,29 162.3,28.6 162.4,28.2 162.5,27.7 162.7,27.3 
			163,26.9 163.2,26.5 163.6,26.1 163.9,25.8 164.3,25.5 164.8,25.2 165.3,24.9 165.9,24.7 166.5,24.6 167.2,24.4 168,24.4 
			168.2,24.4 168.4,24.4 168.5,24.4 168.5,24.4 169.3,19.3 168.8,19.3 168.3,19.4 167.8,19.5 167.3,19.6 166.8,19.8 166.4,20 
			166,20.2 165.7,20.5 165.3,20.7 165,21 164.6,21.3 164.3,21.6 164,22 163.7,22.4 163.4,22.7 163.2,23.1 163.7,19.5 158.2,19.5 
			154.5,40.8 154.5,40.8 154.5,40.8 		"/>
		<polyline class="st8" points="154.5,40.8 160.1,40.8 160.1,40.8 162.1,29.5 162.1,29.5 162.1,29 162.3,28.6 162.4,28.2 
			162.5,27.7 162.7,27.3 163,26.9 163.2,26.5 163.6,26.1 163.9,25.8 164.3,25.5 164.8,25.2 165.3,24.9 165.9,24.7 166.5,24.6 
			167.2,24.4 168,24.4 168,24.4 168.2,24.4 168.4,24.4 168.5,24.4 168.5,24.4 169.3,19.3 169.3,19.3 168.8,19.3 168.3,19.4 
			167.8,19.5 167.3,19.6 166.8,19.8 166.4,20 166,20.2 165.7,20.5 165.3,20.7 165,21 164.6,21.3 164.3,21.6 164,22 163.7,22.4 
			163.4,22.7 163.2,23.1 163.7,19.5 158.2,19.5 154.5,40.8 154.5,40.8 		"/>
		<polygon class="st7" points="101.9,40.8 107.5,40.8 107.6,40.8 109.5,29.5 109.6,29 109.7,28.6 109.8,28.2 109.9,27.8 110.1,27.4 
			110.3,27 110.5,26.7 110.8,26.3 111.1,26 111.5,25.8 111.9,25.5 112.4,25.3 112.9,25.1 113.5,25 114.2,24.9 115,24.8 115,24.8 
			115.1,24.8 115.2,24.8 115.3,24.8 115.4,24.9 115.5,24.9 115.6,24.9 115.6,24.9 115.6,24.8 115.7,24.6 115.7,24.2 115.8,23.8 
			116,23.3 116.1,22.7 116.3,22.2 116.5,21.6 116.6,21.2 116.8,20.8 117,20.5 117.2,20.1 117.4,19.8 117.6,19.6 117.6,19.5 
			117.7,19.4 117.7,19.4 117.6,19.4 117.5,19.4 117.4,19.3 117.2,19.3 117.1,19.3 116.9,19.3 116.8,19.3 116.2,19.3 115.6,19.4 
			115.1,19.5 114.6,19.6 114.2,19.8 113.7,20 113.4,20.2 113,20.4 112.7,20.7 112.3,21 112.1,21.3 111.8,21.6 111.5,21.9 
			111.2,22.3 110.9,22.7 110.6,23.1 111.3,19.5 105.6,19.5 101.9,40.8 101.9,40.8 101.9,40.8 		"/>
		<polyline class="st8" points="101.9,40.8 107.5,40.8 107.6,40.8 109.5,29.5 109.5,29.5 109.6,29 109.7,28.6 109.8,28.2 
			109.9,27.8 110.1,27.4 110.3,27 110.5,26.7 110.8,26.3 111.1,26 111.5,25.8 111.9,25.5 112.4,25.3 112.9,25.1 113.5,25 
			114.2,24.9 115,24.8 115,24.8 115,24.8 115.1,24.8 115.2,24.8 115.3,24.8 115.4,24.9 115.5,24.9 115.6,24.9 115.6,24.9 
			115.6,24.9 115.6,24.8 115.7,24.6 115.7,24.2 115.8,23.8 116,23.3 116.1,22.7 116.3,22.2 116.5,21.6 116.5,21.6 116.6,21.2 
			116.8,20.8 117,20.5 117.2,20.1 117.4,19.8 117.6,19.6 117.6,19.5 117.7,19.4 117.7,19.4 117.7,19.4 117.6,19.4 117.5,19.4 
			117.4,19.3 117.2,19.3 117.1,19.3 116.9,19.3 116.8,19.3 116.8,19.3 116.2,19.3 115.6,19.4 115.1,19.5 114.6,19.6 114.2,19.8 
			113.7,20 113.4,20.2 113,20.4 112.7,20.7 112.3,21 112.1,21.3 111.8,21.6 111.5,21.9 111.2,22.3 110.9,22.7 110.6,23.1 
			111.3,19.5 105.6,19.5 101.9,40.8 101.9,40.8 		"/>
		<polygon class="st3" points="189.1,61.7 189.1,61.6 189.3,61.1 189.5,60.6 189.9,60.2 190.3,59.9 190.8,59.7 191.3,59.5 
			191.8,59.5 192.4,59.5 192.9,59.7 193.4,59.9 193.8,60.2 194.1,60.6 194.4,61.1 194.6,61.6 194.6,61.7 194,61.7 193.9,61.2 
			193.7,60.9 193.4,60.5 193.1,60.3 192.7,60 192.3,59.9 191.8,59.9 191.4,59.9 190.9,60 190.6,60.3 190.3,60.5 190,60.9 
			189.8,61.2 189.7,61.7 189.1,61.7 189.1,61.7 		"/>
		<polygon class="st3" points="190.8,61.7 190.8,61 191.9,61 192.2,61 192.4,61 192.6,61.1 192.7,61.1 192.8,61.2 192.9,61.3 
			192.9,61.5 192.9,61.7 192.5,61.7 192.5,61.6 192.5,61.5 192.5,61.4 192.4,61.3 192.4,61.3 192.3,61.3 192.2,61.3 192.1,61.3 
			191.9,61.3 191.3,61.3 191.3,61.7 190.8,61.7 190.8,61.7 		"/>
		<polygon class="st3" points="189,62.1 189.1,61.7 189.7,61.7 189.7,61.7 189.6,62.1 189,62.1 189,62.1 		"/>
		<polygon class="st3" points="190.8,62.1 190.8,61.7 191.3,61.7 191.3,62.1 191.8,62.1 192,62 192.2,62 192.3,62 192.4,61.9 
			192.5,61.9 192.5,61.8 192.5,61.7 192.5,61.7 192.9,61.7 192.9,61.7 192.9,61.8 192.9,61.9 192.8,62 192.7,62.1 190.8,62.1 
			190.8,62.1 		"/>
		<polygon class="st3" points="194,62.1 194,61.7 194,61.7 194.6,61.7 194.6,62.1 194,62.1 194,62.1 		"/>
		<polygon class="st3" points="189,62.1 189,62.2 189.1,62.7 189.3,63.3 189.5,63.8 189.9,64.2 190.3,64.5 190.8,64.7 191.3,64.9 
			191.8,65 192.4,64.9 192.9,64.7 193.4,64.5 193.8,64.2 194.1,63.8 194.4,63.3 194.6,62.7 194.6,62.2 194.6,62.1 194,62.1 
			194,62.2 194,62.6 193.9,63.1 193.7,63.5 193.4,63.8 193.1,64.1 192.7,64.3 192.3,64.4 191.8,64.5 191.4,64.4 190.9,64.3 
			190.6,64.1 190.3,63.8 190,63.5 189.8,63.1 189.7,62.6 189.6,62.2 189.6,62.1 189,62.1 189,62.1 		"/>
		<polygon class="st3" points="190.8,62.1 190.8,63.3 191.3,63.3 191.3,62.3 191.8,62.3 192.4,63.3 192.8,63.3 192.2,62.3 
			192.4,62.3 192.5,62.2 192.6,62.2 192.7,62.1 192.7,62.1 190.8,62.1 190.8,62.1 		"/>
		<rect x="86.7" y="27.8" class="st7" width="3.6" height="3.8"/>
	</g>
</g>
<g id="Capa_8" class="st0">
	<g class="st2">
		<path class="st4" d="M200.8-74H0v200h200.8V60c0.8-1.1,1.2-2.6,1.2-4.4c0-2-0.4-3.3-1.2-4.4"/>
		<path class="st9" d="M18,12.5l-3.8-9.3l-3.8,9.3 M102.4,8.8c-0.8,0.5-1.7,0.5-2.8,0.5h-6.8V4.1h6.9c1,0,2,0,2.7,0.4
			c0.7,0.3,1.2,1.1,1.2,2.1C103.6,7.6,103.1,8.4,102.4,8.8z M151,12.5l-3.9-9.3l-3.9,9.3H151z M60.5,22.7h-5.7l0-18.4l-8.1,18.4
			h-4.9L33.5,4.3v18.4H22.1L20,17.4H8.3l-2.2,5.2H0.1l10-23.4h8.3l9.5,22.2V-0.8h9.1l7.3,15.9l6.7-15.9h9.3L60.5,22.7L60.5,22.7z
			 M83.4,22.7H64.7V-0.8h18.7v4.9H70.3v4.2H83v4.8H70.3v4.7h13.1V22.7z M109.7,5.5c0,3.7-2.5,5.7-3.9,6.2c1.2,0.5,2.3,1.3,2.8,2
			c0.8,1.2,0.9,2.2,0.9,4.3v4.6h-5.6l0-3c0-1.4,0.1-3.4-0.9-4.6c-0.8-0.8-2.1-1-4.1-1h-6v8.5h-5.6V-0.8h12.9c2.9,0,5,0.1,6.8,1.1
			C108.7,1.4,109.7,2.9,109.7,5.5z M118.7,22.7H113V-0.8h5.7V22.7z M185,22.7h-7.9L166.5,5.1v17.6H155l-2.2-5.2h-11.6l-2.1,5.2h-6.6
			c-2.7,0-6.2-0.6-8.1-2.6c-2-2-3-4.7-3-8.9c0-3.5,0.6-6.7,3-9.2c1.8-1.9,4.6-2.7,8.5-2.7h5.4v5h-5.3c-2,0-3.2,0.3-4.3,1.4
			c-1,1-1.6,2.9-1.6,5.3c0,2.5,0.5,4.3,1.5,5.5c0.9,0.9,2.4,1.2,3.9,1.2h2.5L143-0.8h8.4l9.5,22.2V-0.8h8.5l9.8,16.3V-0.8h5.7V22.7
			L185,22.7z M0,27.3h9.6l2.2-5.2h4.8l2.2,5.2h18.8v-4l1.7,4H49l1.7-4.1v4h46.8l0-8.5h0.9c0.6,0,0.8,0.1,0.8,1.1v7.4h24.2v-2
			c2,1,5,2,9,2h10.2l2.2-5.2h4.8l2.1,5.2h19.6v-4.9l3,4.9H190V-5.4h-15.6v3.9l-2.2-3.9h-16v3.9l-2-3.9h-21.6c-3.6,0-6.8,0.5-9.3,1.9
			v-1.9h-14.9v1.9c-1.6-1.4-3.9-1.9-6.3-1.9H47.8L44.1,3l-3.7-8.4H23.3v3.9l-1.9-3.9H6.8L0,10.1L0,27.3L0,27.3z"/>
		<path class="st9" d="M200,44.5h-10.2c-1,0-1.7,0-2.3,0.4c-0.6,0.4-0.8,0.9-0.8,1.7c0,0.9,0.5,1.5,1.2,1.7c0.6,0.2,1.2,0.3,2.2,0.3
			l3,0.1c3.1,0.1,5.1,0.6,6.4,1.9c0.2,0.2,0.4,0.4,0.5,0.6 M200,60c-1.4,2-4,3-7.6,3h-10.8v-5h10.8c1.1,0,1.8-0.1,2.3-0.6
			c0.4-0.4,0.7-0.9,0.7-1.5c0-0.7-0.3-1.2-0.7-1.6c-0.4-0.4-1-0.5-2-0.5c-5.3-0.2-11.8,0.2-11.8-7.3c0-3.4,2.2-7,8-7H200v-4.7h-10.4
			c-3.1,0-5.4,0.7-7,1.9v-1.9h-15.3c-2.5,0-5.3,0.6-6.7,1.9v-1.9h-27.4v1.9c-2.2-1.6-5.9-1.9-7.6-1.9h-18.1v1.9
			c-1.7-1.7-5.6-1.9-7.9-1.9H79.5l-4.6,5l-4.3-5H40.3v32.7H70l4.8-5.1l4.5,5.1l18.3,0v-7.7h1.8c2.4,0,5.3-0.1,7.8-1.1v8.8h15.1v-8.5
			h0.7c0.9,0,1,0,1,1v7.6h45.8c2.9,0,5.9-0.7,7.6-2.1v2.1h14.5c3,0,6-0.4,8.2-1.5V60L200,60z M177.7,50.6c1.1,1.1,1.7,2.6,1.7,5
			c0,5-3.2,7.4-8.8,7.4h-10.9v-5h10.9c1.1,0,1.8-0.1,2.3-0.6c0.4-0.4,0.7-0.9,0.7-1.5c0-0.7-0.3-1.2-0.7-1.6c-0.4-0.4-1-0.5-2-0.5
			c-5.2-0.2-11.8,0.2-11.8-7.3c0-3.4,2.1-7,8-7h11.2v5h-10.3c-1,0-1.7,0-2.2,0.4c-0.6,0.4-0.8,0.9-0.8,1.7c0,0.9,0.5,1.5,1.2,1.7
			c0.6,0.2,1.2,0.3,2.2,0.3l3,0.1C174.3,48.8,176.4,49.3,177.7,50.6z M127.1,49.2c-0.7,0.4-1.7,0.5-2.8,0.5h-6.8v-5.3h6.9
			c1,0,2,0,2.7,0.4c0.7,0.4,1.2,1.1,1.2,2.1C128.3,47.9,127.8,48.7,127.1,49.2z M130.5,52.1c1.2,0.5,2.3,1.3,2.7,2
			c0.8,1.1,0.9,2.2,0.9,4.3V63h-5.6v-2.9c0-1.4,0.1-3.5-0.9-4.6c-0.8-0.8-2.1-1-4.1-1h-6V63h-5.6V39.6h12.9c2.8,0,4.9,0.1,6.7,1.1
			c1.8,1.1,2.9,2.5,2.9,5.2C134.5,49.6,132,51.5,130.5,52.1z M137.6,39.6h18.7v4.8h-13.1v4.3h12.8v4.8h-12.8v4.7l13.1,0V63h-18.7
			V39.6z M99.8,50.4h-7.2v-6h7.3c2,0,3.4,0.8,3.4,2.9C103.3,49.3,101.9,50.4,99.8,50.4z M87,60.9l-8.6-9.5l8.6-9.2V60.9z M64.8,58.1
			H51v-4.7h12.3v-4.8H51v-4.3h14l6.1,6.8L64.8,58.1z M109.3,47.3c0,6.5-4.9,7.9-9.8,7.9h-7V63H81.7l-6.9-7.8L67.6,63H45.4V39.6h22.5
			l6.9,7.7l7.1-7.7h17.9C104.3,39.6,109.3,40.8,109.3,47.3z"/>
	</g>
</g>
<g id="Capa_9">
	<g id="XMLID_4_">
		<g id="XMLID_12_">
			<g id="XMLID_13_">
				<g id="XMLID_14_">
					<g id="XMLID_15_">
						<path id="XMLID_57_" class="st4" d="M76.1,22.9c-0.6,4-3.6,4-6.6,4h-1.7l1.2-7.4c0.1-0.4,0.5-0.8,0.9-0.8h0.8
							c2,0,3.9,0,4.9,1.1C76.1,20.5,76.3,21.5,76.1,22.9z M74.8,12.5H63.7c-0.8,0-1.4,0.6-1.5,1.3l-4.5,28.4
							c-0.1,0.6,0.3,1.1,0.9,1.1h5.3c0.8,0,1.4-0.6,1.5-1.3l1.2-7.7c0.1-0.7,0.8-1.3,1.5-1.3h3.5c7.3,0,11.5-3.5,12.6-10.5
							c0.5-3.1,0-5.5-1.4-7.1C81.3,13.5,78.5,12.5,74.8,12.5z"/>
						<path id="XMLID_54_" class="st4" d="M100.5,33.1c-0.5,3-2.9,5.1-6,5.1c-1.5,0-2.8-0.5-3.6-1.4c-0.8-0.9-1.1-2.3-0.8-3.7
							c0.5-3,2.9-5.1,5.9-5.1c1.5,0,2.7,0.5,3.5,1.4C100.4,30.3,100.7,31.6,100.5,33.1z M107.9,22.7h-5.3c-0.5,0-0.8,0.3-0.9,0.8
							l-0.2,1.5l-0.4-0.5c-1.1-1.7-3.7-2.2-6.3-2.2c-5.9,0-10.9,4.4-11.8,10.7c-0.5,3.1,0.2,6.1,2,8.1c1.6,1.9,3.9,2.7,6.7,2.7
							c4.7,0,7.3-3,7.3-3l-0.2,1.5c-0.1,0.6,0.3,1.1,0.9,1.1h4.8c0.8,0,1.4-0.6,1.5-1.3l2.9-18.1C108.9,23.2,108.4,22.7,107.9,22.7z
							"/>
						<path id="XMLID_33_" class="st4" d="M136.1,22.7h-5.3c-0.5,0-1,0.3-1.3,0.7l-7.3,10.8L119,23.8c-0.2-0.7-0.8-1.1-1.5-1.1h-5.2
							c-0.6,0-1.1,0.6-0.9,1.2l5.9,17.2l-5.5,7.8c-0.4,0.6,0,1.5,0.8,1.5h5.3c0.5,0,1-0.2,1.3-0.7l17.7-25.6
							C137.3,23.6,136.8,22.7,136.1,22.7z"/>
						<path id="XMLID_38_" class="st4" d="M155,22.9c-0.6,4-3.6,4-6.6,4h-1.7l1.2-7.4c0.1-0.4,0.5-0.8,0.9-0.8h0.8
							c2,0,3.9,0,4.9,1.1C155,20.5,155.2,21.5,155,22.9z M153.7,12.5h-11.1c-0.8,0-1.4,0.6-1.5,1.3l-4.5,28.4
							c-0.1,0.6,0.3,1.1,0.9,1.1h5.7c0.5,0,1-0.4,1.1-0.9l1.3-8c0.1-0.7,0.8-1.3,1.5-1.3h3.5c7.3,0,11.5-3.5,12.6-10.5
							c0.5-3.1,0-5.5-1.4-7.1C160.2,13.5,157.4,12.5,153.7,12.5z"/>
						<path id="XMLID_21_" class="st4" d="M179.4,33.1c-0.5,3-2.9,5.1-6,5.1c-1.5,0-2.8-0.5-3.6-1.4c-0.8-0.9-1.1-2.3-0.8-3.7
							c0.5-3,2.9-5.1,5.9-5.1c1.5,0,2.7,0.5,3.5,1.4C179.3,30.3,179.7,31.6,179.4,33.1z M186.8,22.7h-5.3c-0.5,0-0.8,0.3-0.9,0.8
							l-0.2,1.5l-0.4-0.5c-1.1-1.7-3.7-2.2-6.3-2.2c-5.9,0-10.9,4.4-11.8,10.7c-0.5,3.1,0.2,6.1,2,8.1c1.6,1.9,3.9,2.7,6.7,2.7
							c4.7,0,7.3-3,7.3-3l-0.2,1.5c-0.1,0.6,0.3,1.1,0.9,1.1h4.8c0.8,0,1.4-0.6,1.5-1.3l2.9-18.1C187.8,23.2,187.4,22.7,186.8,22.7z
							"/>
						<path id="XMLID_28_" class="st4" d="M193.1,13.3l-4.5,28.9c-0.1,0.6,0.3,1.1,0.9,1.1h4.6c0.8,0,1.4-0.6,1.5-1.3l4.5-28.4
							c0.1-0.6-0.3-1.1-0.9-1.1H194C193.5,12.5,193.1,12.8,193.1,13.3z"/>
						<path id="XMLID_27_" class="st10" d="M11.8,48.8l0.8-5.4l-1.9,0h-9L8,3.7c0-0.1,0.1-0.2,0.2-0.3c0.1-0.1,0.2-0.1,0.3-0.1h15.2
							c5,0,8.5,1,10.3,3.1c0.9,1,1.4,2,1.7,3.1c0.3,1.2,0.3,2.6,0,4.3l0,0.1V15l0.9,0.5c0.7,0.4,1.3,0.8,1.7,1.3
							c0.7,0.8,1.2,1.9,1.4,3.1c0.2,1.3,0.1,2.8-0.2,4.6c-0.4,2-1,3.7-1.9,5.2c-0.8,1.3-1.8,2.4-3,3.2c-1.1,0.8-2.5,1.4-4,1.8
							c-1.5,0.4-3.1,0.6-5,0.6h-1.2c-0.8,0-1.7,0.3-2.3,0.8c-0.6,0.6-1.1,1.3-1.2,2.1l-0.1,0.5l-1.5,9.5l-0.1,0.3
							c0,0.1,0,0.2-0.1,0.2c0,0-0.1,0.1-0.2,0.1H11.8z"/>
						<path id="XMLID_26_" class="st4" d="M37.3,14c0,0.3-0.1,0.6-0.2,0.9c-2,10.3-8.9,13.8-17.6,13.8h-4.5c-1.1,0-2,0.8-2.1,1.8
							L10.7,45L10,49.1c-0.1,0.7,0.4,1.3,1.1,1.3h7.9c0.9,0,1.7-0.7,1.9-1.6l0.1-0.4l1.5-9.4l0.1-0.5c0.1-0.9,0.9-1.6,1.9-1.6h1.2
							c7.7,0,13.6-3.1,15.4-12.1c0.7-3.8,0.4-6.9-1.6-9.1C38.9,15,38.1,14.4,37.3,14z"/>
						<path id="XMLID_25_" class="st11" d="M35.2,13.2c-0.3-0.1-0.6-0.2-0.9-0.2c-0.3-0.1-0.7-0.1-1-0.2c-1.2-0.2-2.5-0.3-3.9-0.3
							H17.4c-0.3,0-0.6,0.1-0.8,0.2c-0.5,0.3-1,0.8-1.1,1.4l-2.5,16L13,30.5c0.2-1.1,1.1-1.8,2.1-1.8h4.5c8.7,0,15.6-3.6,17.6-13.8
							c0.1-0.3,0.1-0.6,0.2-0.9c-0.5-0.3-1.1-0.5-1.6-0.7C35.5,13.2,35.4,13.2,35.2,13.2z"/>
						<path id="XMLID_24_" class="st4" d="M15.6,14c0.1-0.6,0.5-1.2,1.1-1.4c0.3-0.1,0.5-0.2,0.8-0.2h11.9c1.4,0,2.7,0.1,3.9,0.3
							c0.3,0.1,0.7,0.1,1,0.2c0.3,0.1,0.6,0.2,0.9,0.2c0.2,0,0.3,0.1,0.4,0.1c0.6,0.2,1.1,0.4,1.6,0.7c0.6-3.8,0-6.4-2.1-8.7
							C33,2.7,28.9,1.6,23.7,1.6H8.5c-1.1,0-2,0.8-2.1,1.8L0,43.5C-0.1,44.3,0.5,45,1.3,45h9.4L13,30.1L15.6,14z"/>
					</g>
				</g>
			</g>
		</g>
	</g>
</g>
</svg>
