<?xml version="1.0" encoding="utf-8"?>
<!-- Generator: Adobe Illustrator 21.0.0, SVG Export Plug-In . SVG Version: 6.00 Build 0)  -->
<svg version="1.1" xmlns="http://www.w3.org/2000/svg" xmlns:xlink="http://www.w3.org/1999/xlink" x="0px" y="0px"
	 viewBox="0 0 200 52.1" style="enable-background:new 0 0 200 52.1;" xml:space="preserve">
<style type="text/css">
	.st0{display:none;}
	.st1{display:inline;}
	.st2{fill-rule:evenodd;clip-rule:evenodd;fill:#808080;}
	.st3{fill:#808080;}
	.st4{display:inline;fill-rule:evenodd;clip-rule:evenodd;fill:#808080;}
</style>
<g id="Capa_1" class="st0">
	<g class="st1">
		<polygon class="st2" points="10.9,20.9 19.7,20.9 19.7,31.4 33.6,31.4 33.6,20.9 42.4,20.9 52.8,40.1 44.1,40.1 39.1,31 
			26.7,40.1 14.2,31 9.2,40.1 0.5,40.1 		"/>
		<polygon class="st2" points="52.9,20.9 52.9,12.2 0.5,12.2 0.5,20.9 9.2,20.9 10.1,19.1 21.4,19.1 21.4,29.6 31.9,29.6 31.9,19.1 
			43.2,19.1 44.1,20.9 		"/>
		<polygon class="st3" points="190.6,17.4 183.3,25.6 191.3,34.9 184.8,34.9 180.1,29.1 175,34.9 169.2,34.9 177.3,25.8 170.5,17.4 
			176.2,17.4 180.5,22.3 184.8,17.4 		"/>
		<polygon class="st3" points="155,23.6 165.9,23.6 165.9,27.2 155,27.1 155,31.4 167.9,31.4 167.9,34.9 150.3,34.9 150.3,17.4 
			167.9,17.4 167.9,20.9 155,20.9 		"/>
		<polygon class="st3" points="87,23.6 98,23.6 98,27.2 87,27.1 87,31.4 99.9,31.4 99.9,34.9 82.4,34.9 82.4,17.4 99.9,17.4 
			99.9,20.9 87,20.9 		"/>
		<polygon class="st3" points="122.8,17.4 130.9,17.4 134.9,27.4 138.9,17.4 147.2,17.4 147.2,34.9 142.4,34.9 142.4,20.9 
			136.5,34.9 133.1,34.9 127.4,20.9 127.4,34.9 122.8,34.9 		"/>
		<polygon class="st3" points="61.6,17.4 80.1,17.4 80.1,20.9 73.1,20.9 73.1,34.9 68.5,34.9 68.5,20.9 61.6,20.9 		"/>
		<polygon class="st3" points="103.1,17.4 107.9,17.4 107.9,31.4 120.7,31.4 120.7,34.9 103.1,34.9 		"/>
		<path class="st2" d="M194.7,31h1.8c0.3,0,0.5,0,0.7,0.1c0.4,0.2,0.5,0.5,0.5,0.9c0,0.2,0,0.4-0.1,0.6c-0.1,0.1-0.2,0.3-0.4,0.4
			c0.1,0.1,0.3,0.1,0.3,0.2c0.1,0.1,0.1,0.3,0.1,0.5l0,0.5c0,0.1,0,0.3,0,0.3c0,0.1,0.1,0.2,0.2,0.2v0.1h-0.6c0,0,0-0.1,0-0.1
			c0-0.1,0-0.2,0-0.3l0-0.6c0-0.3-0.1-0.4-0.3-0.5c-0.1,0-0.3-0.1-0.5-0.1h-1.2v1.7h-0.5V31 M196.4,32.8c0.2,0,0.4-0.1,0.6-0.1
			c0.1-0.1,0.2-0.3,0.2-0.5c0-0.3-0.1-0.5-0.3-0.6c-0.1-0.1-0.2-0.1-0.4-0.1h-1.3v1.3H196.4 M196,30c-1.7,0-3.1,1.4-3.1,3.1
			c0,1.7,1.4,3.1,3.1,3.1s3.1-1.4,3.1-3.1C199.1,31.4,197.7,30,196,30 M196,29.6c1.9,0,3.5,1.6,3.5,3.5c0,1.9-1.6,3.5-3.5,3.5
			c-1.9,0-3.5-1.6-3.5-3.5C192.6,31.2,194.1,29.6,196,29.6z"/>
	</g>
</g>
<g id="Capa_2" class="st0">
	<g class="st1">
		<g>
			<path class="st2" d="M150.9,36.6C150.9,36.6,150.9,36.6,150.9,36.6L150.9,36.6L150.9,36.6L150.9,36.6z M150.9,36.6L150.9,36.6
				C150.9,36.6,150.9,36.6,150.9,36.6L150.9,36.6L150.9,36.6L150.9,36.6z M144.4,29.2L144.4,29.2c0.1,0,0.1,0,0.1,0
				C144.5,29.2,144.5,29.2,144.4,29.2L144.4,29.2L144.4,29.2L144.4,29.2z M136.3,14.9h7.4c3.5,0,4.6,1.9,4.6,3.5
				c0,2.4-2.1,4.5-6.6,4.5h-7L136.3,14.9L136.3,14.9L136.3,14.9z M149.6,37.1l0.1-0.7c0.4-2.6-0.5-4.2-1.2-5.2c-1-1.2-2.5-2-4-2
				c0,0-0.1,0-0.1,0h-11.2l0.3-1.3c0,0,10.9,0,11,0c0,0,0,0,0,0c3.9-0.1,6.4-1.9,7.8-3.5c1.8-2,2.9-4.7,2.9-7.3c0-2-0.7-3.8-1.9-5.1
				c-1.3-1.4-3.3-2.2-5.8-2.2h-16l-8.2,38.2h5.7l3.1-13.8h7.4c1.1,0,4.9-0.5,3.8,4.1c-0.3,1.6-1,5.7,0,9.7c0.8,0,3.7,0,6.6,0
				C148.6,44.7,149,40.7,149.6,37.1L149.6,37.1L149.6,37.1z M162,15.9c0-8.3-5.3-12.1-14.5-12.1c-10.5,0-21.7,0-21.7,0l-9.7,44.2
				h5.9l8.5-39.4h17c2.8,0,5.1,0.9,6.7,2.6c1.4,1.5,2.2,3.6,2.2,6c0,2.9-1.2,5.9-3.2,8.1c-1.2,1.3-3,2.7-5.7,3.4
				c0.7,0.4,1.4,1,1.9,1.6c0.9,1.2,2,3.2,1.5,6.2l0-0.1c0,0,0,0,0,0.1v0c0,0,0,0,0,0c0,0.1,0,0.3-0.1,0.7c-0.5,3.5-1,7.5,0.3,10.7
				c2.9,0,5.5,0,5.5,0c-0.3-1-1-2.3-0.2-5.6c0.9-3.7,2.2-10.9-2.5-13.4C155.2,28.5,162,25.6,162,15.9L162,15.9L162,15.9z M17.1,44
				c8.1,0,13.6-3.6,14.6-9.6c0.7-4.5-3.3-6-7.9-7.2c-0.9-0.2-1.6-0.5-2.6-0.7c-4-1-11.6-3-11.1-9.8c0.6-8.8,10.7-9.5,13.8-9.5
				c4.5,0,7.7,1.5,9.5,4.4c1.4,2.3,1.5,4.9,1.6,6.1v0.1l5.9,0c0-9-3.9-15.1-15.7-15.1C14.5,2.6,6,7.1,4.4,16.6
				C1.6,33.6,25.3,28.3,24.2,35c-0.3,2.1-2.2,4-5.7,4c-1.4,0-2.8-0.4-3.8-1.1c-1.1-0.7-2.1-1.9-2-6.6H6.9c-0.1,4.4,0.3,7,1.5,8.7
				C11,43.8,16.1,44,17.1,44L17.1,44L17.1,44z M16.7,49.5c11.7,0.1,20.5-4.6,22.1-14.9c2.5-16.8-22.1-11.9-21.2-19.1
				c0.2-1.6,1.7-2.8,4.8-2.8c1.3,0,2.5,0.3,3.4,0.8c0.9,0.6,1.5,1.5,1.8,4.2l6.1,0v-0.1c-0.1-1-0.2-3.4-1.4-5.4
				c-1.5-2.5-4.4-3.8-8.4-3.8c-2.8,0-12.1,0.6-12.6,8.3c-0.4,5.7,5.9,7.4,10.2,8.5c1,0.3,1.8,0.5,2.7,0.7c3.7,1,9.8,2.6,8.7,8.7
				c-1.1,6.7-7,10.7-15.8,10.7c-1.1,0-6.7-0.2-9.6-4.5c-1.4-1.8-1.9-4.8-1.8-9.4H0.2c-0.1,1-0.2,2.1-0.2,3
				C0,43.7,5.3,49.4,16.7,49.5L16.7,49.5L16.7,49.5z M95,3.9L69.9,48.1h5.7l24.9-44.2H95L95,3.9L95,3.9z M93.4,29.1l5.5-9.8l1.6,9.8
				H93.4L93.4,29.1L93.4,29.1z M107.9,3.9H102L77,48.1h5.7l4.2-7.2h15.2l1.3,7.2h5.3l-2.2-12.5H89.8l0.7-1.3h15.9l-3.8-21.6l1-1.8
				l6.4,37.3h5.4L107.9,3.9L107.9,3.9L107.9,3.9z M46.3,41.8h24.2l1-4.5H52.7l1.4-5.9h17.7l1-4.9H55.2l0.3-1.3H73l1-4.8H56.5
				l1.4-5.6h18.5l1-4.6h-24L46.3,41.8L46.3,41.8L46.3,41.8z M47.2,3.8l-9.8,44.3H69l1.1-5H44.7L52.5,9h25.2l1.2-5.2H47.2L47.2,3.8
				L47.2,3.8z M191.5,12.3c-1.6-2.5-4.4-3.8-8.5-3.8c-2.8,0-12.1,0.6-12.6,8.3c-0.4,5.7,6,7.4,10.2,8.5c1,0.3,1.8,0.5,2.7,0.7
				c3.7,1,9.8,2.6,8.8,8.7c-1.1,6.7-7,10.7-15.8,10.7c-1.1,0-6.7-0.2-9.6-4.5c-1.4-1.8-1.9-4.8-1.8-9.4h-5.5
				c-1.2,11.2,4,18.1,16.5,18.2c11.7,0.1,20.6-4.6,22.1-14.9c2.5-16.8-22.1-11.9-21.2-19.1c0.2-1.6,1.7-2.8,4.7-2.8
				c1.4,0,2.6,0.3,3.5,0.8c0.9,0.6,1.5,1.5,1.8,4.2l6.1,0v-0.1C192.8,16.6,192.7,14.3,191.5,12.3L191.5,12.3L191.5,12.3z M184.3,2.6
				c-10.6,0-19.1,4.5-20.7,14c-2.9,17,20.8,11.7,19.7,18.5c-0.4,2.1-2.2,4-5.7,4c-1.3,0-2.7-0.4-3.8-1.1c-1-0.7-2.1-1.9-2-6.6h-5.8
				c-0.1,4.3,0.4,7.1,1.6,8.7c2.5,3.8,7.6,4,8.6,4c8.1,0,13.6-3.6,14.6-9.6c0.8-4.5-3.3-6-7.9-7.2c-0.9-0.2-1.6-0.5-2.6-0.7
				c-4-1-11.5-3-11.1-9.8c0.6-8.8,10.7-9.5,13.8-9.5c4.5,0,7.7,1.5,9.5,4.4c1.4,2.3,1.5,4.9,1.5,6.1v0.1l5.9,0
				C199.9,8.7,196.1,2.6,184.3,2.6L184.3,2.6z"/>
		</g>
	</g>
</g>
<g id="Capa_3" class="st0">
	<path class="st4" d="M16.1,17.6c0,0-7.7,3.1-8,4.9c0,0-1.5,2.2,4.3,1.7c0,0,17.3-1.7,17.9,6.1c0,0,0.2,3.1-3.1,5.8
		c0,0-7.6,7.1-21,4.8c0,0-6.1-0.4-5.9-4c0,0,0.9-1.7,3.3,0c0,0,12.3,3.1,18.2-1.8c0,0,2.6-2.5,0.7-3.7c0,0-3.5-1.8-8.1-1.9
		c0,0-13.7,1.6-14.4-4c0,0-1.2-4.8,7.2-9.4c0,0,12.4-6,23.1-5.6c0,0,5.9-1.6,6.3,3.4c0,0-2.1,4.7-9.9,5.1c0,0-7.7,0.3-8.4-1.6
		C18.4,17.4,18.1,16.9,16.1,17.6L16.1,17.6z M25.6,16.7c0,0,2.2-0.3,1.7-1.9c0,0-2.7-1.3-5.1,0.8C22.1,15.7,21.1,17.3,25.6,16.7
		L25.6,16.7z M51.6,27.7c0,0,0.7-3-7.7-2c0,0-12.5,2.2-12.3,10.8c0,0,1.3,6.8,8.5,3.6c0,0,4.7-2.5,5.9-3.3c0,0,0.4,5.5,6,4.9
		c0,0,3.7,0.3,7-4.2c0,0,3.4-4.3,4.1-4.1c0,0,1.8-0.2,0.6,1.7c0,0-2.6,4.2,1.1,5c0,0,4,1.4,6.3-2.2c0,0,3.6-5.5,5.7-5.5
		c0,0,0.8,0.3-0.5,2.2c0,0-2,5.5,3.6,5.9c0,0,5.5,0.5,6.4-1.9c0,0,1.1-2.3-1.8-0.8c0,0-3.9,2.3-2.4-1.2c0,0,5.9-7.7,0.2-9.8
		c0,0-3-1.4-5.2,0.2c0,0-3.3,3.5-4.7,3.7c0,0-1.2,0.2-1.4-2.3c0,0-1.2-3.8-5.9-1.5c0,0-3,2.6-8.6,9.3c0,0-5.1,5.2-3.8,0.1
		c0,0,3.7-5.8-0.2-7.1c0,0-2.2-1-5.6,2.4c0,0-6.8,6-8.5,6c0,0-2.1-0.3,0.9-4.2c0,0,3.3-4.4,8.9-4.8C48.2,28.8,51.6,28.8,51.6,27.7
		L51.6,27.7z M98,25.8c-1.3,3.6,1.4,0.8,1.4,0.8c6.5-3.4,6.5,3.5,6.5,3.5c1.3,1.7,3.8-0.4,3.8-0.4c1.3-0.8,2.8-2.4,2.8-2.4
		c4.2-3.8,6.9-0.9,6.9-0.9c0.6,1.7,2.2,0.4,2.2,0.4c5.4-1.6,4.3,2.5,4.3,2.5c-1.6,0.4-0.7,2.2-0.7,2.2c0.6,2.2,3.9-1.3,3.9-1.3
		c1.9-0.5,0.9-3.1,0.9-3.1c0.1-2.1,2.7-1.3,2.7-1.3c1.8,1.4,4.3,0.3,4.3,0.3c4.2-0.2,3.8,2,3.8,2c1.6,1.6,0,3.4,0,3.4
		c-2.9,2.7-3,5.8-3,5.8c0.2,3.5,7.2-4.7,7.2-4.7c5.4-7.6,10.1-6.4,10.1-6.4c4.3-0.1,3.1,6.4,3.1,6.4l5.3-4.9
		c1.9-2.6,4.6-1.8,4.6-1.8c5.9,1.5,1.5,8.7,1.5,8.7c-1.2,2.9,1.7,1.8,1.7,1.8c2-2.8,6.7-7.2,6.7-7.2c7.6-6.9,11.3-5.2,11.3-5.2
		c2.9,0.6,0.4,2.9,0.4,2.9c-1.5,2.1-0.4,5.9-0.4,5.9l10.6,0.1l-3.1,3.7l-8.9-0.1c-1.5,3.1-5.7,3.1-5.7,3.1c-5.1-0.5-5.6-4.7-5.6-4.7
		c-0.8-0.1-3.8,3.1-3.8,3.1c-2,2.6-7.9,0.6-7.9,0.6c-3.1-0.9-1.1-6-1.1-6c-0.9-0.8-5.7,4.6-5.7,4.6c-2.6,3.9-6,2.3-6,2.3
		c-4-1.2-1.6-6-1.6-6c1.5-2.4,1.1-3,1.1-3c-2.2,1.3-6.1,6.1-6.1,6.1c-8,7.8-13.2,1.8-13.2,1.8c-2.5-3.8,3.3-8.7,3.3-8.7
		c-1.3-0.9-2.4,0.1-2.4,0.1c-3.6,6.5-10.1,5.9-10.1,5.9c-1.8,3.2-6.1,4.5-6.1,4.5c-11.1,2.9-8.5-6.1-8.5-6.1
		c-2.8,0.8-3.3-0.1-3.3-0.1c-0.2,0.7-2.2,1-2.2,1s-4.2,5.7-9,5.8c-4.8,0.1-6.2-2.7-5.5-7.5c0.7-4.7,7-14,7-14c-0.9,0.5-2-0.2-2-0.2
		c-0.8-1.8,4.8-4.1,4.8-4.1c4.5-2,3,0.9,3,0.9L98,25.8L98,25.8z M94.7,32.6c-1.9,5.8,0.3,6.3,0.3,6.3c2.1-0.1,3.8-4,3.8-4
		c0.5-2.1-1.8-4.7-1.8-4.7C95.7,29.8,94.7,32.6,94.7,32.6L94.7,32.6z M115.3,31.7c-3.1,8.3,0.9,6.4,0.9,6.4c3.2-1.9,3.2-4.3,3.2-4.3
		c0.1-1.5-1.6-4-1.6-4C116.7,29.1,115.3,31.7,115.3,31.7L115.3,31.7z M183.5,28.4c0,0-3.7,1-3.8,4.2c0,0,1.8,0.9,3.3-0.3
		C183,32.2,183.6,29.3,183.5,28.4L183.5,28.4z"/>
</g>
<g id="Capa_4">
	<g>
		<path class="st2" d="M26.5,14.8c-3.1,0-5.8,1.1-8,3.3c-2.2,2.2-3.3,4.9-3.3,8c0,3.2,1.1,5.8,3.3,8c2.2,2.3,4.9,3.4,8,3.4
			c3.1,0,5.8-1.1,8-3.4c2.2-2.2,3.3-4.8,3.3-8c0-3.1-1.1-5.8-3.3-8C32.3,15.9,29.6,14.8,26.5,14.8L26.5,14.8z"/>
		<path class="st2" d="M26.5,12.8V0C22,0,17.7,1.2,13.7,3.4v19.5c0.7-2.9,2.3-5.3,4.6-7.1C20.8,13.8,23.5,12.8,26.5,12.8L26.5,12.8z
			"/>
		<path class="st2" d="M23.8,39.2c-3-0.7-5.4-2.3-7.2-4.7c-2-2.4-2.9-5.1-2.9-8.2H0.5c0,4.6,1.2,8.9,3.5,12.8H23.8L23.8,39.2z"/>
		<path class="st2" d="M39.5,29.4c-0.7,2.9-2.2,5.3-4.6,7.2c-2.4,1.9-5.2,2.9-8.3,2.9v12.6c4.6,0,8.9-1.1,12.8-3.4V29.4L39.5,29.4z"
			/>
		<path class="st2" d="M52.6,26c0-4.6-1.2-8.9-3.5-12.8H29.8c3,0.7,5.4,2.3,7.2,4.6c2,2.5,2.9,5.2,2.9,8.3H52.6L52.6,26z"/>
		<polygon class="st2" points="58.6,13.8 58.6,28.9 63.1,28.9 63.1,13.8 58.6,13.8 		"/>
		<polygon class="st2" points="87.1,13.8 82.4,13.8 82.4,24.8 82.4,24.8 73.6,13.8 66.4,13.8 66.4,28.9 71.1,28.9 71.1,17.9 
			71.1,17.9 79.8,28.9 87.1,28.9 87.1,13.8 		"/>
		<path class="st2" d="M94.8,19.8v-2.4h8.3c0.9,0,1.4,0.4,1.4,1.2c0,0.8-0.5,1.2-1.4,1.2H94.8L94.8,19.8z M94.8,22.9h8.4
			c1.1,0,1.7,0.5,1.7,1.3c0,0.8-0.6,1.1-1.7,1.1h-8.4V22.9L94.8,22.9z M106.8,21.3L106.8,21.3c0.8-0.3,1.3-0.6,1.6-1
			c0.5-0.5,0.7-1.4,0.7-2.6c0-1.4-0.5-2.4-1.4-3.1c-0.9-0.6-2.3-0.8-4.2-0.8H90.1v15.1H105c1.5,0,2.6-0.2,3.3-0.7
			c0.8-0.7,1.3-1.8,1.3-3.3c0-1.2-0.2-2.1-0.6-2.6C108.5,21.8,107.8,21.4,106.8,21.3L106.8,21.3z"/>
		<path class="st2" d="M131.4,13.8h-4.6v8.8c0,0.9-0.3,1.6-0.6,2c-0.4,0.5-1.2,0.7-2.1,0.7h-4.6c-1,0-1.6-0.2-2.1-0.7
			c-0.4-0.4-0.5-1.1-0.5-2v-8.8h-4.7v9.7c0,1.9,0.5,3.3,1.5,4.2c1,1,2.6,1.4,4.7,1.4h6.8c2.1,0,3.7-0.4,4.7-1.4
			c1-0.9,1.5-2.3,1.5-4.2V13.8L131.4,13.8z"/>
		<path class="st2" d="M139,21.2v-3.7c2.5,0,4.9,0,7.4,0c1.2,0,2.1,0.2,2.1,1.6c0,0.2,0,0.3,0,0.5c0,1.1-0.6,1.6-1.7,1.6H139
			L139,21.2z M139,25.1h7.4c0.7,0,1.2,0.1,1.5,0.4c0.3,0.3,0.4,0.9,0.4,1.7v1.8h4.7v-2.6c0-1.1-0.2-2-0.7-2.5
			c-0.4-0.4-1-0.7-1.8-0.9c1-0.2,1.7-0.7,2.1-1.3c0.3-0.6,0.5-1.4,0.5-2.5v-0.9c0-1.5-0.3-2.6-0.9-3.3c-0.8-0.9-2-1.2-3.7-1.2h-14.1
			v15.1h4.7V25.1L139,25.1z"/>
		<path class="st2" d="M166,19.5l-4.7-0.2c-0.3,0-0.6-0.2-0.7-0.4c-0.1-0.1-0.2-0.4-0.2-0.7c0-0.8,0.6-1.2,1.8-1.2h5.2
			c1,0,1.7,0.1,2,0.3c0.2,0.2,0.3,0.6,0.3,1.3h4.7v-0.5c0-1.6-0.3-2.7-1-3.3c-0.8-0.9-2.5-1.3-4.9-1.3h-6.6c-2.7,0-4.5,0.5-5.3,1.4
			c-0.6,0.7-0.9,1.9-0.9,3.5c0,1.1,0.1,1.8,0.3,2.4c0.1,0.6,0.5,1,1,1.4c1,0.6,3.1,0.9,6.6,0.9l5.6,0.2c0.4,0,0.7,0.2,0.8,0.4
			l0.2,0.8c0,0.5-0.2,0.9-0.6,1.1l-1.4,0.2h-5.8l-1.5-0.3c-0.3-0.2-0.5-0.7-0.5-1.5h-4.7v1.1c0,1.6,0.5,2.7,1.4,3.3
			c0.8,0.5,2.4,0.8,4.6,0.8h5.7c3.1,0,5.2-0.3,6.1-0.9c0.6-0.3,1-0.8,1.2-1.4c0.2-0.6,0.3-1.5,0.3-2.5c0-1.2-0.1-2-0.4-2.6
			c-0.2-0.7-0.7-1.2-1.3-1.5C172.1,19.7,169.7,19.5,166,19.5L166,19.5z"/>
		<polygon class="st2" points="190.4,13.8 184.4,13.8 176.1,28.9 181.4,28.9 182.7,26.3 184.5,23 187.4,17.3 190.4,23 184.5,23 
			182.7,26.3 192.2,26.3 193.6,28.9 198.8,28.9 190.4,13.8 		"/>
		<path class="st2" d="M96.7,40.9v-1.2l4.3,0v3.8c-0.7,0.5-1.3,0.9-2,1.2c-0.7,0.3-1.4,0.4-2.2,0.4c-1,0-1.9-0.2-2.7-0.6
			c-0.8-0.4-1.4-1-1.8-1.8c-0.4-0.8-0.6-1.7-0.6-2.7c0-1,0.2-1.9,0.6-2.8c0.4-0.9,1-1.5,1.8-1.9c0.8-0.4,1.7-0.6,2.7-0.6
			c0.7,0,1.4,0.1,2,0.4c0.6,0.2,1.1,0.6,1.4,1c0.3,0.4,0.6,1,0.8,1.7l-1.2,0.3c-0.2-0.5-0.3-0.9-0.6-1.2c-0.2-0.3-0.5-0.5-1-0.7
			c-0.4-0.2-0.9-0.3-1.4-0.3c-0.6,0-1.1,0.1-1.6,0.3c-0.4,0.2-0.8,0.4-1.1,0.7c-0.3,0.3-0.5,0.6-0.6,1c-0.3,0.6-0.4,1.3-0.4,2
			c0,0.9,0.2,1.7,0.5,2.3c0.3,0.6,0.8,1.1,1.4,1.4c0.6,0.3,1.2,0.4,1.9,0.4c0.6,0,1.1-0.1,1.7-0.3c0.6-0.2,1-0.5,1.3-0.7v-1.9H96.7
			L96.7,40.9z"/>
		<path class="st2" d="M102.8,44.8v-7.3h1.1v1.1c0.3-0.5,0.5-0.9,0.8-1c0.2-0.2,0.5-0.2,0.8-0.2c0.4,0,0.8,0.1,1.3,0.4l-0.4,1.2
			c-0.3-0.2-0.6-0.3-0.9-0.3c-0.3,0-0.5,0.1-0.7,0.2c-0.2,0.2-0.4,0.4-0.5,0.7c-0.1,0.4-0.2,0.9-0.2,1.4v3.8H102.8L102.8,44.8z"/>
		<path class="st2" d="M112.3,44.8v-1.1c-0.6,0.8-1.3,1.2-2.3,1.2c-0.4,0-0.8-0.1-1.2-0.2c-0.4-0.2-0.7-0.4-0.8-0.6
			c-0.2-0.3-0.3-0.6-0.4-0.9c0-0.2-0.1-0.6-0.1-1.2v-4.5h1.2v4.1c0,0.7,0,1.1,0.1,1.3c0.1,0.3,0.2,0.6,0.5,0.8
			c0.3,0.2,0.6,0.3,0.9,0.3c0.4,0,0.7-0.1,1-0.3c0.3-0.2,0.6-0.5,0.7-0.8c0.1-0.3,0.2-0.8,0.2-1.4v-3.9h1.2v7.3H112.3L112.3,44.8z"
			/>
		<path class="st2" d="M115.4,47.6V37.5h1.1v1c0.3-0.4,0.6-0.7,0.9-0.8c0.3-0.2,0.7-0.3,1.2-0.3c0.6,0,1.2,0.2,1.7,0.5
			c0.5,0.3,0.8,0.8,1.1,1.4c0.2,0.6,0.4,1.2,0.4,1.9c0,0.7-0.1,1.4-0.4,2c-0.3,0.6-0.7,1.1-1.2,1.4c-0.5,0.3-1.1,0.5-1.6,0.5
			c-0.4,0-0.8-0.1-1.1-0.3c-0.3-0.2-0.6-0.4-0.8-0.7v3.6H115.4L115.4,47.6z M116.5,41.2c0,0.9,0.2,1.6,0.6,2.1
			c0.4,0.5,0.8,0.7,1.4,0.7c0.6,0,1-0.2,1.4-0.7c0.4-0.5,0.6-1.2,0.6-2.2c0-0.9-0.2-1.6-0.6-2.1c-0.4-0.5-0.8-0.7-1.4-0.7
			c-0.5,0-1,0.2-1.4,0.7C116.7,39.5,116.5,40.3,116.5,41.2L116.5,41.2z"/>
		<path class="st2" d="M122.8,41.2c0-1.4,0.4-2.4,1.1-3c0.6-0.5,1.4-0.8,2.3-0.8c1,0,1.8,0.3,2.5,1c0.6,0.7,1,1.6,1,2.7
			c0,0.9-0.1,1.7-0.4,2.2c-0.3,0.5-0.7,1-1.2,1.3c-0.5,0.3-1.1,0.4-1.8,0.4c-1,0-1.9-0.3-2.5-1C123.1,43.4,122.8,42.4,122.8,41.2
			L122.8,41.2z M124,41.2c0,0.9,0.2,1.6,0.6,2.1c0.4,0.5,0.9,0.7,1.5,0.7c0.6,0,1.1-0.2,1.5-0.7c0.4-0.5,0.6-1.2,0.6-2.1
			c0-0.9-0.2-1.6-0.6-2.1c-0.4-0.5-0.9-0.7-1.5-0.7c-0.6,0-1.1,0.2-1.5,0.7C124.2,39.5,124,40.2,124,41.2L124,41.2z"/>
		<polygon class="st2" points="135.2,44.8 135.2,34.7 142.1,34.7 142.1,35.9 136.6,35.9 136.6,39 141.3,39 141.3,40.2 136.6,40.2 
			136.6,44.8 135.2,44.8 		"/>
		<path class="st2" d="M143.6,36.1v-1.4h1.2v1.4H143.6L143.6,36.1z M143.6,44.8v-7.3h1.2v7.3H143.6L143.6,44.8z"/>
		<path class="st2" d="M146.8,44.8v-7.3h1.1v1c0.5-0.8,1.3-1.2,2.3-1.2c0.4,0,0.8,0.1,1.2,0.2c0.4,0.2,0.6,0.4,0.8,0.6
			c0.2,0.3,0.3,0.6,0.4,0.9c0,0.2,0.1,0.6,0.1,1.2v4.5h-1.2v-4.5c0-0.5,0-0.9-0.1-1.1c-0.1-0.2-0.3-0.4-0.5-0.6
			c-0.2-0.2-0.5-0.2-0.9-0.2c-0.5,0-1,0.2-1.4,0.5c-0.4,0.3-0.6,1-0.6,1.9v4H146.8L146.8,44.8z"/>
		<path class="st2" d="M159.4,43.9c-0.5,0.4-0.9,0.7-1.3,0.8c-0.4,0.2-0.9,0.2-1.4,0.2c-0.8,0-1.4-0.2-1.9-0.6
			c-0.4-0.4-0.6-0.9-0.6-1.5c0-0.4,0.1-0.7,0.2-1c0.2-0.3,0.4-0.5,0.6-0.7c0.3-0.2,0.6-0.3,0.9-0.4c0.2-0.1,0.6-0.1,1.1-0.2
			c1-0.1,1.7-0.3,2.2-0.4c0-0.2,0-0.3,0-0.3c0-0.5-0.1-0.9-0.4-1.1c-0.3-0.3-0.8-0.4-1.4-0.4c-0.6,0-1,0.1-1.3,0.3
			c-0.3,0.2-0.5,0.6-0.6,1.1l-1.2-0.2c0.1-0.5,0.3-0.9,0.5-1.3c0.3-0.3,0.6-0.6,1.1-0.7c0.5-0.2,1-0.3,1.7-0.3
			c0.6,0,1.1,0.1,1.5,0.2c0.4,0.1,0.7,0.3,0.9,0.6c0.2,0.2,0.3,0.5,0.4,0.8c0,0.2,0.1,0.6,0.1,1.1v1.7c0,1.2,0,1.9,0.1,2.2
			c0.1,0.3,0.2,0.6,0.3,0.9h-1.3C159.5,44.6,159.4,44.3,159.4,43.9L159.4,43.9z M159.3,41.2c-0.5,0.2-1.1,0.3-2,0.5
			c-0.5,0.1-0.9,0.2-1.1,0.2c-0.2,0.1-0.4,0.2-0.5,0.4c-0.1,0.2-0.2,0.4-0.2,0.6c0,0.3,0.1,0.6,0.4,0.8c0.2,0.2,0.6,0.3,1.1,0.3
			c0.5,0,0.9-0.1,1.3-0.3c0.4-0.2,0.6-0.5,0.8-0.9c0.1-0.3,0.2-0.7,0.2-1.2V41.2L159.3,41.2z"/>
		<path class="st2" d="M162.5,44.8v-7.3h1.1v1c0.5-0.8,1.3-1.2,2.3-1.2c0.4,0,0.8,0.1,1.2,0.2c0.4,0.2,0.6,0.4,0.8,0.6
			c0.2,0.3,0.3,0.6,0.4,0.9c0,0.2,0.1,0.6,0.1,1.2v4.5h-1.2v-4.5c0-0.5,0-0.9-0.1-1.1c-0.1-0.2-0.3-0.4-0.5-0.6
			c-0.2-0.2-0.5-0.2-0.9-0.2c-0.5,0-1,0.2-1.4,0.5c-0.4,0.3-0.6,1-0.6,1.9v4H162.5L162.5,44.8z"/>
		<path class="st2" d="M175.1,42.1l1.2,0.2c-0.1,0.8-0.5,1.5-1,2c-0.5,0.5-1.2,0.7-2,0.7c-1,0-1.8-0.3-2.4-1
			c-0.6-0.7-0.9-1.6-0.9-2.8c0-0.8,0.1-1.5,0.4-2.1c0.3-0.6,0.7-1,1.2-1.3c0.5-0.3,1.1-0.4,1.7-0.4c0.8,0,1.4,0.2,2,0.6
			c0.5,0.4,0.8,1,1,1.7l-1.2,0.2c-0.1-0.5-0.3-0.9-0.6-1.1c-0.3-0.2-0.6-0.4-1.1-0.4c-0.6,0-1.1,0.2-1.5,0.7
			c-0.4,0.4-0.6,1.2-0.6,2.1c0,1,0.2,1.7,0.6,2.1c0.4,0.4,0.9,0.7,1.5,0.7c0.5,0,0.9-0.2,1.2-0.4C174.8,43.2,175,42.8,175.1,42.1
			L175.1,42.1z"/>
		<path class="st2" d="M177.4,36.1v-1.4h1.2v1.4H177.4L177.4,36.1z M177.4,44.8v-7.3h1.2v7.3H177.4L177.4,44.8z"/>
		<path class="st2" d="M185.6,42.5l1.3,0.2c-0.2,0.8-0.6,1.3-1.1,1.7c-0.5,0.4-1.2,0.6-2.1,0.6c-1.1,0-1.9-0.3-2.5-1
			c-0.6-0.7-0.9-1.6-0.9-2.8c0-1.2,0.3-2.2,1-2.9c0.6-0.7,1.5-1,2.5-1c1,0,1.8,0.3,2.4,1c0.6,0.7,0.9,1.6,0.9,2.8c0,0.1,0,0.2,0,0.3
			h-5.5c0,0.8,0.3,1.4,0.7,1.8c0.4,0.4,0.9,0.6,1.5,0.6c0.5,0,0.8-0.1,1.2-0.4C185.1,43.4,185.4,43,185.6,42.5L185.6,42.5z
			 M181.5,40.5h4.1c-0.1-0.6-0.2-1.1-0.5-1.4c-0.4-0.5-0.9-0.7-1.5-0.7c-0.6,0-1.1,0.2-1.4,0.6C181.7,39.3,181.5,39.8,181.5,40.5
			L181.5,40.5z"/>
		<path class="st2" d="M188.4,44.8v-7.3h1.1v1.1c0.3-0.5,0.5-0.9,0.8-1c0.2-0.2,0.5-0.2,0.8-0.2c0.4,0,0.8,0.1,1.3,0.4l-0.4,1.2
			c-0.3-0.2-0.6-0.3-0.9-0.3c-0.3,0-0.5,0.1-0.7,0.2c-0.2,0.2-0.4,0.4-0.5,0.7c-0.1,0.4-0.2,0.9-0.2,1.4v3.8H188.4L188.4,44.8z"/>
		<path class="st2" d="M192.7,41.2c0-1.4,0.4-2.4,1.1-3c0.6-0.5,1.4-0.8,2.3-0.8c1,0,1.8,0.3,2.5,1c0.6,0.7,1,1.6,1,2.7
			c0,0.9-0.1,1.7-0.4,2.2c-0.3,0.5-0.7,1-1.2,1.3c-0.5,0.3-1.1,0.4-1.8,0.4c-1,0-1.9-0.3-2.5-1C193,43.4,192.7,42.4,192.7,41.2
			L192.7,41.2z M193.9,41.2c0,0.9,0.2,1.6,0.6,2.1c0.4,0.5,0.9,0.7,1.5,0.7c0.6,0,1.1-0.2,1.5-0.7c0.4-0.5,0.6-1.2,0.6-2.1
			c0-0.9-0.2-1.6-0.6-2.1c-0.4-0.5-0.9-0.7-1.5-0.7c-0.6,0-1.1,0.2-1.5,0.7C194.1,39.5,193.9,40.2,193.9,41.2L193.9,41.2z"/>
	</g>
</g>
</svg>
