<?xml version="1.0" encoding="utf-8"?>
<!-- Generator: Adobe Illustrator 22.1.0, SVG Export Plug-In . SVG Version: 6.00 Build 0)  -->
<svg version="1.1" id="Layer_1" xmlns="http://www.w3.org/2000/svg" xmlns:xlink="http://www.w3.org/1999/xlink" x="0px" y="0px"
	 viewBox="0 0 1121.3 176" style="enable-background:new 0 0 1121.3 176;" xml:space="preserve">
<style type="text/css">
	.st0{fill:#808080;}
	.st1{fill:#808080;}
</style>
<g>
	<path class="st0" d="M1107.8,92c-5.2-1.7-10.7-3.3-15.8-4.6c2.7-3.2,7.4-8.8,10.8-13.5c3.6-4.8,5.3-8.6,5.3-12.4
		c0-3.2-1.2-6.6-3.6-10.7c-4.2-7.5-11.6-14.8-17.9-19.6c-4.6-3.3-11.5-7.3-18.1-7.3c-3.7,0-7.4,1.5-10.4,5.1
		c-3.3,4.4-6.5,9.1-9.3,13.4c-2.3-3.6-6.2-9.6-9.7-14.3c-5.1-6.5-9.1-9.2-15.3-9.2c-11.3,0-23.9,7-30.6,11.5
		c-5.4,3.9-13.6,10.4-13.6,18.4c0,2.4,0.8,5,2.8,7.6c3.2,4.5,6.7,8.9,10,12.9c-4.1,1.1-11.2,2.9-16.7,4.6
		c-10.9,3.5-15.5,8.4-15.5,22.7c0,6.2,0.9,13.3,3.5,21.1c2.7,8.3,8.4,22.6,21.7,18.2c5.2-1.7,10.6-3.6,15.5-5.5
		c-0.3,4.2-0.7,8.3-0.7,14c0,14.4,2.9,18.6,11.9,22.9c8,3.6,18.2,5.2,26.5,5.2c8.7,0,24.2-1,24.2-14.8c0-8.6-0.1-11.2-0.4-16.3
		c3.9,1.5,10.7,4.2,16.3,5.9c3.7,1.2,6.6,1.8,9.3,1.8c4.7,0,8.4-2.3,13.1-7.3c8.2-8.7,15.9-25.5,15.9-36.5
		C1117.2,99.9,1115.1,94.4,1107.8,92z M1011.7,53.1c10-7.2,20.5-8.8,28.3-8.8c3,0,5.6,0.2,7.4,0.5c-5.3,8.2-7.8,14.3-8,17.2
		c-0.2-0.7-1.7-5.1-8-5.1c-6.7,0-13.2,4.2-18,4.2c-3.4,0-4.3-2.8-4.3-4C1009,56,1009.7,54.5,1011.7,53.1z M1000.1,102.8
		c0.1,4.6-0.5,7.4-3.3,8.3c-2.1,0.7-4.4,0-5.5-3.7c-5.3-15.8,0.1-29.7,3-35.7c6,6.9,10.8,11.5,13.7,12.9c-0.5-0.1-1.1,0-1.7,0.3
		C999.2,87.1,999.9,96.9,1000.1,102.8z M1037,143.9c-17.3,0-28.9-9.4-33.4-14c4.1-1.9,8.1-3.6,10.8-5.3c1.9-1.1,3.9-2.2,5.5-3.9
		c-0.2,0.6-0.3,1.3-0.3,2.1c0,7.2,9.6,9.6,15.3,11.3c4.5,1.3,7.4,2.9,7.4,5.8C1042.2,142,1040.9,143.9,1037,143.9z M1056.7,118.2
		c-2.7-2.6-7.7-4.4-17-4.4c-8.4,0-14.9,1.3-18.2,4.2c0.8-1.6,1.2-3.5,1.2-6c0-2.9-0.7-6.3-2.2-10.9c-2.6-7.9-5.9-13.7-9.7-15.8
		c3.8,0.5,8.8-0.9,16.4-6.3c6.8-4.9,11.3-9.8,12.1-14c0.7,3.7,3.6,8,11.1,13.5c6.8,4.9,12.9,7.6,17.2,7.1c-3.4,1.8-6.7,5.9-9.6,14.6
		c-1.6,4.9-2.5,9-2.5,12.5C1055.8,114.9,1056.1,116.7,1056.7,118.2z M1080.1,124.2c-6,8.2-13.4,12.8-17.6,15
		c-0.4-4.8-0.9-9-1.5-12.2c-0.5-2.1-1-4.4-2.2-6.4c0.5,0.4,1.2,0.7,2,1c6.9,2.3,12.2-6.1,15.6-10.9c2.3-3.2,4.3-4.9,6.6-4.9
		c1.6,0,4,1,4,3.5C1086.9,111.9,1084.5,117.8,1080.1,124.2z M1073.7,84.3c-1,0-1.9,0.1-2.9,0.3c1.1-0.8,3-2.8,3-5.9
		c0-4.8-4.4-10.1-7.1-13.7c-2-2.6-3.3-4.8-3.3-6.7c0-2,1.8-3.9,3.9-3.9c1.1,0,2.2,0.4,3.6,1.4c14,10,17.8,24.3,18.8,31
		C1083.4,85.3,1077.2,84.3,1073.7,84.3z M245.4,43.5h-22.4c-15.3-15.8-35.4-24.3-55.9-24.3c-20.8,0.1-40.6,8.6-55.9,24.3H89
		C105.7,18.7,135.7,2,167.2,2C199.2,2,229.2,19.2,245.4,43.5z"/>
	<path class="st1" d="M309.9,57c-9.9,0-19.3,4.7-26.2,11V29.4l-19.1,10.3v114.3h19.1V145c5.2,5.8,15.7,10.8,25.3,10.8
		c19.7,0,39.7-15.4,39.7-47.9C348.6,71.8,330.3,57,309.9,57z M307.2,138.7c-9.4,0-19.5-6.9-23.7-12.5v-40
		c4.9-6.1,14.1-12.1,22.9-12.1c13.7,0,23.5,10.5,23.5,34.4C329.9,128.6,320.5,138.7,307.2,138.7z M532.3,99.5v54.4h-19.1v-53.7
		c0-19.2-7.2-26-19.5-26c-12.5,0-20.2,8.9-20.2,24.2v55.5h-19.1V59h19.1v9c4.7-6.9,15.1-11,24.9-11C520.4,57,532.3,69.3,532.3,99.5z
		 M399.3,57c-13.4,0-23.9,2.9-32.9,8.5l7.2,14.1c7.4-4.2,15-6,24.8-6c11.6,0,19.3,5.8,19.3,16.1v7.1c-5.2-2.4-13-3.6-21.9-3.6
		c-21.5,0-38.7,9.6-38.7,30.7c0,23.3,18.5,32,33.9,32c10.3,0,20.2-4.9,26.7-11.4v9.4h19.1V88.8C436.9,67.3,420.5,57,399.3,57z
		 M417.7,127c-4.3,6-13.7,12.1-23.7,12.1c-12.3,0-19-6.3-19-15.7c0-8.7,8.3-14.1,20.2-14.1c10.1,0,17.3,1.6,22.4,4.2V127z M586,57
		c-13.4,0-23.9,2.9-32.9,8.5l7.2,14.1c7.4-4.2,15-6,24.8-6c11.6,0,19.3,5.8,19.3,16.1v7.1c-5.2-2.4-13-3.6-21.9-3.6
		c-21.5,0-38.7,9.6-38.7,30.7c0,23.3,18.5,32,33.9,32c10.3,0,20.2-4.9,26.7-11.4v9.4h19.1V88.8C623.5,67.3,607.1,57,586,57z
		 M604.4,127c-4.3,6-13.7,12.1-23.7,12.1c-12.3,0-19-6.3-19-15.7c0-8.7,8.3-14.1,20.2-14.1c10.1,0,17.3,1.6,22.4,4.2V127z
		 M771.5,98.8v55.1h-19.1v-53.7c0-19.2-6-26-18.3-26c-12.5,0-18,8.9-18,24.2v55.5H697v-53.7c0-19.2-5.7-26-18-26
		c-12.5,0-19,8.9-19,24.2v55.5h-19.1V59H660v9c4.7-6.9,13.5-11,23.3-11c12.8,0,21,4.9,26,13.9c6.9-8.5,14.3-13.9,29.1-13.9
		C760.5,57,771.5,67,771.5,98.8z M868.9,104.5c0-25.7-14.4-47.6-41.4-47.6c-24.6,0-43.4,17.4-43.4,49.5c0,31.5,20.6,49.4,42.8,49.4
		c14.5,0,25.8-4.5,34.1-12.5l-10.3-12.2c-6.3,4.7-14.8,7.6-22.7,7.6c-11.6,0-23.3-7.5-25.3-25.8h65.6
		C868.6,111.1,868.9,108,868.9,104.5z M803.2,97.7c1.6-15.2,10.6-23.9,23.1-23.9c15.4,0,22.9,10.8,23.8,23.9H803.2z M950.8,153.9
		h-22.2l-9-16.5c-3.8-6.9-8.1-15.5-9.9-19.2c-1.6,3.6-6.7,12.8-10.3,19.3l-9.2,16.3h-21.1l29.1-49.2L870.9,59h21.6l7.4,13.4
		c3.8,6.9,8.3,15.4,9.9,19c2-3.6,6.5-12.7,10.1-19.3l7.2-13h21.5l-27.3,45.7L950.8,153.9z M26.7,106.5c0,17.8,12.4,30.5,29.5,30.5
		c8.2,0,16.2-3.7,23.1-10.7l0.4-0.5l11.1,13.3l-0.3,0.3c-9.2,10.8-20.2,16.1-33.7,16.1c-13.6,0-25.9-4.5-34.9-12.8
		C12.2,134,7,121.4,7,106.5C7,91.6,12.2,79,21.8,70.1c9-8.3,21.4-12.8,34.9-12.8c13.5,0,24.5,5.2,33.7,16.1l0.3,0.3L79.7,87.1
		l-0.4-0.4c-6.9-7.1-14.8-10.8-23.1-10.8C39.1,75.9,26.7,88.8,26.7,106.5z M101.9,58.9h19.5v95h-19.5V58.9z M197.6,133.2l1.1-0.7
		l-4.7,18.3l-0.2,0.1c-3.2,2-8.5,4.5-17.2,4.4c-13-0.2-21.6-10.2-21.6-24.8V76.8h-16.5V59H155V39.6l19.1-10.3V59h19.8v17.9h-19.8
		v50.4c0,7.4,2.8,10.7,9.1,10.7C187.6,138,192.4,136.4,197.6,133.2z M213.7,58.9h19.5v95h-19.5V58.9z"/>
</g>
</svg>
