<?xml version="1.0" encoding="utf-8"?>
<!-- Generator: Adobe Illustrator 21.0.0, SVG Export Plug-In . SVG Version: 6.00 Build 0)  -->
<svg version="1.1" xmlns="http://www.w3.org/2000/svg" xmlns:xlink="http://www.w3.org/1999/xlink" x="0px" y="0px"
	 viewBox="0 0 200 92.1" style="enable-background:new 0 0 200 92.1;" xml:space="preserve">
<style type="text/css">
	.st0{display:none;}
	.st1{display:inline;fill:#FCEE21;}
	.st2{display:inline;}
	.st3{fill-rule:evenodd;clip-rule:evenodd;fill:#808080;}
	.st4{fill:#808080;}
	.st5{display:inline;fill-rule:evenodd;clip-rule:evenodd;fill:#808080;}
	.st6{fill-rule:evenodd;clip-rule:evenodd;fill:#666666;}
	.st7{fill-rule:evenodd;clip-rule:evenodd;fill:#FFFFFF;}
	.st8{fill:none;stroke:#FFFFFF;stroke-width:0.216;stroke-miterlimit:2.6131;}
	.st9{fill:#FFFFFF;}
	.st10{fill:#303D7D;}
	.st11{fill:#666666;}
</style>
<g id="Capa_7" class="st0">
	<rect x="0" y="-53.9" class="st1" width="200" height="200"/>
</g>
<g id="Capa_1" class="st0">
	<g class="st2">
		<polygon class="st3" points="10.9,40.9 19.7,40.9 19.7,51.4 33.6,51.4 33.6,40.9 42.4,40.9 52.8,60.1 44.1,60.1 39.1,51 
			26.7,60.1 14.2,51 9.2,60.1 0.5,60.1 		"/>
		<polygon class="st3" points="52.9,40.9 52.9,32.2 0.5,32.2 0.5,40.9 9.2,40.9 10.1,39.1 21.4,39.1 21.4,49.6 31.9,49.6 31.9,39.1 
			43.2,39.1 44.1,40.9 		"/>
		<polygon class="st4" points="190.6,37.4 183.3,45.6 191.3,54.9 184.8,54.9 180.1,49.1 175,54.9 169.2,54.9 177.3,45.8 170.5,37.4 
			176.2,37.4 180.5,42.3 184.8,37.4 		"/>
		<polygon class="st4" points="155,43.6 165.9,43.6 165.9,47.2 155,47.1 155,51.4 167.9,51.4 167.9,54.9 150.3,54.9 150.3,37.4 
			167.9,37.4 167.9,40.9 155,40.9 		"/>
		<polygon class="st4" points="87,43.6 98,43.6 98,47.2 87,47.1 87,51.4 99.9,51.4 99.9,54.9 82.4,54.9 82.4,37.4 99.9,37.4 
			99.9,40.9 87,40.9 		"/>
		<polygon class="st4" points="122.8,37.4 130.9,37.4 134.9,47.4 138.9,37.4 147.2,37.4 147.2,54.9 142.4,54.9 142.4,40.9 
			136.5,54.9 133.1,54.9 127.4,40.9 127.4,54.9 122.8,54.9 		"/>
		<polygon class="st4" points="61.6,37.4 80.1,37.4 80.1,40.9 73.1,40.9 73.1,54.9 68.5,54.9 68.5,40.9 61.6,40.9 		"/>
		<polygon class="st4" points="103.1,37.4 107.9,37.4 107.9,51.4 120.7,51.4 120.7,54.9 103.1,54.9 		"/>
		<path class="st3" d="M194.7,51.1h1.8c0.3,0,0.5,0,0.7,0.1c0.4,0.2,0.5,0.5,0.5,0.9c0,0.2,0,0.4-0.1,0.6c-0.1,0.1-0.2,0.3-0.4,0.4
			c0.1,0.1,0.3,0.1,0.3,0.2c0.1,0.1,0.1,0.3,0.1,0.5l0,0.5c0,0.1,0,0.3,0,0.3c0,0.1,0.1,0.2,0.2,0.2v0.1h-0.6c0,0,0-0.1,0-0.1
			c0-0.1,0-0.2,0-0.3l0-0.6c0-0.3-0.1-0.4-0.3-0.5c-0.1,0-0.3-0.1-0.5-0.1h-1.2v1.7h-0.5V51.1 M196.4,52.8c0.2,0,0.4-0.1,0.6-0.1
			c0.1-0.1,0.2-0.3,0.2-0.5c0-0.3-0.1-0.5-0.3-0.6c-0.1-0.1-0.2-0.1-0.4-0.1h-1.3v1.3H196.4 M196,50c-1.7,0-3.1,1.4-3.1,3.1
			c0,1.7,1.4,3.1,3.1,3.1s3.1-1.4,3.1-3.1C199.1,51.4,197.7,50,196,50 M196,49.6c1.9,0,3.5,1.6,3.5,3.5c0,1.9-1.6,3.5-3.5,3.5
			c-1.9,0-3.5-1.6-3.5-3.5C192.6,51.2,194.1,49.6,196,49.6z"/>
	</g>
</g>
<g id="Capa_2" class="st0">
	<g class="st2">
		<g>
			<path class="st3" d="M150.9,56.6C150.9,56.6,150.9,56.6,150.9,56.6L150.9,56.6L150.9,56.6L150.9,56.6z M150.9,56.6L150.9,56.6
				C150.9,56.7,150.9,56.7,150.9,56.6L150.9,56.6L150.9,56.6L150.9,56.6z M144.4,49.3L144.4,49.3c0.1,0,0.1,0,0.1,0
				C144.5,49.3,144.5,49.3,144.4,49.3L144.4,49.3L144.4,49.3L144.4,49.3z M136.3,34.9h7.4c3.5,0,4.6,1.9,4.6,3.5
				c0,2.4-2.1,4.5-6.6,4.5h-7L136.3,34.9L136.3,34.9L136.3,34.9z M149.6,57.2l0.1-0.7c0.4-2.6-0.5-4.2-1.2-5.2c-1-1.2-2.5-2-4-2
				c0,0-0.1,0-0.1,0h-11.2l0.3-1.3c0,0,10.9,0,11,0c0,0,0,0,0,0c3.9-0.1,6.4-1.9,7.8-3.5c1.8-2,2.9-4.7,2.9-7.3c0-2-0.7-3.8-1.9-5.1
				c-1.3-1.4-3.3-2.2-5.8-2.2h-16l-8.2,38.2h5.7l3.1-13.8h7.4c1.1,0,4.9-0.5,3.8,4.1c-0.3,1.6-1,5.7,0,9.7c0.8,0,3.7,0,6.6,0
				C148.6,64.7,149,60.7,149.6,57.2L149.6,57.2L149.6,57.2z M162,35.9c0-8.3-5.3-12.1-14.5-12.1c-10.5,0-21.7,0-21.7,0l-9.7,44.2
				h5.9l8.5-39.4h17c2.8,0,5.1,0.9,6.7,2.6c1.4,1.5,2.2,3.6,2.2,6c0,2.9-1.2,5.9-3.2,8.1c-1.2,1.3-3,2.7-5.7,3.4
				c0.7,0.4,1.4,1,1.9,1.6c0.9,1.2,2,3.2,1.5,6.2l0-0.1c0,0,0,0,0,0.1v0c0,0,0,0,0,0c0,0.1,0,0.3-0.1,0.7c-0.5,3.5-1,7.5,0.3,10.7
				c2.9,0,5.5,0,5.5,0c-0.3-1-1-2.3-0.2-5.6c0.9-3.7,2.2-10.9-2.5-13.4C155.2,48.5,162,45.6,162,35.9L162,35.9L162,35.9z M17.1,64
				c8.1,0,13.6-3.6,14.6-9.6c0.7-4.5-3.3-6-7.9-7.2c-0.9-0.2-1.6-0.5-2.6-0.7c-4-1-11.6-3-11.1-9.8c0.6-8.8,10.7-9.5,13.8-9.5
				c4.5,0,7.7,1.5,9.5,4.4c1.4,2.3,1.5,4.9,1.6,6.1v0.1l5.9,0c0-9-3.9-15.1-15.7-15.1c-10.6,0-19.1,4.5-20.7,14
				c-2.9,17,20.9,11.7,19.7,18.5c-0.3,2.1-2.2,4-5.7,4c-1.4,0-2.8-0.4-3.8-1.1c-1.1-0.7-2.1-1.9-2-6.6H6.9c-0.1,4.4,0.3,7,1.5,8.7
				C11,63.8,16.1,64,17.1,64L17.1,64L17.1,64z M16.7,69.5c11.7,0.1,20.5-4.6,22.1-14.9c2.5-16.8-22.1-11.9-21.2-19.1
				c0.2-1.6,1.7-2.8,4.8-2.8c1.3,0,2.5,0.3,3.4,0.8c0.9,0.6,1.5,1.5,1.8,4.2l6.1,0v-0.1c-0.1-1-0.2-3.4-1.4-5.4
				c-1.5-2.5-4.4-3.8-8.4-3.8c-2.8,0-12.1,0.6-12.6,8.3c-0.4,5.7,5.9,7.4,10.2,8.5c1,0.3,1.8,0.5,2.7,0.7c3.7,1,9.8,2.6,8.7,8.7
				c-1.1,6.7-7,10.7-15.8,10.7c-1.1,0-6.7-0.2-9.6-4.5c-1.4-1.8-1.9-4.8-1.8-9.4H0.2c-0.1,1-0.2,2.1-0.2,3
				C0,63.7,5.3,69.4,16.7,69.5L16.7,69.5L16.7,69.5z M95,23.9L69.9,68.1h5.7l24.9-44.2H95L95,23.9L95,23.9z M93.4,49.1l5.5-9.8
				l1.6,9.8H93.4L93.4,49.1L93.4,49.1z M107.9,23.9H102L77,68.1h5.7l4.2-7.2h15.2l1.3,7.2h5.3l-2.2-12.5H89.8l0.7-1.3h15.9
				l-3.8-21.6l1-1.8l6.4,37.3h5.4L107.9,23.9L107.9,23.9L107.9,23.9z M46.3,61.8h24.2l1-4.5H52.7l1.4-5.9h17.7l1-4.9H55.2l0.3-1.3
				H73l1-4.8H56.5l1.4-5.6h18.5l1-4.6h-24L46.3,61.8L46.3,61.8L46.3,61.8z M47.2,23.8l-9.8,44.3H69l1.1-5H44.7L52.5,29h25.2l1.2-5.2
				H47.2L47.2,23.8L47.2,23.8z M191.5,32.3c-1.6-2.5-4.4-3.8-8.5-3.8c-2.8,0-12.1,0.6-12.6,8.3c-0.4,5.7,6,7.4,10.2,8.5
				c1,0.3,1.8,0.5,2.7,0.7c3.7,1,9.8,2.6,8.8,8.7c-1.1,6.7-7,10.7-15.8,10.7c-1.1,0-6.7-0.2-9.6-4.5c-1.4-1.8-1.9-4.8-1.8-9.4h-5.5
				c-1.2,11.2,4,18.1,16.5,18.2c11.7,0.1,20.6-4.6,22.1-14.9c2.5-16.8-22.1-11.9-21.2-19.1c0.2-1.6,1.7-2.8,4.7-2.8
				c1.4,0,2.6,0.3,3.5,0.8c0.9,0.6,1.5,1.5,1.8,4.2l6.1,0v-0.1C192.8,36.6,192.7,34.3,191.5,32.3L191.5,32.3L191.5,32.3z
				 M184.3,22.6c-10.6,0-19.1,4.5-20.7,14c-2.9,17,20.8,11.7,19.7,18.5c-0.4,2.1-2.2,4-5.7,4c-1.3,0-2.7-0.4-3.8-1.1
				c-1-0.7-2.1-1.9-2-6.6h-5.8c-0.1,4.3,0.4,7.1,1.6,8.7c2.5,3.8,7.6,4,8.6,4c8.1,0,13.6-3.6,14.6-9.6c0.8-4.5-3.3-6-7.9-7.2
				c-0.9-0.2-1.6-0.5-2.6-0.7c-4-1-11.5-3-11.1-9.8c0.6-8.8,10.7-9.5,13.8-9.5c4.5,0,7.7,1.5,9.5,4.4c1.4,2.3,1.5,4.9,1.5,6.1v0.1
				l5.9,0C199.9,28.7,196.1,22.6,184.3,22.6L184.3,22.6z"/>
		</g>
	</g>
</g>
<g id="Capa_3" class="st0">
	<path class="st5" d="M16.1,37.6c0,0-7.7,3.1-8,4.9c0,0-1.5,2.2,4.3,1.7c0,0,17.3-1.7,17.9,6.1c0,0,0.2,3.1-3.1,5.8
		c0,0-7.6,7.1-21,4.8c0,0-6.1-0.4-5.9-4c0,0,0.9-1.7,3.3,0c0,0,12.3,3.1,18.2-1.8c0,0,2.6-2.5,0.7-3.7c0,0-3.5-1.8-8.1-1.9
		c0,0-13.7,1.6-14.4-4c0,0-1.2-4.8,7.2-9.4c0,0,12.4-6,23.1-5.6c0,0,5.9-1.6,6.3,3.4c0,0-2.1,4.7-9.9,5.1c0,0-7.7,0.3-8.4-1.6
		C18.4,37.5,18.1,36.9,16.1,37.6L16.1,37.6z M25.6,36.7c0,0,2.2-0.3,1.7-1.9c0,0-2.7-1.3-5.1,0.8C22.1,35.7,21.1,37.3,25.6,36.7
		L25.6,36.7z M51.6,47.7c0,0,0.7-3-7.7-2c0,0-12.5,2.2-12.3,10.8c0,0,1.3,6.8,8.5,3.6c0,0,4.7-2.5,5.9-3.3c0,0,0.4,5.5,6,4.9
		c0,0,3.7,0.3,7-4.2c0,0,3.4-4.3,4.1-4.1c0,0,1.8-0.2,0.6,1.7c0,0-2.6,4.2,1.1,5c0,0,4,1.4,6.3-2.2c0,0,3.6-5.5,5.7-5.5
		c0,0,0.8,0.3-0.5,2.2c0,0-2,5.5,3.6,5.9c0,0,5.5,0.5,6.4-1.9c0,0,1.1-2.3-1.8-0.8c0,0-3.9,2.3-2.4-1.2c0,0,5.9-7.7,0.2-9.8
		c0,0-3-1.4-5.2,0.2c0,0-3.3,3.5-4.7,3.7c0,0-1.2,0.2-1.4-2.3c0,0-1.2-3.8-5.9-1.5c0,0-3,2.6-8.6,9.3c0,0-5.1,5.2-3.8,0.1
		c0,0,3.7-5.8-0.2-7.1c0,0-2.2-1-5.6,2.4c0,0-6.8,6-8.5,6c0,0-2.1-0.3,0.9-4.2c0,0,3.3-4.4,8.9-4.8C48.2,48.8,51.6,48.8,51.6,47.7
		L51.6,47.7z M98,45.8c-1.3,3.6,1.4,0.8,1.4,0.8c6.5-3.4,6.5,3.5,6.5,3.5c1.3,1.7,3.8-0.4,3.8-0.4c1.3-0.8,2.8-2.4,2.8-2.4
		c4.2-3.8,6.9-0.9,6.9-0.9c0.6,1.7,2.2,0.4,2.2,0.4c5.4-1.6,4.3,2.5,4.3,2.5c-1.6,0.4-0.7,2.2-0.7,2.2c0.6,2.2,3.9-1.3,3.9-1.3
		c1.9-0.5,0.9-3.1,0.9-3.1c0.1-2.1,2.7-1.3,2.7-1.3c1.8,1.4,4.3,0.3,4.3,0.3c4.2-0.2,3.8,2,3.8,2c1.6,1.6,0,3.4,0,3.4
		c-2.9,2.7-3,5.8-3,5.8c0.2,3.5,7.2-4.7,7.2-4.7c5.4-7.6,10.1-6.4,10.1-6.4c4.3-0.1,3.1,6.4,3.1,6.4l5.3-4.9
		c1.9-2.6,4.6-1.8,4.6-1.8c5.9,1.5,1.5,8.7,1.5,8.7c-1.2,2.9,1.7,1.8,1.7,1.8c2-2.8,6.7-7.2,6.7-7.2c7.6-6.9,11.3-5.2,11.3-5.2
		c2.9,0.6,0.4,2.9,0.4,2.9c-1.5,2.1-0.4,5.9-0.4,5.9l10.6,0.1l-3.1,3.7l-8.9-0.1c-1.5,3.1-5.7,3.1-5.7,3.1c-5.1-0.5-5.6-4.7-5.6-4.7
		c-0.8-0.1-3.8,3.1-3.8,3.1c-2,2.6-7.9,0.6-7.9,0.6c-3.1-0.9-1.1-6-1.1-6c-0.9-0.8-5.7,4.6-5.7,4.6c-2.6,3.9-6,2.3-6,2.3
		c-4-1.2-1.6-6-1.6-6c1.5-2.4,1.1-3,1.1-3c-2.2,1.3-6.1,6.1-6.1,6.1c-8,7.8-13.2,1.8-13.2,1.8c-2.5-3.8,3.3-8.7,3.3-8.7
		c-1.3-0.9-2.4,0.1-2.4,0.1c-3.6,6.5-10.1,5.9-10.1,5.9c-1.8,3.2-6.1,4.5-6.1,4.5c-11.1,2.9-8.5-6.1-8.5-6.1
		c-2.8,0.8-3.3-0.1-3.3-0.1c-0.2,0.7-2.2,1-2.2,1s-4.2,5.7-9,5.8c-4.8,0.1-6.2-2.7-5.5-7.5c0.7-4.7,7-14,7-14c-0.9,0.5-2-0.2-2-0.2
		c-0.8-1.8,4.8-4.1,4.8-4.1c4.5-2,3,0.9,3,0.9L98,45.8L98,45.8z M94.7,52.6c-1.9,5.8,0.3,6.3,0.3,6.3c2.1-0.1,3.8-4,3.8-4
		c0.5-2.1-1.8-4.7-1.8-4.7C95.7,49.8,94.7,52.6,94.7,52.6L94.7,52.6z M115.3,51.7c-3.1,8.3,0.9,6.4,0.9,6.4c3.2-1.9,3.2-4.3,3.2-4.3
		c0.1-1.5-1.6-4-1.6-4C116.7,49.1,115.3,51.7,115.3,51.7L115.3,51.7z M183.5,48.4c0,0-3.7,1-3.8,4.2c0,0,1.8,0.9,3.3-0.3
		C183,52.3,183.6,49.3,183.5,48.4L183.5,48.4z"/>
</g>
<g id="Capa_4" class="st0">
	<g class="st2">
		<path class="st3" d="M26.5,34.8c-3.1,0-5.8,1.1-8,3.3c-2.2,2.2-3.3,4.9-3.3,8c0,3.2,1.1,5.8,3.3,8c2.2,2.3,4.9,3.4,8,3.4
			c3.1,0,5.8-1.1,8-3.4c2.2-2.2,3.3-4.8,3.3-8c0-3.1-1.1-5.8-3.3-8C32.3,35.9,29.6,34.8,26.5,34.8L26.5,34.8z"/>
		<path class="st3" d="M26.5,32.8V20c-4.6,0-8.9,1.2-12.8,3.4v19.5c0.7-2.9,2.3-5.3,4.6-7.1C20.8,33.8,23.5,32.8,26.5,32.8
			L26.5,32.8z"/>
		<path class="st3" d="M23.8,59.2c-3-0.7-5.4-2.3-7.2-4.7c-2-2.4-2.9-5.1-2.9-8.2H0.5c0,4.6,1.2,8.9,3.5,12.8H23.8L23.8,59.2z"/>
		<path class="st3" d="M39.5,49.4c-0.7,2.9-2.2,5.3-4.6,7.2c-2.4,1.9-5.2,2.9-8.3,2.9v12.6c4.6,0,8.9-1.1,12.8-3.4V49.4L39.5,49.4z"
			/>
		<path class="st3" d="M52.6,46c0-4.6-1.2-8.9-3.5-12.8H29.8c3,0.7,5.4,2.3,7.2,4.6c2,2.5,2.9,5.2,2.9,8.3H52.6L52.6,46z"/>
		<polygon class="st3" points="58.6,33.8 58.6,48.9 63.1,48.9 63.1,33.8 58.6,33.8 		"/>
		<polygon class="st3" points="87.1,33.8 82.4,33.8 82.4,44.8 82.4,44.8 73.6,33.8 66.4,33.8 66.4,48.9 71.1,48.9 71.1,37.9 
			71.1,37.9 79.8,48.9 87.1,48.9 87.1,33.8 		"/>
		<path class="st3" d="M94.8,39.8v-2.4h8.3c0.9,0,1.4,0.4,1.4,1.2c0,0.8-0.5,1.2-1.4,1.2H94.8L94.8,39.8z M94.8,42.9h8.4
			c1.1,0,1.7,0.5,1.7,1.3c0,0.8-0.6,1.1-1.7,1.1h-8.4V42.9L94.8,42.9z M106.8,41.3L106.8,41.3c0.8-0.3,1.3-0.6,1.6-1
			c0.5-0.5,0.7-1.4,0.7-2.6c0-1.4-0.5-2.4-1.4-3.1c-0.9-0.6-2.3-0.8-4.2-0.8H90.1v15.1H105c1.5,0,2.6-0.2,3.3-0.7
			c0.8-0.7,1.3-1.8,1.3-3.3c0-1.2-0.2-2.1-0.6-2.6C108.5,41.8,107.8,41.4,106.8,41.3L106.8,41.3z"/>
		<path class="st3" d="M131.4,33.8h-4.6v8.8c0,0.9-0.3,1.6-0.6,2c-0.4,0.5-1.2,0.7-2.1,0.7h-4.6c-1,0-1.6-0.2-2.1-0.7
			c-0.4-0.4-0.5-1.1-0.5-2v-8.8h-4.7v9.7c0,1.9,0.5,3.3,1.5,4.2c1,1,2.6,1.4,4.7,1.4h6.8c2.1,0,3.7-0.4,4.7-1.4
			c1-0.9,1.5-2.3,1.5-4.2V33.8L131.4,33.8z"/>
		<path class="st3" d="M139,41.2v-3.7c2.5,0,4.9,0,7.4,0c1.2,0,2.1,0.2,2.1,1.6c0,0.2,0,0.3,0,0.5c0,1.1-0.6,1.6-1.7,1.6H139
			L139,41.2z M139,45.1h7.4c0.7,0,1.2,0.1,1.5,0.4c0.3,0.3,0.4,0.9,0.4,1.7v1.8h4.7v-2.6c0-1.1-0.2-2-0.7-2.5
			c-0.4-0.4-1-0.7-1.8-0.9c1-0.2,1.7-0.7,2.1-1.3c0.3-0.6,0.5-1.4,0.5-2.5v-0.9c0-1.5-0.3-2.6-0.9-3.3c-0.8-0.9-2-1.2-3.7-1.2h-14.1
			v15.1h4.7V45.1L139,45.1z"/>
		<path class="st3" d="M166,39.5l-4.7-0.2c-0.3,0-0.6-0.2-0.7-0.4c-0.1-0.1-0.2-0.4-0.2-0.7c0-0.8,0.6-1.2,1.8-1.2h5.2
			c1,0,1.7,0.1,2,0.3c0.2,0.2,0.3,0.6,0.3,1.3h4.7v-0.5c0-1.6-0.3-2.7-1-3.3c-0.8-0.9-2.5-1.3-4.9-1.3h-6.6c-2.7,0-4.5,0.5-5.3,1.4
			c-0.6,0.7-0.9,1.9-0.9,3.5c0,1.1,0.1,1.8,0.3,2.4c0.1,0.6,0.5,1,1,1.4c1,0.6,3.1,0.9,6.6,0.9l5.6,0.2c0.4,0,0.7,0.2,0.8,0.4
			l0.2,0.8c0,0.5-0.2,0.9-0.6,1.1l-1.4,0.2h-5.8l-1.5-0.3c-0.3-0.2-0.5-0.7-0.5-1.5h-4.7v1.1c0,1.6,0.5,2.7,1.4,3.3
			c0.8,0.5,2.4,0.8,4.6,0.8h5.7c3.1,0,5.2-0.3,6.1-0.9c0.6-0.3,1-0.8,1.2-1.4c0.2-0.6,0.3-1.5,0.3-2.5c0-1.2-0.1-2-0.4-2.6
			c-0.2-0.7-0.7-1.2-1.3-1.5C172.1,39.7,169.7,39.5,166,39.5L166,39.5z"/>
		<polygon class="st3" points="190.4,33.8 184.4,33.8 176.1,48.9 181.4,48.9 182.7,46.3 184.5,43 187.4,37.3 190.4,43 184.5,43 
			182.7,46.3 192.2,46.3 193.6,48.9 198.8,48.9 190.4,33.8 		"/>
		<path class="st3" d="M96.7,60.9v-1.2l4.3,0v3.8c-0.7,0.5-1.3,0.9-2,1.2c-0.7,0.3-1.4,0.4-2.2,0.4c-1,0-1.9-0.2-2.7-0.6
			c-0.8-0.4-1.4-1-1.8-1.8c-0.4-0.8-0.6-1.7-0.6-2.7c0-1,0.2-1.9,0.6-2.8c0.4-0.9,1-1.5,1.8-1.9c0.8-0.4,1.7-0.6,2.7-0.6
			c0.7,0,1.4,0.1,2,0.4c0.6,0.2,1.1,0.6,1.4,1c0.3,0.4,0.6,1,0.8,1.7l-1.2,0.3c-0.2-0.5-0.3-0.9-0.6-1.2c-0.2-0.3-0.5-0.5-1-0.7
			c-0.4-0.2-0.9-0.3-1.4-0.3c-0.6,0-1.1,0.1-1.6,0.3c-0.4,0.2-0.8,0.4-1.1,0.7c-0.3,0.3-0.5,0.6-0.6,1c-0.3,0.6-0.4,1.3-0.4,2
			c0,0.9,0.2,1.7,0.5,2.3c0.3,0.6,0.8,1.1,1.4,1.4c0.6,0.3,1.2,0.4,1.9,0.4c0.6,0,1.1-0.1,1.7-0.3c0.6-0.2,1-0.5,1.3-0.7v-1.9H96.7
			L96.7,60.9z"/>
		<path class="st3" d="M102.8,64.8v-7.3h1.1v1.1c0.3-0.5,0.5-0.9,0.8-1c0.2-0.2,0.5-0.2,0.8-0.2c0.4,0,0.8,0.1,1.3,0.4l-0.4,1.2
			c-0.3-0.2-0.6-0.3-0.9-0.3c-0.3,0-0.5,0.1-0.7,0.2c-0.2,0.2-0.4,0.4-0.5,0.7c-0.1,0.4-0.2,0.9-0.2,1.4v3.8H102.8L102.8,64.8z"/>
		<path class="st3" d="M112.3,64.8v-1.1c-0.6,0.8-1.3,1.2-2.3,1.2c-0.4,0-0.8-0.1-1.2-0.2c-0.4-0.2-0.7-0.4-0.8-0.6
			c-0.2-0.3-0.3-0.6-0.4-0.9c0-0.2-0.1-0.6-0.1-1.2v-4.5h1.2v4.1c0,0.7,0,1.1,0.1,1.3c0.1,0.3,0.2,0.6,0.5,0.8
			c0.3,0.2,0.6,0.3,0.9,0.3c0.4,0,0.7-0.1,1-0.3c0.3-0.2,0.6-0.5,0.7-0.8c0.1-0.3,0.2-0.8,0.2-1.4v-3.9h1.2v7.3H112.3L112.3,64.8z"
			/>
		<path class="st3" d="M115.4,67.6V57.5h1.1v1c0.3-0.4,0.6-0.7,0.9-0.8c0.3-0.2,0.7-0.3,1.2-0.3c0.6,0,1.2,0.2,1.7,0.5
			c0.5,0.3,0.8,0.8,1.1,1.4c0.2,0.6,0.4,1.2,0.4,1.9c0,0.7-0.1,1.4-0.4,2c-0.3,0.6-0.7,1.1-1.2,1.4c-0.5,0.3-1.1,0.5-1.6,0.5
			c-0.4,0-0.8-0.1-1.1-0.3c-0.3-0.2-0.6-0.4-0.8-0.7v3.6H115.4L115.4,67.6z M116.5,61.2c0,0.9,0.2,1.6,0.6,2.1
			c0.4,0.5,0.8,0.7,1.4,0.7c0.6,0,1-0.2,1.4-0.7c0.4-0.5,0.6-1.2,0.6-2.2c0-0.9-0.2-1.6-0.6-2.1c-0.4-0.5-0.8-0.7-1.4-0.7
			c-0.5,0-1,0.2-1.4,0.7C116.7,59.6,116.5,60.3,116.5,61.2L116.5,61.2z"/>
		<path class="st3" d="M122.8,61.2c0-1.4,0.4-2.4,1.1-3c0.6-0.5,1.4-0.8,2.3-0.8c1,0,1.8,0.3,2.5,1c0.6,0.7,1,1.6,1,2.7
			c0,0.9-0.1,1.7-0.4,2.2c-0.3,0.5-0.7,1-1.2,1.3c-0.5,0.3-1.1,0.4-1.8,0.4c-1,0-1.9-0.3-2.5-1C123.1,63.4,122.8,62.4,122.8,61.2
			L122.8,61.2z M124,61.2c0,0.9,0.2,1.6,0.6,2.1c0.4,0.5,0.9,0.7,1.5,0.7c0.6,0,1.1-0.2,1.5-0.7c0.4-0.5,0.6-1.2,0.6-2.1
			c0-0.9-0.2-1.6-0.6-2.1c-0.4-0.5-0.9-0.7-1.5-0.7c-0.6,0-1.1,0.2-1.5,0.7C124.2,59.5,124,60.2,124,61.2L124,61.2z"/>
		<polygon class="st3" points="135.2,64.8 135.2,54.7 142.1,54.7 142.1,55.9 136.6,55.9 136.6,59 141.3,59 141.3,60.2 136.6,60.2 
			136.6,64.8 135.2,64.8 		"/>
		<path class="st3" d="M143.6,56.2v-1.4h1.2v1.4H143.6L143.6,56.2z M143.6,64.8v-7.3h1.2v7.3H143.6L143.6,64.8z"/>
		<path class="st3" d="M146.8,64.8v-7.3h1.1v1c0.5-0.8,1.3-1.2,2.3-1.2c0.4,0,0.8,0.1,1.2,0.2c0.4,0.2,0.6,0.4,0.8,0.6
			c0.2,0.3,0.3,0.6,0.4,0.9c0,0.2,0.1,0.6,0.1,1.2v4.5h-1.2v-4.5c0-0.5,0-0.9-0.1-1.1c-0.1-0.2-0.3-0.4-0.5-0.6
			c-0.2-0.2-0.5-0.2-0.9-0.2c-0.5,0-1,0.2-1.4,0.5c-0.4,0.3-0.6,1-0.6,1.9v4H146.8L146.8,64.8z"/>
		<path class="st3" d="M159.4,63.9c-0.5,0.4-0.9,0.7-1.3,0.8c-0.4,0.2-0.9,0.2-1.4,0.2c-0.8,0-1.4-0.2-1.9-0.6
			c-0.4-0.4-0.6-0.9-0.6-1.5c0-0.4,0.1-0.7,0.2-1c0.2-0.3,0.4-0.5,0.6-0.7c0.3-0.2,0.6-0.3,0.9-0.4c0.2-0.1,0.6-0.1,1.1-0.2
			c1-0.1,1.7-0.3,2.2-0.4c0-0.2,0-0.3,0-0.3c0-0.5-0.1-0.9-0.4-1.1c-0.3-0.3-0.8-0.4-1.4-0.4c-0.6,0-1,0.1-1.3,0.3
			c-0.3,0.2-0.5,0.6-0.6,1.1l-1.2-0.2c0.1-0.5,0.3-0.9,0.5-1.3c0.3-0.3,0.6-0.6,1.1-0.7c0.5-0.2,1-0.3,1.7-0.3
			c0.6,0,1.1,0.1,1.5,0.2c0.4,0.1,0.7,0.3,0.9,0.6c0.2,0.2,0.3,0.5,0.4,0.8c0,0.2,0.1,0.6,0.1,1.1v1.7c0,1.2,0,1.9,0.1,2.2
			c0.1,0.3,0.2,0.6,0.3,0.9h-1.3C159.5,64.6,159.4,64.3,159.4,63.9L159.4,63.9z M159.3,61.2c-0.5,0.2-1.1,0.3-2,0.5
			c-0.5,0.1-0.9,0.2-1.1,0.2c-0.2,0.1-0.4,0.2-0.5,0.4c-0.1,0.2-0.2,0.4-0.2,0.6c0,0.3,0.1,0.6,0.4,0.8c0.2,0.2,0.6,0.3,1.1,0.3
			c0.5,0,0.9-0.1,1.3-0.3c0.4-0.2,0.6-0.5,0.8-0.9c0.1-0.3,0.2-0.7,0.2-1.2V61.2L159.3,61.2z"/>
		<path class="st3" d="M162.5,64.8v-7.3h1.1v1c0.5-0.8,1.3-1.2,2.3-1.2c0.4,0,0.8,0.1,1.2,0.2c0.4,0.2,0.6,0.4,0.8,0.6
			c0.2,0.3,0.3,0.6,0.4,0.9c0,0.2,0.1,0.6,0.1,1.2v4.5h-1.2v-4.5c0-0.5,0-0.9-0.1-1.1c-0.1-0.2-0.3-0.4-0.5-0.6
			c-0.2-0.2-0.5-0.2-0.9-0.2c-0.5,0-1,0.2-1.4,0.5c-0.4,0.3-0.6,1-0.6,1.9v4H162.5L162.5,64.8z"/>
		<path class="st3" d="M175.1,62.2l1.2,0.2c-0.1,0.8-0.5,1.5-1,2c-0.5,0.5-1.2,0.7-2,0.7c-1,0-1.8-0.3-2.4-1
			c-0.6-0.7-0.9-1.6-0.9-2.8c0-0.8,0.1-1.5,0.4-2.1c0.3-0.6,0.7-1,1.2-1.3c0.5-0.3,1.1-0.4,1.7-0.4c0.8,0,1.4,0.2,2,0.6
			c0.5,0.4,0.8,1,1,1.7l-1.2,0.2c-0.1-0.5-0.3-0.9-0.6-1.1c-0.3-0.2-0.6-0.4-1.1-0.4c-0.6,0-1.1,0.2-1.5,0.7
			c-0.4,0.4-0.6,1.2-0.6,2.1c0,1,0.2,1.7,0.6,2.1c0.4,0.4,0.9,0.7,1.5,0.7c0.5,0,0.9-0.2,1.2-0.4C174.8,63.2,175,62.8,175.1,62.2
			L175.1,62.2z"/>
		<path class="st3" d="M177.4,56.2v-1.4h1.2v1.4H177.4L177.4,56.2z M177.4,64.8v-7.3h1.2v7.3H177.4L177.4,64.8z"/>
		<path class="st3" d="M185.6,62.5l1.3,0.2c-0.2,0.8-0.6,1.3-1.1,1.7c-0.5,0.4-1.2,0.6-2.1,0.6c-1.1,0-1.9-0.3-2.5-1
			c-0.6-0.7-0.9-1.6-0.9-2.8c0-1.2,0.3-2.2,1-2.9c0.6-0.7,1.5-1,2.5-1c1,0,1.8,0.3,2.4,1c0.6,0.7,0.9,1.6,0.9,2.8c0,0.1,0,0.2,0,0.3
			h-5.5c0,0.8,0.3,1.4,0.7,1.8c0.4,0.4,0.9,0.6,1.5,0.6c0.5,0,0.8-0.1,1.2-0.4C185.1,63.4,185.4,63,185.6,62.5L185.6,62.5z
			 M181.5,60.5h4.1c-0.1-0.6-0.2-1.1-0.5-1.4c-0.4-0.5-0.9-0.7-1.5-0.7c-0.6,0-1.1,0.2-1.4,0.6C181.7,59.3,181.5,59.8,181.5,60.5
			L181.5,60.5z"/>
		<path class="st3" d="M188.4,64.8v-7.3h1.1v1.1c0.3-0.5,0.5-0.9,0.8-1c0.2-0.2,0.5-0.2,0.8-0.2c0.4,0,0.8,0.1,1.3,0.4l-0.4,1.2
			c-0.3-0.2-0.6-0.3-0.9-0.3c-0.3,0-0.5,0.1-0.7,0.2c-0.2,0.2-0.4,0.4-0.5,0.7c-0.1,0.4-0.2,0.9-0.2,1.4v3.8H188.4L188.4,64.8z"/>
		<path class="st3" d="M192.7,61.2c0-1.4,0.4-2.4,1.1-3c0.6-0.5,1.4-0.8,2.3-0.8c1,0,1.8,0.3,2.5,1c0.6,0.7,1,1.6,1,2.7
			c0,0.9-0.1,1.7-0.4,2.2c-0.3,0.5-0.7,1-1.2,1.3c-0.5,0.3-1.1,0.4-1.8,0.4c-1,0-1.9-0.3-2.5-1C193,63.4,192.7,62.4,192.7,61.2
			L192.7,61.2z M193.9,61.2c0,0.9,0.2,1.6,0.6,2.1c0.4,0.5,0.9,0.7,1.5,0.7c0.6,0,1.1-0.2,1.5-0.7c0.4-0.5,0.6-1.2,0.6-2.1
			c0-0.9-0.2-1.6-0.6-2.1c-0.4-0.5-0.9-0.7-1.5-0.7c-0.6,0-1.1,0.2-1.5,0.7C194.1,59.5,193.9,60.2,193.9,61.2L193.9,61.2z"/>
	</g>
</g>
<g id="Capa_5" class="st0">
	<g class="st2">
		<path class="st4" d="M130.8,13.7c-16,0-27.3,8.5-27.4,20.7c-0.1,9,8,14.1,14.2,17.1c6.3,3.1,8.4,5,8.4,7.8
			c-0.1,4.2-5.1,6.1-9.7,6.1c-6.5,0-9.9-0.9-15.2-3.3l-2.1-1l-2.3,14c3.8,1.7,10.8,3.3,18.1,3.3c17,0,28.1-8.4,28.2-21.4
			c0.1-7.2-4.3-12.6-13.6-17c-5.6-2.9-9.1-4.8-9.1-7.8c0-2.6,2.9-5.4,9.3-5.4c5.3-0.1,9.1,1.1,12.1,2.4l1.4,0.7l2.2-13.6
			C142.1,15.1,137.1,13.7,130.8,13.7L130.8,13.7z M80.5,14.8L70.4,77.5h16.2l10.1-62.7L80.5,14.8L80.5,14.8z M56.8,14.8L41,57.6
			l-1.7-8.7c-3.9-10.7-12.5-21.8-22.4-26.4l14.5,54.9l17.1,0L74,14.8L56.8,14.8L56.8,14.8z M174.4,14.9c-3.9,0-6.8,1.1-8.5,5.2
			l-24,57.5h17c0,0,2.8-7.7,3.4-9.4c1.9,0,18.4,0,20.7,0c0.5,2.2,2,9.4,2,9.4h15l-13.1-62.7L174.4,14.9L174.4,14.9z M175.5,31.8
			l1.1,5.4c0,0,3.1,15,3.8,18.1h-13.4c1.3-3.6,6.5-17.5,6.5-17.5C173.3,37.9,174.7,34.1,175.5,31.8L175.5,31.8z"/>
		<path class="st4" d="M26.3,14.8H0.2L0,15.9c20.3,5.2,33.7,17.9,39.3,33l-5.7-28.8C32.6,16.1,29.8,15,26.3,14.8"/>
	</g>
</g>
<g id="Capa_6" class="st0">
	<g class="st2">
		<polygon class="st3" points="139.4,104.9 142.4,104.8 145.4,104.6 148.3,104.2 151.3,103.7 154.1,103.1 156.9,102.3 159.6,101.3 
			162.3,100.3 164.9,99.1 167.5,97.8 169.9,96.4 172.3,94.9 174.6,93.2 176.9,91.5 179,89.6 181.1,87.6 183,85.6 184.9,83.5 
			186.6,81.2 188.3,78.9 189.8,76.5 191.2,74.1 192.5,71.5 193.7,68.9 194.8,66.2 195.7,63.5 196.5,60.7 197.1,57.8 197.7,54.9 
			198,52 198.3,49 198.3,46 198.3,42.9 198,40 197.7,37 197.1,34.1 196.5,31.3 195.7,28.5 194.8,25.8 193.7,23.1 192.5,20.5 
			191.2,18 189.8,15.5 188.3,13.1 186.6,10.8 184.9,8.6 183,6.5 181.1,4.4 179,2.5 176.9,0.6 174.6,-1.1 172.3,-2.7 169.9,-4.3 
			167.5,-5.7 164.9,-7 162.3,-8.2 159.6,-9.2 156.9,-10.2 154.1,-10.9 151.3,-11.6 148.3,-12.1 145.4,-12.5 142.4,-12.7 
			139.4,-12.8 136.4,-12.7 133.4,-12.5 130.4,-12.1 127.5,-11.6 124.7,-10.9 121.9,-10.2 119.2,-9.2 116.5,-8.2 113.9,-7 
			111.4,-5.7 108.9,-4.3 106.5,-2.7 104.2,-1.1 102,0.6 99.9,2.5 97.8,4.4 95.9,6.5 94,8.6 92.3,10.8 90.6,13.1 89.1,15.5 87.7,18 
			86.4,20.5 85.2,23.1 84.2,25.8 83.3,28.5 82.5,31.3 81.8,34.1 81.3,37 80.9,40 80.7,42.9 80.6,46 80.7,49 80.9,52 81.3,54.9 
			81.8,57.8 82.5,60.7 83.3,63.5 84.2,66.2 85.2,68.9 86.4,71.5 87.7,74.1 89.1,76.5 90.6,78.9 92.3,81.2 94,83.5 95.9,85.6 
			97.8,87.6 99.9,89.6 102,91.5 104.2,93.2 106.5,94.9 108.9,96.4 111.4,97.8 113.9,99.1 116.5,100.3 119.2,101.3 121.9,102.3 
			124.7,103.1 127.5,103.7 130.4,104.2 133.4,104.6 136.4,104.8 139.4,104.9 139.4,104.9 		"/>
		<polygon class="st6" points="60.6,104.9 63.6,104.8 66.6,104.6 69.6,104.2 72.5,103.7 75.3,103.1 78.1,102.3 80.8,101.3 
			83.5,100.3 86.1,99.1 88.6,97.8 91.1,96.4 93.5,94.9 95.8,93.2 98,91.5 100.1,89.6 102.2,87.6 104.1,85.6 106,83.5 107.7,81.2 
			109.4,78.9 110.9,76.5 112.3,74.1 113.6,71.5 114.8,68.9 115.8,66.2 116.7,63.5 117.5,60.7 118.2,57.8 118.7,54.9 119.1,52 
			119.3,49 119.4,46 119.3,42.9 119.1,40 118.7,37 118.2,34.1 117.5,31.3 116.7,28.5 115.8,25.8 114.8,23.1 113.6,20.5 112.3,18 
			110.9,15.5 109.4,13.1 107.7,10.8 106,8.6 104.1,6.5 102.2,4.4 100.1,2.5 98,0.6 95.8,-1.1 93.5,-2.7 91.1,-4.3 88.6,-5.7 
			86.1,-7 83.5,-8.2 80.8,-9.2 78.1,-10.2 75.3,-10.9 72.5,-11.6 69.6,-12.1 66.6,-12.5 63.6,-12.7 60.6,-12.8 57.6,-12.7 
			54.6,-12.5 51.7,-12.1 48.7,-11.6 45.9,-10.9 43.1,-10.2 40.4,-9.2 37.7,-8.2 35.1,-7 32.5,-5.7 30.1,-4.3 27.7,-2.7 25.4,-1.1 
			23.1,0.6 21,2.5 18.9,4.4 17,6.5 15.1,8.6 13.4,10.8 11.7,13.1 10.2,15.5 8.8,18 7.5,20.5 6.3,23.1 5.2,25.8 4.3,28.5 3.5,31.3 
			2.9,34.1 2.3,37 2,40 1.7,42.9 1.7,46 1.7,49 2,52 2.3,54.9 2.9,57.8 3.5,60.7 4.3,63.5 5.2,66.2 6.3,68.9 7.5,71.5 8.8,74.1 
			10.2,76.5 11.7,78.9 13.4,81.2 15.1,83.5 17,85.6 18.9,87.6 21,89.6 23.1,91.5 25.4,93.2 27.7,94.9 30.1,96.4 32.5,97.8 
			35.1,99.1 37.7,100.3 40.4,101.3 43.1,102.3 45.9,103.1 48.7,103.7 51.7,104.2 54.6,104.6 57.6,104.8 60.6,104.9 60.6,104.9 		"/>
		<polygon class="st3" points="93.1,9.8 124.4,9.8 124.4,6.6 95.8,6.6 93.1,9.8 93.1,9.8 		"/>
		<polygon class="st3" points="88.4,16.9 124.4,16.9 124.4,13.7 90.3,13.7 88.4,16.9 88.4,16.9 		"/>
		<polygon class="st3" points="84.9,24 124.4,24 124.4,20.8 86.3,20.8 84.9,24 84.9,24 		"/>
		<polygon class="st3" points="82.5,31.1 124.4,31.1 124.4,27.9 83.5,27.9 82.5,31.1 82.5,31.1 		"/>
		<polygon class="st3" points="83.9,65.4 124.5,65.4 124.5,62.2 82.9,62.2 83.9,65.4 83.9,65.4 		"/>
		<polygon class="st3" points="86.9,72.5 124.5,72.5 124.5,69.3 85.4,69.3 86.9,72.5 86.9,72.5 		"/>
		<polygon class="st3" points="91.1,79.6 124.5,79.6 124.5,76.4 89.1,76.4 91.1,79.6 91.1,79.6 		"/>
		<polygon class="st3" points="96.9,86.7 124.5,86.7 124.5,83.5 94.1,83.5 96.9,86.7 96.9,86.7 		"/>
		<polygon class="st3" points="81.1,38.2 124.4,38.2 124.4,35 81.7,35 81.1,38.2 81.1,38.2 		"/>
		<polygon class="st3" points="107.5,58.3 124,58.3 124,55.1 108.1,55.1 107.5,58.3 107.5,58.3 		"/>
		<polygon class="st3" points="108.8,51.3 124,51.3 124,48 109.4,48 108.8,51.3 108.8,51.3 		"/>
		<polygon class="st3" points="80,48 84.3,48 84.3,51.3 80.2,51.3 80,48 80,48 		"/>
		<polygon class="st7" points="72,44.2 71.7,44.1 71.5,44.1 71.2,44.1 71,44 70.7,44 70.5,43.9 70.2,43.9 69.9,43.9 69.6,43.8 
			69.3,43.8 69,43.8 68.6,43.8 68.2,43.8 67.7,43.8 67.2,43.8 66.6,43.9 66.2,43.9 65.9,44 65.5,44.1 65.2,44.2 64.9,44.4 
			64.7,44.5 64.5,44.7 64.3,44.9 64.2,45.1 64.1,45.3 64,45.6 64,45.8 64.1,46.1 64.2,46.3 64.3,46.6 64.5,46.8 64.9,47.2 
			65.4,47.5 66,47.8 66.6,48 67.2,48.2 67.9,48.4 68.5,48.7 69.1,48.9 69.7,49.2 70.3,49.7 70.8,50.2 71.2,50.8 71.5,51.5 
			71.7,52.4 71.8,53.5 71.7,54.7 71.6,55.7 71.4,56.5 71,57.2 70.6,57.9 70.2,58.5 69.7,59 69.1,59.4 68.5,59.8 67.9,60.1 
			67.2,60.3 66.5,60.5 65.8,60.7 65.2,60.8 64.5,60.9 63.8,60.9 63.2,60.9 62.4,60.9 61.6,60.9 60.9,60.9 60.2,60.9 59.6,60.9 
			59.1,60.8 58.6,60.8 58.2,60.7 57.8,60.7 57.4,60.6 57,60.6 56.7,60.5 56.3,60.4 56,60.3 55.7,60.1 55.3,60 56.2,55.6 56.4,55.7 
			56.6,55.7 56.9,55.8 57.3,55.9 57.6,56 58,56.1 58.4,56.2 58.9,56.2 59.4,56.3 59.9,56.4 60.5,56.5 61,56.5 61.6,56.5 62.2,56.6 
			62.8,56.6 63.3,56.5 63.9,56.4 64.4,56.3 64.7,56 65,55.8 65.2,55.5 65.4,55.2 65.5,54.8 65.5,54.5 65.6,54 65.4,53.5 65.1,53.1 
			64.6,52.7 64,52.4 63.3,52.1 62.5,51.9 61.7,51.6 60.9,51.2 60.2,50.8 59.5,50.3 58.8,49.6 58.3,48.9 58,48 57.8,46.9 57.8,45.7 
			57.9,44.9 58.1,44.1 58.3,43.5 58.5,42.8 58.8,42.2 59.2,41.7 59.6,41.2 60.1,40.8 60.7,40.4 61.3,40.1 62,39.8 62.8,39.6 
			63.7,39.4 64.7,39.3 65.8,39.2 66.9,39.2 67.7,39.2 68.3,39.2 68.9,39.2 69.5,39.2 70,39.3 70.5,39.3 70.9,39.3 71.2,39.4 
			71.6,39.4 71.8,39.5 72.1,39.5 72.3,39.6 72.5,39.6 72.7,39.6 72.9,39.7 73,39.7 72,44.2 72,44.2 		"/>
		<polyline class="st8" points="72,44.2 72,44.2 71.7,44.1 71.5,44.1 71.2,44.1 71,44 70.7,44 70.5,43.9 70.2,43.9 69.9,43.9 
			69.6,43.8 69.3,43.8 69,43.8 68.6,43.8 68.2,43.8 67.7,43.8 67.2,43.8 66.6,43.9 66.6,43.9 66.2,43.9 65.9,44 65.5,44.1 
			65.2,44.2 64.9,44.4 64.7,44.5 64.5,44.7 64.3,44.9 64.2,45.1 64.1,45.3 64,45.6 64,45.8 64.1,46.1 64.2,46.3 64.3,46.6 
			64.5,46.8 64.5,46.8 64.9,47.2 65.4,47.5 66,47.8 66.6,48 67.2,48.2 67.9,48.4 68.5,48.7 69.1,48.9 69.7,49.2 70.3,49.7 
			70.8,50.2 71.2,50.8 71.5,51.5 71.7,52.4 71.8,53.5 71.7,54.7 71.7,54.7 71.6,55.7 71.4,56.5 71,57.2 70.6,57.9 70.2,58.5 
			69.7,59 69.1,59.4 68.5,59.8 67.9,60.1 67.2,60.3 66.5,60.5 65.8,60.7 65.2,60.8 64.5,60.9 63.8,60.9 63.2,60.9 63.2,60.9 
			62.4,60.9 61.6,60.9 60.9,60.9 60.2,60.9 59.6,60.9 59.1,60.8 58.6,60.8 58.2,60.7 57.8,60.7 57.4,60.6 57,60.6 56.7,60.5 
			56.3,60.4 56,60.3 55.7,60.1 55.3,60 56.2,55.6 56.2,55.6 56.4,55.7 56.6,55.7 56.9,55.8 57.3,55.9 57.6,56 58,56.1 58.4,56.2 
			58.9,56.2 59.4,56.3 59.9,56.4 60.5,56.5 61,56.5 61.6,56.5 62.2,56.6 62.8,56.6 63.3,56.5 63.3,56.5 63.9,56.4 64.4,56.3 
			64.7,56 65,55.8 65.2,55.5 65.4,55.2 65.5,54.8 65.5,54.5 65.5,54.5 65.6,54 65.4,53.5 65.1,53.1 64.6,52.7 64,52.4 63.3,52.1 
			62.5,51.9 61.7,51.6 60.9,51.2 60.2,50.8 59.5,50.3 58.8,49.6 58.3,48.9 58,48 57.8,46.9 57.8,45.7 57.8,45.7 57.9,44.9 
			58.1,44.1 58.3,43.5 58.5,42.8 58.8,42.2 59.2,41.7 59.6,41.2 60.1,40.8 60.7,40.4 61.3,40.1 62,39.8 62.8,39.6 63.7,39.4 
			64.7,39.3 65.8,39.2 66.9,39.2 66.9,39.2 67.7,39.2 68.3,39.2 68.9,39.2 69.5,39.2 70,39.3 70.5,39.3 70.9,39.3 71.2,39.4 
			71.6,39.4 71.8,39.5 72.1,39.5 72.3,39.6 72.5,39.6 72.7,39.6 72.9,39.7 73,39.7 72,44.2 		"/>
		<polygon class="st7" points="76.7,34.8 82.2,34.8 81.4,39.6 84.7,39.6 84,44.1 80.5,44 78.6,55 78.6,55.4 78.7,55.8 78.9,56 
			79.2,56.3 79.5,56.4 79.9,56.5 80.3,56.6 80.8,56.6 81.3,56.6 81.7,56.6 82,56.5 82.3,56.4 82.6,56.4 82.8,56.3 82.9,56.3 
			82.9,56.2 82.2,59.9 82.1,60 82,60.1 81.8,60.2 81.7,60.3 81.5,60.3 81.4,60.4 81.2,60.4 81,60.5 80.8,60.6 80.6,60.6 80.4,60.6 
			80.1,60.7 79.9,60.7 79.6,60.8 79.3,60.8 78.9,60.8 77.4,60.8 76.6,60.8 75.9,60.7 75.3,60.6 74.8,60.4 74.3,60.3 73.9,60.1 
			73.6,59.8 73.3,59.6 73.1,59.3 73,59 72.9,58.6 72.8,58.2 72.8,57.8 72.8,57.4 72.9,56.9 72.9,56.4 76.7,34.8 76.7,34.8 		"/>
		<polyline class="st8" points="76.7,34.8 82.2,34.8 81.4,39.6 84.7,39.6 84,44.1 80.5,44 78.6,55 78.6,55 78.6,55.4 78.7,55.8 
			78.9,56 79.2,56.3 79.5,56.4 79.9,56.5 80.3,56.6 80.8,56.6 80.8,56.6 81.3,56.6 81.7,56.6 82,56.5 82.3,56.4 82.6,56.4 
			82.8,56.3 82.9,56.3 82.9,56.2 82.2,59.9 82.2,59.9 82.1,60 82,60.1 81.8,60.2 81.7,60.3 81.5,60.3 81.4,60.4 81.2,60.4 81,60.5 
			80.8,60.6 80.6,60.6 80.4,60.6 80.1,60.7 79.9,60.7 79.6,60.8 79.3,60.8 78.9,60.8 77.4,60.8 77.4,60.8 76.6,60.8 75.9,60.7 
			75.3,60.6 74.8,60.4 74.3,60.3 73.9,60.1 73.6,59.8 73.3,59.6 73.1,59.3 73,59 72.9,58.6 72.8,58.2 72.8,57.8 72.8,57.4 
			72.9,56.9 72.9,56.4 76.7,34.8 		"/>
		<polygon class="st7" points="89.1,51.6 89.1,51.9 89,52.2 89.1,52.6 89.2,53 89.3,53.4 89.5,53.7 89.7,54.1 89.9,54.5 90.2,54.8 
			90.5,55.1 90.8,55.4 91.2,55.6 91.5,55.8 91.9,56 92.3,56.2 92.7,56.2 93.2,56.3 93.7,56.4 94.2,56.4 94.8,56.5 95.3,56.5 
			95.8,56.5 96.3,56.5 96.9,56.4 97.4,56.4 97.9,56.3 98.5,56.1 99,56 99.6,55.7 100.2,55.5 100.7,55.2 101.3,54.8 100.5,59.7 
			100.2,59.9 99.9,60 99.5,60.2 99.2,60.3 98.9,60.4 98.6,60.5 98.3,60.6 98,60.6 97.6,60.7 97.2,60.7 96.8,60.8 96.3,60.8 
			95.8,60.8 95.3,60.8 94.7,60.8 94,60.8 93.1,60.8 92.1,60.7 91.1,60.6 90.1,60.3 89.1,60 88.2,59.7 87.3,59.2 86.4,58.6 
			85.7,57.9 85,57.1 84.4,56.2 83.9,55.1 83.6,54 83.4,52.6 83.3,51.2 83.4,49.5 83.5,48.9 83.6,48.2 83.8,47.4 84,46.6 84.3,45.7 
			84.7,44.9 85.1,44 85.7,43.2 86.3,42.4 87.1,41.6 87.9,40.9 88.9,40.3 90.1,39.8 91.4,39.5 92.8,39.2 94.4,39.2 95.2,39.2 
			96,39.3 96.8,39.4 97.6,39.6 98.4,39.9 99.2,40.3 99.9,40.7 100.6,41.3 101.2,42 101.7,42.8 102.1,43.7 102.3,44.7 102.5,45.9 
			102.5,47.3 102.4,48.8 102.1,50.4 102,51.7 87.5,51.7 88.4,47.7 97.1,47.7 97.2,47.2 97.1,46.8 97.1,46.3 97,45.9 96.9,45.6 
			96.7,45.2 96.5,44.9 96.3,44.6 96.1,44.4 95.9,44.2 95.6,44 95.3,43.9 94.9,43.7 94.6,43.7 94.3,43.6 93.9,43.6 93.5,43.6 
			93.2,43.7 92.9,43.7 92.5,43.8 92.2,44 91.9,44.2 91.6,44.4 91.3,44.6 91.1,44.9 90.8,45.2 90.6,45.5 90.4,45.9 90.3,46.2 
			90.1,46.6 90,47 89.9,47.4 89.1,51.6 89.1,51.6 		"/>
		<polyline class="st8" points="89.1,51.6 89.1,51.6 89.1,51.9 89,52.2 89.1,52.6 89.2,53 89.3,53.4 89.5,53.7 89.7,54.1 89.9,54.5 
			90.2,54.8 90.5,55.1 90.8,55.4 91.2,55.6 91.5,55.8 91.9,56 92.3,56.2 92.7,56.2 92.7,56.2 93.2,56.3 93.7,56.4 94.2,56.4 
			94.8,56.5 95.3,56.5 95.8,56.5 96.3,56.5 96.9,56.4 97.4,56.4 97.9,56.3 98.5,56.1 99,56 99.6,55.7 100.2,55.5 100.7,55.2 
			101.3,54.8 100.5,59.7 100.5,59.7 100.2,59.9 99.9,60 99.5,60.2 99.2,60.3 98.9,60.4 98.6,60.5 98.3,60.6 98,60.6 97.6,60.7 
			97.2,60.7 96.8,60.8 96.3,60.8 95.8,60.8 95.3,60.8 94.7,60.8 94,60.8 94,60.8 93.1,60.8 92.1,60.7 91.1,60.6 90.1,60.3 89.1,60 
			88.2,59.7 87.3,59.2 86.4,58.6 85.7,57.9 85,57.1 84.4,56.2 83.9,55.1 83.6,54 83.4,52.6 83.3,51.2 83.4,49.5 83.4,49.5 
			83.5,48.9 83.6,48.2 83.8,47.4 84,46.6 84.3,45.7 84.7,44.9 85.1,44 85.7,43.2 86.3,42.4 87.1,41.6 87.9,40.9 88.9,40.3 
			90.1,39.8 91.4,39.5 92.8,39.2 94.4,39.2 94.4,39.2 95.2,39.2 96,39.3 96.8,39.4 97.6,39.6 98.4,39.9 99.2,40.3 99.9,40.7 
			100.6,41.3 101.2,42 101.7,42.8 102.1,43.7 102.3,44.7 102.5,45.9 102.5,47.3 102.4,48.8 102.1,50.4 102,51.7 87.5,51.7 
			88.4,47.7 97.1,47.7 97.1,47.7 97.2,47.2 97.1,46.8 97.1,46.3 97,45.9 96.9,45.6 96.7,45.2 96.5,44.9 96.3,44.6 96.1,44.4 
			95.9,44.2 95.6,44 95.3,43.9 94.9,43.7 94.6,43.7 94.3,43.6 93.9,43.6 93.9,43.6 93.5,43.6 93.2,43.7 92.9,43.7 92.5,43.8 
			92.2,44 91.9,44.2 91.6,44.4 91.3,44.6 91.1,44.9 90.8,45.2 90.6,45.5 90.4,45.9 90.3,46.2 90.1,46.6 90,47 89.9,47.4 89.1,51.6 
					"/>
		<polygon class="st7" points="136.5,40.8 136.2,40.6 136,40.5 135.7,40.4 135.4,40.2 135.1,40.1 134.7,40 134.4,39.9 134,39.8 
			133.7,39.7 133.3,39.6 132.9,39.5 132.5,39.4 132,39.4 131.5,39.4 131.1,39.4 130.6,39.4 130.1,39.4 129.6,39.4 129,39.5 
			128.5,39.6 127.9,39.7 127.4,39.9 126.8,40.2 126.2,40.6 125.7,41 125.2,41.5 124.7,42.2 124.2,42.9 123.8,43.8 123.4,44.8 
			123,45.9 122.7,47.1 122.6,47.9 122.5,48.6 122.4,49.2 122.5,49.9 122.5,50.6 122.7,51.2 122.8,51.8 123,52.4 123.3,53 
			123.7,53.5 124.1,53.9 124.6,54.4 125.1,54.7 125.7,55 126.4,55.3 127.2,55.4 127.4,55.5 127.7,55.6 128.1,55.6 128.5,55.6 
			128.9,55.7 129.4,55.7 129.9,55.7 130.4,55.6 130.9,55.6 131.4,55.5 131.9,55.3 132.4,55.2 132.9,55 133.4,54.7 133.8,54.4 
			134.2,54 133.3,59.3 133.2,59.4 133,59.6 132.9,59.7 132.7,59.8 132.5,60 132.2,60.1 131.9,60.2 131.5,60.4 131.1,60.5 
			130.6,60.6 130,60.7 129.3,60.8 128.5,60.8 127.6,60.8 126.6,60.8 125.5,60.7 124.6,60.6 123.6,60.4 122.7,60.1 121.8,59.8 
			120.9,59.3 120.1,58.7 119.3,58 118.6,57.2 117.9,56.3 117.4,55.3 116.9,54.2 116.5,53 116.3,51.7 116.2,50.2 116.3,48.7 
			116.5,47 116.6,46.2 116.8,45.4 117,44.7 117.2,43.9 117.4,43.2 117.7,42.5 117.9,41.9 118.2,41.3 118.5,40.7 118.8,40.1 
			119.2,39.5 119.5,39 119.9,38.5 120.3,38 120.7,37.6 121.1,37.2 121.5,36.8 122,36.4 122.5,36.1 123,35.7 123.5,35.5 124,35.2 
			124.6,35 125.2,34.7 125.8,34.5 126.4,34.4 127,34.2 127.7,34.1 128.4,34 129.1,33.9 129.8,33.9 130.6,33.9 131.2,33.9 
			131.8,33.9 132.4,34 133,34.1 133.6,34.2 134.1,34.3 134.6,34.4 135.1,34.5 135.6,34.6 136,34.7 136.3,34.9 136.6,35 136.9,35.1 
			137.2,35.2 137.3,35.2 137.5,35.3 136.5,40.8 136.5,40.8 		"/>
		<polyline class="st8" points="136.5,40.8 136.5,40.8 136.2,40.6 136,40.5 135.7,40.4 135.4,40.2 135.1,40.1 134.7,40 134.4,39.9 
			134,39.8 133.7,39.7 133.3,39.6 132.9,39.5 132.5,39.4 132,39.4 131.5,39.4 131.1,39.4 130.6,39.4 130.6,39.4 130.1,39.4 
			129.6,39.4 129,39.5 128.5,39.6 127.9,39.7 127.4,39.9 126.8,40.2 126.2,40.6 125.7,41 125.2,41.5 124.7,42.2 124.2,42.9 
			123.8,43.8 123.4,44.8 123,45.9 122.7,47.1 122.7,47.1 122.6,47.9 122.5,48.6 122.4,49.2 122.5,49.9 122.5,50.6 122.7,51.2 
			122.8,51.8 123,52.4 123.3,53 123.7,53.5 124.1,53.9 124.6,54.4 125.1,54.7 125.7,55 126.4,55.3 127.2,55.4 127.2,55.4 
			127.4,55.5 127.7,55.6 128.1,55.6 128.5,55.6 128.9,55.7 129.4,55.7 129.9,55.7 130.4,55.6 130.9,55.6 131.4,55.5 131.9,55.3 
			132.4,55.2 132.9,55 133.4,54.7 133.8,54.4 134.2,54 133.3,59.3 133.3,59.3 133.2,59.4 133,59.6 132.9,59.7 132.7,59.8 132.5,60 
			132.2,60.1 131.9,60.2 131.5,60.4 131.1,60.5 130.6,60.6 130,60.7 129.3,60.8 128.5,60.8 127.6,60.8 126.6,60.8 125.5,60.7 
			125.5,60.7 124.6,60.6 123.6,60.4 122.7,60.1 121.8,59.8 120.9,59.3 120.1,58.7 119.3,58 118.6,57.2 117.9,56.3 117.4,55.3 
			116.9,54.2 116.5,53 116.3,51.7 116.2,50.2 116.3,48.7 116.5,47 116.5,47 116.6,46.2 116.8,45.4 117,44.7 117.2,43.9 117.4,43.2 
			117.7,42.5 117.9,41.9 118.2,41.3 118.5,40.7 118.8,40.1 119.2,39.5 119.5,39 119.9,38.5 120.3,38 120.7,37.6 121.1,37.2 
			121.5,36.8 122,36.4 122.5,36.1 123,35.7 123.5,35.5 124,35.2 124.6,35 125.2,34.7 125.8,34.5 126.4,34.4 127,34.2 127.7,34.1 
			128.4,34 129.1,33.9 129.8,33.9 130.6,33.9 130.6,33.9 131.2,33.9 131.8,33.9 132.4,34 133,34.1 133.6,34.2 134.1,34.3 
			134.6,34.4 135.1,34.5 135.6,34.6 136,34.7 136.3,34.9 136.6,35 136.9,35.1 137.2,35.2 137.3,35.2 137.5,35.3 136.5,40.8 		"/>
		<polygon class="st7" points="185.3,60.8 179.8,60.8 180.2,58.6 180.2,58.4 179.9,58.8 179.6,59.2 179.3,59.5 178.9,59.8 178.5,60 
			178.2,60.3 177.8,60.4 177.4,60.6 177.1,60.8 176.7,60.9 176.3,61 175.9,61 175.5,61.1 175.1,61.1 174.7,61.1 174.4,61.1 
			173.3,61.1 172.4,60.8 171.5,60.5 170.7,60 170,59.5 169.3,58.8 168.8,58.1 168.3,57.2 167.9,56.3 167.6,55.4 167.4,54.4 
			167.2,53.4 167.2,52.4 167.2,51.4 167.3,50.4 167.5,49.3 167.8,48.2 168.1,47.1 168.5,46.1 169,45.1 169.5,44.2 170.1,43.4 
			170.8,42.7 171.4,42 172.1,41.5 172.8,41 173.6,40.5 174.4,40.2 175.1,39.9 175.9,39.7 176.7,39.6 177.5,39.6 178.1,39.6 
			178.7,39.7 179.2,39.8 179.7,39.9 180.1,40.1 180.5,40.2 180.9,40.5 181.3,40.7 181.6,40.9 181.9,41.2 182.2,41.4 182.4,41.7 
			182.6,41.9 182.8,42.2 182.9,42.4 183,42.7 183,42.7 184.4,34.9 189.8,34.9 185.3,60.8 185.3,60.8 		"/>
		<polyline class="st8" points="185.3,60.8 179.8,60.8 180.2,58.6 180.2,58.4 180.2,58.4 179.9,58.8 179.6,59.2 179.3,59.5 
			178.9,59.8 178.5,60 178.2,60.3 177.8,60.4 177.4,60.6 177.1,60.8 176.7,60.9 176.3,61 175.9,61 175.5,61.1 175.1,61.1 
			174.7,61.1 174.4,61.1 174.4,61.1 173.3,61.1 172.4,60.8 171.5,60.5 170.7,60 170,59.5 169.3,58.8 168.8,58.1 168.3,57.2 
			167.9,56.3 167.6,55.4 167.4,54.4 167.2,53.4 167.2,52.4 167.2,51.4 167.3,50.4 167.5,49.3 167.5,49.3 167.8,48.2 168.1,47.1 
			168.5,46.1 169,45.1 169.5,44.2 170.1,43.4 170.8,42.7 171.4,42 172.1,41.5 172.8,41 173.6,40.5 174.4,40.2 175.1,39.9 
			175.9,39.7 176.7,39.6 177.5,39.6 177.5,39.6 178.1,39.6 178.7,39.7 179.2,39.8 179.7,39.9 180.1,40.1 180.5,40.2 180.9,40.5 
			181.3,40.7 181.6,40.9 181.9,41.2 182.2,41.4 182.4,41.7 182.6,41.9 182.8,42.2 182.9,42.4 183,42.7 183,42.7 184.4,34.9 
			189.8,34.9 185.3,60.8 		"/>
		<polygon class="st3" points="176.4,56 176.9,56 177.4,55.9 177.9,55.7 178.4,55.5 178.8,55.3 179.2,55 179.6,54.6 179.9,54.3 
			180.2,53.9 180.5,53.5 180.7,53 180.9,52.5 181.1,52 181.3,51.5 181.4,51 181.5,50.4 181.6,49.9 181.7,49.3 181.7,48.8 
			181.7,48.2 181.6,47.7 181.5,47.2 181.4,46.7 181.2,46.3 181,45.9 180.8,45.5 180.5,45.2 180.2,44.9 179.9,44.7 179.6,44.5 
			179.2,44.4 178.8,44.4 178.2,44.4 177.7,44.5 177.3,44.6 176.8,44.8 176.4,45.1 176,45.4 175.7,45.8 175.3,46.1 175,46.6 
			174.8,47 174.5,47.5 174.3,48 174.1,48.6 173.9,49.1 173.8,49.7 173.7,50.2 173.6,51.1 173.6,52.1 173.7,53 174,54 174.4,54.8 
			174.9,55.4 175.6,55.9 176.4,56 176.4,56 		"/>
		<polygon class="st7" points="54.4,56.4 53.6,60.8 48.6,60.8 48.8,60 48.9,59.3 49,58.7 49,58.4 48.8,58.8 48.4,59.1 48.1,59.4 
			47.6,59.7 47.2,59.9 46.7,60.2 46.2,60.4 45.6,60.6 45,60.8 44.5,60.9 43.9,61 43.3,61.1 42.7,61.2 42.1,61.2 41.6,61.1 41.1,61 
			40.4,60.9 39.7,60.7 39.2,60.4 38.7,60.1 38.2,59.8 37.8,59.4 37.5,59.1 37.2,58.7 37,58.2 36.8,57.8 36.6,57.4 36.5,56.9 
			36.4,56.5 36.4,56 36.4,55.6 36.4,55.1 36.4,54.4 36.5,53.6 36.7,52.9 37,52.3 37.3,51.6 37.7,51.1 38.1,50.5 38.6,50 39.1,49.5 
			39.6,49.1 40.2,48.8 40.8,48.4 41.4,48.2 42.1,47.9 42.7,47.8 43.4,47.6 43.5,47.6 43.6,47.6 43.7,47.6 43.9,47.6 44.2,47.5 
			44.5,47.5 44.7,47.5 45.1,47.4 45.4,47.4 45.8,47.4 46.1,47.3 46.4,47.3 46.8,47.3 47.1,47.3 47.3,47.2 47.5,47.2 48,47.2 
			48.5,47.3 48.9,47.3 49.4,47.3 49.7,47.3 50,47.3 50.2,47.3 50.2,47.3 50.3,47.2 50.4,46.8 50.5,46.4 50.5,46.1 50.5,45.6 
			50.3,45.2 50,44.9 49.7,44.6 49.4,44.3 48.9,44.1 48.5,44 47.9,44 47.4,43.9 46.8,43.9 46.2,43.9 45.5,43.9 44.9,44 44.3,44 
			43.6,44.1 43,44.2 42.4,44.3 41.8,44.4 41.3,44.5 40.8,44.6 40.4,44.7 40,44.8 39.8,44.9 39.5,45.1 41,40.3 41.4,40.1 41.8,39.9 
			42.3,39.8 42.8,39.7 43.3,39.6 43.8,39.5 44.3,39.4 44.8,39.4 45.4,39.4 46,39.3 46.6,39.3 47.2,39.3 47.8,39.3 48.5,39.3 
			49.2,39.3 49.9,39.4 50.4,39.4 51,39.5 51.6,39.6 52.3,39.8 52.9,40.1 53.5,40.3 54.1,40.7 54.6,41 55.1,41.5 55.5,42 55.9,42.5 
			56.2,43.1 56.4,43.7 56.6,44.4 56.6,45.2 56.4,46 54.4,56.4 54.4,56.4 		"/>
		<polyline class="st8" points="54.4,56.4 53.6,60.8 48.6,60.8 48.6,60.8 48.8,60 48.9,59.3 49,58.7 49,58.4 49,58.4 48.8,58.8 
			48.4,59.1 48.1,59.4 47.6,59.7 47.2,59.9 46.7,60.2 46.2,60.4 45.6,60.6 45,60.8 44.5,60.9 43.9,61 43.3,61.1 42.7,61.2 
			42.1,61.2 41.6,61.1 41.1,61 41.1,61 40.4,60.9 39.7,60.7 39.2,60.4 38.7,60.1 38.2,59.8 37.8,59.4 37.5,59.1 37.2,58.7 37,58.2 
			36.8,57.8 36.6,57.4 36.5,56.9 36.4,56.5 36.4,56 36.4,55.6 36.4,55.1 36.4,55.1 36.4,54.4 36.5,53.6 36.7,52.9 37,52.3 
			37.3,51.6 37.7,51.1 38.1,50.5 38.6,50 39.1,49.5 39.6,49.1 40.2,48.8 40.8,48.4 41.4,48.2 42.1,47.9 42.7,47.8 43.4,47.6 
			43.4,47.6 43.5,47.6 43.6,47.6 43.7,47.6 43.9,47.6 44.2,47.5 44.5,47.5 44.7,47.5 45.1,47.4 45.4,47.4 45.8,47.4 46.1,47.3 
			46.4,47.3 46.8,47.3 47.1,47.3 47.3,47.2 47.5,47.2 47.5,47.2 48,47.2 48.5,47.3 48.9,47.3 49.4,47.3 49.7,47.3 50,47.3 
			50.2,47.3 50.2,47.3 50.2,47.3 50.3,47.2 50.4,46.8 50.5,46.4 50.5,46.1 50.5,46.1 50.5,45.6 50.3,45.2 50,44.9 49.7,44.6 
			49.4,44.3 48.9,44.1 48.5,44 47.9,44 47.9,44 47.4,43.9 46.8,43.9 46.2,43.9 45.5,43.9 44.9,44 44.3,44 43.6,44.1 43,44.2 
			42.4,44.3 41.8,44.4 41.3,44.5 40.8,44.6 40.4,44.7 40,44.8 39.8,44.9 39.5,45.1 41,40.3 41,40.3 41.4,40.1 41.8,39.9 42.3,39.8 
			42.8,39.7 43.3,39.6 43.8,39.5 44.3,39.4 44.8,39.4 45.4,39.4 46,39.3 46.6,39.3 47.2,39.3 47.8,39.3 48.5,39.3 49.2,39.3 
			49.9,39.4 49.9,39.4 50.4,39.4 51,39.5 51.6,39.6 52.3,39.8 52.9,40.1 53.5,40.3 54.1,40.7 54.6,41 55.1,41.5 55.5,42 55.9,42.5 
			56.2,43.1 56.4,43.7 56.6,44.4 56.6,45.2 56.4,46 54.4,56.4 		"/>
		<polygon class="st6" points="49.7,51.3 49.6,51.2 49.6,51.1 49.4,51 49.2,51 49,50.9 48.8,50.9 48.5,50.9 48.2,50.9 47.8,50.9 
			47.5,51 47.2,51 46.9,51 46.6,51.1 46.3,51.1 46.1,51.2 45.8,51.3 45.7,51.3 45.5,51.4 45.3,51.4 45.1,51.5 44.8,51.7 44.6,51.8 
			44.3,51.9 44.1,52.1 43.8,52.3 43.5,52.5 43.3,52.7 43.1,53 42.9,53.2 42.7,53.5 42.6,53.8 42.5,54.1 42.5,54.8 42.6,55.3 
			42.8,55.7 43.1,56 43.4,56.2 43.7,56.4 44,56.4 44.4,56.4 44.9,56.4 45.5,56.4 46,56.3 46.5,56.2 46.9,56 47.2,55.8 47.6,55.7 
			47.9,55.4 48.1,55.2 48.4,55 48.6,54.8 48.7,54.5 48.9,54.3 49,54.1 49.1,53.9 49.1,53.6 49.3,53.1 49.4,52.4 49.6,51.8 
			49.7,51.3 49.7,51.3 		"/>
		<polygon class="st7" points="12.7,60.8 7.3,60.8 11.8,34.8 21.2,34.8 22.1,50.2 28.5,34.8 38.4,34.8 33.7,60.8 28.3,60.8 
			31.8,41.4 31.5,41.4 23.5,60.8 17.4,60.8 17.3,60 17.2,57.9 17,54.8 16.8,51.3 16.6,47.7 16.4,44.6 16.3,42.3 16.3,41.4 
			16.2,41.4 16.1,41.4 16,41.4 16,41.4 12.7,60.8 12.7,60.8 		"/>
		<polyline class="st8" points="12.7,60.8 7.3,60.8 11.8,34.8 21.2,34.8 22.1,50.2 28.5,34.8 38.4,34.8 33.7,60.8 28.3,60.8 
			31.8,41.4 31.5,41.4 23.5,60.8 17.4,60.8 17.4,60.8 17.3,60 17.2,57.9 17,54.8 16.8,51.3 16.6,47.7 16.4,44.6 16.3,42.3 
			16.3,41.4 16.3,41.4 16.2,41.4 16.1,41.4 16,41.4 16,41.4 12.7,60.8 		"/>
		<polygon class="st7" points="153,56.4 152.2,60.8 147.2,60.8 147.2,60 147.2,59.3 147.2,58.8 147.3,58.5 147,58.8 146.7,59.1 
			146.4,59.4 146,59.7 145.5,59.9 145.1,60.2 144.6,60.4 144.1,60.6 143.5,60.8 143,60.9 142.4,61 141.9,61.1 141.3,61.2 
			140.7,61.2 140.2,61.1 139.7,61 139,60.9 138.3,60.7 137.8,60.4 137.2,60.1 136.8,59.8 136.4,59.4 136.1,59.1 135.8,58.7 
			135.6,58.2 135.4,57.8 135.3,57.4 135.2,56.9 135.1,56.5 135,56 135,55.6 135,55.1 135,54.4 135.1,53.6 135.3,52.9 135.6,52.3 
			135.9,51.6 136.3,51.1 136.7,50.5 137.1,50 137.6,49.5 138.2,49.1 138.8,48.8 139.4,48.4 140,48.2 140.6,47.9 141.3,47.8 
			142,47.6 142,47.6 142.1,47.6 142.2,47.6 142.4,47.6 142.7,47.5 143,47.5 143.3,47.5 143.6,47.4 143.9,47.4 144.3,47.4 
			144.6,47.3 145,47.3 145.3,47.3 145.6,47.3 145.8,47.2 146.1,47.2 146.5,47.2 147,47.3 147.5,47.3 147.9,47.3 148.3,47.3 
			148.6,47.3 148.8,47.3 148.9,47.3 148.9,47.2 149,46.8 149,46.4 149.1,46.1 149,45.6 148.8,45.2 148.6,44.9 148.3,44.6 
			147.9,44.3 147.5,44.1 147.1,44 146.6,44 146,43.9 145.4,43.9 144.8,43.9 144.2,43.9 143.5,44 142.9,44 142.2,44.1 141.6,44.2 
			141,44.3 140.5,44.4 139.9,44.5 139.5,44.6 139,44.7 138.7,44.8 138.4,44.9 138.2,45.1 139.6,40.3 140,40.1 140.5,39.9 
			140.9,39.8 141.4,39.7 141.9,39.6 142.4,39.5 142.9,39.4 143.4,39.4 144,39.4 144.6,39.3 145.1,39.3 145.8,39.3 146.4,39.3 
			147,39.3 147.7,39.3 148.4,39.4 148.9,39.4 149.5,39.5 150.1,39.6 150.8,39.8 151.4,40.1 152,40.3 152.6,40.7 153.1,41 
			153.6,41.5 154.1,42 154.5,42.5 154.8,43.1 155,43.7 155.2,44.4 155.2,45.2 155.1,46 153,56.4 153,56.4 		"/>
		<polygon class="st7" points="152.2,61 152.3,60.9 153.1,56.5 152.8,56.4 152,60.8 152.2,60.7 152.2,61 152.3,61 152.3,60.9 
			152.2,61 152.2,61 		"/>
		<polygon class="st7" points="147.1,60.8 147.2,61 152.2,61 152.2,60.7 147.2,60.7 147.3,60.8 147.1,60.8 147,61 147.2,61 
			147.1,60.8 147.1,60.8 		"/>
		<polygon class="st7" points="147.4,58.6 147.2,58.5 147.1,58.8 147.1,59.3 147.1,60 147.1,60.8 147.3,60.8 147.3,60 147.4,59.3 
			147.3,58.8 147.3,58.6 147.2,58.5 147.4,58.6 147.4,58.6 		"/>
		<polygon class="st7" points="139.6,61.2 139.6,61.2 140.2,61.2 140.7,61.3 141.3,61.3 141.9,61.2 142.4,61.2 143,61.1 143.6,60.9 
			144.1,60.7 144.6,60.5 145.1,60.3 145.6,60.1 146,59.8 146.4,59.5 146.8,59.2 147.1,58.9 147.4,58.6 147.2,58.5 146.9,58.8 
			146.6,59 146.3,59.3 145.9,59.6 145.5,59.8 145,60.1 144.5,60.3 144,60.5 143.5,60.7 143,60.8 142.4,60.9 141.9,61 141.3,61 
			140.7,61.1 140.2,61 139.7,60.9 139.7,60.9 139.6,61.2 139.6,61.2 		"/>
		<polygon class="st7" points="134.8,55.1 134.8,55.1 134.9,55.6 134.9,56 135,56.5 135,57 135.1,57.4 135.3,57.8 135.5,58.3 
			135.7,58.7 136,59.1 136.3,59.5 136.7,59.9 137.2,60.2 137.7,60.5 138.3,60.8 138.9,61 139.6,61.2 139.7,60.9 139,60.7 
			138.4,60.5 137.8,60.3 137.3,60 136.9,59.7 136.5,59.4 136.2,59 135.9,58.6 135.7,58.2 135.5,57.8 135.4,57.3 135.3,56.9 
			135.2,56.5 135.1,56 135.1,55.6 135.1,55.1 135.1,55.1 134.8,55.1 134.8,55.1 		"/>
		<polygon class="st7" points="142,47.5 142,47.5 141.3,47.6 140.6,47.8 139.9,48 139.3,48.3 138.7,48.6 138.1,49 137.6,49.4 
			137,49.9 136.6,50.4 136.2,51 135.8,51.6 135.5,52.2 135.2,52.9 135,53.6 134.9,54.4 134.8,55.1 135.1,55.1 135.1,54.4 
			135.3,53.7 135.4,53 135.7,52.3 136,51.7 136.4,51.1 136.8,50.6 137.2,50.1 137.7,49.6 138.3,49.2 138.8,48.9 139.4,48.6 
			140,48.3 140.7,48.1 141.3,47.9 142,47.8 142,47.8 142,47.5 142,47.5 		"/>
		<polygon class="st7" points="146.1,47.1 146.1,47.1 145.8,47.1 145.6,47.1 145.3,47.2 145,47.2 144.6,47.2 144.3,47.2 143.9,47.3 
			143.6,47.3 143.3,47.4 143,47.4 142.7,47.4 142.4,47.5 142.2,47.5 142.1,47.5 142,47.5 142,47.5 142,47.8 142,47.8 142.1,47.7 
			142.2,47.7 142.4,47.7 142.7,47.7 143,47.6 143.3,47.6 143.6,47.6 143.9,47.5 144.3,47.5 144.6,47.5 145,47.4 145.3,47.4 
			145.6,47.4 145.8,47.4 146.1,47.4 146.1,47.4 146.1,47.1 146.1,47.1 		"/>
		<polygon class="st7" points="148.7,47.3 148.9,47.2 148.8,47.2 148.6,47.2 148.3,47.2 147.9,47.1 147.5,47.1 147,47.1 146.5,47.1 
			146.1,47.1 146.1,47.4 146.5,47.4 147,47.4 147.5,47.4 147.9,47.4 148.3,47.4 148.6,47.4 148.8,47.5 148.9,47.5 149,47.4 
			148.9,47.5 149,47.5 149,47.4 148.7,47.3 148.7,47.3 		"/>
		<polygon class="st7" points="148.9,46.1 148.9,46.1 148.9,46.4 148.8,46.8 148.8,47.2 148.7,47.3 149,47.4 149,47.2 149.1,46.9 
			149.1,46.4 149.2,46.1 149.2,46.1 148.9,46.1 148.9,46.1 		"/>
		<polygon class="st7" points="146.6,44.1 146.6,44.1 147,44.1 147.4,44.2 147.8,44.4 148.2,44.7 148.5,44.9 148.7,45.3 148.9,45.6 
			148.9,46.1 149.2,46.1 149.1,45.6 148.9,45.2 148.7,44.8 148.3,44.5 148,44.2 147.5,44 147.1,43.9 146.6,43.8 146.6,43.8 
			146.6,44.1 146.6,44.1 		"/>
		<polygon class="st7" points="138.1,45 138.3,45.2 138.5,45.1 138.7,44.9 139.1,44.8 139.5,44.7 140,44.6 140.5,44.5 141.1,44.4 
			141.6,44.3 142.2,44.2 142.9,44.2 143.5,44.1 144.2,44.1 144.8,44.1 145.4,44.1 146,44.1 146.6,44.1 146.6,43.8 146,43.8 
			145.4,43.8 144.8,43.8 144.2,43.8 143.5,43.9 142.9,43.9 142.2,44 141.6,44.1 141,44.1 140.4,44.2 139.9,44.3 139.4,44.4 
			139,44.6 138.6,44.7 138.3,44.8 138.1,45 138.3,45.1 138.1,45 138.1,45 		"/>
		<polygon class="st7" points="139.5,40.2 139.4,40.3 138.1,45 138.3,45.1 139.7,40.3 139.6,40.4 139.5,40.2 139.5,40.2 139.4,40.3 
			139.5,40.2 139.5,40.2 		"/>
		<polygon class="st7" points="148.4,39.2 148.4,39.2 147.7,39.2 147,39.2 146.4,39.2 145.8,39.2 145.1,39.2 144.6,39.2 144,39.2 
			143.4,39.3 142.9,39.3 142.4,39.4 141.9,39.5 141.4,39.6 140.9,39.7 140.4,39.8 140,40 139.5,40.2 139.6,40.4 140,40.2 
			140.5,40.1 140.9,39.9 141.4,39.8 141.9,39.7 142.4,39.6 142.9,39.6 143.4,39.5 144,39.5 144.6,39.5 145.1,39.5 145.8,39.5 
			146.4,39.5 147,39.5 147.7,39.5 148.4,39.5 148.4,39.5 148.4,39.2 148.4,39.2 		"/>
		<polygon class="st7" points="155.2,46 155.2,46 155.3,45.2 155.3,44.4 155.1,43.7 154.9,43.1 154.6,42.4 154.2,41.9 153.7,41.4 
			153.2,41 152.7,40.6 152.1,40.2 151.4,39.9 150.8,39.7 150.1,39.5 149.5,39.4 148.9,39.3 148.4,39.2 148.4,39.5 148.9,39.5 
			149.5,39.6 150.1,39.8 150.7,39.9 151.3,40.2 151.9,40.5 152.5,40.8 153.1,41.1 153.6,41.6 154,42 154.4,42.6 154.7,43.1 
			154.9,43.7 155,44.4 155,45.2 154.9,45.9 154.9,45.9 155.2,46 155.2,46 		"/>
		<polygon class="st7" points="153.1,56.5 153.1,56.5 155.2,46 154.9,45.9 152.8,56.4 152.8,56.4 153.1,56.5 153.1,56.5 		"/>
		<polygon class="st3" points="148.2,51.3 148.1,51.1 148,51 147.9,51 147.7,50.9 147.5,50.9 147.2,50.9 146.9,50.9 146.6,50.9 
			146.3,50.9 146,51 145.7,51 145.4,51.1 145.1,51.1 144.8,51.2 144.6,51.2 144.4,51.3 144.2,51.3 144.1,51.3 143.9,51.4 
			143.7,51.5 143.4,51.6 143.2,51.7 142.9,51.8 142.6,52 142.4,52.2 142.1,52.4 141.9,52.6 141.7,52.9 141.5,53.2 141.4,53.5 
			141.2,53.8 141.2,54.1 141.2,54.8 141.3,55.3 141.4,55.7 141.7,56 141.9,56.2 142.3,56.4 142.6,56.4 143,56.4 143.6,56.4 
			144.1,56.4 144.6,56.3 145.1,56.1 145.5,56 145.9,55.8 146.3,55.6 146.6,55.3 146.9,55.1 147.1,54.9 147.3,54.6 147.5,54.4 
			147.6,54.1 147.7,53.9 147.8,53.7 147.9,53.4 147.9,52.9 148,52.3 148.1,51.8 148.2,51.3 148.2,51.3 		"/>
		<polygon class="st7" points="189.1,58.1 189.1,57.7 189.3,57.1 189.5,56.7 189.9,56.2 190.3,55.9 190.8,55.7 191.3,55.5 
			191.8,55.4 192.4,55.5 192.9,55.7 193.4,55.9 193.8,56.2 194.1,56.7 194.4,57.1 194.6,57.7 194.6,58.1 194,58.1 194,57.8 
			193.9,57.3 193.7,56.9 193.4,56.6 193.1,56.3 192.7,56.1 192.3,56 191.8,55.9 191.4,56 190.9,56.1 190.6,56.3 190.3,56.6 
			190,56.9 189.8,57.3 189.7,57.8 189.6,58.1 189.1,58.1 189.1,58.1 		"/>
		<polygon class="st7" points="190.8,58.1 190.8,56.9 191.9,56.9 192.2,57 192.4,57 192.6,57.1 192.7,57.1 192.8,57.2 192.9,57.4 
			192.9,57.5 192.9,57.6 192.9,57.8 192.9,58 192.8,58.1 192.8,58.1 191.9,58.1 192,58.1 192.2,58.1 192.3,58 192.4,58 192.5,57.9 
			192.5,57.9 192.5,57.8 192.5,57.6 192.5,57.5 192.5,57.5 192.4,57.4 192.4,57.4 192.3,57.4 192.2,57.3 192.1,57.3 191.9,57.3 
			191.3,57.3 191.3,58.1 190.8,58.1 190.8,58.1 		"/>
		<polygon class="st7" points="189.1,58.1 189,58.2 189.1,58.8 189.3,59.4 189.5,59.8 189.9,60.2 190.3,60.6 190.8,60.8 191.3,61 
			191.8,61 192.4,61 192.9,60.8 193.4,60.6 193.8,60.2 194.1,59.8 194.4,59.4 194.6,58.8 194.6,58.2 194.6,58.1 194,58.1 194,58.2 
			194,58.7 193.9,59.2 193.7,59.5 193.4,59.9 193.1,60.1 192.7,60.4 192.3,60.5 191.8,60.5 191.4,60.5 190.9,60.4 190.6,60.1 
			190.3,59.9 190,59.5 189.8,59.2 189.7,58.7 189.6,58.2 189.6,58.1 189.1,58.1 189.1,58.1 		"/>
		<polygon class="st7" points="190.8,58.1 190.8,59.3 191.3,59.3 191.3,58.3 191.8,58.3 192.4,59.3 192.8,59.3 192.2,58.3 
			192.4,58.3 192.5,58.3 192.6,58.3 192.7,58.2 192.8,58.1 191.9,58.1 191.8,58.1 191.3,58.1 191.3,58.1 190.8,58.1 190.8,58.1 		
			"/>
		<path class="st8" d="M189,58.2L189,58.2l0.1-0.6l0.2-0.5l0.3-0.5l0.3-0.4l0.4-0.3l0.5-0.2l0.5-0.2l0.6-0.1l0,0l0.6,0.1l0.5,0.2
			l0.5,0.2l0.4,0.3l0.3,0.4l0.3,0.5l0.2,0.5l0.1,0.6l0,0l-0.1,0.6l-0.2,0.5l-0.3,0.5l-0.3,0.4l-0.4,0.3l-0.5,0.3l-0.5,0.2l-0.6,0.1
			l0,0l-0.6-0.1l-0.5-0.2l-0.5-0.3l-0.4-0.3l-0.3-0.4l-0.3-0.5l-0.2-0.5L189,58.2 M191.3,59.3h-0.5v-2.4h1.1l0,0l0.2,0l0.2,0
			l0.2,0.1l0.1,0.1l0.1,0.1l0.1,0.1l0,0.1l0,0.1l0,0l0,0.2l0,0.1l-0.1,0.1l-0.1,0.1l-0.1,0.1l-0.1,0l-0.1,0h-0.1l0.6,1h-0.4l-0.6-1
			h-0.5V59.3 M191.8,58.1L191.8,58.1l0.2,0l0.1,0l0.1,0l0.1,0l0.1-0.1l0-0.1l0-0.1v-0.1l0,0l0-0.1l0-0.1l-0.1,0l-0.1,0l-0.1,0
			l-0.1,0h-0.1h-0.1h-0.6v0.8H191.8 M191.8,60.5L191.8,60.5l0.5,0l0.4-0.1l0.4-0.2l0.3-0.3l0.3-0.3l0.2-0.4l0.1-0.4l0-0.5l0,0l0-0.5
			l-0.1-0.4l-0.2-0.4l-0.3-0.3l-0.3-0.3l-0.4-0.2l-0.4-0.1l-0.5,0l0,0l-0.5,0l-0.4,0.1l-0.4,0.2l-0.3,0.3l-0.3,0.3l-0.2,0.4
			l-0.1,0.4l0,0.5l0,0l0,0.5l0.1,0.4l0.2,0.4l0.3,0.3l0.3,0.3l0.4,0.2l0.4,0.1L191.8,60.5"/>
		<polygon class="st7" points="154.5,60.8 160.1,60.8 160.1,60.8 162.1,49.5 162.1,49.1 162.3,48.7 162.4,48.2 162.5,47.8 
			162.7,47.4 163,46.9 163.2,46.5 163.6,46.2 163.9,45.8 164.3,45.5 164.8,45.2 165.3,45 165.9,44.8 166.5,44.6 167.2,44.5 
			168,44.5 168.2,44.5 168.4,44.5 168.5,44.5 168.5,44.5 169.3,39.4 168.8,39.4 168.3,39.5 167.8,39.6 167.3,39.7 166.8,39.9 
			166.4,40.1 166,40.3 165.7,40.5 165.3,40.8 165,41.1 164.6,41.4 164.3,41.7 164,42 163.7,42.4 163.4,42.8 163.2,43.2 163.7,39.6 
			158.2,39.6 154.5,60.8 154.5,60.8 154.5,60.8 		"/>
		<polyline class="st8" points="154.5,60.8 160.1,60.8 160.1,60.8 162.1,49.5 162.1,49.5 162.1,49.1 162.3,48.7 162.4,48.2 
			162.5,47.8 162.7,47.4 163,46.9 163.2,46.5 163.6,46.2 163.9,45.8 164.3,45.5 164.8,45.2 165.3,45 165.9,44.8 166.5,44.6 
			167.2,44.5 168,44.5 168,44.5 168.2,44.5 168.4,44.5 168.5,44.5 168.5,44.5 169.3,39.4 169.3,39.4 168.8,39.4 168.3,39.5 
			167.8,39.6 167.3,39.7 166.8,39.9 166.4,40.1 166,40.3 165.7,40.5 165.3,40.8 165,41.1 164.6,41.4 164.3,41.7 164,42 163.7,42.4 
			163.4,42.8 163.2,43.2 163.7,39.6 158.2,39.6 154.5,60.8 154.5,60.8 		"/>
		<polygon class="st7" points="101.9,60.8 107.5,60.8 107.6,60.8 109.5,49.5 109.6,49.1 109.7,48.7 109.8,48.3 109.9,47.9 
			110.1,47.5 110.3,47.1 110.5,46.7 110.8,46.4 111.1,46.1 111.5,45.8 111.9,45.6 112.4,45.4 112.9,45.2 113.5,45 114.2,44.9 
			115,44.9 115,44.9 115.1,44.9 115.2,44.9 115.3,44.9 115.4,44.9 115.5,44.9 115.6,45 115.6,45 115.6,44.9 115.7,44.6 115.7,44.3 
			115.8,43.8 116,43.3 116.1,42.8 116.3,42.2 116.5,41.7 116.6,41.3 116.8,40.9 117,40.5 117.2,40.2 117.4,39.9 117.6,39.7 
			117.6,39.5 117.7,39.5 117.7,39.5 117.6,39.4 117.5,39.4 117.4,39.4 117.2,39.4 117.1,39.4 116.9,39.4 116.8,39.4 116.2,39.4 
			115.6,39.5 115.1,39.6 114.6,39.7 114.2,39.8 113.7,40 113.4,40.2 113,40.5 112.7,40.7 112.3,41 112.1,41.3 111.8,41.7 111.5,42 
			111.2,42.4 110.9,42.8 110.6,43.2 111.3,39.6 105.6,39.6 101.9,60.8 101.9,60.8 101.9,60.8 		"/>
		<polyline class="st8" points="101.9,60.8 107.5,60.8 107.6,60.8 109.5,49.5 109.5,49.5 109.6,49.1 109.7,48.7 109.8,48.3 
			109.9,47.9 110.1,47.5 110.3,47.1 110.5,46.7 110.8,46.4 111.1,46.1 111.5,45.8 111.9,45.6 112.4,45.4 112.9,45.2 113.5,45 
			114.2,44.9 115,44.9 115,44.9 115,44.9 115.1,44.9 115.2,44.9 115.3,44.9 115.4,44.9 115.5,44.9 115.6,45 115.6,45 115.6,45 
			115.6,44.9 115.7,44.6 115.7,44.3 115.8,43.8 116,43.3 116.1,42.8 116.3,42.2 116.5,41.7 116.5,41.7 116.6,41.3 116.8,40.9 
			117,40.5 117.2,40.2 117.4,39.9 117.6,39.7 117.6,39.5 117.7,39.5 117.7,39.5 117.7,39.5 117.6,39.4 117.5,39.4 117.4,39.4 
			117.2,39.4 117.1,39.4 116.9,39.4 116.8,39.4 116.8,39.4 116.2,39.4 115.6,39.5 115.1,39.6 114.6,39.7 114.2,39.8 113.7,40 
			113.4,40.2 113,40.5 112.7,40.7 112.3,41 112.1,41.3 111.8,41.7 111.5,42 111.2,42.4 110.9,42.8 110.6,43.2 111.3,39.6 
			105.6,39.6 101.9,60.8 101.9,60.8 		"/>
		<polygon class="st3" points="189.1,81.7 189.1,81.6 189.3,81.1 189.5,80.7 189.9,80.3 190.3,80 190.8,79.7 191.3,79.6 191.8,79.5 
			192.4,79.6 192.9,79.7 193.4,80 193.8,80.3 194.1,80.7 194.4,81.1 194.6,81.6 194.6,81.7 194,81.7 193.9,81.3 193.7,80.9 
			193.4,80.6 193.1,80.3 192.7,80.1 192.3,80 191.8,79.9 191.4,80 190.9,80.1 190.6,80.3 190.3,80.6 190,80.9 189.8,81.3 
			189.7,81.7 189.1,81.7 189.1,81.7 		"/>
		<polygon class="st3" points="190.8,81.7 190.8,81 191.9,81 192.2,81 192.4,81.1 192.6,81.1 192.7,81.2 192.8,81.3 192.9,81.4 
			192.9,81.6 192.9,81.7 192.5,81.7 192.5,81.6 192.5,81.5 192.5,81.5 192.4,81.4 192.4,81.4 192.3,81.4 192.2,81.3 192.1,81.3 
			191.9,81.3 191.3,81.3 191.3,81.7 190.8,81.7 190.8,81.7 		"/>
		<polygon class="st3" points="189,82.2 189.1,81.7 189.7,81.7 189.7,81.7 189.6,82.2 189,82.2 189,82.2 		"/>
		<polygon class="st3" points="190.8,82.2 190.8,81.7 191.3,81.7 191.3,82.1 191.8,82.1 192,82.1 192.2,82.1 192.3,82 192.4,82 
			192.5,81.9 192.5,81.9 192.5,81.8 192.5,81.7 192.9,81.7 192.9,81.7 192.9,81.9 192.9,82 192.8,82.1 192.7,82.2 190.8,82.2 
			190.8,82.2 		"/>
		<polygon class="st3" points="194,82.2 194,81.7 194,81.7 194.6,81.7 194.6,82.2 194,82.2 194,82.2 		"/>
		<polygon class="st3" points="189,82.2 189,82.2 189.1,82.8 189.3,83.3 189.5,83.8 189.9,84.2 190.3,84.6 190.8,84.8 191.3,85 
			191.8,85 192.4,85 192.9,84.8 193.4,84.6 193.8,84.2 194.1,83.8 194.4,83.3 194.6,82.8 194.6,82.2 194.6,82.2 194,82.2 194,82.2 
			194,82.7 193.9,83.1 193.7,83.5 193.4,83.9 193.1,84.1 192.7,84.3 192.3,84.5 191.8,84.5 191.4,84.5 190.9,84.3 190.6,84.1 
			190.3,83.9 190,83.5 189.8,83.1 189.7,82.7 189.6,82.2 189.6,82.2 189,82.2 189,82.2 		"/>
		<polygon class="st3" points="190.8,82.2 190.8,83.3 191.3,83.3 191.3,82.3 191.8,82.3 192.4,83.3 192.8,83.3 192.2,82.3 
			192.4,82.3 192.5,82.3 192.6,82.2 192.7,82.2 192.7,82.2 190.8,82.2 190.8,82.2 		"/>
		<rect x="86.7" y="47.8" class="st7" width="3.6" height="3.8"/>
	</g>
</g>
<g id="Capa_8" class="st0">
	<g class="st2">
		<path class="st4" d="M200.8-53.9H0v200h200.8v-66c0.8-1.1,1.2-2.6,1.2-4.4c0-2-0.4-3.3-1.2-4.4"/>
		<path class="st9" d="M18,32.6l-3.8-9.3l-3.8,9.3 M102.4,28.9c-0.8,0.5-1.7,0.5-2.8,0.5h-6.8v-5.2h6.9c1,0,2,0,2.7,0.4
			c0.7,0.3,1.2,1.1,1.2,2.1C103.6,27.7,103.1,28.5,102.4,28.9z M151,32.6l-3.9-9.3l-3.9,9.3H151z M60.5,42.7h-5.7l0-18.4l-8.1,18.4
			h-4.9l-8.1-18.4v18.4H22.1L20,37.5H8.3l-2.2,5.2H0.1l10-23.4h8.3l9.5,22.2V19.3h9.1l7.3,15.9l6.7-15.9h9.3L60.5,42.7L60.5,42.7z
			 M83.4,42.7H64.7V19.3h18.7v4.9H70.3v4.2H83v4.8H70.3v4.7h13.1V42.7z M109.7,25.6c0,3.7-2.5,5.7-3.9,6.2c1.2,0.5,2.3,1.3,2.8,2
			c0.8,1.2,0.9,2.2,0.9,4.3v4.6h-5.6l0-3c0-1.4,0.1-3.4-0.9-4.6c-0.8-0.8-2.1-1-4.1-1h-6v8.5h-5.6V19.3h12.9c2.9,0,5,0.1,6.8,1.1
			C108.7,21.5,109.7,23,109.7,25.6z M118.7,42.7H113V19.3h5.7V42.7z M185,42.7h-7.9l-10.6-17.6v17.6H155l-2.2-5.2h-11.6l-2.1,5.2
			h-6.6c-2.7,0-6.2-0.6-8.1-2.6c-2-2-3-4.7-3-8.9c0-3.5,0.6-6.7,3-9.2c1.8-1.9,4.6-2.7,8.5-2.7h5.4v5h-5.3c-2,0-3.2,0.3-4.3,1.4
			c-1,1-1.6,2.9-1.6,5.3c0,2.5,0.5,4.3,1.5,5.5c0.9,0.9,2.4,1.2,3.9,1.2h2.5l7.9-18.4h8.4l9.5,22.2V19.3h8.5l9.8,16.3V19.3h5.7V42.7
			L185,42.7z M0,47.3h9.6l2.2-5.2h4.8l2.2,5.2h18.8v-4l1.7,4H49l1.7-4.1v4h46.8l0-8.5h0.9c0.6,0,0.8,0.1,0.8,1.1v7.4h24.2v-2
			c2,1,5,2,9,2h10.2l2.2-5.2h4.8l2.1,5.2h19.6v-4.9l3,4.9H190V14.6h-15.6v3.9l-2.2-3.9h-16v3.9l-2-3.9h-21.6c-3.6,0-6.8,0.5-9.3,1.9
			v-1.9h-14.9v1.9c-1.6-1.4-3.9-1.9-6.3-1.9H47.8l-3.6,8.4l-3.7-8.4H23.3v3.9l-1.9-3.9H6.8L0,30.2L0,47.3L0,47.3z"/>
		<path class="st9" d="M200,64.6h-10.2c-1,0-1.7,0-2.3,0.4c-0.6,0.4-0.8,0.9-0.8,1.7c0,0.9,0.5,1.5,1.2,1.7c0.6,0.2,1.2,0.3,2.2,0.3
			l3,0.1c3.1,0.1,5.1,0.6,6.4,1.9c0.2,0.2,0.4,0.4,0.5,0.6 M200,80.1c-1.4,2-4,3-7.6,3h-10.8v-5h10.8c1.1,0,1.8-0.1,2.3-0.6
			c0.4-0.4,0.7-0.9,0.7-1.5c0-0.7-0.3-1.2-0.7-1.6c-0.4-0.4-1-0.5-2-0.5c-5.3-0.2-11.8,0.2-11.8-7.3c0-3.4,2.2-7,8-7H200V55h-10.4
			c-3.1,0-5.4,0.7-7,1.9V55h-15.3c-2.5,0-5.3,0.6-6.7,1.9V55h-27.4v1.9c-2.2-1.6-5.9-1.9-7.6-1.9h-18.1v1.9
			c-1.7-1.7-5.6-1.9-7.9-1.9H79.5l-4.6,5l-4.3-5H40.3v32.7H70l4.8-5.1l4.5,5.1l18.3,0V80h1.8c2.4,0,5.3-0.1,7.8-1.1v8.8h15.1v-8.5
			h0.7c0.9,0,1,0,1,1v7.6h45.8c2.9,0,5.9-0.7,7.6-2.1v2.1h14.5c3,0,6-0.4,8.2-1.5V80.1L200,80.1z M177.7,70.7c1.1,1.1,1.7,2.6,1.7,5
			c0,5-3.2,7.4-8.8,7.4h-10.9v-5h10.9c1.1,0,1.8-0.1,2.3-0.6c0.4-0.4,0.7-0.9,0.7-1.5c0-0.7-0.3-1.2-0.7-1.6c-0.4-0.4-1-0.5-2-0.5
			c-5.2-0.2-11.8,0.2-11.8-7.3c0-3.4,2.1-7,8-7h11.2v5h-10.3c-1,0-1.7,0-2.2,0.4c-0.6,0.4-0.8,0.9-0.8,1.7c0,0.9,0.5,1.5,1.2,1.7
			c0.6,0.2,1.2,0.3,2.2,0.3l3,0.1C174.3,68.9,176.4,69.4,177.7,70.7z M127.1,69.2c-0.7,0.4-1.7,0.5-2.8,0.5h-6.8v-5.3h6.9
			c1,0,2,0,2.7,0.4c0.7,0.4,1.2,1.1,1.2,2.1C128.3,68,127.8,68.8,127.1,69.2z M130.5,72.2c1.2,0.5,2.3,1.3,2.7,2
			c0.8,1.1,0.9,2.2,0.9,4.3v4.6h-5.6v-2.9c0-1.4,0.1-3.5-0.9-4.6c-0.8-0.8-2.1-1-4.1-1h-6v8.6h-5.6V59.6h12.9c2.8,0,4.9,0.1,6.7,1.1
			c1.8,1.1,2.9,2.5,2.9,5.2C134.5,69.7,132,71.6,130.5,72.2z M137.6,59.6h18.7v4.8h-13.1v4.3h12.8v4.8h-12.8v4.7l13.1,0v4.9h-18.7
			V59.6z M99.8,70.4h-7.2v-6h7.3c2,0,3.4,0.8,3.4,2.9C103.3,69.4,101.9,70.4,99.8,70.4z M87,80.9l-8.6-9.5l8.6-9.2V80.9z M64.8,78.2
			H51v-4.7h12.3v-4.8H51v-4.3h14l6.1,6.8L64.8,78.2z M109.3,67.3c0,6.5-4.9,7.9-9.8,7.9h-7v7.9H81.7l-6.9-7.8l-7.2,7.8H45.4V59.6
			h22.5l6.9,7.7l7.1-7.7h17.9C104.3,59.6,109.3,60.8,109.3,67.3z"/>
	</g>
</g>
<g id="Capa_9" class="st0">
	<g id="XMLID_4_" class="st2">
		<g id="XMLID_12_">
			<g id="XMLID_13_">
				<g id="XMLID_14_">
					<g id="XMLID_15_">
						<path id="XMLID_57_" class="st4" d="M76.1,42.9c-0.6,4-3.6,4-6.6,4h-1.7l1.2-7.4c0.1-0.4,0.5-0.8,0.9-0.8h0.8
							c2,0,3.9,0,4.9,1.1C76.1,40.5,76.3,41.5,76.1,42.9z M74.8,32.6H63.7c-0.8,0-1.4,0.6-1.5,1.3l-4.5,28.4
							c-0.1,0.6,0.3,1.1,0.9,1.1h5.3c0.8,0,1.4-0.6,1.5-1.3l1.2-7.7c0.1-0.7,0.8-1.3,1.5-1.3h3.5c7.3,0,11.5-3.5,12.6-10.5
							c0.5-3.1,0-5.5-1.4-7.1C81.3,33.5,78.5,32.6,74.8,32.6z"/>
						<path id="XMLID_54_" class="st4" d="M100.5,53.1c-0.5,3-2.9,5.1-6,5.1c-1.5,0-2.8-0.5-3.6-1.4c-0.8-0.9-1.1-2.3-0.8-3.7
							c0.5-3,2.9-5.1,5.9-5.1c1.5,0,2.7,0.5,3.5,1.4C100.4,50.3,100.7,51.7,100.5,53.1z M107.9,42.8h-5.3c-0.5,0-0.8,0.3-0.9,0.8
							l-0.2,1.5l-0.4-0.5c-1.1-1.7-3.7-2.2-6.3-2.2c-5.9,0-10.9,4.4-11.8,10.7c-0.5,3.1,0.2,6.1,2,8.1c1.6,1.9,3.9,2.7,6.7,2.7
							c4.7,0,7.3-3,7.3-3l-0.2,1.5c-0.1,0.6,0.3,1.1,0.9,1.1h4.8c0.8,0,1.4-0.6,1.5-1.3l2.9-18.1C108.9,43.3,108.4,42.8,107.9,42.8z
							"/>
						<path id="XMLID_33_" class="st4" d="M136.1,42.8h-5.3c-0.5,0-1,0.3-1.3,0.7l-7.3,10.8L119,43.9c-0.2-0.7-0.8-1.1-1.5-1.1h-5.2
							c-0.6,0-1.1,0.6-0.9,1.2l5.9,17.2l-5.5,7.8c-0.4,0.6,0,1.5,0.8,1.5h5.3c0.5,0,1-0.2,1.3-0.7l17.7-25.6
							C137.3,43.6,136.8,42.8,136.1,42.8z"/>
						<path id="XMLID_38_" class="st4" d="M155,42.9c-0.6,4-3.6,4-6.6,4h-1.7l1.2-7.4c0.1-0.4,0.5-0.8,0.9-0.8h0.8
							c2,0,3.9,0,4.9,1.1C155,40.5,155.2,41.5,155,42.9z M153.7,32.6h-11.1c-0.8,0-1.4,0.6-1.5,1.3l-4.5,28.4
							c-0.1,0.6,0.3,1.1,0.9,1.1h5.7c0.5,0,1-0.4,1.1-0.9l1.3-8c0.1-0.7,0.8-1.3,1.5-1.3h3.5c7.3,0,11.5-3.5,12.6-10.5
							c0.5-3.1,0-5.5-1.4-7.1C160.2,33.5,157.4,32.6,153.7,32.6z"/>
						<path id="XMLID_21_" class="st4" d="M179.4,53.1c-0.5,3-2.9,5.1-6,5.1c-1.5,0-2.8-0.5-3.6-1.4c-0.8-0.9-1.1-2.3-0.8-3.7
							c0.5-3,2.9-5.1,5.9-5.1c1.5,0,2.7,0.5,3.5,1.4C179.3,50.3,179.7,51.7,179.4,53.1z M186.8,42.8h-5.3c-0.5,0-0.8,0.3-0.9,0.8
							l-0.2,1.5l-0.4-0.5c-1.1-1.7-3.7-2.2-6.3-2.2c-5.9,0-10.9,4.4-11.8,10.7c-0.5,3.1,0.2,6.1,2,8.1c1.6,1.9,3.9,2.7,6.7,2.7
							c4.7,0,7.3-3,7.3-3l-0.2,1.5c-0.1,0.6,0.3,1.1,0.9,1.1h4.8c0.8,0,1.4-0.6,1.5-1.3l2.9-18.1C187.8,43.3,187.4,42.8,186.8,42.8z
							"/>
						<path id="XMLID_28_" class="st4" d="M193.1,33.3l-4.5,28.9c-0.1,0.6,0.3,1.1,0.9,1.1h4.6c0.8,0,1.4-0.6,1.5-1.3l4.5-28.4
							c0.1-0.6-0.3-1.1-0.9-1.1H194C193.5,32.6,193.1,32.9,193.1,33.3z"/>
						<path id="XMLID_27_" class="st10" d="M11.8,68.8l0.8-5.4l-1.9,0h-9L8,23.7c0-0.1,0.1-0.2,0.2-0.3c0.1-0.1,0.2-0.1,0.3-0.1
							h15.2c5,0,8.5,1,10.3,3.1c0.9,1,1.4,2,1.7,3.1c0.3,1.2,0.3,2.6,0,4.3l0,0.1V35l0.9,0.5c0.7,0.4,1.3,0.8,1.7,1.3
							c0.7,0.8,1.2,1.9,1.4,3.1c0.2,1.3,0.1,2.8-0.2,4.6c-0.4,2-1,3.7-1.9,5.2c-0.8,1.3-1.8,2.4-3,3.2c-1.1,0.8-2.5,1.4-4,1.8
							c-1.5,0.4-3.1,0.6-5,0.6h-1.2c-0.8,0-1.7,0.3-2.3,0.8c-0.6,0.6-1.1,1.3-1.2,2.1l-0.1,0.5l-1.5,9.5l-0.1,0.3
							c0,0.1,0,0.2-0.1,0.2c0,0-0.1,0.1-0.2,0.1H11.8z"/>
						<path id="XMLID_26_" class="st4" d="M37.3,34.1c0,0.3-0.1,0.6-0.2,0.9c-2,10.3-8.9,13.8-17.6,13.8h-4.5c-1.1,0-2,0.8-2.1,1.8
							l-2.3,14.5L10,69.2c-0.1,0.7,0.4,1.3,1.1,1.3h7.9c0.9,0,1.7-0.7,1.9-1.6l0.1-0.4l1.5-9.4l0.1-0.5c0.1-0.9,0.9-1.6,1.9-1.6h1.2
							c7.7,0,13.6-3.1,15.4-12.1c0.7-3.8,0.4-6.9-1.6-9.1C38.9,35.1,38.1,34.5,37.3,34.1z"/>
						<path id="XMLID_25_" class="st11" d="M35.2,33.2c-0.3-0.1-0.6-0.2-0.9-0.2c-0.3-0.1-0.7-0.1-1-0.2c-1.2-0.2-2.5-0.3-3.9-0.3
							H17.4c-0.3,0-0.6,0.1-0.8,0.2c-0.5,0.3-1,0.8-1.1,1.4l-2.5,16L13,50.6c0.2-1.1,1.1-1.8,2.1-1.8h4.5c8.7,0,15.6-3.6,17.6-13.8
							c0.1-0.3,0.1-0.6,0.2-0.9c-0.5-0.3-1.1-0.5-1.6-0.7C35.5,33.3,35.4,33.3,35.2,33.2z"/>
						<path id="XMLID_24_" class="st4" d="M15.6,34.1c0.1-0.6,0.5-1.2,1.1-1.4c0.3-0.1,0.5-0.2,0.8-0.2h11.9c1.4,0,2.7,0.1,3.9,0.3
							c0.3,0.1,0.7,0.1,1,0.2c0.3,0.1,0.6,0.2,0.9,0.2c0.2,0,0.3,0.1,0.4,0.1c0.6,0.2,1.1,0.4,1.6,0.7c0.6-3.8,0-6.4-2.1-8.7
							c-2.3-2.6-6.4-3.7-11.6-3.7H8.5c-1.1,0-2,0.8-2.1,1.8L0,63.6c-0.1,0.8,0.5,1.5,1.3,1.5h9.4L13,50.1L15.6,34.1z"/>
					</g>
				</g>
			</g>
		</g>
	</g>
</g>
<g id="Capa_10" class="st0">
	<g class="st2">
		<g>
			<g>
				<g>
					<g>
						<g>
							<rect x="3.7" y="-53.9" class="st4" width="192.7" height="200"/>
							<path class="st9" d="M124,126.4v7.5H77.7v-7.5h-35c-3.4,0-6.2-3.6-6.2-8l-14.6-148c0-4.4,3.4-8,7.6-8h141.3
								c4.2,0,7.6,3.6,7.6,8l-14.5,148c0,4.4-2.8,8-6.2,8L124,126.4z"/>
							<path class="st4" d="M47.7-15.9h94.6c-9.3,3.5-37.7,22.7-44.8,35.6H47.8L47.7-15.9z"/>
							<path class="st4" d="M123.1,86.1c-1.3,12.9-1.4,28.6-1.4,45.1h-41c0-16.5,0.7-32.2,2-45.1H123.1z"/>
							<polygon class="st4" points="44.6,56.5 59.6,56.5 59.6,62.5 53.1,62.5 53.1,67.5 59.6,67.5 59.6,72.5 53.1,72.5 53.1,77.5 
								59.6,77.5 59.6,83.2 44.6,83.2 							"/>
							<polygon class="st4" points="79.5,56.5 94.5,56.5 94.5,62.5 87.9,62.5 87.9,67.5 94.5,67.5 94.5,72.5 87.9,72.5 87.9,77.5 
								94.5,77.5 94.5,83.2 79.5,83.2 							"/>
							<polygon class="st4" points="117.9,56.5 132.9,56.5 132.9,62.5 126.4,62.5 126.4,67.5 132.9,67.5 132.9,72.5 126.4,72.5 
								126.4,77.5 132.9,77.5 132.9,83.2 117.9,83.2 							"/>
							<polygon class="st4" points="70.9,77.5 77.4,77.5 77.4,83.2 62.4,83.2 62.4,56.5 70.9,56.5 							"/>
							<polygon class="st4" points="96,56.5 100.2,83.2 111,83.2 116.1,56.5 109.9,56.5 106.6,74.5 103.4,56.5 							"/>
							<rect x="136.5" y="56.5" class="st4" width="8.1" height="26.6"/>
							<path class="st4" d="M144.6,64.4c0.4-2.9,4.6-2.1,4.6-0.5v19.2h8.1V60.6c0-4.8-6.8-6.7-12.6-2.5"/>
							<path class="st4" d="M126.9,52.8c0.8-10.2,14.8-26.9,28.3-31.2v-39.4C118-1.1,93.8,24.1,88.5,52.7L126.9,52.8z"/>
							<path class="st4" d="M137.7,97.4c-1,1.1-2.3,1.6-3.8,1.6c-1.5,0-2.8-0.5-3.8-1.6c-1-1-1.6-2.3-1.6-3.8c0-1.5,0.5-2.7,1.6-3.8
								c1-1,2.3-1.6,3.8-1.6c1.5,0,2.8,0.5,3.8,1.6c1.1,1,1.6,2.3,1.6,3.8C139.2,95.1,138.7,96.4,137.7,97.4 M130.6,90.3
								c-0.9,0.9-1.3,2-1.3,3.3c0,1.3,0.4,2.4,1.3,3.3c0.9,0.9,2,1.4,3.3,1.4c1.3,0,2.4-0.5,3.3-1.4c0.9-0.9,1.3-2,1.3-3.3
								c0-1.3-0.4-2.4-1.3-3.3c-0.9-0.9-2-1.4-3.3-1.4C132.6,89,131.5,89.4,130.6,90.3 M133.8,90.6c0.7,0,1.3,0.1,1.6,0.2
								c0.6,0.3,0.9,0.8,0.9,1.5c0,0.5-0.2,0.9-0.6,1.2c-0.2,0.1-0.5,0.2-0.8,0.3c0.5,0.1,0.8,0.3,1,0.6c0.2,0.3,0.3,0.6,0.3,0.9
								v0.4c0,0.1,0,0.3,0,0.4c0,0.2,0,0.3,0.1,0.3l0,0.1h-1c0,0,0,0,0-0.1c0,0,0,0,0-0.1l0-0.2v-0.5c0-0.7-0.2-1.1-0.6-1.4
								c-0.2-0.1-0.6-0.2-1.2-0.2h-0.8v2.3h-1v-5.9H133.8z M134.9,91.6c-0.3-0.1-0.7-0.2-1.3-0.2h-0.9v2.1h0.9c0.4,0,0.8,0,1-0.1
								c0.4-0.2,0.6-0.5,0.6-0.9C135.3,92,135.2,91.7,134.9,91.6"/>
						</g>
					</g>
				</g>
			</g>
		</g>
	</g>
</g>
<g id="Capa_11">
	<g>
		<path class="st3" d="M0.1,6.2C0.1,2.8,2.9,0,6.3,0h187.4c3.4,0,6.2,2.8,6.2,6.2v79.7c0,3.4-2.8,6.2-6.2,6.2H6.3
			c-3.4,0-6.2-2.8-6.2-6.2V6.2L0.1,6.2z"/>
		<polygon class="st7" points="0.1,9 200,9 200,83.1 0.1,83.1 0.1,9 		"/>
		<path class="st3" d="M169.5,28.3c-9.1,0-16.6,7.5-16.6,16.6c0,9.1,7.5,16.6,16.6,16.6c9.1,0,16.6-7.5,16.6-16.6
			C186.1,35.7,178.6,28.3,169.5,28.3L169.5,28.3z"/>
		<path class="st3" d="M32.7,28.3c-9.1,0-16.6,7.5-16.6,16.6c0,9.1,7.5,16.6,16.6,16.6c9.1,0,16.6-7.5,16.6-16.6
			C49.3,35.7,41.8,28.3,32.7,28.3L32.7,28.3z"/>
		<path class="st3" d="M168.2,13.7c-15.4-0.4-22.6,9.5-33.1,21.7l-9.9,11.5l15.7,18.8c3.7,5.8-3.4,11.5-7.8,6.2l-14.5-17.3
			l-14.1,16.4c-4.5,5.2-11.5-0.6-7.7-6.3l15.3-17.8l-10-12l6.5-8L118.7,39l8.8-10.2c4.3-5,8.7-11.7,14.4-15.1H0.1v64.8h33.2
			c15.4,0,22.3-9.2,32.5-21.6l9.6-11.7L59.3,26.8c-3.9-5.7,3.1-11.6,7.7-6.4l14.9,16.9l13.7-16.7c4.4-5.3,11.5,0.3,7.9,6.1L88.6,45
			l10.3,11.7l-6.5,7.7L82.1,52.8l-8.6,10.4c-4.2,5.1-8.5,11.6-14.1,15.2H200V13.7H168.2L168.2,13.7z M58.9,44.9
			c0,14.4-11.8,26.2-26.2,26.2c-14.4,0-26.2-11.8-26.2-26.2c0-14.4,11.8-26.2,26.2-26.2C47.1,18.6,58.9,30.4,58.9,44.9L58.9,44.9z
			 M169.5,71.1c-14.4,0-26.2-11.8-26.2-26.2c0-14.4,11.8-26.2,26.2-26.2c14.4,0,26.2,11.8,26.2,26.2
			C195.7,59.3,183.9,71.1,169.5,71.1L169.5,71.1z"/>
	</g>
</g>
</svg>
