<?xml version="1.0" encoding="utf-8"?>
<!-- Generator: Adobe Illustrator 21.0.0, SVG Export Plug-In . SVG Version: 6.00 Build 0)  -->
<svg version="1.1" id="Capa_1" xmlns="http://www.w3.org/2000/svg" xmlns:xlink="http://www.w3.org/1999/xlink" x="0px" y="0px"
	 viewBox="0 0 200 27.8" style="enable-background:new 0 0 200 27.8;" xml:space="preserve">
<style type="text/css">
	.st0{fill-rule:evenodd;clip-rule:evenodd;fill:#808080;}
	.st1{fill:#808080;}
</style>
<g>
	<polygon class="st0" points="10.9,8.7 19.7,8.7 19.7,19.2 33.6,19.2 33.6,8.7 42.4,8.7 52.8,27.9 44.1,27.9 39.1,18.8 26.7,27.9 
		14.2,18.8 9.2,27.9 0.5,27.9 	"/>
	<polygon class="st0" points="52.9,8.7 52.9,0 0.5,0 0.5,8.7 9.2,8.7 10.1,7 21.4,7 21.4,17.5 31.9,17.5 31.9,7 43.2,7 44.1,8.7 	
		"/>
	<polygon class="st1" points="190.6,5.2 183.3,13.4 191.3,22.7 184.8,22.7 180.1,17 175,22.7 169.2,22.7 177.3,13.6 170.5,5.2 
		176.2,5.2 180.5,10.1 184.8,5.2 	"/>
	<polygon class="st1" points="155,11.5 165.9,11.5 165.9,15 155,15 155,19.2 167.9,19.2 167.9,22.7 150.3,22.7 150.3,5.2 167.9,5.2 
		167.9,8.7 155,8.7 	"/>
	<polygon class="st1" points="87,11.5 98,11.5 98,15 87,15 87,19.2 99.9,19.2 99.9,22.7 82.4,22.7 82.4,5.2 99.9,5.2 99.9,8.7 
		87,8.7 	"/>
	<polygon class="st1" points="122.8,5.2 130.9,5.2 134.9,15.3 138.9,5.2 147.2,5.2 147.2,22.7 142.4,22.7 142.4,8.8 136.5,22.7 
		133.1,22.7 127.4,8.7 127.4,22.7 122.8,22.7 	"/>
	<polygon class="st1" points="61.6,5.2 80.1,5.2 80.1,8.7 73.1,8.7 73.1,22.7 68.5,22.7 68.5,8.7 61.6,8.7 	"/>
	<polygon class="st1" points="103.1,5.2 107.9,5.2 107.9,19.2 120.7,19.2 120.7,22.7 103.1,22.7 	"/>
	<path class="st0" d="M194.7,18.9h1.8c0.3,0,0.5,0,0.7,0.1c0.4,0.2,0.5,0.5,0.5,0.9c0,0.2,0,0.4-0.1,0.6c-0.1,0.1-0.2,0.3-0.4,0.4
		c0.1,0.1,0.3,0.1,0.3,0.2c0.1,0.1,0.1,0.3,0.1,0.5l0,0.5c0,0.1,0,0.3,0,0.3c0,0.1,0.1,0.2,0.2,0.2v0.1h-0.6c0,0,0-0.1,0-0.1
		c0-0.1,0-0.2,0-0.3l0-0.6c0-0.3-0.1-0.4-0.3-0.5c-0.1,0-0.3-0.1-0.5-0.1h-1.2v1.7h-0.5V18.9 M196.4,20.7c0.2,0,0.4-0.1,0.6-0.1
		c0.1-0.1,0.2-0.3,0.2-0.5c0-0.3-0.1-0.5-0.3-0.6c-0.1-0.1-0.2-0.1-0.4-0.1h-1.3v1.3H196.4 M196,17.9c-1.7,0-3.1,1.4-3.1,3.1
		c0,1.7,1.4,3.1,3.1,3.1s3.1-1.4,3.1-3.1C199.1,19.3,197.7,17.9,196,17.9 M196,17.5c1.9,0,3.5,1.6,3.5,3.5c0,1.9-1.6,3.5-3.5,3.5
		c-1.9,0-3.5-1.6-3.5-3.5C192.6,19,194.1,17.5,196,17.5z"/>
</g>
</svg>
