<?xml version="1.0" encoding="utf-8"?>
<!-- Generator: Adobe Illustrator 21.0.0, SVG Export Plug-In . SVG Version: 6.00 Build 0)  -->
<svg version="1.1" xmlns="http://www.w3.org/2000/svg" xmlns:xlink="http://www.w3.org/1999/xlink" x="0px" y="0px"
	 viewBox="0 0 200 122" style="enable-background:new 0 0 200 122;" xml:space="preserve">
<style type="text/css">
	.st0{display:none;}
	.st1{display:inline;fill:#FCEE21;}
	.st2{display:inline;}
	.st3{fill-rule:evenodd;clip-rule:evenodd;fill:#808080;}
	.st4{fill:#808080;}
	.st5{display:inline;fill-rule:evenodd;clip-rule:evenodd;fill:#808080;}
	.st6{fill-rule:evenodd;clip-rule:evenodd;fill:#666666;}
	.st7{fill-rule:evenodd;clip-rule:evenodd;fill:#FFFFFF;}
	.st8{fill:none;stroke:#FFFFFF;stroke-width:0.216;stroke-miterlimit:2.6131;}
</style>
<g id="Capa_7" class="st0">
	<rect x="0" y="-39" class="st1" width="200" height="200"/>
</g>
<g id="Capa_1" class="st0">
	<g class="st2">
		<polygon class="st3" points="10.9,55.8 19.7,55.8 19.7,66.3 33.6,66.3 33.6,55.8 42.4,55.8 52.8,75 44.1,75 39.1,65.9 26.7,75 
			14.2,65.9 9.2,75 0.5,75 		"/>
		<polygon class="st3" points="52.9,55.8 52.9,47.1 0.5,47.1 0.5,55.8 9.2,55.8 10.1,54.1 21.4,54.1 21.4,64.6 31.9,64.6 31.9,54.1 
			43.2,54.1 44.1,55.8 		"/>
		<polygon class="st4" points="190.6,52.3 183.3,60.5 191.3,69.8 184.8,69.8 180.1,64.1 175,69.8 169.2,69.8 177.3,60.7 170.5,52.3 
			176.2,52.3 180.5,57.2 184.8,52.3 		"/>
		<polygon class="st4" points="155,58.6 165.9,58.6 165.9,62.1 155,62.1 155,66.3 167.9,66.3 167.9,69.8 150.3,69.8 150.3,52.3 
			167.9,52.3 167.9,55.8 155,55.8 		"/>
		<polygon class="st4" points="87,58.6 98,58.6 98,62.1 87,62.1 87,66.3 99.9,66.3 99.9,69.8 82.4,69.8 82.4,52.3 99.9,52.3 
			99.9,55.8 87,55.8 		"/>
		<polygon class="st4" points="122.8,52.3 130.9,52.3 134.9,62.4 138.9,52.3 147.2,52.3 147.2,69.8 142.4,69.8 142.4,55.9 
			136.5,69.8 133.1,69.8 127.4,55.8 127.4,69.8 122.8,69.8 		"/>
		<polygon class="st4" points="61.6,52.3 80.1,52.3 80.1,55.8 73.1,55.8 73.1,69.8 68.5,69.8 68.5,55.8 61.6,55.8 		"/>
		<polygon class="st4" points="103.1,52.3 107.9,52.3 107.9,66.3 120.7,66.3 120.7,69.8 103.1,69.8 		"/>
		<path class="st3" d="M194.7,66h1.8c0.3,0,0.5,0,0.7,0.1c0.4,0.2,0.5,0.5,0.5,0.9c0,0.2,0,0.4-0.1,0.6c-0.1,0.1-0.2,0.3-0.4,0.4
			c0.1,0.1,0.3,0.1,0.3,0.2c0.1,0.1,0.1,0.3,0.1,0.5l0,0.5c0,0.1,0,0.3,0,0.3c0,0.1,0.1,0.2,0.2,0.2v0.1h-0.6c0,0,0-0.1,0-0.1
			c0-0.1,0-0.2,0-0.3l0-0.6c0-0.3-0.1-0.4-0.3-0.5c-0.1,0-0.3-0.1-0.5-0.1h-1.2v1.7h-0.5V66 M196.4,67.8c0.2,0,0.4-0.1,0.6-0.1
			c0.1-0.1,0.2-0.3,0.2-0.5c0-0.3-0.1-0.5-0.3-0.6c-0.1-0.1-0.2-0.1-0.4-0.1h-1.3v1.3H196.4 M196,65c-1.7,0-3.1,1.4-3.1,3.1
			c0,1.7,1.4,3.1,3.1,3.1s3.1-1.4,3.1-3.1C199.1,66.4,197.7,65,196,65 M196,64.6c1.9,0,3.5,1.6,3.5,3.5c0,1.9-1.6,3.5-3.5,3.5
			c-1.9,0-3.5-1.6-3.5-3.5C192.6,66.1,194.1,64.6,196,64.6z"/>
	</g>
</g>
<g id="Capa_2" class="st0">
	<g class="st2">
		<g>
			<path class="st3" d="M150.9,71.6C150.9,71.5,150.9,71.5,150.9,71.6L150.9,71.6L150.9,71.6L150.9,71.6z M150.9,71.6L150.9,71.6
				C150.9,71.6,150.9,71.6,150.9,71.6L150.9,71.6L150.9,71.6L150.9,71.6z M144.4,64.2L144.4,64.2c0.1,0,0.1,0,0.1,0
				C144.5,64.2,144.5,64.2,144.4,64.2L144.4,64.2L144.4,64.2L144.4,64.2z M136.3,49.8h7.4c3.5,0,4.6,1.9,4.6,3.5
				c0,2.4-2.1,4.5-6.6,4.5h-7L136.3,49.8L136.3,49.8L136.3,49.8z M149.6,72.1l0.1-0.7c0.4-2.6-0.5-4.2-1.2-5.2c-1-1.2-2.5-2-4-2
				c0,0-0.1,0-0.1,0h-11.2l0.3-1.3c0,0,10.9,0,11,0c0,0,0,0,0,0c3.9-0.1,6.4-1.9,7.8-3.5c1.8-2,2.9-4.7,2.9-7.3c0-2-0.7-3.8-1.9-5.1
				c-1.3-1.4-3.3-2.2-5.8-2.2h-16L123.2,83h5.7l3.1-13.8h7.4c1.1,0,4.9-0.5,3.8,4.1c-0.3,1.6-1,5.7,0,9.7c0.8,0,3.7,0,6.6,0
				C148.6,79.6,149,75.6,149.6,72.1L149.6,72.1L149.6,72.1z M162,50.9c0-8.3-5.3-12.1-14.5-12.1c-10.5,0-21.7,0-21.7,0L116.1,83h5.9
				l8.5-39.4h17c2.8,0,5.1,0.9,6.7,2.6c1.4,1.5,2.2,3.6,2.2,6c0,2.9-1.2,5.9-3.2,8.1c-1.2,1.3-3,2.7-5.7,3.4c0.7,0.4,1.4,1,1.9,1.6
				c0.9,1.2,2,3.2,1.5,6.2l0-0.1c0,0,0,0,0,0.1v0c0,0,0,0,0,0c0,0.1,0,0.3-0.1,0.7c-0.5,3.5-1,7.5,0.3,10.7c2.9,0,5.5,0,5.5,0
				c-0.3-1-1-2.3-0.2-5.6c0.9-3.7,2.2-10.9-2.5-13.4C155.2,63.5,162,60.5,162,50.9L162,50.9L162,50.9z M17.1,79
				c8.1,0,13.6-3.6,14.6-9.6c0.7-4.5-3.3-6-7.9-7.2c-0.9-0.2-1.6-0.5-2.6-0.7c-4-1-11.6-3-11.1-9.8c0.6-8.8,10.7-9.5,13.8-9.5
				c4.5,0,7.7,1.5,9.5,4.4c1.4,2.3,1.5,4.9,1.6,6.1v0.1l5.9,0c0-9-3.9-15.1-15.7-15.1C14.5,37.6,6,42,4.4,51.5
				C1.6,68.5,25.3,63.2,24.2,70c-0.3,2.1-2.2,4-5.7,4c-1.4,0-2.8-0.4-3.8-1.1c-1.1-0.7-2.1-1.9-2-6.6H6.9c-0.1,4.4,0.3,7,1.5,8.7
				C11,78.8,16.1,79,17.1,79L17.1,79L17.1,79z M16.7,84.4c11.7,0.1,20.5-4.6,22.1-14.9c2.5-16.8-22.1-11.9-21.2-19.1
				c0.2-1.6,1.7-2.8,4.8-2.8c1.3,0,2.5,0.3,3.4,0.8c0.9,0.6,1.5,1.5,1.8,4.2l6.1,0v-0.1c-0.1-1-0.2-3.4-1.4-5.4
				c-1.5-2.5-4.4-3.8-8.4-3.8c-2.8,0-12.1,0.6-12.6,8.3c-0.4,5.7,5.9,7.4,10.2,8.5c1,0.3,1.8,0.5,2.7,0.7c3.7,1,9.8,2.6,8.7,8.7
				c-1.1,6.7-7,10.7-15.8,10.7c-1.1,0-6.7-0.2-9.6-4.5c-1.4-1.8-1.9-4.8-1.8-9.4H0.2c-0.1,1-0.2,2.1-0.2,3
				C0,78.7,5.3,84.4,16.7,84.4L16.7,84.4L16.7,84.4z M95,38.8L69.9,83h5.7l24.9-44.2H95L95,38.8L95,38.8z M93.4,64.1l5.5-9.8
				l1.6,9.8H93.4L93.4,64.1L93.4,64.1z M107.9,38.8H102L77,83h5.7l4.2-7.2h15.2l1.3,7.2h5.3l-2.2-12.5H89.8l0.7-1.3h15.9l-3.8-21.6
				l1-1.8L110,83h5.4L107.9,38.8L107.9,38.8L107.9,38.8z M46.3,76.7h24.2l1-4.5H52.7l1.4-5.9h17.7l1-4.9H55.2l0.3-1.3H73l1-4.8H56.5
				l1.4-5.6h18.5l1-4.6h-24L46.3,76.7L46.3,76.7L46.3,76.7z M47.2,38.8L37.3,83H69l1.1-5H44.7l7.8-34.1h25.2l1.2-5.2H47.2L47.2,38.8
				L47.2,38.8z M191.5,47.2c-1.6-2.5-4.4-3.8-8.5-3.8c-2.8,0-12.1,0.6-12.6,8.3c-0.4,5.7,6,7.4,10.2,8.5c1,0.3,1.8,0.5,2.7,0.7
				c3.7,1,9.8,2.6,8.8,8.7c-1.1,6.7-7,10.7-15.8,10.7c-1.1,0-6.7-0.2-9.6-4.5c-1.4-1.8-1.9-4.8-1.8-9.4h-5.5
				c-1.2,11.2,4,18.1,16.5,18.2c11.7,0.1,20.6-4.6,22.1-14.9c2.5-16.8-22.1-11.9-21.2-19.1c0.2-1.6,1.7-2.8,4.7-2.8
				c1.4,0,2.6,0.3,3.5,0.8c0.9,0.6,1.5,1.5,1.8,4.2l6.1,0v-0.1C192.8,51.6,192.7,49.2,191.5,47.2L191.5,47.2L191.5,47.2z
				 M184.3,37.6c-10.6,0-19.1,4.5-20.7,14c-2.9,17,20.8,11.7,19.7,18.5c-0.4,2.1-2.2,4-5.7,4c-1.3,0-2.7-0.4-3.8-1.1
				c-1-0.7-2.1-1.9-2-6.6h-5.8c-0.1,4.3,0.4,7.1,1.6,8.7c2.5,3.8,7.6,4,8.6,4c8.1,0,13.6-3.6,14.6-9.6c0.8-4.5-3.3-6-7.9-7.2
				c-0.9-0.2-1.6-0.5-2.6-0.7c-4-1-11.5-3-11.1-9.8c0.6-8.8,10.7-9.5,13.8-9.5c4.5,0,7.7,1.5,9.5,4.4c1.4,2.3,1.5,4.9,1.5,6.1v0.1
				l5.9,0C199.9,43.7,196.1,37.6,184.3,37.6L184.3,37.6z"/>
		</g>
	</g>
</g>
<g id="Capa_3" class="st0">
	<path class="st5" d="M16.1,52.5c0,0-7.7,3.1-8,4.9c0,0-1.5,2.2,4.3,1.7c0,0,17.3-1.7,17.9,6.1c0,0,0.2,3.1-3.1,5.8
		c0,0-7.6,7.1-21,4.8c0,0-6.1-0.4-5.9-4c0,0,0.9-1.7,3.3,0c0,0,12.3,3.1,18.2-1.8c0,0,2.6-2.5,0.7-3.7c0,0-3.5-1.8-8.1-1.9
		c0,0-13.7,1.6-14.4-4c0,0-1.2-4.8,7.2-9.4c0,0,12.4-6,23.1-5.6c0,0,5.9-1.6,6.3,3.4c0,0-2.1,4.7-9.9,5.1c0,0-7.7,0.3-8.4-1.6
		C18.4,52.4,18.1,51.9,16.1,52.5L16.1,52.5z M25.6,51.7c0,0,2.2-0.3,1.7-1.9c0,0-2.7-1.3-5.1,0.8C22.1,50.6,21.1,52.3,25.6,51.7
		L25.6,51.7z M51.6,62.7c0,0,0.7-3-7.7-2c0,0-12.5,2.2-12.3,10.8c0,0,1.3,6.8,8.5,3.6c0,0,4.7-2.5,5.9-3.3c0,0,0.4,5.5,6,4.9
		c0,0,3.7,0.3,7-4.2c0,0,3.4-4.3,4.1-4.1c0,0,1.8-0.2,0.6,1.7c0,0-2.6,4.2,1.1,5c0,0,4,1.4,6.3-2.2c0,0,3.6-5.5,5.7-5.5
		c0,0,0.8,0.3-0.5,2.2c0,0-2,5.5,3.6,5.9c0,0,5.5,0.5,6.4-1.9c0,0,1.1-2.3-1.8-0.8c0,0-3.9,2.3-2.4-1.2c0,0,5.9-7.7,0.2-9.8
		c0,0-3-1.4-5.2,0.2c0,0-3.3,3.5-4.7,3.7c0,0-1.2,0.2-1.4-2.3c0,0-1.2-3.8-5.9-1.5c0,0-3,2.6-8.6,9.3c0,0-5.1,5.2-3.8,0.1
		c0,0,3.7-5.8-0.2-7.1c0,0-2.2-1-5.6,2.4c0,0-6.8,6-8.5,6c0,0-2.1-0.3,0.9-4.2c0,0,3.3-4.4,8.9-4.8C48.2,63.7,51.6,63.7,51.6,62.7
		L51.6,62.7z M98,60.8c-1.3,3.6,1.4,0.8,1.4,0.8c6.5-3.4,6.5,3.5,6.5,3.5c1.3,1.7,3.8-0.4,3.8-0.4c1.3-0.8,2.8-2.4,2.8-2.4
		c4.2-3.8,6.9-0.9,6.9-0.9c0.6,1.7,2.2,0.4,2.2,0.4c5.4-1.6,4.3,2.5,4.3,2.5c-1.6,0.4-0.7,2.2-0.7,2.2c0.6,2.2,3.9-1.3,3.9-1.3
		c1.9-0.5,0.9-3.1,0.9-3.1c0.1-2.1,2.7-1.3,2.7-1.3c1.8,1.4,4.3,0.3,4.3,0.3c4.2-0.2,3.8,2,3.8,2c1.6,1.6,0,3.4,0,3.4
		c-2.9,2.7-3,5.8-3,5.8c0.2,3.5,7.2-4.7,7.2-4.7c5.4-7.6,10.1-6.4,10.1-6.4c4.3-0.1,3.1,6.4,3.1,6.4l5.3-4.9
		c1.9-2.6,4.6-1.8,4.6-1.8c5.9,1.5,1.5,8.7,1.5,8.7c-1.2,2.9,1.7,1.8,1.7,1.8c2-2.8,6.7-7.2,6.7-7.2c7.6-6.9,11.3-5.2,11.3-5.2
		c2.9,0.6,0.4,2.9,0.4,2.9c-1.5,2.1-0.4,5.9-0.4,5.9l10.6,0.1l-3.1,3.7l-8.9-0.1c-1.5,3.1-5.7,3.1-5.7,3.1c-5.1-0.5-5.6-4.7-5.6-4.7
		c-0.8-0.1-3.8,3.1-3.8,3.1c-2,2.6-7.9,0.6-7.9,0.6c-3.1-0.9-1.1-6-1.1-6c-0.9-0.8-5.7,4.6-5.7,4.6c-2.6,3.9-6,2.3-6,2.3
		c-4-1.2-1.6-6-1.6-6c1.5-2.4,1.1-3,1.1-3c-2.2,1.3-6.1,6.1-6.1,6.1c-8,7.8-13.2,1.8-13.2,1.8c-2.5-3.8,3.3-8.7,3.3-8.7
		c-1.3-0.9-2.4,0.1-2.4,0.1c-3.6,6.5-10.1,5.9-10.1,5.9c-1.8,3.2-6.1,4.5-6.1,4.5C106,78,108.6,69,108.6,69
		c-2.8,0.8-3.3-0.1-3.3-0.1c-0.2,0.7-2.2,1-2.2,1s-4.2,5.7-9,5.8c-4.8,0.1-6.2-2.7-5.5-7.5c0.7-4.7,7-14,7-14c-0.9,0.5-2-0.2-2-0.2
		c-0.8-1.8,4.8-4.1,4.8-4.1c4.5-2,3,0.9,3,0.9L98,60.8L98,60.8z M94.7,67.5c-1.9,5.8,0.3,6.3,0.3,6.3c2.1-0.1,3.8-4,3.8-4
		c0.5-2.1-1.8-4.7-1.8-4.7C95.7,64.8,94.7,67.5,94.7,67.5L94.7,67.5z M115.3,66.7c-3.1,8.3,0.9,6.4,0.9,6.4c3.2-1.9,3.2-4.3,3.2-4.3
		c0.1-1.5-1.6-4-1.6-4C116.7,64,115.3,66.7,115.3,66.7L115.3,66.7z M183.5,63.3c0,0-3.7,1-3.8,4.2c0,0,1.8,0.9,3.3-0.3
		C183,67.2,183.6,64.2,183.5,63.3L183.5,63.3z"/>
</g>
<g id="Capa_4" class="st0">
	<g class="st2">
		<path class="st3" d="M26.5,49.8c-3.1,0-5.8,1.1-8,3.3c-2.2,2.2-3.3,4.9-3.3,8c0,3.2,1.1,5.8,3.3,8c2.2,2.3,4.9,3.4,8,3.4
			c3.1,0,5.8-1.1,8-3.4c2.2-2.2,3.3-4.8,3.3-8c0-3.1-1.1-5.8-3.3-8C32.3,50.9,29.6,49.8,26.5,49.8L26.5,49.8z"/>
		<path class="st3" d="M26.5,47.8V34.9c-4.6,0-8.9,1.2-12.8,3.4v19.5c0.7-2.9,2.3-5.3,4.6-7.1C20.8,48.8,23.5,47.8,26.5,47.8
			L26.5,47.8z"/>
		<path class="st3" d="M23.8,74.1c-3-0.7-5.4-2.3-7.2-4.7c-2-2.4-2.9-5.1-2.9-8.2H0.5c0,4.6,1.2,8.9,3.5,12.8H23.8L23.8,74.1z"/>
		<path class="st3" d="M39.5,64.4c-0.7,2.9-2.2,5.3-4.6,7.2c-2.4,1.9-5.2,2.9-8.3,2.9v12.6c4.6,0,8.9-1.1,12.8-3.4V64.4L39.5,64.4z"
			/>
		<path class="st3" d="M52.6,60.9c0-4.6-1.2-8.9-3.5-12.8H29.8c3,0.7,5.4,2.3,7.2,4.6c2,2.5,2.9,5.2,2.9,8.3H52.6L52.6,60.9z"/>
		<polygon class="st3" points="58.6,48.8 58.6,63.9 63.1,63.9 63.1,48.8 58.6,48.8 		"/>
		<polygon class="st3" points="87.1,48.8 82.4,48.8 82.4,59.7 82.4,59.7 73.6,48.8 66.4,48.8 66.4,63.9 71.1,63.9 71.1,52.8 
			71.1,52.8 79.8,63.9 87.1,63.9 87.1,48.8 		"/>
		<path class="st3" d="M94.8,54.7v-2.4h8.3c0.9,0,1.4,0.4,1.4,1.2c0,0.8-0.5,1.2-1.4,1.2H94.8L94.8,54.7z M94.8,57.8h8.4
			c1.1,0,1.7,0.5,1.7,1.3c0,0.8-0.6,1.1-1.7,1.1h-8.4V57.8L94.8,57.8z M106.8,56.2L106.8,56.2c0.8-0.3,1.3-0.6,1.6-1
			c0.5-0.5,0.7-1.4,0.7-2.6c0-1.4-0.5-2.4-1.4-3.1c-0.9-0.6-2.3-0.8-4.2-0.8H90.1v15.1H105c1.5,0,2.6-0.2,3.3-0.7
			c0.8-0.7,1.3-1.8,1.3-3.3c0-1.2-0.2-2.1-0.6-2.6C108.5,56.7,107.8,56.3,106.8,56.2L106.8,56.2z"/>
		<path class="st3" d="M131.4,48.8h-4.6v8.8c0,0.9-0.3,1.6-0.6,2c-0.4,0.5-1.2,0.7-2.1,0.7h-4.6c-1,0-1.6-0.2-2.1-0.7
			c-0.4-0.4-0.5-1.1-0.5-2v-8.8h-4.7v9.7c0,1.9,0.5,3.3,1.5,4.2c1,1,2.6,1.4,4.7,1.4h6.8c2.1,0,3.7-0.4,4.7-1.4
			c1-0.9,1.5-2.3,1.5-4.2V48.8L131.4,48.8z"/>
		<path class="st3" d="M139,56.1v-3.7c2.5,0,4.9,0,7.4,0c1.2,0,2.1,0.2,2.1,1.6c0,0.2,0,0.3,0,0.5c0,1.1-0.6,1.6-1.7,1.6H139
			L139,56.1z M139,60h7.4c0.7,0,1.2,0.1,1.5,0.4c0.3,0.3,0.4,0.9,0.4,1.7v1.8h4.7v-2.6c0-1.1-0.2-2-0.7-2.5c-0.4-0.4-1-0.7-1.8-0.9
			c1-0.2,1.7-0.7,2.1-1.3c0.3-0.6,0.5-1.4,0.5-2.5v-0.9c0-1.5-0.3-2.6-0.9-3.3c-0.8-0.9-2-1.2-3.7-1.2h-14.1v15.1h4.7V60L139,60z"/>
		<path class="st3" d="M166,54.4l-4.7-0.2c-0.3,0-0.6-0.2-0.7-0.4c-0.1-0.1-0.2-0.4-0.2-0.7c0-0.8,0.6-1.2,1.8-1.2h5.2
			c1,0,1.7,0.1,2,0.3c0.2,0.2,0.3,0.6,0.3,1.3h4.7V53c0-1.6-0.3-2.7-1-3.3c-0.8-0.9-2.5-1.3-4.9-1.3h-6.6c-2.7,0-4.5,0.5-5.3,1.4
			c-0.6,0.7-0.9,1.9-0.9,3.5c0,1.1,0.1,1.8,0.3,2.4c0.1,0.6,0.5,1,1,1.4c1,0.6,3.1,0.9,6.6,0.9l5.6,0.2c0.4,0,0.7,0.2,0.8,0.4
			l0.2,0.8c0,0.5-0.2,0.9-0.6,1.1l-1.4,0.2h-5.8l-1.5-0.3c-0.3-0.2-0.5-0.7-0.5-1.5h-4.7V60c0,1.6,0.5,2.7,1.4,3.3
			c0.8,0.5,2.4,0.8,4.6,0.8h5.7c3.1,0,5.2-0.3,6.1-0.9c0.6-0.3,1-0.8,1.2-1.4c0.2-0.6,0.3-1.5,0.3-2.5c0-1.2-0.1-2-0.4-2.6
			c-0.2-0.7-0.7-1.2-1.3-1.5C172.1,54.6,169.7,54.4,166,54.4L166,54.4z"/>
		<polygon class="st3" points="190.4,48.8 184.4,48.8 176.1,63.9 181.4,63.9 182.7,61.2 184.5,57.9 187.4,52.2 190.4,57.9 
			184.5,57.9 182.7,61.2 192.2,61.2 193.6,63.9 198.8,63.9 190.4,48.8 		"/>
		<path class="st3" d="M96.7,75.8v-1.2l4.3,0v3.8c-0.7,0.5-1.3,0.9-2,1.2c-0.7,0.3-1.4,0.4-2.2,0.4c-1,0-1.9-0.2-2.7-0.6
			c-0.8-0.4-1.4-1-1.8-1.8c-0.4-0.8-0.6-1.7-0.6-2.7c0-1,0.2-1.9,0.6-2.8c0.4-0.9,1-1.5,1.8-1.9c0.8-0.4,1.7-0.6,2.7-0.6
			c0.7,0,1.4,0.1,2,0.4c0.6,0.2,1.1,0.6,1.4,1c0.3,0.4,0.6,1,0.8,1.7l-1.2,0.3c-0.2-0.5-0.3-0.9-0.6-1.2c-0.2-0.3-0.5-0.5-1-0.7
			c-0.4-0.2-0.9-0.3-1.4-0.3c-0.6,0-1.1,0.1-1.6,0.3c-0.4,0.2-0.8,0.4-1.1,0.7c-0.3,0.3-0.5,0.6-0.6,1c-0.3,0.6-0.4,1.3-0.4,2
			c0,0.9,0.2,1.7,0.5,2.3c0.3,0.6,0.8,1.1,1.4,1.4c0.6,0.3,1.2,0.4,1.9,0.4c0.6,0,1.1-0.1,1.7-0.3c0.6-0.2,1-0.5,1.3-0.7v-1.9H96.7
			L96.7,75.8z"/>
		<path class="st3" d="M102.8,79.8v-7.3h1.1v1.1c0.3-0.5,0.5-0.9,0.8-1c0.2-0.2,0.5-0.2,0.8-0.2c0.4,0,0.8,0.1,1.3,0.4l-0.4,1.2
			c-0.3-0.2-0.6-0.3-0.9-0.3c-0.3,0-0.5,0.1-0.7,0.2c-0.2,0.2-0.4,0.4-0.5,0.7c-0.1,0.4-0.2,0.9-0.2,1.4v3.8H102.8L102.8,79.8z"/>
		<path class="st3" d="M112.3,79.8v-1.1c-0.6,0.8-1.3,1.2-2.3,1.2c-0.4,0-0.8-0.1-1.2-0.2c-0.4-0.2-0.7-0.4-0.8-0.6
			c-0.2-0.3-0.3-0.6-0.4-0.9c0-0.2-0.1-0.6-0.1-1.2v-4.5h1.2v4.1c0,0.7,0,1.1,0.1,1.3c0.1,0.3,0.2,0.6,0.5,0.8
			c0.3,0.2,0.6,0.3,0.9,0.3c0.4,0,0.7-0.1,1-0.3c0.3-0.2,0.6-0.5,0.7-0.8c0.1-0.3,0.2-0.8,0.2-1.4v-3.9h1.2v7.3H112.3L112.3,79.8z"
			/>
		<path class="st3" d="M115.4,82.6V72.4h1.1v1c0.3-0.4,0.6-0.7,0.9-0.8c0.3-0.2,0.7-0.3,1.2-0.3c0.6,0,1.2,0.2,1.7,0.5
			c0.5,0.3,0.8,0.8,1.1,1.4c0.2,0.6,0.4,1.2,0.4,1.9c0,0.7-0.1,1.4-0.4,2c-0.3,0.6-0.7,1.1-1.2,1.4c-0.5,0.3-1.1,0.5-1.6,0.5
			c-0.4,0-0.8-0.1-1.1-0.3c-0.3-0.2-0.6-0.4-0.8-0.7v3.6H115.4L115.4,82.6z M116.5,76.2c0,0.9,0.2,1.6,0.6,2.1
			c0.4,0.5,0.8,0.7,1.4,0.7c0.6,0,1-0.2,1.4-0.7c0.4-0.5,0.6-1.2,0.6-2.2c0-0.9-0.2-1.6-0.6-2.1c-0.4-0.5-0.8-0.7-1.4-0.7
			c-0.5,0-1,0.2-1.4,0.7C116.7,74.5,116.5,75.2,116.5,76.2L116.5,76.2z"/>
		<path class="st3" d="M122.8,76.1c0-1.4,0.4-2.4,1.1-3c0.6-0.5,1.4-0.8,2.3-0.8c1,0,1.8,0.3,2.5,1c0.6,0.7,1,1.6,1,2.7
			c0,0.9-0.1,1.7-0.4,2.2c-0.3,0.5-0.7,1-1.2,1.3c-0.5,0.3-1.1,0.4-1.8,0.4c-1,0-1.9-0.3-2.5-1C123.1,78.3,122.8,77.3,122.8,76.1
			L122.8,76.1z M124,76.1c0,0.9,0.2,1.6,0.6,2.1c0.4,0.5,0.9,0.7,1.5,0.7c0.6,0,1.1-0.2,1.5-0.7c0.4-0.5,0.6-1.2,0.6-2.1
			c0-0.9-0.2-1.6-0.6-2.1c-0.4-0.5-0.9-0.7-1.5-0.7c-0.6,0-1.1,0.2-1.5,0.7C124.2,74.5,124,75.2,124,76.1L124,76.1z"/>
		<polygon class="st3" points="135.2,79.8 135.2,69.7 142.1,69.7 142.1,70.9 136.6,70.9 136.6,74 141.3,74 141.3,75.2 136.6,75.2 
			136.6,79.8 135.2,79.8 		"/>
		<path class="st3" d="M143.6,71.1v-1.4h1.2v1.4H143.6L143.6,71.1z M143.6,79.8v-7.3h1.2v7.3H143.6L143.6,79.8z"/>
		<path class="st3" d="M146.8,79.8v-7.3h1.1v1c0.5-0.8,1.3-1.2,2.3-1.2c0.4,0,0.8,0.1,1.2,0.2c0.4,0.2,0.6,0.4,0.8,0.6
			c0.2,0.3,0.3,0.6,0.4,0.9c0,0.2,0.1,0.6,0.1,1.2v4.5h-1.2v-4.5c0-0.5,0-0.9-0.1-1.1c-0.1-0.2-0.3-0.4-0.5-0.6
			c-0.2-0.2-0.5-0.2-0.9-0.2c-0.5,0-1,0.2-1.4,0.5c-0.4,0.3-0.6,1-0.6,1.9v4H146.8L146.8,79.8z"/>
		<path class="st3" d="M159.4,78.9c-0.5,0.4-0.9,0.7-1.3,0.8c-0.4,0.2-0.9,0.2-1.4,0.2c-0.8,0-1.4-0.2-1.9-0.6
			c-0.4-0.4-0.6-0.9-0.6-1.5c0-0.4,0.1-0.7,0.2-1c0.2-0.3,0.4-0.5,0.6-0.7c0.3-0.2,0.6-0.3,0.9-0.4c0.2-0.1,0.6-0.1,1.1-0.2
			c1-0.1,1.7-0.3,2.2-0.4c0-0.2,0-0.3,0-0.3c0-0.5-0.1-0.9-0.4-1.1c-0.3-0.3-0.8-0.4-1.4-0.4c-0.6,0-1,0.1-1.3,0.3
			c-0.3,0.2-0.5,0.6-0.6,1.1l-1.2-0.2c0.1-0.5,0.3-0.9,0.5-1.3c0.3-0.3,0.6-0.6,1.1-0.7c0.5-0.2,1-0.3,1.7-0.3
			c0.6,0,1.1,0.1,1.5,0.2c0.4,0.1,0.7,0.3,0.9,0.6c0.2,0.2,0.3,0.5,0.4,0.8c0,0.2,0.1,0.6,0.1,1.1v1.7c0,1.2,0,1.9,0.1,2.2
			c0.1,0.3,0.2,0.6,0.3,0.9h-1.3C159.5,79.5,159.4,79.2,159.4,78.9L159.4,78.9z M159.3,76.1c-0.5,0.2-1.1,0.3-2,0.5
			c-0.5,0.1-0.9,0.2-1.1,0.2c-0.2,0.1-0.4,0.2-0.5,0.4c-0.1,0.2-0.2,0.4-0.2,0.6c0,0.3,0.1,0.6,0.4,0.8c0.2,0.2,0.6,0.3,1.1,0.3
			c0.5,0,0.9-0.1,1.3-0.3c0.4-0.2,0.6-0.5,0.8-0.9c0.1-0.3,0.2-0.7,0.2-1.2V76.1L159.3,76.1z"/>
		<path class="st3" d="M162.5,79.8v-7.3h1.1v1c0.5-0.8,1.3-1.2,2.3-1.2c0.4,0,0.8,0.1,1.2,0.2c0.4,0.2,0.6,0.4,0.8,0.6
			c0.2,0.3,0.3,0.6,0.4,0.9c0,0.2,0.1,0.6,0.1,1.2v4.5h-1.2v-4.5c0-0.5,0-0.9-0.1-1.1c-0.1-0.2-0.3-0.4-0.5-0.6
			c-0.2-0.2-0.5-0.2-0.9-0.2c-0.5,0-1,0.2-1.4,0.5c-0.4,0.3-0.6,1-0.6,1.9v4H162.5L162.5,79.8z"/>
		<path class="st3" d="M175.1,77.1l1.2,0.2c-0.1,0.8-0.5,1.5-1,2c-0.5,0.5-1.2,0.7-2,0.7c-1,0-1.8-0.3-2.4-1
			c-0.6-0.7-0.9-1.6-0.9-2.8c0-0.8,0.1-1.5,0.4-2.1c0.3-0.6,0.7-1,1.2-1.3c0.5-0.3,1.1-0.4,1.7-0.4c0.8,0,1.4,0.2,2,0.6
			c0.5,0.4,0.8,1,1,1.7l-1.2,0.2c-0.1-0.5-0.3-0.9-0.6-1.1c-0.3-0.2-0.6-0.4-1.1-0.4c-0.6,0-1.1,0.2-1.5,0.7
			c-0.4,0.4-0.6,1.2-0.6,2.1c0,1,0.2,1.7,0.6,2.1c0.4,0.4,0.9,0.7,1.5,0.7c0.5,0,0.9-0.2,1.2-0.4C174.8,78.2,175,77.7,175.1,77.1
			L175.1,77.1z"/>
		<path class="st3" d="M177.4,71.1v-1.4h1.2v1.4H177.4L177.4,71.1z M177.4,79.8v-7.3h1.2v7.3H177.4L177.4,79.8z"/>
		<path class="st3" d="M185.6,77.4l1.3,0.2c-0.2,0.8-0.6,1.3-1.1,1.7c-0.5,0.4-1.2,0.6-2.1,0.6c-1.1,0-1.9-0.3-2.5-1
			c-0.6-0.7-0.9-1.6-0.9-2.8c0-1.2,0.3-2.2,1-2.9c0.6-0.7,1.5-1,2.5-1c1,0,1.8,0.3,2.4,1c0.6,0.7,0.9,1.6,0.9,2.8c0,0.1,0,0.2,0,0.3
			h-5.5c0,0.8,0.3,1.4,0.7,1.8c0.4,0.4,0.9,0.6,1.5,0.6c0.5,0,0.8-0.1,1.2-0.4C185.1,78.3,185.4,77.9,185.6,77.4L185.6,77.4z
			 M181.5,75.4h4.1c-0.1-0.6-0.2-1.1-0.5-1.4c-0.4-0.5-0.9-0.7-1.5-0.7c-0.6,0-1.1,0.2-1.4,0.6C181.7,74.3,181.5,74.8,181.5,75.4
			L181.5,75.4z"/>
		<path class="st3" d="M188.4,79.8v-7.3h1.1v1.1c0.3-0.5,0.5-0.9,0.8-1c0.2-0.2,0.5-0.2,0.8-0.2c0.4,0,0.8,0.1,1.3,0.4l-0.4,1.2
			c-0.3-0.2-0.6-0.3-0.9-0.3c-0.3,0-0.5,0.1-0.7,0.2c-0.2,0.2-0.4,0.4-0.5,0.7c-0.1,0.4-0.2,0.9-0.2,1.4v3.8H188.4L188.4,79.8z"/>
		<path class="st3" d="M192.7,76.1c0-1.4,0.4-2.4,1.1-3c0.6-0.5,1.4-0.8,2.3-0.8c1,0,1.8,0.3,2.5,1c0.6,0.7,1,1.6,1,2.7
			c0,0.9-0.1,1.7-0.4,2.2c-0.3,0.5-0.7,1-1.2,1.3c-0.5,0.3-1.1,0.4-1.8,0.4c-1,0-1.9-0.3-2.5-1C193,78.3,192.7,77.3,192.7,76.1
			L192.7,76.1z M193.9,76.1c0,0.9,0.2,1.6,0.6,2.1c0.4,0.5,0.9,0.7,1.5,0.7c0.6,0,1.1-0.2,1.5-0.7c0.4-0.5,0.6-1.2,0.6-2.1
			c0-0.9-0.2-1.6-0.6-2.1c-0.4-0.5-0.9-0.7-1.5-0.7c-0.6,0-1.1,0.2-1.5,0.7C194.1,74.5,193.9,75.2,193.9,76.1L193.9,76.1z"/>
	</g>
</g>
<g id="Capa_5" class="st0">
	<g class="st2">
		<path class="st4" d="M130.8,28.6c-16,0-27.3,8.5-27.4,20.7c-0.1,9,8,14.1,14.2,17.1c6.3,3.1,8.4,5,8.4,7.8
			c-0.1,4.2-5.1,6.1-9.7,6.1c-6.5,0-9.9-0.9-15.2-3.3L99,76l-2.3,14c3.8,1.7,10.8,3.3,18.1,3.3c17,0,28.1-8.4,28.2-21.4
			c0.1-7.2-4.3-12.6-13.6-17c-5.6-2.9-9.1-4.8-9.1-7.8c0-2.6,2.9-5.4,9.3-5.4c5.3-0.1,9.1,1.1,12.1,2.4l1.4,0.7l2.2-13.6
			C142.1,30,137.1,28.6,130.8,28.6L130.8,28.6z M80.5,29.7L70.4,92.4h16.2l10.1-62.7L80.5,29.7L80.5,29.7z M56.8,29.8L41,72.5
			l-1.7-8.7C35.3,53.2,26.8,42,16.8,37.5l14.5,54.9l17.1,0L74,29.8L56.8,29.8L56.8,29.8z M174.4,29.8c-3.9,0-6.8,1.1-8.5,5.2
			l-24,57.5h17c0,0,2.8-7.7,3.4-9.4c1.9,0,18.4,0,20.7,0c0.5,2.2,2,9.4,2,9.4h15l-13.1-62.7L174.4,29.8L174.4,29.8z M175.5,46.7
			l1.1,5.4c0,0,3.1,15,3.8,18.1h-13.4c1.3-3.6,6.5-17.5,6.5-17.5C173.3,52.8,174.7,49,175.5,46.7L175.5,46.7z"/>
		<path class="st4" d="M26.3,29.8H0.2L0,30.8c20.3,5.2,33.7,17.9,39.3,33L33.6,35C32.6,31.1,29.8,29.9,26.3,29.8"/>
	</g>
</g>
<g id="Capa_6">
	<g>
		<polygon class="st3" points="139.4,119.9 142.4,119.8 145.4,119.6 148.3,119.2 151.3,118.7 154.1,118 156.9,117.2 159.6,116.3 
			162.3,115.2 164.9,114 167.5,112.7 169.9,111.3 172.3,109.8 174.6,108.1 176.9,106.4 179,104.5 181.1,102.6 183,100.5 184.9,98.4 
			186.6,96.2 188.3,93.9 189.8,91.5 191.2,89 192.5,86.5 193.7,83.8 194.8,81.2 195.7,78.4 196.5,75.6 197.1,72.8 197.7,69.9 
			198,66.9 198.3,63.9 198.3,60.9 198.3,57.9 198,54.9 197.7,52 197.1,49.1 196.5,46.2 195.7,43.5 194.8,40.7 193.7,38.1 
			192.5,35.5 191.2,32.9 189.8,30.5 188.3,28.1 186.6,25.8 184.9,23.6 183,21.4 181.1,19.4 179,17.4 176.9,15.6 174.6,13.8 
			172.3,12.2 169.9,10.7 167.5,9.3 164.9,8 162.3,6.8 159.6,5.7 156.9,4.8 154.1,4 151.3,3.3 148.3,2.8 145.4,2.4 142.4,2.2 
			139.4,2.1 136.4,2.2 133.4,2.4 130.4,2.8 127.5,3.3 124.7,4 121.9,4.8 119.2,5.7 116.5,6.8 113.9,8 111.4,9.3 108.9,10.7 
			106.5,12.2 104.2,13.8 102,15.6 99.9,17.4 97.8,19.4 95.9,21.4 94,23.6 92.3,25.8 90.6,28.1 89.1,30.5 87.7,32.9 86.4,35.5 
			85.2,38.1 84.2,40.7 83.3,43.5 82.5,46.2 81.8,49.1 81.3,52 80.9,54.9 80.7,57.9 80.6,60.9 80.7,63.9 80.9,66.9 81.3,69.9 
			81.8,72.8 82.5,75.6 83.3,78.4 84.2,81.2 85.2,83.8 86.4,86.5 87.7,89 89.1,91.5 90.6,93.9 92.3,96.2 94,98.4 95.9,100.5 
			97.8,102.6 99.9,104.5 102,106.4 104.2,108.1 106.5,109.8 108.9,111.3 111.4,112.7 113.9,114 116.5,115.2 119.2,116.3 
			121.9,117.2 124.7,118 127.5,118.7 130.4,119.2 133.4,119.6 136.4,119.8 139.4,119.9 139.4,119.9 		"/>
		<polygon class="st6" points="60.6,119.9 63.6,119.8 66.6,119.6 69.6,119.2 72.5,118.7 75.3,118 78.1,117.2 80.8,116.3 83.5,115.2 
			86.1,114 88.6,112.7 91.1,111.3 93.5,109.8 95.8,108.1 98,106.4 100.1,104.5 102.2,102.6 104.1,100.5 106,98.4 107.7,96.2 
			109.4,93.9 110.9,91.5 112.3,89 113.6,86.5 114.8,83.8 115.8,81.2 116.7,78.4 117.5,75.6 118.2,72.8 118.7,69.9 119.1,66.9 
			119.3,63.9 119.4,60.9 119.3,57.9 119.1,54.9 118.7,52 118.2,49.1 117.5,46.2 116.7,43.5 115.8,40.7 114.8,38.1 113.6,35.5 
			112.3,32.9 110.9,30.5 109.4,28.1 107.7,25.8 106,23.6 104.1,21.4 102.2,19.4 100.1,17.4 98,15.6 95.8,13.8 93.5,12.2 91.1,10.7 
			88.6,9.3 86.1,8 83.5,6.8 80.8,5.7 78.1,4.8 75.3,4 72.5,3.3 69.6,2.8 66.6,2.4 63.6,2.2 60.6,2.1 57.6,2.2 54.6,2.4 51.7,2.8 
			48.7,3.3 45.9,4 43.1,4.8 40.4,5.7 37.7,6.8 35.1,8 32.5,9.3 30.1,10.7 27.7,12.2 25.4,13.8 23.1,15.6 21,17.4 18.9,19.4 17,21.4 
			15.1,23.6 13.4,25.8 11.7,28.1 10.2,30.5 8.8,32.9 7.5,35.5 6.3,38.1 5.2,40.7 4.3,43.5 3.5,46.2 2.9,49.1 2.3,52 2,54.9 
			1.7,57.9 1.7,60.9 1.7,63.9 2,66.9 2.3,69.9 2.9,72.8 3.5,75.6 4.3,78.4 5.2,81.2 6.3,83.8 7.5,86.5 8.8,89 10.2,91.5 11.7,93.9 
			13.4,96.2 15.1,98.4 17,100.5 18.9,102.6 21,104.5 23.1,106.4 25.4,108.1 27.7,109.8 30.1,111.3 32.5,112.7 35.1,114 37.7,115.2 
			40.4,116.3 43.1,117.2 45.9,118 48.7,118.7 51.7,119.2 54.6,119.6 57.6,119.8 60.6,119.9 60.6,119.9 		"/>
		<polygon class="st3" points="93.1,24.7 124.4,24.7 124.4,21.5 95.8,21.5 93.1,24.7 93.1,24.7 		"/>
		<polygon class="st3" points="88.4,31.8 124.4,31.8 124.4,28.6 90.3,28.6 88.4,31.8 88.4,31.8 		"/>
		<polygon class="st3" points="84.9,38.9 124.4,38.9 124.4,35.7 86.3,35.7 84.9,38.9 84.9,38.9 		"/>
		<polygon class="st3" points="82.5,46 124.4,46 124.4,42.8 83.5,42.8 82.5,46 82.5,46 		"/>
		<polygon class="st3" points="83.9,80.4 124.5,80.4 124.5,77.2 82.9,77.2 83.9,80.4 83.9,80.4 		"/>
		<polygon class="st3" points="86.9,87.5 124.5,87.5 124.5,84.3 85.4,84.3 86.9,87.5 86.9,87.5 		"/>
		<polygon class="st3" points="91.1,94.6 124.5,94.6 124.5,91.4 89.1,91.4 91.1,94.6 91.1,94.6 		"/>
		<polygon class="st3" points="96.9,101.7 124.5,101.7 124.5,98.5 94.1,98.5 96.9,101.7 96.9,101.7 		"/>
		<polygon class="st3" points="81.1,53.1 124.4,53.1 124.4,49.9 81.7,49.9 81.1,53.1 81.1,53.1 		"/>
		<polygon class="st3" points="107.5,73.3 124,73.3 124,70.1 108.1,70.1 107.5,73.3 107.5,73.3 		"/>
		<polygon class="st3" points="108.8,66.2 124,66.2 124,63 109.4,63 108.8,66.2 108.8,66.2 		"/>
		<polygon class="st3" points="80,63 84.3,63 84.3,66.2 80.2,66.2 80,63 80,63 		"/>
		<polygon class="st7" points="72,59.1 71.7,59.1 71.5,59 71.2,59 71,59 70.7,58.9 70.5,58.9 70.2,58.8 69.9,58.8 69.6,58.8 
			69.3,58.7 69,58.7 68.6,58.7 68.2,58.7 67.7,58.7 67.2,58.8 66.6,58.8 66.2,58.9 65.9,58.9 65.5,59 65.2,59.2 64.9,59.3 
			64.7,59.5 64.5,59.7 64.3,59.8 64.2,60.1 64.1,60.3 64,60.5 64,60.8 64.1,61 64.2,61.3 64.3,61.5 64.5,61.8 64.9,62.2 65.4,62.5 
			66,62.7 66.6,62.9 67.2,63.1 67.9,63.4 68.5,63.6 69.1,63.8 69.7,64.2 70.3,64.6 70.8,65.1 71.2,65.7 71.5,66.5 71.7,67.4 
			71.8,68.4 71.7,69.7 71.6,70.6 71.4,71.4 71,72.2 70.6,72.8 70.2,73.4 69.7,73.9 69.1,74.4 68.5,74.7 67.9,75 67.2,75.3 
			66.5,75.5 65.8,75.6 65.2,75.8 64.5,75.8 63.8,75.9 63.2,75.9 62.4,75.9 61.6,75.9 60.9,75.9 60.2,75.8 59.6,75.8 59.1,75.8 
			58.6,75.7 58.2,75.7 57.8,75.6 57.4,75.6 57,75.5 56.7,75.4 56.3,75.3 56,75.2 55.7,75.1 55.3,75 56.2,70.6 56.4,70.6 56.6,70.7 
			56.9,70.8 57.3,70.8 57.6,70.9 58,71 58.4,71.1 58.9,71.2 59.4,71.3 59.9,71.3 60.5,71.4 61,71.5 61.6,71.5 62.2,71.5 62.8,71.5 
			63.3,71.5 63.9,71.4 64.4,71.2 64.7,71 65,70.7 65.2,70.4 65.4,70.1 65.5,69.8 65.5,69.5 65.6,68.9 65.4,68.4 65.1,68 64.6,67.7 
			64,67.4 63.3,67.1 62.5,66.8 61.7,66.5 60.9,66.1 60.2,65.7 59.5,65.2 58.8,64.6 58.3,63.8 58,62.9 57.8,61.9 57.8,60.6 
			57.9,59.8 58.1,59.1 58.3,58.4 58.5,57.8 58.8,57.2 59.2,56.7 59.6,56.2 60.1,55.7 60.7,55.4 61.3,55 62,54.7 62.8,54.5 
			63.7,54.3 64.7,54.2 65.8,54.1 66.9,54.1 67.7,54.1 68.3,54.1 68.9,54.1 69.5,54.2 70,54.2 70.5,54.2 70.9,54.3 71.2,54.3 
			71.6,54.4 71.8,54.4 72.1,54.5 72.3,54.5 72.5,54.5 72.7,54.6 72.9,54.6 73,54.6 72,59.1 72,59.1 		"/>
		<polyline class="st8" points="72,59.1 72,59.1 71.7,59.1 71.5,59 71.2,59 71,59 70.7,58.9 70.5,58.9 70.2,58.8 69.9,58.8 
			69.6,58.8 69.3,58.7 69,58.7 68.6,58.7 68.2,58.7 67.7,58.7 67.2,58.8 66.6,58.8 66.6,58.8 66.2,58.9 65.9,58.9 65.5,59 
			65.2,59.2 64.9,59.3 64.7,59.5 64.5,59.7 64.3,59.8 64.2,60.1 64.1,60.3 64,60.5 64,60.8 64.1,61 64.2,61.3 64.3,61.5 64.5,61.8 
			64.5,61.8 64.9,62.2 65.4,62.5 66,62.7 66.6,62.9 67.2,63.1 67.9,63.4 68.5,63.6 69.1,63.8 69.7,64.2 70.3,64.6 70.8,65.1 
			71.2,65.7 71.5,66.5 71.7,67.4 71.8,68.4 71.7,69.7 71.7,69.7 71.6,70.6 71.4,71.4 71,72.2 70.6,72.8 70.2,73.4 69.7,73.9 
			69.1,74.4 68.5,74.7 67.9,75 67.2,75.3 66.5,75.5 65.8,75.6 65.2,75.8 64.5,75.8 63.8,75.9 63.2,75.9 63.2,75.9 62.4,75.9 
			61.6,75.9 60.9,75.9 60.2,75.8 59.6,75.8 59.1,75.8 58.6,75.7 58.2,75.7 57.8,75.6 57.4,75.6 57,75.5 56.7,75.4 56.3,75.3 
			56,75.2 55.7,75.1 55.3,75 56.2,70.6 56.2,70.6 56.4,70.6 56.6,70.7 56.9,70.8 57.3,70.8 57.6,70.9 58,71 58.4,71.1 58.9,71.2 
			59.4,71.3 59.9,71.3 60.5,71.4 61,71.5 61.6,71.5 62.2,71.5 62.8,71.5 63.3,71.5 63.3,71.5 63.9,71.4 64.4,71.2 64.7,71 65,70.7 
			65.2,70.4 65.4,70.1 65.5,69.8 65.5,69.5 65.5,69.5 65.6,68.9 65.4,68.4 65.1,68 64.6,67.7 64,67.4 63.3,67.1 62.5,66.8 
			61.7,66.5 60.9,66.1 60.2,65.7 59.5,65.2 58.8,64.6 58.3,63.8 58,62.9 57.8,61.9 57.8,60.6 57.8,60.6 57.9,59.8 58.1,59.1 
			58.3,58.4 58.5,57.8 58.8,57.2 59.2,56.7 59.6,56.2 60.1,55.7 60.7,55.4 61.3,55 62,54.7 62.8,54.5 63.7,54.3 64.7,54.2 
			65.8,54.1 66.9,54.1 66.9,54.1 67.7,54.1 68.3,54.1 68.9,54.1 69.5,54.2 70,54.2 70.5,54.2 70.9,54.3 71.2,54.3 71.6,54.4 
			71.8,54.4 72.1,54.5 72.3,54.5 72.5,54.5 72.7,54.6 72.9,54.6 73,54.6 72,59.1 		"/>
		<polygon class="st7" points="76.7,49.7 82.2,49.7 81.4,54.5 84.7,54.5 84,59 80.5,58.9 78.6,70 78.6,70.4 78.7,70.7 78.9,71 
			79.2,71.2 79.5,71.3 79.9,71.5 80.3,71.5 80.8,71.6 81.3,71.6 81.7,71.5 82,71.5 82.3,71.4 82.6,71.3 82.8,71.2 82.9,71.2 
			82.9,71.2 82.2,74.9 82.1,75 82,75 81.8,75.1 81.7,75.2 81.5,75.3 81.4,75.3 81.2,75.4 81,75.4 80.8,75.5 80.6,75.5 80.4,75.6 
			80.1,75.6 79.9,75.7 79.6,75.7 79.3,75.7 78.9,75.8 77.4,75.8 76.6,75.7 75.9,75.6 75.3,75.5 74.8,75.4 74.3,75.2 73.9,75 
			73.6,74.8 73.3,74.5 73.1,74.2 73,73.9 72.9,73.6 72.8,73.2 72.8,72.8 72.8,72.3 72.9,71.9 72.9,71.4 76.7,49.7 76.7,49.7 		"/>
		<polyline class="st8" points="76.7,49.7 82.2,49.7 81.4,54.5 84.7,54.5 84,59 80.5,58.9 78.6,70 78.6,70 78.6,70.4 78.7,70.7 
			78.9,71 79.2,71.2 79.5,71.3 79.9,71.5 80.3,71.5 80.8,71.6 80.8,71.6 81.3,71.6 81.7,71.5 82,71.5 82.3,71.4 82.6,71.3 
			82.8,71.2 82.9,71.2 82.9,71.2 82.2,74.9 82.2,74.9 82.1,75 82,75 81.8,75.1 81.7,75.2 81.5,75.3 81.4,75.3 81.2,75.4 81,75.4 
			80.8,75.5 80.6,75.5 80.4,75.6 80.1,75.6 79.9,75.7 79.6,75.7 79.3,75.7 78.9,75.8 77.4,75.8 77.4,75.8 76.6,75.7 75.9,75.6 
			75.3,75.5 74.8,75.4 74.3,75.2 73.9,75 73.6,74.8 73.3,74.5 73.1,74.2 73,73.9 72.9,73.6 72.8,73.2 72.8,72.8 72.8,72.3 
			72.9,71.9 72.9,71.4 76.7,49.7 		"/>
		<polygon class="st7" points="89.1,66.5 89.1,66.8 89,67.2 89.1,67.6 89.2,67.9 89.3,68.3 89.5,68.7 89.7,69.1 89.9,69.4 
			90.2,69.7 90.5,70 90.8,70.3 91.2,70.6 91.5,70.8 91.9,71 92.3,71.1 92.7,71.2 93.2,71.3 93.7,71.3 94.2,71.4 94.8,71.4 
			95.3,71.4 95.8,71.4 96.3,71.4 96.9,71.4 97.4,71.3 97.9,71.2 98.5,71.1 99,70.9 99.6,70.7 100.2,70.4 100.7,70.1 101.3,69.8 
			100.5,74.7 100.2,74.8 99.9,75 99.5,75.1 99.2,75.2 98.9,75.3 98.6,75.4 98.3,75.5 98,75.6 97.6,75.6 97.2,75.7 96.8,75.7 
			96.3,75.7 95.8,75.8 95.3,75.8 94.7,75.8 94,75.8 93.1,75.8 92.1,75.7 91.1,75.5 90.1,75.3 89.1,75 88.2,74.6 87.3,74.1 
			86.4,73.5 85.7,72.9 85,72 84.4,71.1 83.9,70.1 83.6,68.9 83.4,67.6 83.3,66.1 83.4,64.5 83.5,63.8 83.6,63.1 83.8,62.3 84,61.5 
			84.3,60.7 84.7,59.8 85.1,58.9 85.7,58.1 86.3,57.3 87.1,56.5 87.9,55.9 88.9,55.3 90.1,54.8 91.4,54.4 92.8,54.2 94.4,54.1 
			95.2,54.1 96,54.2 96.8,54.3 97.6,54.5 98.4,54.8 99.2,55.2 99.9,55.7 100.6,56.2 101.2,56.9 101.7,57.7 102.1,58.6 102.3,59.7 
			102.5,60.9 102.5,62.2 102.4,63.7 102.1,65.4 102,66.6 87.5,66.6 88.4,62.7 97.1,62.7 97.2,62.2 97.1,61.7 97.1,61.3 97,60.9 
			96.9,60.5 96.7,60.2 96.5,59.9 96.3,59.6 96.1,59.3 95.9,59.1 95.6,59 95.3,58.8 94.9,58.7 94.6,58.6 94.3,58.5 93.9,58.5 
			93.5,58.5 93.2,58.6 92.9,58.7 92.5,58.8 92.2,58.9 91.9,59.1 91.6,59.3 91.3,59.6 91.1,59.9 90.8,60.2 90.6,60.5 90.4,60.8 
			90.3,61.2 90.1,61.6 90,62 89.9,62.4 89.1,66.5 89.1,66.5 		"/>
		<polyline class="st8" points="89.1,66.5 89.1,66.5 89.1,66.8 89,67.2 89.1,67.6 89.2,67.9 89.3,68.3 89.5,68.7 89.7,69.1 
			89.9,69.4 90.2,69.7 90.5,70 90.8,70.3 91.2,70.6 91.5,70.8 91.9,71 92.3,71.1 92.7,71.2 92.7,71.2 93.2,71.3 93.7,71.3 
			94.2,71.4 94.8,71.4 95.3,71.4 95.8,71.4 96.3,71.4 96.9,71.4 97.4,71.3 97.9,71.2 98.5,71.1 99,70.9 99.6,70.7 100.2,70.4 
			100.7,70.1 101.3,69.8 100.5,74.7 100.5,74.7 100.2,74.8 99.9,75 99.5,75.1 99.2,75.2 98.9,75.3 98.6,75.4 98.3,75.5 98,75.6 
			97.6,75.6 97.2,75.7 96.8,75.7 96.3,75.7 95.8,75.8 95.3,75.8 94.7,75.8 94,75.8 94,75.8 93.1,75.8 92.1,75.7 91.1,75.5 
			90.1,75.3 89.1,75 88.2,74.6 87.3,74.1 86.4,73.5 85.7,72.9 85,72 84.4,71.1 83.9,70.1 83.6,68.9 83.4,67.6 83.3,66.1 83.4,64.5 
			83.4,64.5 83.5,63.8 83.6,63.1 83.8,62.3 84,61.5 84.3,60.7 84.7,59.8 85.1,58.9 85.7,58.1 86.3,57.3 87.1,56.5 87.9,55.9 
			88.9,55.3 90.1,54.8 91.4,54.4 92.8,54.2 94.4,54.1 94.4,54.1 95.2,54.1 96,54.2 96.8,54.3 97.6,54.5 98.4,54.8 99.2,55.2 
			99.9,55.7 100.6,56.2 101.2,56.9 101.7,57.7 102.1,58.6 102.3,59.7 102.5,60.9 102.5,62.2 102.4,63.7 102.1,65.4 102,66.6 
			87.5,66.6 88.4,62.7 97.1,62.7 97.1,62.7 97.2,62.2 97.1,61.7 97.1,61.3 97,60.9 96.9,60.5 96.7,60.2 96.5,59.9 96.3,59.6 
			96.1,59.3 95.9,59.1 95.6,59 95.3,58.8 94.9,58.7 94.6,58.6 94.3,58.5 93.9,58.5 93.9,58.5 93.5,58.5 93.2,58.6 92.9,58.7 
			92.5,58.8 92.2,58.9 91.9,59.1 91.6,59.3 91.3,59.6 91.1,59.9 90.8,60.2 90.6,60.5 90.4,60.8 90.3,61.2 90.1,61.6 90,62 
			89.9,62.4 89.1,66.5 		"/>
		<polygon class="st7" points="136.5,55.7 136.2,55.6 136,55.5 135.7,55.3 135.4,55.2 135.1,55.1 134.7,54.9 134.4,54.8 134,54.7 
			133.7,54.6 133.3,54.5 132.9,54.4 132.5,54.4 132,54.3 131.5,54.3 131.1,54.3 130.6,54.3 130.1,54.3 129.6,54.3 129,54.4 
			128.5,54.5 127.9,54.7 127.4,54.9 126.8,55.2 126.2,55.5 125.7,55.9 125.2,56.5 124.7,57.1 124.2,57.8 123.8,58.7 123.4,59.7 
			123,60.8 122.7,62.1 122.6,62.8 122.5,63.5 122.4,64.2 122.5,64.9 122.5,65.5 122.7,66.2 122.8,66.8 123,67.4 123.3,67.9 
			123.7,68.4 124.1,68.9 124.6,69.3 125.1,69.6 125.7,69.9 126.4,70.2 127.2,70.4 127.4,70.4 127.7,70.5 128.1,70.5 128.5,70.6 
			128.9,70.6 129.4,70.6 129.9,70.6 130.4,70.6 130.9,70.5 131.4,70.4 131.9,70.3 132.4,70.1 132.9,69.9 133.4,69.6 133.8,69.3 
			134.2,69 133.3,74.3 133.2,74.4 133,74.5 132.9,74.6 132.7,74.7 132.5,74.9 132.2,75 131.9,75.2 131.5,75.3 131.1,75.4 
			130.6,75.5 130,75.6 129.3,75.7 128.5,75.7 127.6,75.8 126.6,75.7 125.5,75.7 124.6,75.6 123.6,75.4 122.7,75.1 121.8,74.7 
			120.9,74.2 120.1,73.6 119.3,72.9 118.6,72.1 117.9,71.2 117.4,70.2 116.9,69.1 116.5,67.9 116.3,66.6 116.2,65.2 116.3,63.6 
			116.5,62 116.6,61.2 116.8,60.4 117,59.6 117.2,58.9 117.4,58.2 117.7,57.5 117.9,56.8 118.2,56.2 118.5,55.6 118.8,55 
			119.2,54.5 119.5,53.9 119.9,53.4 120.3,53 120.7,52.5 121.1,52.1 121.5,51.7 122,51.3 122.5,51 123,50.7 123.5,50.4 124,50.1 
			124.6,49.9 125.2,49.7 125.8,49.5 126.4,49.3 127,49.2 127.7,49.1 128.4,49 129.1,48.9 129.8,48.8 130.6,48.8 131.2,48.8 
			131.8,48.9 132.4,48.9 133,49 133.6,49.1 134.1,49.2 134.6,49.3 135.1,49.4 135.6,49.6 136,49.7 136.3,49.8 136.6,49.9 136.9,50 
			137.2,50.1 137.3,50.2 137.5,50.2 136.5,55.7 136.5,55.7 		"/>
		<polyline class="st8" points="136.5,55.7 136.5,55.7 136.2,55.6 136,55.5 135.7,55.3 135.4,55.2 135.1,55.1 134.7,54.9 
			134.4,54.8 134,54.7 133.7,54.6 133.3,54.5 132.9,54.4 132.5,54.4 132,54.3 131.5,54.3 131.1,54.3 130.6,54.3 130.6,54.3 
			130.1,54.3 129.6,54.3 129,54.4 128.5,54.5 127.9,54.7 127.4,54.9 126.8,55.2 126.2,55.5 125.7,55.9 125.2,56.5 124.7,57.1 
			124.2,57.8 123.8,58.7 123.4,59.7 123,60.8 122.7,62.1 122.7,62.1 122.6,62.8 122.5,63.5 122.4,64.2 122.5,64.9 122.5,65.5 
			122.7,66.2 122.8,66.8 123,67.4 123.3,67.9 123.7,68.4 124.1,68.9 124.6,69.3 125.1,69.6 125.7,69.9 126.4,70.2 127.2,70.4 
			127.2,70.4 127.4,70.4 127.7,70.5 128.1,70.5 128.5,70.6 128.9,70.6 129.4,70.6 129.9,70.6 130.4,70.6 130.9,70.5 131.4,70.4 
			131.9,70.3 132.4,70.1 132.9,69.9 133.4,69.6 133.8,69.3 134.2,69 133.3,74.3 133.3,74.3 133.2,74.4 133,74.5 132.9,74.6 
			132.7,74.7 132.5,74.9 132.2,75 131.9,75.2 131.5,75.3 131.1,75.4 130.6,75.5 130,75.6 129.3,75.7 128.5,75.7 127.6,75.8 
			126.6,75.7 125.5,75.7 125.5,75.7 124.6,75.6 123.6,75.4 122.7,75.1 121.8,74.7 120.9,74.2 120.1,73.6 119.3,72.9 118.6,72.1 
			117.9,71.2 117.4,70.2 116.9,69.1 116.5,67.9 116.3,66.6 116.2,65.2 116.3,63.6 116.5,62 116.5,62 116.6,61.2 116.8,60.4 
			117,59.6 117.2,58.9 117.4,58.2 117.7,57.5 117.9,56.8 118.2,56.2 118.5,55.6 118.8,55 119.2,54.5 119.5,53.9 119.9,53.4 
			120.3,53 120.7,52.5 121.1,52.1 121.5,51.7 122,51.3 122.5,51 123,50.7 123.5,50.4 124,50.1 124.6,49.9 125.2,49.7 125.8,49.5 
			126.4,49.3 127,49.2 127.7,49.1 128.4,49 129.1,48.9 129.8,48.8 130.6,48.8 130.6,48.8 131.2,48.8 131.8,48.9 132.4,48.9 133,49 
			133.6,49.1 134.1,49.2 134.6,49.3 135.1,49.4 135.6,49.6 136,49.7 136.3,49.8 136.6,49.9 136.9,50 137.2,50.1 137.3,50.2 
			137.5,50.2 136.5,55.7 		"/>
		<polygon class="st7" points="185.3,75.8 179.8,75.8 180.2,73.6 180.2,73.4 179.9,73.8 179.6,74.1 179.3,74.5 178.9,74.7 178.5,75 
			178.2,75.2 177.8,75.4 177.4,75.6 177.1,75.7 176.7,75.8 176.3,75.9 175.9,76 175.5,76 175.1,76.1 174.7,76.1 174.4,76.1 
			173.3,76 172.4,75.8 171.5,75.4 170.7,75 170,74.4 169.3,73.7 168.8,73 168.3,72.2 167.9,71.3 167.6,70.3 167.4,69.4 167.2,68.4 
			167.2,67.3 167.2,66.3 167.3,65.3 167.5,64.3 167.8,63.1 168.1,62 168.5,61 169,60 169.5,59.1 170.1,58.3 170.8,57.6 171.4,57 
			172.1,56.4 172.8,55.9 173.6,55.5 174.4,55.1 175.1,54.9 175.9,54.7 176.7,54.6 177.5,54.5 178.1,54.5 178.7,54.6 179.2,54.7 
			179.7,54.8 180.1,55 180.5,55.2 180.9,55.4 181.3,55.6 181.6,55.8 181.9,56.1 182.2,56.4 182.4,56.6 182.6,56.9 182.8,57.1 
			182.9,57.4 183,57.6 183,57.6 184.4,49.8 189.8,49.8 185.3,75.8 185.3,75.8 		"/>
		<polyline class="st8" points="185.3,75.8 179.8,75.8 180.2,73.6 180.2,73.4 180.2,73.4 179.9,73.8 179.6,74.1 179.3,74.5 
			178.9,74.7 178.5,75 178.2,75.2 177.8,75.4 177.4,75.6 177.1,75.7 176.7,75.8 176.3,75.9 175.9,76 175.5,76 175.1,76.1 
			174.7,76.1 174.4,76.1 174.4,76.1 173.3,76 172.4,75.8 171.5,75.4 170.7,75 170,74.4 169.3,73.7 168.8,73 168.3,72.2 167.9,71.3 
			167.6,70.3 167.4,69.4 167.2,68.4 167.2,67.3 167.2,66.3 167.3,65.3 167.5,64.3 167.5,64.3 167.8,63.1 168.1,62 168.5,61 169,60 
			169.5,59.1 170.1,58.3 170.8,57.6 171.4,57 172.1,56.4 172.8,55.9 173.6,55.5 174.4,55.1 175.1,54.9 175.9,54.7 176.7,54.6 
			177.5,54.5 177.5,54.5 178.1,54.5 178.7,54.6 179.2,54.7 179.7,54.8 180.1,55 180.5,55.2 180.9,55.4 181.3,55.6 181.6,55.8 
			181.9,56.1 182.2,56.4 182.4,56.6 182.6,56.9 182.8,57.1 182.9,57.4 183,57.6 183,57.6 184.4,49.8 189.8,49.8 185.3,75.8 		"/>
		<polygon class="st3" points="176.4,71 176.9,70.9 177.4,70.8 177.9,70.7 178.4,70.5 178.8,70.2 179.2,69.9 179.6,69.6 179.9,69.2 
			180.2,68.8 180.5,68.4 180.7,67.9 180.9,67.5 181.1,67 181.3,66.5 181.4,65.9 181.5,65.4 181.6,64.8 181.7,64.2 181.7,63.7 
			181.7,63.2 181.6,62.6 181.5,62.1 181.4,61.7 181.2,61.2 181,60.8 180.8,60.4 180.5,60.1 180.2,59.8 179.9,59.6 179.6,59.4 
			179.2,59.3 178.8,59.3 178.2,59.3 177.7,59.4 177.3,59.6 176.8,59.8 176.4,60 176,60.4 175.7,60.7 175.3,61.1 175,61.5 174.8,62 
			174.5,62.4 174.3,63 174.1,63.5 173.9,64 173.8,64.6 173.7,65.2 173.6,66.1 173.6,67 173.7,68 174,68.9 174.4,69.7 174.9,70.4 
			175.6,70.8 176.4,71 176.4,71 		"/>
		<polygon class="st7" points="54.4,71.4 53.6,75.8 48.6,75.8 48.8,75 48.9,74.2 49,73.7 49,73.4 48.8,73.7 48.4,74 48.1,74.3 
			47.6,74.6 47.2,74.9 46.7,75.1 46.2,75.3 45.6,75.5 45,75.7 44.5,75.9 43.9,76 43.3,76.1 42.7,76.1 42.1,76.1 41.6,76.1 41.1,76 
			40.4,75.8 39.7,75.6 39.2,75.3 38.7,75 38.2,74.7 37.8,74.4 37.5,74 37.2,73.6 37,73.2 36.8,72.7 36.6,72.3 36.5,71.9 36.4,71.4 
			36.4,71 36.4,70.5 36.4,70.1 36.4,69.3 36.5,68.6 36.7,67.9 37,67.2 37.3,66.6 37.7,66 38.1,65.4 38.6,64.9 39.1,64.5 39.6,64.1 
			40.2,63.7 40.8,63.4 41.4,63.1 42.1,62.9 42.7,62.7 43.4,62.6 43.5,62.6 43.6,62.6 43.7,62.5 43.9,62.5 44.2,62.5 44.5,62.5 
			44.7,62.4 45.1,62.4 45.4,62.3 45.8,62.3 46.1,62.3 46.4,62.2 46.8,62.2 47.1,62.2 47.3,62.2 47.5,62.2 48,62.2 48.5,62.2 
			48.9,62.2 49.4,62.2 49.7,62.2 50,62.3 50.2,62.3 50.2,62.3 50.3,62.1 50.4,61.8 50.5,61.4 50.5,61 50.5,60.6 50.3,60.2 50,59.8 
			49.7,59.5 49.4,59.2 48.9,59.1 48.5,58.9 47.9,58.9 47.4,58.9 46.8,58.9 46.2,58.9 45.5,58.9 44.9,58.9 44.3,59 43.6,59 43,59.1 
			42.4,59.2 41.8,59.3 41.3,59.4 40.8,59.5 40.4,59.6 40,59.7 39.8,59.9 39.5,60 41,55.2 41.4,55 41.8,54.9 42.3,54.7 42.8,54.6 
			43.3,54.5 43.8,54.5 44.3,54.4 44.8,54.3 45.4,54.3 46,54.3 46.6,54.3 47.2,54.3 47.8,54.3 48.5,54.3 49.2,54.3 49.9,54.3 
			50.4,54.3 51,54.4 51.6,54.6 52.3,54.8 52.9,55 53.5,55.3 54.1,55.6 54.6,56 55.1,56.4 55.5,56.9 55.9,57.4 56.2,58 56.4,58.7 
			56.6,59.3 56.6,60.1 56.4,60.9 54.4,71.4 54.4,71.4 		"/>
		<polyline class="st8" points="54.4,71.4 53.6,75.8 48.6,75.8 48.6,75.8 48.8,75 48.9,74.2 49,73.7 49,73.4 49,73.4 48.8,73.7 
			48.4,74 48.1,74.3 47.6,74.6 47.2,74.9 46.7,75.1 46.2,75.3 45.6,75.5 45,75.7 44.5,75.9 43.9,76 43.3,76.1 42.7,76.1 42.1,76.1 
			41.6,76.1 41.1,76 41.1,76 40.4,75.8 39.7,75.6 39.2,75.3 38.7,75 38.2,74.7 37.8,74.4 37.5,74 37.2,73.6 37,73.2 36.8,72.7 
			36.6,72.3 36.5,71.9 36.4,71.4 36.4,71 36.4,70.5 36.4,70.1 36.4,70.1 36.4,69.3 36.5,68.6 36.7,67.9 37,67.2 37.3,66.6 37.7,66 
			38.1,65.4 38.6,64.9 39.1,64.5 39.6,64.1 40.2,63.7 40.8,63.4 41.4,63.1 42.1,62.9 42.7,62.7 43.4,62.6 43.4,62.6 43.5,62.6 
			43.6,62.6 43.7,62.5 43.9,62.5 44.2,62.5 44.5,62.5 44.7,62.4 45.1,62.4 45.4,62.3 45.8,62.3 46.1,62.3 46.4,62.2 46.8,62.2 
			47.1,62.2 47.3,62.2 47.5,62.2 47.5,62.2 48,62.2 48.5,62.2 48.9,62.2 49.4,62.2 49.7,62.2 50,62.3 50.2,62.3 50.2,62.3 
			50.2,62.3 50.3,62.1 50.4,61.8 50.5,61.4 50.5,61 50.5,61 50.5,60.6 50.3,60.2 50,59.8 49.7,59.5 49.4,59.2 48.9,59.1 48.5,58.9 
			47.9,58.9 47.9,58.9 47.4,58.9 46.8,58.9 46.2,58.9 45.5,58.9 44.9,58.9 44.3,59 43.6,59 43,59.1 42.4,59.2 41.8,59.3 41.3,59.4 
			40.8,59.5 40.4,59.6 40,59.7 39.8,59.9 39.5,60 41,55.2 41,55.2 41.4,55 41.8,54.9 42.3,54.7 42.8,54.6 43.3,54.5 43.8,54.5 
			44.3,54.4 44.8,54.3 45.4,54.3 46,54.3 46.6,54.3 47.2,54.3 47.8,54.3 48.5,54.3 49.2,54.3 49.9,54.3 49.9,54.3 50.4,54.3 
			51,54.4 51.6,54.6 52.3,54.8 52.9,55 53.5,55.3 54.1,55.6 54.6,56 55.1,56.4 55.5,56.9 55.9,57.4 56.2,58 56.4,58.7 56.6,59.3 
			56.6,60.1 56.4,60.9 54.4,71.4 		"/>
		<polygon class="st6" points="49.7,66.2 49.6,66.1 49.6,66 49.4,65.9 49.2,65.9 49,65.9 48.8,65.8 48.5,65.8 48.2,65.8 47.8,65.9 
			47.5,65.9 47.2,65.9 46.9,66 46.6,66 46.3,66.1 46.1,66.1 45.8,66.2 45.7,66.2 45.5,66.3 45.3,66.4 45.1,66.5 44.8,66.6 
			44.6,66.7 44.3,66.9 44.1,67 43.8,67.2 43.5,67.4 43.3,67.7 43.1,67.9 42.9,68.2 42.7,68.4 42.6,68.8 42.5,69.1 42.5,69.7 
			42.6,70.3 42.8,70.7 43.1,71 43.4,71.2 43.7,71.3 44,71.4 44.4,71.4 44.9,71.4 45.5,71.3 46,71.2 46.5,71.1 46.9,71 47.2,70.8 
			47.6,70.6 47.9,70.4 48.1,70.2 48.4,69.9 48.6,69.7 48.7,69.5 48.9,69.2 49,69 49.1,68.8 49.1,68.6 49.3,68 49.4,67.3 49.6,66.7 
			49.7,66.2 49.7,66.2 		"/>
		<polygon class="st7" points="12.7,75.8 7.3,75.8 11.8,49.7 21.2,49.7 22.1,65.2 28.5,49.7 38.4,49.7 33.7,75.8 28.3,75.8 
			31.8,56.3 31.5,56.3 23.5,75.8 17.4,75.8 17.3,75 17.2,72.8 17,69.7 16.8,66.2 16.6,62.6 16.4,59.5 16.3,57.3 16.3,56.3 
			16.2,56.3 16.1,56.3 16,56.3 16,56.3 12.7,75.8 12.7,75.8 		"/>
		<polyline class="st8" points="12.7,75.8 7.3,75.8 11.8,49.7 21.2,49.7 22.1,65.2 28.5,49.7 38.4,49.7 33.7,75.8 28.3,75.8 
			31.8,56.3 31.5,56.3 23.5,75.8 17.4,75.8 17.4,75.8 17.3,75 17.2,72.8 17,69.7 16.8,66.2 16.6,62.6 16.4,59.5 16.3,57.3 
			16.3,56.3 16.3,56.3 16.2,56.3 16.1,56.3 16,56.3 16,56.3 12.7,75.8 		"/>
		<polygon class="st7" points="153,71.4 152.2,75.8 147.2,75.8 147.2,75 147.2,74.3 147.2,73.7 147.3,73.5 147,73.8 146.7,74.1 
			146.4,74.4 146,74.6 145.5,74.9 145.1,75.1 144.6,75.4 144.1,75.6 143.5,75.7 143,75.9 142.4,76 141.9,76.1 141.3,76.1 
			140.7,76.1 140.2,76.1 139.7,76 139,75.8 138.3,75.6 137.8,75.3 137.2,75 136.8,74.7 136.4,74.4 136.1,74 135.8,73.6 135.6,73.2 
			135.4,72.7 135.3,72.3 135.2,71.9 135.1,71.4 135,71 135,70.5 135,70.1 135,69.3 135.1,68.6 135.3,67.9 135.6,67.2 135.9,66.6 
			136.3,66 136.7,65.4 137.1,64.9 137.6,64.5 138.2,64.1 138.8,63.7 139.4,63.4 140,63.1 140.6,62.9 141.3,62.7 142,62.6 142,62.6 
			142.1,62.6 142.2,62.5 142.4,62.5 142.7,62.5 143,62.5 143.3,62.4 143.6,62.4 143.9,62.3 144.3,62.3 144.6,62.3 145,62.2 
			145.3,62.2 145.6,62.2 145.8,62.2 146.1,62.2 146.5,62.2 147,62.2 147.5,62.2 147.9,62.2 148.3,62.2 148.6,62.3 148.8,62.3 
			148.9,62.3 148.9,62.1 149,61.8 149,61.4 149.1,61 149,60.6 148.8,60.2 148.6,59.8 148.3,59.5 147.9,59.2 147.5,59.1 147.1,58.9 
			146.6,58.9 146,58.9 145.4,58.9 144.8,58.9 144.2,58.9 143.5,58.9 142.9,59 142.2,59 141.6,59.1 141,59.2 140.5,59.3 139.9,59.4 
			139.5,59.5 139,59.6 138.7,59.7 138.4,59.9 138.2,60 139.6,55.2 140,55 140.5,54.9 140.9,54.7 141.4,54.6 141.9,54.5 142.4,54.5 
			142.9,54.4 143.4,54.3 144,54.3 144.6,54.3 145.1,54.3 145.8,54.3 146.4,54.3 147,54.3 147.7,54.3 148.4,54.3 148.9,54.3 
			149.5,54.4 150.1,54.6 150.8,54.8 151.4,55 152,55.3 152.6,55.6 153.1,56 153.6,56.4 154.1,56.9 154.5,57.4 154.8,58 155,58.7 
			155.2,59.3 155.2,60.1 155.1,60.9 153,71.4 153,71.4 		"/>
		<polygon class="st7" points="152.2,75.9 152.3,75.8 153.1,71.4 152.8,71.4 152,75.8 152.2,75.6 152.2,75.9 152.3,75.9 152.3,75.8 
			152.2,75.9 152.2,75.9 		"/>
		<polygon class="st7" points="147.1,75.8 147.2,75.9 152.2,75.9 152.2,75.6 147.2,75.6 147.3,75.8 147.1,75.8 147,75.9 147.2,75.9 
			147.1,75.8 147.1,75.8 		"/>
		<polygon class="st7" points="147.4,73.6 147.2,73.4 147.1,73.7 147.1,74.3 147.1,75 147.1,75.8 147.3,75.8 147.3,75 147.4,74.3 
			147.3,73.7 147.3,73.6 147.2,73.4 147.4,73.6 147.4,73.6 		"/>
		<polygon class="st7" points="139.6,76.1 139.6,76.1 140.2,76.2 140.7,76.2 141.3,76.2 141.9,76.2 142.4,76.1 143,76 143.6,75.8 
			144.1,75.7 144.6,75.5 145.1,75.2 145.6,75 146,74.7 146.4,74.5 146.8,74.2 147.1,73.9 147.4,73.6 147.2,73.4 146.9,73.7 
			146.6,74 146.3,74.3 145.9,74.5 145.5,74.8 145,75 144.5,75.2 144,75.4 143.5,75.6 143,75.8 142.4,75.9 141.9,75.9 141.3,76 
			140.7,76 140.2,75.9 139.7,75.9 139.7,75.9 139.6,76.1 139.6,76.1 		"/>
		<polygon class="st7" points="134.8,70.1 134.8,70.1 134.9,70.5 134.9,71 135,71.4 135,71.9 135.1,72.3 135.3,72.8 135.5,73.2 
			135.7,73.7 136,74.1 136.3,74.5 136.7,74.8 137.2,75.1 137.7,75.5 138.3,75.7 138.9,75.9 139.6,76.1 139.7,75.9 139,75.7 
			138.4,75.5 137.8,75.2 137.3,74.9 136.9,74.6 136.5,74.3 136.2,73.9 135.9,73.5 135.7,73.1 135.5,72.7 135.4,72.3 135.3,71.9 
			135.2,71.4 135.1,71 135.1,70.5 135.1,70.1 135.1,70.1 134.8,70.1 134.8,70.1 		"/>
		<polygon class="st7" points="142,62.5 142,62.5 141.3,62.6 140.6,62.8 139.9,63 139.3,63.3 138.7,63.6 138.1,64 137.6,64.4 
			137,64.9 136.6,65.4 136.2,65.9 135.8,66.5 135.5,67.2 135.2,67.8 135,68.6 134.9,69.3 134.8,70.1 135.1,70.1 135.1,69.3 
			135.3,68.6 135.4,67.9 135.7,67.2 136,66.6 136.4,66.1 136.8,65.5 137.2,65 137.7,64.6 138.3,64.2 138.8,63.8 139.4,63.5 
			140,63.2 140.7,63 141.3,62.8 142,62.7 142,62.7 142,62.5 142,62.5 		"/>
		<polygon class="st7" points="146.1,62 146.1,62 145.8,62 145.6,62.1 145.3,62.1 145,62.1 144.6,62.2 144.3,62.2 143.9,62.2 
			143.6,62.3 143.3,62.3 143,62.3 142.7,62.4 142.4,62.4 142.2,62.4 142.1,62.4 142,62.5 142,62.5 142,62.7 142,62.7 142.1,62.7 
			142.2,62.7 142.4,62.6 142.7,62.6 143,62.6 143.3,62.5 143.6,62.5 143.9,62.5 144.3,62.4 144.6,62.4 145,62.4 145.3,62.3 
			145.6,62.3 145.8,62.3 146.1,62.3 146.1,62.3 146.1,62 146.1,62 		"/>
		<polygon class="st7" points="148.7,62.3 148.9,62.2 148.8,62.2 148.6,62.1 148.3,62.1 147.9,62.1 147.5,62.1 147,62.1 146.5,62 
			146.1,62 146.1,62.3 146.5,62.3 147,62.3 147.5,62.4 147.9,62.4 148.3,62.4 148.6,62.4 148.8,62.4 148.9,62.4 149,62.3 
			148.9,62.4 149,62.4 149,62.3 148.7,62.3 148.7,62.3 		"/>
		<polygon class="st7" points="148.9,61 148.9,61 148.9,61.4 148.8,61.8 148.8,62.1 148.7,62.3 149,62.3 149,62.2 149.1,61.8 
			149.1,61.4 149.2,61 149.2,61 148.9,61 148.9,61 		"/>
		<polygon class="st7" points="146.6,59 146.6,59 147,59.1 147.4,59.2 147.8,59.4 148.2,59.6 148.5,59.9 148.7,60.2 148.9,60.6 
			148.9,61 149.2,61 149.1,60.5 148.9,60.1 148.7,59.7 148.3,59.4 148,59.1 147.5,58.9 147.1,58.8 146.6,58.8 146.6,58.8 146.6,59 
			146.6,59 		"/>
		<polygon class="st7" points="138.1,60 138.3,60.1 138.5,60 138.7,59.9 139.1,59.7 139.5,59.6 140,59.5 140.5,59.4 141.1,59.3 
			141.6,59.2 142.2,59.2 142.9,59.1 143.5,59 144.2,59 144.8,59 145.4,59 146,59 146.6,59 146.6,58.8 146,58.8 145.4,58.7 
			144.8,58.7 144.2,58.8 143.5,58.8 142.9,58.9 142.2,58.9 141.6,59 141,59.1 140.4,59.2 139.9,59.3 139.4,59.4 139,59.5 
			138.6,59.6 138.3,59.8 138.1,59.9 138.3,60 138.1,60 138.1,60 		"/>
		<polygon class="st7" points="139.5,55.1 139.4,55.2 138.1,60 138.3,60 139.7,55.2 139.6,55.3 139.5,55.1 139.5,55.1 139.4,55.2 
			139.5,55.1 139.5,55.1 		"/>
		<polygon class="st7" points="148.4,54.2 148.4,54.2 147.7,54.1 147,54.1 146.4,54.1 145.8,54.1 145.1,54.1 144.6,54.2 144,54.2 
			143.4,54.2 142.9,54.3 142.4,54.3 141.9,54.4 141.4,54.5 140.9,54.6 140.4,54.8 140,54.9 139.5,55.1 139.6,55.3 140,55.2 
			140.5,55 140.9,54.9 141.4,54.8 141.9,54.7 142.4,54.6 142.9,54.5 143.4,54.5 144,54.4 144.6,54.4 145.1,54.4 145.8,54.4 
			146.4,54.4 147,54.4 147.7,54.4 148.4,54.4 148.4,54.4 148.4,54.2 148.4,54.2 		"/>
		<polygon class="st7" points="155.2,60.9 155.2,60.9 155.3,60.1 155.3,59.3 155.1,58.6 154.9,58 154.6,57.4 154.2,56.8 153.7,56.3 
			153.2,55.9 152.7,55.5 152.1,55.2 151.4,54.9 150.8,54.6 150.1,54.5 149.5,54.3 148.9,54.2 148.4,54.2 148.4,54.4 148.9,54.5 
			149.5,54.6 150.1,54.7 150.7,54.9 151.3,55.1 151.9,55.4 152.5,55.7 153.1,56.1 153.6,56.5 154,57 154.4,57.5 154.7,58.1 
			154.9,58.7 155,59.3 155,60.1 154.9,60.9 154.9,60.9 155.2,60.9 155.2,60.9 		"/>
		<polygon class="st7" points="153.1,71.4 153.1,71.4 155.2,60.9 154.9,60.9 152.8,71.4 152.8,71.4 153.1,71.4 153.1,71.4 		"/>
		<polygon class="st3" points="148.2,66.2 148.1,66.1 148,66 147.9,65.9 147.7,65.9 147.5,65.8 147.2,65.8 146.9,65.8 146.6,65.8 
			146.3,65.9 146,65.9 145.7,66 145.4,66 145.1,66.1 144.8,66.1 144.6,66.2 144.4,66.2 144.2,66.2 144.1,66.3 143.9,66.3 
			143.7,66.4 143.4,66.5 143.2,66.6 142.9,66.8 142.6,67 142.4,67.1 142.1,67.4 141.9,67.6 141.7,67.8 141.5,68.1 141.4,68.4 
			141.2,68.7 141.2,69.1 141.2,69.7 141.3,70.3 141.4,70.7 141.7,71 141.9,71.2 142.3,71.3 142.6,71.4 143,71.4 143.6,71.4 
			144.1,71.3 144.6,71.2 145.1,71.1 145.5,70.9 145.9,70.7 146.3,70.5 146.6,70.3 146.9,70.1 147.1,69.8 147.3,69.6 147.5,69.3 
			147.6,69.1 147.7,68.8 147.8,68.6 147.9,68.4 147.9,67.8 148,67.2 148.1,66.7 148.2,66.2 148.2,66.2 		"/>
		<polygon class="st7" points="189.1,73.1 189.1,72.6 189.3,72.1 189.5,71.6 189.9,71.2 190.3,70.8 190.8,70.6 191.3,70.4 
			191.8,70.4 192.4,70.4 192.9,70.6 193.4,70.8 193.8,71.2 194.1,71.6 194.4,72.1 194.6,72.6 194.6,73.1 194,73.1 194,72.7 
			193.9,72.3 193.7,71.9 193.4,71.5 193.1,71.3 192.7,71.1 192.3,70.9 191.8,70.9 191.4,70.9 190.9,71.1 190.6,71.3 190.3,71.5 
			190,71.9 189.8,72.3 189.7,72.7 189.6,73.1 189.1,73.1 189.1,73.1 		"/>
		<polygon class="st7" points="190.8,73.1 190.8,71.9 191.9,71.9 192.2,71.9 192.4,71.9 192.6,72 192.7,72.1 192.8,72.2 192.9,72.3 
			192.9,72.4 192.9,72.6 192.9,72.8 192.9,72.9 192.8,73 192.8,73.1 191.9,73.1 192,73 192.2,73 192.3,73 192.4,72.9 192.5,72.9 
			192.5,72.8 192.5,72.7 192.5,72.6 192.5,72.5 192.5,72.4 192.4,72.4 192.4,72.3 192.3,72.3 192.2,72.3 192.1,72.3 191.9,72.3 
			191.3,72.3 191.3,73.1 190.8,73.1 190.8,73.1 		"/>
		<polygon class="st7" points="189.1,73.1 189,73.2 189.1,73.8 189.3,74.3 189.5,74.8 189.9,75.2 190.3,75.5 190.8,75.8 191.3,75.9 
			191.8,76 192.4,75.9 192.9,75.8 193.4,75.5 193.8,75.2 194.1,74.8 194.4,74.3 194.6,73.8 194.6,73.2 194.6,73.1 194,73.1 
			194,73.2 194,73.7 193.9,74.1 193.7,74.5 193.4,74.8 193.1,75.1 192.7,75.3 192.3,75.4 191.8,75.5 191.4,75.4 190.9,75.3 
			190.6,75.1 190.3,74.8 190,74.5 189.8,74.1 189.7,73.7 189.6,73.2 189.6,73.1 189.1,73.1 189.1,73.1 		"/>
		<polygon class="st7" points="190.8,73.1 190.8,74.3 191.3,74.3 191.3,73.3 191.8,73.3 192.4,74.3 192.8,74.3 192.2,73.3 
			192.4,73.3 192.5,73.2 192.6,73.2 192.7,73.1 192.8,73.1 191.9,73.1 191.8,73.1 191.3,73.1 191.3,73.1 190.8,73.1 190.8,73.1 		
			"/>
		<path class="st8" d="M189,73.2L189,73.2l0.1-0.6l0.2-0.5l0.3-0.5l0.3-0.4l0.4-0.3l0.5-0.2l0.5-0.2l0.6-0.1l0,0l0.6,0.1l0.5,0.2
			l0.5,0.2l0.4,0.3l0.3,0.4l0.3,0.5l0.2,0.5l0.1,0.6l0,0l-0.1,0.6l-0.2,0.5l-0.3,0.5l-0.3,0.4l-0.4,0.3l-0.5,0.3l-0.5,0.2l-0.6,0.1
			l0,0l-0.6-0.1l-0.5-0.2l-0.5-0.3l-0.4-0.3l-0.3-0.4l-0.3-0.5l-0.2-0.5L189,73.2 M191.3,74.3h-0.5v-2.4h1.1l0,0l0.2,0l0.2,0
			l0.2,0.1l0.1,0.1l0.1,0.1l0.1,0.1l0,0.1l0,0.1l0,0l0,0.2l0,0.1l-0.1,0.1l-0.1,0.1l-0.1,0.1l-0.1,0l-0.1,0h-0.1l0.6,1h-0.4l-0.6-1
			h-0.5V74.3 M191.8,73.1L191.8,73.1l0.2,0l0.1,0l0.1,0l0.1,0l0.1-0.1l0-0.1l0-0.1v-0.1l0,0l0-0.1l0-0.1l-0.1,0l-0.1,0l-0.1,0
			l-0.1,0h-0.1h-0.1h-0.6v0.8H191.8 M191.8,75.5L191.8,75.5l0.5,0l0.4-0.1l0.4-0.2l0.3-0.3l0.3-0.3l0.2-0.4l0.1-0.4l0-0.5l0,0l0-0.5
			l-0.1-0.4l-0.2-0.4l-0.3-0.3l-0.3-0.3l-0.4-0.2l-0.4-0.1l-0.5,0l0,0l-0.5,0l-0.4,0.1l-0.4,0.2l-0.3,0.3l-0.3,0.3l-0.2,0.4
			l-0.1,0.4l0,0.5l0,0l0,0.5l0.1,0.4l0.2,0.4l0.3,0.3l0.3,0.3l0.4,0.2l0.4,0.1L191.8,75.5"/>
		<polygon class="st7" points="154.5,75.8 160.1,75.8 160.1,75.8 162.1,64.5 162.1,64 162.3,63.6 162.4,63.2 162.5,62.7 162.7,62.3 
			163,61.9 163.2,61.5 163.6,61.1 163.9,60.8 164.3,60.5 164.8,60.2 165.3,59.9 165.9,59.7 166.5,59.6 167.2,59.4 168,59.4 
			168.2,59.4 168.4,59.4 168.5,59.4 168.5,59.4 169.3,54.3 168.8,54.3 168.3,54.4 167.8,54.5 167.3,54.6 166.8,54.8 166.4,55 
			166,55.2 165.7,55.5 165.3,55.7 165,56 164.6,56.3 164.3,56.6 164,57 163.7,57.4 163.4,57.7 163.2,58.1 163.7,54.5 158.2,54.5 
			154.5,75.8 154.5,75.8 154.5,75.8 		"/>
		<polyline class="st8" points="154.5,75.8 160.1,75.8 160.1,75.8 162.1,64.5 162.1,64.5 162.1,64 162.3,63.6 162.4,63.2 
			162.5,62.7 162.7,62.3 163,61.9 163.2,61.5 163.6,61.1 163.9,60.8 164.3,60.5 164.8,60.2 165.3,59.9 165.9,59.7 166.5,59.6 
			167.2,59.4 168,59.4 168,59.4 168.2,59.4 168.4,59.4 168.5,59.4 168.5,59.4 169.3,54.3 169.3,54.3 168.8,54.3 168.3,54.4 
			167.8,54.5 167.3,54.6 166.8,54.8 166.4,55 166,55.2 165.7,55.5 165.3,55.7 165,56 164.6,56.3 164.3,56.6 164,57 163.7,57.4 
			163.4,57.7 163.2,58.1 163.7,54.5 158.2,54.5 154.5,75.8 154.5,75.8 		"/>
		<polygon class="st7" points="101.9,75.8 107.5,75.8 107.6,75.8 109.5,64.5 109.6,64 109.7,63.6 109.8,63.2 109.9,62.8 110.1,62.4 
			110.3,62 110.5,61.7 110.8,61.3 111.1,61 111.5,60.8 111.9,60.5 112.4,60.3 112.9,60.1 113.5,60 114.2,59.9 115,59.8 115,59.8 
			115.1,59.8 115.2,59.8 115.3,59.8 115.4,59.9 115.5,59.9 115.6,59.9 115.6,59.9 115.6,59.8 115.7,59.6 115.7,59.2 115.8,58.8 
			116,58.3 116.1,57.7 116.3,57.2 116.5,56.6 116.6,56.2 116.8,55.8 117,55.5 117.2,55.1 117.4,54.8 117.6,54.6 117.6,54.5 
			117.7,54.4 117.7,54.4 117.6,54.4 117.5,54.4 117.4,54.3 117.2,54.3 117.1,54.3 116.9,54.3 116.8,54.3 116.2,54.3 115.6,54.4 
			115.1,54.5 114.6,54.6 114.2,54.8 113.7,55 113.4,55.2 113,55.4 112.7,55.7 112.3,56 112.1,56.3 111.8,56.6 111.5,56.9 
			111.2,57.3 110.9,57.7 110.6,58.1 111.3,54.5 105.6,54.5 101.9,75.8 101.9,75.8 101.9,75.8 		"/>
		<polyline class="st8" points="101.9,75.8 107.5,75.8 107.6,75.8 109.5,64.5 109.5,64.5 109.6,64 109.7,63.6 109.8,63.2 
			109.9,62.8 110.1,62.4 110.3,62 110.5,61.7 110.8,61.3 111.1,61 111.5,60.8 111.9,60.5 112.4,60.3 112.9,60.1 113.5,60 
			114.2,59.9 115,59.8 115,59.8 115,59.8 115.1,59.8 115.2,59.8 115.3,59.8 115.4,59.9 115.5,59.9 115.6,59.9 115.6,59.9 
			115.6,59.9 115.6,59.8 115.7,59.6 115.7,59.2 115.8,58.8 116,58.3 116.1,57.7 116.3,57.2 116.5,56.6 116.5,56.6 116.6,56.2 
			116.8,55.8 117,55.5 117.2,55.1 117.4,54.8 117.6,54.6 117.6,54.5 117.7,54.4 117.7,54.4 117.7,54.4 117.6,54.4 117.5,54.4 
			117.4,54.3 117.2,54.3 117.1,54.3 116.9,54.3 116.8,54.3 116.8,54.3 116.2,54.3 115.6,54.4 115.1,54.5 114.6,54.6 114.2,54.8 
			113.7,55 113.4,55.2 113,55.4 112.7,55.7 112.3,56 112.1,56.3 111.8,56.6 111.5,56.9 111.2,57.3 110.9,57.7 110.6,58.1 
			111.3,54.5 105.6,54.5 101.9,75.8 101.9,75.8 		"/>
		<polygon class="st3" points="189.1,96.7 189.1,96.6 189.3,96.1 189.5,95.6 189.9,95.2 190.3,94.9 190.8,94.7 191.3,94.5 
			191.8,94.5 192.4,94.5 192.9,94.7 193.4,94.9 193.8,95.2 194.1,95.6 194.4,96.1 194.6,96.6 194.6,96.7 194,96.7 193.9,96.2 
			193.7,95.9 193.4,95.5 193.1,95.3 192.7,95 192.3,94.9 191.8,94.9 191.4,94.9 190.9,95 190.6,95.3 190.3,95.5 190,95.9 
			189.8,96.2 189.7,96.7 189.1,96.7 189.1,96.7 		"/>
		<polygon class="st3" points="190.8,96.7 190.8,96 191.9,96 192.2,96 192.4,96 192.6,96.1 192.7,96.1 192.8,96.2 192.9,96.3 
			192.9,96.5 192.9,96.7 192.5,96.7 192.5,96.6 192.5,96.5 192.5,96.4 192.4,96.3 192.4,96.3 192.3,96.3 192.2,96.3 192.1,96.3 
			191.9,96.3 191.3,96.3 191.3,96.7 190.8,96.7 190.8,96.7 		"/>
		<polygon class="st3" points="189,97.1 189.1,96.7 189.7,96.7 189.7,96.7 189.6,97.1 189,97.1 189,97.1 		"/>
		<polygon class="st3" points="190.8,97.1 190.8,96.7 191.3,96.7 191.3,97.1 191.8,97.1 192,97 192.2,97 192.3,97 192.4,96.9 
			192.5,96.9 192.5,96.8 192.5,96.7 192.5,96.7 192.9,96.7 192.9,96.7 192.9,96.8 192.9,96.9 192.8,97 192.7,97.1 190.8,97.1 
			190.8,97.1 		"/>
		<polygon class="st3" points="194,97.1 194,96.7 194,96.7 194.6,96.7 194.6,97.1 194,97.1 194,97.1 		"/>
		<polygon class="st3" points="189,97.1 189,97.2 189.1,97.7 189.3,98.3 189.5,98.8 189.9,99.2 190.3,99.5 190.8,99.7 191.3,99.9 
			191.8,100 192.4,99.9 192.9,99.7 193.4,99.5 193.8,99.2 194.1,98.8 194.4,98.3 194.6,97.7 194.6,97.2 194.6,97.1 194,97.1 
			194,97.2 194,97.6 193.9,98.1 193.7,98.5 193.4,98.8 193.1,99.1 192.7,99.3 192.3,99.4 191.8,99.5 191.4,99.4 190.9,99.3 
			190.6,99.1 190.3,98.8 190,98.5 189.8,98.1 189.7,97.6 189.6,97.2 189.6,97.1 189,97.1 189,97.1 		"/>
		<polygon class="st3" points="190.8,97.1 190.8,98.3 191.3,98.3 191.3,97.3 191.8,97.3 192.4,98.3 192.8,98.3 192.2,97.3 
			192.4,97.3 192.5,97.2 192.6,97.2 192.7,97.1 192.7,97.1 190.8,97.1 190.8,97.1 		"/>
		<rect x="86.7" y="62.8" class="st7" width="3.6" height="3.8"/>
	</g>
</g>
</svg>
