<?xml version="1.0" encoding="utf-8"?>
<!-- Generator: Adobe Illustrator 21.0.0, SVG Export Plug-In . SVG Version: 6.00 Build 0)  -->
<svg version="1.1" xmlns="http://www.w3.org/2000/svg" xmlns:xlink="http://www.w3.org/1999/xlink" x="0px" y="0px"
	 viewBox="0 0 200 40.7" style="enable-background:new 0 0 200 40.7;" xml:space="preserve">
<style type="text/css">
	.st0{display:none;}
	.st1{display:inline;fill:#FCEE21;}
	.st2{display:inline;}
	.st3{fill-rule:evenodd;clip-rule:evenodd;fill:#808080;}
	.st4{fill:#808080;}
	.st5{display:inline;fill-rule:evenodd;clip-rule:evenodd;fill:#808080;}
	.st6{fill-rule:evenodd;clip-rule:evenodd;fill:#666666;}
	.st7{fill-rule:evenodd;clip-rule:evenodd;fill:#FFFFFF;}
	.st8{fill:none;stroke:#FFFFFF;stroke-width:0.216;stroke-miterlimit:2.6131;}
	.st9{fill:#FFFFFF;}
	.st10{fill:#303D7D;}
	.st11{fill:#666666;}
</style>
<g id="Capa_7" class="st0">
	<rect x="0" y="-79.7" class="st1" width="200" height="200"/>
</g>
<g id="Capa_1" class="st0">
	<g class="st2">
		<polygon class="st3" points="10.9,15.2 19.7,15.2 19.7,25.6 33.6,25.6 33.6,15.2 42.4,15.2 52.8,34.4 44.1,34.4 39.1,25.2 
			26.7,34.4 14.2,25.2 9.2,34.4 0.5,34.4 		"/>
		<polygon class="st3" points="52.9,15.2 52.9,6.4 0.5,6.4 0.5,15.2 9.2,15.2 10.1,13.4 21.4,13.4 21.4,23.9 31.9,23.9 31.9,13.4 
			43.2,13.4 44.1,15.2 		"/>
		<polygon class="st4" points="190.6,11.7 183.3,19.8 191.3,29.1 184.8,29.1 180.1,23.4 175,29.1 169.2,29.1 177.3,20 170.5,11.7 
			176.2,11.7 180.5,16.6 184.8,11.7 		"/>
		<polygon class="st4" points="155,17.9 165.9,17.9 165.9,21.5 155,21.4 155,25.6 167.9,25.6 167.9,29.1 150.3,29.1 150.3,11.7 
			167.9,11.7 167.9,15.2 155,15.2 		"/>
		<polygon class="st4" points="87,17.9 98,17.9 98,21.5 87,21.4 87,25.6 99.9,25.6 99.9,29.1 82.4,29.1 82.4,11.7 99.9,11.7 
			99.9,15.2 87,15.2 		"/>
		<polygon class="st4" points="122.8,11.7 130.9,11.7 134.9,21.7 138.9,11.7 147.2,11.7 147.2,29.1 142.4,29.1 142.4,15.2 
			136.5,29.1 133.1,29.1 127.4,15.2 127.4,29.1 122.8,29.1 		"/>
		<polygon class="st4" points="61.6,11.7 80.1,11.7 80.1,15.2 73.1,15.2 73.1,29.1 68.5,29.1 68.5,15.2 61.6,15.2 		"/>
		<polygon class="st4" points="103.1,11.7 107.9,11.7 107.9,25.6 120.7,25.6 120.7,29.1 103.1,29.1 		"/>
		<path class="st3" d="M194.7,25.3h1.8c0.3,0,0.5,0,0.7,0.1c0.4,0.2,0.5,0.5,0.5,0.9c0,0.2,0,0.4-0.1,0.6c-0.1,0.1-0.2,0.3-0.4,0.4
			c0.1,0.1,0.3,0.1,0.3,0.2c0.1,0.1,0.1,0.3,0.1,0.5l0,0.5c0,0.1,0,0.3,0,0.3c0,0.1,0.1,0.2,0.2,0.2v0.1h-0.6c0,0,0-0.1,0-0.1
			c0-0.1,0-0.2,0-0.3l0-0.6c0-0.3-0.1-0.4-0.3-0.5c-0.1,0-0.3-0.1-0.5-0.1h-1.2v1.7h-0.5V25.3 M196.4,27.1c0.2,0,0.4-0.1,0.6-0.1
			c0.1-0.1,0.2-0.3,0.2-0.5c0-0.3-0.1-0.5-0.3-0.6c-0.1-0.1-0.2-0.1-0.4-0.1h-1.3v1.3H196.4 M196,24.3c-1.7,0-3.1,1.4-3.1,3.1
			c0,1.7,1.4,3.1,3.1,3.1s3.1-1.4,3.1-3.1C199.1,25.7,197.7,24.3,196,24.3 M196,23.9c1.9,0,3.5,1.6,3.5,3.5c0,1.9-1.6,3.5-3.5,3.5
			c-1.9,0-3.5-1.6-3.5-3.5C192.6,25.5,194.1,23.9,196,23.9z"/>
	</g>
</g>
<g id="Capa_2" class="st0">
	<g class="st2">
		<g>
			<path class="st3" d="M150.9,30.9C150.9,30.9,150.9,30.8,150.9,30.9L150.9,30.9L150.9,30.9L150.9,30.9z M150.9,30.9L150.9,30.9
				C150.9,30.9,150.9,30.9,150.9,30.9L150.9,30.9L150.9,30.9L150.9,30.9z M144.4,23.5L144.4,23.5c0.1,0,0.1,0,0.1,0
				C144.5,23.5,144.5,23.5,144.4,23.5L144.4,23.5L144.4,23.5L144.4,23.5z M136.3,9.1h7.4c3.5,0,4.6,1.9,4.6,3.5
				c0,2.4-2.1,4.5-6.6,4.5h-7L136.3,9.1L136.3,9.1L136.3,9.1z M149.6,31.4l0.1-0.7c0.4-2.6-0.5-4.2-1.2-5.2c-1-1.2-2.5-2-4-2
				c0,0-0.1,0-0.1,0h-11.2l0.3-1.3c0,0,10.9,0,11,0c0,0,0,0,0,0c3.9-0.1,6.4-1.9,7.8-3.5c1.8-2,2.9-4.7,2.9-7.3c0-2-0.7-3.8-1.9-5.1
				c-1.3-1.4-3.3-2.2-5.8-2.2h-16l-8.2,38.2h5.7l3.1-13.8h7.4c1.1,0,4.9-0.5,3.8,4.1c-0.3,1.6-1,5.7,0,9.7c0.8,0,3.7,0,6.6,0
				C148.6,38.9,149,35,149.6,31.4L149.6,31.4L149.6,31.4z M162,10.2c0-8.3-5.3-12.1-14.5-12.1c-10.5,0-21.7,0-21.7,0l-9.7,44.2h5.9
				l8.5-39.4h17c2.8,0,5.1,0.9,6.7,2.6c1.4,1.5,2.2,3.6,2.2,6c0,2.9-1.2,5.9-3.2,8.1c-1.2,1.3-3,2.7-5.7,3.4c0.7,0.4,1.4,1,1.9,1.6
				c0.9,1.2,2,3.2,1.5,6.2l0-0.1c0,0,0,0,0,0.1v0c0,0,0,0,0,0c0,0.1,0,0.3-0.1,0.7c-0.5,3.5-1,7.5,0.3,10.7c2.9,0,5.5,0,5.5,0
				c-0.3-1-1-2.3-0.2-5.6c0.9-3.7,2.2-10.9-2.5-13.4C155.2,22.8,162,19.9,162,10.2L162,10.2L162,10.2z M17.1,38.3
				c8.1,0,13.6-3.6,14.6-9.6c0.7-4.5-3.3-6-7.9-7.2c-0.9-0.2-1.6-0.5-2.6-0.7c-4-1-11.6-3-11.1-9.8c0.6-8.8,10.7-9.5,13.8-9.5
				c4.5,0,7.7,1.5,9.5,4.4c1.4,2.3,1.5,4.9,1.6,6.1V12l5.9,0c0-9-3.9-15.1-15.7-15.1C14.5-3.1,6,1.4,4.4,10.8
				c-2.9,17,20.9,11.7,19.7,18.5c-0.3,2.1-2.2,4-5.7,4c-1.4,0-2.8-0.4-3.8-1.1c-1.1-0.7-2.1-1.9-2-6.6H6.9c-0.1,4.4,0.3,7,1.5,8.7
				C11,38.1,16.1,38.3,17.1,38.3L17.1,38.3L17.1,38.3z M16.7,43.8c11.7,0.1,20.5-4.6,22.1-14.9C41.2,12,16.6,17,17.6,9.8
				C17.8,8.2,19.3,7,22.3,7c1.3,0,2.5,0.3,3.4,0.8c0.9,0.6,1.5,1.5,1.8,4.2l6.1,0v-0.1c-0.1-1-0.2-3.4-1.4-5.4
				c-1.5-2.5-4.4-3.8-8.4-3.8c-2.8,0-12.1,0.6-12.6,8.3c-0.4,5.7,5.9,7.4,10.2,8.5c1,0.3,1.8,0.5,2.7,0.7c3.7,1,9.8,2.6,8.7,8.7
				c-1.1,6.7-7,10.7-15.8,10.7c-1.1,0-6.7-0.2-9.6-4.5c-1.4-1.8-1.9-4.8-1.8-9.4H0.2c-0.1,1-0.2,2.1-0.2,3C0,38,5.3,43.7,16.7,43.8
				L16.7,43.8L16.7,43.8z M95-1.8L69.9,42.4h5.7l24.9-44.2H95L95-1.8L95-1.8z M93.4,23.4l5.5-9.8l1.6,9.8H93.4L93.4,23.4L93.4,23.4z
				 M107.9-1.8H102L77,42.4h5.7l4.2-7.2h15.2l1.3,7.2h5.3l-2.2-12.5H89.8l0.7-1.3h15.9l-3.8-21.6l1-1.8l6.4,37.3h5.4L107.9-1.8
				L107.9-1.8L107.9-1.8z M46.3,36h24.2l1-4.5H52.7l1.4-5.9h17.7l1-4.9H55.2l0.3-1.3H73l1-4.8H56.5l1.4-5.6h18.5l1-4.6h-24L46.3,36
				L46.3,36L46.3,36z M47.2-1.9l-9.8,44.3H69l1.1-5H44.7l7.8-34.1h25.2l1.2-5.2H47.2L47.2-1.9L47.2-1.9z M191.5,6.5
				c-1.6-2.5-4.4-3.8-8.5-3.8c-2.8,0-12.1,0.6-12.6,8.3c-0.4,5.7,6,7.4,10.2,8.5c1,0.3,1.8,0.5,2.7,0.7c3.7,1,9.8,2.6,8.8,8.7
				c-1.1,6.7-7,10.7-15.8,10.7c-1.1,0-6.7-0.2-9.6-4.5c-1.4-1.8-1.9-4.8-1.8-9.4h-5.5c-1.2,11.2,4,18.1,16.5,18.2
				c11.7,0.1,20.6-4.6,22.1-14.9C200.4,12,175.8,17,176.7,9.8c0.2-1.6,1.7-2.8,4.7-2.8c1.4,0,2.6,0.3,3.5,0.8
				c0.9,0.6,1.5,1.5,1.8,4.2l6.1,0v-0.1C192.8,10.9,192.7,8.5,191.5,6.5L191.5,6.5L191.5,6.5z M184.3-3.1c-10.6,0-19.1,4.5-20.7,14
				c-2.9,17,20.8,11.7,19.7,18.5c-0.4,2.1-2.2,4-5.7,4c-1.3,0-2.7-0.4-3.8-1.1c-1-0.7-2.1-1.9-2-6.6h-5.8c-0.1,4.3,0.4,7.1,1.6,8.7
				c2.5,3.8,7.6,4,8.6,4c8.1,0,13.6-3.6,14.6-9.6c0.8-4.5-3.3-6-7.9-7.2c-0.9-0.2-1.6-0.5-2.6-0.7c-4-1-11.5-3-11.1-9.8
				c0.6-8.8,10.7-9.5,13.8-9.5c4.5,0,7.7,1.5,9.5,4.4c1.4,2.3,1.5,4.9,1.5,6.1V12l5.9,0C199.9,3,196.1-3.1,184.3-3.1L184.3-3.1z"/>
		</g>
	</g>
</g>
<g id="Capa_3" class="st0">
	<path class="st5" d="M16.1,11.8c0,0-7.7,3.1-8,4.9c0,0-1.5,2.2,4.3,1.7c0,0,17.3-1.7,17.9,6.1c0,0,0.2,3.1-3.1,5.8
		c0,0-7.6,7.1-21,4.8c0,0-6.1-0.4-5.9-4c0,0,0.9-1.7,3.3,0c0,0,12.3,3.1,18.2-1.8c0,0,2.6-2.5,0.7-3.7c0,0-3.5-1.8-8.1-1.9
		c0,0-13.7,1.6-14.4-4c0,0-1.2-4.8,7.2-9.4c0,0,12.4-6,23.1-5.6c0,0,5.9-1.6,6.3,3.4c0,0-2.1,4.7-9.9,5.1c0,0-7.7,0.3-8.4-1.6
		C18.4,11.7,18.1,11.2,16.1,11.8L16.1,11.8z M25.6,11c0,0,2.2-0.3,1.7-1.9c0,0-2.7-1.3-5.1,0.8C22.1,9.9,21.1,11.6,25.6,11L25.6,11z
		 M51.6,22c0,0,0.7-3-7.7-2c0,0-12.5,2.2-12.3,10.8c0,0,1.3,6.8,8.5,3.6c0,0,4.7-2.5,5.9-3.3c0,0,0.4,5.5,6,4.9c0,0,3.7,0.3,7-4.2
		c0,0,3.4-4.3,4.1-4.1c0,0,1.8-0.2,0.6,1.7c0,0-2.6,4.2,1.1,5c0,0,4,1.4,6.3-2.2c0,0,3.6-5.5,5.7-5.5c0,0,0.8,0.3-0.5,2.2
		c0,0-2,5.5,3.6,5.9c0,0,5.5,0.5,6.4-1.9c0,0,1.1-2.3-1.8-0.8c0,0-3.9,2.3-2.4-1.2c0,0,5.9-7.7,0.2-9.8c0,0-3-1.4-5.2,0.2
		c0,0-3.3,3.5-4.7,3.7c0,0-1.2,0.2-1.4-2.3c0,0-1.2-3.8-5.9-1.5c0,0-3,2.6-8.6,9.3c0,0-5.1,5.2-3.8,0.1c0,0,3.7-5.8-0.2-7.1
		c0,0-2.2-1-5.6,2.4c0,0-6.8,6-8.5,6c0,0-2.1-0.3,0.9-4.2c0,0,3.3-4.4,8.9-4.8C48.2,23.1,51.6,23.1,51.6,22L51.6,22z M98,20.1
		c-1.3,3.6,1.4,0.8,1.4,0.8c6.5-3.4,6.5,3.5,6.5,3.5c1.3,1.7,3.8-0.4,3.8-0.4c1.3-0.8,2.8-2.4,2.8-2.4c4.2-3.8,6.9-0.9,6.9-0.9
		c0.6,1.7,2.2,0.4,2.2,0.4c5.4-1.6,4.3,2.5,4.3,2.5c-1.6,0.4-0.7,2.2-0.7,2.2c0.6,2.2,3.9-1.3,3.9-1.3c1.9-0.5,0.9-3.1,0.9-3.1
		c0.1-2.1,2.7-1.3,2.7-1.3c1.8,1.4,4.3,0.3,4.3,0.3c4.2-0.2,3.8,2,3.8,2c1.6,1.6,0,3.4,0,3.4c-2.9,2.7-3,5.8-3,5.8
		c0.2,3.5,7.2-4.7,7.2-4.7c5.4-7.6,10.1-6.4,10.1-6.4c4.3-0.1,3.1,6.4,3.1,6.4l5.3-4.9c1.9-2.6,4.6-1.8,4.6-1.8
		c5.9,1.5,1.5,8.7,1.5,8.7c-1.2,2.9,1.7,1.8,1.7,1.8c2-2.8,6.7-7.2,6.7-7.2c7.6-6.9,11.3-5.2,11.3-5.2c2.9,0.6,0.4,2.9,0.4,2.9
		c-1.5,2.1-0.4,5.9-0.4,5.9L200,27l-3.1,3.7l-8.9-0.1c-1.5,3.1-5.7,3.1-5.7,3.1c-5.1-0.5-5.6-4.7-5.6-4.7c-0.8-0.1-3.8,3.1-3.8,3.1
		c-2,2.6-7.9,0.6-7.9,0.6c-3.1-0.9-1.1-6-1.1-6c-0.9-0.8-5.7,4.6-5.7,4.6c-2.6,3.9-6,2.3-6,2.3c-4-1.2-1.6-6-1.6-6
		c1.5-2.4,1.1-3,1.1-3c-2.2,1.3-6.1,6.1-6.1,6.1c-8,7.8-13.2,1.8-13.2,1.8c-2.5-3.8,3.3-8.7,3.3-8.7c-1.3-0.9-2.4,0.1-2.4,0.1
		c-3.6,6.5-10.1,5.9-10.1,5.9c-1.8,3.2-6.1,4.5-6.1,4.5c-11.1,2.9-8.5-6.1-8.5-6.1c-2.8,0.8-3.3-0.1-3.3-0.1c-0.2,0.7-2.2,1-2.2,1
		s-4.2,5.7-9,5.8c-4.8,0.1-6.2-2.7-5.5-7.5c0.7-4.7,7-14,7-14c-0.9,0.5-2-0.2-2-0.2c-0.8-1.8,4.8-4.1,4.8-4.1c4.5-2,3,0.9,3,0.9
		L98,20.1L98,20.1z M94.7,26.8c-1.9,5.8,0.3,6.3,0.3,6.3c2.1-0.1,3.8-4,3.8-4c0.5-2.1-1.8-4.7-1.8-4.7
		C95.7,24.1,94.7,26.8,94.7,26.8L94.7,26.8z M115.3,26c-3.1,8.3,0.9,6.4,0.9,6.4c3.2-1.9,3.2-4.3,3.2-4.3c0.1-1.5-1.6-4-1.6-4
		C116.7,23.4,115.3,26,115.3,26L115.3,26z M183.5,22.6c0,0-3.7,1-3.8,4.2c0,0,1.8,0.9,3.3-0.3C183,26.5,183.6,23.6,183.5,22.6
		L183.5,22.6z"/>
</g>
<g id="Capa_4" class="st0">
	<g class="st2">
		<path class="st3" d="M26.5,9.1c-3.1,0-5.8,1.1-8,3.3c-2.2,2.2-3.3,4.9-3.3,8c0,3.2,1.1,5.8,3.3,8c2.2,2.3,4.9,3.4,8,3.4
			c3.1,0,5.8-1.1,8-3.4c2.2-2.2,3.3-4.8,3.3-8c0-3.1-1.1-5.8-3.3-8C32.3,10.2,29.6,9.1,26.5,9.1L26.5,9.1z"/>
		<path class="st3" d="M26.5,7.1V-5.7c-4.6,0-8.9,1.2-12.8,3.4v19.5c0.7-2.9,2.3-5.3,4.6-7.1C20.8,8.1,23.5,7.1,26.5,7.1L26.5,7.1z"
			/>
		<path class="st3" d="M23.8,33.5c-3-0.7-5.4-2.3-7.2-4.7c-2-2.4-2.9-5.1-2.9-8.2H0.5c0,4.6,1.2,8.9,3.5,12.8H23.8L23.8,33.5z"/>
		<path class="st3" d="M39.5,23.7c-0.7,2.9-2.2,5.3-4.6,7.2c-2.4,1.9-5.2,2.9-8.3,2.9v12.6c4.6,0,8.9-1.1,12.8-3.4V23.7L39.5,23.7z"
			/>
		<path class="st3" d="M52.6,20.2c0-4.6-1.2-8.9-3.5-12.8H29.8c3,0.7,5.4,2.3,7.2,4.6c2,2.5,2.9,5.2,2.9,8.3H52.6L52.6,20.2z"/>
		<polygon class="st3" points="58.6,8.1 58.6,23.2 63.1,23.2 63.1,8.1 58.6,8.1 		"/>
		<polygon class="st3" points="87.1,8.1 82.4,8.1 82.4,19 82.4,19 73.6,8.1 66.4,8.1 66.4,23.2 71.1,23.2 71.1,12.2 71.1,12.2 
			79.8,23.2 87.1,23.2 87.1,8.1 		"/>
		<path class="st3" d="M94.8,14.1v-2.4h8.3c0.9,0,1.4,0.4,1.4,1.2c0,0.8-0.5,1.2-1.4,1.2H94.8L94.8,14.1z M94.8,17.2h8.4
			c1.1,0,1.7,0.5,1.7,1.3c0,0.8-0.6,1.1-1.7,1.1h-8.4V17.2L94.8,17.2z M106.8,15.6L106.8,15.6c0.8-0.3,1.3-0.6,1.6-1
			c0.5-0.5,0.7-1.4,0.7-2.6c0-1.4-0.5-2.4-1.4-3.1c-0.9-0.6-2.3-0.8-4.2-0.8H90.1v15.1H105c1.5,0,2.6-0.2,3.3-0.7
			c0.8-0.7,1.3-1.8,1.3-3.3c0-1.2-0.2-2.1-0.6-2.6C108.5,16.1,107.8,15.7,106.8,15.6L106.8,15.6z"/>
		<path class="st3" d="M131.4,8.1h-4.6v8.8c0,0.9-0.3,1.6-0.6,2c-0.4,0.5-1.2,0.7-2.1,0.7h-4.6c-1,0-1.6-0.2-2.1-0.7
			c-0.4-0.4-0.5-1.1-0.5-2V8.1h-4.7v9.7c0,1.9,0.5,3.3,1.5,4.2c1,1,2.6,1.4,4.7,1.4h6.8c2.1,0,3.7-0.4,4.7-1.4
			c1-0.9,1.5-2.3,1.5-4.2V8.1L131.4,8.1z"/>
		<path class="st3" d="M139,15.5v-3.7c2.5,0,4.9,0,7.4,0c1.2,0,2.1,0.2,2.1,1.6c0,0.2,0,0.3,0,0.5c0,1.1-0.6,1.6-1.7,1.6H139
			L139,15.5z M139,19.3h7.4c0.7,0,1.2,0.1,1.5,0.4c0.3,0.3,0.4,0.9,0.4,1.7v1.8h4.7v-2.6c0-1.1-0.2-2-0.7-2.5
			c-0.4-0.4-1-0.7-1.8-0.9c1-0.2,1.7-0.7,2.1-1.3c0.3-0.6,0.5-1.4,0.5-2.5v-0.9c0-1.5-0.3-2.6-0.9-3.3c-0.8-0.9-2-1.2-3.7-1.2h-14.1
			v15.1h4.7V19.3L139,19.3z"/>
		<path class="st3" d="M166,13.8l-4.7-0.2c-0.3,0-0.6-0.2-0.7-0.4c-0.1-0.1-0.2-0.4-0.2-0.7c0-0.8,0.6-1.2,1.8-1.2h5.2
			c1,0,1.7,0.1,2,0.3c0.2,0.2,0.3,0.6,0.3,1.3h4.7v-0.5c0-1.6-0.3-2.7-1-3.3c-0.8-0.9-2.5-1.3-4.9-1.3h-6.6c-2.7,0-4.5,0.5-5.3,1.4
			c-0.6,0.7-0.9,1.9-0.9,3.5c0,1.1,0.1,1.8,0.3,2.4c0.1,0.6,0.5,1,1,1.4c1,0.6,3.1,0.9,6.6,0.9l5.6,0.2c0.4,0,0.7,0.2,0.8,0.4
			l0.2,0.8c0,0.5-0.2,0.9-0.6,1.1l-1.4,0.2h-5.8l-1.5-0.3c-0.3-0.2-0.5-0.7-0.5-1.5h-4.7v1.1c0,1.6,0.5,2.7,1.4,3.3
			c0.8,0.5,2.4,0.8,4.6,0.8h5.7c3.1,0,5.2-0.3,6.1-0.9c0.6-0.3,1-0.8,1.2-1.4c0.2-0.6,0.3-1.5,0.3-2.5c0-1.2-0.1-2-0.4-2.6
			c-0.2-0.7-0.7-1.2-1.3-1.5C172.1,14,169.7,13.8,166,13.8L166,13.8z"/>
		<polygon class="st3" points="190.4,8.1 184.4,8.1 176.1,23.2 181.4,23.2 182.7,20.5 184.5,17.3 187.4,11.6 190.4,17.3 184.5,17.3 
			182.7,20.5 192.2,20.5 193.6,23.2 198.8,23.2 190.4,8.1 		"/>
		<path class="st3" d="M96.7,35.1V34l4.3,0v3.8c-0.7,0.5-1.3,0.9-2,1.2c-0.7,0.3-1.4,0.4-2.2,0.4c-1,0-1.9-0.2-2.7-0.6
			c-0.8-0.4-1.4-1-1.8-1.8c-0.4-0.8-0.6-1.7-0.6-2.7c0-1,0.2-1.9,0.6-2.8c0.4-0.9,1-1.5,1.8-1.9c0.8-0.4,1.7-0.6,2.7-0.6
			c0.7,0,1.4,0.1,2,0.4c0.6,0.2,1.1,0.6,1.4,1c0.3,0.4,0.6,1,0.8,1.7l-1.2,0.3c-0.2-0.5-0.3-0.9-0.6-1.2c-0.2-0.3-0.5-0.5-1-0.7
			c-0.4-0.2-0.9-0.3-1.4-0.3c-0.6,0-1.1,0.1-1.6,0.3c-0.4,0.2-0.8,0.4-1.1,0.7c-0.3,0.3-0.5,0.6-0.6,1c-0.3,0.6-0.4,1.3-0.4,2
			c0,0.9,0.2,1.7,0.5,2.3c0.3,0.6,0.8,1.1,1.4,1.4c0.6,0.3,1.2,0.4,1.9,0.4c0.6,0,1.1-0.1,1.7-0.3c0.6-0.2,1-0.5,1.3-0.7v-1.9H96.7
			L96.7,35.1z"/>
		<path class="st3" d="M102.8,39.1v-7.3h1.1v1.1c0.3-0.5,0.5-0.9,0.8-1c0.2-0.2,0.5-0.2,0.8-0.2c0.4,0,0.8,0.1,1.3,0.4l-0.4,1.2
			c-0.3-0.2-0.6-0.3-0.9-0.3c-0.3,0-0.5,0.1-0.7,0.2c-0.2,0.2-0.4,0.4-0.5,0.7c-0.1,0.4-0.2,0.9-0.2,1.4v3.8H102.8L102.8,39.1z"/>
		<path class="st3" d="M112.3,39.1V38c-0.6,0.8-1.3,1.2-2.3,1.2c-0.4,0-0.8-0.1-1.2-0.2c-0.4-0.2-0.7-0.4-0.8-0.6
			c-0.2-0.3-0.3-0.6-0.4-0.9c0-0.2-0.1-0.6-0.1-1.2v-4.5h1.2v4.1c0,0.7,0,1.1,0.1,1.3c0.1,0.3,0.2,0.6,0.5,0.8
			c0.3,0.2,0.6,0.3,0.9,0.3c0.4,0,0.7-0.1,1-0.3c0.3-0.2,0.6-0.5,0.7-0.8c0.1-0.3,0.2-0.8,0.2-1.4v-3.9h1.2v7.3H112.3L112.3,39.1z"
			/>
		<path class="st3" d="M115.4,41.9V31.8h1.1v1c0.3-0.4,0.6-0.7,0.9-0.8c0.3-0.2,0.7-0.3,1.2-0.3c0.6,0,1.2,0.2,1.7,0.5
			c0.5,0.3,0.8,0.8,1.1,1.4c0.2,0.6,0.4,1.2,0.4,1.9c0,0.7-0.1,1.4-0.4,2c-0.3,0.6-0.7,1.1-1.2,1.4c-0.5,0.3-1.1,0.5-1.6,0.5
			c-0.4,0-0.8-0.1-1.1-0.3c-0.3-0.2-0.6-0.4-0.8-0.7v3.6H115.4L115.4,41.9z M116.5,35.5c0,0.9,0.2,1.6,0.6,2.1
			c0.4,0.5,0.8,0.7,1.4,0.7c0.6,0,1-0.2,1.4-0.7c0.4-0.5,0.6-1.2,0.6-2.2c0-0.9-0.2-1.6-0.6-2.1c-0.4-0.5-0.8-0.7-1.4-0.7
			c-0.5,0-1,0.2-1.4,0.7C116.7,33.8,116.5,34.5,116.5,35.5L116.5,35.5z"/>
		<path class="st3" d="M122.8,35.4c0-1.4,0.4-2.4,1.1-3c0.6-0.5,1.4-0.8,2.3-0.8c1,0,1.8,0.3,2.5,1c0.6,0.7,1,1.6,1,2.7
			c0,0.9-0.1,1.7-0.4,2.2c-0.3,0.5-0.7,1-1.2,1.3c-0.5,0.3-1.1,0.4-1.8,0.4c-1,0-1.9-0.3-2.5-1C123.1,37.6,122.8,36.7,122.8,35.4
			L122.8,35.4z M124,35.4c0,0.9,0.2,1.6,0.6,2.1c0.4,0.5,0.9,0.7,1.5,0.7c0.6,0,1.1-0.2,1.5-0.7c0.4-0.5,0.6-1.2,0.6-2.1
			c0-0.9-0.2-1.6-0.6-2.1c-0.4-0.5-0.9-0.7-1.5-0.7c-0.6,0-1.1,0.2-1.5,0.7C124.2,33.8,124,34.5,124,35.4L124,35.4z"/>
		<polygon class="st3" points="135.2,39.1 135.2,29 142.1,29 142.1,30.2 136.6,30.2 136.6,33.3 141.3,33.3 141.3,34.5 136.6,34.5 
			136.6,39.1 135.2,39.1 		"/>
		<path class="st3" d="M143.6,30.4V29h1.2v1.4H143.6L143.6,30.4z M143.6,39.1v-7.3h1.2v7.3H143.6L143.6,39.1z"/>
		<path class="st3" d="M146.8,39.1v-7.3h1.1v1c0.5-0.8,1.3-1.2,2.3-1.2c0.4,0,0.8,0.1,1.2,0.2c0.4,0.2,0.6,0.4,0.8,0.6
			c0.2,0.3,0.3,0.6,0.4,0.9c0,0.2,0.1,0.6,0.1,1.2v4.5h-1.2v-4.5c0-0.5,0-0.9-0.1-1.1c-0.1-0.2-0.3-0.4-0.5-0.6
			c-0.2-0.2-0.5-0.2-0.9-0.2c-0.5,0-1,0.2-1.4,0.5c-0.4,0.3-0.6,1-0.6,1.9v4H146.8L146.8,39.1z"/>
		<path class="st3" d="M159.4,38.2c-0.5,0.4-0.9,0.7-1.3,0.8c-0.4,0.2-0.9,0.2-1.4,0.2c-0.8,0-1.4-0.2-1.9-0.6
			c-0.4-0.4-0.6-0.9-0.6-1.5c0-0.4,0.1-0.7,0.2-1c0.2-0.3,0.4-0.5,0.6-0.7c0.3-0.2,0.6-0.3,0.9-0.4c0.2-0.1,0.6-0.1,1.1-0.2
			c1-0.1,1.7-0.3,2.2-0.4c0-0.2,0-0.3,0-0.3c0-0.5-0.1-0.9-0.4-1.1c-0.3-0.3-0.8-0.4-1.4-0.4c-0.6,0-1,0.1-1.3,0.3
			c-0.3,0.2-0.5,0.6-0.6,1.1l-1.2-0.2c0.1-0.5,0.3-0.9,0.5-1.3c0.3-0.3,0.6-0.6,1.1-0.7c0.5-0.2,1-0.3,1.7-0.3
			c0.6,0,1.1,0.1,1.5,0.2c0.4,0.1,0.7,0.3,0.9,0.6c0.2,0.2,0.3,0.5,0.4,0.8c0,0.2,0.1,0.6,0.1,1.1V36c0,1.2,0,1.9,0.1,2.2
			c0.1,0.3,0.2,0.6,0.3,0.9h-1.3C159.5,38.9,159.4,38.6,159.4,38.2L159.4,38.2z M159.3,35.4c-0.5,0.2-1.1,0.3-2,0.5
			c-0.5,0.1-0.9,0.2-1.1,0.2c-0.2,0.1-0.4,0.2-0.5,0.4c-0.1,0.2-0.2,0.4-0.2,0.6c0,0.3,0.1,0.6,0.4,0.8c0.2,0.2,0.6,0.3,1.1,0.3
			c0.5,0,0.9-0.1,1.3-0.3c0.4-0.2,0.6-0.5,0.8-0.9c0.1-0.3,0.2-0.7,0.2-1.2V35.4L159.3,35.4z"/>
		<path class="st3" d="M162.5,39.1v-7.3h1.1v1c0.5-0.8,1.3-1.2,2.3-1.2c0.4,0,0.8,0.1,1.2,0.2c0.4,0.2,0.6,0.4,0.8,0.6
			c0.2,0.3,0.3,0.6,0.4,0.9c0,0.2,0.1,0.6,0.1,1.2v4.5h-1.2v-4.5c0-0.5,0-0.9-0.1-1.1c-0.1-0.2-0.3-0.4-0.5-0.6
			c-0.2-0.2-0.5-0.2-0.9-0.2c-0.5,0-1,0.2-1.4,0.5c-0.4,0.3-0.6,1-0.6,1.9v4H162.5L162.5,39.1z"/>
		<path class="st3" d="M175.1,36.4l1.2,0.2c-0.1,0.8-0.5,1.5-1,2c-0.5,0.5-1.2,0.7-2,0.7c-1,0-1.8-0.3-2.4-1
			c-0.6-0.7-0.9-1.6-0.9-2.8c0-0.8,0.1-1.5,0.4-2.1c0.3-0.6,0.7-1,1.2-1.3c0.5-0.3,1.1-0.4,1.7-0.4c0.8,0,1.4,0.2,2,0.6
			c0.5,0.4,0.8,1,1,1.7l-1.2,0.2c-0.1-0.5-0.3-0.9-0.6-1.1c-0.3-0.2-0.6-0.4-1.1-0.4c-0.6,0-1.1,0.2-1.5,0.7
			c-0.4,0.4-0.6,1.2-0.6,2.1c0,1,0.2,1.7,0.6,2.1c0.4,0.4,0.9,0.7,1.5,0.7c0.5,0,0.9-0.2,1.2-0.4C174.8,37.5,175,37,175.1,36.4
			L175.1,36.4z"/>
		<path class="st3" d="M177.4,30.4V29h1.2v1.4H177.4L177.4,30.4z M177.4,39.1v-7.3h1.2v7.3H177.4L177.4,39.1z"/>
		<path class="st3" d="M185.6,36.7l1.3,0.2c-0.2,0.8-0.6,1.3-1.1,1.7c-0.5,0.4-1.2,0.6-2.1,0.6c-1.1,0-1.9-0.3-2.5-1
			c-0.6-0.7-0.9-1.6-0.9-2.8c0-1.2,0.3-2.2,1-2.9c0.6-0.7,1.5-1,2.5-1c1,0,1.8,0.3,2.4,1c0.6,0.7,0.9,1.6,0.9,2.8c0,0.1,0,0.2,0,0.3
			h-5.5c0,0.8,0.3,1.4,0.7,1.8c0.4,0.4,0.9,0.6,1.5,0.6c0.5,0,0.8-0.1,1.2-0.4C185.1,37.7,185.4,37.3,185.6,36.7L185.6,36.7z
			 M181.5,34.7h4.1c-0.1-0.6-0.2-1.1-0.5-1.4c-0.4-0.5-0.9-0.7-1.5-0.7c-0.6,0-1.1,0.2-1.4,0.6C181.7,33.6,181.5,34.1,181.5,34.7
			L181.5,34.7z"/>
		<path class="st3" d="M188.4,39.1v-7.3h1.1v1.1c0.3-0.5,0.5-0.9,0.8-1c0.2-0.2,0.5-0.2,0.8-0.2c0.4,0,0.8,0.1,1.3,0.4l-0.4,1.2
			c-0.3-0.2-0.6-0.3-0.9-0.3c-0.3,0-0.5,0.1-0.7,0.2c-0.2,0.2-0.4,0.4-0.5,0.7c-0.1,0.4-0.2,0.9-0.2,1.4v3.8H188.4L188.4,39.1z"/>
		<path class="st3" d="M192.7,35.4c0-1.4,0.4-2.4,1.1-3c0.6-0.5,1.4-0.8,2.3-0.8c1,0,1.8,0.3,2.5,1c0.6,0.7,1,1.6,1,2.7
			c0,0.9-0.1,1.7-0.4,2.2c-0.3,0.5-0.7,1-1.2,1.3c-0.5,0.3-1.1,0.4-1.8,0.4c-1,0-1.9-0.3-2.5-1C193,37.6,192.7,36.7,192.7,35.4
			L192.7,35.4z M193.9,35.4c0,0.9,0.2,1.6,0.6,2.1c0.4,0.5,0.9,0.7,1.5,0.7c0.6,0,1.1-0.2,1.5-0.7c0.4-0.5,0.6-1.2,0.6-2.1
			c0-0.9-0.2-1.6-0.6-2.1c-0.4-0.5-0.9-0.7-1.5-0.7c-0.6,0-1.1,0.2-1.5,0.7C194.1,33.8,193.9,34.5,193.9,35.4L193.9,35.4z"/>
	</g>
</g>
<g id="Capa_5" class="st0">
	<g class="st2">
		<path class="st4" d="M130.8-12c-16,0-27.3,8.5-27.4,20.7c-0.1,9,8,14.1,14.2,17.1c6.3,3.1,8.4,5,8.4,7.8c-0.1,4.2-5.1,6.1-9.7,6.1
			c-6.5,0-9.9-0.9-15.2-3.3l-2.1-1l-2.3,14c3.8,1.7,10.8,3.3,18.1,3.3c17,0,28.1-8.4,28.2-21.4c0.1-7.2-4.3-12.6-13.6-17
			c-5.6-2.9-9.1-4.8-9.1-7.8c0-2.6,2.9-5.4,9.3-5.4c5.3-0.1,9.1,1.1,12.1,2.4l1.4,0.7l2.2-13.6C142.1-10.7,137.1-12,130.8-12
			L130.8-12z M80.5-10.9L70.4,51.8h16.2l10.1-62.7L80.5-10.9L80.5-10.9z M56.8-10.9L41,31.9l-1.7-8.7C35.3,12.5,26.8,1.4,16.8-3.2
			l14.5,54.9l17.1,0L74-10.9L56.8-10.9L56.8-10.9z M174.4-10.9c-3.9,0-6.8,1.1-8.5,5.2l-24,57.5h17c0,0,2.8-7.7,3.4-9.4
			c1.9,0,18.4,0,20.7,0c0.5,2.2,2,9.4,2,9.4h15l-13.1-62.7L174.4-10.9L174.4-10.9z M175.5,6l1.1,5.4c0,0,3.1,15,3.8,18.1h-13.4
			c1.3-3.6,6.5-17.5,6.5-17.5C173.3,12.2,174.7,8.4,175.5,6L175.5,6z"/>
		<path class="st4" d="M26.3-10.9H0.2L0-9.8c20.3,5.2,33.7,17.9,39.3,33L33.6-5.6C32.6-9.6,29.8-10.8,26.3-10.9"/>
	</g>
</g>
<g id="Capa_6" class="st0">
	<g class="st2">
		<polygon class="st3" points="139.4,79.2 142.4,79.1 145.4,78.9 148.3,78.5 151.3,78 154.1,77.3 156.9,76.5 159.6,75.6 162.3,74.6 
			164.9,73.4 167.5,72.1 169.9,70.7 172.3,69.1 174.6,67.5 176.9,65.7 179,63.9 181.1,61.9 183,59.9 184.9,57.7 186.6,55.5 
			188.3,53.2 189.8,50.8 191.2,48.3 192.5,45.8 193.7,43.2 194.8,40.5 195.7,37.8 196.5,35 197.1,32.1 197.7,29.2 198,26.3 
			198.3,23.3 198.3,20.2 198.3,17.2 198,14.2 197.7,11.3 197.1,8.4 196.5,5.6 195.7,2.8 194.8,0.1 193.7,-2.6 192.5,-5.2 
			191.2,-7.7 189.8,-10.2 188.3,-12.6 186.6,-14.9 184.9,-17.1 183,-19.2 181.1,-21.3 179,-23.2 176.9,-25.1 174.6,-26.8 
			172.3,-28.5 169.9,-30 167.5,-31.4 164.9,-32.7 162.3,-33.9 159.6,-34.9 156.9,-35.9 154.1,-36.7 151.3,-37.3 148.3,-37.8 
			145.4,-38.2 142.4,-38.4 139.4,-38.5 136.4,-38.4 133.4,-38.2 130.4,-37.8 127.5,-37.3 124.7,-36.7 121.9,-35.9 119.2,-34.9 
			116.5,-33.9 113.9,-32.7 111.4,-31.4 108.9,-30 106.5,-28.5 104.2,-26.8 102,-25.1 99.9,-23.2 97.8,-21.3 95.9,-19.2 94,-17.1 
			92.3,-14.9 90.6,-12.6 89.1,-10.2 87.7,-7.7 86.4,-5.2 85.2,-2.6 84.2,0.1 83.3,2.8 82.5,5.6 81.8,8.4 81.3,11.3 80.9,14.2 
			80.7,17.2 80.6,20.2 80.7,23.3 80.9,26.3 81.3,29.2 81.8,32.1 82.5,35 83.3,37.8 84.2,40.5 85.2,43.2 86.4,45.8 87.7,48.3 
			89.1,50.8 90.6,53.2 92.3,55.5 94,57.7 95.9,59.9 97.8,61.9 99.9,63.9 102,65.7 104.2,67.5 106.5,69.1 108.9,70.7 111.4,72.1 
			113.9,73.4 116.5,74.6 119.2,75.6 121.9,76.5 124.7,77.3 127.5,78 130.4,78.5 133.4,78.9 136.4,79.1 139.4,79.2 139.4,79.2 		"/>
		<polygon class="st6" points="60.6,79.2 63.6,79.1 66.6,78.9 69.6,78.5 72.5,78 75.3,77.3 78.1,76.5 80.8,75.6 83.5,74.6 
			86.1,73.4 88.6,72.1 91.1,70.7 93.5,69.1 95.8,67.5 98,65.7 100.1,63.9 102.2,61.9 104.1,59.9 106,57.7 107.7,55.5 109.4,53.2 
			110.9,50.8 112.3,48.3 113.6,45.8 114.8,43.2 115.8,40.5 116.7,37.8 117.5,35 118.2,32.1 118.7,29.2 119.1,26.3 119.3,23.3 
			119.4,20.2 119.3,17.2 119.1,14.2 118.7,11.3 118.2,8.4 117.5,5.6 116.7,2.8 115.8,0.1 114.8,-2.6 113.6,-5.2 112.3,-7.7 
			110.9,-10.2 109.4,-12.6 107.7,-14.9 106,-17.1 104.1,-19.2 102.2,-21.3 100.1,-23.2 98,-25.1 95.8,-26.8 93.5,-28.5 91.1,-30 
			88.6,-31.4 86.1,-32.7 83.5,-33.9 80.8,-34.9 78.1,-35.9 75.3,-36.7 72.5,-37.3 69.6,-37.8 66.6,-38.2 63.6,-38.4 60.6,-38.5 
			57.6,-38.4 54.6,-38.2 51.7,-37.8 48.7,-37.3 45.9,-36.7 43.1,-35.9 40.4,-34.9 37.7,-33.9 35.1,-32.7 32.5,-31.4 30.1,-30 
			27.7,-28.5 25.4,-26.8 23.1,-25.1 21,-23.2 18.9,-21.3 17,-19.2 15.1,-17.1 13.4,-14.9 11.7,-12.6 10.2,-10.2 8.8,-7.7 7.5,-5.2 
			6.3,-2.6 5.2,0.1 4.3,2.8 3.5,5.6 2.9,8.4 2.3,11.3 2,14.2 1.7,17.2 1.7,20.2 1.7,23.3 2,26.3 2.3,29.2 2.9,32.1 3.5,35 4.3,37.8 
			5.2,40.5 6.3,43.2 7.5,45.8 8.8,48.3 10.2,50.8 11.7,53.2 13.4,55.5 15.1,57.7 17,59.9 18.9,61.9 21,63.9 23.1,65.7 25.4,67.5 
			27.7,69.1 30.1,70.7 32.5,72.1 35.1,73.4 37.7,74.6 40.4,75.6 43.1,76.5 45.9,77.3 48.7,78 51.7,78.5 54.6,78.9 57.6,79.1 
			60.6,79.2 60.6,79.2 		"/>
		<polygon class="st3" points="93.1,-15.9 124.4,-15.9 124.4,-19.1 95.8,-19.1 93.1,-15.9 93.1,-15.9 		"/>
		<polygon class="st3" points="88.4,-8.8 124.4,-8.8 124.4,-12 90.3,-12 88.4,-8.8 88.4,-8.8 		"/>
		<polygon class="st3" points="84.9,-1.8 124.4,-1.8 124.4,-4.9 86.3,-4.9 84.9,-1.8 84.9,-1.8 		"/>
		<polygon class="st3" points="82.5,5.4 124.4,5.4 124.4,2.2 83.5,2.2 82.5,5.4 82.5,5.4 		"/>
		<polygon class="st3" points="83.9,39.7 124.5,39.7 124.5,36.5 82.9,36.5 83.9,39.7 83.9,39.7 		"/>
		<polygon class="st3" points="86.9,46.8 124.5,46.8 124.5,43.6 85.4,43.6 86.9,46.8 86.9,46.8 		"/>
		<polygon class="st3" points="91.1,53.9 124.5,53.9 124.5,50.7 89.1,50.7 91.1,53.9 91.1,53.9 		"/>
		<polygon class="st3" points="96.9,61 124.5,61 124.5,57.8 94.1,57.8 96.9,61 96.9,61 		"/>
		<polygon class="st3" points="81.1,12.4 124.4,12.4 124.4,9.2 81.7,9.2 81.1,12.4 81.1,12.4 		"/>
		<polygon class="st3" points="107.5,32.6 124,32.6 124,29.4 108.1,29.4 107.5,32.6 107.5,32.6 		"/>
		<polygon class="st3" points="108.8,25.5 124,25.5 124,22.3 109.4,22.3 108.8,25.5 108.8,25.5 		"/>
		<polygon class="st3" points="80,22.3 84.3,22.3 84.3,25.5 80.2,25.5 80,22.3 80,22.3 		"/>
		<polygon class="st7" points="72,18.4 71.7,18.4 71.5,18.4 71.2,18.3 71,18.3 70.7,18.3 70.5,18.2 70.2,18.2 69.9,18.1 69.6,18.1 
			69.3,18.1 69,18.1 68.6,18 68.2,18 67.7,18.1 67.2,18.1 66.6,18.1 66.2,18.2 65.9,18.3 65.5,18.4 65.2,18.5 64.9,18.6 64.7,18.8 
			64.5,19 64.3,19.2 64.2,19.4 64.1,19.6 64,19.8 64,20.1 64.1,20.3 64.2,20.6 64.3,20.9 64.5,21.1 64.9,21.5 65.4,21.8 66,22.1 
			66.6,22.3 67.2,22.5 67.9,22.7 68.5,22.9 69.1,23.2 69.7,23.5 70.3,23.9 70.8,24.4 71.2,25 71.5,25.8 71.7,26.7 71.8,27.8 
			71.7,29 71.6,30 71.4,30.8 71,31.5 70.6,32.2 70.2,32.8 69.7,33.2 69.1,33.7 68.5,34.1 67.9,34.4 67.2,34.6 66.5,34.8 65.8,35 
			65.2,35.1 64.5,35.2 63.8,35.2 63.2,35.2 62.4,35.2 61.6,35.2 60.9,35.2 60.2,35.2 59.6,35.2 59.1,35.1 58.6,35.1 58.2,35 
			57.8,35 57.4,34.9 57,34.8 56.7,34.7 56.3,34.7 56,34.5 55.7,34.4 55.3,34.3 56.2,29.9 56.4,30 56.6,30 56.9,30.1 57.3,30.2 
			57.6,30.3 58,30.3 58.4,30.4 58.9,30.5 59.4,30.6 59.9,30.7 60.5,30.7 61,30.8 61.6,30.8 62.2,30.8 62.8,30.8 63.3,30.8 
			63.9,30.7 64.4,30.5 64.7,30.3 65,30 65.2,29.8 65.4,29.4 65.5,29.1 65.5,28.8 65.6,28.2 65.4,27.7 65.1,27.4 64.6,27 64,26.7 
			63.3,26.4 62.5,26.1 61.7,25.8 60.9,25.5 60.2,25 59.5,24.5 58.8,23.9 58.3,23.2 58,22.3 57.8,21.2 57.8,19.9 57.9,19.2 
			58.1,18.4 58.3,17.7 58.5,17.1 58.8,16.5 59.2,16 59.6,15.5 60.1,15.1 60.7,14.7 61.3,14.4 62,14.1 62.8,13.9 63.7,13.7 
			64.7,13.5 65.8,13.5 66.9,13.4 67.7,13.4 68.3,13.5 68.9,13.5 69.5,13.5 70,13.5 70.5,13.6 70.9,13.6 71.2,13.7 71.6,13.7 
			71.8,13.8 72.1,13.8 72.3,13.8 72.5,13.9 72.7,13.9 72.9,13.9 73,14 72,18.4 72,18.4 		"/>
		<polyline class="st8" points="72,18.4 72,18.4 71.7,18.4 71.5,18.4 71.2,18.3 71,18.3 70.7,18.3 70.5,18.2 70.2,18.2 69.9,18.1 
			69.6,18.1 69.3,18.1 69,18.1 68.6,18 68.2,18 67.7,18.1 67.2,18.1 66.6,18.1 66.6,18.1 66.2,18.2 65.9,18.3 65.5,18.4 65.2,18.5 
			64.9,18.6 64.7,18.8 64.5,19 64.3,19.2 64.2,19.4 64.1,19.6 64,19.8 64,20.1 64.1,20.3 64.2,20.6 64.3,20.9 64.5,21.1 64.5,21.1 
			64.9,21.5 65.4,21.8 66,22.1 66.6,22.3 67.2,22.5 67.9,22.7 68.5,22.9 69.1,23.2 69.7,23.5 70.3,23.9 70.8,24.4 71.2,25 
			71.5,25.8 71.7,26.7 71.8,27.8 71.7,29 71.7,29 71.6,30 71.4,30.8 71,31.5 70.6,32.2 70.2,32.8 69.7,33.2 69.1,33.7 68.5,34.1 
			67.9,34.4 67.2,34.6 66.5,34.8 65.8,35 65.2,35.1 64.5,35.2 63.8,35.2 63.2,35.2 63.2,35.2 62.4,35.2 61.6,35.2 60.9,35.2 
			60.2,35.2 59.6,35.2 59.1,35.1 58.6,35.1 58.2,35 57.8,35 57.4,34.9 57,34.8 56.7,34.7 56.3,34.7 56,34.5 55.7,34.4 55.3,34.3 
			56.2,29.9 56.2,29.9 56.4,30 56.6,30 56.9,30.1 57.3,30.2 57.6,30.3 58,30.3 58.4,30.4 58.9,30.5 59.4,30.6 59.9,30.7 60.5,30.7 
			61,30.8 61.6,30.8 62.2,30.8 62.8,30.8 63.3,30.8 63.3,30.8 63.9,30.7 64.4,30.5 64.7,30.3 65,30 65.2,29.8 65.4,29.4 65.5,29.1 
			65.5,28.8 65.5,28.8 65.6,28.2 65.4,27.7 65.1,27.4 64.6,27 64,26.7 63.3,26.4 62.5,26.1 61.7,25.8 60.9,25.5 60.2,25 59.5,24.5 
			58.8,23.9 58.3,23.2 58,22.3 57.8,21.2 57.8,19.9 57.8,19.9 57.9,19.2 58.1,18.4 58.3,17.7 58.5,17.1 58.8,16.5 59.2,16 
			59.6,15.5 60.1,15.1 60.7,14.7 61.3,14.4 62,14.1 62.8,13.9 63.7,13.7 64.7,13.5 65.8,13.5 66.9,13.4 66.9,13.4 67.7,13.4 
			68.3,13.5 68.9,13.5 69.5,13.5 70,13.5 70.5,13.6 70.9,13.6 71.2,13.7 71.6,13.7 71.8,13.8 72.1,13.8 72.3,13.8 72.5,13.9 
			72.7,13.9 72.9,13.9 73,14 72,18.4 		"/>
		<polygon class="st7" points="76.7,9 82.2,9 81.4,13.9 84.7,13.9 84,18.3 80.5,18.2 78.6,29.3 78.6,29.7 78.7,30.1 78.9,30.3 
			79.2,30.5 79.5,30.7 79.9,30.8 80.3,30.9 80.8,30.9 81.3,30.9 81.7,30.8 82,30.8 82.3,30.7 82.6,30.6 82.8,30.6 82.9,30.5 
			82.9,30.5 82.2,34.2 82.1,34.3 82,34.4 81.8,34.5 81.7,34.5 81.5,34.6 81.4,34.7 81.2,34.7 81,34.8 80.8,34.8 80.6,34.9 
			80.4,34.9 80.1,35 79.9,35 79.6,35 79.3,35.1 78.9,35.1 77.4,35.1 76.6,35.1 75.9,35 75.3,34.9 74.8,34.7 74.3,34.5 73.9,34.3 
			73.6,34.1 73.3,33.8 73.1,33.6 73,33.2 72.9,32.9 72.8,32.5 72.8,32.1 72.8,31.7 72.9,31.2 72.9,30.7 76.7,9 76.7,9 		"/>
		<polyline class="st8" points="76.7,9 82.2,9 81.4,13.9 84.7,13.9 84,18.3 80.5,18.2 78.6,29.3 78.6,29.3 78.6,29.7 78.7,30.1 
			78.9,30.3 79.2,30.5 79.5,30.7 79.9,30.8 80.3,30.9 80.8,30.9 80.8,30.9 81.3,30.9 81.7,30.8 82,30.8 82.3,30.7 82.6,30.6 
			82.8,30.6 82.9,30.5 82.9,30.5 82.2,34.2 82.2,34.2 82.1,34.3 82,34.4 81.8,34.5 81.7,34.5 81.5,34.6 81.4,34.7 81.2,34.7 
			81,34.8 80.8,34.8 80.6,34.9 80.4,34.9 80.1,35 79.9,35 79.6,35 79.3,35.1 78.9,35.1 77.4,35.1 77.4,35.1 76.6,35.1 75.9,35 
			75.3,34.9 74.8,34.7 74.3,34.5 73.9,34.3 73.6,34.1 73.3,33.8 73.1,33.6 73,33.2 72.9,32.9 72.8,32.5 72.8,32.1 72.8,31.7 
			72.9,31.2 72.9,30.7 76.7,9 		"/>
		<polygon class="st7" points="89.1,25.8 89.1,26.2 89,26.5 89.1,26.9 89.2,27.3 89.3,27.6 89.5,28 89.7,28.4 89.9,28.7 90.2,29.1 
			90.5,29.4 90.8,29.7 91.2,29.9 91.5,30.1 91.9,30.3 92.3,30.4 92.7,30.5 93.2,30.6 93.7,30.6 94.2,30.7 94.8,30.7 95.3,30.8 
			95.8,30.8 96.3,30.7 96.9,30.7 97.4,30.6 97.9,30.5 98.5,30.4 99,30.2 99.6,30 100.2,29.8 100.7,29.5 101.3,29.1 100.5,34 
			100.2,34.2 99.9,34.3 99.5,34.4 99.2,34.6 98.9,34.7 98.6,34.8 98.3,34.8 98,34.9 97.6,35 97.2,35 96.8,35 96.3,35.1 95.8,35.1 
			95.3,35.1 94.7,35.1 94,35.1 93.1,35.1 92.1,35 91.1,34.9 90.1,34.6 89.1,34.3 88.2,33.9 87.3,33.4 86.4,32.9 85.7,32.2 85,31.4 
			84.4,30.5 83.9,29.4 83.6,28.2 83.4,26.9 83.3,25.4 83.4,23.8 83.5,23.2 83.6,22.4 83.8,21.7 84,20.8 84.3,20 84.7,19.1 
			85.1,18.3 85.7,17.4 86.3,16.6 87.1,15.9 87.9,15.2 88.9,14.6 90.1,14.1 91.4,13.8 92.8,13.5 94.4,13.4 95.2,13.5 96,13.5 
			96.8,13.7 97.6,13.9 98.4,14.2 99.2,14.5 99.9,15 100.6,15.6 101.2,16.2 101.7,17 102.1,17.9 102.3,19 102.5,20.2 102.5,21.5 
			102.4,23 102.1,24.7 102,25.9 87.5,25.9 88.4,22 97.1,22 97.2,21.5 97.1,21 97.1,20.6 97,20.2 96.9,19.8 96.7,19.5 96.5,19.2 
			96.3,18.9 96.1,18.7 95.9,18.5 95.6,18.3 95.3,18.1 94.9,18 94.6,17.9 94.3,17.9 93.9,17.8 93.5,17.9 93.2,17.9 92.9,18 
			92.5,18.1 92.2,18.3 91.9,18.5 91.6,18.7 91.3,18.9 91.1,19.2 90.8,19.5 90.6,19.8 90.4,20.1 90.3,20.5 90.1,20.9 90,21.3 
			89.9,21.7 89.1,25.8 89.1,25.8 		"/>
		<polyline class="st8" points="89.1,25.8 89.1,25.8 89.1,26.2 89,26.5 89.1,26.9 89.2,27.3 89.3,27.6 89.5,28 89.7,28.4 89.9,28.7 
			90.2,29.1 90.5,29.4 90.8,29.7 91.2,29.9 91.5,30.1 91.9,30.3 92.3,30.4 92.7,30.5 92.7,30.5 93.2,30.6 93.7,30.6 94.2,30.7 
			94.8,30.7 95.3,30.8 95.8,30.8 96.3,30.7 96.9,30.7 97.4,30.6 97.9,30.5 98.5,30.4 99,30.2 99.6,30 100.2,29.8 100.7,29.5 
			101.3,29.1 100.5,34 100.5,34 100.2,34.2 99.9,34.3 99.5,34.4 99.2,34.6 98.9,34.7 98.6,34.8 98.3,34.8 98,34.9 97.6,35 97.2,35 
			96.8,35 96.3,35.1 95.8,35.1 95.3,35.1 94.7,35.1 94,35.1 94,35.1 93.1,35.1 92.1,35 91.1,34.9 90.1,34.6 89.1,34.3 88.2,33.9 
			87.3,33.4 86.4,32.9 85.7,32.2 85,31.4 84.4,30.5 83.9,29.4 83.6,28.2 83.4,26.9 83.3,25.4 83.4,23.8 83.4,23.8 83.5,23.2 
			83.6,22.4 83.8,21.7 84,20.8 84.3,20 84.7,19.1 85.1,18.3 85.7,17.4 86.3,16.6 87.1,15.9 87.9,15.2 88.9,14.6 90.1,14.1 
			91.4,13.8 92.8,13.5 94.4,13.4 94.4,13.4 95.2,13.5 96,13.5 96.8,13.7 97.6,13.9 98.4,14.2 99.2,14.5 99.9,15 100.6,15.6 
			101.2,16.2 101.7,17 102.1,17.9 102.3,19 102.5,20.2 102.5,21.5 102.4,23 102.1,24.7 102,25.9 87.5,25.9 88.4,22 97.1,22 97.1,22 
			97.2,21.5 97.1,21 97.1,20.6 97,20.2 96.9,19.8 96.7,19.5 96.5,19.2 96.3,18.9 96.1,18.7 95.9,18.5 95.6,18.3 95.3,18.1 94.9,18 
			94.6,17.9 94.3,17.9 93.9,17.8 93.9,17.8 93.5,17.9 93.2,17.9 92.9,18 92.5,18.1 92.2,18.3 91.9,18.5 91.6,18.7 91.3,18.9 
			91.1,19.2 90.8,19.5 90.6,19.8 90.4,20.1 90.3,20.5 90.1,20.9 90,21.3 89.9,21.7 89.1,25.8 		"/>
		<polygon class="st7" points="136.5,15 136.2,14.9 136,14.8 135.7,14.6 135.4,14.5 135.1,14.4 134.7,14.3 134.4,14.1 134,14 
			133.7,13.9 133.3,13.9 132.9,13.8 132.5,13.7 132,13.7 131.5,13.6 131.1,13.6 130.6,13.6 130.1,13.6 129.6,13.7 129,13.7 
			128.5,13.8 127.9,14 127.4,14.2 126.8,14.5 126.2,14.8 125.7,15.3 125.2,15.8 124.7,16.4 124.2,17.2 123.8,18 123.4,19 123,20.1 
			122.7,21.4 122.6,22.1 122.5,22.8 122.4,23.5 122.5,24.2 122.5,24.9 122.7,25.5 122.8,26.1 123,26.7 123.3,27.2 123.7,27.7 
			124.1,28.2 124.6,28.6 125.1,29 125.7,29.3 126.4,29.5 127.2,29.7 127.4,29.8 127.7,29.8 128.1,29.9 128.5,29.9 128.9,30 
			129.4,30 129.9,30 130.4,29.9 130.9,29.9 131.4,29.8 131.9,29.6 132.4,29.5 132.9,29.2 133.4,29 133.8,28.7 134.2,28.3 
			133.3,33.6 133.2,33.7 133,33.8 132.9,34 132.7,34.1 132.5,34.2 132.2,34.4 131.9,34.5 131.5,34.6 131.1,34.8 130.6,34.9 130,35 
			129.3,35 128.5,35.1 127.6,35.1 126.6,35.1 125.5,35 124.6,34.9 123.6,34.7 122.7,34.4 121.8,34 120.9,33.5 120.1,33 119.3,32.3 
			118.6,31.5 117.9,30.6 117.4,29.6 116.9,28.5 116.5,27.3 116.3,25.9 116.2,24.5 116.3,23 116.5,21.3 116.6,20.5 116.8,19.7 
			117,18.9 117.2,18.2 117.4,17.5 117.7,16.8 117.9,16.2 118.2,15.5 118.5,14.9 118.8,14.3 119.2,13.8 119.5,13.3 119.9,12.8 
			120.3,12.3 120.7,11.9 121.1,11.4 121.5,11.1 122,10.7 122.5,10.3 123,10 123.5,9.7 124,9.5 124.6,9.2 125.2,9 125.8,8.8 
			126.4,8.6 127,8.5 127.7,8.4 128.4,8.3 129.1,8.2 129.8,8.2 130.6,8.2 131.2,8.2 131.8,8.2 132.4,8.3 133,8.4 133.6,8.4 
			134.1,8.6 134.6,8.6 135.1,8.8 135.6,8.9 136,9 136.3,9.1 136.6,9.2 136.9,9.3 137.2,9.4 137.3,9.5 137.5,9.5 136.5,15 136.5,15 
					"/>
		<polyline class="st8" points="136.5,15 136.5,15 136.2,14.9 136,14.8 135.7,14.6 135.4,14.5 135.1,14.4 134.7,14.3 134.4,14.1 
			134,14 133.7,13.9 133.3,13.9 132.9,13.8 132.5,13.7 132,13.7 131.5,13.6 131.1,13.6 130.6,13.6 130.6,13.6 130.1,13.6 
			129.6,13.7 129,13.7 128.5,13.8 127.9,14 127.4,14.2 126.8,14.5 126.2,14.8 125.7,15.3 125.2,15.8 124.7,16.4 124.2,17.2 
			123.8,18 123.4,19 123,20.1 122.7,21.4 122.7,21.4 122.6,22.1 122.5,22.8 122.4,23.5 122.5,24.2 122.5,24.9 122.7,25.5 
			122.8,26.1 123,26.7 123.3,27.2 123.7,27.7 124.1,28.2 124.6,28.6 125.1,29 125.7,29.3 126.4,29.5 127.2,29.7 127.2,29.7 
			127.4,29.8 127.7,29.8 128.1,29.9 128.5,29.9 128.9,30 129.4,30 129.9,30 130.4,29.9 130.9,29.9 131.4,29.8 131.9,29.6 
			132.4,29.5 132.9,29.2 133.4,29 133.8,28.7 134.2,28.3 133.3,33.6 133.3,33.6 133.2,33.7 133,33.8 132.9,34 132.7,34.1 
			132.5,34.2 132.2,34.4 131.9,34.5 131.5,34.6 131.1,34.8 130.6,34.9 130,35 129.3,35 128.5,35.1 127.6,35.1 126.6,35.1 125.5,35 
			125.5,35 124.6,34.9 123.6,34.7 122.7,34.4 121.8,34 120.9,33.5 120.1,33 119.3,32.3 118.6,31.5 117.9,30.6 117.4,29.6 
			116.9,28.5 116.5,27.3 116.3,25.9 116.2,24.5 116.3,23 116.5,21.3 116.5,21.3 116.6,20.5 116.8,19.7 117,18.9 117.2,18.2 
			117.4,17.5 117.7,16.8 117.9,16.2 118.2,15.5 118.5,14.9 118.8,14.3 119.2,13.8 119.5,13.3 119.9,12.8 120.3,12.3 120.7,11.9 
			121.1,11.4 121.5,11.1 122,10.7 122.5,10.3 123,10 123.5,9.7 124,9.5 124.6,9.2 125.2,9 125.8,8.8 126.4,8.6 127,8.5 127.7,8.4 
			128.4,8.3 129.1,8.2 129.8,8.2 130.6,8.2 130.6,8.2 131.2,8.2 131.8,8.2 132.4,8.3 133,8.4 133.6,8.4 134.1,8.6 134.6,8.6 
			135.1,8.8 135.6,8.9 136,9 136.3,9.1 136.6,9.2 136.9,9.3 137.2,9.4 137.3,9.5 137.5,9.5 136.5,15 		"/>
		<polygon class="st7" points="185.3,35.1 179.8,35.1 180.2,32.9 180.2,32.7 179.9,33.1 179.6,33.5 179.3,33.8 178.9,34.1 
			178.5,34.3 178.2,34.5 177.8,34.7 177.4,34.9 177.1,35 176.7,35.1 176.3,35.2 175.9,35.3 175.5,35.4 175.1,35.4 174.7,35.4 
			174.4,35.4 173.3,35.3 172.4,35.1 171.5,34.8 170.7,34.3 170,33.7 169.3,33.1 168.8,32.3 168.3,31.5 167.9,30.6 167.6,29.7 
			167.4,28.7 167.2,27.7 167.2,26.7 167.2,25.6 167.3,24.6 167.5,23.6 167.8,22.4 168.1,21.3 168.5,20.3 169,19.4 169.5,18.5 
			170.1,17.7 170.8,17 171.4,16.3 172.1,15.7 172.8,15.2 173.6,14.8 174.4,14.5 175.1,14.2 175.9,14 176.7,13.9 177.5,13.9 
			178.1,13.9 178.7,13.9 179.2,14 179.7,14.2 180.1,14.3 180.5,14.5 180.9,14.7 181.3,14.9 181.6,15.2 181.9,15.4 182.2,15.7 
			182.4,16 182.6,16.2 182.8,16.5 182.9,16.7 183,16.9 183,16.9 184.4,9.1 189.8,9.1 185.3,35.1 185.3,35.1 		"/>
		<polyline class="st8" points="185.3,35.1 179.8,35.1 180.2,32.9 180.2,32.7 180.2,32.7 179.9,33.1 179.6,33.5 179.3,33.8 
			178.9,34.1 178.5,34.3 178.2,34.5 177.8,34.7 177.4,34.9 177.1,35 176.7,35.1 176.3,35.2 175.9,35.3 175.5,35.4 175.1,35.4 
			174.7,35.4 174.4,35.4 174.4,35.4 173.3,35.3 172.4,35.1 171.5,34.8 170.7,34.3 170,33.7 169.3,33.1 168.8,32.3 168.3,31.5 
			167.9,30.6 167.6,29.7 167.4,28.7 167.2,27.7 167.2,26.7 167.2,25.6 167.3,24.6 167.5,23.6 167.5,23.6 167.8,22.4 168.1,21.3 
			168.5,20.3 169,19.4 169.5,18.5 170.1,17.7 170.8,17 171.4,16.3 172.1,15.7 172.8,15.2 173.6,14.8 174.4,14.5 175.1,14.2 
			175.9,14 176.7,13.9 177.5,13.9 177.5,13.9 178.1,13.9 178.7,13.9 179.2,14 179.7,14.2 180.1,14.3 180.5,14.5 180.9,14.7 
			181.3,14.9 181.6,15.2 181.9,15.4 182.2,15.7 182.4,16 182.6,16.2 182.8,16.5 182.9,16.7 183,16.9 183,16.9 184.4,9.1 189.8,9.1 
			185.3,35.1 		"/>
		<polygon class="st3" points="176.4,30.3 176.9,30.3 177.4,30.2 177.9,30 178.4,29.8 178.8,29.6 179.2,29.3 179.6,28.9 179.9,28.6 
			180.2,28.2 180.5,27.7 180.7,27.3 180.9,26.8 181.1,26.3 181.3,25.8 181.4,25.2 181.5,24.7 181.6,24.2 181.7,23.6 181.7,23 
			181.7,22.5 181.6,22 181.5,21.5 181.4,21 181.2,20.5 181,20.1 180.8,19.8 180.5,19.5 180.2,19.2 179.9,18.9 179.6,18.8 
			179.2,18.7 178.8,18.6 178.2,18.7 177.7,18.8 177.3,18.9 176.8,19.1 176.4,19.4 176,19.7 175.7,20 175.3,20.4 175,20.8 
			174.8,21.3 174.5,21.8 174.3,22.3 174.1,22.8 173.9,23.4 173.8,23.9 173.7,24.5 173.6,25.4 173.6,26.3 173.7,27.3 174,28.2 
			174.4,29.1 174.9,29.7 175.6,30.2 176.4,30.3 176.4,30.3 		"/>
		<polygon class="st7" points="54.4,30.7 53.6,35.1 48.6,35.1 48.8,34.3 48.9,33.6 49,33 49,32.7 48.8,33 48.4,33.3 48.1,33.6 
			47.6,33.9 47.2,34.2 46.7,34.4 46.2,34.7 45.6,34.9 45,35.1 44.5,35.2 43.9,35.3 43.3,35.4 42.7,35.4 42.1,35.5 41.6,35.4 
			41.1,35.3 40.4,35.1 39.7,34.9 39.2,34.7 38.7,34.4 38.2,34.1 37.8,33.7 37.5,33.3 37.2,32.9 37,32.5 36.8,32.1 36.6,31.6 
			36.5,31.2 36.4,30.7 36.4,30.3 36.4,29.9 36.4,29.4 36.4,28.6 36.5,27.9 36.7,27.2 37,26.5 37.3,25.9 37.7,25.3 38.1,24.8 
			38.6,24.3 39.1,23.8 39.6,23.4 40.2,23 40.8,22.7 41.4,22.4 42.1,22.2 42.7,22 43.4,21.9 43.5,21.9 43.6,21.9 43.7,21.9 
			43.9,21.9 44.2,21.8 44.5,21.8 44.7,21.8 45.1,21.7 45.4,21.7 45.8,21.6 46.1,21.6 46.4,21.6 46.8,21.6 47.1,21.5 47.3,21.5 
			47.5,21.5 48,21.5 48.5,21.5 48.9,21.6 49.4,21.6 49.7,21.6 50,21.6 50.2,21.6 50.2,21.6 50.3,21.5 50.4,21.1 50.5,20.7 
			50.5,20.3 50.5,19.9 50.3,19.5 50,19.1 49.7,18.8 49.4,18.6 48.9,18.4 48.5,18.3 47.9,18.2 47.4,18.2 46.8,18.2 46.2,18.2 
			45.5,18.2 44.9,18.3 44.3,18.3 43.6,18.4 43,18.5 42.4,18.5 41.8,18.6 41.3,18.7 40.8,18.8 40.4,19 40,19.1 39.8,19.2 39.5,19.3 
			41,14.5 41.4,14.4 41.8,14.2 42.3,14.1 42.8,14 43.3,13.9 43.8,13.8 44.3,13.7 44.8,13.7 45.4,13.6 46,13.6 46.6,13.6 47.2,13.6 
			47.8,13.6 48.5,13.6 49.2,13.6 49.9,13.6 50.4,13.7 51,13.8 51.6,13.9 52.3,14.1 52.9,14.3 53.5,14.6 54.1,14.9 54.6,15.3 
			55.1,15.8 55.5,16.2 55.9,16.8 56.2,17.4 56.4,18 56.6,18.7 56.6,19.4 56.4,20.2 54.4,30.7 54.4,30.7 		"/>
		<polyline class="st8" points="54.4,30.7 53.6,35.1 48.6,35.1 48.6,35.1 48.8,34.3 48.9,33.6 49,33 49,32.7 49,32.7 48.8,33 
			48.4,33.3 48.1,33.6 47.6,33.9 47.2,34.2 46.7,34.4 46.2,34.7 45.6,34.9 45,35.1 44.5,35.2 43.9,35.3 43.3,35.4 42.7,35.4 
			42.1,35.5 41.6,35.4 41.1,35.3 41.1,35.3 40.4,35.1 39.7,34.9 39.2,34.7 38.7,34.4 38.2,34.1 37.8,33.7 37.5,33.3 37.2,32.9 
			37,32.5 36.8,32.1 36.6,31.6 36.5,31.2 36.4,30.7 36.4,30.3 36.4,29.9 36.4,29.4 36.4,29.4 36.4,28.6 36.5,27.9 36.7,27.2 
			37,26.5 37.3,25.9 37.7,25.3 38.1,24.8 38.6,24.3 39.1,23.8 39.6,23.4 40.2,23 40.8,22.7 41.4,22.4 42.1,22.2 42.7,22 43.4,21.9 
			43.4,21.9 43.5,21.9 43.6,21.9 43.7,21.9 43.9,21.9 44.2,21.8 44.5,21.8 44.7,21.8 45.1,21.7 45.4,21.7 45.8,21.6 46.1,21.6 
			46.4,21.6 46.8,21.6 47.1,21.5 47.3,21.5 47.5,21.5 47.5,21.5 48,21.5 48.5,21.5 48.9,21.6 49.4,21.6 49.7,21.6 50,21.6 
			50.2,21.6 50.2,21.6 50.2,21.6 50.3,21.5 50.4,21.1 50.5,20.7 50.5,20.3 50.5,20.3 50.5,19.9 50.3,19.5 50,19.1 49.7,18.8 
			49.4,18.6 48.9,18.4 48.5,18.3 47.9,18.2 47.9,18.2 47.4,18.2 46.8,18.2 46.2,18.2 45.5,18.2 44.9,18.3 44.3,18.3 43.6,18.4 
			43,18.5 42.4,18.5 41.8,18.6 41.3,18.7 40.8,18.8 40.4,19 40,19.1 39.8,19.2 39.5,19.3 41,14.5 41,14.5 41.4,14.4 41.8,14.2 
			42.3,14.1 42.8,14 43.3,13.9 43.8,13.8 44.3,13.7 44.8,13.7 45.4,13.6 46,13.6 46.6,13.6 47.2,13.6 47.8,13.6 48.5,13.6 
			49.2,13.6 49.9,13.6 49.9,13.6 50.4,13.7 51,13.8 51.6,13.9 52.3,14.1 52.9,14.3 53.5,14.6 54.1,14.9 54.6,15.3 55.1,15.8 
			55.5,16.2 55.9,16.8 56.2,17.4 56.4,18 56.6,18.7 56.6,19.4 56.4,20.2 54.4,30.7 		"/>
		<polygon class="st6" points="49.7,25.5 49.6,25.4 49.6,25.3 49.4,25.3 49.2,25.2 49,25.2 48.8,25.2 48.5,25.2 48.2,25.2 
			47.8,25.2 47.5,25.2 47.2,25.3 46.9,25.3 46.6,25.3 46.3,25.4 46.1,25.5 45.8,25.5 45.7,25.6 45.5,25.6 45.3,25.7 45.1,25.8 
			44.8,25.9 44.6,26.1 44.3,26.2 44.1,26.4 43.8,26.6 43.5,26.8 43.3,27 43.1,27.2 42.9,27.5 42.7,27.8 42.6,28.1 42.5,28.4 
			42.5,29.1 42.6,29.6 42.8,30 43.1,30.3 43.4,30.5 43.7,30.6 44,30.7 44.4,30.7 44.9,30.7 45.5,30.6 46,30.5 46.5,30.4 46.9,30.3 
			47.2,30.1 47.6,29.9 47.9,29.7 48.1,29.5 48.4,29.3 48.6,29.1 48.7,28.8 48.9,28.6 49,28.3 49.1,28.1 49.1,27.9 49.3,27.3 
			49.4,26.7 49.6,26 49.7,25.5 49.7,25.5 		"/>
		<polygon class="st7" points="12.7,35.1 7.3,35.1 11.8,9 21.2,9 22.1,24.5 28.5,9 38.4,9 33.7,35.1 28.3,35.1 31.8,15.6 31.5,15.6 
			23.5,35.1 17.4,35.1 17.3,34.3 17.2,32.1 17,29.1 16.8,25.5 16.6,22 16.4,18.9 16.3,16.6 16.3,15.6 16.2,15.6 16.1,15.6 16,15.6 
			16,15.6 12.7,35.1 12.7,35.1 		"/>
		<polyline class="st8" points="12.7,35.1 7.3,35.1 11.8,9 21.2,9 22.1,24.5 28.5,9 38.4,9 33.7,35.1 28.3,35.1 31.8,15.6 
			31.5,15.6 23.5,35.1 17.4,35.1 17.4,35.1 17.3,34.3 17.2,32.1 17,29.1 16.8,25.5 16.6,22 16.4,18.9 16.3,16.6 16.3,15.6 
			16.3,15.6 16.2,15.6 16.1,15.6 16,15.6 16,15.6 12.7,35.1 		"/>
		<polygon class="st7" points="153,30.7 152.2,35.1 147.2,35.1 147.2,34.3 147.2,33.6 147.2,33 147.3,32.8 147,33.1 146.7,33.4 
			146.4,33.7 146,34 145.5,34.2 145.1,34.5 144.6,34.7 144.1,34.9 143.5,35.1 143,35.2 142.4,35.3 141.9,35.4 141.3,35.4 
			140.7,35.5 140.2,35.4 139.7,35.3 139,35.1 138.3,34.9 137.8,34.7 137.2,34.4 136.8,34.1 136.4,33.7 136.1,33.3 135.8,32.9 
			135.6,32.5 135.4,32.1 135.3,31.6 135.2,31.2 135.1,30.7 135,30.3 135,29.9 135,29.4 135,28.6 135.1,27.9 135.3,27.2 135.6,26.5 
			135.9,25.9 136.3,25.3 136.7,24.8 137.1,24.3 137.6,23.8 138.2,23.4 138.8,23 139.4,22.7 140,22.4 140.6,22.2 141.3,22 142,21.9 
			142,21.9 142.1,21.9 142.2,21.9 142.4,21.9 142.7,21.8 143,21.8 143.3,21.8 143.6,21.7 143.9,21.7 144.3,21.6 144.6,21.6 
			145,21.6 145.3,21.6 145.6,21.5 145.8,21.5 146.1,21.5 146.5,21.5 147,21.5 147.5,21.6 147.9,21.6 148.3,21.6 148.6,21.6 
			148.8,21.6 148.9,21.6 148.9,21.5 149,21.1 149,20.7 149.1,20.3 149,19.9 148.8,19.5 148.6,19.1 148.3,18.8 147.9,18.6 
			147.5,18.4 147.1,18.3 146.6,18.2 146,18.2 145.4,18.2 144.8,18.2 144.2,18.2 143.5,18.3 142.9,18.3 142.2,18.4 141.6,18.5 
			141,18.5 140.5,18.6 139.9,18.7 139.5,18.8 139,19 138.7,19.1 138.4,19.2 138.2,19.3 139.6,14.5 140,14.4 140.5,14.2 140.9,14.1 
			141.4,14 141.9,13.9 142.4,13.8 142.9,13.7 143.4,13.7 144,13.6 144.6,13.6 145.1,13.6 145.8,13.6 146.4,13.6 147,13.6 
			147.7,13.6 148.4,13.6 148.9,13.7 149.5,13.8 150.1,13.9 150.8,14.1 151.4,14.3 152,14.6 152.6,14.9 153.1,15.3 153.6,15.8 
			154.1,16.2 154.5,16.8 154.8,17.4 155,18 155.2,18.7 155.2,19.4 155.1,20.2 153,30.7 153,30.7 		"/>
		<polygon class="st7" points="152.2,35.3 152.3,35.1 153.1,30.7 152.8,30.7 152,35.1 152.2,35 152.2,35.3 152.3,35.2 152.3,35.1 
			152.2,35.3 152.2,35.3 		"/>
		<polygon class="st7" points="147.1,35.1 147.2,35.3 152.2,35.3 152.2,35 147.2,35 147.3,35.1 147.1,35.1 147,35.3 147.2,35.3 
			147.1,35.1 147.1,35.1 		"/>
		<polygon class="st7" points="147.4,32.9 147.2,32.7 147.1,33 147.1,33.6 147.1,34.3 147.1,35.1 147.3,35.1 147.3,34.3 147.4,33.6 
			147.3,33 147.3,32.9 147.2,32.7 147.4,32.9 147.4,32.9 		"/>
		<polygon class="st7" points="139.6,35.4 139.6,35.4 140.2,35.5 140.7,35.6 141.3,35.6 141.9,35.5 142.4,35.4 143,35.3 143.6,35.2 
			144.1,35 144.6,34.8 145.1,34.6 145.6,34.3 146,34.1 146.4,33.8 146.8,33.5 147.1,33.2 147.4,32.9 147.2,32.7 146.9,33 
			146.6,33.3 146.3,33.6 145.9,33.9 145.5,34.1 145,34.3 144.5,34.6 144,34.8 143.5,34.9 143,35.1 142.4,35.2 141.9,35.3 
			141.3,35.3 140.7,35.3 140.2,35.3 139.7,35.2 139.7,35.2 139.6,35.4 139.6,35.4 		"/>
		<polygon class="st7" points="134.8,29.4 134.8,29.4 134.9,29.9 134.9,30.3 135,30.8 135,31.2 135.1,31.7 135.3,32.1 135.5,32.6 
			135.7,33 136,33.4 136.3,33.8 136.7,34.2 137.2,34.5 137.7,34.8 138.3,35.1 138.9,35.3 139.6,35.4 139.7,35.2 139,35 138.4,34.8 
			137.8,34.6 137.3,34.3 136.9,34 136.5,33.6 136.2,33.2 135.9,32.9 135.7,32.5 135.5,32 135.4,31.6 135.3,31.2 135.2,30.7 
			135.1,30.3 135.1,29.9 135.1,29.4 135.1,29.4 134.8,29.4 134.8,29.4 		"/>
		<polygon class="st7" points="142,21.8 142,21.8 141.3,21.9 140.6,22.1 139.9,22.3 139.3,22.6 138.7,22.9 138.1,23.3 137.6,23.7 
			137,24.2 136.6,24.7 136.2,25.2 135.8,25.8 135.5,26.5 135.2,27.2 135,27.9 134.9,28.6 134.8,29.4 135.1,29.4 135.1,28.6 
			135.3,27.9 135.4,27.3 135.7,26.6 136,26 136.4,25.4 136.8,24.9 137.2,24.4 137.7,23.9 138.3,23.5 138.8,23.1 139.4,22.8 
			140,22.5 140.7,22.3 141.3,22.2 142,22 142,22 142,21.8 142,21.8 		"/>
		<polygon class="st7" points="146.1,21.4 146.1,21.4 145.8,21.4 145.6,21.4 145.3,21.4 145,21.5 144.6,21.5 144.3,21.5 143.9,21.6 
			143.6,21.6 143.3,21.6 143,21.7 142.7,21.7 142.4,21.7 142.2,21.8 142.1,21.8 142,21.8 142,21.8 142,22 142,22 142.1,22 142.2,22 
			142.4,22 142.7,21.9 143,21.9 143.3,21.9 143.6,21.8 143.9,21.8 144.3,21.8 144.6,21.7 145,21.7 145.3,21.7 145.6,21.7 
			145.8,21.7 146.1,21.7 146.1,21.7 146.1,21.4 146.1,21.4 		"/>
		<polygon class="st7" points="148.7,21.6 148.9,21.5 148.8,21.5 148.6,21.5 148.3,21.5 147.9,21.4 147.5,21.4 147,21.4 146.5,21.4 
			146.1,21.4 146.1,21.7 146.5,21.7 147,21.7 147.5,21.7 147.9,21.7 148.3,21.7 148.6,21.7 148.8,21.7 148.9,21.7 149,21.6 
			148.9,21.7 149,21.8 149,21.6 148.7,21.6 148.7,21.6 		"/>
		<polygon class="st7" points="148.9,20.3 148.9,20.3 148.9,20.7 148.8,21.1 148.8,21.5 148.7,21.6 149,21.6 149,21.5 149.1,21.1 
			149.1,20.7 149.2,20.3 149.2,20.3 148.9,20.3 148.9,20.3 		"/>
		<polygon class="st7" points="146.6,18.4 146.6,18.4 147,18.4 147.4,18.5 147.8,18.7 148.2,18.9 148.5,19.2 148.7,19.5 148.9,19.9 
			148.9,20.3 149.2,20.3 149.1,19.9 148.9,19.4 148.7,19.1 148.3,18.7 148,18.5 147.5,18.3 147.1,18.2 146.6,18.1 146.6,18.1 
			146.6,18.4 146.6,18.4 		"/>
		<polygon class="st7" points="138.1,19.3 138.3,19.4 138.5,19.3 138.7,19.2 139.1,19.1 139.5,19 140,18.9 140.5,18.8 141.1,18.7 
			141.6,18.6 142.2,18.5 142.9,18.4 143.5,18.4 144.2,18.3 144.8,18.3 145.4,18.3 146,18.3 146.6,18.4 146.6,18.1 146,18.1 
			145.4,18.1 144.8,18.1 144.2,18.1 143.5,18.1 142.9,18.2 142.2,18.3 141.6,18.3 141,18.4 140.4,18.5 139.9,18.6 139.4,18.7 
			139,18.8 138.6,19 138.3,19.1 138.1,19.2 138.3,19.4 138.1,19.3 138.1,19.3 		"/>
		<polygon class="st7" points="139.5,14.4 139.4,14.5 138.1,19.3 138.3,19.4 139.7,14.6 139.6,14.7 139.5,14.4 139.5,14.4 
			139.4,14.5 139.5,14.4 139.5,14.4 		"/>
		<polygon class="st7" points="148.4,13.5 148.4,13.5 147.7,13.5 147,13.5 146.4,13.5 145.8,13.5 145.1,13.5 144.6,13.5 144,13.5 
			143.4,13.6 142.9,13.6 142.4,13.7 141.9,13.8 141.4,13.9 140.9,14 140.4,14.1 140,14.2 139.5,14.4 139.6,14.7 140,14.5 
			140.5,14.3 140.9,14.2 141.4,14.1 141.9,14 142.4,13.9 142.9,13.8 143.4,13.8 144,13.8 144.6,13.7 145.1,13.7 145.8,13.7 
			146.4,13.7 147,13.7 147.7,13.8 148.4,13.8 148.4,13.8 148.4,13.5 148.4,13.5 		"/>
		<polygon class="st7" points="155.2,20.2 155.2,20.2 155.3,19.4 155.3,18.7 155.1,18 154.9,17.3 154.6,16.7 154.2,16.2 153.7,15.7 
			153.2,15.2 152.7,14.8 152.1,14.5 151.4,14.2 150.8,14 150.1,13.8 149.5,13.7 148.9,13.6 148.4,13.5 148.4,13.8 148.9,13.8 
			149.5,13.9 150.1,14 150.7,14.2 151.3,14.4 151.9,14.7 152.5,15 153.1,15.4 153.6,15.9 154,16.3 154.4,16.8 154.7,17.4 154.9,18 
			155,18.7 155,19.4 154.9,20.2 154.9,20.2 155.2,20.2 155.2,20.2 		"/>
		<polygon class="st7" points="153.1,30.7 153.1,30.7 155.2,20.2 154.9,20.2 152.8,30.7 152.8,30.7 153.1,30.7 153.1,30.7 		"/>
		<polygon class="st3" points="148.2,25.5 148.1,25.4 148,25.3 147.9,25.2 147.7,25.2 147.5,25.2 147.2,25.1 146.9,25.1 146.6,25.2 
			146.3,25.2 146,25.2 145.7,25.3 145.4,25.3 145.1,25.4 144.8,25.4 144.6,25.5 144.4,25.5 144.2,25.5 144.1,25.6 143.9,25.7 
			143.7,25.7 143.4,25.9 143.2,26 142.9,26.1 142.6,26.3 142.4,26.5 142.1,26.7 141.9,26.9 141.7,27.2 141.5,27.5 141.4,27.7 
			141.2,28.1 141.2,28.4 141.2,29.1 141.3,29.6 141.4,30 141.7,30.3 141.9,30.5 142.3,30.6 142.6,30.7 143,30.7 143.6,30.7 
			144.1,30.6 144.6,30.5 145.1,30.4 145.5,30.2 145.9,30.1 146.3,29.9 146.6,29.6 146.9,29.4 147.1,29.1 147.3,28.9 147.5,28.6 
			147.6,28.4 147.7,28.2 147.8,27.9 147.9,27.7 147.9,27.2 148,26.6 148.1,26 148.2,25.5 148.2,25.5 		"/>
		<polygon class="st7" points="189.1,32.4 189.1,31.9 189.3,31.4 189.5,30.9 189.9,30.5 190.3,30.2 190.8,29.9 191.3,29.8 
			191.8,29.7 192.4,29.8 192.9,29.9 193.4,30.2 193.8,30.5 194.1,30.9 194.4,31.4 194.6,31.9 194.6,32.4 194,32.4 194,32 
			193.9,31.6 193.7,31.2 193.4,30.9 193.1,30.6 192.7,30.4 192.3,30.3 191.8,30.2 191.4,30.3 190.9,30.4 190.6,30.6 190.3,30.9 
			190,31.2 189.8,31.6 189.7,32 189.6,32.4 189.1,32.4 189.1,32.4 		"/>
		<polygon class="st7" points="190.8,32.4 190.8,31.2 191.9,31.2 192.2,31.2 192.4,31.3 192.6,31.3 192.7,31.4 192.8,31.5 
			192.9,31.6 192.9,31.8 192.9,31.9 192.9,32.1 192.9,32.2 192.8,32.4 192.8,32.4 191.9,32.4 192,32.4 192.2,32.4 192.3,32.3 
			192.4,32.3 192.5,32.2 192.5,32.2 192.5,32.1 192.5,31.9 192.5,31.8 192.5,31.7 192.4,31.7 192.4,31.7 192.3,31.6 192.2,31.6 
			192.1,31.6 191.9,31.6 191.3,31.6 191.3,32.4 190.8,32.4 190.8,32.4 		"/>
		<polygon class="st7" points="189.1,32.4 189,32.5 189.1,33.1 189.3,33.6 189.5,34.1 189.9,34.5 190.3,34.8 190.8,35.1 191.3,35.3 
			191.8,35.3 192.4,35.3 192.9,35.1 193.4,34.8 193.8,34.5 194.1,34.1 194.4,33.6 194.6,33.1 194.6,32.5 194.6,32.4 194,32.4 
			194,32.5 194,33 193.9,33.4 193.7,33.8 193.4,34.1 193.1,34.4 192.7,34.6 192.3,34.8 191.8,34.8 191.4,34.8 190.9,34.6 
			190.6,34.4 190.3,34.1 190,33.8 189.8,33.4 189.7,33 189.6,32.5 189.6,32.4 189.1,32.4 189.1,32.4 		"/>
		<polygon class="st7" points="190.8,32.4 190.8,33.6 191.3,33.6 191.3,32.6 191.8,32.6 192.4,33.6 192.8,33.6 192.2,32.6 
			192.4,32.6 192.5,32.6 192.6,32.5 192.7,32.5 192.8,32.4 191.9,32.4 191.8,32.4 191.3,32.4 191.3,32.4 190.8,32.4 190.8,32.4 		
			"/>
		<path class="st8" d="M189,32.5L189,32.5l0.1-0.6l0.2-0.5l0.3-0.5l0.3-0.4l0.4-0.3l0.5-0.2l0.5-0.2l0.6-0.1l0,0l0.6,0.1l0.5,0.2
			l0.5,0.2l0.4,0.3l0.3,0.4l0.3,0.5l0.2,0.5l0.1,0.6l0,0l-0.1,0.6l-0.2,0.5l-0.3,0.5l-0.3,0.4l-0.4,0.3l-0.5,0.3l-0.5,0.2l-0.6,0.1
			l0,0l-0.6-0.1l-0.5-0.2l-0.5-0.3l-0.4-0.3l-0.3-0.4l-0.3-0.5l-0.2-0.5L189,32.5 M191.3,33.6h-0.5v-2.4h1.1l0,0l0.2,0l0.2,0
			l0.2,0.1l0.1,0.1l0.1,0.1l0.1,0.1l0,0.1l0,0.1l0,0l0,0.2l0,0.1l-0.1,0.1l-0.1,0.1l-0.1,0.1l-0.1,0l-0.1,0h-0.1l0.6,1h-0.4l-0.6-1
			h-0.5V33.6 M191.8,32.4L191.8,32.4l0.2,0l0.1,0l0.1,0l0.1,0l0.1-0.1l0-0.1l0-0.1v-0.1l0,0l0-0.1l0-0.1l-0.1,0l-0.1,0l-0.1,0
			l-0.1,0h-0.1h-0.1h-0.6v0.8H191.8 M191.8,34.8L191.8,34.8l0.5,0l0.4-0.1l0.4-0.2l0.3-0.3l0.3-0.3l0.2-0.4L194,33l0-0.5l0,0l0-0.5
			l-0.1-0.4l-0.2-0.4l-0.3-0.3l-0.3-0.3l-0.4-0.2l-0.4-0.1l-0.5,0l0,0l-0.5,0l-0.4,0.1l-0.4,0.2l-0.3,0.3l-0.3,0.3l-0.2,0.4
			l-0.1,0.4l0,0.5l0,0l0,0.5l0.1,0.4l0.2,0.4l0.3,0.3l0.3,0.3l0.4,0.2l0.4,0.1L191.8,34.8"/>
		<polygon class="st7" points="154.5,35.1 160.1,35.1 160.1,35.1 162.1,23.8 162.1,23.4 162.3,22.9 162.4,22.5 162.5,22.1 
			162.7,21.6 163,21.2 163.2,20.8 163.6,20.4 163.9,20.1 164.3,19.8 164.8,19.5 165.3,19.3 165.9,19.1 166.5,18.9 167.2,18.8 
			168,18.7 168.2,18.7 168.4,18.7 168.5,18.7 168.5,18.7 169.3,13.6 168.8,13.7 168.3,13.7 167.8,13.8 167.3,14 166.8,14.1 
			166.4,14.3 166,14.5 165.7,14.8 165.3,15.1 165,15.3 164.6,15.7 164.3,16 164,16.3 163.7,16.7 163.4,17 163.2,17.4 163.7,13.9 
			158.2,13.9 154.5,35.1 154.5,35.1 154.5,35.1 		"/>
		<polyline class="st8" points="154.5,35.1 160.1,35.1 160.1,35.1 162.1,23.8 162.1,23.8 162.1,23.4 162.3,22.9 162.4,22.5 
			162.5,22.1 162.7,21.6 163,21.2 163.2,20.8 163.6,20.4 163.9,20.1 164.3,19.8 164.8,19.5 165.3,19.3 165.9,19.1 166.5,18.9 
			167.2,18.8 168,18.7 168,18.7 168.2,18.7 168.4,18.7 168.5,18.7 168.5,18.7 169.3,13.6 169.3,13.6 168.8,13.7 168.3,13.7 
			167.8,13.8 167.3,14 166.8,14.1 166.4,14.3 166,14.5 165.7,14.8 165.3,15.1 165,15.3 164.6,15.7 164.3,16 164,16.3 163.7,16.7 
			163.4,17 163.2,17.4 163.7,13.9 158.2,13.9 154.5,35.1 154.5,35.1 		"/>
		<polygon class="st7" points="101.9,35.1 107.5,35.1 107.6,35.1 109.5,23.8 109.6,23.4 109.7,23 109.8,22.5 109.9,22.2 110.1,21.8 
			110.3,21.4 110.5,21 110.8,20.7 111.1,20.4 111.5,20.1 111.9,19.8 112.4,19.6 112.9,19.5 113.5,19.3 114.2,19.2 115,19.1 
			115,19.1 115.1,19.2 115.2,19.2 115.3,19.2 115.4,19.2 115.5,19.2 115.6,19.2 115.6,19.2 115.6,19.2 115.7,18.9 115.7,18.6 
			115.8,18.1 116,17.6 116.1,17 116.3,16.5 116.5,15.9 116.6,15.6 116.8,15.2 117,14.8 117.2,14.5 117.4,14.2 117.6,13.9 
			117.6,13.8 117.7,13.7 117.7,13.7 117.6,13.7 117.5,13.7 117.4,13.7 117.2,13.7 117.1,13.7 116.9,13.6 116.8,13.6 116.2,13.7 
			115.6,13.7 115.1,13.8 114.6,14 114.2,14.1 113.7,14.3 113.4,14.5 113,14.7 112.7,15 112.3,15.3 112.1,15.6 111.8,15.9 
			111.5,16.3 111.2,16.7 110.9,17 110.6,17.4 111.3,13.9 105.6,13.9 101.9,35.1 101.9,35.1 101.9,35.1 		"/>
		<polyline class="st8" points="101.9,35.1 107.5,35.1 107.6,35.1 109.5,23.8 109.5,23.8 109.6,23.4 109.7,23 109.8,22.5 
			109.9,22.2 110.1,21.8 110.3,21.4 110.5,21 110.8,20.7 111.1,20.4 111.5,20.1 111.9,19.8 112.4,19.6 112.9,19.5 113.5,19.3 
			114.2,19.2 115,19.1 115,19.1 115,19.1 115.1,19.2 115.2,19.2 115.3,19.2 115.4,19.2 115.5,19.2 115.6,19.2 115.6,19.2 
			115.6,19.2 115.6,19.2 115.7,18.9 115.7,18.6 115.8,18.1 116,17.6 116.1,17 116.3,16.5 116.5,15.9 116.5,15.9 116.6,15.6 
			116.8,15.2 117,14.8 117.2,14.5 117.4,14.2 117.6,13.9 117.6,13.8 117.7,13.7 117.7,13.7 117.7,13.7 117.6,13.7 117.5,13.7 
			117.4,13.7 117.2,13.7 117.1,13.7 116.9,13.6 116.8,13.6 116.8,13.6 116.2,13.7 115.6,13.7 115.1,13.8 114.6,14 114.2,14.1 
			113.7,14.3 113.4,14.5 113,14.7 112.7,15 112.3,15.3 112.1,15.6 111.8,15.9 111.5,16.3 111.2,16.7 110.9,17 110.6,17.4 
			111.3,13.9 105.6,13.9 101.9,35.1 101.9,35.1 		"/>
		<polygon class="st3" points="189.1,56 189.1,55.9 189.3,55.4 189.5,54.9 189.9,54.6 190.3,54.2 190.8,54 191.3,53.9 191.8,53.8 
			192.4,53.9 192.9,54 193.4,54.2 193.8,54.6 194.1,54.9 194.4,55.4 194.6,55.9 194.6,56 194,56 193.9,55.6 193.7,55.2 193.4,54.9 
			193.1,54.6 192.7,54.4 192.3,54.2 191.8,54.2 191.4,54.2 190.9,54.4 190.6,54.6 190.3,54.9 190,55.2 189.8,55.6 189.7,56 
			189.1,56 189.1,56 		"/>
		<polygon class="st3" points="190.8,56 190.8,55.3 191.9,55.3 192.2,55.3 192.4,55.3 192.6,55.4 192.7,55.5 192.8,55.6 192.9,55.7 
			192.9,55.8 192.9,56 192.5,56 192.5,55.9 192.5,55.8 192.5,55.7 192.4,55.7 192.4,55.6 192.3,55.6 192.2,55.6 192.1,55.6 
			191.9,55.6 191.3,55.6 191.3,56 190.8,56 190.8,56 		"/>
		<polygon class="st3" points="189,56.4 189.1,56 189.7,56 189.7,56 189.6,56.4 189,56.4 189,56.4 		"/>
		<polygon class="st3" points="190.8,56.4 190.8,56 191.3,56 191.3,56.4 191.8,56.4 192,56.4 192.2,56.3 192.3,56.3 192.4,56.3 
			192.5,56.2 192.5,56.1 192.5,56 192.5,56 192.9,56 192.9,56 192.9,56.1 192.9,56.3 192.8,56.4 192.7,56.4 190.8,56.4 190.8,56.4 
					"/>
		<polygon class="st3" points="194,56.4 194,56 194,56 194.6,56 194.6,56.4 194,56.4 194,56.4 		"/>
		<polygon class="st3" points="189,56.4 189,56.5 189.1,57.1 189.3,57.6 189.5,58.1 189.9,58.5 190.3,58.8 190.8,59.1 191.3,59.2 
			191.8,59.3 192.4,59.2 192.9,59.1 193.4,58.8 193.8,58.5 194.1,58.1 194.4,57.6 194.6,57.1 194.6,56.5 194.6,56.4 194,56.4 
			194,56.5 194,57 193.9,57.4 193.7,57.8 193.4,58.1 193.1,58.4 192.7,58.6 192.3,58.8 191.8,58.8 191.4,58.8 190.9,58.6 
			190.6,58.4 190.3,58.1 190,57.8 189.8,57.4 189.7,57 189.6,56.5 189.6,56.4 189,56.4 189,56.4 		"/>
		<polygon class="st3" points="190.8,56.4 190.8,57.6 191.3,57.6 191.3,56.6 191.8,56.6 192.4,57.6 192.8,57.6 192.2,56.6 
			192.4,56.6 192.5,56.6 192.6,56.5 192.7,56.4 192.7,56.4 190.8,56.4 190.8,56.4 		"/>
		<rect x="86.7" y="22.1" class="st7" width="3.6" height="3.8"/>
	</g>
</g>
<g id="Capa_8" class="st0">
	<g class="st2">
		<path class="st4" d="M200.8-79.7H0v200h200.8v-66c0.8-1.1,1.2-2.6,1.2-4.4c0-2-0.4-3.3-1.2-4.4"/>
		<path class="st9" d="M18,6.9l-3.8-9.3l-3.8,9.3 M102.4,3.2c-0.8,0.5-1.7,0.5-2.8,0.5h-6.8v-5.2h6.9c1,0,2,0,2.7,0.4
			c0.7,0.3,1.2,1.1,1.2,2.1C103.6,2,103.1,2.8,102.4,3.2z M151,6.9l-3.9-9.3l-3.9,9.3H151z M60.5,17h-5.7l0-18.4L46.6,17h-4.9
			L33.5-1.4V17H22.1L20,11.8H8.3L6.1,17H0.1l10-23.4h8.3l9.5,22.2V-6.4h9.1l7.3,15.9l6.7-15.9h9.3L60.5,17L60.5,17z M83.4,17H64.7
			V-6.4h18.7v4.9H70.3v4.2H83v4.8H70.3v4.7h13.1V17z M109.7-0.1c0,3.7-2.5,5.7-3.9,6.2c1.2,0.5,2.3,1.3,2.8,2
			c0.8,1.2,0.9,2.2,0.9,4.3V17h-5.6l0-3c0-1.4,0.1-3.4-0.9-4.6c-0.8-0.8-2.1-1-4.1-1h-6V17h-5.6V-6.4h12.9c2.9,0,5,0.1,6.8,1.1
			C108.7-4.3,109.7-2.7,109.7-0.1z M118.7,17H113V-6.4h5.7V17z M185,17h-7.9L166.5-0.6V17H155l-2.2-5.2h-11.6l-2.1,5.2h-6.6
			c-2.7,0-6.2-0.6-8.1-2.6c-2-2-3-4.7-3-8.9c0-3.5,0.6-6.7,3-9.2c1.8-1.9,4.6-2.7,8.5-2.7h5.4v5h-5.3c-2,0-3.2,0.3-4.3,1.4
			c-1,1-1.6,2.9-1.6,5.3c0,2.5,0.5,4.3,1.5,5.5c0.9,0.9,2.4,1.2,3.9,1.2h2.5L143-6.4h8.4l9.5,22.2V-6.4h8.5l9.8,16.3V-6.4h5.7V17
			L185,17z M0,21.6h9.6l2.2-5.2h4.8l2.2,5.2h18.8v-4l1.7,4H49l1.7-4.1v4h46.8l0-8.5h0.9c0.6,0,0.8,0.1,0.8,1.1v7.4h24.2v-2
			c2,1,5,2,9,2h10.2l2.2-5.2h4.8l2.1,5.2h19.6v-4.9l3,4.9H190v-32.7h-15.6v3.9l-2.2-3.9h-16v3.9l-2-3.9h-21.6
			c-3.6,0-6.8,0.5-9.3,1.9v-1.9h-14.9v1.9c-1.6-1.4-3.9-1.9-6.3-1.9H47.8l-3.6,8.4l-3.7-8.4H23.3v3.9l-1.9-3.9H6.8L0,4.4L0,21.6
			L0,21.6z"/>
		<path class="st9" d="M200,38.9h-10.2c-1,0-1.7,0-2.3,0.4c-0.6,0.4-0.8,0.9-0.8,1.7c0,0.9,0.5,1.5,1.2,1.7c0.6,0.2,1.2,0.3,2.2,0.3
			l3,0.1c3.1,0.1,5.1,0.6,6.4,1.9c0.2,0.2,0.4,0.4,0.5,0.6 M200,54.3c-1.4,2-4,3-7.6,3h-10.8v-5h10.8c1.1,0,1.8-0.1,2.3-0.6
			c0.4-0.4,0.7-0.9,0.7-1.5c0-0.7-0.3-1.2-0.7-1.6c-0.4-0.4-1-0.5-2-0.5c-5.3-0.2-11.8,0.2-11.8-7.3c0-3.4,2.2-7,8-7H200v-4.7h-10.4
			c-3.1,0-5.4,0.7-7,1.9v-1.9h-15.3c-2.5,0-5.3,0.6-6.7,1.9v-1.9h-27.4v1.9c-2.2-1.6-5.9-1.9-7.6-1.9h-18.1v1.9
			c-1.7-1.7-5.6-1.9-7.9-1.9H79.5l-4.6,5l-4.3-5H40.3v32.7H70l4.8-5.1l4.5,5.1l18.3,0v-7.7h1.8c2.4,0,5.3-0.1,7.8-1.1v8.8h15.1v-8.5
			h0.7c0.9,0,1,0,1,1v7.6h45.8c2.9,0,5.9-0.7,7.6-2.1v2.1h14.5c3,0,6-0.4,8.2-1.5V54.3L200,54.3z M177.7,45c1.1,1.1,1.7,2.6,1.7,5
			c0,5-3.2,7.4-8.8,7.4h-10.9v-5h10.9c1.1,0,1.8-0.1,2.3-0.6c0.4-0.4,0.7-0.9,0.7-1.5c0-0.7-0.3-1.2-0.7-1.6c-0.4-0.4-1-0.5-2-0.5
			c-5.2-0.2-11.8,0.2-11.8-7.3c0-3.4,2.1-7,8-7h11.2v5h-10.3c-1,0-1.7,0-2.2,0.4c-0.6,0.4-0.8,0.9-0.8,1.7c0,0.9,0.5,1.5,1.2,1.7
			c0.6,0.2,1.2,0.3,2.2,0.3l3,0.1C174.3,43.2,176.4,43.7,177.7,45z M127.1,43.5c-0.7,0.4-1.7,0.5-2.8,0.5h-6.8v-5.3h6.9
			c1,0,2,0,2.7,0.4c0.7,0.4,1.2,1.1,1.2,2.1C128.3,42.3,127.8,43.1,127.1,43.5z M130.5,46.4c1.2,0.5,2.3,1.3,2.7,2
			c0.8,1.1,0.9,2.2,0.9,4.3v4.6h-5.6v-2.9c0-1.4,0.1-3.5-0.9-4.6c-0.8-0.8-2.1-1-4.1-1h-6v8.6h-5.6V33.9h12.9c2.8,0,4.9,0.1,6.7,1.1
			c1.8,1.1,2.9,2.5,2.9,5.2C134.5,43.9,132,45.8,130.5,46.4z M137.6,33.9h18.7v4.8h-13.1V43h12.8v4.8h-12.8v4.7l13.1,0v4.9h-18.7
			V33.9z M99.8,44.7h-7.2v-6h7.3c2,0,3.4,0.8,3.4,2.9C103.3,43.6,101.9,44.7,99.8,44.7z M87,55.2l-8.6-9.5l8.6-9.2V55.2z M64.8,52.4
			H51v-4.7h12.3V43H51v-4.3h14l6.1,6.8L64.8,52.4z M109.3,41.6c0,6.5-4.9,7.9-9.8,7.9h-7v7.9H81.7l-6.9-7.8l-7.2,7.8H45.4V33.9h22.5
			l6.9,7.7l7.1-7.7h17.9C104.3,33.9,109.3,35.1,109.3,41.6z"/>
	</g>
</g>
<g id="Capa_9" class="st0">
	<g id="XMLID_4_" class="st2">
		<g id="XMLID_12_">
			<g id="XMLID_13_">
				<g id="XMLID_14_">
					<g id="XMLID_15_">
						<path id="XMLID_57_" class="st4" d="M76.1,17.2c-0.6,4-3.6,4-6.6,4h-1.7l1.2-7.4c0.1-0.4,0.5-0.8,0.9-0.8h0.8
							c2,0,3.9,0,4.9,1.1C76.1,14.8,76.3,15.8,76.1,17.2z M74.8,6.8H63.7c-0.8,0-1.4,0.6-1.5,1.3l-4.5,28.4
							c-0.1,0.6,0.3,1.1,0.9,1.1h5.3c0.8,0,1.4-0.6,1.5-1.3l1.2-7.7c0.1-0.7,0.8-1.3,1.5-1.3h3.5c7.3,0,11.5-3.5,12.6-10.5
							c0.5-3.1,0-5.5-1.4-7.1C81.3,7.8,78.5,6.8,74.8,6.8z"/>
						<path id="XMLID_54_" class="st4" d="M100.5,27.4c-0.5,3-2.9,5.1-6,5.1c-1.5,0-2.8-0.5-3.6-1.4c-0.8-0.9-1.1-2.3-0.8-3.7
							c0.5-3,2.9-5.1,5.9-5.1c1.5,0,2.7,0.5,3.5,1.4C100.4,24.6,100.7,25.9,100.5,27.4z M107.9,17.1h-5.3c-0.5,0-0.8,0.3-0.9,0.8
							l-0.2,1.5l-0.4-0.5c-1.1-1.7-3.7-2.2-6.3-2.2c-5.9,0-10.9,4.4-11.8,10.7c-0.5,3.1,0.2,6.1,2,8.1c1.6,1.9,3.9,2.7,6.7,2.7
							c4.7,0,7.3-3,7.3-3l-0.2,1.5c-0.1,0.6,0.3,1.1,0.9,1.1h4.8c0.8,0,1.4-0.6,1.5-1.3l2.9-18.1C108.9,17.6,108.4,17.1,107.9,17.1z
							"/>
						<path id="XMLID_33_" class="st4" d="M136.1,17.1h-5.3c-0.5,0-1,0.3-1.3,0.7l-7.3,10.8L119,18.2c-0.2-0.7-0.8-1.1-1.5-1.1h-5.2
							c-0.6,0-1.1,0.6-0.9,1.2l5.9,17.2l-5.5,7.8c-0.4,0.6,0,1.5,0.8,1.5h5.3c0.5,0,1-0.2,1.3-0.7l17.7-25.6
							C137.3,17.9,136.8,17.1,136.1,17.1z"/>
						<path id="XMLID_38_" class="st4" d="M155,17.2c-0.6,4-3.6,4-6.6,4h-1.7l1.2-7.4c0.1-0.4,0.5-0.8,0.9-0.8h0.8
							c2,0,3.9,0,4.9,1.1C155,14.8,155.2,15.8,155,17.2z M153.7,6.8h-11.1c-0.8,0-1.4,0.6-1.5,1.3l-4.5,28.4
							c-0.1,0.6,0.3,1.1,0.9,1.1h5.7c0.5,0,1-0.4,1.1-0.9l1.3-8c0.1-0.7,0.8-1.3,1.5-1.3h3.5c7.3,0,11.5-3.5,12.6-10.5
							c0.5-3.1,0-5.5-1.4-7.1C160.2,7.8,157.4,6.8,153.7,6.8z"/>
						<path id="XMLID_21_" class="st4" d="M179.4,27.4c-0.5,3-2.9,5.1-6,5.1c-1.5,0-2.8-0.5-3.6-1.4c-0.8-0.9-1.1-2.3-0.8-3.7
							c0.5-3,2.9-5.1,5.9-5.1c1.5,0,2.7,0.5,3.5,1.4C179.3,24.6,179.7,25.9,179.4,27.4z M186.8,17.1h-5.3c-0.5,0-0.8,0.3-0.9,0.8
							l-0.2,1.5l-0.4-0.5c-1.1-1.7-3.7-2.2-6.3-2.2c-5.9,0-10.9,4.4-11.8,10.7c-0.5,3.1,0.2,6.1,2,8.1c1.6,1.9,3.9,2.7,6.7,2.7
							c4.7,0,7.3-3,7.3-3l-0.2,1.5c-0.1,0.6,0.3,1.1,0.9,1.1h4.8c0.8,0,1.4-0.6,1.5-1.3l2.9-18.1C187.8,17.6,187.4,17.1,186.8,17.1z
							"/>
						<path id="XMLID_28_" class="st4" d="M193.1,7.6l-4.5,28.9c-0.1,0.6,0.3,1.1,0.9,1.1h4.6c0.8,0,1.4-0.6,1.5-1.3L200,7.9
							c0.1-0.6-0.3-1.1-0.9-1.1H194C193.5,6.8,193.1,7.2,193.1,7.6z"/>
						<path id="XMLID_27_" class="st10" d="M11.8,43.1l0.8-5.4l-1.9,0h-9L8-2c0-0.1,0.1-0.2,0.2-0.3c0.1-0.1,0.2-0.1,0.3-0.1h15.2
							c5,0,8.5,1,10.3,3.1c0.9,1,1.4,2,1.7,3.1c0.3,1.2,0.3,2.6,0,4.3l0,0.1v1.1l0.9,0.5c0.7,0.4,1.3,0.8,1.7,1.3
							c0.7,0.8,1.2,1.9,1.4,3.1c0.2,1.3,0.1,2.8-0.2,4.6c-0.4,2-1,3.7-1.9,5.2c-0.8,1.3-1.8,2.4-3,3.2c-1.1,0.8-2.5,1.4-4,1.8
							c-1.5,0.4-3.1,0.6-5,0.6h-1.2c-0.8,0-1.7,0.3-2.3,0.8c-0.6,0.6-1.1,1.3-1.2,2.1L20.9,33l-1.5,9.5l-0.1,0.3
							c0,0.1,0,0.2-0.1,0.2c0,0-0.1,0.1-0.2,0.1H11.8z"/>
						<path id="XMLID_26_" class="st4" d="M37.3,8.3c0,0.3-0.1,0.6-0.2,0.9C35.1,19.5,28.3,23,19.5,23h-4.5c-1.1,0-2,0.8-2.1,1.8
							l-2.3,14.5L10,43.4c-0.1,0.7,0.4,1.3,1.1,1.3h7.9c0.9,0,1.7-0.7,1.9-1.6l0.1-0.4l1.5-9.4l0.1-0.5c0.1-0.9,0.9-1.6,1.9-1.6h1.2
							c7.7,0,13.6-3.1,15.4-12.1c0.7-3.8,0.4-6.9-1.6-9.1C38.9,9.3,38.1,8.8,37.3,8.3z"/>
						<path id="XMLID_25_" class="st11" d="M35.2,7.5c-0.3-0.1-0.6-0.2-0.9-0.2c-0.3-0.1-0.7-0.1-1-0.2c-1.2-0.2-2.5-0.3-3.9-0.3
							H17.4c-0.3,0-0.6,0.1-0.8,0.2c-0.5,0.3-1,0.8-1.1,1.4l-2.5,16L13,24.9c0.2-1.1,1.1-1.8,2.1-1.8h4.5c8.7,0,15.6-3.6,17.6-13.8
							c0.1-0.3,0.1-0.6,0.2-0.9c-0.5-0.3-1.1-0.5-1.6-0.7C35.5,7.6,35.4,7.5,35.2,7.5z"/>
						<path id="XMLID_24_" class="st4" d="M15.6,8.4c0.1-0.6,0.5-1.2,1.1-1.4c0.3-0.1,0.5-0.2,0.8-0.2h11.9c1.4,0,2.7,0.1,3.9,0.3
							c0.3,0.1,0.7,0.1,1,0.2c0.3,0.1,0.6,0.2,0.9,0.2c0.2,0,0.3,0.1,0.4,0.1c0.6,0.2,1.1,0.4,1.6,0.7c0.6-3.8,0-6.4-2.1-8.7
							C33-3,28.9-4.1,23.7-4.1H8.5c-1.1,0-2,0.8-2.1,1.8L0,37.8c-0.1,0.8,0.5,1.5,1.3,1.5h9.4L13,24.4L15.6,8.4z"/>
					</g>
				</g>
			</g>
		</g>
	</g>
</g>
<g id="Capa_10" class="st0">
	<g class="st2">
		<g>
			<g>
				<g>
					<g>
						<g>
							<rect x="3.7" y="-79.7" class="st4" width="192.7" height="200"/>
							<path class="st9" d="M124,100.6v7.5H77.7v-7.5h-35c-3.4,0-6.2-3.6-6.2-8l-14.6-148c0-4.4,3.4-8,7.6-8h141.3
								c4.2,0,7.6,3.6,7.6,8L164,92.7c0,4.4-2.8,8-6.2,8L124,100.6z"/>
							<path class="st4" d="M47.7-41.7h94.6C133-38.2,104.6-19,97.5-6.1H47.8L47.7-41.7z"/>
							<path class="st4" d="M123.1,60.4c-1.3,12.9-1.4,28.6-1.4,45.1h-41c0-16.5,0.7-32.2,2-45.1H123.1z"/>
							<polygon class="st4" points="44.6,30.8 59.6,30.8 59.6,36.7 53.1,36.7 53.1,41.7 59.6,41.7 59.6,46.7 53.1,46.7 53.1,51.7 
								59.6,51.7 59.6,57.5 44.6,57.5 							"/>
							<polygon class="st4" points="79.5,30.8 94.5,30.8 94.5,36.7 87.9,36.7 87.9,41.7 94.5,41.7 94.5,46.7 87.9,46.7 87.9,51.7 
								94.5,51.7 94.5,57.5 79.5,57.5 							"/>
							<polygon class="st4" points="117.9,30.8 132.9,30.8 132.9,36.7 126.4,36.7 126.4,41.7 132.9,41.7 132.9,46.7 126.4,46.7 
								126.4,51.7 132.9,51.7 132.9,57.5 117.9,57.5 							"/>
							<polygon class="st4" points="70.9,51.7 77.4,51.7 77.4,57.5 62.4,57.5 62.4,30.8 70.9,30.8 							"/>
							<polygon class="st4" points="96,30.8 100.2,57.5 111,57.5 116.1,30.8 109.9,30.8 106.6,48.8 103.4,30.8 							"/>
							<rect x="136.5" y="30.8" class="st4" width="8.1" height="26.6"/>
							<path class="st4" d="M144.6,38.7c0.4-2.9,4.6-2.1,4.6-0.5v19.2h8.1V34.9c0-4.8-6.8-6.7-12.6-2.5"/>
							<path class="st4" d="M126.9,27.1c0.8-10.2,14.8-26.9,28.3-31.2v-39.4C118-26.9,93.8-1.7,88.5,27L126.9,27.1z"/>
							<path class="st4" d="M137.7,71.7c-1,1.1-2.3,1.6-3.8,1.6c-1.5,0-2.8-0.5-3.8-1.6c-1-1-1.6-2.3-1.6-3.8c0-1.5,0.5-2.7,1.6-3.8
								c1-1,2.3-1.6,3.8-1.6c1.5,0,2.8,0.5,3.8,1.6c1.1,1,1.6,2.3,1.6,3.8C139.2,69.4,138.7,70.6,137.7,71.7 M130.6,64.6
								c-0.9,0.9-1.3,2-1.3,3.3c0,1.3,0.4,2.4,1.3,3.3c0.9,0.9,2,1.4,3.3,1.4c1.3,0,2.4-0.5,3.3-1.4c0.9-0.9,1.3-2,1.3-3.3
								c0-1.3-0.4-2.4-1.3-3.3c-0.9-0.9-2-1.4-3.3-1.4C132.6,63.3,131.5,63.7,130.6,64.6 M133.8,64.9c0.7,0,1.3,0.1,1.6,0.2
								c0.6,0.3,0.9,0.8,0.9,1.5c0,0.5-0.2,0.9-0.6,1.2c-0.2,0.1-0.5,0.2-0.8,0.3c0.5,0.1,0.8,0.3,1,0.6c0.2,0.3,0.3,0.6,0.3,0.9V70
								c0,0.1,0,0.3,0,0.4c0,0.2,0,0.3,0.1,0.3l0,0.1h-1c0,0,0,0,0-0.1c0,0,0,0,0-0.1l0-0.2V70c0-0.7-0.2-1.1-0.6-1.4
								c-0.2-0.1-0.6-0.2-1.2-0.2h-0.8v2.3h-1v-5.9H133.8z M134.9,65.9c-0.3-0.1-0.7-0.2-1.3-0.2h-0.9v2.1h0.9c0.4,0,0.8,0,1-0.1
								c0.4-0.2,0.6-0.5,0.6-0.9C135.3,66.3,135.2,66,134.9,65.9"/>
						</g>
					</g>
				</g>
			</g>
		</g>
	</g>
</g>
<g id="Capa_11" class="st0">
	<g class="st2">
		<path class="st3" d="M0.1-19.5c0-3.4,2.8-6.2,6.2-6.2h187.4c3.4,0,6.2,2.8,6.2,6.2v79.7c0,3.4-2.8,6.2-6.2,6.2H6.3
			c-3.4,0-6.2-2.8-6.2-6.2V-19.5L0.1-19.5z"/>
		<polygon class="st7" points="0.1,-16.7 200,-16.7 200,57.3 0.1,57.3 0.1,-16.7 		"/>
		<path class="st3" d="M169.5,2.5c-9.1,0-16.6,7.5-16.6,16.6c0,9.1,7.5,16.6,16.6,16.6c9.1,0,16.6-7.5,16.6-16.6
			C186.1,10,178.6,2.5,169.5,2.5L169.5,2.5z"/>
		<path class="st3" d="M32.7,2.5c-9.1,0-16.6,7.5-16.6,16.6c0,9.1,7.5,16.6,16.6,16.6c9.1,0,16.6-7.5,16.6-16.6
			C49.3,10,41.8,2.5,32.7,2.5L32.7,2.5z"/>
		<path class="st3" d="M168.2-12.1c-15.4-0.4-22.6,9.5-33.1,21.7l-9.9,11.5l15.7,18.8c3.7,5.8-3.4,11.5-7.8,6.2l-14.5-17.3
			l-14.1,16.4c-4.5,5.2-11.5-0.6-7.7-6.3L112.1,21L102,9l6.5-8l10.2,12.3L127.5,3c4.3-5,8.7-11.7,14.4-15.1H0.1v64.8h33.2
			c15.4,0,22.3-9.2,32.5-21.6l9.6-11.7L59.3,1.1c-3.9-5.7,3.1-11.6,7.7-6.4l14.9,16.9L95.6-5c4.4-5.3,11.5,0.3,7.9,6.1L88.6,19.3
			L98.9,31l-6.5,7.7L82.1,27.1l-8.6,10.4c-4.2,5.1-8.5,11.6-14.1,15.2H200v-64.8H168.2L168.2-12.1z M58.9,19.1
			c0,14.4-11.8,26.2-26.2,26.2c-14.4,0-26.2-11.8-26.2-26.2C6.4,4.7,18.2-7.1,32.7-7.1C47.1-7.1,58.9,4.7,58.9,19.1L58.9,19.1z
			 M169.5,45.4c-14.4,0-26.2-11.8-26.2-26.2c0-14.4,11.8-26.2,26.2-26.2c14.4,0,26.2,11.8,26.2,26.2
			C195.7,33.6,183.9,45.4,169.5,45.4L169.5,45.4z"/>
	</g>
</g>
<g id="Capa_12" class="st0">
	<g class="st2">
		<g>
			<path class="st4" d="M88,33.9V15.3h5.4c0.9,0,1.8,0.1,2.6,0.3c0.8,0.2,1.5,0.5,2,1c0.4,0.3,0.7,0.7,0.9,1.2
				c0.3,0.6,0.5,1.4,0.5,2.3c0,1-0.2,1.7-0.6,2.4c-0.4,0.6-0.9,1.1-1.5,1.4c-0.1,0.1-0.3,0.1-0.4,0.2c0.3,0.1,0.6,0.2,0.9,0.4
				c0.6,0.3,1.1,0.6,1.5,1.1c0.3,0.3,0.5,0.7,0.7,1.1c0.2,0.6,0.3,1.2,0.3,2c0,1-0.2,1.9-0.6,2.6c-0.4,0.7-1,1.3-1.7,1.7
				c-0.5,0.3-1,0.5-1.6,0.6c-0.8,0.2-1.6,0.3-2.6,0.3H88 M93.7,32.1c0.8,0,1.4-0.1,2-0.3c0.6-0.2,1.1-0.4,1.5-0.8
				c0.2-0.2,0.5-0.5,0.6-0.8c0.2-0.4,0.3-1,0.3-1.6c0-0.7-0.1-1.3-0.4-1.8c-0.3-0.5-0.6-0.8-1.1-1.1c-0.3-0.2-0.7-0.3-1.2-0.4
				c-0.6-0.1-1.3-0.2-2-0.2H90v7.1H93.7z M93.3,23.3c0.7,0,1.3-0.1,1.8-0.2c0.5-0.1,1-0.4,1.4-0.7c0.2-0.2,0.4-0.4,0.6-0.8
				c0.2-0.4,0.3-0.9,0.3-1.5c0-0.7-0.1-1.2-0.4-1.6c-0.2-0.4-0.6-0.7-1-0.9c-0.3-0.2-0.6-0.3-1-0.4c-0.5-0.1-1-0.2-1.6-0.2H90v6.2
				H93.3z"/>
			<path class="st4" d="M112.5,22c-0.2-0.4-0.4-0.7-0.7-1c-0.4-0.4-1-0.7-1.6-0.9c-0.6-0.2-1.4-0.3-2.1-0.3c-2.7,0-4.2,0.8-5.1,1.3
				c0.7,1.5,1.5,1.2,2.5,0.7c0.8-0.3,1.6-0.5,2.5-0.5c0.4,0,0.9,0.1,1.3,0.2c0.3,0.1,0.5,0.2,0.7,0.3c0.3,0.2,0.5,0.4,0.7,0.8
				c0.2,0.3,0.3,0.8,0.3,1.3v2c-1-0.2-2-0.3-3.2-0.3c-0.8,0-1.5,0.1-2.2,0.2c-0.5,0.1-1,0.3-1.4,0.5c-0.6,0.3-1.1,0.8-1.5,1.4
				c-0.4,0.6-0.5,1.3-0.5,2.1c0,0.7,0.1,1.3,0.3,1.8c0.3,0.8,0.9,1.4,1.7,1.8c0.7,0.4,1.6,0.6,2.6,0.6c0,0,0,0,0,0
				c1.1,0,2-0.2,2.8-0.6c0.5-0.3,1-0.6,1.4-0.9c0,0.2,0,0.3,0,0.5c0,0.2,0.1,0.3,0.1,0.4c0,0.1,0.1,0.2,0.2,0.3
				c0.1,0.1,0.3,0.2,0.4,0.2c0.1,0,0.3,0,0.5,0h0.7v-10C112.9,23.1,112.8,22.5,112.5,22 M111,30.4c-0.5,0.6-1,1-1.6,1.4
				c-0.6,0.4-1.4,0.6-2.4,0.6c-0.4,0-0.8,0-1.2-0.1c-0.3-0.1-0.5-0.2-0.7-0.3c-0.3-0.2-0.5-0.5-0.7-0.8c-0.2-0.4-0.3-0.8-0.3-1.4
				c0-0.5,0.1-0.8,0.3-1.2c0.1-0.2,0.3-0.4,0.5-0.6c0.3-0.3,0.7-0.5,1.3-0.6c0.5-0.1,1.1-0.2,1.7-0.2c1.1,0,2.2,0.1,3.1,0.4V30.4z"
				/>
			<path class="st4" d="M125.4,33.9V23.8c0-0.6-0.1-1-0.2-1.3c-0.1-0.3-0.3-0.5-0.6-0.7c-0.2-0.1-0.4-0.2-0.6-0.2
				c-0.3-0.1-0.6-0.1-1-0.1c-0.9,0-1.8,0.3-2.7,0.7c-0.8,0.4-1.6,0.9-2.3,1.4v10.3h-1.9v-14h0.9c0.1,0,0.2,0,0.3,0
				c0.1,0,0.2,0,0.3,0.1c0.1,0,0.1,0.1,0.2,0.1c0.1,0.1,0.1,0.2,0.2,0.3c0,0.1,0.1,0.3,0.1,0.4c0,0.2,0,0.4,0,0.7v0.2
				c0.6-0.5,1.4-0.9,2.2-1.2c1-0.4,2.1-0.7,3.4-0.7c0.6,0,1.1,0.1,1.6,0.2c0.5,0.2,0.9,0.4,1.3,0.8c0.2,0.3,0.4,0.6,0.6,1
				c0.2,0.5,0.3,1.1,0.3,1.9v10.2H125.4"/>
			<path class="st4" d="M144.7,32.9c-1-0.7-1.8-1.8-2.3-3.1c-0.3-0.9-0.5-1.9-0.5-2.9c0-1.6,0.4-3,1-4.2c0.7-1.1,1.6-2,2.8-2.5
				c0.8-0.3,1.7-0.5,2.7-0.5c1.4,0,2.7,0.4,3.8,1.1c1,0.7,1.8,1.8,2.3,3.1c0.3,0.9,0.5,1.9,0.5,2.9c0,1.6-0.4,3-1,4.2
				c-0.7,1.1-1.6,2-2.8,2.5c-0.8,0.3-1.7,0.5-2.7,0.5C147.1,34,145.8,33.6,144.7,32.9 M145.8,22.3c-0.7,0.5-1.2,1.3-1.6,2.3
				c-0.2,0.7-0.3,1.5-0.3,2.3c0,1.3,0.3,2.4,0.7,3.3c0.5,0.8,1.1,1.5,2,1.8c0.6,0.2,1.2,0.4,1.9,0.4c1.1,0,2-0.3,2.7-0.8
				c0.7-0.5,1.2-1.3,1.6-2.3c0.2-0.7,0.3-1.5,0.3-2.4c0-1.3-0.3-2.4-0.7-3.3c-0.5-0.9-1.1-1.5-1.9-1.8c-0.6-0.2-1.2-0.4-1.9-0.4
				C147.4,21.4,146.5,21.7,145.8,22.3z"/>
			<path class="st4" d="M174.5,33.9V23.7c0-0.5-0.1-0.9-0.2-1.2c-0.1-0.3-0.3-0.5-0.5-0.7c-0.2-0.1-0.3-0.2-0.5-0.2
				c-0.3-0.1-0.6-0.1-0.9-0.1c-0.9,0-1.7,0.2-2.4,0.6c-0.7,0.4-1.4,0.8-2,1.3v10.4h-1.9V23.7c0-0.5-0.1-0.9-0.2-1.2
				c-0.1-0.3-0.3-0.5-0.5-0.7c-0.1-0.1-0.3-0.2-0.5-0.2c-0.3-0.1-0.6-0.1-0.9-0.1c-0.9,0-1.7,0.2-2.5,0.6c-0.7,0.4-1.4,0.8-2,1.4
				v10.4h-1.9v-14h0.9c0.1,0,0.2,0,0.3,0c0.1,0,0.2,0,0.3,0.1c0.1,0,0.1,0.1,0.2,0.1c0.1,0.1,0.1,0.2,0.2,0.3c0,0.1,0.1,0.3,0.1,0.4
				c0,0.2,0,0.4,0,0.7v0c0.5-0.4,1.2-0.8,1.8-1.1c0.9-0.4,2-0.7,3.1-0.7c0.6,0,1.1,0.1,1.7,0.3c0.5,0.2,1,0.6,1.3,1
				c0.1,0.2,0.3,0.4,0.4,0.7c0.6-0.5,1.3-0.9,2.1-1.3c0.9-0.4,2-0.7,3.1-0.7c0.5,0,1.1,0.1,1.5,0.2c0.5,0.2,0.9,0.4,1.2,0.8
				c0.2,0.2,0.4,0.5,0.6,0.9c0.2,0.5,0.3,1,0.3,1.6v10.5H174.5"/>
			<path class="st4" d="M69.6,27.2l2.5-8.5l2.6,8.5H69.6 M76.1,17.2c-0.5-1.5-0.8-1.9-2.3-1.9h-3.5l-5.7,18.6h2.9l1.2-4h6.8l1.2,4h5
				L76.1,17.2z"/>
			<path class="st4" d="M42,31.4V17.7h2.4c1.1,0,2.1,0.9,2.1,2.1c0,0.4-0.1,0.8-0.5,1.3l-1.5,2.3c1.6,0.4,2.7,1.6,2.7,3.9
				c0,2.8-1.7,4-3.9,4H42 M48,22.6l0.9-1.3c1.9-2.8,0.6-5.9-3.2-5.9h-8.1v18.6h7.8C52.3,33.9,54.3,25.9,48,22.6"/>
			<path class="st4" d="M27.6,31.4h-1.3V17.7h2.4c1.2,0,2.2,0.9,2.2,2.1c0,0.4-0.1,0.8-0.5,1.3l-1.6,2.3c1.6,0.4,2.7,1.6,2.7,3.9
				C31.5,30.2,29.8,31.4,27.6,31.4 M32.3,22.6l0.9-1.3c1.9-2.8,0.6-5.9-3.2-5.9h-8.1v18.6h7.8C36.6,33.9,38.6,25.9,32.3,22.6"/>
			<path class="st4" d="M56.2,17.7c-0.7-2.1-1-2.4-2.3-2.4h-3.3l6.1,18.6h4.5l5.7-18.6h-2.9l-4.2,14.1L56.2,17.7"/>
			<line class="st4" x1="21.9" y1="15.3" x2="29.7" y2="15.3"/>
			<path class="st4" d="M140.6,21.2c-0.7,1.5-1.4,1-2.4,0.6c-0.5-0.2-1.2-0.4-2.1-0.4c-1.1,0-2,0.3-2.7,0.8
				c-0.7,0.5-1.3,1.3-1.6,2.3c-0.2,0.7-0.4,1.4-0.4,2.3c0,1,0.1,1.9,0.4,2.6c0.3,0.7,0.7,1.3,1.1,1.8c0.3,0.3,0.7,0.5,1.1,0.7
				c0.6,0.2,1.2,0.4,2,0.4c1,0,1.7-0.2,2.3-0.5c1-0.5,1.6-1.1,2.4,0.4c-0.3,0.3-0.9,0.8-1.6,1.1c-0.1,0-0.2,0.1-0.3,0.1
				c-0.8,0.3-1.8,0.6-3,0.6h0c-1.5,0-2.8-0.4-3.9-1.1c-1-0.7-1.8-1.8-2.2-3.1c-0.3-0.9-0.4-1.9-0.4-2.9c0-1.6,0.4-3,1.1-4.2
				c0.7-1.1,1.7-2,2.9-2.4c0.8-0.3,1.7-0.5,2.7-0.5C136.6,19.8,138.6,19.6,140.6,21.2"/>
			<path class="st4" d="M190.2,23.4c-0.2-0.6-0.5-1.2-0.8-1.6c-0.5-0.7-1.2-1.2-1.9-1.5c-0.8-0.3-1.7-0.5-2.6-0.5
				c-0.9,0-1.7,0.2-2.5,0.5c-1.1,0.5-2.1,1.4-2.7,2.5c-0.6,1.1-1,2.5-1,4.2c0,1,0.1,2,0.4,2.9c0.4,1.3,1.2,2.3,2.2,3.1
				c1,0.7,2.4,1.1,3.9,1.1h0c1.2,0,2.3-0.2,3.1-0.5c1.3-0.5,2-1.1,2.3-1.5c-0.9-1.3-1.4-0.8-2.5-0.3c-0.6,0.3-1.8,0.6-2.8,0.6
				c-0.8,0-1.5-0.1-2.1-0.3c-0.4-0.2-0.8-0.4-1.2-0.7c-0.5-0.4-0.9-1-1.1-1.7c-0.2-0.6-0.4-1.4-0.4-2.3h10V27c0,0,0,0,0-0.1
				c0-0.1,0-0.3,0-0.5C190.6,25.2,190.4,24.3,190.2,23.4 M180.6,25.7c0.1-0.6,0.2-1.2,0.4-1.7c0.4-0.9,0.9-1.5,1.5-1.9
				c0.6-0.4,1.4-0.6,2.3-0.6c0.6,0,1.1,0.1,1.6,0.2c0.3,0.1,0.7,0.3,0.9,0.5c0.4,0.3,0.7,0.8,1,1.4c0.2,0.6,0.3,1.2,0.4,2H180.6z"/>
			<path class="st4" d="M198.8,19.8c-1,0-1.9,0.3-2.7,0.8c-0.5,0.3-1,0.7-1.4,1.1c0-0.3,0-0.6,0-0.8c0-0.2,0-0.3-0.1-0.4
				c0-0.1-0.1-0.2-0.1-0.3c-0.1-0.1-0.1-0.1-0.2-0.1c-0.1-0.1-0.2-0.1-0.3-0.1c-0.1,0-0.2,0-0.3,0h-0.9v14h1.9v-10
				c0.7-0.8,1.3-1.3,1.7-1.6c0,0,0,0,0,0c0.8-0.5,1.4-0.6,1.9-0.7c0.9-0.1,1.5-0.2,1.6-1.6C199.6,19.9,199.2,19.8,198.8,19.8"/>
		</g>
		<g>
			<rect x="0" y="-6.7" class="st4" width="9" height="9"/>
			<rect x="0" y="2.3" class="st4" width="9" height="9"/>
			<rect x="0" y="11.3" class="st4" width="9" height="9"/>
			<rect x="0" y="20.3" class="st4" width="9" height="9"/>
			<rect x="0" y="29.3" class="st4" width="9" height="9"/>
			<rect x="0" y="38.4" class="st4" width="9" height="9"/>
		</g>
	</g>
</g>
<g id="Capa_13" class="st0">
	<g class="st2">
		<path class="st3" d="M61.6,11.9c0.5-0.1,1.2-0.2,2.6-0.2c2.6,0,4.2,0.8,4.2,2.6c0,1.7-1.6,2.8-4.8,2.8h-2V11.9L61.6,11.9z
			 M56,31.6c1.2,0.2,3.4,0.4,6.3,0.4c5,0,8-0.7,9.9-2.1c1.6-1.2,2.7-2.9,2.7-5.2c0-3.2-2.2-5.2-4.9-5.9v-0.1c2.8-1,4.1-2.9,4.1-5
			c0-2.3-1.4-4-3.2-4.8c-1.8-0.9-3.7-1.2-7.4-1.2c-2.9,0-6.1,0.3-7.5,0.5V31.6L56,31.6z M61.6,21.2h2.1c3,0,5.3,0.9,5.3,3.2
			c0,2.5-2.4,3.4-5,3.4c-1.1,0-1.8,0-2.4-0.1V21.2L61.6,21.2z"/>
		<path class="st3" d="M194.2,31.7l-1.9-3.1c-0.7-1.1-1.3-2.3-1.7-3c-0.3,0.7-1.1,2-1.7,3l-1.9,3.1h-5.8l6.6-10l-5.6-8.5h5.8
			l0.9,1.5c0.7,1.1,1.3,2.3,1.7,3c0.3-0.7,1.1-1.9,1.7-3l0.9-1.5h5.8l-5.6,8.5l6.6,10H194.2L194.2,31.7z"/>
		<path class="st3" d="M88.4,26.2c-0.5,0.9-1.8,1.7-3.4,1.7c-2.1,0-2.8-1.2-2.8-2.5c0-1.5,1-2.3,2.9-2.3c1.9,0,3,0.6,3.3,0.8V26.2
			L88.4,26.2z M93.2,31.7V19.3c0-4.2-3-6.5-7.8-6.5c-3.6,0-6,1.5-6.7,1.9l1.9,3.4c0.4-0.2,2.2-1.3,4.7-1.3c2.2,0,3.1,1.1,3.1,2.4v1
			c-0.4-0.2-1.6-0.8-3.8-0.8c-3.9,0-7.3,2.1-7.3,6.1c0,4.5,3.4,6.6,6.7,6.6c2.6,0,4-1.3,4.4-1.6v1.2H93.2L93.2,31.7z"/>
		<path class="st3" d="M127,26.2c-0.5,0.9-1.8,1.7-3.4,1.7c-2.1,0-2.8-1.2-2.8-2.5c0-1.5,1-2.3,2.9-2.3c1.9,0,3,0.6,3.3,0.8V26.2
			L127,26.2z M131.9,31.7V19.3c0-4.2-2.9-6.5-7.8-6.5c-3.6,0-6,1.5-6.7,1.9l1.9,3.4c0.4-0.2,2.2-1.3,4.7-1.3c2.2,0,3.1,1.1,3.1,2.4
			v1c-0.4-0.2-1.6-0.8-3.8-0.8c-3.9,0-7.3,2.1-7.3,6.1c0,4.5,3.4,6.6,6.7,6.6c2.6,0,4-1.3,4.4-1.6v1.2H131.9L131.9,31.7z"/>
		<path class="st3" d="M108.3,31.7V21.1c0-3-1.6-3.8-3.1-3.8c-1.5,0-3.2,0.9-3.2,3.7v10.7h-4.9V13.2h4.9v1.2
			c0.4-0.4,1.8-1.6,4.5-1.6c3.9,0,6.7,2.1,6.7,7.2v11.8H108.3L108.3,31.7z"/>
		<path class="st3" d="M157.4,31.7V21.3c0-3-1.1-4-3-4c-1.6,0-3,1-3,3.9v10.4h-4.9V21.3c0-2.9-1.1-4-3-4c-1.7,0-3,1-3,3.9v10.4h-4.9
			V13.2h4.9v1.2c0.4-0.3,1.9-1.6,4.4-1.6c3.1,0,4.5,2,4.8,2.4c0.3-0.3,2.3-2.4,5.7-2.4c3.9,0,6.8,2.3,6.8,7.3v11.6H157.4L157.4,31.7
			z"/>
		<path class="st3" d="M176.4,20.3H170c0.1-1.5,1-3.3,3.2-3.3C175.4,17,176.3,18.7,176.4,20.3L176.4,20.3z M181.2,22.4
			c0-5.7-3-9.7-7.9-9.7c-4.7,0-8.3,4-8.3,9.7c0,5.9,3.4,9.6,8.7,9.6c2.5,0,5.2-1.1,6.6-3l-2.9-2.7c-0.2,0.3-1.4,1.6-3.7,1.6
			c-2,0-3.7-1.4-3.9-4h11.2C181.2,23.6,181.2,23.1,181.2,22.4L181.2,22.4z"/>
		<path class="st3" d="M15.3,28.6c-0.8,0.5-1.9,1-3.2,1.5c1.4,1.3,4.7,4,9.5,4c1.1,0,1.5-0.6,1.5-1.2c0-0.8-0.8-1.3-2.1-1.6
			c-1.6-0.5-4.3-1.1-4.3-3.2c0-0.2,0-0.4,0.1-0.6C16.4,28,15.9,28.3,15.3,28.6L15.3,28.6z M30.2,8.5c-0.6,0-1.1,0.5-1.1,1.1
			c0,0.5,0.4,1.2,0.9,1.9c0.8,1,2,2.5,2,3.9c0,0.9-0.5,1.5-0.8,1.7C31.5,17,31.7,17,32,17c1,0,2.7,0.3,4.5,0.7
			c-0.3-1.9-1.4-6-5.4-8.8C30.8,8.6,30.5,8.5,30.2,8.5L30.2,8.5z M28.4,29.3c0.2,0.9,0.3,2.1,0.4,3.5c1.2-0.7,3.3-2,5-4.3
			c1.2-1.8,1.9-3.5,1.9-4.2c0-0.8-0.7-1.1-1.1-1.1c-0.6,0-1.2,0.6-1.9,1.5c-1,1.4-2.4,3.7-4.4,3.1c-0.2-0.1-0.4-0.2-0.5-0.3
			C28.1,28,28.3,28.7,28.4,29.3L28.4,29.3z M27.7,21.5c0.8-2.5,1.7-3.6,2.7-4.2c-1.2,0.1-2.9-0.6-4.8-2c-2.1-1.5-2.9-2.8-3.1-3.8
			c-0.2,1.2-1.5,2.6-3.4,4c-2.1,1.5-3.5,1.9-4.6,1.8c1.1,0.6,2,2.2,2.7,4.5c0.4,1.3,0.6,2.4,0.6,3.2c0,0.7-0.1,1.3-0.3,1.7
			c0.9-0.8,2.7-1.2,5.1-1.2c2.6,0,4,0.5,4.8,1.3c-0.2-0.4-0.3-1-0.3-1.6C27,24.2,27.2,22.9,27.7,21.5L27.7,21.5z M29,38.1
			c0,3.9-4.3,4.2-6.8,4.2c-2.3,0-5.2-0.4-7.4-1.5c-2.7-1.2-3.5-2.4-3.5-5.6c0-1.6,0.1-3.7,0.2-4.9c-1.4,0.5-2.9,1.1-4.4,1.5
			c-3.7,1.2-5.3-2.8-6.1-5.2c-0.7-2.2-1-4.4-1-6.1c0-4.1,1.3-5.5,4.4-6.5c1.6-0.5,3.6-1,4.7-1.3c-0.9-1.1-1.9-2.4-2.8-3.7
			C5.7,8.4,5.5,7.7,5.5,7c0-2.3,2.3-4.1,3.8-5.2c1.9-1.4,5.5-3.4,8.7-3.4c1.7,0,2.9,0.8,4.3,2.7c1,1.3,2.1,3.1,2.7,4.1
			c0.8-1.2,1.7-2.6,2.6-3.8c0.8-1.1,1.9-1.6,2.9-1.6c1.9,0,3.8,1.3,5.1,2.2c1.9,1.4,4,3.4,5.2,5.6c0.7,1.2,1,2.1,1,3
			c0,1.1-0.5,2.2-1.5,3.5c-1,1.3-2.3,2.9-3,3.8c1.4,0.4,3,0.8,4.4,1.3c2,0.7,2.6,2.2,2.6,3.9c0,3.3-2.2,8-4.5,10.5
			c-1.3,1.4-2.4,2.1-3.8,2.1c-0.7,0-1.6-0.2-2.6-0.5c-1.6-0.5-3.5-1.2-4.6-1.7C29,35,29,36.6,29,38.1L29,38.1z M22.5,5.6
			c-2.2,0-5.1,0.5-8,2.5c-0.5,0.4-0.7,0.8-0.7,1.1c0,0.3,0.3,1.1,1.2,1.1c1.4,0,3.2-1.2,5.1-1.2c1.8,0,2.2,1.3,2.2,1.5
			c0.1-0.8,0.8-2.6,2.3-4.9C24.1,5.7,23.4,5.6,22.5,5.6L22.5,5.6z M9.5,13.4c-0.8,1.7-2.4,5.7-0.9,10.3c0.3,1,1,1.2,1.6,1
			c0.8-0.3,0.9-1.2,0.9-2.5c0-1.7-0.2-4.5,1.7-5.1c0.2-0.1,0.4-0.1,0.6-0.1C12.6,16.7,11.2,15.4,9.5,13.4L9.5,13.4z"/>
	</g>
</g>
<g id="Capa_14">
	<g>
		<path class="st4" d="M20.6,3.8c0,4.5,7.5,9.5,7.5,14.6c0,0,0,0.5-0.2,1c7,1.5,12,5,12,9.1c0,5.5-8.9,10.1-19.9,10.1
			c-11.2,0-19.9-4.5-19.9-9.8c0-4.1,5.4-7.4,11.9-9.2c0,2.3,7.4,9.4,7.6,12.3c0,0.3,0.1,0.6,0,1c1.6-0.8,1.6-3.5,1.6-3.5
			c0-6.3-7.2-9.1-7.2-15.2c0-2.4,1.1-4.2,2.1-4.7v1.7c0,4.5,7.8,9.5,7.8,13.6v1.3c1.8-0.7,1.8-4.1,1.8-4.1c0-5.6-7.2-8.8-7.2-15.2
			c0-2.4,1.1-4.2,2.1-4.7V3.8z"/>
		<path class="st4" d="M55.7,36.8c-3.8,0-6.5-1.1-6.5-1.1v-6.7h0.9c0.5,3.5,3.1,6.2,6.2,6.2c3,0,5.1-1.7,5.1-4.4
			c0-2.9-2.8-4.2-4.7-5.1L54,24.4c-2.6-1.3-4.7-3.4-4.7-6.4c0-3.7,2.7-6.9,7.9-6.9c3.5,0,6.5,1.2,6.5,1.2v6h-0.9
			c-0.6-3.2-2.3-5.7-5.8-5.7c-2.6,0-4.2,1.8-4.2,3.7c0,2.4,1.7,3.5,3.6,4.5l2.7,1.4c2.5,1.3,5.5,3.4,5.5,7
			C64.6,33.8,61.5,36.8,55.7,36.8"/>
		<path class="st4" d="M73.2,29.6c-0.7,0.3-2,0.9-2,2.6c0,0.9,0.5,2.4,2.3,2.4c0.9,0,2.1-0.5,3-1.2v-5.2L73.2,29.6z M71.8,36.7
			c-2.4,0-3.9-1.6-3.9-3.9c0-1.7,1.2-3,3.9-4l4.7-1.7v-1.5c0-2.2-1-3.6-2.5-3.6c-1,0-2.1,0.5-2.6,1.4c-0.2,0.3-0.2,0.8-0.2,1.1
			c0,0.6,0.4,1.3,0.4,1.3l-2.3,1.1c-0.3-0.5-0.6-1.2-0.6-2c0-0.1,0-0.3,0-0.4c0.2-1.3,1.3-2.1,2.7-3c1.4-0.9,2.6-1.1,3.5-1.1
			c4.4,0,5.1,3.5,5.1,4.7v7.3c0,1.2,0.1,1.9,1,1.9c0.3,0,0.5,0,0.8-0.1l0.8-0.3v1.1l-4.9,1.8c-0.7-0.5-1.1-1.5-1.2-2.3
			C75.5,35.4,73.5,36.7,71.8,36.7"/>
		<path class="st4" d="M83.8,36.3v-0.8l1.1-0.2c0.7-0.1,1.2-0.7,1.2-1.4v-9.4c0-0.8-0.4-1.2-1.1-1.2c-0.2,0-0.5,0-0.8,0.1l-0.5,0.2
			v-1.1l5-2.2h0.7v2.6c1.5-1.7,3.3-2.6,4.9-2.6c3.5,0,5.2,2.6,5.2,5.6v8c0,0.7,0.5,1.3,1.2,1.4l1.2,0.2v0.8h-8.3v-0.8l1.1-0.2
			c0.7-0.1,1.3-0.7,1.3-1.4v-8c0-1.1-0.3-3.4-3.1-3.4c-1.5,0-2.8,1-3.6,1.7v9.7c0,0.7,0.6,1.2,1.3,1.4l1.1,0.2v0.8H83.8z"/>
		<path class="st4" d="M114.1,22.5h-4.9v8.7c0,1.9,1,3,2.5,3c0.6,0,1.5-0.2,2.4-0.7l0.4,0.8l-3.1,2c0,0-0.6,0.1-0.9,0.1
			c-3,0-4.7-1.8-4.7-5.6v-8.4h-2.5v-0.9c0,0,3.8-1.5,5.3-5.1h0.7V21h5.5L114.1,22.5z"/>
		<path class="st4" d="M121.4,29.6c-0.7,0.3-2,0.9-2,2.6c0,0.9,0.5,2.4,2.3,2.4c0.9,0,2.1-0.5,3-1.2v-5.2L121.4,29.6z M119.9,36.7
			c-2.4,0-3.9-1.6-3.9-3.9c0-1.7,1.2-3,3.9-4l4.7-1.7v-1.5c0-2.2-1-3.6-2.5-3.6c-1,0-2.1,0.5-2.6,1.4c-0.2,0.3-0.2,0.8-0.2,1.1
			c0,0.6,0.4,1.3,0.4,1.3l-2.3,1.1c-0.3-0.5-0.6-1.2-0.6-2c0-0.1,0-0.3,0-0.4c0.2-1.3,1.2-2.1,2.7-3c1.4-0.9,2.6-1.1,3.5-1.1
			c4.4,0,5.1,3.5,5.1,4.7v7.3c0,1.2,0.1,1.9,1,1.9c0.3,0,0.5,0,0.8-0.1l0.8-0.3v1.1l-4.9,1.8c-0.7-0.5-1.1-1.5-1.2-2.3
			C123.6,35.4,121.6,36.7,119.9,36.7"/>
		<path class="st4" d="M131.9,36.3v-0.8l1.1-0.2c0.7-0.1,1.2-0.7,1.2-1.4v-9.4c0-0.8-0.4-1.2-1.1-1.2c-0.2,0-0.5,0-0.8,0.1l-0.5,0.2
			v-1.1l5-2.2h0.7v2.6c1.5-1.7,3.3-2.6,4.9-2.6c3.5,0,5.2,2.6,5.2,5.6v8c0,0.7,0.5,1.3,1.2,1.4l1.2,0.2v0.8h-8.3v-0.8l1.1-0.2
			c0.7-0.1,1.2-0.7,1.2-1.4v-8c0-1.1-0.3-3.4-3.1-3.4c-1.5,0-2.8,1-3.6,1.7v9.7c0,0.7,0.6,1.2,1.3,1.4l1.1,0.2v0.8H131.9z"/>
		<path class="st4" d="M160.6,21.8c-2.5,0-5.1,1.6-5.1,6.3c0,4,1.9,6.3,5,6.3c1.8,0,3-1.1,3.3-1.7v-9.2
			C163.4,22.5,162.1,21.8,160.6,21.8 M159,36.7c-3.3,0-7.2-2.5-7.2-7.8c0-4.7,3.6-8.5,8.4-8.5c1.6,0,2.7,0.3,3.6,0.7v-8.1
			c0-0.8-0.5-1.1-1-1.1c-0.3,0-0.7,0.1-1,0.2l-0.7,0.2v-1.1l5.4-2.3h0.7v23.2c0,1.3,0.2,2.1,1.1,2.1c0.3,0,0.5,0,0.8-0.1l0.8-0.3
			v1.1l-4.9,1.8c-0.8-0.5-1.1-1.5-1.3-2.3C163,35.3,161.4,36.7,159,36.7"/>
		<path class="st4" d="M182.3,25.8L182.3,25.8c0-2.7-1.5-4-3.2-4c-1.9,0-3.4,1.3-3.8,4H182.3z M175.2,27.2v0.2
			c0,4.7,2.6,7.1,5.9,7.1c1.7,0,3.2-0.6,4.4-1.6v1.4c-1.4,1.3-3.5,2.4-6.1,2.4c-5.4,0-7.8-4.1-7.8-8c0-4.6,3.4-8.3,7.9-8.3
			c3.7,0,6.5,2.6,6.5,6.5v0.5H175.2z"/>
		<path class="st4" d="M188,36.3v-0.8l1.1-0.2c0.7-0.1,1.2-0.7,1.2-1.4v-9.4c0-0.8-0.4-1.2-1.1-1.2c-0.2,0-0.5,0-0.8,0.1l-0.5,0.2
			v-1.1l4.9-2.2h0.7v3.4c1.3-2.5,2.7-3.5,4.4-3.5c1.4,0,1.7,0.4,1.7,0.4v3.7h-0.7c-0.2-1-0.8-1.5-1.9-1.5c-1.1,0-2.5,0.3-3.5,2.4
			v8.7c0,0.7,0.7,1.3,1.4,1.4l1.7,0.2v0.8H188z"/>
	</g>
</g>
</svg>
