<?xml version="1.0" encoding="utf-8"?>
<!-- Generator: Adobe Illustrator 18.0.0, SVG Export Plug-In . SVG Version: 6.00 Build 0)  -->
<!DOCTYPE svg PUBLIC "-//W3C//DTD SVG 1.1//EN" "http://www.w3.org/Graphics/SVG/1.1/DTD/svg11.dtd">
<svg version="1.1" id="Capa_1" xmlns="http://www.w3.org/2000/svg" xmlns:xlink="http://www.w3.org/1999/xlink" x="0px" y="0px"
	 viewBox="0 0 612 792" enable-background="new 0 0 612 792" xml:space="preserve">
<title>icon-cart-plus-hover</title>
<g id="Group-49">
	<path fill="#878787" d="M424.7,337.7v130.5c0.1,4.1-1.4,8.1-4.2,11.1c-2.5,2.9-6,4.8-9.7,5.6l-266.5,30.5c1.8,5.9,2.7,11.9,2.8,18
		c-0.7,5.9-2.6,11.5-5.6,16.7h234.6c8.4,0,15.3,6.8,15.3,15.3c0,8.4-6.8,15.3-15.3,15.3H113.8c-4.1,0.1-8.1-1.4-11.1-4.2
		c-3.2-2.9-5.2-6.8-5.6-11.1c0-2.8,0.4-5.7,1.4-8.3c1.1-3.3,2.5-6.6,4.2-9.7c1.6-3.4,3.5-6.6,5.6-9.7c1.5-2.2,2.9-4.6,4.2-6.9
		L68,321H16.7c-4.4,0.2-8.6-1.9-11.1-5.6c-6.1-4.6-7.4-13.3-2.8-19.4c0.8-1.1,1.7-2,2.8-2.8c3-2.8,7-4.3,11.1-4.2h65.2
		c2.4-0.4,4.9,0.1,6.9,1.4c2.1,1,4,2.4,5.6,4.2c1.7,1.9,2.7,4.4,2.8,6.9c0,2.8,1.4,4.2,1.4,6.9c0.6,2.3,1.1,4.6,1.4,6.9
		s0.8,4.7,1.4,6.9h306.8c4.1-0.1,8.1,1.4,11.1,4.2C423.1,328.8,425.3,333.2,424.7,337.7z M154.1,591.7c13,13.1,13,34.1,0,47.2
		c-6.1,6.5-14.7,10.1-23.6,9.7c-8.9,0.1-17.4-3.4-23.6-9.7c-13-13.1-13-34.1,0-47.2c6.1-6.5,14.7-10.1,23.6-9.7
		C139.3,582.3,147.6,585.7,154.1,591.7z M383.1,591.7c13,13,13.1,34.1,0.1,47.1c-6.3,6.3-14.8,9.8-23.7,9.8
		c-8.9,0.1-17.4-3.4-23.6-9.7c-13-13-13.1-34.1-0.1-47.1c6.3-6.3,14.8-9.8,23.7-9.8C368.3,582.3,376.7,585.7,383.1,591.7z"/>
	<g id="Group-25">
		<circle id="Oval-2" fill="#DA262D"  cx="478.7" cy="276.6" r="133.3"/>
		<g>
			<path fill="#FFFFFF" d="M499.7,266.9h44.4v30.5h-44.4v50h-33.3v-50H422v-30.5h44.4v-48.6h33.3V266.9z"/>
		</g>
	</g>
</g>
</svg>