<?xml version="1.0" encoding="utf-8"?>
<!-- Generator: Adobe Illustrator 21.0.0, SVG Export Plug-In . SVG Version: 6.00 Build 0)  -->
<svg version="1.1" xmlns="http://www.w3.org/2000/svg" xmlns:xlink="http://www.w3.org/1999/xlink" x="0px" y="0px"
	 viewBox="0 0 200 68.7" style="enable-background:new 0 0 200 68.7;" xml:space="preserve">
<style type="text/css">
	.st0{display:none;}
	.st1{display:inline;}
	.st2{fill-rule:evenodd;clip-rule:evenodd;fill:#808080;}
	.st3{fill:#808080;}
	.st4{display:inline;fill-rule:evenodd;clip-rule:evenodd;fill:#808080;}
</style>
<g id="Capa_1" class="st0">
	<g class="st1">
		<polygon class="st2" points="10.9,29.2 19.7,29.2 19.7,39.6 33.6,39.6 33.6,29.2 42.4,29.2 52.8,48.4 44.1,48.4 39.1,39.2 
			26.7,48.4 14.2,39.2 9.2,48.4 0.5,48.4 		"/>
		<polygon class="st2" points="52.9,29.2 52.9,20.4 0.5,20.4 0.5,29.2 9.2,29.2 10.1,27.4 21.4,27.4 21.4,37.9 31.9,37.9 31.9,27.4 
			43.2,27.4 44.1,29.2 		"/>
		<polygon class="st3" points="190.6,25.7 183.3,33.8 191.3,43.1 184.8,43.1 180.1,37.4 175,43.1 169.2,43.1 177.3,34 170.5,25.7 
			176.2,25.7 180.5,30.6 184.8,25.7 		"/>
		<polygon class="st3" points="155,31.9 165.9,31.9 165.9,35.5 155,35.4 155,39.6 167.9,39.6 167.9,43.1 150.3,43.1 150.3,25.7 
			167.9,25.7 167.9,29.2 155,29.2 		"/>
		<polygon class="st3" points="87,31.9 98,31.9 98,35.5 87,35.4 87,39.6 99.9,39.6 99.9,43.1 82.4,43.1 82.4,25.7 99.9,25.7 
			99.9,29.2 87,29.2 		"/>
		<polygon class="st3" points="122.8,25.7 130.9,25.7 134.9,35.7 138.9,25.7 147.2,25.7 147.2,43.1 142.4,43.1 142.4,29.2 
			136.5,43.1 133.1,43.1 127.4,29.2 127.4,43.1 122.8,43.1 		"/>
		<polygon class="st3" points="61.6,25.7 80.1,25.7 80.1,29.2 73.1,29.2 73.1,43.1 68.5,43.1 68.5,29.2 61.6,29.2 		"/>
		<polygon class="st3" points="103.1,25.7 107.9,25.7 107.9,39.6 120.7,39.6 120.7,43.1 103.1,43.1 		"/>
		<path class="st2" d="M194.7,39.3h1.8c0.3,0,0.5,0,0.7,0.1c0.4,0.2,0.5,0.5,0.5,0.9c0,0.2,0,0.4-0.1,0.6c-0.1,0.1-0.2,0.3-0.4,0.4
			c0.1,0.1,0.3,0.1,0.3,0.2c0.1,0.1,0.1,0.3,0.1,0.5l0,0.5c0,0.1,0,0.3,0,0.3c0,0.1,0.1,0.2,0.2,0.2v0.1h-0.6c0,0,0-0.1,0-0.1
			c0-0.1,0-0.2,0-0.3l0-0.6c0-0.3-0.1-0.4-0.3-0.5c-0.1,0-0.3-0.1-0.5-0.1h-1.2v1.7h-0.5V39.3 M196.4,41.1c0.2,0,0.4-0.1,0.6-0.1
			c0.1-0.1,0.2-0.3,0.2-0.5c0-0.3-0.1-0.5-0.3-0.6c-0.1-0.1-0.2-0.1-0.4-0.1h-1.3v1.3H196.4 M196,38.3c-1.7,0-3.1,1.4-3.1,3.1
			c0,1.7,1.4,3.1,3.1,3.1s3.1-1.4,3.1-3.1C199.1,39.7,197.7,38.3,196,38.3 M196,37.9c1.9,0,3.5,1.6,3.5,3.5c0,1.9-1.6,3.5-3.5,3.5
			c-1.9,0-3.5-1.6-3.5-3.5C192.6,39.5,194.1,37.9,196,37.9z"/>
	</g>
</g>
<g id="Capa_2" class="st0">
	<g class="st1">
		<g>
			<path class="st2" d="M150.9,44.9C150.9,44.9,150.9,44.8,150.9,44.9L150.9,44.9L150.9,44.9L150.9,44.9z M150.9,44.9L150.9,44.9
				C150.9,44.9,150.9,44.9,150.9,44.9L150.9,44.9L150.9,44.9L150.9,44.9z M144.4,37.5L144.4,37.5c0.1,0,0.1,0,0.1,0
				C144.5,37.5,144.5,37.5,144.4,37.5L144.4,37.5L144.4,37.5L144.4,37.5z M136.3,23.1h7.4c3.5,0,4.6,1.9,4.6,3.5
				c0,2.4-2.1,4.5-6.6,4.5h-7L136.3,23.1L136.3,23.1L136.3,23.1z M149.6,45.4l0.1-0.7c0.4-2.6-0.5-4.2-1.2-5.2c-1-1.2-2.5-2-4-2
				c0,0-0.1,0-0.1,0h-11.2l0.3-1.3c0,0,10.9,0,11,0c0,0,0,0,0,0c3.9-0.1,6.4-1.9,7.8-3.5c1.8-2,2.9-4.7,2.9-7.3c0-2-0.7-3.8-1.9-5.1
				c-1.3-1.4-3.3-2.2-5.8-2.2h-16l-8.2,38.2h5.7l3.1-13.8h7.4c1.1,0,4.9-0.5,3.8,4.1c-0.3,1.6-1,5.7,0,9.7c0.8,0,3.7,0,6.6,0
				C148.6,52.9,149,49,149.6,45.4L149.6,45.4L149.6,45.4z M162,24.2c0-8.3-5.3-12.1-14.5-12.1c-10.5,0-21.7,0-21.7,0l-9.7,44.2h5.9
				l8.5-39.4h17c2.8,0,5.1,0.9,6.7,2.6c1.4,1.5,2.2,3.6,2.2,6c0,2.9-1.2,5.9-3.2,8.1c-1.2,1.3-3,2.7-5.7,3.4c0.7,0.4,1.4,1,1.9,1.6
				c0.9,1.2,2,3.2,1.5,6.2l0-0.1c0,0,0,0,0,0.1v0c0,0,0,0,0,0c0,0.1,0,0.3-0.1,0.7c-0.5,3.5-1,7.5,0.3,10.7c2.9,0,5.5,0,5.5,0
				c-0.3-1-1-2.3-0.2-5.6c0.9-3.7,2.2-10.9-2.5-13.4C155.2,36.8,162,33.9,162,24.2L162,24.2L162,24.2z M17.1,52.3
				c8.1,0,13.6-3.6,14.6-9.6c0.7-4.5-3.3-6-7.9-7.2c-0.9-0.2-1.6-0.5-2.6-0.7c-4-1-11.6-3-11.1-9.8c0.6-8.8,10.7-9.5,13.8-9.5
				c4.5,0,7.7,1.5,9.5,4.4c1.4,2.3,1.5,4.9,1.6,6.1V26l5.9,0c0-9-3.9-15.1-15.7-15.1c-10.6,0-19.1,4.5-20.7,14
				c-2.9,17,20.9,11.7,19.7,18.5c-0.3,2.1-2.2,4-5.7,4c-1.4,0-2.8-0.4-3.8-1.1c-1.1-0.7-2.1-1.9-2-6.6H6.9c-0.1,4.4,0.3,7,1.5,8.7
				C11,52.1,16.1,52.3,17.1,52.3L17.1,52.3L17.1,52.3z M16.7,57.8c11.7,0.1,20.5-4.6,22.1-14.9C41.2,26,16.6,31,17.6,23.8
				c0.2-1.6,1.7-2.8,4.8-2.8c1.3,0,2.5,0.3,3.4,0.8c0.9,0.6,1.5,1.5,1.8,4.2l6.1,0v-0.1c-0.1-1-0.2-3.4-1.4-5.4
				c-1.5-2.5-4.4-3.8-8.4-3.8c-2.8,0-12.1,0.6-12.6,8.3c-0.4,5.7,5.9,7.4,10.2,8.5c1,0.3,1.8,0.5,2.7,0.7c3.7,1,9.8,2.6,8.7,8.7
				c-1.1,6.7-7,10.7-15.8,10.7c-1.1,0-6.7-0.2-9.6-4.5c-1.4-1.8-1.9-4.8-1.8-9.4H0.2c-0.1,1-0.2,2.1-0.2,3C0,52,5.3,57.7,16.7,57.8
				L16.7,57.8L16.7,57.8z M95,12.2L69.9,56.4h5.7l24.9-44.2H95L95,12.2L95,12.2z M93.4,37.4l5.5-9.8l1.6,9.8H93.4L93.4,37.4
				L93.4,37.4z M107.9,12.2H102L77,56.4h5.7l4.2-7.2h15.2l1.3,7.2h5.3l-2.2-12.5H89.8l0.7-1.3h15.9l-3.8-21.6l1-1.8l6.4,37.3h5.4
				L107.9,12.2L107.9,12.2L107.9,12.2z M46.3,50h24.2l1-4.5H52.7l1.4-5.9h17.7l1-4.9H55.2l0.3-1.3H73l1-4.8H56.5l1.4-5.6h18.5l1-4.6
				h-24L46.3,50L46.3,50L46.3,50z M47.2,12.1l-9.8,44.3H69l1.1-5H44.7l7.8-34.1h25.2l1.2-5.2H47.2L47.2,12.1L47.2,12.1z M191.5,20.5
				c-1.6-2.5-4.4-3.8-8.5-3.8c-2.8,0-12.1,0.6-12.6,8.3c-0.4,5.7,6,7.4,10.2,8.5c1,0.3,1.8,0.5,2.7,0.7c3.7,1,9.8,2.6,8.8,8.7
				c-1.1,6.7-7,10.7-15.8,10.7c-1.1,0-6.7-0.2-9.6-4.5c-1.4-1.8-1.9-4.8-1.8-9.4h-5.5c-1.2,11.2,4,18.1,16.5,18.2
				c11.7,0.1,20.6-4.6,22.1-14.9c2.5-16.8-22.1-11.9-21.2-19.1c0.2-1.6,1.7-2.8,4.7-2.8c1.4,0,2.6,0.3,3.5,0.8
				c0.9,0.6,1.5,1.5,1.8,4.2l6.1,0v-0.1C192.8,24.9,192.7,22.5,191.5,20.5L191.5,20.5L191.5,20.5z M184.3,10.9
				c-10.6,0-19.1,4.5-20.7,14c-2.9,17,20.8,11.7,19.7,18.5c-0.4,2.1-2.2,4-5.7,4c-1.3,0-2.7-0.4-3.8-1.1c-1-0.7-2.1-1.9-2-6.6h-5.8
				c-0.1,4.3,0.4,7.1,1.6,8.7c2.5,3.8,7.6,4,8.6,4c8.1,0,13.6-3.6,14.6-9.6c0.8-4.5-3.3-6-7.9-7.2c-0.9-0.2-1.6-0.5-2.6-0.7
				c-4-1-11.5-3-11.1-9.8c0.6-8.8,10.7-9.5,13.8-9.5c4.5,0,7.7,1.5,9.5,4.4c1.4,2.3,1.5,4.9,1.5,6.1V26l5.9,0
				C199.9,17,196.1,10.9,184.3,10.9L184.3,10.9z"/>
		</g>
	</g>
</g>
<g id="Capa_3" class="st0">
	<path class="st4" d="M16.1,25.8c0,0-7.7,3.1-8,4.9c0,0-1.5,2.2,4.3,1.7c0,0,17.3-1.7,17.9,6.1c0,0,0.2,3.1-3.1,5.8
		c0,0-7.6,7.1-21,4.8c0,0-6.1-0.4-5.9-4c0,0,0.9-1.7,3.3,0c0,0,12.3,3.1,18.2-1.8c0,0,2.6-2.5,0.7-3.7c0,0-3.5-1.8-8.1-1.9
		c0,0-13.7,1.6-14.4-4c0,0-1.2-4.8,7.2-9.4c0,0,12.4-6,23.1-5.6c0,0,5.9-1.6,6.3,3.4c0,0-2.1,4.7-9.9,5.1c0,0-7.7,0.3-8.4-1.6
		C18.4,25.7,18.1,25.2,16.1,25.8L16.1,25.8z M25.6,25c0,0,2.2-0.3,1.7-1.9c0,0-2.7-1.3-5.1,0.8C22.1,23.9,21.1,25.6,25.6,25L25.6,25
		z M51.6,36c0,0,0.7-3-7.7-2c0,0-12.5,2.2-12.3,10.8c0,0,1.3,6.8,8.5,3.6c0,0,4.7-2.5,5.9-3.3c0,0,0.4,5.5,6,4.9c0,0,3.7,0.3,7-4.2
		c0,0,3.4-4.3,4.1-4.1c0,0,1.8-0.2,0.6,1.7c0,0-2.6,4.2,1.1,5c0,0,4,1.4,6.3-2.2c0,0,3.6-5.5,5.7-5.5c0,0,0.8,0.3-0.5,2.2
		c0,0-2,5.5,3.6,5.9c0,0,5.5,0.5,6.4-1.9c0,0,1.1-2.3-1.8-0.8c0,0-3.9,2.3-2.4-1.2c0,0,5.9-7.7,0.2-9.8c0,0-3-1.4-5.2,0.2
		c0,0-3.3,3.5-4.7,3.7c0,0-1.2,0.2-1.4-2.3c0,0-1.2-3.8-5.9-1.5c0,0-3,2.6-8.6,9.3c0,0-5.1,5.2-3.8,0.1c0,0,3.7-5.8-0.2-7.1
		c0,0-2.2-1-5.6,2.4c0,0-6.8,6-8.5,6c0,0-2.1-0.3,0.9-4.2c0,0,3.3-4.4,8.9-4.8C48.2,37.1,51.6,37.1,51.6,36L51.6,36z M98,34.1
		c-1.3,3.6,1.4,0.8,1.4,0.8c6.5-3.4,6.5,3.5,6.5,3.5c1.3,1.7,3.8-0.4,3.8-0.4c1.3-0.8,2.8-2.4,2.8-2.4c4.2-3.8,6.9-0.9,6.9-0.9
		c0.6,1.7,2.2,0.4,2.2,0.4c5.4-1.6,4.3,2.5,4.3,2.5c-1.6,0.4-0.7,2.2-0.7,2.2c0.6,2.2,3.9-1.3,3.9-1.3c1.9-0.5,0.9-3.1,0.9-3.1
		c0.1-2.1,2.7-1.3,2.7-1.3c1.8,1.4,4.3,0.3,4.3,0.3c4.2-0.2,3.8,2,3.8,2c1.6,1.6,0,3.4,0,3.4c-2.9,2.7-3,5.8-3,5.8
		c0.2,3.5,7.2-4.7,7.2-4.7c5.4-7.6,10.1-6.4,10.1-6.4c4.3-0.1,3.1,6.4,3.1,6.4l5.3-4.9c1.9-2.6,4.6-1.8,4.6-1.8
		c5.9,1.5,1.5,8.7,1.5,8.7c-1.2,2.9,1.7,1.8,1.7,1.8c2-2.8,6.7-7.2,6.7-7.2c7.6-6.9,11.3-5.2,11.3-5.2c2.9,0.6,0.4,2.9,0.4,2.9
		c-1.5,2.1-0.4,5.9-0.4,5.9L200,41l-3.1,3.7l-8.9-0.1c-1.5,3.1-5.7,3.1-5.7,3.1c-5.1-0.5-5.6-4.7-5.6-4.7c-0.8-0.1-3.8,3.1-3.8,3.1
		c-2,2.6-7.9,0.6-7.9,0.6c-3.1-0.9-1.1-6-1.1-6c-0.9-0.8-5.7,4.6-5.7,4.6c-2.6,3.9-6,2.3-6,2.3c-4-1.2-1.6-6-1.6-6
		c1.5-2.4,1.1-3,1.1-3c-2.2,1.3-6.1,6.1-6.1,6.1c-8,7.8-13.2,1.8-13.2,1.8c-2.5-3.8,3.3-8.7,3.3-8.7c-1.3-0.9-2.4,0.1-2.4,0.1
		c-3.6,6.5-10.1,5.9-10.1,5.9c-1.8,3.2-6.1,4.5-6.1,4.5c-11.1,2.9-8.5-6.1-8.5-6.1c-2.8,0.8-3.3-0.1-3.3-0.1c-0.2,0.7-2.2,1-2.2,1
		s-4.2,5.7-9,5.8c-4.8,0.1-6.2-2.7-5.5-7.5c0.7-4.7,7-14,7-14c-0.9,0.5-2-0.2-2-0.2c-0.8-1.8,4.8-4.1,4.8-4.1c4.5-2,3,0.9,3,0.9
		L98,34.1L98,34.1z M94.7,40.8c-1.9,5.8,0.3,6.3,0.3,6.3c2.1-0.1,3.8-4,3.8-4c0.5-2.1-1.8-4.7-1.8-4.7
		C95.7,38.1,94.7,40.8,94.7,40.8L94.7,40.8z M115.3,40c-3.1,8.3,0.9,6.4,0.9,6.4c3.2-1.9,3.2-4.3,3.2-4.3c0.1-1.5-1.6-4-1.6-4
		C116.7,37.4,115.3,40,115.3,40L115.3,40z M183.5,36.6c0,0-3.7,1-3.8,4.2c0,0,1.8,0.9,3.3-0.3C183,40.5,183.6,37.6,183.5,36.6
		L183.5,36.6z"/>
</g>
<g id="Capa_4" class="st0">
	<g class="st1">
		<path class="st2" d="M26.5,23.1c-3.1,0-5.8,1.1-8,3.3c-2.2,2.2-3.3,4.9-3.3,8c0,3.2,1.1,5.8,3.3,8c2.2,2.3,4.9,3.4,8,3.4
			c3.1,0,5.8-1.1,8-3.4c2.2-2.2,3.3-4.8,3.3-8c0-3.1-1.1-5.8-3.3-8C32.3,24.2,29.6,23.1,26.5,23.1L26.5,23.1z"/>
		<path class="st2" d="M26.5,21.1V8.3c-4.6,0-8.9,1.2-12.8,3.4v19.5c0.7-2.9,2.3-5.3,4.6-7.1C20.8,22.1,23.5,21.1,26.5,21.1
			L26.5,21.1z"/>
		<path class="st2" d="M23.8,47.5c-3-0.7-5.4-2.3-7.2-4.7c-2-2.4-2.9-5.1-2.9-8.2H0.5c0,4.6,1.2,8.9,3.5,12.8H23.8L23.8,47.5z"/>
		<path class="st2" d="M39.5,37.7c-0.7,2.9-2.2,5.3-4.6,7.2c-2.4,1.9-5.2,2.9-8.3,2.9v12.6c4.6,0,8.9-1.1,12.8-3.4V37.7L39.5,37.7z"
			/>
		<path class="st2" d="M52.6,34.2c0-4.6-1.2-8.9-3.5-12.8H29.8c3,0.7,5.4,2.3,7.2,4.6c2,2.5,2.9,5.2,2.9,8.3H52.6L52.6,34.2z"/>
		<polygon class="st2" points="58.6,22.1 58.6,37.2 63.1,37.2 63.1,22.1 58.6,22.1 		"/>
		<polygon class="st2" points="87.1,22.1 82.4,22.1 82.4,33 82.4,33 73.6,22.1 66.4,22.1 66.4,37.2 71.1,37.2 71.1,26.2 71.1,26.2 
			79.8,37.2 87.1,37.2 87.1,22.1 		"/>
		<path class="st2" d="M94.8,28.1v-2.4h8.3c0.9,0,1.4,0.4,1.4,1.2c0,0.8-0.5,1.2-1.4,1.2H94.8L94.8,28.1z M94.8,31.2h8.4
			c1.1,0,1.7,0.5,1.7,1.3c0,0.8-0.6,1.1-1.7,1.1h-8.4V31.2L94.8,31.2z M106.8,29.6L106.8,29.6c0.8-0.3,1.3-0.6,1.6-1
			c0.5-0.5,0.7-1.4,0.7-2.6c0-1.4-0.5-2.4-1.4-3.1c-0.9-0.6-2.3-0.8-4.2-0.8H90.1v15.1H105c1.5,0,2.6-0.2,3.3-0.7
			c0.8-0.7,1.3-1.8,1.3-3.3c0-1.2-0.2-2.1-0.6-2.6C108.5,30.1,107.8,29.7,106.8,29.6L106.8,29.6z"/>
		<path class="st2" d="M131.4,22.1h-4.6v8.8c0,0.9-0.3,1.6-0.6,2c-0.4,0.5-1.2,0.7-2.1,0.7h-4.6c-1,0-1.6-0.2-2.1-0.7
			c-0.4-0.4-0.5-1.1-0.5-2v-8.8h-4.7v9.7c0,1.9,0.5,3.3,1.5,4.2c1,1,2.6,1.4,4.7,1.4h6.8c2.1,0,3.7-0.4,4.7-1.4
			c1-0.9,1.5-2.3,1.5-4.2V22.1L131.4,22.1z"/>
		<path class="st2" d="M139,29.5v-3.7c2.5,0,4.9,0,7.4,0c1.2,0,2.1,0.2,2.1,1.6c0,0.2,0,0.3,0,0.5c0,1.1-0.6,1.6-1.7,1.6H139
			L139,29.5z M139,33.3h7.4c0.7,0,1.2,0.1,1.5,0.4c0.3,0.3,0.4,0.9,0.4,1.7v1.8h4.7v-2.6c0-1.1-0.2-2-0.7-2.5
			c-0.4-0.4-1-0.7-1.8-0.9c1-0.2,1.7-0.7,2.1-1.3c0.3-0.6,0.5-1.4,0.5-2.5v-0.9c0-1.5-0.3-2.6-0.9-3.3c-0.8-0.9-2-1.2-3.7-1.2h-14.1
			v15.1h4.7V33.3L139,33.3z"/>
		<path class="st2" d="M166,27.8l-4.7-0.2c-0.3,0-0.6-0.2-0.7-0.4c-0.1-0.1-0.2-0.4-0.2-0.7c0-0.8,0.6-1.2,1.8-1.2h5.2
			c1,0,1.7,0.1,2,0.3c0.2,0.2,0.3,0.6,0.3,1.3h4.7v-0.5c0-1.6-0.3-2.7-1-3.3c-0.8-0.9-2.5-1.3-4.9-1.3h-6.6c-2.7,0-4.5,0.5-5.3,1.4
			c-0.6,0.7-0.9,1.9-0.9,3.5c0,1.1,0.1,1.8,0.3,2.4c0.1,0.6,0.5,1,1,1.4c1,0.6,3.1,0.9,6.6,0.9l5.6,0.2c0.4,0,0.7,0.2,0.8,0.4
			l0.2,0.8c0,0.5-0.2,0.9-0.6,1.1l-1.4,0.2h-5.8l-1.5-0.3c-0.3-0.2-0.5-0.7-0.5-1.5h-4.7v1.1c0,1.6,0.5,2.7,1.4,3.3
			c0.8,0.5,2.4,0.8,4.6,0.8h5.7c3.1,0,5.2-0.3,6.1-0.9c0.6-0.3,1-0.8,1.2-1.4c0.2-0.6,0.3-1.5,0.3-2.5c0-1.2-0.1-2-0.4-2.6
			c-0.2-0.7-0.7-1.2-1.3-1.5C172.1,28,169.7,27.8,166,27.8L166,27.8z"/>
		<polygon class="st2" points="190.4,22.1 184.4,22.1 176.1,37.2 181.4,37.2 182.7,34.5 184.5,31.3 187.4,25.6 190.4,31.3 
			184.5,31.3 182.7,34.5 192.2,34.5 193.6,37.2 198.8,37.2 190.4,22.1 		"/>
		<path class="st2" d="M96.7,49.1V48l4.3,0v3.8c-0.7,0.5-1.3,0.9-2,1.2c-0.7,0.3-1.4,0.4-2.2,0.4c-1,0-1.9-0.2-2.7-0.6
			c-0.8-0.4-1.4-1-1.8-1.8c-0.4-0.8-0.6-1.7-0.6-2.7c0-1,0.2-1.9,0.6-2.8c0.4-0.9,1-1.5,1.8-1.9c0.8-0.4,1.7-0.6,2.7-0.6
			c0.7,0,1.4,0.1,2,0.4c0.6,0.2,1.1,0.6,1.4,1c0.3,0.4,0.6,1,0.8,1.7l-1.2,0.3c-0.2-0.5-0.3-0.9-0.6-1.2c-0.2-0.3-0.5-0.5-1-0.7
			c-0.4-0.2-0.9-0.3-1.4-0.3c-0.6,0-1.1,0.1-1.6,0.3c-0.4,0.2-0.8,0.4-1.1,0.7c-0.3,0.3-0.5,0.6-0.6,1c-0.3,0.6-0.4,1.3-0.4,2
			c0,0.9,0.2,1.7,0.5,2.3c0.3,0.6,0.8,1.1,1.4,1.4c0.6,0.3,1.2,0.4,1.9,0.4c0.6,0,1.1-0.1,1.7-0.3c0.6-0.2,1-0.5,1.3-0.7v-1.9H96.7
			L96.7,49.1z"/>
		<path class="st2" d="M102.8,53.1v-7.3h1.1v1.1c0.3-0.5,0.5-0.9,0.8-1c0.2-0.2,0.5-0.2,0.8-0.2c0.4,0,0.8,0.1,1.3,0.4l-0.4,1.2
			c-0.3-0.2-0.6-0.3-0.9-0.3c-0.3,0-0.5,0.1-0.7,0.2c-0.2,0.2-0.4,0.4-0.5,0.7c-0.1,0.4-0.2,0.9-0.2,1.4v3.8H102.8L102.8,53.1z"/>
		<path class="st2" d="M112.3,53.1V52c-0.6,0.8-1.3,1.2-2.3,1.2c-0.4,0-0.8-0.1-1.2-0.2c-0.4-0.2-0.7-0.4-0.8-0.6
			c-0.2-0.3-0.3-0.6-0.4-0.9c0-0.2-0.1-0.6-0.1-1.2v-4.5h1.2v4.1c0,0.7,0,1.1,0.1,1.3c0.1,0.3,0.2,0.6,0.5,0.8
			c0.3,0.2,0.6,0.3,0.9,0.3c0.4,0,0.7-0.1,1-0.3c0.3-0.2,0.6-0.5,0.7-0.8c0.1-0.3,0.2-0.8,0.2-1.4v-3.9h1.2v7.3H112.3L112.3,53.1z"
			/>
		<path class="st2" d="M115.4,55.9V45.8h1.1v1c0.3-0.4,0.6-0.7,0.9-0.8c0.3-0.2,0.7-0.3,1.2-0.3c0.6,0,1.2,0.2,1.7,0.5
			c0.5,0.3,0.8,0.8,1.1,1.4c0.2,0.6,0.4,1.2,0.4,1.9c0,0.7-0.1,1.4-0.4,2c-0.3,0.6-0.7,1.1-1.2,1.4c-0.5,0.3-1.1,0.5-1.6,0.5
			c-0.4,0-0.8-0.1-1.1-0.3c-0.3-0.2-0.6-0.4-0.8-0.7v3.6H115.4L115.4,55.9z M116.5,49.5c0,0.9,0.2,1.6,0.6,2.1
			c0.4,0.5,0.8,0.7,1.4,0.7c0.6,0,1-0.2,1.4-0.7c0.4-0.5,0.6-1.2,0.6-2.2c0-0.9-0.2-1.6-0.6-2.1c-0.4-0.5-0.8-0.7-1.4-0.7
			c-0.5,0-1,0.2-1.4,0.7C116.7,47.8,116.5,48.5,116.5,49.5L116.5,49.5z"/>
		<path class="st2" d="M122.8,49.4c0-1.4,0.4-2.4,1.1-3c0.6-0.5,1.4-0.8,2.3-0.8c1,0,1.8,0.3,2.5,1c0.6,0.7,1,1.6,1,2.7
			c0,0.9-0.1,1.7-0.4,2.2c-0.3,0.5-0.7,1-1.2,1.3c-0.5,0.3-1.1,0.4-1.8,0.4c-1,0-1.9-0.3-2.5-1C123.1,51.6,122.8,50.7,122.8,49.4
			L122.8,49.4z M124,49.4c0,0.9,0.2,1.6,0.6,2.1c0.4,0.5,0.9,0.7,1.5,0.7c0.6,0,1.1-0.2,1.5-0.7c0.4-0.5,0.6-1.2,0.6-2.1
			c0-0.9-0.2-1.6-0.6-2.1c-0.4-0.5-0.9-0.7-1.5-0.7c-0.6,0-1.1,0.2-1.5,0.7C124.2,47.8,124,48.5,124,49.4L124,49.4z"/>
		<polygon class="st2" points="135.2,53.1 135.2,43 142.1,43 142.1,44.2 136.6,44.2 136.6,47.3 141.3,47.3 141.3,48.5 136.6,48.5 
			136.6,53.1 135.2,53.1 		"/>
		<path class="st2" d="M143.6,44.4V43h1.2v1.4H143.6L143.6,44.4z M143.6,53.1v-7.3h1.2v7.3H143.6L143.6,53.1z"/>
		<path class="st2" d="M146.8,53.1v-7.3h1.1v1c0.5-0.8,1.3-1.2,2.3-1.2c0.4,0,0.8,0.1,1.2,0.2c0.4,0.2,0.6,0.4,0.8,0.6
			c0.2,0.3,0.3,0.6,0.4,0.9c0,0.2,0.1,0.6,0.1,1.2v4.5h-1.2v-4.5c0-0.5,0-0.9-0.1-1.1c-0.1-0.2-0.3-0.4-0.5-0.6
			c-0.2-0.2-0.5-0.2-0.9-0.2c-0.5,0-1,0.2-1.4,0.5c-0.4,0.3-0.6,1-0.6,1.9v4H146.8L146.8,53.1z"/>
		<path class="st2" d="M159.4,52.2c-0.5,0.4-0.9,0.7-1.3,0.8c-0.4,0.2-0.9,0.2-1.4,0.2c-0.8,0-1.4-0.2-1.9-0.6
			c-0.4-0.4-0.6-0.9-0.6-1.5c0-0.4,0.1-0.7,0.2-1c0.2-0.3,0.4-0.5,0.6-0.7c0.3-0.2,0.6-0.3,0.9-0.4c0.2-0.1,0.6-0.1,1.1-0.2
			c1-0.1,1.7-0.3,2.2-0.4c0-0.2,0-0.3,0-0.3c0-0.5-0.1-0.9-0.4-1.1c-0.3-0.3-0.8-0.4-1.4-0.4c-0.6,0-1,0.1-1.3,0.3
			c-0.3,0.2-0.5,0.6-0.6,1.1l-1.2-0.2c0.1-0.5,0.3-0.9,0.5-1.3c0.3-0.3,0.6-0.6,1.1-0.7c0.5-0.2,1-0.3,1.7-0.3
			c0.6,0,1.1,0.1,1.5,0.2c0.4,0.1,0.7,0.3,0.9,0.6c0.2,0.2,0.3,0.5,0.4,0.8c0,0.2,0.1,0.6,0.1,1.1V50c0,1.2,0,1.9,0.1,2.2
			c0.1,0.3,0.2,0.6,0.3,0.9h-1.3C159.5,52.9,159.4,52.6,159.4,52.2L159.4,52.2z M159.3,49.4c-0.5,0.2-1.1,0.3-2,0.5
			c-0.5,0.1-0.9,0.2-1.1,0.2c-0.2,0.1-0.4,0.2-0.5,0.4c-0.1,0.2-0.2,0.4-0.2,0.6c0,0.3,0.1,0.6,0.4,0.8c0.2,0.2,0.6,0.3,1.1,0.3
			c0.5,0,0.9-0.1,1.3-0.3c0.4-0.2,0.6-0.5,0.8-0.9c0.1-0.3,0.2-0.7,0.2-1.2V49.4L159.3,49.4z"/>
		<path class="st2" d="M162.5,53.1v-7.3h1.1v1c0.5-0.8,1.3-1.2,2.3-1.2c0.4,0,0.8,0.1,1.2,0.2c0.4,0.2,0.6,0.4,0.8,0.6
			c0.2,0.3,0.3,0.6,0.4,0.9c0,0.2,0.1,0.6,0.1,1.2v4.5h-1.2v-4.5c0-0.5,0-0.9-0.1-1.1c-0.1-0.2-0.3-0.4-0.5-0.6
			c-0.2-0.2-0.5-0.2-0.9-0.2c-0.5,0-1,0.2-1.4,0.5c-0.4,0.3-0.6,1-0.6,1.9v4H162.5L162.5,53.1z"/>
		<path class="st2" d="M175.1,50.4l1.2,0.2c-0.1,0.8-0.5,1.5-1,2c-0.5,0.5-1.2,0.7-2,0.7c-1,0-1.8-0.3-2.4-1
			c-0.6-0.7-0.9-1.6-0.9-2.8c0-0.8,0.1-1.5,0.4-2.1c0.3-0.6,0.7-1,1.2-1.3c0.5-0.3,1.1-0.4,1.7-0.4c0.8,0,1.4,0.2,2,0.6
			c0.5,0.4,0.8,1,1,1.7l-1.2,0.2c-0.1-0.5-0.3-0.9-0.6-1.1c-0.3-0.2-0.6-0.4-1.1-0.4c-0.6,0-1.1,0.2-1.5,0.7
			c-0.4,0.4-0.6,1.2-0.6,2.1c0,1,0.2,1.7,0.6,2.1c0.4,0.4,0.9,0.7,1.5,0.7c0.5,0,0.9-0.2,1.2-0.4C174.8,51.5,175,51,175.1,50.4
			L175.1,50.4z"/>
		<path class="st2" d="M177.4,44.4V43h1.2v1.4H177.4L177.4,44.4z M177.4,53.1v-7.3h1.2v7.3H177.4L177.4,53.1z"/>
		<path class="st2" d="M185.6,50.7l1.3,0.2c-0.2,0.8-0.6,1.3-1.1,1.7c-0.5,0.4-1.2,0.6-2.1,0.6c-1.1,0-1.9-0.3-2.5-1
			c-0.6-0.7-0.9-1.6-0.9-2.8c0-1.2,0.3-2.2,1-2.9c0.6-0.7,1.5-1,2.5-1c1,0,1.8,0.3,2.4,1c0.6,0.7,0.9,1.6,0.9,2.8c0,0.1,0,0.2,0,0.3
			h-5.5c0,0.8,0.3,1.4,0.7,1.8c0.4,0.4,0.9,0.6,1.5,0.6c0.5,0,0.8-0.1,1.2-0.4C185.1,51.7,185.4,51.3,185.6,50.7L185.6,50.7z
			 M181.5,48.7h4.1c-0.1-0.6-0.2-1.1-0.5-1.4c-0.4-0.5-0.9-0.7-1.5-0.7c-0.6,0-1.1,0.2-1.4,0.6C181.7,47.6,181.5,48.1,181.5,48.7
			L181.5,48.7z"/>
		<path class="st2" d="M188.4,53.1v-7.3h1.1v1.1c0.3-0.5,0.5-0.9,0.8-1c0.2-0.2,0.5-0.2,0.8-0.2c0.4,0,0.8,0.1,1.3,0.4l-0.4,1.2
			c-0.3-0.2-0.6-0.3-0.9-0.3c-0.3,0-0.5,0.1-0.7,0.2c-0.2,0.2-0.4,0.4-0.5,0.7c-0.1,0.4-0.2,0.9-0.2,1.4v3.8H188.4L188.4,53.1z"/>
		<path class="st2" d="M192.7,49.4c0-1.4,0.4-2.4,1.1-3c0.6-0.5,1.4-0.8,2.3-0.8c1,0,1.8,0.3,2.5,1c0.6,0.7,1,1.6,1,2.7
			c0,0.9-0.1,1.7-0.4,2.2c-0.3,0.5-0.7,1-1.2,1.3c-0.5,0.3-1.1,0.4-1.8,0.4c-1,0-1.9-0.3-2.5-1C193,51.6,192.7,50.7,192.7,49.4
			L192.7,49.4z M193.9,49.4c0,0.9,0.2,1.6,0.6,2.1c0.4,0.5,0.9,0.7,1.5,0.7c0.6,0,1.1-0.2,1.5-0.7c0.4-0.5,0.6-1.2,0.6-2.1
			c0-0.9-0.2-1.6-0.6-2.1c-0.4-0.5-0.9-0.7-1.5-0.7c-0.6,0-1.1,0.2-1.5,0.7C194.1,47.8,193.9,48.5,193.9,49.4L193.9,49.4z"/>
	</g>
</g>
<g id="Capa_5">
	<g>
		<path class="st3" d="M130.8,2c-16,0-27.3,8.5-27.4,20.7c-0.1,9,8,14.1,14.2,17.1c6.3,3.1,8.4,5,8.4,7.8c-0.1,4.2-5.1,6.1-9.7,6.1
			c-6.5,0-9.9-0.9-15.2-3.3l-2.1-1l-2.3,14c3.8,1.7,10.8,3.3,18.1,3.3c17,0,28.1-8.4,28.2-21.4c0.1-7.2-4.3-12.6-13.6-17
			c-5.6-2.9-9.1-4.8-9.1-7.8c0-2.6,2.9-5.4,9.3-5.4c5.3-0.1,9.1,1.1,12.1,2.4l1.4,0.7l2.2-13.6C142.1,3.3,137.1,2,130.8,2L130.8,2z
			 M80.5,3.1L70.4,65.8h16.2L96.7,3.1L80.5,3.1L80.5,3.1z M56.8,3.1L41,45.9l-1.7-8.7c-3.9-10.7-12.5-21.8-22.4-26.4l14.5,54.9
			l17.1,0L74,3.1L56.8,3.1L56.8,3.1z M174.4,3.1c-3.9,0-6.8,1.1-8.5,5.2l-24,57.5h17c0,0,2.8-7.7,3.4-9.4c1.9,0,18.4,0,20.7,0
			c0.5,2.2,2,9.4,2,9.4h15L186.9,3.1L174.4,3.1L174.4,3.1z M175.5,20l1.1,5.4c0,0,3.1,15,3.8,18.1h-13.4c1.3-3.6,6.5-17.5,6.5-17.5
			C173.3,26.2,174.7,22.4,175.5,20L175.5,20z"/>
		<path class="st3" d="M26.3,3.1H0.2L0,4.2c20.3,5.2,33.7,17.9,39.3,33L33.6,8.4C32.6,4.4,29.8,3.2,26.3,3.1"/>
	</g>
</g>
</svg>
