<?xml version="1.0" encoding="utf-8"?>
<!-- Generator: Adobe Illustrator 21.0.0, SVG Export Plug-In . SVG Version: 6.00 Build 0)  -->
<svg version="1.1" xmlns="http://www.w3.org/2000/svg" xmlns:xlink="http://www.w3.org/1999/xlink" x="0px" y="0px"
	 viewBox="0 0 200 200" style="enable-background:new 0 0 200 200;" xml:space="preserve">
<style type="text/css">
	.st0{display:none;}
	.st1{display:inline;}
	.st2{fill:#FFFFFF;}
	.st3{display:inline;fill:#FFFFFF;}
</style>
<g id="Capa_1" class="st0">
	<g class="st1">
		<rect width="200" height="200"/>
	</g>
</g>
<g id="Capa_2">
	<path id="XMLID_50_" class="st2" d="M114.9,60V44c0-7.8,5.2-9.6,8.8-9.6c3.6,0,22.4,0,22.4,0V0.1L115.3,0C81,0,73.2,25.6,73.2,41.9
		V60H53.3v24.2V100h20c0,45.3,0,100,0,100h40c0,0,0-55.2,0-100H143l1.4-15.7l2.2-24.3H114.9z"/>
</g>
<g id="Capa_3" class="st0">
	<path id="XMLID_72_" class="st3" d="M200,38.9c-7.4,3.2-15.3,5.4-23.6,6.4c8.5-5,15-12.9,18-22.4c-7.9,4.6-16.7,8-26.1,9.8
		c-7.5-7.8-18.1-12.8-29.9-12.8c-22.7,0-41,18.1-41,40.4c0,3.2,0.4,6.2,1.1,9.2c-34.1-1.7-64.3-17.8-84.6-42.2
		c-3.5,6-5.6,12.9-5.6,20.3c0,14,7.3,26.4,18.3,33.6c-6.7-0.2-13.1-2-18.6-5c0,0.2,0,0.3,0,0.5c0,5.2,1,10.1,2.8,14.6
		c5,12.7,16.3,22.2,30.1,25c-3.5,0.9-7.1,1.4-10.8,1.4c-2.6,0-5.2-0.3-7.7-0.7c5.2,16,20.4,27.7,38.3,28c-14,10.8-31.7,17.3-51,17.3
		c-3.3,0-6.6-0.2-9.8-0.6C18.2,173.3,39.8,180,62.9,180c64.1,0,103.6-44.4,114-90.5c1.8-8.1,2.8-16.4,2.8-24.4c0-1.7,0-3.5-0.1-5.2
		C187.6,54.2,194.5,47,200,38.9z"/>
</g>
<g id="Capa_4" class="st0">
	<path class="st3" d="M198,58.3c0,0-1.9-14.4-7.9-20.7c-7.6-8.3-16.1-8.3-20-8.8c-28-2.1-70-2.1-70-2.1H100c0,0-42,0-70,2.1
		c-3.9,0.5-12.4,0.5-20,8.8C4,43.9,2,58.3,2,58.3S0,75.2,0,92.1v2v13.8c0,16.9,2,33.8,2,33.8s2,14.4,7.9,20.7
		c7.6,8.3,17.6,8,22.1,8.9c16,1.6,68,2.1,68,2.1s42-0.1,70-2.2c3.9-0.5,12.4-0.5,20-8.8c6-6.3,7.9-20.7,7.9-20.7s2-16.9,2-33.8V95
		v-2.9C200,75.2,198,58.3,198,58.3z M133.4,97.9l-54,29.2l0-44.9l0-13.7l24.4,13.3L133.4,97.9z"/>
</g>
<g id="Capa_5" class="st0">
	<path class="st3" d="M161.3,0H38.6C17.3,0,0,17.3,0,38.6v40.8v15v66.8C0,182.7,17.3,200,38.6,200h122.7c21.3,0,38.7-17.3,38.7-38.6
		V94.5V79.5V38.6C200,17.3,182.7,0,161.3,0z M172.4,23.1l4.4,0v4.4v29.5L143.1,57L143,23.1L172.4,23.1z M71.5,79.5
		c6.4-8.9,16.8-14.7,28.5-14.7c11.7,0,22.1,5.8,28.5,14.7c0.8,1.1,1.5,2.2,2.1,3.4c2.9,5.1,4.5,10.9,4.5,17.2
		c0,19.4-15.8,35.2-35.2,35.2c-19.4,0-35.2-15.8-35.2-35.2c0-6.2,1.7-12.1,4.5-17.2C70,81.7,70.7,80.5,71.5,79.5z M180.5,161.4
		c0,10.6-8.6,19.2-19.2,19.2H38.6c-10.6,0-19.2-8.6-19.2-19.2V89.8V79.5h29.9c-0.7,1.8-1.4,3.7-1.9,5.6c-1.4,4.7-2.1,9.7-2.1,14.9
		c0,30.2,24.5,54.7,54.7,54.7c30.2,0,54.7-24.5,54.7-54.7c0-5.2-0.7-10.1-2.1-14.9c-0.6-1.9-1.2-3.8-1.9-5.6h29.9v10.4V161.4z"/>
</g>
</svg>
