<?xml version="1.0" encoding="utf-8"?>
<!-- Generator: Adobe Illustrator 21.0.0, SVG Export Plug-In . SVG Version: 6.00 Build 0)  -->
<svg version="1.1" xmlns="http://www.w3.org/2000/svg" xmlns:xlink="http://www.w3.org/1999/xlink" x="0px" y="0px"
	 viewBox="0 0 200 200" style="enable-background:new 0 0 200 200;" xml:space="preserve">
<style type="text/css">
	.st0{display:none;}
	.st1{display:inline;fill:#FCEE21;}
	.st2{display:inline;}
	.st3{fill-rule:evenodd;clip-rule:evenodd;fill:#808080;}
	.st4{fill:#808080;}
	.st5{display:inline;fill-rule:evenodd;clip-rule:evenodd;fill:#808080;}
	.st6{fill-rule:evenodd;clip-rule:evenodd;fill:#666666;}
	.st7{fill-rule:evenodd;clip-rule:evenodd;fill:#FFFFFF;}
	.st8{fill:none;stroke:#FFFFFF;stroke-width:0.216;stroke-miterlimit:2.6131;}
	.st9{fill:#FFFFFF;}
</style>
<g id="Capa_7" class="st0">
	<rect x="0" y="0" class="st1" width="200" height="200"/>
</g>
<g id="Capa_1" class="st0">
	<g class="st2">
		<polygon class="st3" points="10.9,94.8 19.7,94.8 19.7,105.3 33.6,105.3 33.6,94.8 42.4,94.8 52.8,114 44.1,114 39.1,104.9 
			26.7,114 14.2,104.9 9.2,114 0.5,114 		"/>
		<polygon class="st3" points="52.9,94.8 52.9,86.1 0.5,86.1 0.5,94.8 9.2,94.8 10.1,93.1 21.4,93.1 21.4,103.6 31.9,103.6 
			31.9,93.1 43.2,93.1 44.1,94.8 		"/>
		<polygon class="st4" points="190.6,91.3 183.3,99.5 191.3,108.8 184.8,108.8 180.1,103.1 175,108.8 169.2,108.8 177.3,99.7 
			170.5,91.3 176.2,91.3 180.5,96.2 184.8,91.3 		"/>
		<polygon class="st4" points="155,97.6 165.9,97.6 165.9,101.1 155,101.1 155,105.3 167.9,105.3 167.9,108.8 150.3,108.8 
			150.3,91.3 167.9,91.3 167.9,94.8 155,94.8 		"/>
		<polygon class="st4" points="87,97.6 98,97.6 98,101.1 87,101.1 87,105.3 99.9,105.3 99.9,108.8 82.4,108.8 82.4,91.3 99.9,91.3 
			99.9,94.8 87,94.8 		"/>
		<polygon class="st4" points="122.8,91.3 130.9,91.3 134.9,101.4 138.9,91.3 147.2,91.3 147.2,108.8 142.4,108.8 142.4,94.9 
			136.5,108.8 133.1,108.8 127.4,94.8 127.4,108.8 122.8,108.8 		"/>
		<polygon class="st4" points="61.6,91.3 80.1,91.3 80.1,94.8 73.1,94.8 73.1,108.8 68.5,108.8 68.5,94.8 61.6,94.8 		"/>
		<polygon class="st4" points="103.1,91.3 107.9,91.3 107.9,105.3 120.7,105.3 120.7,108.8 103.1,108.8 		"/>
		<path class="st3" d="M194.7,105h1.8c0.3,0,0.5,0,0.7,0.1c0.4,0.2,0.5,0.5,0.5,0.9c0,0.2,0,0.4-0.1,0.6c-0.1,0.1-0.2,0.3-0.4,0.4
			c0.1,0.1,0.3,0.1,0.3,0.2c0.1,0.1,0.1,0.3,0.1,0.5l0,0.5c0,0.1,0,0.3,0,0.3c0,0.1,0.1,0.2,0.2,0.2v0.1h-0.6c0,0,0-0.1,0-0.1
			c0-0.1,0-0.2,0-0.3l0-0.6c0-0.3-0.1-0.4-0.3-0.5c-0.1,0-0.3-0.1-0.5-0.1h-1.2v1.7h-0.5V105 M196.4,106.8c0.2,0,0.4-0.1,0.6-0.1
			c0.1-0.1,0.2-0.3,0.2-0.5c0-0.3-0.1-0.5-0.3-0.6c-0.1-0.1-0.2-0.1-0.4-0.1h-1.3v1.3H196.4 M196,104c-1.7,0-3.1,1.4-3.1,3.1
			c0,1.7,1.4,3.1,3.1,3.1s3.1-1.4,3.1-3.1C199.1,105.4,197.7,104,196,104 M196,103.6c1.9,0,3.5,1.6,3.5,3.5c0,1.9-1.6,3.5-3.5,3.5
			c-1.9,0-3.5-1.6-3.5-3.5C192.6,105.1,194.1,103.6,196,103.6z"/>
	</g>
</g>
<g id="Capa_2" class="st0">
	<g class="st2">
		<g>
			<path class="st3" d="M150.9,110.6C150.9,110.5,150.9,110.5,150.9,110.6L150.9,110.6L150.9,110.6L150.9,110.6z M150.9,110.6
				L150.9,110.6C150.9,110.6,150.9,110.6,150.9,110.6L150.9,110.6L150.9,110.6L150.9,110.6z M144.4,103.2L144.4,103.2
				c0.1,0,0.1,0,0.1,0C144.5,103.2,144.5,103.2,144.4,103.2L144.4,103.2L144.4,103.2L144.4,103.2z M136.3,88.8h7.4
				c3.5,0,4.6,1.9,4.6,3.5c0,2.4-2.1,4.5-6.6,4.5h-7L136.3,88.8L136.3,88.8L136.3,88.8z M149.6,111.1l0.1-0.7
				c0.4-2.6-0.5-4.2-1.2-5.2c-1-1.2-2.5-2-4-2c0,0-0.1,0-0.1,0h-11.2l0.3-1.3c0,0,10.9,0,11,0c0,0,0,0,0,0c3.9-0.1,6.4-1.9,7.8-3.5
				c1.8-2,2.9-4.7,2.9-7.3c0-2-0.7-3.8-1.9-5.1c-1.3-1.4-3.3-2.2-5.8-2.2h-16l-8.2,38.2h5.7l3.1-13.8h7.4c1.1,0,4.9-0.5,3.8,4.1
				c-0.3,1.6-1,5.7,0,9.7c0.8,0,3.7,0,6.6,0C148.6,118.6,149,114.6,149.6,111.1L149.6,111.1L149.6,111.1z M162,89.9
				c0-8.3-5.3-12.1-14.5-12.1c-10.5,0-21.7,0-21.7,0l-9.7,44.2h5.9l8.5-39.4h17c2.8,0,5.1,0.9,6.7,2.6c1.4,1.5,2.2,3.6,2.2,6
				c0,2.9-1.2,5.9-3.2,8.1c-1.2,1.3-3,2.7-5.7,3.4c0.7,0.4,1.4,1,1.9,1.6c0.9,1.2,2,3.2,1.5,6.2l0-0.1c0,0,0,0,0,0.1v0c0,0,0,0,0,0
				c0,0.1,0,0.3-0.1,0.7c-0.5,3.5-1,7.5,0.3,10.7c2.9,0,5.5,0,5.5,0c-0.3-1-1-2.3-0.2-5.6c0.9-3.7,2.2-10.9-2.5-13.4
				C155.2,102.5,162,99.5,162,89.9L162,89.9L162,89.9z M17.1,118c8.1,0,13.6-3.6,14.6-9.6c0.7-4.5-3.3-6-7.9-7.2
				c-0.9-0.2-1.6-0.5-2.6-0.7c-4-1-11.6-3-11.1-9.8c0.6-8.8,10.7-9.5,13.8-9.5c4.5,0,7.7,1.5,9.5,4.4c1.4,2.3,1.5,4.9,1.6,6.1v0.1
				l5.9,0c0-9-3.9-15.1-15.7-15.1C14.5,76.6,6,81,4.4,90.5c-2.9,17,20.9,11.7,19.7,18.5c-0.3,2.1-2.2,4-5.7,4
				c-1.4,0-2.8-0.4-3.8-1.1c-1.1-0.7-2.1-1.9-2-6.6H6.9c-0.1,4.4,0.3,7,1.5,8.7C11,117.8,16.1,118,17.1,118L17.1,118L17.1,118z
				 M16.7,123.4c11.7,0.1,20.5-4.6,22.1-14.9c2.5-16.8-22.1-11.9-21.2-19.1c0.2-1.6,1.7-2.8,4.8-2.8c1.3,0,2.5,0.3,3.4,0.8
				c0.9,0.6,1.5,1.5,1.8,4.2l6.1,0v-0.1c-0.1-1-0.2-3.4-1.4-5.4c-1.5-2.5-4.4-3.8-8.4-3.8c-2.8,0-12.1,0.6-12.6,8.3
				c-0.4,5.7,5.9,7.4,10.2,8.5c1,0.3,1.8,0.5,2.7,0.7c3.7,1,9.8,2.6,8.7,8.7c-1.1,6.7-7,10.7-15.8,10.7c-1.1,0-6.7-0.2-9.6-4.5
				c-1.4-1.8-1.9-4.8-1.8-9.4H0.2c-0.1,1-0.2,2.1-0.2,3C0,117.7,5.3,123.4,16.7,123.4L16.7,123.4L16.7,123.4z M95,77.8L69.9,122h5.7
				l24.9-44.2H95L95,77.8L95,77.8z M93.4,103.1l5.5-9.8l1.6,9.8H93.4L93.4,103.1L93.4,103.1z M107.9,77.8H102L77,122h5.7l4.2-7.2
				h15.2l1.3,7.2h5.3l-2.2-12.5H89.8l0.7-1.3h15.9l-3.8-21.6l1-1.8L110,122h5.4L107.9,77.8L107.9,77.8L107.9,77.8z M46.3,115.7h24.2
				l1-4.5H52.7l1.4-5.9h17.7l1-4.9H55.2l0.3-1.3H73l1-4.8H56.5l1.4-5.6h18.5l1-4.6h-24L46.3,115.7L46.3,115.7L46.3,115.7z
				 M47.2,77.8L37.3,122H69l1.1-5H44.7l7.8-34.1h25.2l1.2-5.2H47.2L47.2,77.8L47.2,77.8z M191.5,86.2c-1.6-2.5-4.4-3.8-8.5-3.8
				c-2.8,0-12.1,0.6-12.6,8.3c-0.4,5.7,6,7.4,10.2,8.5c1,0.3,1.8,0.5,2.7,0.7c3.7,1,9.8,2.6,8.8,8.7c-1.1,6.7-7,10.7-15.8,10.7
				c-1.1,0-6.7-0.2-9.6-4.5c-1.4-1.8-1.9-4.8-1.8-9.4h-5.5c-1.2,11.2,4,18.1,16.5,18.2c11.7,0.1,20.6-4.6,22.1-14.9
				c2.5-16.8-22.1-11.9-21.2-19.1c0.2-1.6,1.7-2.8,4.7-2.8c1.4,0,2.6,0.3,3.5,0.8c0.9,0.6,1.5,1.5,1.8,4.2l6.1,0v-0.1
				C192.8,90.6,192.7,88.2,191.5,86.2L191.5,86.2L191.5,86.2z M184.3,76.6c-10.6,0-19.1,4.5-20.7,14c-2.9,17,20.8,11.7,19.7,18.5
				c-0.4,2.1-2.2,4-5.7,4c-1.3,0-2.7-0.4-3.8-1.1c-1-0.7-2.1-1.9-2-6.6h-5.8c-0.1,4.3,0.4,7.1,1.6,8.7c2.5,3.8,7.6,4,8.6,4
				c8.1,0,13.6-3.6,14.6-9.6c0.8-4.5-3.3-6-7.9-7.2c-0.9-0.2-1.6-0.5-2.6-0.7c-4-1-11.5-3-11.1-9.8c0.6-8.8,10.7-9.5,13.8-9.5
				c4.5,0,7.7,1.5,9.5,4.4c1.4,2.3,1.5,4.9,1.5,6.1v0.1l5.9,0C199.9,82.7,196.1,76.6,184.3,76.6L184.3,76.6z"/>
		</g>
	</g>
</g>
<g id="Capa_3" class="st0">
	<path class="st5" d="M16.1,91.5c0,0-7.7,3.1-8,4.9c0,0-1.5,2.2,4.3,1.7c0,0,17.3-1.7,17.9,6.1c0,0,0.2,3.1-3.1,5.8
		c0,0-7.6,7.1-21,4.8c0,0-6.1-0.4-5.9-4c0,0,0.9-1.7,3.3,0c0,0,12.3,3.1,18.2-1.8c0,0,2.6-2.5,0.7-3.7c0,0-3.5-1.8-8.1-1.9
		c0,0-13.7,1.6-14.4-4c0,0-1.2-4.8,7.2-9.4c0,0,12.4-6,23.1-5.6c0,0,5.9-1.6,6.3,3.4c0,0-2.1,4.7-9.9,5.1c0,0-7.7,0.3-8.4-1.6
		C18.4,91.4,18.1,90.9,16.1,91.5L16.1,91.5z M25.6,90.7c0,0,2.2-0.3,1.7-1.9c0,0-2.7-1.3-5.1,0.8C22.1,89.6,21.1,91.3,25.6,90.7
		L25.6,90.7z M51.6,101.7c0,0,0.7-3-7.7-2c0,0-12.5,2.2-12.3,10.8c0,0,1.3,6.8,8.5,3.6c0,0,4.7-2.5,5.9-3.3c0,0,0.4,5.5,6,4.9
		c0,0,3.7,0.3,7-4.2c0,0,3.4-4.3,4.1-4.1c0,0,1.8-0.2,0.6,1.7c0,0-2.6,4.2,1.1,5c0,0,4,1.4,6.3-2.2c0,0,3.6-5.5,5.7-5.5
		c0,0,0.8,0.3-0.5,2.2c0,0-2,5.5,3.6,5.9c0,0,5.5,0.5,6.4-1.9c0,0,1.1-2.3-1.8-0.8c0,0-3.9,2.3-2.4-1.2c0,0,5.9-7.7,0.2-9.8
		c0,0-3-1.4-5.2,0.2c0,0-3.3,3.5-4.7,3.7c0,0-1.2,0.2-1.4-2.3c0,0-1.2-3.8-5.9-1.5c0,0-3,2.6-8.6,9.3c0,0-5.1,5.2-3.8,0.1
		c0,0,3.7-5.8-0.2-7.1c0,0-2.2-1-5.6,2.4c0,0-6.8,6-8.5,6c0,0-2.1-0.3,0.9-4.2c0,0,3.3-4.4,8.9-4.8
		C48.2,102.7,51.6,102.7,51.6,101.7L51.6,101.7z M98,99.8c-1.3,3.6,1.4,0.8,1.4,0.8c6.5-3.4,6.5,3.5,6.5,3.5
		c1.3,1.7,3.8-0.4,3.8-0.4c1.3-0.8,2.8-2.4,2.8-2.4c4.2-3.8,6.9-0.9,6.9-0.9c0.6,1.7,2.2,0.4,2.2,0.4c5.4-1.6,4.3,2.5,4.3,2.5
		c-1.6,0.4-0.7,2.2-0.7,2.2c0.6,2.2,3.9-1.3,3.9-1.3c1.9-0.5,0.9-3.1,0.9-3.1c0.1-2.1,2.7-1.3,2.7-1.3c1.8,1.4,4.3,0.3,4.3,0.3
		c4.2-0.2,3.8,2,3.8,2c1.6,1.6,0,3.4,0,3.4c-2.9,2.7-3,5.8-3,5.8c0.2,3.5,7.2-4.7,7.2-4.7c5.4-7.6,10.1-6.4,10.1-6.4
		c4.3-0.1,3.1,6.4,3.1,6.4l5.3-4.9c1.9-2.6,4.6-1.8,4.6-1.8c5.9,1.5,1.5,8.7,1.5,8.7c-1.2,2.9,1.7,1.8,1.7,1.8
		c2-2.8,6.7-7.2,6.7-7.2c7.6-6.9,11.3-5.2,11.3-5.2c2.9,0.6,0.4,2.9,0.4,2.9c-1.5,2.1-0.4,5.9-0.4,5.9l10.6,0.1l-3.1,3.7l-8.9-0.1
		c-1.5,3.1-5.7,3.1-5.7,3.1c-5.1-0.5-5.6-4.7-5.6-4.7c-0.8-0.1-3.8,3.1-3.8,3.1c-2,2.6-7.9,0.6-7.9,0.6c-3.1-0.9-1.1-6-1.1-6
		c-0.9-0.8-5.7,4.6-5.7,4.6c-2.6,3.9-6,2.3-6,2.3c-4-1.2-1.6-6-1.6-6c1.5-2.4,1.1-3,1.1-3c-2.2,1.3-6.1,6.1-6.1,6.1
		c-8,7.8-13.2,1.8-13.2,1.8c-2.5-3.8,3.3-8.7,3.3-8.7c-1.3-0.9-2.4,0.1-2.4,0.1c-3.6,6.5-10.1,5.9-10.1,5.9
		c-1.8,3.2-6.1,4.5-6.1,4.5c-11.1,2.9-8.5-6.1-8.5-6.1c-2.8,0.8-3.3-0.1-3.3-0.1c-0.2,0.7-2.2,1-2.2,1s-4.2,5.7-9,5.8
		c-4.8,0.1-6.2-2.7-5.5-7.5c0.7-4.7,7-14,7-14c-0.9,0.5-2-0.2-2-0.2c-0.8-1.8,4.8-4.1,4.8-4.1c4.5-2,3,0.9,3,0.9L98,99.8L98,99.8z
		 M94.7,106.5c-1.9,5.8,0.3,6.3,0.3,6.3c2.1-0.1,3.8-4,3.8-4c0.5-2.1-1.8-4.7-1.8-4.7C95.7,103.8,94.7,106.5,94.7,106.5L94.7,106.5z
		 M115.3,105.7c-3.1,8.3,0.9,6.4,0.9,6.4c3.2-1.9,3.2-4.3,3.2-4.3c0.1-1.5-1.6-4-1.6-4C116.7,103,115.3,105.7,115.3,105.7
		L115.3,105.7z M183.5,102.3c0,0-3.7,1-3.8,4.2c0,0,1.8,0.9,3.3-0.3C183,106.2,183.6,103.2,183.5,102.3L183.5,102.3z"/>
</g>
<g id="Capa_4" class="st0">
	<g class="st2">
		<path class="st3" d="M26.5,88.8c-3.1,0-5.8,1.1-8,3.3c-2.2,2.2-3.3,4.9-3.3,8c0,3.2,1.1,5.8,3.3,8c2.2,2.3,4.9,3.4,8,3.4
			c3.1,0,5.8-1.1,8-3.4c2.2-2.2,3.3-4.8,3.3-8c0-3.1-1.1-5.8-3.3-8C32.3,89.9,29.6,88.8,26.5,88.8L26.5,88.8z"/>
		<path class="st3" d="M26.5,86.8V73.9c-4.6,0-8.9,1.2-12.8,3.4v19.5c0.7-2.9,2.3-5.3,4.6-7.1C20.8,87.8,23.5,86.8,26.5,86.8
			L26.5,86.8z"/>
		<path class="st3" d="M23.8,113.1c-3-0.7-5.4-2.3-7.2-4.7c-2-2.4-2.9-5.1-2.9-8.2H0.5c0,4.6,1.2,8.9,3.5,12.8H23.8L23.8,113.1z"/>
		<path class="st3" d="M39.5,103.4c-0.7,2.9-2.2,5.3-4.6,7.2c-2.4,1.9-5.2,2.9-8.3,2.9v12.6c4.6,0,8.9-1.1,12.8-3.4V103.4
			L39.5,103.4z"/>
		<path class="st3" d="M52.6,99.9c0-4.6-1.2-8.9-3.5-12.8H29.8c3,0.7,5.4,2.3,7.2,4.6c2,2.5,2.9,5.2,2.9,8.3H52.6L52.6,99.9z"/>
		<polygon class="st3" points="58.6,87.8 58.6,102.9 63.1,102.9 63.1,87.8 58.6,87.8 		"/>
		<polygon class="st3" points="87.1,87.8 82.4,87.8 82.4,98.7 82.4,98.7 73.6,87.8 66.4,87.8 66.4,102.9 71.1,102.9 71.1,91.8 
			71.1,91.8 79.8,102.9 87.1,102.9 87.1,87.8 		"/>
		<path class="st3" d="M94.8,93.7v-2.4h8.3c0.9,0,1.4,0.4,1.4,1.2c0,0.8-0.5,1.2-1.4,1.2H94.8L94.8,93.7z M94.8,96.8h8.4
			c1.1,0,1.7,0.5,1.7,1.3c0,0.8-0.6,1.1-1.7,1.1h-8.4V96.8L94.8,96.8z M106.8,95.2L106.8,95.2c0.8-0.3,1.3-0.6,1.6-1
			c0.5-0.5,0.7-1.4,0.7-2.6c0-1.4-0.5-2.4-1.4-3.1c-0.9-0.6-2.3-0.8-4.2-0.8H90.1v15.1H105c1.5,0,2.6-0.2,3.3-0.7
			c0.8-0.7,1.3-1.8,1.3-3.3c0-1.2-0.2-2.1-0.6-2.6C108.5,95.7,107.8,95.3,106.8,95.2L106.8,95.2z"/>
		<path class="st3" d="M131.4,87.8h-4.6v8.8c0,0.9-0.3,1.6-0.6,2c-0.4,0.5-1.2,0.7-2.1,0.7h-4.6c-1,0-1.6-0.2-2.1-0.7
			c-0.4-0.4-0.5-1.1-0.5-2v-8.8h-4.7v9.7c0,1.9,0.5,3.3,1.5,4.2c1,1,2.6,1.4,4.7,1.4h6.8c2.1,0,3.7-0.4,4.7-1.4
			c1-0.9,1.5-2.3,1.5-4.2V87.8L131.4,87.8z"/>
		<path class="st3" d="M139,95.1v-3.7c2.5,0,4.9,0,7.4,0c1.2,0,2.1,0.2,2.1,1.6c0,0.2,0,0.3,0,0.5c0,1.1-0.6,1.6-1.7,1.6H139
			L139,95.1z M139,99h7.4c0.7,0,1.2,0.1,1.5,0.4c0.3,0.3,0.4,0.9,0.4,1.7v1.8h4.7v-2.6c0-1.1-0.2-2-0.7-2.5c-0.4-0.4-1-0.7-1.8-0.9
			c1-0.2,1.7-0.7,2.1-1.3c0.3-0.6,0.5-1.4,0.5-2.5v-0.9c0-1.5-0.3-2.6-0.9-3.3c-0.8-0.9-2-1.2-3.7-1.2h-14.1v15.1h4.7V99L139,99z"/>
		<path class="st3" d="M166,93.4l-4.7-0.2c-0.3,0-0.6-0.2-0.7-0.4c-0.1-0.1-0.2-0.4-0.2-0.7c0-0.8,0.6-1.2,1.8-1.2h5.2
			c1,0,1.7,0.1,2,0.3c0.2,0.2,0.3,0.6,0.3,1.3h4.7V92c0-1.6-0.3-2.7-1-3.3c-0.8-0.9-2.5-1.3-4.9-1.3h-6.6c-2.7,0-4.5,0.5-5.3,1.4
			c-0.6,0.7-0.9,1.9-0.9,3.5c0,1.1,0.1,1.8,0.3,2.4c0.1,0.6,0.5,1,1,1.4c1,0.6,3.1,0.9,6.6,0.9l5.6,0.2c0.4,0,0.7,0.2,0.8,0.4
			l0.2,0.8c0,0.5-0.2,0.9-0.6,1.1l-1.4,0.2h-5.8l-1.5-0.3c-0.3-0.2-0.5-0.7-0.5-1.5h-4.7V99c0,1.6,0.5,2.7,1.4,3.3
			c0.8,0.5,2.4,0.8,4.6,0.8h5.7c3.1,0,5.2-0.3,6.1-0.9c0.6-0.3,1-0.8,1.2-1.4c0.2-0.6,0.3-1.5,0.3-2.5c0-1.2-0.1-2-0.4-2.6
			c-0.2-0.7-0.7-1.2-1.3-1.5C172.1,93.6,169.7,93.4,166,93.4L166,93.4z"/>
		<polygon class="st3" points="190.4,87.8 184.4,87.8 176.1,102.9 181.4,102.9 182.7,100.2 184.5,96.9 187.4,91.2 190.4,96.9 
			184.5,96.9 182.7,100.2 192.2,100.2 193.6,102.9 198.8,102.9 190.4,87.8 		"/>
		<path class="st3" d="M96.7,114.8v-1.2l4.3,0v3.8c-0.7,0.5-1.3,0.9-2,1.2c-0.7,0.3-1.4,0.4-2.2,0.4c-1,0-1.9-0.2-2.7-0.6
			c-0.8-0.4-1.4-1-1.8-1.8c-0.4-0.8-0.6-1.7-0.6-2.7c0-1,0.2-1.9,0.6-2.8c0.4-0.9,1-1.5,1.8-1.9c0.8-0.4,1.7-0.6,2.7-0.6
			c0.7,0,1.4,0.1,2,0.4c0.6,0.2,1.1,0.6,1.4,1c0.3,0.4,0.6,1,0.8,1.7l-1.2,0.3c-0.2-0.5-0.3-0.9-0.6-1.2c-0.2-0.3-0.5-0.5-1-0.7
			c-0.4-0.2-0.9-0.3-1.4-0.3c-0.6,0-1.1,0.1-1.6,0.3c-0.4,0.2-0.8,0.4-1.1,0.7c-0.3,0.3-0.5,0.6-0.6,1c-0.3,0.6-0.4,1.3-0.4,2
			c0,0.9,0.2,1.7,0.5,2.3c0.3,0.6,0.8,1.1,1.4,1.4c0.6,0.3,1.2,0.4,1.9,0.4c0.6,0,1.1-0.1,1.7-0.3c0.6-0.2,1-0.5,1.3-0.7v-1.9H96.7
			L96.7,114.8z"/>
		<path class="st3" d="M102.8,118.8v-7.3h1.1v1.1c0.3-0.5,0.5-0.9,0.8-1c0.2-0.2,0.5-0.2,0.8-0.2c0.4,0,0.8,0.1,1.3,0.4l-0.4,1.2
			c-0.3-0.2-0.6-0.3-0.9-0.3c-0.3,0-0.5,0.1-0.7,0.2c-0.2,0.2-0.4,0.4-0.5,0.7c-0.1,0.4-0.2,0.9-0.2,1.4v3.8H102.8L102.8,118.8z"/>
		<path class="st3" d="M112.3,118.8v-1.1c-0.6,0.8-1.3,1.2-2.3,1.2c-0.4,0-0.8-0.1-1.2-0.2c-0.4-0.2-0.7-0.4-0.8-0.6
			c-0.2-0.3-0.3-0.6-0.4-0.9c0-0.2-0.1-0.6-0.1-1.2v-4.5h1.2v4.1c0,0.7,0,1.1,0.1,1.3c0.1,0.3,0.2,0.6,0.5,0.8
			c0.3,0.2,0.6,0.3,0.9,0.3c0.4,0,0.7-0.1,1-0.3c0.3-0.2,0.6-0.5,0.7-0.8c0.1-0.3,0.2-0.8,0.2-1.4v-3.9h1.2v7.3H112.3L112.3,118.8z"
			/>
		<path class="st3" d="M115.4,121.6v-10.1h1.1v1c0.3-0.4,0.6-0.7,0.9-0.8c0.3-0.2,0.7-0.3,1.2-0.3c0.6,0,1.2,0.2,1.7,0.5
			c0.5,0.3,0.8,0.8,1.1,1.4c0.2,0.6,0.4,1.2,0.4,1.9c0,0.7-0.1,1.4-0.4,2c-0.3,0.6-0.7,1.1-1.2,1.4c-0.5,0.3-1.1,0.5-1.6,0.5
			c-0.4,0-0.8-0.1-1.1-0.3c-0.3-0.2-0.6-0.4-0.8-0.7v3.6H115.4L115.4,121.6z M116.5,115.2c0,0.9,0.2,1.6,0.6,2.1
			c0.4,0.5,0.8,0.7,1.4,0.7c0.6,0,1-0.2,1.4-0.7c0.4-0.5,0.6-1.2,0.6-2.2c0-0.9-0.2-1.6-0.6-2.1c-0.4-0.5-0.8-0.7-1.4-0.7
			c-0.5,0-1,0.2-1.4,0.7C116.7,113.5,116.5,114.2,116.5,115.2L116.5,115.2z"/>
		<path class="st3" d="M122.8,115.1c0-1.4,0.4-2.4,1.1-3c0.6-0.5,1.4-0.8,2.3-0.8c1,0,1.8,0.3,2.5,1c0.6,0.7,1,1.6,1,2.7
			c0,0.9-0.1,1.7-0.4,2.2c-0.3,0.5-0.7,1-1.2,1.3c-0.5,0.3-1.1,0.4-1.8,0.4c-1,0-1.9-0.3-2.5-1C123.1,117.3,122.8,116.3,122.8,115.1
			L122.8,115.1z M124,115.1c0,0.9,0.2,1.6,0.6,2.1c0.4,0.5,0.9,0.7,1.5,0.7c0.6,0,1.1-0.2,1.5-0.7c0.4-0.5,0.6-1.2,0.6-2.1
			c0-0.9-0.2-1.6-0.6-2.1c-0.4-0.5-0.9-0.7-1.5-0.7c-0.6,0-1.1,0.2-1.5,0.7C124.2,113.5,124,114.2,124,115.1L124,115.1z"/>
		<polygon class="st3" points="135.2,118.8 135.2,108.7 142.1,108.7 142.1,109.9 136.6,109.9 136.6,113 141.3,113 141.3,114.2 
			136.6,114.2 136.6,118.8 135.2,118.8 		"/>
		<path class="st3" d="M143.6,110.1v-1.4h1.2v1.4H143.6L143.6,110.1z M143.6,118.8v-7.3h1.2v7.3H143.6L143.6,118.8z"/>
		<path class="st3" d="M146.8,118.8v-7.3h1.1v1c0.5-0.8,1.3-1.2,2.3-1.2c0.4,0,0.8,0.1,1.2,0.2c0.4,0.2,0.6,0.4,0.8,0.6
			c0.2,0.3,0.3,0.6,0.4,0.9c0,0.2,0.1,0.6,0.1,1.2v4.5h-1.2v-4.5c0-0.5,0-0.9-0.1-1.1c-0.1-0.2-0.3-0.4-0.5-0.6
			c-0.2-0.2-0.5-0.2-0.9-0.2c-0.5,0-1,0.2-1.4,0.5c-0.4,0.3-0.6,1-0.6,1.9v4H146.8L146.8,118.8z"/>
		<path class="st3" d="M159.4,117.9c-0.5,0.4-0.9,0.7-1.3,0.8c-0.4,0.2-0.9,0.2-1.4,0.2c-0.8,0-1.4-0.2-1.9-0.6
			c-0.4-0.4-0.6-0.9-0.6-1.5c0-0.4,0.1-0.7,0.2-1c0.2-0.3,0.4-0.5,0.6-0.7c0.3-0.2,0.6-0.3,0.9-0.4c0.2-0.1,0.6-0.1,1.1-0.2
			c1-0.1,1.7-0.3,2.2-0.4c0-0.2,0-0.3,0-0.3c0-0.5-0.1-0.9-0.4-1.1c-0.3-0.3-0.8-0.4-1.4-0.4c-0.6,0-1,0.1-1.3,0.3
			c-0.3,0.2-0.5,0.6-0.6,1.1l-1.2-0.2c0.1-0.5,0.3-0.9,0.5-1.3c0.3-0.3,0.6-0.6,1.1-0.7c0.5-0.2,1-0.3,1.7-0.3
			c0.6,0,1.1,0.1,1.5,0.2c0.4,0.1,0.7,0.3,0.9,0.6c0.2,0.2,0.3,0.5,0.4,0.8c0,0.2,0.1,0.6,0.1,1.1v1.7c0,1.2,0,1.9,0.1,2.2
			c0.1,0.3,0.2,0.6,0.3,0.9h-1.3C159.5,118.5,159.4,118.2,159.4,117.9L159.4,117.9z M159.3,115.1c-0.5,0.2-1.1,0.3-2,0.5
			c-0.5,0.1-0.9,0.2-1.1,0.2c-0.2,0.1-0.4,0.2-0.5,0.4c-0.1,0.2-0.2,0.4-0.2,0.6c0,0.3,0.1,0.6,0.4,0.8c0.2,0.2,0.6,0.3,1.1,0.3
			c0.5,0,0.9-0.1,1.3-0.3c0.4-0.2,0.6-0.5,0.8-0.9c0.1-0.3,0.2-0.7,0.2-1.2V115.1L159.3,115.1z"/>
		<path class="st3" d="M162.5,118.8v-7.3h1.1v1c0.5-0.8,1.3-1.2,2.3-1.2c0.4,0,0.8,0.1,1.2,0.2c0.4,0.2,0.6,0.4,0.8,0.6
			c0.2,0.3,0.3,0.6,0.4,0.9c0,0.2,0.1,0.6,0.1,1.2v4.5h-1.2v-4.5c0-0.5,0-0.9-0.1-1.1c-0.1-0.2-0.3-0.4-0.5-0.6
			c-0.2-0.2-0.5-0.2-0.9-0.2c-0.5,0-1,0.2-1.4,0.5c-0.4,0.3-0.6,1-0.6,1.9v4H162.5L162.5,118.8z"/>
		<path class="st3" d="M175.1,116.1l1.2,0.2c-0.1,0.8-0.5,1.5-1,2c-0.5,0.5-1.2,0.7-2,0.7c-1,0-1.8-0.3-2.4-1
			c-0.6-0.7-0.9-1.6-0.9-2.8c0-0.8,0.1-1.5,0.4-2.1c0.3-0.6,0.7-1,1.2-1.3c0.5-0.3,1.1-0.4,1.7-0.4c0.8,0,1.4,0.2,2,0.6
			c0.5,0.4,0.8,1,1,1.7l-1.2,0.2c-0.1-0.5-0.3-0.9-0.6-1.1c-0.3-0.2-0.6-0.4-1.1-0.4c-0.6,0-1.1,0.2-1.5,0.7
			c-0.4,0.4-0.6,1.2-0.6,2.1c0,1,0.2,1.7,0.6,2.1c0.4,0.4,0.9,0.7,1.5,0.7c0.5,0,0.9-0.2,1.2-0.4C174.8,117.2,175,116.7,175.1,116.1
			L175.1,116.1z"/>
		<path class="st3" d="M177.4,110.1v-1.4h1.2v1.4H177.4L177.4,110.1z M177.4,118.8v-7.3h1.2v7.3H177.4L177.4,118.8z"/>
		<path class="st3" d="M185.6,116.4l1.3,0.2c-0.2,0.8-0.6,1.3-1.1,1.7c-0.5,0.4-1.2,0.6-2.1,0.6c-1.1,0-1.9-0.3-2.5-1
			c-0.6-0.7-0.9-1.6-0.9-2.8c0-1.2,0.3-2.2,1-2.9c0.6-0.7,1.5-1,2.5-1c1,0,1.8,0.3,2.4,1c0.6,0.7,0.9,1.6,0.9,2.8c0,0.1,0,0.2,0,0.3
			h-5.5c0,0.8,0.3,1.4,0.7,1.8c0.4,0.4,0.9,0.6,1.5,0.6c0.5,0,0.8-0.1,1.2-0.4C185.1,117.3,185.4,116.9,185.6,116.4L185.6,116.4z
			 M181.5,114.4h4.1c-0.1-0.6-0.2-1.1-0.5-1.4c-0.4-0.5-0.9-0.7-1.5-0.7c-0.6,0-1.1,0.2-1.4,0.6
			C181.7,113.3,181.5,113.8,181.5,114.4L181.5,114.4z"/>
		<path class="st3" d="M188.4,118.8v-7.3h1.1v1.1c0.3-0.5,0.5-0.9,0.8-1c0.2-0.2,0.5-0.2,0.8-0.2c0.4,0,0.8,0.1,1.3,0.4l-0.4,1.2
			c-0.3-0.2-0.6-0.3-0.9-0.3c-0.3,0-0.5,0.1-0.7,0.2c-0.2,0.2-0.4,0.4-0.5,0.7c-0.1,0.4-0.2,0.9-0.2,1.4v3.8H188.4L188.4,118.8z"/>
		<path class="st3" d="M192.7,115.1c0-1.4,0.4-2.4,1.1-3c0.6-0.5,1.4-0.8,2.3-0.8c1,0,1.8,0.3,2.5,1c0.6,0.7,1,1.6,1,2.7
			c0,0.9-0.1,1.7-0.4,2.2c-0.3,0.5-0.7,1-1.2,1.3c-0.5,0.3-1.1,0.4-1.8,0.4c-1,0-1.9-0.3-2.5-1C193,117.3,192.7,116.3,192.7,115.1
			L192.7,115.1z M193.9,115.1c0,0.9,0.2,1.6,0.6,2.1c0.4,0.5,0.9,0.7,1.5,0.7c0.6,0,1.1-0.2,1.5-0.7c0.4-0.5,0.6-1.2,0.6-2.1
			c0-0.9-0.2-1.6-0.6-2.1c-0.4-0.5-0.9-0.7-1.5-0.7c-0.6,0-1.1,0.2-1.5,0.7C194.1,113.5,193.9,114.2,193.9,115.1L193.9,115.1z"/>
	</g>
</g>
<g id="Capa_5" class="st0">
	<g class="st2">
		<path class="st4" d="M130.8,67.6c-16,0-27.3,8.5-27.4,20.7c-0.1,9,8,14.1,14.2,17.1c6.3,3.1,8.4,5,8.4,7.8
			c-0.1,4.2-5.1,6.1-9.7,6.1c-6.5,0-9.9-0.9-15.2-3.3l-2.1-1l-2.3,14c3.8,1.7,10.8,3.3,18.1,3.3c17,0,28.1-8.4,28.2-21.4
			c0.1-7.2-4.3-12.6-13.6-17c-5.6-2.9-9.1-4.8-9.1-7.8c0-2.6,2.9-5.4,9.3-5.4c5.3-0.1,9.1,1.1,12.1,2.4l1.4,0.7l2.2-13.6
			C142.1,69,137.1,67.6,130.8,67.6L130.8,67.6z M80.5,68.7l-10.1,62.7h16.2l10.1-62.7L80.5,68.7L80.5,68.7z M56.8,68.8L41,111.5
			l-1.7-8.7C35.3,92.2,26.8,81,16.8,76.5l14.5,54.9l17.1,0L74,68.8L56.8,68.8L56.8,68.8z M174.4,68.8c-3.9,0-6.8,1.1-8.5,5.2
			l-24,57.5h17c0,0,2.8-7.7,3.4-9.4c1.9,0,18.4,0,20.7,0c0.5,2.2,2,9.4,2,9.4h15l-13.1-62.7L174.4,68.8L174.4,68.8z M175.5,85.7
			l1.1,5.4c0,0,3.1,15,3.8,18.1h-13.4c1.3-3.6,6.5-17.5,6.5-17.5C173.3,91.8,174.7,88,175.5,85.7L175.5,85.7z"/>
		<path class="st4" d="M26.3,68.8H0.2L0,69.8c20.3,5.2,33.7,17.9,39.3,33L33.6,74C32.6,70.1,29.8,68.9,26.3,68.8"/>
	</g>
</g>
<g id="Capa_6" class="st0">
	<g class="st2">
		<polygon class="st3" points="139.4,158.9 142.4,158.8 145.4,158.6 148.3,158.2 151.3,157.7 154.1,157 156.9,156.2 159.6,155.3 
			162.3,154.2 164.9,153 167.5,151.7 169.9,150.3 172.3,148.8 174.6,147.1 176.9,145.4 179,143.5 181.1,141.6 183,139.5 
			184.9,137.4 186.6,135.2 188.3,132.9 189.8,130.5 191.2,128 192.5,125.5 193.7,122.8 194.8,120.2 195.7,117.4 196.5,114.6 
			197.1,111.8 197.7,108.9 198,105.9 198.3,102.9 198.3,99.9 198.3,96.9 198,93.9 197.7,91 197.1,88.1 196.5,85.2 195.7,82.5 
			194.8,79.7 193.7,77.1 192.5,74.5 191.2,71.9 189.8,69.5 188.3,67.1 186.6,64.8 184.9,62.6 183,60.4 181.1,58.4 179,56.4 
			176.9,54.6 174.6,52.8 172.3,51.2 169.9,49.7 167.5,48.3 164.9,47 162.3,45.8 159.6,44.7 156.9,43.8 154.1,43 151.3,42.3 
			148.3,41.8 145.4,41.4 142.4,41.2 139.4,41.1 136.4,41.2 133.4,41.4 130.4,41.8 127.5,42.3 124.7,43 121.9,43.8 119.2,44.7 
			116.5,45.8 113.9,47 111.4,48.3 108.9,49.7 106.5,51.2 104.2,52.8 102,54.6 99.9,56.4 97.8,58.4 95.9,60.4 94,62.6 92.3,64.8 
			90.6,67.1 89.1,69.5 87.7,71.9 86.4,74.5 85.2,77.1 84.2,79.7 83.3,82.5 82.5,85.2 81.8,88.1 81.3,91 80.9,93.9 80.7,96.9 
			80.6,99.9 80.7,102.9 80.9,105.9 81.3,108.9 81.8,111.8 82.5,114.6 83.3,117.4 84.2,120.2 85.2,122.8 86.4,125.5 87.7,128 
			89.1,130.5 90.6,132.9 92.3,135.2 94,137.4 95.9,139.5 97.8,141.6 99.9,143.5 102,145.4 104.2,147.1 106.5,148.8 108.9,150.3 
			111.4,151.7 113.9,153 116.5,154.2 119.2,155.3 121.9,156.2 124.7,157 127.5,157.7 130.4,158.2 133.4,158.6 136.4,158.8 
			139.4,158.9 139.4,158.9 		"/>
		<polygon class="st6" points="60.6,158.9 63.6,158.8 66.6,158.6 69.6,158.2 72.5,157.7 75.3,157 78.1,156.2 80.8,155.3 83.5,154.2 
			86.1,153 88.6,151.7 91.1,150.3 93.5,148.8 95.8,147.1 98,145.4 100.1,143.5 102.2,141.6 104.1,139.5 106,137.4 107.7,135.2 
			109.4,132.9 110.9,130.5 112.3,128 113.6,125.5 114.8,122.8 115.8,120.2 116.7,117.4 117.5,114.6 118.2,111.8 118.7,108.9 
			119.1,105.9 119.3,102.9 119.4,99.9 119.3,96.9 119.1,93.9 118.7,91 118.2,88.1 117.5,85.2 116.7,82.5 115.8,79.7 114.8,77.1 
			113.6,74.5 112.3,71.9 110.9,69.5 109.4,67.1 107.7,64.8 106,62.6 104.1,60.4 102.2,58.4 100.1,56.4 98,54.6 95.8,52.8 93.5,51.2 
			91.1,49.7 88.6,48.3 86.1,47 83.5,45.8 80.8,44.7 78.1,43.8 75.3,43 72.5,42.3 69.6,41.8 66.6,41.4 63.6,41.2 60.6,41.1 
			57.6,41.2 54.6,41.4 51.7,41.8 48.7,42.3 45.9,43 43.1,43.8 40.4,44.7 37.7,45.8 35.1,47 32.5,48.3 30.1,49.7 27.7,51.2 
			25.4,52.8 23.1,54.6 21,56.4 18.9,58.4 17,60.4 15.1,62.6 13.4,64.8 11.7,67.1 10.2,69.5 8.8,71.9 7.5,74.5 6.3,77.1 5.2,79.7 
			4.3,82.5 3.5,85.2 2.9,88.1 2.3,91 2,93.9 1.7,96.9 1.7,99.9 1.7,102.9 2,105.9 2.3,108.9 2.9,111.8 3.5,114.6 4.3,117.4 
			5.2,120.2 6.3,122.8 7.5,125.5 8.8,128 10.2,130.5 11.7,132.9 13.4,135.2 15.1,137.4 17,139.5 18.9,141.6 21,143.5 23.1,145.4 
			25.4,147.1 27.7,148.8 30.1,150.3 32.5,151.7 35.1,153 37.7,154.2 40.4,155.3 43.1,156.2 45.9,157 48.7,157.7 51.7,158.2 
			54.6,158.6 57.6,158.8 60.6,158.9 60.6,158.9 		"/>
		<polygon class="st3" points="93.1,63.7 124.4,63.7 124.4,60.5 95.8,60.5 93.1,63.7 93.1,63.7 		"/>
		<polygon class="st3" points="88.4,70.8 124.4,70.8 124.4,67.6 90.3,67.6 88.4,70.8 88.4,70.8 		"/>
		<polygon class="st3" points="84.9,77.9 124.4,77.9 124.4,74.7 86.3,74.7 84.9,77.9 84.9,77.9 		"/>
		<polygon class="st3" points="82.5,85 124.4,85 124.4,81.8 83.5,81.8 82.5,85 82.5,85 		"/>
		<polygon class="st3" points="83.9,119.4 124.5,119.4 124.5,116.2 82.9,116.2 83.9,119.4 83.9,119.4 		"/>
		<polygon class="st3" points="86.9,126.5 124.5,126.5 124.5,123.3 85.4,123.3 86.9,126.5 86.9,126.5 		"/>
		<polygon class="st3" points="91.1,133.6 124.5,133.6 124.5,130.4 89.1,130.4 91.1,133.6 91.1,133.6 		"/>
		<polygon class="st3" points="96.9,140.7 124.5,140.7 124.5,137.5 94.1,137.5 96.9,140.7 96.9,140.7 		"/>
		<polygon class="st3" points="81.1,92.1 124.4,92.1 124.4,88.9 81.7,88.9 81.1,92.1 81.1,92.1 		"/>
		<polygon class="st3" points="107.5,112.3 124,112.3 124,109.1 108.1,109.1 107.5,112.3 107.5,112.3 		"/>
		<polygon class="st3" points="108.8,105.2 124,105.2 124,102 109.4,102 108.8,105.2 108.8,105.2 		"/>
		<polygon class="st3" points="80,102 84.3,102 84.3,105.2 80.2,105.2 80,102 80,102 		"/>
		<polygon class="st7" points="72,98.1 71.7,98.1 71.5,98 71.2,98 71,98 70.7,97.9 70.5,97.9 70.2,97.8 69.9,97.8 69.6,97.8 
			69.3,97.7 69,97.7 68.6,97.7 68.2,97.7 67.7,97.7 67.2,97.8 66.6,97.8 66.2,97.9 65.9,97.9 65.5,98 65.2,98.2 64.9,98.3 
			64.7,98.5 64.5,98.7 64.3,98.8 64.2,99.1 64.1,99.3 64,99.5 64,99.8 64.1,100 64.2,100.3 64.3,100.5 64.5,100.8 64.9,101.2 
			65.4,101.5 66,101.7 66.6,101.9 67.2,102.1 67.9,102.4 68.5,102.6 69.1,102.8 69.7,103.2 70.3,103.6 70.8,104.1 71.2,104.7 
			71.5,105.5 71.7,106.4 71.8,107.4 71.7,108.7 71.6,109.6 71.4,110.4 71,111.2 70.6,111.8 70.2,112.4 69.7,112.9 69.1,113.4 
			68.5,113.7 67.9,114 67.2,114.3 66.5,114.5 65.8,114.6 65.2,114.8 64.5,114.8 63.8,114.9 63.2,114.9 62.4,114.9 61.6,114.9 
			60.9,114.9 60.2,114.8 59.6,114.8 59.1,114.8 58.6,114.7 58.2,114.7 57.8,114.6 57.4,114.6 57,114.5 56.7,114.4 56.3,114.3 
			56,114.2 55.7,114.1 55.3,114 56.2,109.6 56.4,109.6 56.6,109.7 56.9,109.8 57.3,109.8 57.6,109.9 58,110 58.4,110.1 58.9,110.2 
			59.4,110.3 59.9,110.3 60.5,110.4 61,110.5 61.6,110.5 62.2,110.5 62.8,110.5 63.3,110.5 63.9,110.4 64.4,110.2 64.7,110 
			65,109.7 65.2,109.4 65.4,109.1 65.5,108.8 65.5,108.5 65.6,107.9 65.4,107.4 65.1,107 64.6,106.7 64,106.4 63.3,106.1 
			62.5,105.8 61.7,105.5 60.9,105.1 60.2,104.7 59.5,104.2 58.8,103.6 58.3,102.8 58,101.9 57.8,100.9 57.8,99.6 57.9,98.8 
			58.1,98.1 58.3,97.4 58.5,96.8 58.8,96.2 59.2,95.7 59.6,95.2 60.1,94.7 60.7,94.4 61.3,94 62,93.7 62.8,93.5 63.7,93.3 
			64.7,93.2 65.8,93.1 66.9,93.1 67.7,93.1 68.3,93.1 68.9,93.1 69.5,93.2 70,93.2 70.5,93.2 70.9,93.3 71.2,93.3 71.6,93.4 
			71.8,93.4 72.1,93.5 72.3,93.5 72.5,93.5 72.7,93.6 72.9,93.6 73,93.6 72,98.1 72,98.1 		"/>
		<polyline class="st8" points="72,98.1 72,98.1 71.7,98.1 71.5,98 71.2,98 71,98 70.7,97.9 70.5,97.9 70.2,97.8 69.9,97.8 
			69.6,97.8 69.3,97.7 69,97.7 68.6,97.7 68.2,97.7 67.7,97.7 67.2,97.8 66.6,97.8 66.6,97.8 66.2,97.9 65.9,97.9 65.5,98 
			65.2,98.2 64.9,98.3 64.7,98.5 64.5,98.7 64.3,98.8 64.2,99.1 64.1,99.3 64,99.5 64,99.8 64.1,100 64.2,100.3 64.3,100.5 
			64.5,100.8 64.5,100.8 64.9,101.2 65.4,101.5 66,101.7 66.6,101.9 67.2,102.1 67.9,102.4 68.5,102.6 69.1,102.8 69.7,103.2 
			70.3,103.6 70.8,104.1 71.2,104.7 71.5,105.5 71.7,106.4 71.8,107.4 71.7,108.7 71.7,108.7 71.6,109.6 71.4,110.4 71,111.2 
			70.6,111.8 70.2,112.4 69.7,112.9 69.1,113.4 68.5,113.7 67.9,114 67.2,114.3 66.5,114.5 65.8,114.6 65.2,114.8 64.5,114.8 
			63.8,114.9 63.2,114.9 63.2,114.9 62.4,114.9 61.6,114.9 60.9,114.9 60.2,114.8 59.6,114.8 59.1,114.8 58.6,114.7 58.2,114.7 
			57.8,114.6 57.4,114.6 57,114.5 56.7,114.4 56.3,114.3 56,114.2 55.7,114.1 55.3,114 56.2,109.6 56.2,109.6 56.4,109.6 
			56.6,109.7 56.9,109.8 57.3,109.8 57.6,109.9 58,110 58.4,110.1 58.9,110.2 59.4,110.3 59.9,110.3 60.5,110.4 61,110.5 
			61.6,110.5 62.2,110.5 62.8,110.5 63.3,110.5 63.3,110.5 63.9,110.4 64.4,110.2 64.7,110 65,109.7 65.2,109.4 65.4,109.1 
			65.5,108.8 65.5,108.5 65.5,108.5 65.6,107.9 65.4,107.4 65.1,107 64.6,106.7 64,106.4 63.3,106.1 62.5,105.8 61.7,105.5 
			60.9,105.1 60.2,104.7 59.5,104.2 58.8,103.6 58.3,102.8 58,101.9 57.8,100.9 57.8,99.6 57.8,99.6 57.9,98.8 58.1,98.1 58.3,97.4 
			58.5,96.8 58.8,96.2 59.2,95.7 59.6,95.2 60.1,94.7 60.7,94.4 61.3,94 62,93.7 62.8,93.5 63.7,93.3 64.7,93.2 65.8,93.1 
			66.9,93.1 66.9,93.1 67.7,93.1 68.3,93.1 68.9,93.1 69.5,93.2 70,93.2 70.5,93.2 70.9,93.3 71.2,93.3 71.6,93.4 71.8,93.4 
			72.1,93.5 72.3,93.5 72.5,93.5 72.7,93.6 72.9,93.6 73,93.6 72,98.1 		"/>
		<polygon class="st7" points="76.7,88.7 82.2,88.7 81.4,93.5 84.7,93.5 84,98 80.5,97.9 78.6,109 78.6,109.4 78.7,109.7 78.9,110 
			79.2,110.2 79.5,110.3 79.9,110.5 80.3,110.5 80.8,110.6 81.3,110.6 81.7,110.5 82,110.5 82.3,110.4 82.6,110.3 82.8,110.2 
			82.9,110.2 82.9,110.2 82.2,113.9 82.1,114 82,114 81.8,114.1 81.7,114.2 81.5,114.3 81.4,114.3 81.2,114.4 81,114.4 80.8,114.5 
			80.6,114.5 80.4,114.6 80.1,114.6 79.9,114.7 79.6,114.7 79.3,114.7 78.9,114.8 77.4,114.8 76.6,114.7 75.9,114.6 75.3,114.5 
			74.8,114.4 74.3,114.2 73.9,114 73.6,113.8 73.3,113.5 73.1,113.2 73,112.9 72.9,112.6 72.8,112.2 72.8,111.8 72.8,111.3 
			72.9,110.9 72.9,110.4 76.7,88.7 76.7,88.7 		"/>
		<polyline class="st8" points="76.7,88.7 82.2,88.7 81.4,93.5 84.7,93.5 84,98 80.5,97.9 78.6,109 78.6,109 78.6,109.4 78.7,109.7 
			78.9,110 79.2,110.2 79.5,110.3 79.9,110.5 80.3,110.5 80.8,110.6 80.8,110.6 81.3,110.6 81.7,110.5 82,110.5 82.3,110.4 
			82.6,110.3 82.8,110.2 82.9,110.2 82.9,110.2 82.2,113.9 82.2,113.9 82.1,114 82,114 81.8,114.1 81.7,114.2 81.5,114.3 
			81.4,114.3 81.2,114.4 81,114.4 80.8,114.5 80.6,114.5 80.4,114.6 80.1,114.6 79.9,114.7 79.6,114.7 79.3,114.7 78.9,114.8 
			77.4,114.8 77.4,114.8 76.6,114.7 75.9,114.6 75.3,114.5 74.8,114.4 74.3,114.2 73.9,114 73.6,113.8 73.3,113.5 73.1,113.2 
			73,112.9 72.9,112.6 72.8,112.2 72.8,111.8 72.8,111.3 72.9,110.9 72.9,110.4 76.7,88.7 		"/>
		<polygon class="st7" points="89.1,105.5 89.1,105.8 89,106.2 89.1,106.6 89.2,106.9 89.3,107.3 89.5,107.7 89.7,108.1 89.9,108.4 
			90.2,108.7 90.5,109 90.8,109.3 91.2,109.6 91.5,109.8 91.9,110 92.3,110.1 92.7,110.2 93.2,110.3 93.7,110.3 94.2,110.4 
			94.8,110.4 95.3,110.4 95.8,110.4 96.3,110.4 96.9,110.4 97.4,110.3 97.9,110.2 98.5,110.1 99,109.9 99.6,109.7 100.2,109.4 
			100.7,109.1 101.3,108.8 100.5,113.7 100.2,113.8 99.9,114 99.5,114.1 99.2,114.2 98.9,114.3 98.6,114.4 98.3,114.5 98,114.6 
			97.6,114.6 97.2,114.7 96.8,114.7 96.3,114.7 95.8,114.8 95.3,114.8 94.7,114.8 94,114.8 93.1,114.8 92.1,114.7 91.1,114.5 
			90.1,114.3 89.1,114 88.2,113.6 87.3,113.1 86.4,112.5 85.7,111.9 85,111 84.4,110.1 83.9,109.1 83.6,107.9 83.4,106.6 
			83.3,105.1 83.4,103.5 83.5,102.8 83.6,102.1 83.8,101.3 84,100.5 84.3,99.7 84.7,98.8 85.1,97.9 85.7,97.1 86.3,96.3 87.1,95.5 
			87.9,94.9 88.9,94.3 90.1,93.8 91.4,93.4 92.8,93.2 94.4,93.1 95.2,93.1 96,93.2 96.8,93.3 97.6,93.5 98.4,93.8 99.2,94.2 
			99.9,94.7 100.6,95.2 101.2,95.9 101.7,96.7 102.1,97.6 102.3,98.7 102.5,99.9 102.5,101.2 102.4,102.7 102.1,104.4 102,105.6 
			87.5,105.6 88.4,101.7 97.1,101.7 97.2,101.2 97.1,100.7 97.1,100.3 97,99.9 96.9,99.5 96.7,99.2 96.5,98.9 96.3,98.6 96.1,98.3 
			95.9,98.1 95.6,98 95.3,97.8 94.9,97.7 94.6,97.6 94.3,97.5 93.9,97.5 93.5,97.5 93.2,97.6 92.9,97.7 92.5,97.8 92.2,97.9 
			91.9,98.1 91.6,98.3 91.3,98.6 91.1,98.9 90.8,99.2 90.6,99.5 90.4,99.8 90.3,100.2 90.1,100.6 90,101 89.9,101.4 89.1,105.5 
			89.1,105.5 		"/>
		<polyline class="st8" points="89.1,105.5 89.1,105.5 89.1,105.8 89,106.2 89.1,106.6 89.2,106.9 89.3,107.3 89.5,107.7 
			89.7,108.1 89.9,108.4 90.2,108.7 90.5,109 90.8,109.3 91.2,109.6 91.5,109.8 91.9,110 92.3,110.1 92.7,110.2 92.7,110.2 
			93.2,110.3 93.7,110.3 94.2,110.4 94.8,110.4 95.3,110.4 95.8,110.4 96.3,110.4 96.9,110.4 97.4,110.3 97.9,110.2 98.5,110.1 
			99,109.9 99.6,109.7 100.2,109.4 100.7,109.1 101.3,108.8 100.5,113.7 100.5,113.7 100.2,113.8 99.9,114 99.5,114.1 99.2,114.2 
			98.9,114.3 98.6,114.4 98.3,114.5 98,114.6 97.6,114.6 97.2,114.7 96.8,114.7 96.3,114.7 95.8,114.8 95.3,114.8 94.7,114.8 
			94,114.8 94,114.8 93.1,114.8 92.1,114.7 91.1,114.5 90.1,114.3 89.1,114 88.2,113.6 87.3,113.1 86.4,112.5 85.7,111.9 85,111 
			84.4,110.1 83.9,109.1 83.6,107.9 83.4,106.6 83.3,105.1 83.4,103.5 83.4,103.5 83.5,102.8 83.6,102.1 83.8,101.3 84,100.5 
			84.3,99.7 84.7,98.8 85.1,97.9 85.7,97.1 86.3,96.3 87.1,95.5 87.9,94.9 88.9,94.3 90.1,93.8 91.4,93.4 92.8,93.2 94.4,93.1 
			94.4,93.1 95.2,93.1 96,93.2 96.8,93.3 97.6,93.5 98.4,93.8 99.2,94.2 99.9,94.7 100.6,95.2 101.2,95.9 101.7,96.7 102.1,97.6 
			102.3,98.7 102.5,99.9 102.5,101.2 102.4,102.7 102.1,104.4 102,105.6 87.5,105.6 88.4,101.7 97.1,101.7 97.1,101.7 97.2,101.2 
			97.1,100.7 97.1,100.3 97,99.9 96.9,99.5 96.7,99.2 96.5,98.9 96.3,98.6 96.1,98.3 95.9,98.1 95.6,98 95.3,97.8 94.9,97.7 
			94.6,97.6 94.3,97.5 93.9,97.5 93.9,97.5 93.5,97.5 93.2,97.6 92.9,97.7 92.5,97.8 92.2,97.9 91.9,98.1 91.6,98.3 91.3,98.6 
			91.1,98.9 90.8,99.2 90.6,99.5 90.4,99.8 90.3,100.2 90.1,100.6 90,101 89.9,101.4 89.1,105.5 		"/>
		<polygon class="st7" points="136.5,94.7 136.2,94.6 136,94.5 135.7,94.3 135.4,94.2 135.1,94.1 134.7,93.9 134.4,93.8 134,93.7 
			133.7,93.6 133.3,93.5 132.9,93.4 132.5,93.4 132,93.3 131.5,93.3 131.1,93.3 130.6,93.3 130.1,93.3 129.6,93.3 129,93.4 
			128.5,93.5 127.9,93.7 127.4,93.9 126.8,94.2 126.2,94.5 125.7,94.9 125.2,95.5 124.7,96.1 124.2,96.8 123.8,97.7 123.4,98.7 
			123,99.8 122.7,101.1 122.6,101.8 122.5,102.5 122.4,103.2 122.5,103.9 122.5,104.5 122.7,105.2 122.8,105.8 123,106.4 
			123.3,106.9 123.7,107.4 124.1,107.9 124.6,108.3 125.1,108.6 125.7,108.9 126.4,109.2 127.2,109.4 127.4,109.4 127.7,109.5 
			128.1,109.5 128.5,109.6 128.9,109.6 129.4,109.6 129.9,109.6 130.4,109.6 130.9,109.5 131.4,109.4 131.9,109.3 132.4,109.1 
			132.9,108.9 133.4,108.6 133.8,108.3 134.2,108 133.3,113.3 133.2,113.4 133,113.5 132.9,113.6 132.7,113.7 132.5,113.9 
			132.2,114 131.9,114.2 131.5,114.3 131.1,114.4 130.6,114.5 130,114.6 129.3,114.7 128.5,114.7 127.6,114.8 126.6,114.7 
			125.5,114.7 124.6,114.6 123.6,114.4 122.7,114.1 121.8,113.7 120.9,113.2 120.1,112.6 119.3,111.9 118.6,111.1 117.9,110.2 
			117.4,109.2 116.9,108.1 116.5,106.9 116.3,105.6 116.2,104.2 116.3,102.6 116.5,101 116.6,100.2 116.8,99.4 117,98.6 117.2,97.9 
			117.4,97.2 117.7,96.5 117.9,95.8 118.2,95.2 118.5,94.6 118.8,94 119.2,93.5 119.5,92.9 119.9,92.4 120.3,92 120.7,91.5 
			121.1,91.1 121.5,90.7 122,90.3 122.5,90 123,89.7 123.5,89.4 124,89.1 124.6,88.9 125.2,88.7 125.8,88.5 126.4,88.3 127,88.2 
			127.7,88.1 128.4,88 129.1,87.9 129.8,87.8 130.6,87.8 131.2,87.8 131.8,87.9 132.4,87.9 133,88 133.6,88.1 134.1,88.2 
			134.6,88.3 135.1,88.4 135.6,88.6 136,88.7 136.3,88.8 136.6,88.9 136.9,89 137.2,89.1 137.3,89.2 137.5,89.2 136.5,94.7 
			136.5,94.7 		"/>
		<polyline class="st8" points="136.5,94.7 136.5,94.7 136.2,94.6 136,94.5 135.7,94.3 135.4,94.2 135.1,94.1 134.7,93.9 
			134.4,93.8 134,93.7 133.7,93.6 133.3,93.5 132.9,93.4 132.5,93.4 132,93.3 131.5,93.3 131.1,93.3 130.6,93.3 130.6,93.3 
			130.1,93.3 129.6,93.3 129,93.4 128.5,93.5 127.9,93.7 127.4,93.9 126.8,94.2 126.2,94.5 125.7,94.9 125.2,95.5 124.7,96.1 
			124.2,96.8 123.8,97.7 123.4,98.7 123,99.8 122.7,101.1 122.7,101.1 122.6,101.8 122.5,102.5 122.4,103.2 122.5,103.9 
			122.5,104.5 122.7,105.2 122.8,105.8 123,106.4 123.3,106.9 123.7,107.4 124.1,107.9 124.6,108.3 125.1,108.6 125.7,108.9 
			126.4,109.2 127.2,109.4 127.2,109.4 127.4,109.4 127.7,109.5 128.1,109.5 128.5,109.6 128.9,109.6 129.4,109.6 129.9,109.6 
			130.4,109.6 130.9,109.5 131.4,109.4 131.9,109.3 132.4,109.1 132.9,108.9 133.4,108.6 133.8,108.3 134.2,108 133.3,113.3 
			133.3,113.3 133.2,113.4 133,113.5 132.9,113.6 132.7,113.7 132.5,113.9 132.2,114 131.9,114.2 131.5,114.3 131.1,114.4 
			130.6,114.5 130,114.6 129.3,114.7 128.5,114.7 127.6,114.8 126.6,114.7 125.5,114.7 125.5,114.7 124.6,114.6 123.6,114.4 
			122.7,114.1 121.8,113.7 120.9,113.2 120.1,112.6 119.3,111.9 118.6,111.1 117.9,110.2 117.4,109.2 116.9,108.1 116.5,106.9 
			116.3,105.6 116.2,104.2 116.3,102.6 116.5,101 116.5,101 116.6,100.2 116.8,99.4 117,98.6 117.2,97.9 117.4,97.2 117.7,96.5 
			117.9,95.8 118.2,95.2 118.5,94.6 118.8,94 119.2,93.5 119.5,92.9 119.9,92.4 120.3,92 120.7,91.5 121.1,91.1 121.5,90.7 
			122,90.3 122.5,90 123,89.7 123.5,89.4 124,89.1 124.6,88.9 125.2,88.7 125.8,88.5 126.4,88.3 127,88.2 127.7,88.1 128.4,88 
			129.1,87.9 129.8,87.8 130.6,87.8 130.6,87.8 131.2,87.8 131.8,87.9 132.4,87.9 133,88 133.6,88.1 134.1,88.2 134.6,88.3 
			135.1,88.4 135.6,88.6 136,88.7 136.3,88.8 136.6,88.9 136.9,89 137.2,89.1 137.3,89.2 137.5,89.2 136.5,94.7 		"/>
		<polygon class="st7" points="185.3,114.8 179.8,114.8 180.2,112.6 180.2,112.4 179.9,112.8 179.6,113.1 179.3,113.5 178.9,113.7 
			178.5,114 178.2,114.2 177.8,114.4 177.4,114.6 177.1,114.7 176.7,114.8 176.3,114.9 175.9,115 175.5,115 175.1,115.1 
			174.7,115.1 174.4,115.1 173.3,115 172.4,114.8 171.5,114.4 170.7,114 170,113.4 169.3,112.7 168.8,112 168.3,111.2 167.9,110.3 
			167.6,109.3 167.4,108.4 167.2,107.4 167.2,106.3 167.2,105.3 167.3,104.3 167.5,103.3 167.8,102.1 168.1,101 168.5,100 169,99 
			169.5,98.1 170.1,97.3 170.8,96.6 171.4,96 172.1,95.4 172.8,94.9 173.6,94.5 174.4,94.1 175.1,93.9 175.9,93.7 176.7,93.6 
			177.5,93.5 178.1,93.5 178.7,93.6 179.2,93.7 179.7,93.8 180.1,94 180.5,94.2 180.9,94.4 181.3,94.6 181.6,94.8 181.9,95.1 
			182.2,95.4 182.4,95.6 182.6,95.9 182.8,96.1 182.9,96.4 183,96.6 183,96.6 184.4,88.8 189.8,88.8 185.3,114.8 185.3,114.8 		"/>
		<polyline class="st8" points="185.3,114.8 179.8,114.8 180.2,112.6 180.2,112.4 180.2,112.4 179.9,112.8 179.6,113.1 179.3,113.5 
			178.9,113.7 178.5,114 178.2,114.2 177.8,114.4 177.4,114.6 177.1,114.7 176.7,114.8 176.3,114.9 175.9,115 175.5,115 
			175.1,115.1 174.7,115.1 174.4,115.1 174.4,115.1 173.3,115 172.4,114.8 171.5,114.4 170.7,114 170,113.4 169.3,112.7 168.8,112 
			168.3,111.2 167.9,110.3 167.6,109.3 167.4,108.4 167.2,107.4 167.2,106.3 167.2,105.3 167.3,104.3 167.5,103.3 167.5,103.3 
			167.8,102.1 168.1,101 168.5,100 169,99 169.5,98.1 170.1,97.3 170.8,96.6 171.4,96 172.1,95.4 172.8,94.9 173.6,94.5 174.4,94.1 
			175.1,93.9 175.9,93.7 176.7,93.6 177.5,93.5 177.5,93.5 178.1,93.5 178.7,93.6 179.2,93.7 179.7,93.8 180.1,94 180.5,94.2 
			180.9,94.4 181.3,94.6 181.6,94.8 181.9,95.1 182.2,95.4 182.4,95.6 182.6,95.9 182.8,96.1 182.9,96.4 183,96.6 183,96.6 
			184.4,88.8 189.8,88.8 185.3,114.8 		"/>
		<polygon class="st3" points="176.4,110 176.9,109.9 177.4,109.8 177.9,109.7 178.4,109.5 178.8,109.2 179.2,108.9 179.6,108.6 
			179.9,108.2 180.2,107.8 180.5,107.4 180.7,106.9 180.9,106.5 181.1,106 181.3,105.5 181.4,104.9 181.5,104.4 181.6,103.8 
			181.7,103.2 181.7,102.7 181.7,102.2 181.6,101.6 181.5,101.1 181.4,100.7 181.2,100.2 181,99.8 180.8,99.4 180.5,99.1 
			180.2,98.8 179.9,98.6 179.6,98.4 179.2,98.3 178.8,98.3 178.2,98.3 177.7,98.4 177.3,98.6 176.8,98.8 176.4,99 176,99.4 
			175.7,99.7 175.3,100.1 175,100.5 174.8,101 174.5,101.4 174.3,102 174.1,102.5 173.9,103 173.8,103.6 173.7,104.2 173.6,105.1 
			173.6,106 173.7,107 174,107.9 174.4,108.7 174.9,109.4 175.6,109.8 176.4,110 176.4,110 		"/>
		<polygon class="st7" points="54.4,110.4 53.6,114.8 48.6,114.8 48.8,114 48.9,113.2 49,112.7 49,112.4 48.8,112.7 48.4,113 
			48.1,113.3 47.6,113.6 47.2,113.9 46.7,114.1 46.2,114.3 45.6,114.5 45,114.7 44.5,114.9 43.9,115 43.3,115.1 42.7,115.1 
			42.1,115.1 41.6,115.1 41.1,115 40.4,114.8 39.7,114.6 39.2,114.3 38.7,114 38.2,113.7 37.8,113.4 37.5,113 37.2,112.6 37,112.2 
			36.8,111.7 36.6,111.3 36.5,110.9 36.4,110.4 36.4,110 36.4,109.5 36.4,109.1 36.4,108.3 36.5,107.6 36.7,106.9 37,106.2 
			37.3,105.6 37.7,105 38.1,104.4 38.6,103.9 39.1,103.5 39.6,103.1 40.2,102.7 40.8,102.4 41.4,102.1 42.1,101.9 42.7,101.7 
			43.4,101.6 43.5,101.6 43.6,101.6 43.7,101.5 43.9,101.5 44.2,101.5 44.5,101.5 44.7,101.4 45.1,101.4 45.4,101.3 45.8,101.3 
			46.1,101.3 46.4,101.2 46.8,101.2 47.1,101.2 47.3,101.2 47.5,101.2 48,101.2 48.5,101.2 48.9,101.2 49.4,101.2 49.7,101.2 
			50,101.3 50.2,101.3 50.2,101.3 50.3,101.1 50.4,100.8 50.5,100.4 50.5,100 50.5,99.6 50.3,99.2 50,98.8 49.7,98.5 49.4,98.2 
			48.9,98.1 48.5,97.9 47.9,97.9 47.4,97.9 46.8,97.9 46.2,97.9 45.5,97.9 44.9,97.9 44.3,98 43.6,98 43,98.1 42.4,98.2 41.8,98.3 
			41.3,98.4 40.8,98.5 40.4,98.6 40,98.7 39.8,98.9 39.5,99 41,94.2 41.4,94 41.8,93.9 42.3,93.7 42.8,93.6 43.3,93.5 43.8,93.5 
			44.3,93.4 44.8,93.3 45.4,93.3 46,93.3 46.6,93.3 47.2,93.3 47.8,93.3 48.5,93.3 49.2,93.3 49.9,93.3 50.4,93.3 51,93.4 
			51.6,93.6 52.3,93.8 52.9,94 53.5,94.3 54.1,94.6 54.6,95 55.1,95.4 55.5,95.9 55.9,96.4 56.2,97 56.4,97.7 56.6,98.3 56.6,99.1 
			56.4,99.9 54.4,110.4 54.4,110.4 		"/>
		<polyline class="st8" points="54.4,110.4 53.6,114.8 48.6,114.8 48.6,114.8 48.8,114 48.9,113.2 49,112.7 49,112.4 49,112.4 
			48.8,112.7 48.4,113 48.1,113.3 47.6,113.6 47.2,113.9 46.7,114.1 46.2,114.3 45.6,114.5 45,114.7 44.5,114.9 43.9,115 
			43.3,115.1 42.7,115.1 42.1,115.1 41.6,115.1 41.1,115 41.1,115 40.4,114.8 39.7,114.6 39.2,114.3 38.7,114 38.2,113.7 
			37.8,113.4 37.5,113 37.2,112.6 37,112.2 36.8,111.7 36.6,111.3 36.5,110.9 36.4,110.4 36.4,110 36.4,109.5 36.4,109.1 
			36.4,109.1 36.4,108.3 36.5,107.6 36.7,106.9 37,106.2 37.3,105.6 37.7,105 38.1,104.4 38.6,103.9 39.1,103.5 39.6,103.1 
			40.2,102.7 40.8,102.4 41.4,102.1 42.1,101.9 42.7,101.7 43.4,101.6 43.4,101.6 43.5,101.6 43.6,101.6 43.7,101.5 43.9,101.5 
			44.2,101.5 44.5,101.5 44.7,101.4 45.1,101.4 45.4,101.3 45.8,101.3 46.1,101.3 46.4,101.2 46.8,101.2 47.1,101.2 47.3,101.2 
			47.5,101.2 47.5,101.2 48,101.2 48.5,101.2 48.9,101.2 49.4,101.2 49.7,101.2 50,101.3 50.2,101.3 50.2,101.3 50.2,101.3 
			50.3,101.1 50.4,100.8 50.5,100.4 50.5,100 50.5,100 50.5,99.6 50.3,99.2 50,98.8 49.7,98.5 49.4,98.2 48.9,98.1 48.5,97.9 
			47.9,97.9 47.9,97.9 47.4,97.9 46.8,97.9 46.2,97.9 45.5,97.9 44.9,97.9 44.3,98 43.6,98 43,98.1 42.4,98.2 41.8,98.3 41.3,98.4 
			40.8,98.5 40.4,98.6 40,98.7 39.8,98.9 39.5,99 41,94.2 41,94.2 41.4,94 41.8,93.9 42.3,93.7 42.8,93.6 43.3,93.5 43.8,93.5 
			44.3,93.4 44.8,93.3 45.4,93.3 46,93.3 46.6,93.3 47.2,93.3 47.8,93.3 48.5,93.3 49.2,93.3 49.9,93.3 49.9,93.3 50.4,93.3 
			51,93.4 51.6,93.6 52.3,93.8 52.9,94 53.5,94.3 54.1,94.6 54.6,95 55.1,95.4 55.5,95.9 55.9,96.4 56.2,97 56.4,97.7 56.6,98.3 
			56.6,99.1 56.4,99.9 54.4,110.4 		"/>
		<polygon class="st6" points="49.7,105.2 49.6,105.1 49.6,105 49.4,104.9 49.2,104.9 49,104.9 48.8,104.8 48.5,104.8 48.2,104.8 
			47.8,104.9 47.5,104.9 47.2,104.9 46.9,105 46.6,105 46.3,105.1 46.1,105.1 45.8,105.2 45.7,105.2 45.5,105.3 45.3,105.4 
			45.1,105.5 44.8,105.6 44.6,105.7 44.3,105.9 44.1,106 43.8,106.2 43.5,106.4 43.3,106.7 43.1,106.9 42.9,107.2 42.7,107.4 
			42.6,107.8 42.5,108.1 42.5,108.7 42.6,109.3 42.8,109.7 43.1,110 43.4,110.2 43.7,110.3 44,110.4 44.4,110.4 44.9,110.4 
			45.5,110.3 46,110.2 46.5,110.1 46.9,110 47.2,109.8 47.6,109.6 47.9,109.4 48.1,109.2 48.4,108.9 48.6,108.7 48.7,108.5 
			48.9,108.2 49,108 49.1,107.8 49.1,107.6 49.3,107 49.4,106.3 49.6,105.7 49.7,105.2 49.7,105.2 		"/>
		<polygon class="st7" points="12.7,114.8 7.3,114.8 11.8,88.7 21.2,88.7 22.1,104.2 28.5,88.7 38.4,88.7 33.7,114.8 28.3,114.8 
			31.8,95.3 31.5,95.3 23.5,114.8 17.4,114.8 17.3,114 17.2,111.8 17,108.7 16.8,105.2 16.6,101.6 16.4,98.5 16.3,96.3 16.3,95.3 
			16.2,95.3 16.1,95.3 16,95.3 16,95.3 12.7,114.8 12.7,114.8 		"/>
		<polyline class="st8" points="12.7,114.8 7.3,114.8 11.8,88.7 21.2,88.7 22.1,104.2 28.5,88.7 38.4,88.7 33.7,114.8 28.3,114.8 
			31.8,95.3 31.5,95.3 23.5,114.8 17.4,114.8 17.4,114.8 17.3,114 17.2,111.8 17,108.7 16.8,105.2 16.6,101.6 16.4,98.5 16.3,96.3 
			16.3,95.3 16.3,95.3 16.2,95.3 16.1,95.3 16,95.3 16,95.3 12.7,114.8 		"/>
		<polygon class="st7" points="153,110.4 152.2,114.8 147.2,114.8 147.2,114 147.2,113.3 147.2,112.7 147.3,112.5 147,112.8 
			146.7,113.1 146.4,113.4 146,113.6 145.5,113.9 145.1,114.1 144.6,114.4 144.1,114.6 143.5,114.7 143,114.9 142.4,115 
			141.9,115.1 141.3,115.1 140.7,115.1 140.2,115.1 139.7,115 139,114.8 138.3,114.6 137.8,114.3 137.2,114 136.8,113.7 
			136.4,113.4 136.1,113 135.8,112.6 135.6,112.2 135.4,111.7 135.3,111.3 135.2,110.9 135.1,110.4 135,110 135,109.5 135,109.1 
			135,108.3 135.1,107.6 135.3,106.9 135.6,106.2 135.9,105.6 136.3,105 136.7,104.4 137.1,103.9 137.6,103.5 138.2,103.1 
			138.8,102.7 139.4,102.4 140,102.1 140.6,101.9 141.3,101.7 142,101.6 142,101.6 142.1,101.6 142.2,101.5 142.4,101.5 
			142.7,101.5 143,101.5 143.3,101.4 143.6,101.4 143.9,101.3 144.3,101.3 144.6,101.3 145,101.2 145.3,101.2 145.6,101.2 
			145.8,101.2 146.1,101.2 146.5,101.2 147,101.2 147.5,101.2 147.9,101.2 148.3,101.2 148.6,101.3 148.8,101.3 148.9,101.3 
			148.9,101.1 149,100.8 149,100.4 149.1,100 149,99.6 148.8,99.2 148.6,98.8 148.3,98.5 147.9,98.2 147.5,98.1 147.1,97.9 
			146.6,97.9 146,97.9 145.4,97.9 144.8,97.9 144.2,97.9 143.5,97.9 142.9,98 142.2,98 141.6,98.1 141,98.2 140.5,98.3 139.9,98.4 
			139.5,98.5 139,98.6 138.7,98.7 138.4,98.9 138.2,99 139.6,94.2 140,94 140.5,93.9 140.9,93.7 141.4,93.6 141.9,93.5 142.4,93.5 
			142.9,93.4 143.4,93.3 144,93.3 144.6,93.3 145.1,93.3 145.8,93.3 146.4,93.3 147,93.3 147.7,93.3 148.4,93.3 148.9,93.3 
			149.5,93.4 150.1,93.6 150.8,93.8 151.4,94 152,94.3 152.6,94.6 153.1,95 153.6,95.4 154.1,95.9 154.5,96.4 154.8,97 155,97.7 
			155.2,98.3 155.2,99.1 155.1,99.9 153,110.4 153,110.4 		"/>
		<polygon class="st7" points="152.2,114.9 152.3,114.8 153.1,110.4 152.8,110.4 152,114.8 152.2,114.6 152.2,114.9 152.3,114.9 
			152.3,114.8 152.2,114.9 152.2,114.9 		"/>
		<polygon class="st7" points="147.1,114.8 147.2,114.9 152.2,114.9 152.2,114.6 147.2,114.6 147.3,114.8 147.1,114.8 147,114.9 
			147.2,114.9 147.1,114.8 147.1,114.8 		"/>
		<polygon class="st7" points="147.4,112.6 147.2,112.4 147.1,112.7 147.1,113.3 147.1,114 147.1,114.8 147.3,114.8 147.3,114 
			147.4,113.3 147.3,112.7 147.3,112.6 147.2,112.4 147.4,112.6 147.4,112.6 		"/>
		<polygon class="st7" points="139.6,115.1 139.6,115.1 140.2,115.2 140.7,115.2 141.3,115.2 141.9,115.2 142.4,115.1 143,115 
			143.6,114.8 144.1,114.7 144.6,114.5 145.1,114.2 145.6,114 146,113.7 146.4,113.5 146.8,113.2 147.1,112.9 147.4,112.6 
			147.2,112.4 146.9,112.7 146.6,113 146.3,113.3 145.9,113.5 145.5,113.8 145,114 144.5,114.2 144,114.4 143.5,114.6 143,114.8 
			142.4,114.9 141.9,114.9 141.3,115 140.7,115 140.2,114.9 139.7,114.9 139.7,114.9 139.6,115.1 139.6,115.1 		"/>
		<polygon class="st7" points="134.8,109.1 134.8,109.1 134.9,109.5 134.9,110 135,110.4 135,110.9 135.1,111.3 135.3,111.8 
			135.5,112.2 135.7,112.7 136,113.1 136.3,113.5 136.7,113.8 137.2,114.1 137.7,114.5 138.3,114.7 138.9,114.9 139.6,115.1 
			139.7,114.9 139,114.7 138.4,114.5 137.8,114.2 137.3,113.9 136.9,113.6 136.5,113.3 136.2,112.9 135.9,112.5 135.7,112.1 
			135.5,111.7 135.4,111.3 135.3,110.9 135.2,110.4 135.1,110 135.1,109.5 135.1,109.1 135.1,109.1 134.8,109.1 134.8,109.1 		"/>
		<polygon class="st7" points="142,101.5 142,101.5 141.3,101.6 140.6,101.8 139.9,102 139.3,102.3 138.7,102.6 138.1,103 
			137.6,103.4 137,103.9 136.6,104.4 136.2,104.9 135.8,105.5 135.5,106.2 135.2,106.8 135,107.6 134.9,108.3 134.8,109.1 
			135.1,109.1 135.1,108.3 135.3,107.6 135.4,106.9 135.7,106.2 136,105.6 136.4,105.1 136.8,104.5 137.2,104 137.7,103.6 
			138.3,103.2 138.8,102.8 139.4,102.5 140,102.2 140.7,102 141.3,101.8 142,101.7 142,101.7 142,101.5 142,101.5 		"/>
		<polygon class="st7" points="146.1,101 146.1,101 145.8,101 145.6,101.1 145.3,101.1 145,101.1 144.6,101.2 144.3,101.2 
			143.9,101.2 143.6,101.3 143.3,101.3 143,101.3 142.7,101.4 142.4,101.4 142.2,101.4 142.1,101.4 142,101.5 142,101.5 142,101.7 
			142,101.7 142.1,101.7 142.2,101.7 142.4,101.6 142.7,101.6 143,101.6 143.3,101.5 143.6,101.5 143.9,101.5 144.3,101.4 
			144.6,101.4 145,101.4 145.3,101.3 145.6,101.3 145.8,101.3 146.1,101.3 146.1,101.3 146.1,101 146.1,101 		"/>
		<polygon class="st7" points="148.7,101.3 148.9,101.2 148.8,101.2 148.6,101.1 148.3,101.1 147.9,101.1 147.5,101.1 147,101.1 
			146.5,101 146.1,101 146.1,101.3 146.5,101.3 147,101.3 147.5,101.4 147.9,101.4 148.3,101.4 148.6,101.4 148.8,101.4 
			148.9,101.4 149,101.3 148.9,101.4 149,101.4 149,101.3 148.7,101.3 148.7,101.3 		"/>
		<polygon class="st7" points="148.9,100 148.9,100 148.9,100.4 148.8,100.8 148.8,101.1 148.7,101.3 149,101.3 149,101.2 
			149.1,100.8 149.1,100.4 149.2,100 149.2,100 148.9,100 148.9,100 		"/>
		<polygon class="st7" points="146.6,98 146.6,98 147,98.1 147.4,98.2 147.8,98.4 148.2,98.6 148.5,98.9 148.7,99.2 148.9,99.6 
			148.9,100 149.2,100 149.1,99.5 148.9,99.1 148.7,98.7 148.3,98.4 148,98.1 147.5,97.9 147.1,97.8 146.6,97.8 146.6,97.8 
			146.6,98 146.6,98 		"/>
		<polygon class="st7" points="138.1,99 138.3,99.1 138.5,99 138.7,98.9 139.1,98.7 139.5,98.6 140,98.5 140.5,98.4 141.1,98.3 
			141.6,98.2 142.2,98.2 142.9,98.1 143.5,98 144.2,98 144.8,98 145.4,98 146,98 146.6,98 146.6,97.8 146,97.8 145.4,97.7 
			144.8,97.7 144.2,97.8 143.5,97.8 142.9,97.9 142.2,97.9 141.6,98 141,98.1 140.4,98.2 139.9,98.3 139.4,98.4 139,98.5 
			138.6,98.6 138.3,98.8 138.1,98.9 138.3,99 138.1,99 138.1,99 		"/>
		<polygon class="st7" points="139.5,94.1 139.4,94.2 138.1,99 138.3,99 139.7,94.2 139.6,94.3 139.5,94.1 139.5,94.1 139.4,94.2 
			139.5,94.1 139.5,94.1 		"/>
		<polygon class="st7" points="148.4,93.2 148.4,93.2 147.7,93.1 147,93.1 146.4,93.1 145.8,93.1 145.1,93.1 144.6,93.2 144,93.2 
			143.4,93.2 142.9,93.3 142.4,93.3 141.9,93.4 141.4,93.5 140.9,93.6 140.4,93.8 140,93.9 139.5,94.1 139.6,94.3 140,94.2 
			140.5,94 140.9,93.9 141.4,93.8 141.9,93.7 142.4,93.6 142.9,93.5 143.4,93.5 144,93.4 144.6,93.4 145.1,93.4 145.8,93.4 
			146.4,93.4 147,93.4 147.7,93.4 148.4,93.4 148.4,93.4 148.4,93.2 148.4,93.2 		"/>
		<polygon class="st7" points="155.2,99.9 155.2,99.9 155.3,99.1 155.3,98.3 155.1,97.6 154.9,97 154.6,96.4 154.2,95.8 153.7,95.3 
			153.2,94.9 152.7,94.5 152.1,94.2 151.4,93.9 150.8,93.6 150.1,93.5 149.5,93.3 148.9,93.2 148.4,93.2 148.4,93.4 148.9,93.5 
			149.5,93.6 150.1,93.7 150.7,93.9 151.3,94.1 151.9,94.4 152.5,94.7 153.1,95.1 153.6,95.5 154,96 154.4,96.5 154.7,97.1 
			154.9,97.7 155,98.3 155,99.1 154.9,99.9 154.9,99.9 155.2,99.9 155.2,99.9 		"/>
		<polygon class="st7" points="153.1,110.4 153.1,110.4 155.2,99.9 154.9,99.9 152.8,110.4 152.8,110.4 153.1,110.4 153.1,110.4 		
			"/>
		<polygon class="st3" points="148.2,105.2 148.1,105.1 148,105 147.9,104.9 147.7,104.9 147.5,104.8 147.2,104.8 146.9,104.8 
			146.6,104.8 146.3,104.9 146,104.9 145.7,105 145.4,105 145.1,105.1 144.8,105.1 144.6,105.2 144.4,105.2 144.2,105.2 
			144.1,105.3 143.9,105.3 143.7,105.4 143.4,105.5 143.2,105.6 142.9,105.8 142.6,106 142.4,106.1 142.1,106.4 141.9,106.6 
			141.7,106.8 141.5,107.1 141.4,107.4 141.2,107.7 141.2,108.1 141.2,108.7 141.3,109.3 141.4,109.7 141.7,110 141.9,110.2 
			142.3,110.3 142.6,110.4 143,110.4 143.6,110.4 144.1,110.3 144.6,110.2 145.1,110.1 145.5,109.9 145.9,109.7 146.3,109.5 
			146.6,109.3 146.9,109.1 147.1,108.8 147.3,108.6 147.5,108.3 147.6,108.1 147.7,107.8 147.8,107.6 147.9,107.4 147.9,106.8 
			148,106.2 148.1,105.7 148.2,105.2 148.2,105.2 		"/>
		<polygon class="st7" points="189.1,112.1 189.1,111.6 189.3,111.1 189.5,110.6 189.9,110.2 190.3,109.8 190.8,109.6 191.3,109.4 
			191.8,109.4 192.4,109.4 192.9,109.6 193.4,109.8 193.8,110.2 194.1,110.6 194.4,111.1 194.6,111.6 194.6,112.1 194,112.1 
			194,111.7 193.9,111.3 193.7,110.9 193.4,110.5 193.1,110.3 192.7,110.1 192.3,109.9 191.8,109.9 191.4,109.9 190.9,110.1 
			190.6,110.3 190.3,110.5 190,110.9 189.8,111.3 189.7,111.7 189.6,112.1 189.1,112.1 189.1,112.1 		"/>
		<polygon class="st7" points="190.8,112.1 190.8,110.9 191.9,110.9 192.2,110.9 192.4,110.9 192.6,111 192.7,111.1 192.8,111.2 
			192.9,111.3 192.9,111.4 192.9,111.6 192.9,111.8 192.9,111.9 192.8,112 192.8,112.1 191.9,112.1 192,112 192.2,112 192.3,112 
			192.4,111.9 192.5,111.9 192.5,111.8 192.5,111.7 192.5,111.6 192.5,111.5 192.5,111.4 192.4,111.4 192.4,111.3 192.3,111.3 
			192.2,111.3 192.1,111.3 191.9,111.3 191.3,111.3 191.3,112.1 190.8,112.1 190.8,112.1 		"/>
		<polygon class="st7" points="189.1,112.1 189,112.2 189.1,112.8 189.3,113.3 189.5,113.8 189.9,114.2 190.3,114.5 190.8,114.8 
			191.3,114.9 191.8,115 192.4,114.9 192.9,114.8 193.4,114.5 193.8,114.2 194.1,113.8 194.4,113.3 194.6,112.8 194.6,112.2 
			194.6,112.1 194,112.1 194,112.2 194,112.7 193.9,113.1 193.7,113.5 193.4,113.8 193.1,114.1 192.7,114.3 192.3,114.4 
			191.8,114.5 191.4,114.4 190.9,114.3 190.6,114.1 190.3,113.8 190,113.5 189.8,113.1 189.7,112.7 189.6,112.2 189.6,112.1 
			189.1,112.1 189.1,112.1 		"/>
		<polygon class="st7" points="190.8,112.1 190.8,113.3 191.3,113.3 191.3,112.3 191.8,112.3 192.4,113.3 192.8,113.3 192.2,112.3 
			192.4,112.3 192.5,112.2 192.6,112.2 192.7,112.1 192.8,112.1 191.9,112.1 191.8,112.1 191.3,112.1 191.3,112.1 190.8,112.1 
			190.8,112.1 		"/>
		<path class="st8" d="M189,112.2L189,112.2l0.1-0.6l0.2-0.5l0.3-0.5l0.3-0.4l0.4-0.3l0.5-0.2l0.5-0.2l0.6-0.1l0,0l0.6,0.1l0.5,0.2
			l0.5,0.2l0.4,0.3l0.3,0.4l0.3,0.5l0.2,0.5l0.1,0.6l0,0l-0.1,0.6l-0.2,0.5l-0.3,0.5l-0.3,0.4l-0.4,0.3l-0.5,0.3l-0.5,0.2l-0.6,0.1
			l0,0l-0.6-0.1l-0.5-0.2l-0.5-0.3l-0.4-0.3l-0.3-0.4l-0.3-0.5l-0.2-0.5L189,112.2 M191.3,113.3h-0.5v-2.4h1.1l0,0l0.2,0l0.2,0
			l0.2,0.1l0.1,0.1l0.1,0.1l0.1,0.1l0,0.1l0,0.1l0,0l0,0.2l0,0.1l-0.1,0.1l-0.1,0.1l-0.1,0.1l-0.1,0l-0.1,0h-0.1l0.6,1h-0.4l-0.6-1
			h-0.5V113.3 M191.8,112.1L191.8,112.1l0.2,0l0.1,0l0.1,0l0.1,0l0.1-0.1l0-0.1l0-0.1v-0.1l0,0l0-0.1l0-0.1l-0.1,0l-0.1,0l-0.1,0
			l-0.1,0h-0.1h-0.1h-0.6v0.8H191.8 M191.8,114.5L191.8,114.5l0.5,0l0.4-0.1l0.4-0.2l0.3-0.3l0.3-0.3l0.2-0.4l0.1-0.4l0-0.5l0,0
			l0-0.5l-0.1-0.4l-0.2-0.4l-0.3-0.3l-0.3-0.3l-0.4-0.2l-0.4-0.1l-0.5,0l0,0l-0.5,0l-0.4,0.1l-0.4,0.2l-0.3,0.3l-0.3,0.3l-0.2,0.4
			l-0.1,0.4l0,0.5l0,0l0,0.5l0.1,0.4l0.2,0.4l0.3,0.3l0.3,0.3l0.4,0.2l0.4,0.1L191.8,114.5"/>
		<polygon class="st7" points="154.5,114.8 160.1,114.8 160.1,114.8 162.1,103.5 162.1,103 162.3,102.6 162.4,102.2 162.5,101.7 
			162.7,101.3 163,100.9 163.2,100.5 163.6,100.1 163.9,99.8 164.3,99.5 164.8,99.2 165.3,98.9 165.9,98.7 166.5,98.6 167.2,98.4 
			168,98.4 168.2,98.4 168.4,98.4 168.5,98.4 168.5,98.4 169.3,93.3 168.8,93.3 168.3,93.4 167.8,93.5 167.3,93.6 166.8,93.8 
			166.4,94 166,94.2 165.7,94.5 165.3,94.7 165,95 164.6,95.3 164.3,95.6 164,96 163.7,96.4 163.4,96.7 163.2,97.1 163.7,93.5 
			158.2,93.5 154.5,114.8 154.5,114.8 154.5,114.8 		"/>
		<polyline class="st8" points="154.5,114.8 160.1,114.8 160.1,114.8 162.1,103.5 162.1,103.5 162.1,103 162.3,102.6 162.4,102.2 
			162.5,101.7 162.7,101.3 163,100.9 163.2,100.5 163.6,100.1 163.9,99.8 164.3,99.5 164.8,99.2 165.3,98.9 165.9,98.7 166.5,98.6 
			167.2,98.4 168,98.4 168,98.4 168.2,98.4 168.4,98.4 168.5,98.4 168.5,98.4 169.3,93.3 169.3,93.3 168.8,93.3 168.3,93.4 
			167.8,93.5 167.3,93.6 166.8,93.8 166.4,94 166,94.2 165.7,94.5 165.3,94.7 165,95 164.6,95.3 164.3,95.6 164,96 163.7,96.4 
			163.4,96.7 163.2,97.1 163.7,93.5 158.2,93.5 154.5,114.8 154.5,114.8 		"/>
		<polygon class="st7" points="101.9,114.8 107.5,114.8 107.6,114.8 109.5,103.5 109.6,103 109.7,102.6 109.8,102.2 109.9,101.8 
			110.1,101.4 110.3,101 110.5,100.7 110.8,100.3 111.1,100 111.5,99.8 111.9,99.5 112.4,99.3 112.9,99.1 113.5,99 114.2,98.9 
			115,98.8 115,98.8 115.1,98.8 115.2,98.8 115.3,98.8 115.4,98.9 115.5,98.9 115.6,98.9 115.6,98.9 115.6,98.8 115.7,98.6 
			115.7,98.2 115.8,97.8 116,97.3 116.1,96.7 116.3,96.2 116.5,95.6 116.6,95.2 116.8,94.8 117,94.5 117.2,94.1 117.4,93.8 
			117.6,93.6 117.6,93.5 117.7,93.4 117.7,93.4 117.6,93.4 117.5,93.4 117.4,93.3 117.2,93.3 117.1,93.3 116.9,93.3 116.8,93.3 
			116.2,93.3 115.6,93.4 115.1,93.5 114.6,93.6 114.2,93.8 113.7,94 113.4,94.2 113,94.4 112.7,94.7 112.3,95 112.1,95.3 
			111.8,95.6 111.5,95.9 111.2,96.3 110.9,96.7 110.6,97.1 111.3,93.5 105.6,93.5 101.9,114.8 101.9,114.8 101.9,114.8 		"/>
		<polyline class="st8" points="101.9,114.8 107.5,114.8 107.6,114.8 109.5,103.5 109.5,103.5 109.6,103 109.7,102.6 109.8,102.2 
			109.9,101.8 110.1,101.4 110.3,101 110.5,100.7 110.8,100.3 111.1,100 111.5,99.8 111.9,99.5 112.4,99.3 112.9,99.1 113.5,99 
			114.2,98.9 115,98.8 115,98.8 115,98.8 115.1,98.8 115.2,98.8 115.3,98.8 115.4,98.9 115.5,98.9 115.6,98.9 115.6,98.9 
			115.6,98.9 115.6,98.8 115.7,98.6 115.7,98.2 115.8,97.8 116,97.3 116.1,96.7 116.3,96.2 116.5,95.6 116.5,95.6 116.6,95.2 
			116.8,94.8 117,94.5 117.2,94.1 117.4,93.8 117.6,93.6 117.6,93.5 117.7,93.4 117.7,93.4 117.7,93.4 117.6,93.4 117.5,93.4 
			117.4,93.3 117.2,93.3 117.1,93.3 116.9,93.3 116.8,93.3 116.8,93.3 116.2,93.3 115.6,93.4 115.1,93.5 114.6,93.6 114.2,93.8 
			113.7,94 113.4,94.2 113,94.4 112.7,94.7 112.3,95 112.1,95.3 111.8,95.6 111.5,95.9 111.2,96.3 110.9,96.7 110.6,97.1 
			111.3,93.5 105.6,93.5 101.9,114.8 101.9,114.8 		"/>
		<polygon class="st3" points="189.1,135.7 189.1,135.6 189.3,135.1 189.5,134.6 189.9,134.2 190.3,133.9 190.8,133.7 191.3,133.5 
			191.8,133.5 192.4,133.5 192.9,133.7 193.4,133.9 193.8,134.2 194.1,134.6 194.4,135.1 194.6,135.6 194.6,135.7 194,135.7 
			193.9,135.2 193.7,134.9 193.4,134.5 193.1,134.3 192.7,134 192.3,133.9 191.8,133.9 191.4,133.9 190.9,134 190.6,134.3 
			190.3,134.5 190,134.9 189.8,135.2 189.7,135.7 189.1,135.7 189.1,135.7 		"/>
		<polygon class="st3" points="190.8,135.7 190.8,135 191.9,135 192.2,135 192.4,135 192.6,135.1 192.7,135.1 192.8,135.2 
			192.9,135.3 192.9,135.5 192.9,135.7 192.5,135.7 192.5,135.6 192.5,135.5 192.5,135.4 192.4,135.3 192.4,135.3 192.3,135.3 
			192.2,135.3 192.1,135.3 191.9,135.3 191.3,135.3 191.3,135.7 190.8,135.7 190.8,135.7 		"/>
		<polygon class="st3" points="189,136.1 189.1,135.7 189.7,135.7 189.7,135.7 189.6,136.1 189,136.1 189,136.1 		"/>
		<polygon class="st3" points="190.8,136.1 190.8,135.7 191.3,135.7 191.3,136.1 191.8,136.1 192,136 192.2,136 192.3,136 
			192.4,135.9 192.5,135.9 192.5,135.8 192.5,135.7 192.5,135.7 192.9,135.7 192.9,135.7 192.9,135.8 192.9,135.9 192.8,136 
			192.7,136.1 190.8,136.1 190.8,136.1 		"/>
		<polygon class="st3" points="194,136.1 194,135.7 194,135.7 194.6,135.7 194.6,136.1 194,136.1 194,136.1 		"/>
		<polygon class="st3" points="189,136.1 189,136.2 189.1,136.7 189.3,137.3 189.5,137.8 189.9,138.2 190.3,138.5 190.8,138.7 
			191.3,138.9 191.8,139 192.4,138.9 192.9,138.7 193.4,138.5 193.8,138.2 194.1,137.8 194.4,137.3 194.6,136.7 194.6,136.2 
			194.6,136.1 194,136.1 194,136.2 194,136.6 193.9,137.1 193.7,137.5 193.4,137.8 193.1,138.1 192.7,138.3 192.3,138.4 
			191.8,138.5 191.4,138.4 190.9,138.3 190.6,138.1 190.3,137.8 190,137.5 189.8,137.1 189.7,136.6 189.6,136.2 189.6,136.1 
			189,136.1 189,136.1 		"/>
		<polygon class="st3" points="190.8,136.1 190.8,137.3 191.3,137.3 191.3,136.3 191.8,136.3 192.4,137.3 192.8,137.3 192.2,136.3 
			192.4,136.3 192.5,136.2 192.6,136.2 192.7,136.1 192.7,136.1 190.8,136.1 190.8,136.1 		"/>
		<rect x="86.7" y="101.8" class="st7" width="3.6" height="3.8"/>
	</g>
</g>
<g id="Capa_8">
	<g>
		<path class="st4" d="M200.8,0H0v200h200.8v-66c0.8-1.1,1.2-2.6,1.2-4.4c0-2-0.4-3.3-1.2-4.4"/>
		<path class="st9" d="M18,86.5l-3.8-9.3l-3.8,9.3 M102.4,82.8c-0.8,0.5-1.7,0.5-2.8,0.5h-6.8v-5.2h6.9c1,0,2,0,2.7,0.4
			c0.7,0.3,1.2,1.1,1.2,2.1C103.6,81.6,103.1,82.4,102.4,82.8z M151,86.5l-3.9-9.3l-3.9,9.3H151z M60.5,96.7h-5.7l0-18.4l-8.1,18.4
			h-4.9l-8.1-18.4v18.4H22.1L20,91.4H8.3l-2.2,5.2H0.1l10-23.4h8.3l9.5,22.2V73.2h9.1l7.3,15.9l6.7-15.9h9.3L60.5,96.7L60.5,96.7z
			 M83.4,96.7H64.7V73.2h18.7v4.9H70.3v4.2H83v4.8H70.3v4.7h13.1V96.7z M109.7,79.5c0,3.7-2.5,5.7-3.9,6.2c1.2,0.5,2.3,1.3,2.8,2
			c0.8,1.2,0.9,2.2,0.9,4.3v4.6h-5.6l0-3c0-1.4,0.1-3.4-0.9-4.6c-0.8-0.8-2.1-1-4.1-1h-6v8.5h-5.6V73.2h12.9c2.9,0,5,0.1,6.8,1.1
			C108.7,75.4,109.7,76.9,109.7,79.5z M118.7,96.7H113V73.2h5.7V96.7z M185,96.7h-7.9l-10.6-17.6v17.6H155l-2.2-5.2h-11.6l-2.1,5.2
			h-6.6c-2.7,0-6.2-0.6-8.1-2.6c-2-2-3-4.7-3-8.9c0-3.5,0.6-6.7,3-9.2c1.8-1.9,4.6-2.7,8.5-2.7h5.4v5h-5.3c-2,0-3.2,0.3-4.3,1.4
			c-1,1-1.6,2.9-1.6,5.3c0,2.5,0.5,4.3,1.5,5.5c0.9,0.9,2.4,1.2,3.9,1.2h2.5l7.9-18.4h8.4l9.5,22.2V73.2h8.5l9.8,16.3V73.2h5.7V96.7
			L185,96.7z M0,101.3h9.6l2.2-5.2h4.8l2.2,5.2h18.8v-4l1.7,4H49l1.7-4.1v4h46.8l0-8.5h0.9c0.6,0,0.8,0.1,0.8,1.1v7.4h24.2v-2
			c2,1,5,2,9,2h10.2l2.2-5.2h4.8l2.1,5.2h19.6v-4.9l3,4.9H190V68.6h-15.6v3.9l-2.2-3.9h-16v3.9l-2-3.9h-21.6c-3.6,0-6.8,0.5-9.3,1.9
			v-1.9h-14.9v1.9c-1.6-1.4-3.9-1.9-6.3-1.9H47.8L44.1,77l-3.7-8.4H23.3v3.9l-1.9-3.9H6.8L0,84.1L0,101.3L0,101.3z"/>
		<path class="st9" d="M200,118.5h-10.2c-1,0-1.7,0-2.3,0.4c-0.6,0.4-0.8,0.9-0.8,1.7c0,0.9,0.5,1.5,1.2,1.7
			c0.6,0.2,1.2,0.3,2.2,0.3l3,0.1c3.1,0.1,5.1,0.6,6.4,1.9c0.2,0.2,0.4,0.4,0.5,0.6 M200,134c-1.4,2-4,3-7.6,3h-10.8v-5h10.8
			c1.1,0,1.8-0.1,2.3-0.6c0.4-0.4,0.7-0.9,0.7-1.5c0-0.7-0.3-1.2-0.7-1.6c-0.4-0.4-1-0.5-2-0.5c-5.3-0.2-11.8,0.2-11.8-7.3
			c0-3.4,2.2-7,8-7H200v-4.7h-10.4c-3.1,0-5.4,0.7-7,1.9v-1.9h-15.3c-2.5,0-5.3,0.6-6.7,1.9v-1.9h-27.4v1.9
			c-2.2-1.6-5.9-1.9-7.6-1.9h-18.1v1.9c-1.7-1.7-5.6-1.9-7.9-1.9H79.5l-4.6,5l-4.3-5H40.3v32.7H70l4.8-5.1l4.5,5.1l18.3,0v-7.7h1.8
			c2.4,0,5.3-0.1,7.8-1.1v8.8h15.1v-8.5h0.7c0.9,0,1,0,1,1v7.6h45.8c2.9,0,5.9-0.7,7.6-2.1v2.1h14.5c3,0,6-0.4,8.2-1.5V134L200,134z
			 M177.7,124.6c1.1,1.1,1.7,2.6,1.7,5c0,5-3.2,7.4-8.8,7.4h-10.9v-5h10.9c1.1,0,1.8-0.1,2.3-0.6c0.4-0.4,0.7-0.9,0.7-1.5
			c0-0.7-0.3-1.2-0.7-1.6c-0.4-0.4-1-0.5-2-0.5c-5.2-0.2-11.8,0.2-11.8-7.3c0-3.4,2.1-7,8-7h11.2v5h-10.3c-1,0-1.7,0-2.2,0.4
			c-0.6,0.4-0.8,0.9-0.8,1.7c0,0.9,0.5,1.5,1.2,1.7c0.6,0.2,1.2,0.3,2.2,0.3l3,0.1C174.3,122.8,176.4,123.3,177.7,124.6z
			 M127.1,123.2c-0.7,0.4-1.7,0.5-2.8,0.5h-6.8v-5.3h6.9c1,0,2,0,2.7,0.4c0.7,0.4,1.2,1.1,1.2,2.1
			C128.3,121.9,127.8,122.7,127.1,123.2z M130.5,126.1c1.2,0.5,2.3,1.3,2.7,2c0.8,1.1,0.9,2.2,0.9,4.3v4.6h-5.6v-2.9
			c0-1.4,0.1-3.5-0.9-4.6c-0.8-0.8-2.1-1-4.1-1h-6v8.6h-5.6v-23.4h12.9c2.8,0,4.9,0.1,6.7,1.1c1.8,1.1,2.9,2.5,2.9,5.2
			C134.5,123.6,132,125.5,130.5,126.1z M137.6,113.6h18.7v4.8h-13.1v4.3h12.8v4.8h-12.8v4.7l13.1,0v4.9h-18.7V113.6z M99.8,124.4
			h-7.2v-6h7.3c2,0,3.4,0.8,3.4,2.9C103.3,123.3,101.9,124.4,99.8,124.4z M87,134.9l-8.6-9.5l8.6-9.2V134.9z M64.8,132.1H51v-4.7
			h12.3v-4.8H51v-4.3h14l6.1,6.8L64.8,132.1z M109.3,121.3c0,6.5-4.9,7.9-9.8,7.9h-7v7.9H81.7l-6.9-7.8l-7.2,7.8H45.4v-23.4h22.5
			l6.9,7.7l7.1-7.7h17.9C104.3,113.6,109.3,114.8,109.3,121.3z"/>
	</g>
</g>
</svg>
