<svg xmlns="http://www.w3.org/2000/svg" viewBox="0 320.5 612 150.6">
<path fill="#222222" d="M388.3,447.6c-10.4,0-19.8-1.1-28.2-9.5l10.8-10.8c5.5,5.5,12.6,6.3,17.7,6.3c5.7,0,11.7-1.9,11.7-7
	c0-3.3-1.7-5.6-7-6.1l-10.4-1c-12-1.1-19.4-6.4-19.4-18.6c0-13.7,12.1-21.1,25.6-21.1c10.3,0,19,1.7,25.3,7.8l-10.2,10.3
	c-3.8-3.4-9.7-4.5-15.4-4.5c-6.6,0-9.4,3.1-9.4,6.4c0,2.4,1,5.2,6.9,5.7l10.4,1c13.1,1.3,19.7,8.2,19.7,19.5
	C416.4,440.5,403.9,447.5,388.3,447.6 M463.3,446.8v-40.5c0-8.8-5.6-11.7-10.8-11.7s-10.8,3.1-10.8,11.8v40.4h-16.5v-90.5h16.5v30.4
	c4.5-4.6,10.1-6.9,15.9-6.9c14.5,0,22.2,10.2,22.2,24.2v42.8L463.3,446.8L463.3,446.8z M538.4,439.4c-4.1,4.3-10.8,8.1-20.7,8.1
	c-9.7,0-16.4-3.8-20.5-8.1c-5.9-6.3-7.5-13.8-7.5-25.9c0-12,1.5-19.5,7.5-25.7c4-4.3,10.7-8.1,20.4-8.1c9.8,0,16.6,3.8,20.6,8.1
	c6,6.3,7.5,13.7,7.5,25.7C545.9,425.6,544.3,433.1,538.4,439.4 M525.5,397.4c-1.9-1.9-4.4-2.9-7.7-2.9s-5.7,1-7.6,3
	c-3.4,3.5-3.8,9.1-3.8,16s0.4,12.8,3.8,16.2c1.9,1.9,4.3,3,7.6,3s5.8-1,7.8-2.9c3.5-3.4,3.8-9.2,3.8-16.1s-0.3-12.6-3.8-16
	 M605.4,441.6c-3.7,3.7-9.7,6-16.2,6c-6.7,0-11.6-1.7-16-6.6v30.1h-16.5v-90.6h16v6.3c4.6-5.1,9.6-7,16.6-7c6.5,0,12.5,2.3,16.2,6
	c6.6,6.6,6.7,17.9,6.7,27.8C612.2,423.5,612,435,605.4,441.6 M584.4,394.6c-9.9,0-11.2,8.2-11.2,19s1.3,19.1,11.2,19.1
	s11.2-8.3,11.2-19.1S594.4,394.7,584.4,394.6"/>
<g>
	<path fill="#DA262C" d="M260.9,377.3c-9.5,0-17.7,3.5-24.4,10.4c-6.9,6.9-10.2,15.3-10.2,24.9s3.3,18,10.2,24.8
		c6.7,6.9,14.9,10.4,24.4,10.4s17.8-3.5,24.8-10.4c6.7-6.7,10.2-15.1,10.2-24.8s-3.5-18-10.2-24.9
		C278.8,380.7,270.6,377.3,260.9,377.3z M274,425.5c-3.5,3.6-7.8,5.5-12.9,5.5c-4.9,0-9.3-1.8-12.9-5.5c-3.5-3.6-5.5-8-5.5-13.1
		c0-5.3,2-9.7,5.5-13.1c3.5-3.6,7.8-5.5,12.9-5.3c5.1-0.2,9.5,1.6,13.1,5.3c3.5,3.5,5.1,7.8,5.3,13.1
		C279.3,417.5,277.5,421.9,274,425.5z"/>
	<path fill="#DA262C" d="M41,376.5c5.1,0,9.8,1.5,14.4,4.4c4,2.7,7.3,6.6,9.5,11.1h17.5c-2.5-9.3-7.5-17.1-15.1-22.9
		c-7.6-6.2-16.6-9.1-26.2-9.1c-12,0-21.9,4.2-30.2,12.7C2.2,381.3-2,391.5-2,403.5c0,11.8,4.2,22.4,12.7,31
		c8.4,8.4,18.4,12.6,30.4,12.6c9.7,0,18.6-2.9,26.2-8.9c7.5-6.2,12.6-13.7,15.1-22.9H65c-2.2,4.6-5.5,8.2-9.5,11.1
		c-4.6,2.7-9.1,4.2-14.4,4.2c-7.5,0-13.7-2.7-18.8-7.8c-5.3-5.3-7.8-11.5-7.6-18.9c-0.2-7.5,2.4-13.7,7.6-18.9
		C27.3,379.3,33.7,376.5,41,376.5z"/>
	<path fill="#DA262C" d="M166.6,381.5c-5.8-3.1-12.2-4.6-19.5-4.4c-11.3-0.2-19.1,2.9-23.7,8.9c-2.9,3.6-4.4,8.6-4.7,14.6h16.8
		c0.4-2.9,1.3-4.9,2.4-6.2c1.8-2.2,4.7-3.5,8.9-3.3c3.5-0.2,6.2,0.5,8.2,1.6c2,0.9,2.7,2.9,2.9,5.6c0,2.2-1.3,4-3.8,5.1l-12.9,2
		c-6,0.7-10.7,2.2-14.4,4.4c-6.2,3.6-9.3,9.7-9.1,18.2c-0.2,6,1.8,10.7,5.6,14.4c3.5,2.9,8,4.6,13.7,4.7c9.1-0.2,16.4-2.4,21.5-6.9
		v6.9h16.8V398C175,390,172.1,384.4,166.6,381.5z M157.3,419.9c0,5.8-1.6,9.8-4.7,12c-3.3,2.2-6.6,3.5-10.4,3.5c-2.4,0-4.4-0.7-6-2
		c-1.6-1.5-2.4-3.5-2.4-6.6c0-3.5,1.3-5.8,4-7.6c1.6-0.9,4.4-1.8,7.8-2.2l8.4-2.2l3.3-1.8L157.3,419.9L157.3,419.9z"/>
	<rect x="90.9" y="360" fill="#DA262C" width="16.8" height="87.2"/>
	<path fill="#DA262C" d="M220.3,377.8l-6.4,1.8c-4.6,1.8-8.6,4.9-11.8,9.5v-8.6l-15.8-0.2v67h16.6v-32c0-5.5,0.7-9.3,2.2-11.8
		c1.1-2.5,3.3-4.7,5.8-6.4c2.9-2,6-2.9,9.1-2.9l5.1,0.4l-0.2-17.1L220.3,377.8z"/>
	<polygon fill="#DA262C" points="328.5,328.8 288.2,369.3 298.8,379.8 339,339.4 	"/>
	<rect x="255.5" y="320.5" fill="#DA262C" width="14.9" height="43.3"/>
	<rect x="306.1" y="396.6" fill="#DA262C" width="44.2" height="14.9"/>
</g>
</svg>
