<?xml version="1.0" encoding="UTF-8"?>
<svg width="26px" height="34px" viewBox="0 0 26 34" version="1.1" xmlns="http://www.w3.org/2000/svg" xmlns:xlink="http://www.w3.org/1999/xlink">
    <!-- Generator: Sketch 43.2 (39069) - http://www.bohemiancoding.com/sketch -->
    <title>Pin click</title>
    <desc>Created with Sketch.</desc>
    <defs></defs>
    <g id="Page-1" stroke="none" stroke-width="1" fill="none" fill-rule="evenodd">
        <g id="Claro-Shop---Detalle-producto-CyR" transform="translate(-1310.000000, -562.000000)">
            <g id="Group-27" transform="translate(1139.000000, 552.000000)">
                <g id="Pin-click" transform="translate(171.000000, 10.000000)">
                    <path d="M1.36988463,22.0049549 C0.507078368,20.8070657 0,19.3438454 0,17.764146 C0,13.7077298 3.34357559,10.4193548 7.46808511,10.4193548 C11.5925946,10.4193548 14.9361702,13.7077298 14.9361702,17.764146 C14.9361702,19.3438454 14.4290918,20.8070657 13.5662856,22.0049549 L7.46808511,34 L1.36988463,22.0049549 Z M7.27155655,22.0163934 C9.7679702,22.0163934 11.7917133,20.0260612 11.7917133,17.570862 C11.7917133,15.1156627 9.7679702,13.1253305 7.27155655,13.1253305 C4.7751429,13.1253305 2.75139978,15.1156627 2.75139978,17.570862 C2.75139978,20.0260612 4.7751429,22.0163934 7.27155655,22.0163934 Z" id="Combined-Shape" fill="#E3132C"></path>
                    <path d="M15.7981979,11.5869154 C15.1283726,10.894676 14.4858105,10.2306534 13.8297872,9.5526068 C16.389982,6.90665388 18.9264918,4.2848626 21.4802115,1.64516129 C22.1406651,2.32996635 22.7738554,2.98689259 23.4341386,3.67186661 C20.8868939,6.3120748 18.3626526,8.92862825 15.7981979,11.5869154" id="Fill-20" fill="#EB2927"></path>
                    <path d="M25.5112998,18.1885372 L17.1489624,18.1885372 C17.1489624,17.486329 17.1493032,16.7988205 17.1489624,16.1113121 C17.1484512,15.3614564 17.1482808,15.3614564 17.8866052,15.3614564 C20.2893544,15.3616254 22.6921036,15.3673701 25.0946824,15.3548669 C25.4269539,15.3531773 25.5559434,15.426676 25.5404374,15.7823421 C25.5111294,16.4477164 25.53294,17.1151183 25.5308953,17.7818444 C25.5305545,17.9141421 25.5184564,18.0466087 25.5112998,18.1885372" id="Fill-21" fill="#EB2927"></path>
                    <polygon id="Fill-22" fill="#EB2927" points="7.19148936 8.44136704 9.8830592 8.44136704 9.8830592 0 7.19148936 0"></polygon>
                </g>
            </g>
        </g>
    </g>
</svg>